<svg xmlns="http://www.w3.org/2000/svg" width="118" height="160" viewBox="0 0 118 160" fill="none"><path d="M99.4199 117.186H40.2625L80.7689 82.2958C83.2159 80.0973 85.5428 77.7686 87.7396 75.3198C89.878 72.9266 91.7424 70.3019 93.2981 67.4943C94.9231 64.5237 96.1578 61.3553 96.9715 58.0681C97.8474 54.612 98.2866 50.7465 98.2892 46.4717C98.2892 39.8117 97.1908 33.9673 94.994 28.9382C92.7971 23.909 89.7507 19.7295 85.8547 16.3996C81.9613 13.0696 77.3771 10.5556 72.1023 8.8578C66.8275 7.15997 61.1752 6.31168 55.1454 6.31299C48.6139 6.31299 42.5539 7.16128 36.9653 8.8578C31.3767 10.5543 26.5096 13.1031 22.3641 16.504C18.2199 19.8983 14.8917 24.1403 12.3797 29.2299C9.86771 34.3194 8.42328 40.3217 8.04642 47.2366L36.3015 49.3102C36.6797 44.5334 38.3441 40.5109 41.2947 37.2427C44.2452 33.9745 48.3586 32.3411 53.6347 32.3424C58.0284 32.3424 61.8594 33.6302 65.1278 36.2059C68.3961 38.7816 70.029 42.3329 70.0264 46.86C70.0754 50.751 68.6631 54.5187 66.0692 57.4176C63.5923 60.2724 60.9503 62.9795 58.157 65.525L6.35449 112.096V142.068H99.4238L99.4199 117.186Z" fill="#F9DA4B"></path><path d="M105.723 110.992V110.878H76.7682L98.5036 92.152C100.951 89.9535 103.278 87.6248 105.474 85.176C107.613 82.7828 109.477 80.1581 111.033 77.3505C112.658 74.3799 113.892 71.2116 114.706 67.9243C115.582 64.4682 116.022 60.6028 116.026 56.328C116.044 53.0304 115.737 49.7391 115.11 46.5018C115.11 46.5018 114.878 44.7277 113.863 41.7611C113.522 40.74 113.142 39.7492 112.725 38.7885C112.691 38.7117 112.656 38.6387 112.622 38.5619C109.532 31.3947 102.742 20.4272 88.084 10.0904C83.8466 6.89347 79.0952 4.44363 74.0343 2.84635C68.1587 0.957975 61.8065 0 55.149 0C48.0266 0 41.2943 0.948138 35.1391 2.8168C28.7849 4.7446 23.1437 7.70329 18.3771 11.6062C13.5494 15.5604 9.62975 20.5454 6.73038 26.4234C3.85268 32.2522 2.1784 39.1355 1.75492 46.8782L1.41811 53.0598L1.61508 53.0736C1.61412 53.0834 1.61412 53.0933 1.61508 53.1032L54.0283 59.1665C54.4038 54.3897 56.0675 50.3679 59.0194 47.101C60.2171 45.7727 61.6588 44.6872 63.266 43.9038C63.5954 44.8537 63.7516 45.8552 63.727 46.8605C63.7776 49.2238 62.9194 51.5164 61.3298 53.2649C59.0159 55.9299 56.5497 58.4585 53.9435 60.8381L2.14097 107.403L0.049242 109.283V148.34L0 148.393L22.927 159.02L117.147 159.004V127.042L105.723 110.992ZM6.3502 112.096L58.1528 65.5254C60.9461 62.9799 63.588 60.2728 66.0649 57.4181C68.6589 54.5192 70.0711 50.7515 70.0221 46.8605C70.0221 42.3347 68.3892 38.7834 65.1235 36.2064C61.8577 33.6294 58.0267 32.3416 53.6304 32.3429C48.3556 32.3429 44.2423 33.9763 41.2904 37.2432C38.3385 40.5101 36.6754 44.5326 36.3011 49.3107L8.04212 47.237C8.41767 40.3261 9.8621 34.3239 12.3754 29.2304C14.8887 24.1369 18.2169 19.895 22.3598 16.5046C26.504 13.1102 31.3711 10.5647 36.961 8.86822C42.551 7.1717 48.611 6.32351 55.1411 6.32351C61.1696 6.32351 66.822 7.1717 72.0981 8.86822C77.3743 10.5647 81.9583 13.0787 85.8504 16.4099C89.7425 19.7412 92.7889 23.9207 94.9897 28.9485C97.1905 33.9763 98.2889 39.8208 98.285 46.482C98.285 50.7582 97.8457 54.6236 96.9673 58.0784C96.1535 61.3657 94.9188 64.5339 93.2938 67.5045C91.7381 70.3121 89.8737 72.9369 87.7354 75.3301C85.5386 77.7789 83.2117 80.1075 80.7647 82.3059L40.2582 117.196H99.4156V142.068H6.3502V112.096Z" fill="black"></path></svg>