<svg xmlns="http://www.w3.org/2000/svg" width="122" height="155" viewBox="0 0 122 155" fill="none"><path d="M117.664 95.4526C114.316 89.0798 108.968 83.6965 102.417 80.6412C106.824 78.7949 110.381 76.0352 113.089 72.3623C116.981 67.0835 118.928 60.7357 118.929 53.3189C118.929 46.9086 117.705 41.3782 115.256 36.7276C114.323 34.9522 113.24 33.26 112.019 31.6695C108.332 25.6772 102.467 18.5514 93.1795 11.6168C92.6004 11.1332 92.0055 10.6648 91.3949 10.2114C86.6224 6.66329 81.0521 4.03569 74.8358 2.38977C68.7432 0.796206 62.4704 -0.00283099 56.1732 0.0125257C50.2689 -0.0100525 44.3816 0.64675 38.6273 1.96993C33.1039 3.23598 27.8142 5.36463 22.9526 8.27767C18.0574 11.2682 13.7961 15.1906 10.4098 19.8228C6.92934 24.5398 4.30373 30.2443 2.59799 36.7748L0.921843 43.2048L7.42177 44.5452L24.0498 47.9751C24.0443 47.9912 24.0396 48.0077 24.0359 48.0243L51.0067 53.5771C52.809 46.3469 59.0194 43.672 65.5823 42.712C66.3032 43.7429 66.6301 44.8803 66.6301 46.2975C66.6301 48.1642 66.3268 49.6229 65.7517 50.5158C65.1216 51.5138 64.2306 52.3202 63.1753 52.8477C61.6291 53.6272 59.9656 54.148 58.2511 54.3892C56.0032 54.721 53.734 54.8863 51.4617 54.884H35.9269V92.0031H48.8243C51.8221 92.0031 54.8653 92.0937 57.8671 92.2731C60.3134 92.421 62.5076 92.8763 64.3847 93.6273C65.7479 94.148 66.9388 95.0388 67.8238 96.1997C68.5151 97.1143 68.8973 98.8746 68.8973 101.155C68.8973 104.571 67.9952 107.213 66.1397 109.237C64.4439 111.078 61.4125 112.01 57.1167 112.01C52.7164 112.01 49.5373 111.159 47.6622 109.479C45.5842 107.615 44.2212 105.025 43.4943 101.561L42.1668 95.2535L35.8895 96.724L6.12177 103.7L0 105.135L1.41821 111.263C4.2053 123.321 9.78925 132.664 18.0323 139.104L17.9398 139.078C32.8739 151.633 55.2986 154.042 69.7284 154.124C70.8498 154.176 71.9871 154.201 73.14 154.201C76.6809 154.208 80.2174 153.953 83.721 153.44H83.7428C86.4271 153.044 89.084 152.48 91.6982 151.753C97.5376 150.121 102.624 147.639 106.957 144.306C111.306 140.956 114.848 136.671 117.32 131.767C119.258 127.983 120.392 123.835 120.881 119.621C121.84 111.393 121.608 102.935 117.664 95.4526ZM7.55959 109.842L37.3254 102.866C38.3299 107.644 40.3711 111.415 43.449 114.179C46.527 116.942 51.0802 118.322 57.1088 118.318C63.2594 118.318 67.812 116.716 70.7665 113.51C73.721 110.305 75.1969 106.189 75.1943 101.161C75.1943 97.3896 74.4098 94.467 72.8406 92.3933C71.2644 90.3178 69.1448 88.7192 66.7168 87.7749C64.2035 86.7696 61.3803 86.1723 58.2472 85.9831C55.1141 85.7939 51.9739 85.6999 48.8263 85.7012H42.2318V61.1917H51.4636C54.0491 61.1951 56.6313 61.006 59.1888 60.626C61.5844 60.2869 63.9078 59.5543 66.0649 58.4577C68.1029 57.4227 69.8269 55.8608 71.058 53.9339C72.312 51.9864 72.9397 49.4409 72.941 46.2975C72.941 42.2764 71.3397 38.9451 68.137 36.3038C64.9343 33.6624 61.0094 32.343 56.3623 32.3457C51.9646 32.3457 48.322 33.5395 45.4345 35.9272C42.547 38.315 40.662 41.2685 39.7796 44.7877L8.69216 38.3873C10.2009 32.6052 12.4621 27.672 15.4757 23.5877C18.3702 19.6136 22.0194 16.2498 26.2144 13.6886C30.5083 11.1158 35.1816 9.23836 40.0613 8.12589C45.3439 6.91109 50.749 6.3105 56.1692 6.33605C61.9229 6.31724 67.6546 7.0461 73.2207 8.50433C78.6846 9.94986 83.4887 12.2121 87.6329 15.2911C91.7647 18.3575 95.1468 22.3226 97.5245 26.8875C99.9735 31.5395 101.198 37.0699 101.198 43.4788C101.198 50.897 99.2513 57.2448 95.3579 62.5222C91.4645 67.7997 85.8122 71.1875 78.401 72.6856V73.2514C82.4191 73.7547 85.9645 74.9485 89.0372 76.8329C92.0476 78.6608 94.698 81.0252 96.8569 83.8089C99.0263 86.6419 100.684 89.8326 101.755 93.237C102.898 96.8333 103.47 100.587 103.451 104.36C103.451 111.025 102.164 116.873 99.5888 121.904C97.1174 126.807 93.5759 131.092 89.2263 134.44C84.893 137.773 79.806 140.256 73.9653 141.889C67.9205 143.549 61.6771 144.374 55.409 144.339C43.474 144.339 33.2061 141.574 24.6052 136.043C16.0043 130.512 10.3237 121.776 7.56354 109.836L7.55959 109.842Z" fill="black"></path><path d="M55.4169 144.338C61.6851 144.372 67.9284 143.548 73.9732 141.888C79.8153 140.256 84.9023 137.773 89.2343 134.439C93.5839 131.09 97.1255 126.806 99.5969 121.903C102.169 116.876 103.457 111.028 103.459 104.359C103.478 100.586 102.906 96.8326 101.764 93.2363C100.692 89.8319 99.0343 86.6413 96.8649 83.8084C94.706 81.0247 92.0556 78.6603 89.0452 76.8325C85.966 74.9481 82.4205 73.7542 78.409 73.251V72.6852C85.8189 71.1779 91.4712 67.7843 95.3659 62.5043C99.2606 57.2243 101.207 50.8766 101.206 43.4611C101.206 37.051 99.9815 31.5205 97.5325 26.87C95.1549 22.3051 91.7727 18.3402 87.6409 15.2738C83.4967 12.1949 78.6925 9.93265 73.2286 8.48715C67.6625 7.02893 61.9308 6.30009 56.1772 6.3189C50.7569 6.29334 45.3518 6.89393 40.0692 8.10871C35.1895 9.22117 30.5162 11.0985 26.2222 13.6712C22.0273 16.2324 18.3781 19.5963 15.4836 23.5703C12.4634 27.6572 10.2022 32.5903 8.69999 38.3697L39.7796 44.7877C40.6554 41.2712 42.5391 38.3177 45.4306 35.9274C48.3221 33.5371 51.9646 32.3432 56.3583 32.3458C61.0029 32.3458 64.9278 33.6652 68.1331 36.3039C71.3385 38.9426 72.9398 42.2738 72.9371 46.2975C72.9371 49.4395 72.3094 51.985 71.0541 53.9338C69.823 55.8606 68.099 57.4226 66.061 58.4575C63.9039 59.5541 61.5805 60.2867 59.1849 60.6257C56.6274 61.0058 54.0452 61.1949 51.4597 61.1915H42.2279V85.6947H48.8224C51.9608 85.6947 55.1011 85.7887 58.2434 85.9766C61.3857 86.1646 64.2089 86.7618 66.713 87.7684C69.1411 88.7127 71.2605 90.3112 72.8367 92.3868C74.4046 94.4604 75.1891 97.383 75.1904 101.154C75.1904 106.182 73.7145 110.299 70.7626 113.504C67.8107 116.709 63.2608 118.314 57.1128 118.319C51.0842 118.319 46.531 116.939 43.453 114.18C40.375 111.42 38.3338 107.649 37.3293 102.867L7.56348 109.843C10.321 121.787 16.0042 130.522 24.613 136.049C33.2218 141.577 43.4898 144.339 55.4169 144.338Z" fill="#F9DA4B"></path></svg>