<svg xmlns="http://www.w3.org/2000/svg" viewBox="0 0 74 74.13"><defs><style>.cls-1{fill:#ffdb43;}</style></defs><g id="Layer_2" data-name="Layer 2"><g id="Layer_1-2" data-name="Layer 1"><g id="aFomv0"><path d="M74,47.16c0,11.9-11.48,24.41-22.58,24.64-7.49.16-12.55-4.62-12.88-12.12-.48-11.36,10.06-24,21.23-25.35C68,33.3,74,38.72,74,47.16Zm-6.25-5.85c-4,1.49-6.84,3.65-8.51,7.14-3,6.27-5.94,12.56-9,19,7.15-.36,12.48-4.46,16.27-10.72C69.4,52,71.12,46.93,67.75,41.31ZM61.45,39c-8.75,1.17-14.18,6.4-17.29,14.19-1.47,3.69-2.11,7.59.73,11.35,4-3.21,6-7.47,7.73-11.85C54.63,47.52,56.43,42.27,61.45,39Z"></path><path d="M33.81,60.2c-.05,11.34-9.24,17.25-19.24,12C5,67.11-.15,58.79,0,47.79c.14-9.76,8.24-15,17.41-11.72S33.85,50.1,33.81,60.2Zm-5.57,4.89C30.76,57,27.93,50.4,22.5,44.77,19,41.12,14.78,38.56,9.13,40.1c.26,4.79,1.93,8.54,5.54,11.36C19.73,55.4,24.7,59.43,28.24,65.09Zm-3.74,4A13.65,13.65,0,0,0,23,65.87a82,82,0,0,0-8-8.3C10.82,54.14,6.7,50.87,5,45.41c-1.54,7.09.9,13,5.5,18.09C14.11,67.44,18.29,70.33,24.5,69.09Z"></path><path d="M20,20.59A24.07,24.07,0,0,1,25.27,5c5.31-6.44,13.5-6.64,19.1-.5,7.5,8.22,7.67,24.24.35,32.63-5.71,6.55-13.94,6.5-19.5-.2C21.39,32.29,20,26.82,20,20.59ZM38.91,35.9c5.55-4.44,7.24-10.44,6.53-17.22-.63-6.1-2.61-11.49-9.1-14.23-2.25,4.06-3.11,7.94-1.67,12.23C36.74,22.87,39,29,38.91,35.9ZM33.6,37.4a14.33,14.33,0,0,0,.49-3.76,68.09,68.09,0,0,0-2-10.16c-1.66-5.36-3.84-10.57-2.25-16.43-4.75,5.05-6.16,11.06-5.06,17.68C25.68,30.11,27.67,34.91,33.6,37.4Z"></path><path class="cls-1" d="M67.75,41.31c3.37,5.62,1.65,10.68-1.21,15.4C62.75,63,57.42,67.07,50.27,67.43c3-6.42,6-12.71,9-19C60.91,45,63.77,42.8,67.75,41.31Z"></path><path class="cls-1" d="M61.45,39c-5,3.29-6.82,8.54-8.83,13.69-1.7,4.38-3.68,8.64-7.73,11.85-2.84-3.76-2.2-7.66-.73-11.35C47.27,45.38,52.7,40.15,61.45,39Z"></path><path class="cls-1" d="M28.24,65.09c-3.54-5.66-8.51-9.69-13.57-13.63-3.61-2.82-5.28-6.57-5.54-11.36,5.65-1.54,9.85,1,13.37,4.67C27.93,50.4,30.76,57,28.24,65.09Z"></path><path class="cls-1" d="M24.5,69.09c-6.21,1.24-10.39-1.65-14-5.59-4.6-5.1-7-11-5.5-18.09,1.66,5.46,5.78,8.73,9.88,12.16a82,82,0,0,1,8,8.3A13.65,13.65,0,0,1,24.5,69.09Z"></path><path class="cls-1" d="M38.91,35.9c.11-6.87-2.17-13-4.24-19.22-1.44-4.29-.58-8.17,1.67-12.23,6.49,2.74,8.47,8.13,9.1,14.23C46.15,25.46,44.46,31.46,38.91,35.9Z"></path><path class="cls-1" d="M33.6,37.4c-5.93-2.49-7.92-7.29-8.81-12.67-1.1-6.62.31-12.63,5.06-17.68-1.59,5.86.59,11.07,2.25,16.43a68.09,68.09,0,0,1,2,10.16A14.33,14.33,0,0,1,33.6,37.4Z"></path></g></g></g></svg>