<svg xmlns="http://www.w3.org/2000/svg" viewBox="0 0 66.6 76.58"><defs><style>.cls-1,.cls-2{stroke:#000;stroke-miterlimit:10;}.cls-2{fill:#ffc5ff;}</style></defs><g id="Layer_2" data-name="Layer 2"><g id="Layer_1-2" data-name="Layer 1"><g id="hwO4nV"><path class="cls-1" d="M31.92,27.42c-.26-5.61-1.15-10.46-3.78-14.84-1.27-2.12-2.82-3.91-5.57-4.23-.49,0-.88-1-1.32-1.53.61-.35,1.43-1.15,1.81-1A33.25,33.25,0,0,1,28.6,8.91a6.17,6.17,0,0,1,1.74,2.31c1.82-1.46,3.7-2.86,5.46-4.4,4-3.47,8.05-6.56,13.7-6.31a12.41,12.41,0,0,1,7.56,2.92A3.56,3.56,0,0,1,58,6.17c-1.1,9.6-7,13.91-16.94,12.35-2.63-.42-5.22-1.09-7.84-1.64l1.66,10.48c1.59-.8,3.15-1.54,4.67-2.35,9.55-5.13,19.39-2,24,7.85a26.64,26.64,0,0,1,1.82,5.38c2.9,12.19-2.81,27.16-13,34.08-5.08,3.46-10.51,4.76-16.59,2.92A8.72,8.72,0,0,0,31,75.18c-7.28,2.24-13.42.1-19-4.54-9.81-8.21-14.17-24-9.8-35.79C4.56,28.5,8.7,24,15.7,22.79c4.56-.77,8.67.62,12.56,2.89C29.31,26.29,30.45,26.73,31.92,27.42ZM63.6,44.3a59.45,59.45,0,0,0-.88-6c-3.1-12.46-13.67-16.37-23.39-10.17a12.77,12.77,0,0,1-4.19,1.57c-3.18.67-6-.38-8.76-2C17.56,22.53,8.5,25.75,4.81,35.28A26.2,26.2,0,0,0,3.39,48.8C4.61,57,8,64.1,14.56,69.34,19.1,73,24.12,74.45,30,72.73a12.88,12.88,0,0,1,6.75,0,15.57,15.57,0,0,0,13.81-2.39C59.42,64.17,62.91,55.16,63.6,44.3ZM33,13.8c4.34,1.52,8.44,2.56,12.75,2.33,5.68-.31,8.64-3.52,9.54-9.59a2.15,2.15,0,0,0-.81-1.72,9.36,9.36,0,0,0-6.71-1.61C41.1,4.24,37.2,9,33,13.8Z"></path><path class="cls-2" d="M63.6,44.3c-.69,10.86-4.18,19.87-13.05,26.08a15.57,15.57,0,0,1-13.81,2.39,12.88,12.88,0,0,0-6.75,0c-5.87,1.72-10.89.22-15.43-3.39C8,64.1,4.61,57,3.39,48.8A26.2,26.2,0,0,1,4.81,35.28c3.69-9.53,12.75-12.75,21.57-7.59,2.75,1.62,5.58,2.67,8.76,2a12.77,12.77,0,0,0,4.19-1.57c9.72-6.2,20.29-2.29,23.39,10.17A59.45,59.45,0,0,1,63.6,44.3Zm-44-14.67A12.33,12.33,0,0,0,7.74,40.91c-.09,1-.22,2.17,1.11,2.34s1.42-1,1.54-2c.61-5.18,3.57-8.19,8.76-9.1.67-.12,1.23-.85,1.84-1.29Z"></path><path class="cls-2" d="M33,13.8C37.2,9,41.1,4.24,47.73,3.21a9.36,9.36,0,0,1,6.71,1.61,2.15,2.15,0,0,1,.81,1.72c-.9,6.07-3.86,9.28-9.54,9.59C41.4,16.36,37.3,15.32,33,13.8Z"></path><path class="cls-1" d="M19.6,29.63,21,30.87c-.61.44-1.17,1.17-1.84,1.29-5.19.91-8.15,3.92-8.76,9.1-.12,1-.15,2.17-1.54,2s-1.2-1.33-1.11-2.34A12.33,12.33,0,0,1,19.6,29.63Z"></path></g></g></g></svg>