<svg xmlns="http://www.w3.org/2000/svg" viewBox="0 0 83.69 71.95"><defs><style>.cls-1{fill:#20d8d8;}.cls-2{fill:#010605;}</style></defs><g id="Layer_2" data-name="Layer 2"><g id="Layer_1-2" data-name="Layer 1"><g id="CWWtoQ"><path class="cls-1" d="M40.55,72c-10.61-.45-22.34-1.41-33.07-7.2C2.28,61.94-.4,58,.05,51.72c.89-12.51,2.76-24.67,9.8-35.41S27.16.47,39.91,0c11.46-.39,21.68,2.49,29.78,11,5.44,5.75,8.64,12.73,10.78,20.24,2,7,2.65,14.28,3.18,21.55C84,57.66,81.91,61,78.1,63.55c-5.75,3.84-12.28,5.59-19,6.85A110.68,110.68,0,0,1,40.55,72ZM39.36,56.66c7.46,0,14.25-1.87,19.91-6.95,1-.87,2.15-1.86.88-3.24s-2.16-.21-3.08.59a23.65,23.65,0,0,1-11,5.48,33.8,33.8,0,0,1-11.91.3c-1.23-.2-2.38-.07-2.59,1.39s.94,1.94,2.13,2.05C35.55,56.47,37.46,56.54,39.36,56.66Zm-14-23.94a12.65,12.65,0,0,0-10,4.41c-.84.95-1.52,2.13-.31,3.19s2.15.2,3-.86a9,9,0,0,1,6.25-3.29c1.15-.15,1.88-.05,2.1,1.47.59,4,3.57,5.45,7.15,3.53,2.26-1.21,2.49-2.27.8-4.22A11.86,11.86,0,0,0,25.31,32.72Zm33.71,0c-4.57,0-7.85,1.45-10.35,4.57-.82,1-1.45,2.15-.13,3.14s2.05,0,2.8-.92a9,9,0,0,1,6.47-3.39c1-.1,1.68,0,1.9,1.4.71,4.35,3.78,5.6,7.55,3.44,1.91-1.1,1.88-2.24.65-3.73A11.69,11.69,0,0,0,59,32.73Z"/><path class="cls-2" d="M39.36,56.66c-1.9-.12-3.81-.19-5.71-.38-1.19-.11-2.34-.55-2.13-2.05s1.36-1.59,2.59-1.39A33.8,33.8,0,0,0,46,52.54a23.65,23.65,0,0,0,11-5.48c.92-.8,1.89-1.89,3.08-.59s.09,2.37-.88,3.24C53.61,54.79,46.82,56.65,39.36,56.66Z"/><path class="cls-2" d="M25.31,32.72A11.86,11.86,0,0,1,34.24,37c1.69,1.95,1.46,3-.8,4.22-3.58,1.92-6.56.52-7.15-3.53-.22-1.52-.95-1.62-2.1-1.47a9,9,0,0,0-6.25,3.29c-.82,1.06-1.71,2-3,.86s-.53-2.24.31-3.19A12.65,12.65,0,0,1,25.31,32.72Z"/><path class="cls-2" d="M59,32.73a11.69,11.69,0,0,1,8.89,4.51c1.23,1.49,1.26,2.63-.65,3.73-3.77,2.16-6.84.91-7.55-3.44-.22-1.39-.88-1.5-1.9-1.4a9,9,0,0,0-6.47,3.39c-.75.94-1.6,1.82-2.8.92s-.69-2.12.13-3.14C51.17,34.18,54.45,32.73,59,32.73Z"/></g></g></g></svg>