<svg xmlns="http://www.w3.org/2000/svg" viewBox="0 0 66.81 56.72"><defs><style>.cls-1{fill:#ffdb43;}.cls-2{stroke:#000;stroke-miterlimit:10;stroke-width:0.25px;}</style></defs><g id="Layer_2" data-name="Layer 2"><g id="Layer_1-2" data-name="Layer 1"><path class="cls-1" d="M24.78,31.17a34,34,0,0,0,20.79.41A32.25,32.25,0,0,0,56.3,26c-1.4-2.29-1.38-2.23-3.68-1.37-4,1.48-7.87,3.14-11.94,4.26-7.26,2-14.38,1.61-21-2.35a2.16,2.16,0,0,0-.58-.11C20.83,28.42,22.24,30.35,24.78,31.17Z"></path><path class="cls-1" d="M7.05,14.13c-.48,11.2,7.1,22.69,18.05,27.77C37,47.43,50.15,45.54,59.29,38c-1.53-2.55-1.55-2.61-4.32-1.85a63.76,63.76,0,0,1-13.5,2.43c-8.52.44-15.89-2.09-21.7-8.47-2.17-2.39-4.09-5-6-7.61-1.82-2.42-3.5-4.94-5.29-7.38A6,6,0,0,0,7.05,14.13Z"></path><path class="cls-1" d="M61.38,24.93c-1.87-2.22-2.77-2.53-4.66-1.7L61,28.63C61.13,27.19,62.43,26.17,61.38,24.93Z"></path><path class="cls-1" d="M29,34.54c.22.11.45.23.68.33a25.29,25.29,0,0,0,13.63,1.6c4.69-.69,9.31-1.87,14-2.84a5.09,5.09,0,0,0,2.59-3,1,1,0,0,0-.23-.57c-.65-.85-1.32-1.68-2-2.55A36.69,36.69,0,0,1,29,34.54Z"></path><path class="cls-1" d="M59.72,35.26l4,5c.35-1,1.51-1.74.55-2.78C63.06,36.26,62.34,34.06,59.72,35.26Z"></path><path class="cls-1" d="M6.82,12.19C6,8.88,7,6.05,9,3.52,7.67,1.65,6.37,1.6,5.19,3.34c-2.08,3-2.4,6.38-1.86,9.9Z"></path><path class="cls-1" d="M25.22,44C12.55,38.58,6.12,28.51,4.81,14.84a6.64,6.64,0,0,0-1.67,2.09,12,12,0,0,0-.87,3.63A28.61,28.61,0,0,0,10.58,43.1a37.36,37.36,0,0,0,16.28,9.81c11.65,3.51,22.34,1.71,31.73-6.25a48.2,48.2,0,0,0,4.12-4.43c-.78-1-1.38-1.77-2.05-2.61C49.55,47.72,37.7,49.39,25.22,44Z"></path><path class="cls-2" d="M61,32.81c.54-1.14,1.1-2.22,1.57-3.32,1.9-4.47,1.73-4.9-2.05-7.91A3.27,3.27,0,0,0,57.07,21c-2.31.87-4.64,1.67-6.9,2.65a52.62,52.62,0,0,1-12.83,4.05C27,29.3,18.72,26,12.56,17.48c-1-1.33-2-2.64-2.9-4a6,6,0,0,1-.88-1.71A7.19,7.19,0,0,1,10.33,5,2.63,2.63,0,0,0,11,3.67c0-1.22-1.4-2.82-2.79-3.3a3.44,3.44,0,0,0-4,1,13.54,13.54,0,0,0-3,10.57,17.52,17.52,0,0,1-.55,6.28C-.61,23.61.44,28.88,2.4,34c3.42,8.88,10,14.68,18.4,18.65C32,57.92,43.18,58.07,54.23,52.2A27.74,27.74,0,0,0,66.68,38.73v-1C65.12,35.69,64.11,33,61,32.81Zm.36-7.88c1,1.24-.25,2.26-.43,3.7l-4.23-5.4C58.61,22.4,59.51,22.71,61.38,24.93Zm-1.53,5.75a5.09,5.09,0,0,1-2.59,3c-4.65,1-9.27,2.15-14,2.84a25.29,25.29,0,0,1-13.63-1.6c-.23-.1-.46-.22-.68-.33a36.69,36.69,0,0,0,28.63-7c.68.87,1.35,1.7,2,2.55A1,1,0,0,1,59.85,30.68Zm-40.22-4.1c6.67,4,13.79,4.34,21.05,2.35,4.07-1.12,8-2.78,11.94-4.26,2.3-.86,2.28-.92,3.68,1.37a32.25,32.25,0,0,1-10.73,5.54,34,34,0,0,1-20.79-.41c-2.54-.82-4-2.75-5.73-4.7A2.16,2.16,0,0,1,19.63,26.58Zm-5.9-4c1.95,2.58,3.87,5.22,6,7.61,5.81,6.38,13.18,8.91,21.7,8.47A63.76,63.76,0,0,0,55,36.19c2.77-.76,2.79-.7,4.32,1.85C50.15,45.54,37,47.43,25.1,41.9c-11-5.08-18.53-16.57-18-27.77a6,6,0,0,1,1.39,1C10.23,17.6,11.91,20.12,13.73,22.54ZM5.19,3.34C6.37,1.6,7.67,1.65,9,3.52,7,6.05,6,8.88,6.82,12.19L3.33,13.24C2.79,9.72,3.11,6.37,5.19,3.34Zm53.4,43.32c-9.39,8-20.08,9.76-31.73,6.25A37.36,37.36,0,0,1,10.58,43.1,28.61,28.61,0,0,1,2.27,20.56a12,12,0,0,1,.87-3.63,6.64,6.64,0,0,1,1.67-2.09C6.12,28.51,12.55,38.58,25.22,44c12.48,5.37,24.33,3.7,35.44-4.4.67.84,1.27,1.62,2.05,2.61A48.2,48.2,0,0,1,58.59,46.66Zm5.09-6.36-4-5c2.62-1.2,3.34,1,4.51,2.26C65.19,38.56,64,39.27,63.68,40.3Z"></path></g></g></svg>