<svg xmlns="http://www.w3.org/2000/svg" viewBox="0 0 91.54 211.89"><defs><style>.cls-1{fill:#ffdb43;}.cls-1,.cls-2{stroke:#000;stroke-linecap:round;stroke-linejoin:round;stroke-width:5px;}.cls-2{fill:#ffc5ff;}.cls-3{fill:#fff;}</style></defs><g id="Layer_2" data-name="Layer 2"><g id="Layer_1-2" data-name="Layer 1"><line class="cls-1" x1="89.04" y1="209.39" x2="89.04" y2="2.5"></line><polygon class="cls-2" points="89.04 39.8 31.57 30.8 89.04 15.35 89.04 39.8"></polygon><path class="cls-3" d="M10.21,103.5a7.72,7.72,0,0,1,0-15.44,7.72,7.72,0,1,1,0,15.44Z"></path><path d="M10.22,90.56a5.1,5.1,0,0,1,2.62.72,5.18,5.18,0,1,1-2.62-.72m0-5A10.22,10.22,0,1,0,15.37,87a10.26,10.26,0,0,0-5.15-1.4Z"></path></g></g></svg>