<svg xmlns="http://www.w3.org/2000/svg" viewBox="0 0 68.27 113.29"><defs><style>.cls-1{fill:#ffdb43;stroke:#000;stroke-linecap:round;stroke-linejoin:round;stroke-width:5px;}</style></defs><g id="Layer_2" data-name="Layer 2"><g id="Layer_1-2" data-name="Layer 1"><path class="cls-1" d="M63.93,49.64,41.11,47,57.65,5.66a2.36,2.36,0,0,0-.76-2.8,2.08,2.08,0,0,0-2.73.36l-51,56a2.47,2.47,0,0,0-.53,2.38,2,2,0,0,0,1.72,1.51l25.16,3.14L13.74,107.67a2.35,2.35,0,0,0,.82,2.8,1.94,1.94,0,0,0,.63.27A2.12,2.12,0,0,0,17.3,110L65.19,53.48a2.51,2.51,0,0,0,.46-2.38A2.13,2.13,0,0,0,63.93,49.64Z"/></g></g></svg>