<svg xmlns="http://www.w3.org/2000/svg" viewBox="0 0 92.22 55.91"><defs><style>.cls-1{fill:#ffc5ff;}.cls-2{stroke:#000;stroke-linecap:round;stroke-linejoin:round;stroke-width:3px;}</style></defs><g id="Layer_2" data-name="Layer 2"><g id="Layer_1-2" data-name="Layer 1"><path class="cls-1" d="M88.45,37.72a1.82,1.82,0,0,0-.31.16A11,11,0,0,1,81.34,40C63.23,40,45.11,40,27,40a36.75,36.75,0,0,1-15.65-3.25,21.49,21.49,0,0,1-7.5-5.67l-.34.1A61.81,61.81,0,0,0,4,38.67c.62,3.42,2.86,5.93,5.56,8A28.21,28.21,0,0,0,26.1,52.35c5.67.2,11.36.08,17,.08H81.55a6.79,6.79,0,0,0,7-6.29c.2-2.75,0-5.52,0-8.28C88.59,37.82,88.51,37.78,88.45,37.72Z"></path><path class="cls-2" d="M22,19.46c1.72,1,5.27,1,6.59-.05C27,18.37,23.49,18.38,22,19.46Z"></path><path class="cls-1" d="M11.63,32.64a33,33,0,0,0,15.71,3.64c8.6.08,17.2,0,25.8,0h6.63q10.87,0,21.75,0a6.83,6.83,0,0,0,1.31-13.57c-2.63-.44-5.27-.86-7.92-1.16A43.69,43.69,0,0,1,52.37,12.4a40.78,40.78,0,0,0-9.3-5.56A40.33,40.33,0,0,0,21.42,4.09,27.9,27.9,0,0,0,10.8,7.47,14.14,14.14,0,0,0,4,23.22C5,27.62,7.8,30.57,11.63,32.64ZM47.11,16.08A1.69,1.69,0,0,1,49,15a2.55,2.55,0,0,1,1.06.51,48.52,48.52,0,0,0,24.77,10c2.43.3,4.85.7,7.28,1.09a1.72,1.72,0,0,1,1.61,1.89c-.09,1-.9,1.61-2.31,1.59-2.29-.34-4.86-.77-7.44-1.09A53.84,53.84,0,0,1,59.77,25.3a50.6,50.6,0,0,1-11.93-7A1.82,1.82,0,0,1,47.11,16.08ZM31.2,22.15a10.38,10.38,0,0,1-6,1.65l-.07.25a44.51,44.51,0,0,1-4.56-1.25,3.55,3.55,0,0,1-.16-6.68,10.88,10.88,0,0,1,10.8.62C33.37,18.09,33.31,20.66,31.2,22.15ZM7.41,19.64a10.43,10.43,0,0,1,5.73-9.48,24.73,24.73,0,0,1,9.91-2.54c1.31-.11,2.63-.15,3.95-.17a1.87,1.87,0,0,1,2.08,1.84c0,1.09-.71,1.78-2,1.81a32.54,32.54,0,0,0-9.72,1.26,15.75,15.75,0,0,0-3.62,1.76A6,6,0,0,0,11,19.28c0,.21,0,.43,0,.64a1.81,1.81,0,1,1-3.61-.07Z"></path><path d="M92,27.71c-1-4.89-4.51-8-9.79-8.69-4-.56-8.1-1.09-12.08-1.94C64,15.78,58.77,12.74,53.77,9,41.47-.14,27.85-2.27,13.31,2.39,5.44,4.91-.25,10.76,0,21.05q.18,6.86,0,13.73A16.51,16.51,0,0,0,6,48.09,30.66,30.66,0,0,0,26.2,55.8c9.27.22,18.55.05,27.83.05v0c9.15,0,18.3,0,27.45,0A10.36,10.36,0,0,0,92.22,45.11q0-7.47,0-14.93A12.67,12.67,0,0,0,92,27.71ZM10.8,7.47A27.9,27.9,0,0,1,21.42,4.09,40.33,40.33,0,0,1,43.07,6.84a40.78,40.78,0,0,1,9.3,5.56,43.69,43.69,0,0,0,22.54,9.18c2.65.3,5.29.72,7.92,1.16a6.83,6.83,0,0,1-1.31,13.57q-10.87,0-21.75,0H53.14c-8.6,0-17.2.06-25.8,0a33,33,0,0,1-15.71-3.64C7.8,30.57,5,27.62,4,23.22A14.14,14.14,0,0,1,10.8,7.47ZM88.57,46.14a6.79,6.79,0,0,1-7,6.29H43.14c-5.68,0-11.37.12-17-.08A28.21,28.21,0,0,1,9.57,46.66c-2.7-2.06-4.94-4.57-5.56-8a61.81,61.81,0,0,1-.5-7.48l.34-.1a21.49,21.49,0,0,0,7.5,5.67A36.75,36.75,0,0,0,27,40c18.11,0,36.23,0,54.34,0a11,11,0,0,0,6.8-2.15,1.82,1.82,0,0,1,.31-.16c.06.06.14.1.14.14C88.6,40.62,88.77,43.39,88.57,46.14Z"></path><path d="M47.84,18.27a50.6,50.6,0,0,0,11.93,7A53.84,53.84,0,0,0,74,29c2.58.32,5.15.75,7.44,1.09,1.41,0,2.22-.62,2.31-1.59a1.72,1.72,0,0,0-1.61-1.89c-2.43-.39-4.85-.79-7.28-1.09a48.52,48.52,0,0,1-24.77-10A2.55,2.55,0,0,0,49,15a1.69,1.69,0,0,0-1.91,1.1A1.82,1.82,0,0,0,47.84,18.27Z"></path><path d="M9.18,21.79A1.77,1.77,0,0,0,11,19.92c0-.21,0-.43,0-.64a6,6,0,0,1,2.72-5.16,15.75,15.75,0,0,1,3.62-1.76,32.54,32.54,0,0,1,9.72-1.26c1.28,0,2-.72,2-1.81A1.87,1.87,0,0,0,27,7.45c-1.32,0-2.64.06-3.95.17a24.73,24.73,0,0,0-9.91,2.54,10.43,10.43,0,0,0-5.73,9.48v.21A1.78,1.78,0,0,0,9.18,21.79Z"></path><path d="M20.39,16.12a3.55,3.55,0,0,0,.16,6.68,44.51,44.51,0,0,0,4.56,1.25l.07-.25a10.38,10.38,0,0,0,6-1.65c2.11-1.49,2.17-4.06,0-5.41A10.88,10.88,0,0,0,20.39,16.12ZM22,19.46c1.49-1.08,4.95-1.09,6.59-.05C27.27,20.43,23.72,20.48,22,19.46Z"></path></g></g></svg>