<svg xmlns="http://www.w3.org/2000/svg" viewBox="0 0 246.98 289.57"><defs><style>.cls-1{fill:#9ef2ea;}.cls-1,.cls-10,.cls-11,.cls-2,.cls-3,.cls-4,.cls-5,.cls-6,.cls-7,.cls-8,.cls-9{stroke:#000;}.cls-1,.cls-10,.cls-11,.cls-3,.cls-4,.cls-5,.cls-7,.cls-8,.cls-9{stroke-linecap:round;}.cls-1,.cls-2,.cls-3,.cls-4,.cls-5,.cls-6,.cls-7,.cls-8{stroke-linejoin:round;}.cls-1,.cls-10,.cls-2,.cls-3,.cls-4,.cls-5,.cls-6,.cls-8,.cls-9{stroke-width:4px;}.cls-2{fill:#23d7d8;}.cls-3{fill:#ffc5ff;}.cls-11,.cls-4,.cls-6,.cls-7,.cls-9{fill:#fff;}.cls-5{fill:#ffdb43;}.cls-7{stroke-width:5px;}.cls-10,.cls-11,.cls-9{stroke-miterlimit:10;}.cls-11{stroke-width:3px;}</style></defs><g id="Layer_2" data-name="Layer 2"><g id="Layer_1-2" data-name="Layer 1"><polyline class="cls-1" points="36.41 78.34 37.37 81.3 61.22 79.48"></polyline><path class="cls-2" d="M20.22,232.31A98.53,98.53,0,0,0,159.56,93Z"></path><path class="cls-3" d="M37.27,161.63A174.76,174.76,0,0,1,59.72,134L27.31,100.38a86,86,0,0,0-25.16,56c1.67-.1,3.35-.15,5.05-.15A86.11,86.11,0,0,1,37.27,161.63Z"></path><path class="cls-4" d="M88.09,212.4a86.33,86.33,0,0,1,5.41,30.14c0,1.69-.06,3.37-.15,5.05a86,86,0,0,0,53.71-23L114.65,191A173.43,173.43,0,0,1,88.09,212.4Z"></path><path class="cls-4" d="M60.33,133.39a173.78,173.78,0,0,1,29.14-23.64A86.05,86.05,0,0,1,84,79.44c0-1.4,0-2.8.11-4.2a86.09,86.09,0,0,0-56.79,25.14L59.72,134Z"></path><path class="cls-4" d="M139.93,160.24a174.56,174.56,0,0,1-23.62,29.13L114.65,191l32.41,33.63a86,86,0,0,0,27.43-59c-1.39.07-2.79.1-4.2.1A86.12,86.12,0,0,1,139.93,160.24Z"></path><path class="cls-4" d="M59.72,134l54.93,57,1.66-1.63a174.56,174.56,0,0,0,23.62-29.13,86.56,86.56,0,0,1-50.46-50.49,173.78,173.78,0,0,0-29.14,23.64Z"></path><path class="cls-5" d="M37.27,161.63A86.58,86.58,0,0,1,88.09,212.4,173.43,173.43,0,0,0,114.65,191L59.72,134A174.76,174.76,0,0,0,37.27,161.63Z"></path><path class="cls-4" d="M88.3,75.14c-1.41,0-2.81,0-4.2.1C84,76.64,84,78,84,79.44a86.05,86.05,0,0,0,5.48,30.31c25-15.92,48.67-20.43,59.78-9.31s6.61,34.84-9.32,59.8a86.12,86.12,0,0,0,30.36,5.5c1.41,0,2.81,0,4.2-.1.07-1.39.11-2.79.11-4.2A86.3,86.3,0,0,0,88.3,75.14Z"></path><path class="cls-1" d="M139.93,160.24c15.93-25,20.44-48.68,9.32-59.8s-34.82-6.61-59.78,9.31A86.56,86.56,0,0,0,139.93,160.24Z"></path><path class="cls-4" d="M88.09,212.4c-25.3,16.41-49.46,21.17-60.71,9.91s-6.5-35.4,9.89-60.68A86.11,86.11,0,0,0,7.2,156.24c-1.7,0-3.38,0-5.05.15-.1,1.67-.15,3.35-.15,5.05a86.3,86.3,0,0,0,86.3,86.3c1.69,0,3.38-.06,5-.15.09-1.68.15-3.36.15-5.05A86.33,86.33,0,0,0,88.09,212.4Z"></path><path class="cls-4" d="M37.27,161.63c-16.39,25.28-21.14,49.43-9.89,60.68s35.41,6.5,60.71-9.91A86.58,86.58,0,0,0,37.27,161.63Z"></path><line class="cls-6" x1="89.47" y1="260.15" x2="89.47" y2="267.55"></line><path class="cls-7" d="M215.13,216.94a10.72,10.72,0,0,0-15.82-9.42,29.9,29.9,0,0,0-54.23-5.61,16,16,0,0,0-4.91-.78,15.81,15.81,0,0,0-15.81,15.81h90.77Z"></path><path class="cls-7" d="M223.06,216.94a10.71,10.71,0,1,1,21.42,0H223.06"></path><path class="cls-5" d="M143.74,279.39a16.48,16.48,0,0,0-15.66-11.33H50.86A16.5,16.5,0,0,0,35.2,279.39H143.74Z"></path><path class="cls-8" d="M36.05,279.39H35.2a16.6,16.6,0,0,0-.83,5.16v3h110.2v-3a16.31,16.31,0,0,0-.83-5.16Z"></path><path class="cls-9" d="M100,39.41l-.19-.18a9.53,9.53,0,0,0-6.71-2.92H93a8.7,8.7,0,0,1-3.18-.66,9.5,9.5,0,0,1-1.17-.56,9,9,0,0,1-1.77-1.43l-.33-.33L84,35.05a1.6,1.6,0,0,1-2.22-.44h0l0,0a1.62,1.62,0,0,1,.43-2.25l2.09-1.39-5.07-5.25,13-9.07,5.89,7A11.76,11.76,0,0,1,100.38,30v.13a12.18,12.18,0,0,0,2.81,7.17"></path><circle cx="86.99" cy="28.03" r="1.49"></circle><circle class="cls-10" cx="93.18" cy="9.3" r="7.3"></circle><path class="cls-5" d="M134.51,63.78H102.64s-6,.06-8.78,5a10.49,10.49,0,0,0-.62,9l13.55,26.93,15.71-7.35L112.32,77.87l13.24-.09a10.37,10.37,0,0,0,8.36-5.53A10.13,10.13,0,0,0,134.51,63.78Z"></path><path class="cls-10" d="M100.28,55.67l.09-.11.64-.75-7.83-4.46,5.28-9.91s2.55-5.67,8.42-5.81a10.21,10.21,0,0,1,8.44,3.82l15.41,19.78L132.89,61l1,1.41.65,1.4-27.95-.08Z"></path><line class="cls-9" x1="83.91" y1="73.67" x2="51.46" y2="76.86"></line><polyline class="cls-1" points="54.37 54.28 28.09 56.87 36.41 78.34 62.99 75.73 54.62 54.25 54.37 54.28"></polyline><path class="cls-9" d="M108.05,122.05l21.74-10.66-7.29-14-9.93,4.69,1.82,7.91-10.1,5.25a3.9,3.9,0,0,0-1.6,5.16A4,4,0,0,0,108.05,122.05Z"></path><path class="cls-9" d="M93.18,50.32,86,63.78l-2.78-1.91a5.5,5.5,0,0,0-3.09-1c-1.79,0-3.17,1.83-3.59,2.44s-3.76,5.45-3.76,5.45-1.43,2.52.9,4a3,3,0,0,0,3.45-1l1.41-2.11,5.16,3.31a6.74,6.74,0,0,0,3.84.76c2.3-.2,3.93-2.11,4.83-3.65S101,54.81,101,54.81Z"></path><path class="cls-11" d="M89.81,35.65A5.89,5.89,0,0,0,93.64,31"></path><polygon points="91.89 19.79 93.84 22.08 87.44 22.91 91.89 19.79"></polygon><polygon points="92.24 17.11 79.63 25.93 97.74 23.6 92.24 17.11 92.24 17.11"></polygon></g></g></svg>