<svg xmlns="http://www.w3.org/2000/svg" viewBox="0 0 185.4 85.77"><defs><style>.cls-1,.cls-2{fill:#fff;}.cls-1,.cls-2,.cls-3,.cls-4,.cls-5{stroke:#000;stroke-linecap:round;stroke-linejoin:round;}.cls-1{stroke-width:5.49px;}.cls-2,.cls-3,.cls-4,.cls-5{stroke-width:5px;}.cls-3{fill:#ffdb43;}.cls-4{fill:#9ef2ea;}.cls-5{fill:none;}</style></defs><g id="Layer_2" data-name="Layer 2"><g id="Layer_1-2" data-name="Layer 1"><line class="cls-1" x1="51.67" y1="3.58" x2="33.31" y2="3.58"/><line class="cls-1" x1="42.4" y1="17.33" x2="2.74" y2="17.33"/><path class="cls-2" d="M55.13,32.17l13-23.25A12.53,12.53,0,0,1,79,2.5h30.18a12.54,12.54,0,0,1,8.22,3.07L148,32.17"/><rect class="cls-3" x="30.7" y="32.17" width="152.2" height="34.75" rx="5.7"/><circle class="cls-3" cx="158.64" cy="66.92" r="16.35"/><circle class="cls-2" cx="158.64" cy="66.92" r="11.51"/><circle class="cls-3" cx="158.64" cy="66.92" r="2.5"/><circle class="cls-3" cx="65.53" cy="66.92" r="16.35"/><circle class="cls-2" cx="65.53" cy="66.92" r="11.51"/><circle class="cls-3" cx="65.53" cy="66.92" r="2.5"/><rect class="cls-4" x="30.7" y="40.75" width="10.47" height="12.09"/><polyline class="cls-5" points="133.3 51.22 133.3 57.87 90.16 57.87 90.16 32.17 90.16 2.5"/><polyline class="cls-2" points="180.49 40.75 169.62 40.75 179.51 50.64 180.49 50.64"/></g></g></svg>