<svg xmlns="http://www.w3.org/2000/svg" viewBox="0 0 114.24 67.78"><defs><style>.cls-1{fill:#9ef2ea;}</style></defs><g id="Layer_2" data-name="Layer 2"><g id="Layer_1-2" data-name="Layer 1"><path d="M112.47,30.59a38.67,38.67,0,0,0-9.53-9.9,48.73,48.73,0,0,0-16.4-8,54,54,0,0,0-15.85-1.9,1.54,1.54,0,0,1-1.21-.38,15.86,15.86,0,0,0-1.4-1,67.88,67.88,0,0,0-9.93-5.79c-2.51-1.21-5.1-2.29-7.66-3.41a1.7,1.7,0,0,0-1.87.29,1.67,1.67,0,0,0-.57,1.8c.7,2.63,1.4,5.27,2.18,7.88.38,1.26.92,2.47,1.39,3.73a1.51,1.51,0,0,1-.18.09c-1.67.55-3.34,1.08-5,1.65a86.79,86.79,0,0,0-11.73,5.16,79.21,79.21,0,0,0-8.84,5.34.41.41,0,0,1-.61,0c-.9-.81-1.8-1.63-2.76-2.36a54.8,54.8,0,0,0-10.12-5.85A86.34,86.34,0,0,0,2.45,14a1.79,1.79,0,0,0-2,.47,1.69,1.69,0,0,0-.32,1.91C1.24,18.9,2.28,21.5,3.47,24A36.29,36.29,0,0,0,8,31.32c1,1.24,2.06,2.4,3.13,3.62-.08.09-.21.22-.33.37C9.5,36.9,8.12,38.43,6.94,40.09a56.65,56.65,0,0,0-6.76,13,1.76,1.76,0,0,0,.33,2,1.74,1.74,0,0,0,2,.42c3.14-1.22,6.32-2.34,9.41-3.7A46.7,46.7,0,0,0,25.37,43.4a83.25,83.25,0,0,0,21.1,10.87l-.31.74a50,50,0,0,0-3.31,10.67,1.73,1.73,0,0,0,1.23,2,2.14,2.14,0,0,0,1.59-.2c1.87-.8,3.76-1.58,5.61-2.45a76.72,76.72,0,0,0,11.63-6.61,1.2,1.2,0,0,1,.75-.17c1.77.12,3.54.31,5.31.41a50.9,50.9,0,0,0,9.87-.35A51.66,51.66,0,0,0,91.58,54.9a52.22,52.22,0,0,0,14-8.52A38.53,38.53,0,0,0,110.94,41a22,22,0,0,0,2.82-4.32,3.8,3.8,0,0,0,.11-3.44A27.18,27.18,0,0,0,112.47,30.59ZM81,54.34a51.62,51.62,0,0,1-15,.55c-1-.09-1.94-.21-2.9-.32a1.91,1.91,0,0,0-1.45.36A69.7,69.7,0,0,1,50,61.68c-.92.44-1.84.86-2.9,1.35.35-1.11.59-2.11,1-3.07.78-2,1.61-3.9,2.45-5.83a1.82,1.82,0,0,0-1.14-2.65,84,84,0,0,1-14.07-6,69.53,69.53,0,0,1-9-5.85,1.76,1.76,0,0,0-2.49.23,26.12,26.12,0,0,1-5.62,4.65A72,72,0,0,1,5.33,50.75l-.33.1c.26-.57.48-1.08.72-1.57A47.89,47.89,0,0,1,12,39.4c1-1.15,2-2.21,3.11-3.27A1.75,1.75,0,0,0,15,33.38a27.15,27.15,0,0,1-7.25-8.9C6.82,22.77,6,21,5.15,19.22c-.07-.15-.13-.31-.24-.6l1.86.71a74.1,74.1,0,0,1,9.09,4.32A30,30,0,0,1,24,29.89a1.85,1.85,0,0,0,2.55.17C28,29,29.49,28,31,27a84.57,84.57,0,0,1,16.88-8.11c2.14-.74,4.31-1.38,6.47-2,1.5-.46,2-1.46,1.3-2.85a50.63,50.63,0,0,1-3.25-8.81c0-.09,0-.19-.08-.37a93.74,93.74,0,0,1,9.34,4.71,57.35,57.35,0,0,1,6.52,4.41,2.19,2.19,0,0,0,1.31.43,56.18,56.18,0,0,1,8.7.34c2,.27,4.09.67,6.26,1a32.93,32.93,0,0,0-5.91,18.95,32.94,32.94,0,0,0,5.76,18.92C83.19,53.87,82.11,54.13,81,54.34ZM110.09,36a34.38,34.38,0,0,1-5.62,6.47,48.32,48.32,0,0,1-13.66,8.88c-.81.35-1.65.63-2.46,1-.35.15-.51,0-.71-.24A27.83,27.83,0,0,1,84,45.31a32,32,0,0,1-1.88-11.19,28.11,28.11,0,0,1,3.47-13.34c.66-1.21,1.49-2.33,2.22-3.5a.5.5,0,0,1,.75-.23c2.12.93,4.28,1.77,6.35,2.79a39.45,39.45,0,0,1,8.49,5.76,31.77,31.77,0,0,1,6.72,7.8A2.18,2.18,0,0,1,110.09,36Z"></path><path class="cls-1" d="M84.48,15.74c-2.17-.37-4.21-.77-6.26-1a56.18,56.18,0,0,0-8.7-.34,2.19,2.19,0,0,1-1.31-.43,57.35,57.35,0,0,0-6.52-4.41,93.74,93.74,0,0,0-9.34-4.71c0,.18,0,.28.08.37A50.63,50.63,0,0,0,55.68,14c.69,1.39.2,2.39-1.3,2.85-2.16.66-4.33,1.3-6.47,2A84.57,84.57,0,0,0,31,27c-1.54,1-3,2-4.52,3.07A1.85,1.85,0,0,1,24,29.89a30,30,0,0,0-8.1-6.24,74.1,74.1,0,0,0-9.09-4.32l-1.86-.71c.11.29.17.45.24.6C6,21,6.82,22.77,7.77,24.48A27.15,27.15,0,0,0,15,33.38a1.75,1.75,0,0,1,.05,2.75C14,37.19,12.93,38.25,12,39.4a47.89,47.89,0,0,0-6.24,9.88c-.24.49-.46,1-.72,1.57l.33-.1a72,72,0,0,0,12.84-6.28,26.12,26.12,0,0,0,5.62-4.65,1.76,1.76,0,0,1,2.49-.23,69.53,69.53,0,0,0,9,5.85,84,84,0,0,0,14.07,6,1.82,1.82,0,0,1,1.14,2.65C49.7,56.06,48.87,58,48.09,60c-.38,1-.62,2-1,3.07,1.06-.49,2-.91,2.9-1.35a69.7,69.7,0,0,0,11.61-6.75,1.91,1.91,0,0,1,1.45-.36c1,.11,1.93.23,2.9.32a51.62,51.62,0,0,0,15-.55c1.09-.21,2.17-.47,3.31-.73a32.94,32.94,0,0,1-5.76-18.92A32.93,32.93,0,0,1,84.48,15.74Z"></path><path class="cls-1" d="M103.4,25.6a39.45,39.45,0,0,0-8.49-5.76c-2.07-1-4.23-1.86-6.35-2.79a.5.5,0,0,0-.75.23c-.73,1.17-1.56,2.29-2.22,3.5a28.11,28.11,0,0,0-3.47,13.34A32,32,0,0,0,84,45.31a27.83,27.83,0,0,0,3.64,6.77c.2.27.36.39.71.24.81-.36,1.65-.64,2.46-1a48.32,48.32,0,0,0,13.66-8.88A34.38,34.38,0,0,0,110.09,36a2.18,2.18,0,0,0,0-2.58A31.77,31.77,0,0,0,103.4,25.6Zm-8.81,9.18a3.56,3.56,0,0,1,0-7.12,3.56,3.56,0,1,1,0,7.12Z"></path><path d="M94.61,27.66a3.56,3.56,0,1,0,3.58,3.63A3.54,3.54,0,0,0,94.61,27.66Z"></path></g></g></svg>