<svg width="10" height="8" viewBox="0 0 10 8" fill="none" xmlns="http://www.w3.org/2000/svg">
<g clip-path="url(#clip0_3250_6)">
<path d="M9.88278 0.683192L3.48307 7.08291C3.44592 7.1201 3.40181 7.1496 3.35325 7.16973C3.30469 7.18986 3.25264 7.20022 3.20008 7.20022C3.14752 7.20022 3.09547 7.18986 3.04691 7.16973C2.99835 7.1496 2.95424 7.1201 2.91709 7.08291L0.117217 4.28303C0.0421643 4.20798 0 4.10619 0 4.00004C0 3.8939 0.0421643 3.79211 0.117217 3.71706C0.19227 3.642 0.294064 3.59984 0.400205 3.59984C0.506345 3.59984 0.608139 3.642 0.683192 3.71706L3.20008 6.23444L9.31681 0.117217C9.39186 0.0421641 9.49365 -7.90811e-10 9.5998 0C9.70594 7.90811e-10 9.80773 0.0421641 9.88278 0.117217C9.95784 0.19227 10 0.294064 10 0.400205C10 0.506345 9.95784 0.608139 9.88278 0.683192Z" fill="white"/>
</g>
<defs>
<clipPath id="clip0_3250_6">
<rect width="10" height="7.20022" fill="white"/>
</clipPath>
</defs>
</svg>
