<svg xmlns="http://www.w3.org/2000/svg" xmlns:xlink="http://www.w3.org/1999/xlink" id="Layer_1" x="0px" y="0px" viewBox="0 0 968.84 604.06" style="enable-background:new 0 0 968.84 604.06;" xml:space="preserve"><style type="text/css">	.st0{fill:#FFFFFF;}</style><g>	<path class="st0" d="M530.44,177.22c-3.43-2.47-7.37-3.7-11.83-3.7c-2.2,0-4.27,0.38-6.2,1.13c-1.93,0.75-3.7,1.77-5.31,3.06  c-1.61,1.29-3.03,2.79-4.26,4.51c-1.24,1.72-2.31,3.57-3.22,5.55h39.02C536.61,183.2,533.88,179.69,530.44,177.22z"></path>	<path class="st0" d="M504.41,334.33c-2.06-2.17-4.56-3.87-7.48-5.11c-2.92-1.23-6.21-1.85-9.86-1.85c-3.65,0-6.89,0.77-9.74,2.29  c-2.84,1.53-5.26,3.49-7.24,5.87c-1.98,2.39-3.49,5-4.51,7.84c-1.02,2.85-1.53,5.55-1.53,8.13c0,2.58,0.51,5.31,1.53,8.21  c1.02,2.9,2.52,5.55,4.51,7.97c1.98,2.41,4.41,4.41,7.28,5.99c2.87,1.58,6.16,2.37,9.86,2.37c3.86,0,7.25-0.65,10.18-1.93  c2.92-1.29,5.39-3.03,7.4-5.23c2.01-2.2,3.53-4.8,4.55-7.8c1.02-3,1.53-6.2,1.53-9.58c0-3.38-0.56-6.54-1.69-9.49  C508.07,339.06,506.48,336.5,504.41,334.33z"></path>	<path class="st0" d="M611.96,334.61c-1.96-2.25-4.3-4.04-7.04-5.35c-2.73-1.31-5.79-1.97-9.17-1.97c-3.38,0-6.45,0.66-9.21,1.97  c-2.76,1.31-5.14,3.09-7.12,5.31c-1.99,2.23-3.53,4.81-4.63,7.77c-1.1,2.95-1.65,6.09-1.65,9.41c0,3.27,0.55,6.4,1.65,9.37  c1.1,2.98,2.63,5.59,4.59,7.85c1.96,2.25,4.32,4.04,7.08,5.35c2.76,1.31,5.84,1.97,9.21,1.97c3.38,0,6.44-0.67,9.17-2.01  c2.74-1.34,5.1-3.14,7.08-5.39c1.98-2.25,3.52-4.85,4.59-7.8c1.08-2.95,1.61-6.06,1.61-9.34c0-3.27-0.54-6.38-1.61-9.33  C615.43,339.47,613.91,336.86,611.96,334.61z"></path>	<path class="st0" d="M304.13,334.57c-2.12-2.22-4.61-3.99-7.48-5.31c-2.87-1.31-5.97-1.97-9.29-1.97c-3.06,0-5.98,0.59-8.77,1.77  c-2.79,1.18-5.24,2.84-7.36,4.99c-2.12,2.15-3.81,4.71-5.07,7.68c-1.26,2.98-1.89,6.29-1.89,9.93c0,3.49,0.59,6.72,1.77,9.7  c1.18,2.97,2.79,5.55,4.83,7.72c2.04,2.17,4.48,3.87,7.32,5.11c2.84,1.23,5.9,1.85,9.17,1.85c3.33,0,6.42-0.66,9.29-1.97  c2.87-1.31,5.36-3.07,7.48-5.27c2.12-2.2,3.78-4.79,4.99-7.76c1.21-2.97,1.81-6.1,1.81-9.37c0-3.27-0.6-6.38-1.81-9.33  C307.91,339.39,306.25,336.8,304.13,334.57z"></path>	<path class="st0" d="M343.78,177.22c-3.43-2.47-7.37-3.7-11.83-3.7c-2.2,0-4.27,0.38-6.2,1.13c-1.93,0.75-3.7,1.77-5.31,3.06  c-1.61,1.29-3.03,2.79-4.26,4.51c-1.24,1.72-2.31,3.57-3.22,5.55h39.02C349.95,183.2,347.21,179.69,343.78,177.22z"></path>	<path class="st0" d="M747.11,75.1H164.44c-34.52,0-62.61,28.08-62.61,62.61v263.11c0,34.52,28.08,62.6,62.61,62.6h582.67  c34.52,0,62.6-28.08,62.6-62.6V137.71C809.72,103.19,781.63,75.1,747.11,75.1z M242.93,126.05c0-1.23,0.36-2.14,1.09-2.74  c0.72-0.59,1.62-0.88,2.7-0.88h21.88c1.07,0,1.96,0.33,2.65,1.01c0.7,0.67,1.05,1.54,1.05,2.61v119.97c0,1.08-0.32,1.95-0.96,2.62  c-0.64,0.67-1.56,1.01-2.74,1.01h-21.88c-1.18,0-2.11-0.29-2.78-0.89c-0.67-0.59-1.01-1.5-1.01-2.74V126.05z M232.01,390.61  c-1.77,1.55-3.88,3.05-6.32,4.51c-2.44,1.45-5.07,2.72-7.88,3.82c-2.82,1.1-5.71,1.97-8.69,2.61c-2.98,0.65-5.91,0.97-8.81,0.97  c-6.97-0.05-13.54-1.34-19.71-3.86c-6.17-2.52-11.55-6.03-16.13-10.54c-4.59-4.51-8.21-9.87-10.86-16.1  c-2.65-6.22-3.98-13.03-3.98-20.43c0-6.97,1.31-13.52,3.94-19.63c2.63-6.11,6.21-11.45,10.74-16.01  c4.53-4.56,9.84-8.17,15.93-10.82c6.09-2.66,12.59-3.98,19.51-3.98c3.65,0,6.95,0.26,9.9,0.76c2.95,0.51,5.71,1.24,8.29,2.17  c2.58,0.94,5,2.11,7.28,3.5c2.28,1.39,4.55,2.98,6.8,4.75c0.64,0.54,1.06,1.09,1.25,1.65c0.19,0.56,0.07,1.19-0.36,1.89  l-11.02,17.06c-0.38,0.59-0.99,0.88-1.85,0.88c-0.75,0-1.39-0.19-1.93-0.56c-3.38-2.36-6.49-3.98-9.33-4.87  c-2.84-0.89-5.79-1.33-8.85-1.33c-2.95,0-5.77,0.6-8.45,1.81c-2.68,1.21-5.04,2.9-7.08,5.07c-2.04,2.17-3.66,4.76-4.87,7.76  c-1.21,3-1.81,6.33-1.81,9.98c0,3.65,0.58,6.96,1.73,9.94c1.15,2.98,2.72,5.54,4.71,7.68c1.98,2.15,4.34,3.79,7.08,4.95  c2.74,1.15,5.66,1.73,8.77,1.73c1.82,0,3.57-0.21,5.23-0.65c1.66-0.43,3.24-0.97,4.75-1.65c1.5-0.67,2.88-1.41,4.14-2.21  c1.26-0.8,2.37-1.55,3.34-2.25c0.7-0.48,1.39-0.72,2.09-0.72c0.96,0,1.63,0.35,2.01,1.04l11.02,16.17  c0.64,1.08,0.94,1.96,0.88,2.66C233.4,389.06,232.92,389.81,232.01,390.61z M232.01,239.5c-1.77,1.56-3.88,3.06-6.32,4.51  c-2.44,1.45-5.07,2.72-7.88,3.82c-2.82,1.1-5.71,1.97-8.69,2.61c-2.98,0.64-5.91,0.96-8.81,0.96c-6.97-0.05-13.54-1.34-19.71-3.86  c-6.17-2.52-11.55-6.03-16.13-10.54c-4.59-4.51-8.21-9.87-10.86-16.09c-2.65-6.22-3.98-13.03-3.98-20.44  c0-6.97,1.31-13.52,3.94-19.63c2.63-6.11,6.21-11.45,10.74-16.01c4.53-4.56,9.84-8.17,15.93-10.82c6.09-2.66,12.59-3.98,19.51-3.98  c3.65,0,6.95,0.26,9.9,0.76c2.95,0.51,5.71,1.24,8.29,2.17c2.58,0.94,5,2.11,7.28,3.5c2.28,1.39,4.55,2.98,6.8,4.75  c0.64,0.54,1.06,1.09,1.25,1.65c0.19,0.56,0.07,1.19-0.36,1.89l-11.02,17.06c-0.38,0.59-0.99,0.88-1.85,0.88  c-0.75,0-1.39-0.19-1.93-0.56c-3.38-2.36-6.49-3.98-9.33-4.87c-2.84-0.89-5.79-1.33-8.85-1.33c-2.95,0-5.77,0.6-8.45,1.81  c-2.68,1.21-5.04,2.9-7.08,5.07c-2.04,2.17-3.66,4.76-4.87,7.76c-1.21,3-1.81,6.33-1.81,9.98c0,3.65,0.58,6.96,1.73,9.94  c1.15,2.98,2.72,5.54,4.71,7.68c1.98,2.14,4.34,3.79,7.08,4.95c2.74,1.15,5.66,1.73,8.77,1.73c1.82,0,3.57-0.21,5.23-0.64  c1.66-0.43,3.24-0.98,4.75-1.65c1.5-0.67,2.88-1.41,4.14-2.21c1.26-0.8,2.37-1.55,3.34-2.25c0.7-0.48,1.39-0.73,2.09-0.73  c0.96,0,1.63,0.35,2.01,1.05l11.02,16.17c0.64,1.08,0.94,1.96,0.88,2.66C233.4,237.94,232.92,238.69,232.01,239.5z M340.46,397.29  c0,2.3-1.15,3.46-3.46,3.46h-17.62c-0.81,0-1.52-0.27-2.13-0.8c-0.62-0.53-1.15-1.19-1.61-1.97c-0.46-0.77-0.85-1.58-1.17-2.41  c-0.32-0.83-0.59-1.54-0.8-2.13l-1.05-2.74c-3.54,3.7-7.56,6.57-12.07,8.61c-4.51,2.04-9.36,3.05-14.56,3.05  c-6.49,0-12.73-1.21-18.71-3.62c-5.98-2.41-11.26-5.83-15.85-10.26c-4.59-4.42-8.23-9.75-10.94-15.97  c-2.71-6.22-4.06-13.11-4.06-20.68c0-6.97,1.27-13.54,3.82-19.71c2.55-6.17,6.03-11.55,10.46-16.13  c4.43-4.59,9.67-8.21,15.73-10.86c6.06-2.66,12.58-3.98,19.55-3.98c5.95,0,11.26,1.17,15.93,3.5c4.67,2.33,8.71,5.51,12.15,9.54  l3.06-8.53c0.43-1.23,0.83-2.12,1.21-2.65c0.37-0.54,1.13-0.8,2.25-0.8H337c2.3,0,3.46,1.15,3.46,3.46V397.29z M342.66,250.68  c-3,0.37-6.01,0.56-9.01,0.56c-6.65,0-13.03-1.33-19.15-3.98c-6.12-2.65-11.49-6.26-16.13-10.82c-4.64-4.56-8.34-9.91-11.1-16.05  c-2.77-6.14-4.14-12.7-4.14-19.67c0-6.97,1.21-13.52,3.62-19.63c2.42-6.11,5.81-11.47,10.18-16.05c4.37-4.58,9.62-8.21,15.73-10.86  c6.12-2.65,12.85-3.98,20.2-3.98c3.06,0,6.32,0.4,9.78,1.21c3.46,0.8,6.88,2.06,10.26,3.78c3.38,1.72,6.62,3.9,9.74,6.56  c3.11,2.66,5.85,5.83,8.21,9.53c2.36,3.7,4.25,7.94,5.67,12.71c1.42,4.78,2.13,10.14,2.13,16.09c0,2.09-0.2,3.78-0.61,5.07  c-0.4,1.29-1.07,2.27-2.01,2.94c-0.94,0.67-2.13,1.13-3.58,1.37c-1.45,0.24-3.22,0.36-5.31,0.36h-55.68  c0.75,2.63,1.82,4.99,3.22,7.08c1.39,2.09,3.06,3.87,4.99,5.35c1.93,1.48,4.08,2.61,6.44,3.42c2.36,0.81,4.83,1.21,7.4,1.21  c3.7,0,6.76-0.29,9.17-0.89c2.41-0.59,4.47-1.33,6.15-2.21c1.69-0.89,3.12-1.84,4.31-2.86c1.18-1.02,2.36-1.98,3.54-2.9  c0.7-0.48,1.4-0.72,2.09-0.72c0.91,0,1.64,0.38,2.17,1.13l9.9,13.68c0.8,1.08,1.21,2.03,1.21,2.86c0,0.83-0.46,1.62-1.37,2.37  c-3.22,2.84-6.41,5.18-9.57,7c-3.17,1.82-6.27,3.24-9.33,4.26C348.69,249.61,345.66,250.31,342.66,250.68z M430.62,319.65  l-10.06,14.24c-0.7,1.02-1.5,1.53-2.42,1.53c-0.8,0-1.64-0.38-2.49-1.13c-0.7-0.59-1.54-1.31-2.53-2.17  c-0.99-0.86-2.15-1.68-3.46-2.46c-1.31-0.78-2.8-1.43-4.46-1.97c-1.66-0.53-3.51-0.8-5.55-0.8c-2.36,0-4.59,0.36-6.68,1.09  c-2.09,0.72-3.93,1.81-5.51,3.26c-1.58,1.45-2.83,3.26-3.74,5.43c-0.91,2.17-1.37,4.68-1.37,7.52v53.11c0,2.3-1.18,3.46-3.54,3.46  h-22.69c-2.31,0-3.46-1.15-3.46-3.46v-91.57c0-2.36,1.15-3.54,3.46-3.54h13.2c1.18,0,2.24,0.19,3.18,0.56  c0.94,0.38,1.81,1.53,2.61,3.46l3.38,8.61c1.61-1.77,3.18-3.47,4.71-5.11c1.53-1.64,3.19-3.08,4.99-4.35  c1.8-1.26,3.83-2.26,6.11-3.02c2.28-0.75,4.98-1.13,8.09-1.13c3.22,0,6.33,0.52,9.34,1.57c3,1.05,5.72,2.27,8.17,3.66  c2.44,1.4,4.53,2.76,6.28,4.1c1.74,1.34,2.94,2.31,3.58,2.9c1.34,1.18,2.01,2.24,2.01,3.18  C431.75,317.57,431.37,318.57,430.62,319.65z M430.57,249.63h-11.75c-2.2,0-3.76-1.13-4.67-3.38l-37.57-89.23  c-0.75-1.93-0.8-3.4-0.16-4.43c0.64-1.02,1.74-1.53,3.3-1.53h22.13c2.2,0,3.73,1.21,4.59,3.62l18.83,53.51l18.02-53.75  c0.38-1.18,0.96-2.04,1.77-2.57c0.81-0.54,1.74-0.8,2.82-0.8h23.49c1.45,0,2.3,0.44,2.58,1.33c0.27,0.89,0.02,2.19-0.73,3.9  l-37.98,89.95C434.27,248.51,432.72,249.63,430.57,249.63z M534.59,372.51c-2.55,6.22-6.02,11.55-10.42,15.97  c-4.4,4.43-9.49,7.86-15.29,10.3c-5.79,2.44-11.96,3.66-18.51,3.66c-4.93,0-9.48-0.99-13.64-2.98c-4.16-1.98-7.85-4.72-11.06-8.21  l-0.8,2.17c-0.22,0.59-0.48,1.3-0.8,2.13c-0.32,0.83-0.71,1.64-1.17,2.41c-0.46,0.78-0.99,1.44-1.61,1.97  c-0.62,0.54-1.33,0.8-2.13,0.8h-18.75c-1.13,0-2.01-0.29-2.66-0.89c-0.64-0.59-0.96-1.45-0.96-2.57V276.92  c0-1.18,0.32-2.05,0.96-2.61c0.64-0.56,1.53-0.84,2.66-0.84h22.45c2.3,0,3.46,1.15,3.46,3.46v33.71c3.06-2.95,6.57-5.26,10.54-6.92  c3.97-1.66,8.45-2.49,13.44-2.49c7.19,0,13.73,1.33,19.63,3.98c5.9,2.65,10.96,6.28,15.17,10.86c4.21,4.59,7.48,9.95,9.82,16.09  c2.33,6.14,3.5,12.7,3.5,19.67C538.41,359.39,537.13,366.29,534.59,372.51z M529.32,250.68c-3,0.37-6.01,0.56-9.01,0.56  c-6.65,0-13.03-1.33-19.15-3.98c-6.11-2.65-11.49-6.26-16.13-10.82c-4.64-4.56-8.34-9.91-11.1-16.05  c-2.76-6.14-4.14-12.7-4.14-19.67c0-6.97,1.21-13.52,3.62-19.63c2.41-6.11,5.8-11.47,10.18-16.05c4.37-4.58,9.62-8.21,15.73-10.86  c6.11-2.65,12.85-3.98,20.19-3.98c3.06,0,6.32,0.4,9.78,1.21c3.46,0.8,6.88,2.06,10.26,3.78c3.38,1.72,6.62,3.9,9.74,6.56  c3.11,2.66,5.84,5.83,8.21,9.53c2.36,3.7,4.25,7.94,5.67,12.71c1.42,4.78,2.13,10.14,2.13,16.09c0,2.09-0.2,3.78-0.6,5.07  c-0.4,1.29-1.08,2.27-2.01,2.94c-0.94,0.67-2.13,1.13-3.58,1.37c-1.45,0.24-3.22,0.36-5.31,0.36H498.1  c0.75,2.63,1.82,4.99,3.22,7.08c1.4,2.09,3.06,3.87,4.99,5.35c1.93,1.48,4.08,2.61,6.44,3.42c2.36,0.81,4.83,1.21,7.4,1.21  c3.7,0,6.76-0.29,9.17-0.89c2.41-0.59,4.47-1.33,6.15-2.21c1.69-0.89,3.12-1.84,4.31-2.86c1.18-1.02,2.36-1.98,3.54-2.9  c0.7-0.48,1.4-0.72,2.09-0.72c0.91,0,1.64,0.38,2.17,1.13l9.9,13.68c0.8,1.08,1.21,2.03,1.21,2.86c0,0.83-0.46,1.62-1.37,2.37  c-3.22,2.84-6.41,5.18-9.57,7c-3.16,1.82-6.28,3.24-9.33,4.26C535.35,249.61,532.32,250.31,529.32,250.68z M642.57,371.42  c-2.68,6.14-6.33,11.51-10.94,16.09c-4.61,4.59-10,8.21-16.17,10.86c-6.17,2.66-12.77,3.98-19.8,3.98  c-7.03,0-13.62-1.33-19.79-3.98c-6.17-2.65-11.56-6.26-16.17-10.82c-4.61-4.56-8.24-9.92-10.9-16.09  c-2.66-6.17-3.98-12.74-3.98-19.71c0-7.03,1.33-13.6,3.98-19.71c2.66-6.12,6.29-11.47,10.9-16.05c4.61-4.59,10-8.19,16.17-10.82  c6.17-2.63,12.77-3.94,19.79-3.94c7.03,0,13.64,1.33,19.83,3.98c6.2,2.65,11.6,6.28,16.21,10.86c4.61,4.59,8.24,9.93,10.9,16.05  c2.66,6.11,3.98,12.66,3.98,19.63C646.6,358.73,645.25,365.28,642.57,371.42z M644.79,182.77c-0.7,1.02-1.5,1.53-2.42,1.53  c-0.8,0-1.64-0.38-2.49-1.13c-0.7-0.59-1.54-1.31-2.53-2.17c-0.99-0.86-2.15-1.68-3.46-2.46c-1.31-0.78-2.8-1.43-4.46-1.97  c-1.67-0.54-3.52-0.8-5.55-0.8c-2.36,0-4.59,0.36-6.68,1.08c-2.09,0.73-3.93,1.81-5.51,3.26c-1.58,1.45-2.83,3.26-3.74,5.43  c-0.91,2.17-1.37,4.68-1.37,7.52v53.11c0,2.31-1.18,3.46-3.54,3.46h-22.69c-2.31,0-3.46-1.15-3.46-3.46v-91.56  c0-2.36,1.15-3.54,3.46-3.54h13.19c1.18,0,2.24,0.19,3.18,0.56c0.94,0.38,1.81,1.53,2.61,3.46l3.38,8.61  c1.61-1.77,3.18-3.47,4.71-5.11c1.53-1.63,3.19-3.08,4.99-4.34c1.8-1.26,3.84-2.26,6.11-3.02c2.28-0.75,4.98-1.13,8.09-1.13  c3.22,0,6.33,0.52,9.34,1.57c3,1.05,5.72,2.27,8.17,3.66c2.44,1.4,4.53,2.76,6.28,4.1c1.74,1.34,2.94,2.31,3.58,2.9  c1.34,1.18,2.01,2.24,2.01,3.18c0,0.94-0.38,1.95-1.13,3.02L644.79,182.77z M749.06,397.21c0,2.36-1.18,3.54-3.54,3.54h-21.64  c-2.47,0-3.7-1.18-3.7-3.54v-50.77c0-2.52-0.39-4.87-1.17-7.04c-0.78-2.17-1.89-4.06-3.34-5.67c-1.45-1.61-3.21-2.87-5.27-3.78  c-2.07-0.91-4.42-1.37-7.04-1.37c-2.63,0-5.03,0.46-7.2,1.37c-2.17,0.91-4.04,2.17-5.59,3.78c-1.56,1.61-2.76,3.5-3.62,5.67  c-0.86,2.17-1.28,4.52-1.28,7.04v49.89c0,0.59-0.16,1.15-0.48,1.69c-0.32,0.54-0.75,1.01-1.29,1.41c-0.54,0.4-1.11,0.72-1.73,0.97  c-0.61,0.24-1.22,0.36-1.81,0.36h-20.68c-2.47,0-3.7-1.21-3.7-3.62v-91.32c0-2.41,1.23-3.62,3.7-3.62H674  c1.23,0,2.39,0.44,3.46,1.33c1.08,0.89,1.77,1.92,2.09,3.1l2.17,8.85c1.98-2.58,4.17-4.78,6.56-6.6c2.39-1.83,4.89-3.31,7.52-4.47  c2.63-1.15,5.34-2,8.13-2.54c2.79-0.54,5.58-0.8,8.36-0.8c2.15,0,4.56,0.28,7.24,0.84c2.68,0.56,5.38,1.5,8.09,2.82  c2.71,1.32,5.35,3.03,7.93,5.15c2.57,2.12,4.86,4.75,6.88,7.89c2.01,3.14,3.62,6.83,4.83,11.06c1.21,4.24,1.81,9.1,1.81,14.56  V397.21z"></path></g><g>	<path d="M871.3,144.32l-46.76-54.86c-2.13-2.5-4.11-5.13-6.14-7.71c-13.21-16.79-32.2-28.82-53.95-33.05  c-2.17-4.33-613.83-4.21-616.81-0.1c-36.55,6.88-65.42,35.74-72.31,72.29c-1.55,6.82-2.39,13.9-2.39,21.18v254.37  c0,6.87,0.8,13.54,2.18,20.01c3.1,17.77,11.39,33.77,23.24,46.39c2.15,2.29,4.36,4.54,6.44,6.9l47.28,53.83  c17.6,21.36,44.24,35,74.01,35h573.93c52.94,0,95.86-42.92,95.86-95.86V208.34C895.89,183.75,886.57,161.3,871.3,144.32z   M809.72,400.82c0,34.52-28.08,62.6-62.6,62.6H164.44c-34.52,0-62.61-28.08-62.61-62.6V137.71c0-34.52,28.08-62.61,62.61-62.61  h582.67c34.52,0,62.6,28.08,62.6,62.61V400.82z"></path>	<path d="M221.55,218.42c-0.38-0.7-1.05-1.05-2.01-1.05c-0.7,0-1.4,0.24-2.09,0.73c-0.97,0.7-2.08,1.45-3.34,2.25  c-1.26,0.8-2.64,1.54-4.14,2.21c-1.5,0.67-3.09,1.22-4.75,1.65c-1.66,0.43-3.41,0.64-5.23,0.64c-3.11,0-6.03-0.57-8.77-1.73  c-2.74-1.15-5.1-2.8-7.08-4.95c-1.99-2.15-3.55-4.71-4.71-7.68c-1.15-2.98-1.73-6.29-1.73-9.94c0-3.65,0.6-6.97,1.81-9.98  c1.21-3,2.83-5.59,4.87-7.76c2.04-2.17,4.4-3.86,7.08-5.07c2.68-1.21,5.5-1.81,8.45-1.81c3.06,0,6.01,0.44,8.85,1.33  c2.84,0.88,5.96,2.51,9.33,4.87c0.54,0.38,1.18,0.56,1.93,0.56c0.86,0,1.48-0.29,1.85-0.88l11.02-17.06  c0.43-0.7,0.55-1.33,0.36-1.89c-0.19-0.56-0.6-1.11-1.25-1.65c-2.25-1.77-4.52-3.35-6.8-4.75c-2.28-1.39-4.71-2.56-7.28-3.5  c-2.57-0.94-5.34-1.66-8.29-2.17c-2.95-0.51-6.25-0.76-9.9-0.76c-6.92,0-13.42,1.33-19.51,3.98c-6.09,2.65-11.4,6.26-15.93,10.82  c-4.53,4.56-8.11,9.9-10.74,16.01c-2.63,6.12-3.94,12.66-3.94,19.63c0,7.4,1.33,14.22,3.98,20.44c2.65,6.22,6.28,11.59,10.86,16.09  c4.59,4.51,9.96,8.02,16.13,10.54c6.17,2.52,12.74,3.81,19.71,3.86c2.9,0,5.83-0.32,8.81-0.96c2.98-0.64,5.87-1.51,8.69-2.61  c2.82-1.1,5.44-2.37,7.88-3.82c2.44-1.45,4.55-2.95,6.32-4.51c0.91-0.8,1.39-1.55,1.45-2.25c0.05-0.7-0.24-1.58-0.88-2.66  L221.55,218.42z"></path>	<path d="M246.72,249.63h21.88c1.18,0,2.09-0.33,2.74-1.01c0.64-0.67,0.96-1.54,0.96-2.62V126.05c0-1.07-0.35-1.94-1.05-2.61  c-0.7-0.67-1.58-1.01-2.65-1.01h-21.88c-1.08,0-1.97,0.29-2.7,0.88c-0.73,0.59-1.09,1.5-1.09,2.74v119.97  c0,1.24,0.33,2.15,1.01,2.74C244.61,249.34,245.53,249.63,246.72,249.63z"></path>	<path d="M370.66,237.32c0.91-0.75,1.37-1.54,1.37-2.37c0-0.83-0.4-1.78-1.21-2.86l-9.9-13.68c-0.54-0.75-1.26-1.13-2.17-1.13  c-0.7,0-1.39,0.24-2.09,0.72c-1.18,0.91-2.36,1.88-3.54,2.9c-1.18,1.02-2.62,1.97-4.31,2.86c-1.69,0.88-3.74,1.62-6.15,2.21  c-2.41,0.59-5.47,0.89-9.17,0.89c-2.58,0-5.04-0.4-7.4-1.21c-2.36-0.8-4.51-1.94-6.44-3.42c-1.93-1.48-3.59-3.26-4.99-5.35  c-1.4-2.09-2.47-4.45-3.22-7.08h55.68c2.09,0,3.86-0.12,5.31-0.36c1.45-0.24,2.64-0.7,3.58-1.37c0.94-0.67,1.61-1.65,2.01-2.94  c0.4-1.29,0.61-2.98,0.61-5.07c0-5.96-0.71-11.32-2.13-16.09c-1.42-4.77-3.31-9.01-5.67-12.71c-2.36-3.7-5.1-6.88-8.21-9.53  c-3.11-2.65-6.36-4.84-9.74-6.56c-3.38-1.72-6.8-2.98-10.26-3.78c-3.46-0.8-6.72-1.21-9.78-1.21c-7.35,0-14.08,1.33-20.2,3.98  c-6.11,2.65-11.36,6.28-15.73,10.86c-4.37,4.59-7.76,9.94-10.18,16.05c-2.41,6.12-3.62,12.66-3.62,19.63  c0,6.97,1.38,13.53,4.14,19.67c2.76,6.14,6.46,11.49,11.1,16.05c4.64,4.56,10.02,8.17,16.13,10.82c6.11,2.66,12.5,3.98,19.15,3.98  c3,0,6.01-0.19,9.01-0.56c3-0.38,6.03-1.07,9.09-2.09c3.06-1.02,6.17-2.44,9.33-4.26C364.25,242.5,367.44,240.17,370.66,237.32z   M316.18,182.21c1.23-1.72,2.65-3.22,4.26-4.51c1.61-1.29,3.38-2.3,5.31-3.06c1.93-0.75,4-1.13,6.2-1.13  c4.45,0,8.39,1.23,11.83,3.7c3.43,2.47,6.17,5.98,8.21,10.54h-39.02C313.88,185.78,314.95,183.93,316.18,182.21z"></path>	<path d="M473.94,152.4c-0.27-0.88-1.13-1.33-2.58-1.33h-23.49c-1.07,0-2.01,0.27-2.82,0.8c-0.8,0.54-1.39,1.4-1.77,2.57  l-18.02,53.75l-18.83-53.51c-0.86-2.41-2.39-3.62-4.59-3.62h-22.13c-1.56,0-2.65,0.51-3.3,1.53c-0.64,1.02-0.59,2.49,0.16,4.43  l37.57,89.23c0.91,2.25,2.47,3.38,4.67,3.38h11.75c2.15,0,3.7-1.13,4.67-3.38l37.98-89.95  C473.96,154.58,474.21,153.28,473.94,152.4z"></path>	<path d="M557.31,237.32c0.91-0.75,1.37-1.54,1.37-2.37c0-0.83-0.4-1.78-1.21-2.86l-9.9-13.68c-0.54-0.75-1.26-1.13-2.17-1.13  c-0.7,0-1.4,0.24-2.09,0.72c-1.18,0.91-2.36,1.88-3.54,2.9c-1.18,1.02-2.62,1.97-4.31,2.86c-1.69,0.88-3.74,1.62-6.15,2.21  c-2.42,0.59-5.47,0.89-9.17,0.89c-2.58,0-5.04-0.4-7.4-1.21c-2.36-0.8-4.51-1.94-6.44-3.42c-1.93-1.48-3.59-3.26-4.99-5.35  c-1.4-2.09-2.47-4.45-3.22-7.08h55.68c2.09,0,3.86-0.12,5.31-0.36c1.45-0.24,2.64-0.7,3.58-1.37c0.94-0.67,1.61-1.65,2.01-2.94  c0.4-1.29,0.6-2.98,0.6-5.07c0-5.96-0.71-11.32-2.13-16.09c-1.42-4.77-3.31-9.01-5.67-12.71c-2.36-3.7-5.1-6.88-8.21-9.53  c-3.11-2.65-6.36-4.84-9.74-6.56c-3.38-1.72-6.8-2.98-10.26-3.78c-3.46-0.8-6.72-1.21-9.78-1.21c-7.35,0-14.08,1.33-20.19,3.98  c-6.11,2.65-11.36,6.28-15.73,10.86c-4.37,4.59-7.77,9.94-10.18,16.05c-2.41,6.12-3.62,12.66-3.62,19.63  c0,6.97,1.38,13.53,4.14,19.67c2.76,6.14,6.46,11.49,11.1,16.05c4.64,4.56,10.02,8.17,16.13,10.82c6.12,2.66,12.5,3.98,19.15,3.98  c3,0,6.01-0.19,9.01-0.56c3-0.38,6.03-1.07,9.09-2.09c3.06-1.02,6.17-2.44,9.33-4.26C550.91,242.5,554.1,240.17,557.31,237.32z   M502.85,182.21c1.23-1.72,2.65-3.22,4.26-4.51c1.61-1.29,3.38-2.3,5.31-3.06c1.93-0.75,3.99-1.13,6.2-1.13  c4.45,0,8.39,1.23,11.83,3.7c3.43,2.47,6.17,5.98,8.21,10.54h-39.02C500.54,185.78,501.61,183.93,502.85,182.21z"></path>	<path d="M653.96,162.33c-0.64-0.59-1.84-1.55-3.58-2.9c-1.74-1.34-3.84-2.71-6.28-4.1c-2.44-1.39-5.17-2.61-8.17-3.66  c-3-1.05-6.11-1.57-9.34-1.57c-3.11,0-5.8,0.38-8.09,1.13c-2.28,0.75-4.32,1.76-6.11,3.02c-1.8,1.26-3.46,2.71-4.99,4.34  c-1.53,1.64-3.1,3.34-4.71,5.11l-3.38-8.61c-0.8-1.93-1.68-3.08-2.61-3.46c-0.94-0.37-2-0.56-3.18-0.56h-13.19  c-2.31,0-3.46,1.18-3.46,3.54v91.56c0,2.31,1.15,3.46,3.46,3.46h22.69c2.36,0,3.54-1.15,3.54-3.46v-53.11  c0-2.84,0.45-5.35,1.37-7.52c0.91-2.17,2.16-3.98,3.74-5.43c1.58-1.45,3.42-2.53,5.51-3.26c2.09-0.72,4.32-1.08,6.68-1.08  c2.04,0,3.89,0.27,5.55,0.8c1.66,0.54,3.15,1.19,4.46,1.97c1.31,0.78,2.47,1.6,3.46,2.46c0.99,0.86,1.84,1.58,2.53,2.17  c0.86,0.75,1.69,1.13,2.49,1.13c0.91,0,1.72-0.51,2.42-1.53l10.05-14.24c0.75-1.07,1.13-2.08,1.13-3.02  C655.97,164.58,655.3,163.52,653.96,162.33z"></path>	<path d="M221.55,369.53c-0.38-0.7-1.05-1.04-2.01-1.04c-0.7,0-1.4,0.24-2.09,0.72c-0.97,0.7-2.08,1.45-3.34,2.25  c-1.26,0.8-2.64,1.54-4.14,2.21c-1.5,0.67-3.09,1.22-4.75,1.65c-1.66,0.43-3.41,0.65-5.23,0.65c-3.11,0-6.03-0.58-8.77-1.73  c-2.74-1.16-5.1-2.8-7.08-4.95c-1.99-2.15-3.55-4.71-4.71-7.68c-1.15-2.98-1.73-6.29-1.73-9.94c0-3.65,0.6-6.97,1.81-9.98  c1.21-3,2.83-5.59,4.87-7.76c2.04-2.17,4.4-3.86,7.08-5.07c2.68-1.21,5.5-1.81,8.45-1.81c3.06,0,6.01,0.44,8.85,1.33  c2.84,0.89,5.96,2.51,9.33,4.87c0.54,0.38,1.18,0.56,1.93,0.56c0.86,0,1.48-0.29,1.85-0.88l11.02-17.06  c0.43-0.7,0.55-1.33,0.36-1.89c-0.19-0.56-0.6-1.11-1.25-1.65c-2.25-1.77-4.52-3.35-6.8-4.75c-2.28-1.39-4.71-2.56-7.28-3.5  c-2.57-0.94-5.34-1.66-8.29-2.17c-2.95-0.51-6.25-0.76-9.9-0.76c-6.92,0-13.42,1.33-19.51,3.98c-6.09,2.65-11.4,6.26-15.93,10.82  c-4.53,4.56-8.11,9.9-10.74,16.01c-2.63,6.11-3.94,12.66-3.94,19.63c0,7.4,1.33,14.22,3.98,20.43c2.65,6.23,6.28,11.59,10.86,16.1  c4.59,4.51,9.96,8.02,16.13,10.54c6.17,2.52,12.74,3.81,19.71,3.86c2.9,0,5.83-0.32,8.81-0.97c2.98-0.64,5.87-1.51,8.69-2.61  c2.82-1.1,5.44-2.37,7.88-3.82c2.44-1.45,4.55-2.95,6.32-4.51c0.91-0.8,1.39-1.55,1.45-2.25c0.05-0.7-0.24-1.58-0.88-2.66  L221.55,369.53z"></path>	<path d="M337,302.19h-16.41c-1.13,0-1.88,0.27-2.25,0.8c-0.38,0.54-0.78,1.42-1.21,2.65l-3.06,8.53c-3.43-4.03-7.48-7.2-12.15-9.54  c-4.67-2.33-9.98-3.5-15.93-3.5c-6.97,0-13.49,1.33-19.55,3.98c-6.06,2.65-11.31,6.28-15.73,10.86  c-4.42,4.59-7.91,9.97-10.46,16.13c-2.55,6.17-3.82,12.74-3.82,19.71c0,7.56,1.35,14.46,4.06,20.68  c2.71,6.22,6.36,11.55,10.94,15.97c4.59,4.43,9.87,7.85,15.85,10.26c5.98,2.41,12.22,3.62,18.71,3.62c5.2,0,10.06-1.02,14.56-3.05  c4.51-2.04,8.53-4.91,12.07-8.61l1.05,2.74c0.21,0.59,0.48,1.3,0.8,2.13c0.32,0.83,0.71,1.64,1.17,2.41  c0.45,0.78,0.99,1.44,1.61,1.97c0.61,0.54,1.33,0.8,2.13,0.8H337c2.3,0,3.46-1.15,3.46-3.46v-91.65  C340.46,303.34,339.3,302.19,337,302.19z M309.12,361.04c-1.21,2.98-2.87,5.57-4.99,7.76c-2.12,2.2-4.61,3.96-7.48,5.27  c-2.87,1.31-5.97,1.97-9.29,1.97c-3.27,0-6.33-0.62-9.17-1.85c-2.84-1.23-5.28-2.93-7.32-5.11c-2.04-2.17-3.65-4.75-4.83-7.72  c-1.18-2.98-1.77-6.21-1.77-9.7c0-3.65,0.63-6.96,1.89-9.93c1.26-2.98,2.95-5.54,5.07-7.68c2.12-2.15,4.57-3.81,7.36-4.99  c2.79-1.18,5.71-1.77,8.77-1.77c3.33,0,6.42,0.66,9.29,1.97c2.87,1.31,5.36,3.09,7.48,5.31c2.12,2.23,3.78,4.81,4.99,7.77  c1.21,2.95,1.81,6.06,1.81,9.33C310.93,354.94,310.32,358.07,309.12,361.04z"></path>	<path d="M429.73,313.45c-0.64-0.59-1.84-1.55-3.58-2.9c-1.74-1.34-3.84-2.71-6.28-4.1c-2.44-1.39-5.16-2.61-8.17-3.66  c-3-1.05-6.12-1.57-9.34-1.57c-3.11,0-5.81,0.38-8.09,1.13c-2.28,0.75-4.32,1.76-6.11,3.02c-1.8,1.26-3.46,2.71-4.99,4.35  c-1.53,1.64-3.1,3.34-4.71,5.11l-3.38-8.61c-0.8-1.93-1.68-3.08-2.61-3.46c-0.94-0.38-2-0.56-3.18-0.56h-13.2  c-2.31,0-3.46,1.18-3.46,3.54v91.57c0,2.3,1.15,3.46,3.46,3.46h22.69c2.36,0,3.54-1.15,3.54-3.46v-53.11  c0-2.84,0.45-5.35,1.37-7.52c0.91-2.17,2.16-3.98,3.74-5.43c1.58-1.45,3.42-2.54,5.51-3.26c2.09-0.72,4.32-1.09,6.68-1.09  c2.04,0,3.89,0.27,5.55,0.8c1.66,0.54,3.15,1.19,4.46,1.97c1.31,0.78,2.47,1.6,3.46,2.46c0.99,0.86,1.84,1.58,2.53,2.17  c0.86,0.75,1.69,1.13,2.49,1.13c0.91,0,1.72-0.51,2.42-1.53l10.06-14.24c0.75-1.08,1.13-2.08,1.13-3.02  C431.75,315.69,431.07,314.63,429.73,313.45z"></path>	<path d="M525.09,316.07c-4.21-4.59-9.27-8.21-15.17-10.86c-5.9-2.65-12.44-3.98-19.63-3.98c-4.99,0-9.47,0.83-13.44,2.49  c-3.97,1.66-7.48,3.97-10.54,6.92v-33.71c0-2.3-1.15-3.46-3.46-3.46h-22.45c-1.13,0-2.01,0.28-2.66,0.84  c-0.64,0.56-0.96,1.43-0.96,2.61v120.37c0,1.13,0.32,1.98,0.96,2.57c0.64,0.59,1.53,0.89,2.66,0.89h18.75c0.8,0,1.52-0.27,2.13-0.8  c0.61-0.53,1.15-1.19,1.61-1.97c0.46-0.77,0.84-1.58,1.17-2.41c0.32-0.83,0.59-1.54,0.8-2.13l0.8-2.17  c3.22,3.49,6.9,6.22,11.06,8.21c4.16,1.98,8.7,2.98,13.64,2.98c6.55,0,12.72-1.22,18.51-3.66c5.79-2.44,10.89-5.87,15.29-10.3  c4.4-4.42,7.87-9.75,10.42-15.97c2.54-6.22,3.82-13.11,3.82-20.68c0-6.97-1.17-13.53-3.5-19.67  C532.57,326.02,529.3,320.65,525.09,316.07z M509.36,361.08c-1.02,3-2.54,5.6-4.55,7.8c-2.01,2.2-4.48,3.94-7.4,5.23  c-2.92,1.29-6.32,1.93-10.18,1.93c-3.7,0-6.99-0.79-9.86-2.37c-2.87-1.58-5.3-3.58-7.28-5.99c-1.98-2.41-3.49-5.07-4.51-7.97  c-1.02-2.9-1.53-5.63-1.53-8.21c0-2.58,0.51-5.28,1.53-8.13c1.02-2.84,2.52-5.46,4.51-7.84c1.98-2.39,4.4-4.35,7.24-5.87  c2.84-1.53,6.09-2.29,9.74-2.29c3.64,0,6.93,0.62,9.86,1.85c2.92,1.24,5.42,2.94,7.48,5.11c2.07,2.17,3.66,4.73,4.79,7.68  c1.13,2.95,1.69,6.11,1.69,9.49C510.89,354.89,510.38,358.08,509.36,361.08z"></path>	<path d="M631.71,316.07c-4.61-4.59-10.02-8.21-16.21-10.86c-6.2-2.65-12.8-3.98-19.83-3.98c-7.03,0-13.62,1.31-19.79,3.94  c-6.17,2.63-11.56,6.24-16.17,10.82c-4.61,4.59-8.24,9.93-10.9,16.05c-2.66,6.11-3.98,12.68-3.98,19.71  c0,6.98,1.33,13.55,3.98,19.71c2.66,6.17,6.29,11.53,10.9,16.09c4.61,4.56,10,8.17,16.17,10.82c6.17,2.66,12.77,3.98,19.79,3.98  c7.03,0,13.63-1.33,19.8-3.98c6.17-2.65,11.56-6.27,16.17-10.86c4.61-4.59,8.26-9.95,10.94-16.09c2.68-6.14,4.03-12.7,4.03-19.67  c0-6.97-1.33-13.52-3.98-19.63C639.96,326,636.32,320.65,631.71,316.07z M616.5,361.08c-1.07,2.95-2.6,5.55-4.59,7.8  c-1.98,2.25-4.34,4.05-7.08,5.39c-2.73,1.34-5.79,2.01-9.17,2.01c-3.38,0-6.45-0.66-9.21-1.97c-2.76-1.31-5.12-3.1-7.08-5.35  c-1.96-2.25-3.49-4.87-4.59-7.85c-1.1-2.98-1.65-6.1-1.65-9.37c0-3.33,0.55-6.46,1.65-9.41c1.1-2.95,2.64-5.54,4.63-7.77  c1.98-2.22,4.35-3.99,7.12-5.31c2.76-1.31,5.84-1.97,9.21-1.97c3.38,0,6.44,0.66,9.17,1.97c2.74,1.31,5.08,3.1,7.04,5.35  c1.96,2.25,3.47,4.85,4.54,7.8c1.08,2.95,1.61,6.06,1.61,9.33C618.11,355.02,617.58,358.13,616.5,361.08z"></path>	<path d="M742.43,317.76c-2.01-3.14-4.3-5.77-6.88-7.89c-2.58-2.12-5.22-3.84-7.93-5.15c-2.71-1.31-5.41-2.25-8.09-2.82  c-2.68-0.56-5.1-0.84-7.24-0.84c-2.79,0-5.58,0.27-8.36,0.8c-2.79,0.54-5.5,1.38-8.13,2.54c-2.63,1.15-5.14,2.64-7.52,4.47  c-2.39,1.82-4.57,4.02-6.56,6.6l-2.17-8.85c-0.32-1.18-1.02-2.21-2.09-3.1c-1.07-0.88-2.22-1.33-3.46-1.33h-14.32  c-2.47,0-3.7,1.21-3.7,3.62v91.32c0,2.41,1.23,3.62,3.7,3.62h20.68c0.59,0,1.19-0.12,1.81-0.36c0.62-0.24,1.19-0.56,1.73-0.97  c0.53-0.4,0.97-0.87,1.29-1.41c0.32-0.54,0.48-1.1,0.48-1.69v-49.89c0-2.52,0.43-4.87,1.28-7.04c0.86-2.17,2.07-4.06,3.62-5.67  c1.55-1.61,3.42-2.87,5.59-3.78c2.17-0.91,4.57-1.37,7.2-1.37c2.63,0,4.97,0.46,7.04,1.37c2.06,0.91,3.82,2.17,5.27,3.78  c1.45,1.61,2.56,3.5,3.34,5.67c0.78,2.17,1.17,4.52,1.17,7.04v50.77c0,2.36,1.23,3.54,3.7,3.54h21.64c2.36,0,3.54-1.18,3.54-3.54  v-53.83c0-5.47-0.6-10.33-1.81-14.56C746.05,324.58,744.44,320.89,742.43,317.76z"></path></g></svg>