<svg width="528" height="541" viewBox="0 0 528 541" fill="none" xmlns="http://www.w3.org/2000/svg">
<mask id="mask0_22_421" style="mask-type:luminance" maskUnits="userSpaceOnUse" x="-17" y="-5" width="548" height="549">
<path d="M530.91 -4.14844H-16.432V543.194H530.91V-4.14844Z" fill="white"/>
</mask>
<g mask="url(#mask0_22_421)">
<path d="M509.122 1521.42L499.442 1511.74L-1074.15 -61.8545L-1083.82 -71.5293L-1074.15 -81.2021L-850.609 -304.749L-840.936 -314.422L-831.263 -304.749L742.332 1268.85L752.012 1278.53L742.339 1288.21L518.795 1511.75L509.122 1521.42V1521.42Z" fill="#F9D94A" stroke="black" stroke-width="5" stroke-miterlimit="10"/>
<path d="M536.845 1493.7L527.165 1484.02L-1046.43 -89.5771L-1056.1 -99.25L-1046.43 -108.924L-822.886 -332.467L-813.213 -342.141L-803.54 -332.467L770.052 1241.13L779.732 1250.81L770.059 1260.48L546.515 1484.03L536.842 1493.7L536.845 1493.7Z" fill="#F2C1F8" stroke="black" stroke-width="5" stroke-miterlimit="10"/>
<path d="M564.569 1465.97L554.889 1456.29L-1018.71 -117.311L-1028.38 -126.983L-1018.71 -136.656L-795.162 -360.201L-785.489 -369.875L-775.816 -360.201L797.779 1213.39L807.459 1223.07L797.786 1232.75L574.242 1456.3L564.569 1465.97Z" fill="#AFEFE9" stroke="black" stroke-width="5" stroke-miterlimit="10"/>
<path d="M592.292 1438.25L582.612 1428.57L-990.983 -145.027L-1000.66 -154.702L-990.983 -164.375L-767.439 -387.919L-757.764 -397.594L-748.091 -387.92L825.504 1185.67L835.184 1195.36L825.509 1205.03L601.965 1428.57L592.292 1438.25Z" fill="#8CC558" stroke="black" stroke-width="5" stroke-miterlimit="10"/>
<path d="M620.015 1410.53L610.335 1400.85L-963.26 -172.749L-972.933 -182.422L-963.26 -192.096L-739.716 -415.639L-730.041 -425.312L-720.368 -415.64L853.227 1157.95L862.907 1167.63L853.232 1177.31L629.689 1400.85L620.016 1410.53L620.015 1410.53Z" fill="#F9D94A" stroke="black" stroke-width="5" stroke-miterlimit="10"/>
<path d="M647.739 1382.8L638.059 1373.12L-935.536 -200.475L-945.209 -210.147L-935.536 -219.82L-711.992 -443.363L-702.317 -453.039L-692.644 -443.366L880.952 1130.23L890.632 1139.91L880.957 1149.58L657.412 1373.13L647.739 1382.8Z" fill="#F2C1F8" stroke="black" stroke-width="5" stroke-miterlimit="10"/>
<path d="M675.462 1355.08L665.782 1345.4L-907.813 -228.193L-917.486 -237.867L-907.813 -247.54L-684.268 -471.084L-674.595 -480.758L-664.922 -471.084L908.673 1102.51L918.353 1112.19L908.68 1121.87L685.135 1345.41L675.462 1355.08Z" fill="#AFEFE9" stroke="black" stroke-width="5" stroke-miterlimit="10"/>
<path d="M703.185 1327.36L693.505 1317.67L-880.089 -255.919L-889.762 -265.592L-880.087 -275.267L-656.548 -498.811L-646.875 -508.484L-637.202 -498.811L936.393 1074.78L946.073 1084.46L936.4 1094.14L712.856 1317.68L703.181 1327.36L703.185 1327.36Z" fill="#8CC558" stroke="black" stroke-width="5" stroke-miterlimit="10"/>
<path d="M730.852 1299.68L721.172 1290L-852.422 -283.593L-862.095 -293.266L-852.422 -302.939L-628.878 -526.482L-619.205 -536.156L-609.532 -526.482L964.063 1047.11L973.743 1056.79L964.07 1066.47L740.526 1290.01L730.853 1299.68L730.852 1299.68Z" fill="#F9D94A" stroke="black" stroke-width="5" stroke-miterlimit="10"/>
<path d="M758.577 1271.96L748.897 1262.28L-824.698 -311.311L-834.371 -320.984L-824.698 -330.658L-601.155 -554.201L-591.482 -563.875L-581.809 -554.201L991.786 1019.39L1001.47 1029.07L991.793 1038.75L768.252 1262.29L758.579 1271.96H758.577Z" fill="#F2C1F8" stroke="black" stroke-width="5" stroke-miterlimit="10"/>
<path d="M786.3 1244.24L776.62 1234.56L-796.975 -339.038L-806.648 -348.712L-796.975 -358.385L-573.431 -581.929L-563.758 -591.602L-554.085 -581.929L1019.51 991.666L1029.19 1001.35L1019.52 1011.02L795.973 1234.56L786.3 1244.24Z" fill="#AFEFE9" stroke="black" stroke-width="5" stroke-miterlimit="10"/>
<path d="M814.023 1216.51L804.343 1206.83L-769.248 -366.761L-778.921 -376.434L-769.248 -386.107L-545.708 -609.653L-536.033 -619.328L-526.36 -609.654L1047.24 963.946L1056.92 973.627L1047.24 983.302L823.696 1206.85L814.023 1216.52V1216.51Z" fill="#8CC558" stroke="black" stroke-width="5" stroke-miterlimit="10"/>
<path d="M841.747 1188.79L832.067 1179.11L-741.528 -394.482L-751.201 -404.155L-741.528 -413.829L-517.984 -637.372L-508.309 -647.047L-498.636 -637.374L1074.96 936.222L1084.64 945.902L1074.96 955.577L851.42 1179.12L841.747 1188.79Z" fill="#F9D94A" stroke="black" stroke-width="5" stroke-miterlimit="10"/>
<path d="M869.47 1161.07L859.79 1151.39L-713.805 -422.208L-723.478 -431.882L-713.805 -441.555L-490.261 -665.099L-480.586 -674.773L-470.913 -665.1L1102.68 908.495L1112.36 918.176L1102.69 927.851L879.142 1151.39L869.469 1161.07L869.47 1161.07Z" fill="#F2C1F8" stroke="black" stroke-width="5" stroke-miterlimit="10"/>
<path d="M897.193 1133.34L887.513 1123.66L-686.082 -449.935L-695.755 -459.607L-686.082 -469.281L-462.537 -692.826L-452.864 -702.5L-443.191 -692.826L1130.4 880.769L1140.08 890.448L1130.41 900.122L906.866 1123.67L897.193 1133.34V1133.34Z" fill="#AFEFE9" stroke="black" stroke-width="5" stroke-miterlimit="10"/>
<path d="M924.917 1105.62L915.237 1095.94L-658.358 -477.653L-668.031 -487.327L-658.356 -497.002L-434.812 -720.546L-425.139 -730.219L-415.466 -720.546L1158.13 853.046L1167.81 862.728L1158.14 872.4L934.591 1095.95L924.917 1105.62Z" fill="#8CC558" stroke="black" stroke-width="5" stroke-miterlimit="10"/>
<path d="M952.624 1077.92L942.944 1068.24L-630.648 -505.355L-640.321 -515.029L-630.648 -524.702L-407.108 -748.248L-397.435 -757.922L-387.762 -748.248L1185.83 825.353L1195.51 835.032L1185.84 844.706L962.297 1068.25L952.624 1077.92V1077.92Z" fill="#F9D94A" stroke="black" stroke-width="5" stroke-miterlimit="10"/>
<path d="M980.347 1050.2L970.667 1040.52L-602.928 -533.077L-612.601 -542.751L-602.928 -552.424L-379.384 -775.968L-369.711 -785.641L-360.038 -775.968L1213.55 797.627L1223.23 807.309L1213.56 816.981L990.015 1040.53L980.342 1050.2L980.347 1050.2Z" fill="#F2C1F8" stroke="black" stroke-width="5" stroke-miterlimit="10"/>
<path d="M1008.07 1022.47L998.39 1012.79L-575.205 -560.803L-584.878 -570.476L-575.205 -580.149L-351.661 -803.693L-341.988 -813.367L-332.315 -803.693L1241.28 769.901L1250.96 779.582L1241.29 789.255L1017.74 1012.8L1008.07 1022.47Z" fill="#AFEFE9" stroke="black" stroke-width="5" stroke-miterlimit="10"/>
<path d="M1035.79 994.748L1026.11 985.067L-547.481 -588.529L-557.154 -598.203L-547.481 -607.876L-323.938 -831.419L-314.263 -841.094L-304.59 -831.421L1269.01 742.174L1278.69 751.855L1269.01 761.53L1045.47 985.073L1035.79 994.748Z" fill="#8CC558" stroke="black" stroke-width="5" stroke-miterlimit="10"/>
<path d="M1063.52 967.027L1053.84 957.347L-519.758 -616.247L-529.431 -625.921L-519.758 -635.594L-296.214 -859.138L-286.539 -868.812L-276.866 -859.139L1296.73 714.453L1306.41 724.133L1296.73 733.809L1073.19 957.354L1063.52 967.027Z" fill="#F9D94A" stroke="black" stroke-width="5" stroke-miterlimit="10"/>
<path d="M1091.24 939.302L1081.56 929.622L-492.035 -643.973L-501.708 -653.646L-492.035 -663.32L-268.491 -886.864L-258.816 -896.539L-249.143 -886.865L1324.45 686.73L1334.13 696.41L1324.46 706.085L1100.91 929.629L1091.24 939.302Z" fill="#F2C1F8" stroke="black" stroke-width="5" stroke-miterlimit="10"/>
<path d="M1118.96 911.582L1109.28 901.901L-464.311 -671.693L-473.984 -681.366L-464.311 -691.04L-240.766 -914.585L-231.093 -924.258L-221.42 -914.585L1352.18 659.01L1361.86 668.691L1352.18 678.364L1128.64 901.909L1118.96 911.583L1118.96 911.582Z" fill="#AFEFE9" stroke="black" stroke-width="5" stroke-miterlimit="10"/>
<path d="M1146.69 883.852L1137.01 874.171L-436.588 -699.42L-446.261 -709.093L-436.586 -718.768L-213.042 -942.312L-203.369 -951.984L-193.696 -942.312L1379.9 631.283L1389.58 640.964L1379.91 650.637L1156.36 874.182L1146.69 883.856V883.852Z" fill="#8CC558" stroke="black" stroke-width="5" stroke-miterlimit="10"/>
<path d="M1174.35 856.182L1164.67 846.501L-408.92 -727.093L-418.593 -736.767L-408.92 -746.439L-185.376 -969.983L-175.703 -979.656L-166.03 -969.983L1407.57 603.611L1417.25 613.292L1407.57 622.965L1184.03 846.51L1174.36 856.183L1174.35 856.182Z" fill="#F9D94A" stroke="black" stroke-width="5" stroke-miterlimit="10"/>
<path d="M1202.08 828.465L1192.4 818.784L-381.197 -754.811L-390.87 -764.483L-381.197 -774.158L-157.653 -997.702L-147.98 -1007.38L-138.307 -997.702L1435.29 575.894L1444.97 585.574L1435.3 595.247L1211.75 818.791L1202.08 828.465Z" fill="#F2C1F8" stroke="black" stroke-width="5" stroke-miterlimit="10"/>
<path d="M1229.8 800.737L1220.12 791.057L-353.474 -782.538L-363.147 -792.211L-353.474 -801.884L-129.93 -1025.43L-120.257 -1035.1L-110.584 -1025.43L1463.01 548.167L1472.69 557.848L1463.02 567.521L1239.47 791.064L1229.8 800.737Z" fill="#AFEFE9" stroke="black" stroke-width="5" stroke-miterlimit="10"/>
<path d="M1257.53 773.014L1247.85 763.333L-325.748 -810.261L-335.421 -819.935L-325.748 -829.607L-102.206 -1053.15L-92.5309 -1062.83L-82.8579 -1053.15L1490.74 520.447L1500.42 530.127L1490.74 539.803L1267.2 763.347L1257.52 773.02L1257.53 773.014Z" fill="#8CC558" stroke="black" stroke-width="5" stroke-miterlimit="10"/>
<path d="M1285.25 745.294L1275.57 735.614L-298.027 -837.98L-307.7 -847.654L-298.027 -857.328L-74.4827 -1080.87L-64.8087 -1090.55L-55.1357 -1080.87L1518.46 492.723L1528.14 502.402L1518.46 512.077L1294.92 735.621L1285.25 745.294H1285.25Z" fill="#F9D94A" stroke="black" stroke-width="5" stroke-miterlimit="10"/>
<path d="M1312.97 717.566L1303.29 707.886L-270.304 -865.709L-279.977 -875.382L-270.304 -885.056L-46.7598 -1108.6L-37.0848 -1118.27L-27.4118 -1108.6L1546.18 464.994L1555.86 474.675L1546.19 484.35L1322.64 707.894L1312.97 717.566Z" fill="#F2C1F8" stroke="black" stroke-width="5" stroke-miterlimit="10"/>
<path d="M1340.7 689.845L1331.02 680.164L-242.58 -893.435L-252.253 -903.107L-242.58 -912.78L-19.0347 -1136.33L-9.36169 -1146L0.311279 -1136.33L1573.91 437.273L1583.59 446.953L1573.91 456.626L1350.37 680.172L1340.7 689.845Z" fill="#AFEFE9" stroke="black" stroke-width="5" stroke-miterlimit="10"/>
<path d="M1368.42 662.12L1358.74 652.44L-214.857 -921.152L-224.53 -930.827L-214.855 -940.501L8.68924 -1164.04L18.3622 -1173.72L28.0352 -1164.04L1601.63 409.547L1611.31 419.228L1601.64 428.901L1378.09 652.447L1368.42 662.12Z" fill="#8CC558" stroke="black" stroke-width="5" stroke-miterlimit="10"/>
</g>
</svg>
