<svg width="347" height="347" viewBox="0 0 347 347" fill="none" xmlns="http://www.w3.org/2000/svg">
<mask id="mask0_22_10310" style="mask-type:luminance" maskUnits="userSpaceOnUse" x="0" y="0" width="347" height="347">
<path d="M173.305 346.578C268.777 346.578 346.172 269.183 346.172 173.711C346.172 78.2389 268.777 0.84375 173.305 0.84375C77.8332 0.84375 0.437988 78.2389 0.437988 173.711C0.437988 269.183 77.8332 346.578 173.305 346.578Z" fill="white"/>
</mask>
<g mask="url(#mask0_22_10310)">
<path d="M190.014 75.826C199.061 78.5345 207.487 82.9987 214.809 88.9632C222.131 94.9278 228.206 102.276 232.689 110.589C237.171 118.901 239.972 128.015 240.932 137.411C241.892 146.806 240.992 156.298 238.283 165.345L222.893 216.75L237.943 221.25C240.188 221.922 242.279 223.03 244.095 224.51C245.912 225.99 247.42 227.813 248.532 229.876C249.644 231.938 250.339 234.2 250.577 236.531C250.815 238.862 250.591 241.217 249.919 243.462C249.247 245.707 248.14 247.798 246.66 249.615C245.18 251.431 243.356 252.939 241.294 254.051C239.231 255.163 236.97 255.858 234.638 256.096C232.307 256.334 229.952 256.111 227.707 255.438L212.658 250.938L180.258 380.51L42.4722 339.258L100.494 124.093C105.965 105.822 118.47 90.4716 135.258 81.4198C152.046 72.368 171.742 70.3558 190.014 75.826Z" fill="white" stroke="black" stroke-width="7" stroke-miterlimit="10" stroke-linecap="round"/>
<path d="M236.658 170.772C252.383 126.655 228.063 87.2169 190.014 75.8259C171.742 70.3557 152.046 72.3682 135.258 81.4202C118.469 90.4721 105.965 105.822 100.494 124.094V136.726L236.658 170.772Z" fill="black"/>
<path d="M96.9761 135.844L316.921 190.838" stroke="black" stroke-width="7" stroke-miterlimit="10" stroke-linecap="round"/>
<path d="M189.825 206.429C195.106 206.429 199.387 202.148 199.387 196.867C199.387 191.586 195.106 187.305 189.825 187.305C184.544 187.305 180.263 191.586 180.263 196.867C180.263 202.148 184.544 206.429 189.825 206.429Z" fill="black"/>
<path d="M148.606 223.345C143.949 219.87 138.104 218.382 132.352 219.207C126.601 220.032 121.41 223.102 117.916 227.745C114.423 232.389 112.912 238.228 113.714 243.983C114.515 249.738 117.565 254.941 122.194 258.452" fill="white"/>
<path d="M148.606 223.345C143.949 219.87 138.104 218.382 132.352 219.207C126.601 220.032 121.41 223.102 117.916 227.745C114.423 232.389 112.912 238.228 113.714 243.983C114.515 249.738 117.565 254.941 122.194 258.452" stroke="black" stroke-width="7" stroke-miterlimit="10" stroke-linecap="round"/>
<path d="M205.022 266.888C205.022 266.888 173.956 273.544 141.227 245.18L205.022 266.888Z" fill="white"/>
<path d="M205.022 266.888C205.022 266.888 173.956 273.544 141.227 245.18" stroke="black" stroke-width="7" stroke-miterlimit="10" stroke-linecap="round"/>
</g>
</svg>
