<svg xmlns="http://www.w3.org/2000/svg" viewBox="0 0 650 240.03"><defs><style>.cls-1{fill:#fff;}</style></defs><g id="Layer_2" data-name="Layer 2"><g id="Layer_1-2" data-name="Layer 1"><path class="cls-1" d="M5,237.52A2.49,2.49,0,0,1,2.5,235V6A2.49,2.49,0,0,1,5,3.5H5c7.16,0,12.38-.33,17-.62,3.27-.2,6.1-.38,8.86-.38,7.06,0,13.71,1.09,26.85,6.65C70.06,14.38,75.18,20,80.13,25.49s9.48,10.47,21.42,15a47,47,0,0,0,17,3.44,69.83,69.83,0,0,0,8.79-.69,77.66,77.66,0,0,1,9.4-.71,51.63,51.63,0,0,1,18.75,3.76c12.84,4.88,18,10.74,23.07,16.42,4.84,5.46,9.41,10.62,21.1,15.06a46.92,46.92,0,0,0,17,3.44,71.92,71.92,0,0,0,8.8-.69,77.49,77.49,0,0,1,9.39-.71,51.64,51.64,0,0,1,18.76,3.76c12.83,4.88,18,10.74,23.06,16.42,4.84,5.46,9.41,10.61,21.1,15a46.76,46.76,0,0,0,17,3.44,72.09,72.09,0,0,0,8.8-.68,77.26,77.26,0,0,1,9.39-.72,51.65,51.65,0,0,1,18.75,3.77c12.84,4.88,18,10.74,23.07,16.41,4.84,5.46,9.41,10.62,21.1,15.06a46.71,46.71,0,0,0,17,3.44,71.93,71.93,0,0,0,8.8-.68,77.41,77.41,0,0,1,9.39-.72,51.66,51.66,0,0,1,18.76,3.77c12.83,4.87,18,10.74,23.06,16.41,4.84,5.46,9.42,10.62,21.1,15.06a46.8,46.8,0,0,0,17,3.44,72.09,72.09,0,0,0,8.8-.68,75.3,75.3,0,0,1,9.39-.72,51.63,51.63,0,0,1,18.75,3.76c12.84,4.88,18,10.75,23.06,16.42,4.84,5.46,9.42,10.62,21.1,15.06a47,47,0,0,0,17,3.44,72.07,72.07,0,0,0,8.8-.69,77.26,77.26,0,0,1,9.39-.72,51.65,51.65,0,0,1,18.75,3.77,2.5,2.5,0,0,1-.89,4.83Z"></path><path d="M30.85,5C38,5,44.4,6.24,56.73,11.45c24.16,10.23,19.41,22.06,43.93,31.38a48.69,48.69,0,0,0,17.87,3.61c6.47,0,11.71-1.4,18.19-1.4a48.6,48.6,0,0,1,17.86,3.6C179.1,58,174.23,70.79,198.75,80.11a48.6,48.6,0,0,0,17.86,3.61c6.48,0,11.72-1.41,18.19-1.41a48.69,48.69,0,0,1,17.87,3.61c24.52,9.32,19.64,22.15,44.16,31.47A48.85,48.85,0,0,0,314.7,121c6.48,0,11.71-1.4,18.19-1.4a48.77,48.77,0,0,1,17.86,3.6c24.53,9.32,19.65,22.16,44.17,31.48a48.77,48.77,0,0,0,17.86,3.6c6.48,0,11.72-1.4,18.19-1.4a48.81,48.81,0,0,1,17.87,3.6c24.52,9.32,19.64,22.16,44.16,31.48a48.85,48.85,0,0,0,17.87,3.6c6.47,0,11.71-1.4,18.19-1.4a48.77,48.77,0,0,1,17.86,3.6c24.52,9.32,19.64,22.15,44.16,31.47A48.69,48.69,0,0,0,609,232.83c6.48,0,11.71-1.41,18.19-1.41A48.6,48.6,0,0,1,645,235H5V6H5C17.43,6,24.43,5,30.85,5m0-5c-2.84,0-5.7.18-9,.39C17.26.67,12.08,1,5,1A5,5,0,0,0,0,6V235a5,5,0,0,0,5,5H645a5,5,0,0,0,1.78-9.68,54.05,54.05,0,0,0-19.64-3.93,79,79,0,0,0-9.69.74,70.26,70.26,0,0,1-8.5.67,44.54,44.54,0,0,1-16.09-3.28c-11.11-4.22-15.28-8.93-20.12-14.38-5-5.62-10.63-12-24-17.09a54.05,54.05,0,0,0-19.64-3.93,79.19,79.19,0,0,0-9.69.73,68.29,68.29,0,0,1-8.5.67,44.33,44.33,0,0,1-16.09-3.28c-11.11-4.22-15.28-8.93-20.12-14.38-5-5.62-10.63-12-24-17.09A54.14,54.14,0,0,0,431,151.87a77,77,0,0,0-9.68.74,70.42,70.42,0,0,1-8.51.66A44.56,44.56,0,0,1,396.69,150c-11.11-4.23-15.28-8.93-20.11-14.39-5-5.62-10.64-12-24.05-17.09a54.05,54.05,0,0,0-19.64-3.93,79,79,0,0,0-9.69.74,70.26,70.26,0,0,1-8.5.66,44.51,44.51,0,0,1-16.09-3.27c-11.11-4.23-15.29-8.93-20.12-14.38-5-5.63-10.64-12-24.05-17.1a54.05,54.05,0,0,0-19.64-3.93,79.26,79.26,0,0,0-9.69.74,70.26,70.26,0,0,1-8.5.67,44.58,44.58,0,0,1-16.09-3.28c-11.11-4.22-15.28-8.93-20.11-14.38-5-5.63-10.64-12-24-17.1A54,54,0,0,0,136.72,40a79,79,0,0,0-9.69.73,70.26,70.26,0,0,1-8.5.67,44.33,44.33,0,0,1-16.09-3.28c-11.38-4.32-15.59-9-20.46-14.34s-10.44-11.53-23.3-17C46.73,1.79,39.45,0,30.85,0Z"></path></g></g></svg>