<svg xmlns="http://www.w3.org/2000/svg" viewBox="0 0 58.33 74.46"><defs><style>.cls-1{fill:#ffdb43;}</style></defs><g id="Layer_2" data-name="Layer 2"><g id="Layer_1-2" data-name="Layer 1"><g id="jdLgtp"><path d="M47.73,69.23c0,1.18,0,2.28,0,3.39s-.49,1.85-1.79,1.84H12.4c-1.2,0-1.73-.55-1.71-1.73s0-2.23,0-3.62c-2.51.46-2.7-1-2.86-2.81-1.47-17.56-3-35.12-4.55-52.69-.09-1.06-.24-2.12-.28-3.18,0-1.5-.23-2.77-1.75-3.74s-1.48-2.5-1-4A3.76,3.76,0,0,1,3.52,0,7.29,7.29,0,0,1,4.76,0h49c2.94,0,4.81,1.5,4.56,3.94-.11,1.1-1,2.12-1.58,3.17-.37.67-1.08,1.29-1.15,2C54.41,22,53.31,34.91,52.19,47.82c-.56,6.48-1.17,13-1.67,19.44C50.39,69,49.29,69.18,47.73,69.23ZM52.2,18.61H6.36c0,.55,0,1,0,1.36,1,11.49,2,23,2.92,34.49C9.39,55.79,10,56,11.1,56q18.11,0,36.22,0c1.24,0,1.74-.31,1.84-1.66.47-6.25,1.07-12.5,1.61-18.74C51.25,30,51.71,24.38,52.2,18.61ZM6,15.9H52.47c.22-2.67.43-5.27.64-7.95H5.3ZM9.69,58.59c.19,2.15.49,4.14.52,6.13,0,1.54.57,2,2.09,2,11.3-.06,22.59,0,33.89,0,.57,0,1.15,0,1.85-.08l.7-8ZM29.15,5.34H54c1,0,2-.26,1.82-1.36-.1-.58-1.12-1-1.77-1.47-.21-.14-.58,0-.87,0H5.43a4.64,4.64,0,0,0-1.91.2A1.77,1.77,0,0,0,2.62,4a1.88,1.88,0,0,0,1,1.24,3.48,3.48,0,0,0,1.56.11ZM13.3,69.21V71.8H45.13V69.21Z"></path><path class="cls-1" d="M52.2,18.61c-.49,5.77-1,11.36-1.43,17-.54,6.24-1.14,12.49-1.61,18.74-.1,1.35-.6,1.67-1.84,1.66q-18.12,0-36.22,0c-1.08,0-1.71-.17-1.82-1.5C8.35,43,7.34,31.46,6.36,20c0-.4,0-.81,0-1.36ZM39.79,37.91a15.94,15.94,0,0,0-2.92-9.83C33,22.9,26.32,22.64,22.05,27.49c-4.83,5.48-4.46,15.26.76,20.28a9,9,0,0,0,12.89-.1A14.25,14.25,0,0,0,39.79,37.91Z"></path><path class="cls-1" d="M6,15.9,5.3,8H53.11c-.21,2.68-.42,5.28-.64,8Z"></path><path class="cls-1" d="M9.69,58.59H48.74l-.7,8c-.7,0-1.28.08-1.85.08-11.3,0-22.59,0-33.89,0-1.52,0-2.07-.42-2.09-2C10.18,62.73,9.88,60.74,9.69,58.59Z"></path><path class="cls-1" d="M29.15,5.34h-24a3.48,3.48,0,0,1-1.56-.11A1.88,1.88,0,0,1,2.62,4a1.77,1.77,0,0,1,.9-1.3,4.64,4.64,0,0,1,1.91-.2H53.16c.29,0,.66-.11.87,0,.65.43,1.67.89,1.77,1.47C56,5.08,55,5.35,54,5.34H29.15Z"></path><path class="cls-1" d="M13.3,69.21H45.13V71.8H13.3Z"></path><path d="M39.79,37.91a14.25,14.25,0,0,1-4.09,9.76,9,9,0,0,1-12.89.1c-5.22-5-5.59-14.8-.76-20.28,4.27-4.85,10.9-4.59,14.82.59A15.94,15.94,0,0,1,39.79,37.91Zm-18.63-1a12.52,12.52,0,0,0,2.62,8.23c3,3.69,7.59,3.78,10.7.23,3.83-4.36,3.72-12.25-.22-16.49a6.51,6.51,0,0,0-10-.08A11.73,11.73,0,0,0,21.16,36.9Z"></path><path class="cls-1" d="M21.16,36.9a11.73,11.73,0,0,1,3.11-8.11,6.51,6.51,0,0,1,10,.08c3.94,4.24,4.05,12.13.22,16.49-3.11,3.55-7.73,3.46-10.7-.23A12.52,12.52,0,0,1,21.16,36.9Zm9.37-6.27c-.32-.38-.74-1.15-1-1.1a2.23,2.23,0,0,0-1.56,1,9.24,9.24,0,0,0,.63,7.55,4.46,4.46,0,0,1-.13,4.86c-.29.45.07,1.3.13,2,.64-.23,1.53-.27,1.9-.73a5.49,5.49,0,0,0,.94-5.68C30.45,36,29.28,33.59,30.53,30.63Z"></path><path d="M30.53,30.63c-1.25,3-.08,5.37.91,7.87a5.49,5.49,0,0,1-.94,5.68c-.37.46-1.26.5-1.9.73-.06-.67-.42-1.52-.13-2a4.46,4.46,0,0,0,.13-4.86A9.24,9.24,0,0,1,28,30.53a2.23,2.23,0,0,1,1.56-1C29.79,29.48,30.21,30.25,30.53,30.63Z"></path></g></g></g></svg>