<svg xmlns="http://www.w3.org/2000/svg" viewBox="0 0 71.73 70.47"><defs><style>.cls-1{fill:#fff;}</style></defs><g id="Layer_2" data-name="Layer 2"><g id="Layer_1-2" data-name="Layer 1"><g id="oKkIhs"><path d="M0,27.07A2,2,0,0,1,2,26q30.93,0,61.86,0h.63a1.39,1.39,0,0,1,1.42,1.56c-.12,1.84-.28,3.67-.52,5.49A.89.89,0,0,0,66,34.21,9.29,9.29,0,0,1,71.6,41.5a9.83,9.83,0,0,1-14.95,9.82.83.83,0,0,0-1.22.11,32.25,32.25,0,0,1-20.07,8.83A32.92,32.92,0,0,1,1.48,37.18,30.86,30.86,0,0,1,.13,30.05a4.29,4.29,0,0,0-.13-.6Zm2.85,1.86C3.71,39.62,8.43,48,17.66,53.35c10.68,6.19,21.58,5.88,31.93-.87C58,47,62.25,39,63,28.93ZM58,48.81c1.77,1.47,5,1.56,7.24.24a7,7,0,0,0,3.42-7.11c-.43-2.46-2.33-4.84-4.14-5.17A33.6,33.6,0,0,1,58,48.81Z"></path><path d="M33,62.88c10.28,0,20.57,0,30.85,0,1.86,0,2.28,1.07,1.88,2.52a5.61,5.61,0,0,1-3.59,3.56,19.73,19.73,0,0,1-8,1.5q-21.32.06-42.61,0a16.77,16.77,0,0,1-8.12-1.71,5.9,5.9,0,0,1-3.12-3.6c-.42-1.48.17-2.26,1.7-2.26ZM4.19,65.67l-.07.19c.46.23.91.51,1.4.71a14.45,14.45,0,0,0,5.4,1c8.51,0,17,0,25.54,0,5.76,0,11.52,0,17.29,0a18.42,18.42,0,0,0,7.37-1.34,7.24,7.24,0,0,0,.71-.41l-.07-.13Z"></path><path d="M34,0a1.39,1.39,0,0,1,1.49.91,1.17,1.17,0,0,1-.4,1.56c-2.5,1.28-2.39,4.17-1.4,6.33a11.73,11.73,0,0,1,1.32,4,6.39,6.39,0,0,1-2.47,5.51,1.33,1.33,0,0,1-1.68-.08,1.36,1.36,0,0,1-.31-1.72,1.31,1.31,0,0,1,.26-.32c1.74-1.54,1.81-3.33.86-5.32a11.38,11.38,0,0,1-1.37-5A6.34,6.34,0,0,1,33.22.38,4.08,4.08,0,0,1,34,0Z"></path><path d="M24.37,12.8c-.16-.46-.43-1.36-.79-2.23a11,11,0,0,1-1.17-5.26,6.21,6.21,0,0,1,3.06-5,1.37,1.37,0,0,1,2.16.82,1.21,1.21,0,0,1-.57,1.5,3.92,3.92,0,0,0-1.74,4.78,33.14,33.14,0,0,0,1.23,3.18,6.38,6.38,0,0,1-1.61,7.53,1.39,1.39,0,0,1-2,.2,1.42,1.42,0,0,1,0-2.11A4.28,4.28,0,0,0,24.37,12.8Z"></path><path d="M41.92,0c.9,0,1.34.3,1.55.88a1.33,1.33,0,0,1-.36,1.59c-2.32,2-2.67,3.56-1.4,6.37a12.22,12.22,0,0,1,1.29,4,6.49,6.49,0,0,1-2.44,5.54,1.22,1.22,0,0,1-1.5.06A1.2,1.2,0,0,1,38.44,17a2.61,2.61,0,0,1,.61-1,3.75,3.75,0,0,0,.89-4.36c-.46-1.18-1-2.36-1.35-3.58A6.72,6.72,0,0,1,40.86.59,6.85,6.85,0,0,1,41.92,0Z"></path><path class="cls-1" d="M2.85,28.93H63C62.25,39,58,47,49.59,52.48c-10.35,6.75-21.25,7.06-31.93.87C8.43,48,3.71,39.62,2.85,28.93Z"></path><path class="cls-1" d="M58,48.81a33.6,33.6,0,0,0,6.52-12c1.81.33,3.71,2.71,4.14,5.17a7,7,0,0,1-3.42,7.11C63,50.37,59.81,50.28,58,48.81Z"></path><path class="cls-1" d="M4.19,65.67H61.76l.07.13a7.24,7.24,0,0,1-.71.41,18.42,18.42,0,0,1-7.37,1.34c-5.77,0-11.53,0-17.29,0-8.51,0-17,0-25.54,0a14.45,14.45,0,0,1-5.4-1c-.49-.2-.94-.48-1.4-.71Z"></path></g></g></g></svg>