<?xml version="1.0" encoding="UTF-8"?>
<!-- Generated by Pixelmator Pro 3.5.3 -->
<svg width="180" height="180" viewBox="0 0 180 180" xmlns="http://www.w3.org/2000/svg">
    <path id="Path" fill="none" stroke="#000000" stroke-width="4" stroke-linecap="round" stroke-linejoin="round" d="M 114.227638 84.527306 L 95.481979 82.384041 L 109.073364 48.384674 C 109.415436 47.561554 109.157433 46.611267 108.446068 46.074127 C 107.730705 45.59581 106.770973 45.725861 106.208725 46.377335 L 64.263611 92.368492 C 63.783073 92.897324 63.616264 93.640015 63.824505 94.323555 C 63.992432 94.990227 64.553444 95.484741 65.235916 95.567688 L 85.915733 98.150055 L 72.983002 132.222626 C 72.651314 133.052002 72.927299 134.000671 73.652122 134.522705 C 74.393196 134.98941 75.366898 134.822632 75.910378 134.135864 L 115.273125 87.674225 C 115.717102 87.130325 115.85849 86.399895 115.649506 85.729607 C 115.444458 85.089912 114.892517 84.623199 114.227638 84.527306 Z"/>
</svg>
