<svg xmlns="http://www.w3.org/2000/svg" viewBox="0 0 64.95 64.95"><defs><style>.cls-1{fill:#9ef2ea;stroke-miterlimit:10;}.cls-1,.cls-2{stroke:#000;stroke-width:3px;}.cls-2{fill:#fff;stroke-linecap:round;stroke-linejoin:round;}</style></defs><g id="Layer_2" data-name="Layer 2"><g id="Layer_1-2" data-name="Layer 1"><rect class="cls-1" x="1.5" y="1.5" width="61.95" height="61.95" rx="10.62"></rect><path class="cls-2" d="M43,28.39l-8.09-.92L40.81,12.8a.84.84,0,0,0-.27-1,.73.73,0,0,0-1,.13L21.49,31.77a.88.88,0,0,0-.19.85.7.7,0,0,0,.61.53l8.92,1.12L25.24,49a.84.84,0,0,0,.29,1,.73.73,0,0,0,1-.16l17-20a.89.89,0,0,0,.17-.84A.76.76,0,0,0,43,28.39Z"></path></g></g></svg>