<svg xmlns="http://www.w3.org/2000/svg" viewBox="0 0 75.35 75.35"><defs><style>.cls-1{fill:#9ef2ea;stroke-miterlimit:10;}.cls-1,.cls-2{stroke:#000;stroke-width:3px;}.cls-2{fill:#fff;stroke-linecap:round;stroke-linejoin:round;}</style></defs><g id="Layer_2" data-name="Layer 2"><g id="Layer_1-2" data-name="Layer 1"><circle class="cls-1" cx="37.68" cy="37.68" r="36.18"></circle><path class="cls-2" d="M48.23,33.8l-8.08-.92L46,18.21a.84.84,0,0,0-.27-1,.73.73,0,0,0-1,.13L26.69,37.18a.88.88,0,0,0-.19.85.73.73,0,0,0,.61.53L36,39.68,30.45,54.37a.83.83,0,0,0,.29,1,.62.62,0,0,0,.22.1.77.77,0,0,0,.75-.26l17-20a.89.89,0,0,0,.17-.84A.76.76,0,0,0,48.23,33.8Z"></path></g></g></svg>