<svg xmlns="http://www.w3.org/2000/svg" viewBox="0 0 64.73 88.05"><defs><style>.cls-1{fill:#fff;}</style></defs><g id="Layer_2" data-name="Layer 2"><g id="Layer_1-2" data-name="Layer 1"><g id="_40cLIc" data-name="40cLIc"><path d="M34.19,64.7V84.47h1.86c2.91,0,5.82,0,8.72,0a1.79,1.79,0,1,1,0,3.56c-3,0-5.94,0-8.92,0H20.06c-1.32,0-2.17-.85-2-2a1.82,1.82,0,0,1,2-1.59h10.5V64.69c-10.78-1-19.36-5.76-25.34-14.82A31.12,31.12,0,0,1,.42,27.34,32.35,32.35,0,1,1,34.19,64.7Zm-1.73-3.63c15,.39,28.29-12.43,28.67-27.64A28.79,28.79,0,1,0,3.59,31.32C3.08,47.74,16.36,61.33,32.46,61.07Z"></path><path class="cls-1" d="M32.46,61.07c-16.1.26-29.38-13.33-28.87-29.75a28.79,28.79,0,1,1,57.54,2.11C60.75,48.64,47.45,61.46,32.46,61.07ZM26.75,26.74l-.88-.64C23.31,24,20.77,22,18.2,19.91c-3.32-2.63-7.4-1.9-9.3,1.88C6,27.52,6.51,33.25,9.66,38.72a8.14,8.14,0,0,0,5.9,4c2.18.37,4.08-.47,6-1.32,1.41-.63,2.79-1.35,4.44-2.15-2,2.59-3.83,5-5.63,7.33a6.18,6.18,0,0,0,2,9.61,13.57,13.57,0,0,0,7,1.55,18.23,18.23,0,0,0,9.74-2.72c4.49-2.83,5.3-7.33,3.1-11.14-.44-.75-.77-1.56-1.15-2.34l.15-.1,5.53,4.26a5.81,5.81,0,0,0,8.82-1.45,14.67,14.67,0,0,0,2.08-8.81,15.5,15.5,0,0,0-3.41-9.85,8.1,8.1,0,0,0-10.06-2c-1,.53-2,1-3.07,1.56l-1.78.94a1.85,1.85,0,0,1,.42-.84c1.92-2.43,3.83-4.87,5.76-7.29a6.23,6.23,0,0,0,1.46-3.68c.11-3-1.7-5.53-5-6.57A17.49,17.49,0,0,0,26,10.08c-3.85,2.66-4.62,6.68-2.38,10.79C24.66,22.74,25.64,24.63,26.75,26.74Z"></path><path d="M26.75,26.74c-1.11-2.11-2.09-4-3.1-5.87-2.24-4.11-1.47-8.13,2.38-10.79A17.49,17.49,0,0,1,41.92,7.77c3.32,1,5.13,3.59,5,6.57A6.23,6.23,0,0,1,45.48,18c-1.93,2.42-3.84,4.86-5.76,7.29a1.85,1.85,0,0,0-.42.84l1.78-.94c1-.52,2.05-1,3.07-1.56a8.1,8.1,0,0,1,10.06,2,15.5,15.5,0,0,1,3.41,9.85,14.67,14.67,0,0,1-2.08,8.81,5.81,5.81,0,0,1-8.82,1.45l-5.53-4.26-.15.1c.38.78.71,1.59,1.15,2.34,2.2,3.81,1.39,8.31-3.1,11.14a18.23,18.23,0,0,1-9.74,2.72,13.57,13.57,0,0,1-7-1.55,6.18,6.18,0,0,1-2-9.61c1.8-2.38,3.64-4.74,5.63-7.33-1.65.8-3,1.52-4.44,2.15-1.9.85-3.8,1.69-6,1.32a8.14,8.14,0,0,1-5.9-4C6.51,33.25,6,27.52,8.9,21.79c1.9-3.78,6-4.51,9.3-1.88,2.57,2,5.11,4.13,7.67,6.19ZM29,54.5c3.24-.33,6.28-.93,8.86-3a4.35,4.35,0,0,0,1.22-5.88c-1-2-2-4-3.11-5.93a25.42,25.42,0,0,0-1.69-2.66A.88.88,0,0,0,32.74,37c-.53.6-1.15,1.12-1.65,1.74-2.6,3.26-5.18,6.55-7.77,9.83-1.54,2-1.18,3.8,1.13,4.75A31.73,31.73,0,0,0,29,54.5Zm7.7-44.36-.08.23c-.82.07-1.66.11-2.47.24a12.24,12.24,0,0,0-6.61,2.79,4.22,4.22,0,0,0-.95,5.46c.49,1,.95,1.95,1.47,2.9,1,1.87,2.07,3.74,3.18,5.56.59,1,1.08,1,1.9.22a11.89,11.89,0,0,0,1.24-1.32q4.06-5.09,8.1-10.19c1.43-1.82,1.16-3.56-1-4.52A32.46,32.46,0,0,0,36.73,10.14Zm17.32,26c0-.48,0-1,0-1.43A11.47,11.47,0,0,0,51.52,28,4.56,4.56,0,0,0,46,26.66c-2.54,1.33-5.08,2.66-7.59,4.05s-2.52,1.77-.34,3.58c3.56,2.94,7.19,5.8,10.84,8.64,1.52,1.19,3,.79,3.92-1A11.14,11.14,0,0,0,54.05,36.18Zm-43.41-7a13.66,13.66,0,0,0,2,7.69c1.25,1.88,3.46,2.86,5.25,2.21a43.87,43.87,0,0,0,9.55-5c1.05-.71,1.05-1,.21-1.92a7.68,7.68,0,0,0-.85-.76c-3.52-2.84-7.06-5.67-10.57-8.52-1.89-1.54-3.32-1.29-4.46.87A11.8,11.8,0,0,0,10.64,29.2Zm21.57,1.53a2.53,2.53,0,0,0-1.78,1.89c0,.65,1.3,1.69,2.09,1.68.54,0,1.59-1.28,1.54-1.87A2.47,2.47,0,0,0,32.21,30.73Z"></path><path class="cls-1" d="M29,54.5a31.73,31.73,0,0,1-4.58-1.19c-2.31-1-2.67-2.79-1.13-4.75,2.59-3.28,5.17-6.57,7.77-9.83.5-.62,1.12-1.14,1.65-1.74a.88.88,0,0,1,1.57.08A25.42,25.42,0,0,1,36,39.73c1.07,2,2.08,4,3.11,5.93a4.35,4.35,0,0,1-1.22,5.88C35.31,53.57,32.27,54.17,29,54.5Z"></path><path class="cls-1" d="M36.73,10.14a32.46,32.46,0,0,1,4.82,1.37c2.12,1,2.39,2.7,1,4.52q-4,5.1-8.1,10.19a11.89,11.89,0,0,1-1.24,1.32c-.82.78-1.31.76-1.9-.22-1.11-1.82-2.14-3.69-3.18-5.56-.52-1-1-1.94-1.47-2.9a4.22,4.22,0,0,1,.95-5.46,12.24,12.24,0,0,1,6.61-2.79c.81-.13,1.65-.17,2.47-.24Z"></path><path class="cls-1" d="M54.05,36.18a11.14,11.14,0,0,1-1.22,5.73c-.95,1.81-2.4,2.21-3.92,1-3.65-2.84-7.28-5.7-10.84-8.64-2.18-1.81-2.11-2.23.34-3.58S43.46,28,46,26.66A4.56,4.56,0,0,1,51.52,28,11.47,11.47,0,0,1,54,34.75C54.08,35.22,54.05,35.7,54.05,36.18Z"></path><path class="cls-1" d="M10.64,29.2a11.8,11.8,0,0,1,1.17-5.42c1.14-2.16,2.57-2.41,4.46-.87,3.51,2.85,7.05,5.68,10.57,8.52a7.68,7.68,0,0,1,.85.76c.84.89.84,1.21-.21,1.92a43.87,43.87,0,0,1-9.55,5c-1.79.65-4-.33-5.25-2.21A13.66,13.66,0,0,1,10.64,29.2Z"></path><path class="cls-1" d="M32.21,30.73a2.47,2.47,0,0,1,1.85,1.7c0,.59-1,1.86-1.54,1.87-.79,0-2.09-1-2.09-1.68A2.53,2.53,0,0,1,32.21,30.73Z"></path></g></g></g></svg>