<svg xmlns="http://www.w3.org/2000/svg" viewBox="0 0 63.96 66.73"><defs><style>.cls-1{fill:#ffdb43;}</style></defs><g id="Layer_2" data-name="Layer 2"><g id="Layer_1-2" data-name="Layer 1"><g id="Pe7qpr"><path d="M17.22,0c.7.51,1.43,1,2.08,1.55A1.83,1.83,0,0,0,20.66,2a38.2,38.2,0,0,1,4.15.13c1.57.17,1.78.52,1.74,2.08,0,.93.2,1.17,1.14,1.15S28.69,6,29,6.47c.91-.35,1.78-.69,2.67-1a1.17,1.17,0,0,1,1.48.61,7.63,7.63,0,0,1,.77,1.28c.29.79.9,1,1.62,1.3a37.19,37.19,0,0,1,4,1.84c.79.42.84.77.58,1.64a5.32,5.32,0,0,1-.29.79.69.69,0,0,0,.09.88,1,1,0,0,1,.18.6,3.09,3.09,0,0,1,0,.67c.8-.16,1.54-.36,2.3-.46,1.27-.15,1.5,0,2,1.18a1,1,0,0,1,.08.25c.19,1.54,1.22,2.32,2.48,3a19.54,19.54,0,0,1,2.72,2.1,1.09,1.09,0,0,1,.22,1.57,5.82,5.82,0,0,1-.45.72,1,1,0,0,0-.2,1.15,1.35,1.35,0,0,1-.26,1,4.26,4.26,0,0,1-.88.74l.16.2,2.94-1.74a2,2,0,0,1,.68-.38c.37-.07.88-.19,1.13,0s.36.71.49,1.1c.05.13,0,.29,0,.54.71,0,1.38,0,2,0,1.44.11,1.84.48,1.83,1.9a4.46,4.46,0,0,0,1.45,3.61,13.3,13.3,0,0,1,2.08,2.81c.48.76.37,1.08-.27,1.72a7.17,7.17,0,0,1-.58.52.88.88,0,0,0-.42.91c0,.32-.3.77-.6,1a8.8,8.8,0,0,1-1.4.81s0,0,0,.15c.73-.07,1.45-.11,2.17-.21.54-.07,1-.14,1.42.36s.17,1-.13,1.51a1.23,1.23,0,0,0-.09.24c.78.45,1.55.85,2.25,1.34s.78.86.5,1.69a3,3,0,0,1-.23.61,3.75,3.75,0,0,0-.15,3.66,15.73,15.73,0,0,1,.69,3.5c.11.9-.13,1.14-1,1.44a5.92,5.92,0,0,1-.75.22.77.77,0,0,0-.74.65c-.13.53-.61.68-1.12.71A45.19,45.19,0,0,1,51.57,55c-.15,0-.3,0-.51,0,.07,1,.16,2,.2,2.92.05,1.24-.42,1.61-1.63,1.32-2.62-.63-5.21-1.37-7.85-1.85-4.06-.73-8.15-1.27-12.23-1.9l-3-.45-.19.21a3.67,3.67,0,0,1,.57.36,17.08,17.08,0,0,1,3.51,4.34A4.43,4.43,0,0,1,31,63.2c-.19.72-.64,1.08-1.23,1s-.83-.65-.74-1.42a3.42,3.42,0,0,0-.16-1.59,11.06,11.06,0,0,0-2.79-3.66c.1.65.18,1.14.26,1.64a9.38,9.38,0,0,1-1.13,6.09c-.39.7-.95.92-1.49.61s-.67-.88-.28-1.58c1.85-3.28,1-6.31-.85-9.34l-.6.57c-3.33,3.31-6.7,6.59-10,9.94a4,4,0,0,1-4.83.88,13.42,13.42,0,0,1-5.93-5.13A6.56,6.56,0,0,1,0,57.74a3.55,3.55,0,0,1,1.13-2.8c3.59-3.54,7.15-7.11,10.74-10.65a1.1,1.1,0,0,0,.39-1.08C11.13,37.1,10.08,31,8.88,24.9c-.55-2.76-1.4-5.47-2.11-8.19C6.42,15.39,6.66,15,8,14.87c.56-.06,1.12-.11,1.68-.12.37,0,.45-.16.5-.51Q11,8.31,11.92,2.4a1,1,0,0,1,1.74-.61,2.84,2.84,0,0,1,.39.41L16.7,0ZM8.9,16.85c.53,2,1,3.94,1.6,5.88a1.94,1.94,0,0,0,.73,1A100.2,100.2,0,0,1,24.47,33.84,110.6,110.6,0,0,1,42.65,55a1.51,1.51,0,0,0,.8.58c1.59.42,3.19.8,4.8,1.19.28.07.57.1,1,.17-.14-1.07-.25-2-.41-3a11.73,11.73,0,0,0-1.52-4.33,8.09,8.09,0,0,0-4.66-3.44c-1.11-.35-1.29-.66-1-1.77.07-.29.15-.59.21-.89A9.74,9.74,0,0,0,42,39.38,6,6,0,0,0,37.86,35a31.52,31.52,0,0,0-3.76-1c-.81-.21-1-.48-1.08-1.29A32.86,32.86,0,0,0,32.23,28,5.66,5.66,0,0,0,27,23.69a15.51,15.51,0,0,0-5.08.51c-1.27.27-1.52.18-1.94-1C18.23,18.05,14.13,16.36,8.9,16.85Zm2.35,9.34c0,.25,0,.32,0,.38,1,5.49,2,11,3,16.46a2,2,0,0,0,.58,1q4,4,8,8a1.72,1.72,0,0,0,.89.45q7.84,1.24,15.7,2.45c.18,0,.36,0,.65,0A105.74,105.74,0,0,0,11.25,26.19Zm40,1.08a1.29,1.29,0,0,0-.29.05c-2.61,1.66-5.26,3.29-7.82,5a7.08,7.08,0,0,0-1.5,1.93.62.62,0,0,0,.07.6,7.86,7.86,0,0,1,2.52,6.06.52.52,0,0,0,.5.6,3.16,3.16,0,0,0,3.25-1,8.13,8.13,0,0,0,1.49-2.91c.59-2.28,1-4.6,1.44-6.92C51.08,29.59,51.11,28.44,51.22,27.27ZM30.38,22.54a2.21,2.21,0,0,0,.85-1.92,21.22,21.22,0,0,0-1.34-6.2c-.67-2-1.44-3.89-2.17-5.83l-.23,0c-.51,1-1.1,1.9-1.53,2.9-1,2.43-1.9,4.94-3,7.33a3.24,3.24,0,0,0-.16,2.58.51.51,0,0,0,.67.42A10.63,10.63,0,0,1,30.38,22.54ZM13.78,4.64l-.33.1c-.42,3.05-.84,6.1-1.24,9.15-.11.86-.05.87.82,1a10.5,10.5,0,0,1,6.71,3.62,2.33,2.33,0,0,1,.29.64l.32-.24c0-.22.07-.45.13-.68.24-.89.45-1.8.77-2.66a1.3,1.3,0,0,0,0-1.23,40.69,40.69,0,0,0-2.33-3.67C17.27,8.61,15.5,6.65,13.78,4.64ZM50.57,52c3.44-2.9,5.58-6.65,7.82-10.37-.14,0-.18-.07-.22-.06-3.11.41-6.24.76-9.34,1.26a5.47,5.47,0,0,0-3.32,2.22C48.91,48,48.91,48,50.57,52ZM38.43,17.36l-6,6.57c.52.92,1.06,1.76,1.49,2.65a15.47,15.47,0,0,1,1.16,5c0,.18.14.45.28.5a2.52,2.52,0,0,0,2.19-.12,3.45,3.45,0,0,0,1.75-2.46,11.35,11.35,0,0,0,.24-2.32c-.12-2.22-.3-4.45-.53-6.67C38.88,19.45,38.62,18.42,38.43,17.36ZM10.27,48.63c-1.08,1.11-2,2.11-3,3.08a.64.64,0,0,0-.12.89c1.53,3.12,3,6.24,4.54,9.37.09.18.2.36.38.66,1-1,1.88-2,2.84-2.89a.87.87,0,0,0,.22-1.21c-1.37-2.75-2.7-5.53-4-8.3C10.83,49.74,10.59,49.26,10.27,48.63Zm3-3.07a10.66,10.66,0,0,1-1,1.11.73.73,0,0,0-.18,1c1.5,3.05,3,6.12,4.46,9.17.11.23.24.45.36.66L21,53.41Zm-8,8c-1,1-1.8,1.94-2.7,2.78a1.65,1.65,0,0,0-.47,2,11.4,11.4,0,0,0,5.36,5.82,4.86,4.86,0,0,0,1.78.55c.86.1,1.21-.47.84-1.23C9.06,61.34,8,59.18,7,57,6.43,55.92,5.9,54.83,5.29,53.55Zm51.33-15.9v-.24l-4.19-2.64L50.87,40Zm2.14,15.78.14-.25L56.22,49l-3.57,4.11ZM41.53,29.22l4.84-3.82-.06-.25-4.78-1.4ZM20.13,8.73l2.63,3.88A12.14,12.14,0,0,0,25,7.3ZM54.89,33.81c.15-1.53.35-3,.42-4.39s-.25-1.65-1.67-1.33a.74.74,0,0,0-.42.5C53,29.8,52.9,31,52.77,32.25a.65.65,0,0,0,.21.51C53.54,33.11,54.14,33.41,54.89,33.81ZM57.4,47.24l1.4,1.89a18.61,18.61,0,0,0,2.81-5c-.47-.21-.91-.39-1.33-.6a.49.49,0,0,0-.74.25C58.85,44.91,58.13,46.05,57.4,47.24ZM43.72,22.17c-.31-1.54-.54-2.92-.87-4.29s-.55-1.52-1.93-.85a.69.69,0,0,0-.33.57c.17,1.24.4,2.48.62,3.71a.52.52,0,0,0,.29.35C42.17,21.84,42.84,22,43.72,22.17ZM34,12.68c-.61-1.42-1.11-2.73-1.72-4s-.9-1.4-2.12-.45a.65.65,0,0,0-.18.56c.43,1.18.9,2.35,1.38,3.5a.69.69,0,0,0,.51.35C32.52,12.7,33.15,12.68,34,12.68Zm-13-6.45C20,5.09,19,4,18,3.06s-1.19-.93-2,.3c-.18.27-.24.46,0,.73.87.9,1.7,1.85,2.56,2.76A.62.62,0,0,0,19,7C19.63,6.8,20.24,6.55,21.07,6.23Zm12.18,13,3.85-4.15-4.87-.37ZM21.72,3.86l1,1.32a2.56,2.56,0,0,0,.2.26,1.43,1.43,0,0,0,1.49-.24c.34-.62.09-1.16-.59-1.23S22.55,3.9,21.72,3.86Zm13.77,6.85a7.47,7.47,0,0,0,.68,2,1.46,1.46,0,0,0,1.33.22c.59-.21.51-1.09-.06-1.37S36.26,11.05,35.49,10.71Zm10.06,9.83c0,.66.12,1.16.1,1.65,0,.77.59.73,1,.94s.55-.21.75-.42a4,4,0,0,0,.37-.55ZM57.27,32.93l-.19.06c-.08.39-.16.78-.23,1.18-.15.78,0,1.25.78,1.44.27.07.67-.25.95-.46.09-.06.07-.41,0-.54C58.15,34,57.7,33.49,57.27,32.93Zm4.09,16.25a11.89,11.89,0,0,1-1,1.31c-.61.56-.09.95.12,1.4s.66.19,1,.13a.65.65,0,0,0,.38-.51C61.74,50.79,61.56,50.08,61.36,49.18Z"></path><path class="cls-1" d="M8.9,16.85c5.23-.49,9.33,1.2,11.1,6.32.42,1.21.67,1.3,1.94,1A15.51,15.51,0,0,1,27,23.69,5.66,5.66,0,0,1,32.23,28,32.86,32.86,0,0,1,33,32.66c.1.81.27,1.08,1.08,1.29a31.52,31.52,0,0,1,3.76,1A6,6,0,0,1,42,39.38a9.74,9.74,0,0,1-.15,4.13c-.06.3-.14.6-.21.89-.28,1.11-.1,1.42,1,1.77a8.09,8.09,0,0,1,4.66,3.44,11.73,11.73,0,0,1,1.52,4.33c.16,1,.27,1.92.41,3-.4-.07-.69-.1-1-.17-1.61-.39-3.21-.77-4.8-1.19a1.51,1.51,0,0,1-.8-.58A110.6,110.6,0,0,0,24.47,33.84,100.2,100.2,0,0,0,11.23,23.71a1.94,1.94,0,0,1-.73-1C9.93,20.79,9.43,18.84,8.9,16.85Z"></path><path class="cls-1" d="M11.25,26.19A105.74,105.74,0,0,1,40.1,54.92c-.29,0-.47,0-.65,0q-7.85-1.22-15.7-2.45a1.72,1.72,0,0,1-.89-.45q-4-3.94-8-8a2,2,0,0,1-.58-1c-1-5.48-2-11-3-16.46C11.27,26.51,11.27,26.44,11.25,26.19Z"></path><path class="cls-1" d="M51.22,27.27c-.11,1.17-.14,2.32-.34,3.43-.42,2.32-.85,4.64-1.44,6.92A8.13,8.13,0,0,1,48,40.53a3.16,3.16,0,0,1-3.25,1,.52.52,0,0,1-.5-.6,7.86,7.86,0,0,0-2.52-6.06.62.62,0,0,1-.07-.6,7.08,7.08,0,0,1,1.5-1.93c2.56-1.74,5.21-3.37,7.82-5A1.29,1.29,0,0,1,51.22,27.27Z"></path><path class="cls-1" d="M30.38,22.54a10.63,10.63,0,0,0-6.93-.74.51.51,0,0,1-.67-.42,3.24,3.24,0,0,1,.16-2.58c1.12-2.39,2-4.9,3-7.33.43-1,1-1.94,1.53-2.9l.23,0c.73,1.94,1.5,3.87,2.17,5.83a21.22,21.22,0,0,1,1.34,6.2A2.21,2.21,0,0,1,30.38,22.54Z"></path><path class="cls-1" d="M13.78,4.64c1.72,2,3.49,4,5.13,6a40.69,40.69,0,0,1,2.33,3.67,1.3,1.3,0,0,1,0,1.23c-.32.86-.53,1.77-.77,2.66-.06.23-.09.46-.13.68l-.32.24a2.33,2.33,0,0,0-.29-.64A10.5,10.5,0,0,0,13,14.9c-.87-.14-.93-.15-.82-1,.4-3.05.82-6.1,1.24-9.15Z"></path><path class="cls-1" d="M50.57,52c-1.66-4-1.66-4-5.06-6.95a5.47,5.47,0,0,1,3.32-2.22c3.1-.5,6.23-.85,9.34-1.26,0,0,.08,0,.22.06C56.15,45.36,54,49.11,50.57,52Z"></path><path class="cls-1" d="M38.43,17.36c.19,1.06.45,2.09.56,3.13.23,2.22.41,4.45.53,6.67a11.35,11.35,0,0,1-.24,2.32,3.45,3.45,0,0,1-1.75,2.46,2.52,2.52,0,0,1-2.19.12c-.14-.05-.26-.32-.28-.5a15.47,15.47,0,0,0-1.16-5c-.43-.89-1-1.73-1.49-2.65Z"></path><path class="cls-1" d="M10.27,48.63c.32.63.56,1.11.79,1.6,1.34,2.77,2.67,5.55,4,8.3a.87.87,0,0,1-.22,1.21c-1,.91-1.86,1.88-2.84,2.89-.18-.3-.29-.48-.38-.66-1.51-3.13-3-6.25-4.54-9.37a.64.64,0,0,1,.12-.89C8.24,50.74,9.19,49.74,10.27,48.63Z"></path><path class="cls-1" d="M13.31,45.56,21,53.41,17,57.55c-.12-.21-.25-.43-.36-.66-1.49-3-3-6.12-4.46-9.17a.73.73,0,0,1,.18-1A10.66,10.66,0,0,0,13.31,45.56Z"></path><path class="cls-1" d="M5.29,53.55C5.9,54.83,6.43,55.92,7,57c1,2.17,2.1,4.33,3.14,6.5.37.76,0,1.33-.84,1.23a4.86,4.86,0,0,1-1.78-.55,11.4,11.4,0,0,1-5.36-5.82,1.65,1.65,0,0,1,.47-2C3.49,55.49,4.31,54.56,5.29,53.55Z"></path><path class="cls-1" d="M56.62,37.65,50.87,40l1.56-5.25,4.19,2.64Z"></path><path class="cls-1" d="M58.76,53.43l-6.11-.29L56.22,49l2.68,4.15Z"></path><path class="cls-1" d="M41.53,29.22V23.75l4.78,1.4.06.25Z"></path><path class="cls-1" d="M20.13,8.73,25,7.3a12.14,12.14,0,0,1-2.24,5.31Z"></path><path class="cls-1" d="M54.89,33.81c-.75-.4-1.35-.7-1.91-1.05a.65.65,0,0,1-.21-.51c.13-1.22.27-2.45.45-3.66a.74.74,0,0,1,.42-.5c1.42-.32,1.74-.1,1.67,1.33S55,32.28,54.89,33.81Z"></path><path class="cls-1" d="M57.4,47.24c.73-1.19,1.45-2.33,2.14-3.48a.49.49,0,0,1,.74-.25c.42.21.86.39,1.33.6a18.61,18.61,0,0,1-2.81,5Z"></path><path class="cls-1" d="M43.72,22.17c-.88-.19-1.55-.33-2.22-.51a.52.52,0,0,1-.29-.35c-.22-1.23-.45-2.47-.62-3.71a.69.69,0,0,1,.33-.57c1.38-.67,1.57-.6,1.93.85S43.41,20.63,43.72,22.17Z"></path><path class="cls-1" d="M34,12.68c-.88,0-1.51,0-2.13,0a.69.69,0,0,1-.51-.35c-.48-1.15-.95-2.32-1.38-3.5a.65.65,0,0,1,.18-.56c1.22-1,1.45-.92,2.12.45S33.42,11.26,34,12.68Z"></path><path class="cls-1" d="M21.07,6.23c-.83.32-1.44.57-2.07.78a.62.62,0,0,1-.49-.16C17.65,5.94,16.82,5,16,4.09c-.26-.27-.2-.46,0-.73.85-1.23,1-1.29,2-.3S20,5.09,21.07,6.23Z"></path><path class="cls-1" d="M33.25,19.2l-1-4.52,4.87.37Z"></path><path class="cls-1" d="M21.72,3.86c.83,0,1.48.05,2.12.11s.93.61.59,1.23a1.43,1.43,0,0,1-1.49.24,2.56,2.56,0,0,1-.2-.26Z"></path><path class="cls-1" d="M35.49,10.71c.77.34,1.37.59,1.95.86s.65,1.16.06,1.37a1.46,1.46,0,0,1-1.33-.22A7.47,7.47,0,0,1,35.49,10.71Z"></path><path class="cls-1" d="M45.55,20.54l2.24,1.62a4,4,0,0,1-.37.55c-.2.21-.3.64-.75.42s-1.07-.17-1-.94C45.67,21.7,45.59,21.2,45.55,20.54Z"></path><path class="cls-1" d="M57.27,32.93c.43.56.88,1.1,1.28,1.68.1.13.12.48,0,.54-.28.21-.68.53-.95.46-.73-.19-.93-.66-.78-1.44.07-.4.15-.79.23-1.18Z"></path><path class="cls-1" d="M61.36,49.18c.2.9.38,1.61.49,2.33a.65.65,0,0,1-.38.51c-.32.06-.73.36-1-.13s-.73-.84-.12-1.4A11.89,11.89,0,0,0,61.36,49.18Z"></path></g></g></g></svg>