<svg xmlns="http://www.w3.org/2000/svg" width="275" height="41" viewBox="0 0 275 41" fill="none"><g clip-path="url(#clip0)"><path d="M62.7161 41.0027C59.8702 41.0027 56.9823 40.9347 54.1337 40.7989C53.3012 40.7598 52.5184 40.392 51.9574 39.7764C51.3965 39.1609 51.1034 38.3478 51.1426 37.5164C51.1818 36.685 51.5501 35.9034 52.1665 35.3432C52.7829 34.783 53.5968 34.4902 54.4293 34.5294C57.1785 34.66 59.967 34.7253 62.7136 34.7253H62.7292C68.5153 34.7253 74.3564 34.4353 80.0981 33.8684C80.9195 33.7994 81.7352 34.0559 82.3689 34.5825C83.0026 35.109 83.4035 35.8632 83.4849 36.6825C83.5663 37.5017 83.3217 38.3202 82.804 38.9609C82.2863 39.6015 81.5369 40.013 80.7179 40.1065C74.7722 40.6943 68.7193 40.9948 62.7292 40.9948L62.7161 41.0027ZM28.3395 37.6746C28.1349 37.6751 27.9306 37.6548 27.73 37.6144C19.0152 35.9079 10.4409 33.5502 2.07962 30.5612C1.68699 30.4259 1.32523 30.2142 1.01517 29.9382C0.705114 29.6622 0.452926 29.3273 0.273353 28.9533C0.0937799 28.5792 -0.00967478 28.1734 -0.0310128 27.7591C-0.0523509 27.3448 0.00888335 26.9304 0.149078 26.5399C0.289272 26.1495 0.505591 25.7906 0.785653 25.4843C1.06572 25.178 1.40397 24.9303 1.78062 24.7555C2.15727 24.5806 2.56491 24.482 2.97995 24.4657C3.39499 24.4493 3.80915 24.5154 4.19843 24.6601C12.2634 27.5388 20.5333 29.8092 28.9385 31.452C29.7048 31.6006 30.3881 32.0291 30.8552 32.6536C31.3222 33.2781 31.5395 34.054 31.4647 34.8299C31.3898 35.6058 31.0282 36.3261 30.4504 36.8501C29.8726 37.3741 29.12 37.6643 28.3395 37.6641V37.6746ZM106.149 35.6422C105.382 35.643 104.642 35.3639 104.068 34.8575C103.494 34.3511 103.124 33.6525 103.03 32.8931C102.936 32.1338 103.123 31.366 103.556 30.7349C103.99 30.1038 104.639 29.6528 105.382 29.4668C108.759 28.6152 112.144 27.6382 115.442 26.5933C119.769 25.214 124.336 23.5708 129.829 21.4235C130.214 21.2676 130.627 21.1895 131.042 21.1939C131.458 21.1983 131.868 21.285 132.25 21.449C132.631 21.6131 132.977 21.851 133.266 22.1493C133.554 22.4476 133.781 22.8004 133.932 23.1868C134.084 23.5733 134.157 23.9858 134.147 24.4006C134.138 24.8155 134.045 25.2244 133.876 25.6034C133.707 25.9825 133.465 26.3244 133.162 26.6091C132.86 26.8938 132.504 27.1156 132.116 27.2619C126.497 29.4588 121.804 31.1437 117.347 32.5648C113.925 33.6567 110.415 34.6547 106.912 35.5429C106.663 35.6072 106.406 35.6405 106.149 35.6422ZM271.856 19.8117C271.388 19.8119 270.927 19.7063 270.506 19.5033C265.943 17.3304 261.26 15.4171 256.48 13.7721C255.697 13.4985 255.054 12.9259 254.692 12.18C254.33 11.434 254.278 10.5754 254.549 9.79164C254.819 9.00792 255.389 8.36309 256.135 7.99824C256.88 7.6334 257.74 7.57806 258.526 7.84467C263.531 9.56836 268.434 11.5744 273.211 13.853C273.854 14.1593 274.373 14.675 274.684 15.3152C274.994 15.9554 275.078 16.682 274.92 17.3757C274.762 18.0695 274.373 18.689 273.816 19.1326C273.26 19.5763 272.568 19.8175 271.856 19.8168V19.8117ZM155.249 17.7349C154.516 17.7363 153.805 17.4811 153.24 17.0135C152.676 16.5459 152.293 15.8953 152.158 15.1752C152.023 14.455 152.146 13.7106 152.504 13.071C152.861 12.4315 153.432 11.9373 154.117 11.6743C162.017 8.62578 168.548 6.44972 174.679 4.79614C176.249 4.37556 177.852 3.97586 179.44 3.61014C180.252 3.42308 181.104 3.56566 181.81 4.00632C182.516 4.44699 183.018 5.14968 183.206 5.95993C183.393 6.77019 183.25 7.62161 182.809 8.32682C182.368 9.03203 181.664 9.53341 180.853 9.72047C179.336 10.0679 177.805 10.4493 176.307 10.8516C170.398 12.4373 164.065 14.5559 156.382 17.5234C156.021 17.6632 155.637 17.7348 155.249 17.7349ZM232.127 7.78217C231.973 7.78246 231.819 7.77088 231.667 7.74798C224.965 6.76621 218.2 6.27227 211.426 6.26963H211.408C209.668 6.26963 207.903 6.3035 206.16 6.37142C205.748 6.3872 205.337 6.32177 204.95 6.17882C204.563 6.03586 204.208 5.81817 203.906 5.53824C203.603 5.25831 203.359 4.92169 203.186 4.54741C203.014 4.17312 202.917 3.76848 202.901 3.35682C202.885 2.94516 202.951 2.53449 203.094 2.14812C203.237 1.76176 203.455 1.40724 203.736 1.10499C204.016 0.802742 204.353 0.558723 204.728 0.386608C205.103 0.214493 205.508 0.117689 205.92 0.101908C207.751 0.0339887 209.582 -0.00268555 211.413 -0.00268555H211.431C218.51 -0.000832084 225.579 0.516009 232.583 1.54377C233.366 1.65984 234.076 2.06729 234.571 2.68436C235.066 3.30142 235.31 4.08271 235.253 4.87139C235.195 5.66008 234.842 6.39794 234.263 6.93725C233.684 7.47656 232.922 7.7773 232.13 7.77936L232.127 7.78217Z" fill="black"></path></g><defs><clipPath id="clip0"><rect width="275" height="41" fill="white"></rect></clipPath></defs></svg>