<svg xmlns="http://www.w3.org/2000/svg" width="324" height="538" viewBox="0 0 324 538" fill="none"><g clip-path="url(#clip0)"><path d="M2.5 537.2V250.43H95.3V537.2" fill="white"></path><path d="M2.5 537.2V250.43H95.3V537.2" stroke="black" stroke-width="5" stroke-linejoin="round"></path><path d="M115 537.2V132.36H207.8V537.2" fill="white"></path><path d="M115 537.2V132.36H207.8V537.2" stroke="black" stroke-width="5" stroke-linejoin="round"></path><path d="M227.98 537.2V329.91H320.78V537.2" fill="white"></path><path d="M227.98 537.2V329.91H320.78V537.2" stroke="black" stroke-width="5" stroke-linejoin="round"></path></g><g clip-path="url(#clip1)"><path d="M182.66 11.8398H136.38V59.9898H182.66V11.8398Z" fill="white"></path><path d="M127.07 131.82V125.05C127.07 123.56 127.663 122.13 128.717 121.076C129.771 120.022 131.2 119.43 132.69 119.43H190.77C192.261 119.43 193.69 120.022 194.744 121.076C195.798 122.13 196.39 123.56 196.39 125.05V131.82H127.07Z" fill="#FDDB09"></path><path d="M190.77 121.93C191.598 121.93 192.391 122.259 192.977 122.844C193.562 123.429 193.89 124.223 193.89 125.05V129.32H129.57V125.05C129.57 124.223 129.899 123.429 130.484 122.844C131.069 122.259 131.863 121.93 132.69 121.93H190.77ZM190.77 116.93H132.69C130.538 116.933 128.474 117.789 126.952 119.312C125.429 120.834 124.573 122.898 124.57 125.05V134.32H198.88V125.05C198.878 122.898 198.021 120.834 196.499 119.312C194.977 117.789 192.913 116.933 190.76 116.93H190.77Z" fill="black"></path><path d="M147.25 100.76L151.05 96.5801C151.725 95.8321 152.337 95.0294 152.88 94.1802C154.685 91.3774 155.666 88.1235 155.71 84.79V81.96L158.51 82.3403C159.504 82.4787 160.506 82.5488 161.51 82.5503C162.608 82.5512 163.704 82.4676 164.79 82.3003L167.62 81.8804V84.7402C167.689 89.1361 169.364 93.3546 172.33 96.6001L176.13 100.78L147.25 100.76Z" fill="#FDDB09"></path><path d="M165.23 84.7603C165.309 89.7636 167.215 94.5653 170.59 98.2603H152.88C153.657 97.403 154.363 96.4833 154.99 95.5103C157.045 92.3122 158.161 88.6014 158.21 84.8003C159.32 84.952 160.439 85.0288 161.56 85.0303C162.781 85.031 164.002 84.9408 165.21 84.7603H165.23ZM170.13 78.9702L164.48 79.8101C163.514 79.9571 162.537 80.0309 161.56 80.0303C160.663 80.0303 159.768 79.9668 158.88 79.8403L153.28 79.0801L153.21 84.73C153.167 87.5969 152.326 90.3952 150.78 92.8101C150.304 93.5488 149.769 94.2481 149.18 94.9004L141.59 103.26H181.88L174.27 94.8901C171.711 92.1033 170.266 88.4729 170.21 84.6899L170.13 78.9702Z" fill="black"></path><path d="M181.24 102H142.22V118.19H181.24V102Z" fill="#FDDB09"></path><path d="M178.74 104.5V115.69H144.74V104.5H178.74ZM183.74 99.5H139.74V120.69H183.74V99.5Z" fill="black"></path><path d="M161.58 81.29C152.35 81.29 143.64 75.2004 137.06 64.1304C130.48 53.0604 126.78 38.1303 126.78 22.3003V7.37012C126.78 6.60895 127.083 5.87905 127.621 5.34082C128.159 4.80259 128.889 4.5 129.65 4.5H193.52C194.281 4.50264 195.009 4.80609 195.547 5.34375C196.085 5.88141 196.388 6.60976 196.39 7.37012V22.3003C196.39 38.1103 192.73 52.9704 186.1 64.1304C179.47 75.2904 170.82 81.29 161.58 81.29ZM161.58 21.5303C161.464 21.5281 161.351 21.5598 161.253 21.6221C161.155 21.6843 161.077 21.7744 161.03 21.8804L156.23 31.5801L145.52 33.1401C145.406 33.1567 145.299 33.2046 145.211 33.2788C145.122 33.353 145.056 33.4505 145.02 33.5601C144.985 33.6711 144.982 33.7899 145.01 33.9028C145.038 34.0158 145.097 34.1187 145.18 34.2002L152.93 41.7603L151.1 52.4302C151.08 52.5436 151.093 52.6607 151.137 52.7671C151.181 52.8735 151.255 52.9648 151.35 53.0303C151.448 53.0904 151.561 53.1221 151.675 53.1221C151.79 53.1221 151.903 53.0904 152 53.0303L161.58 48.0303L171.17 53.0303C171.255 53.0791 171.352 53.1031 171.45 53.1001C171.583 53.1001 171.713 53.058 171.82 52.98C171.912 52.9125 171.984 52.8204 172.026 52.7144C172.069 52.6083 172.081 52.4928 172.06 52.3804L170.23 41.71L177.99 34.1504C178.074 34.0692 178.132 33.9655 178.159 33.8521C178.186 33.7386 178.179 33.6201 178.14 33.5103C178.102 33.4018 178.036 33.3053 177.948 33.2314C177.86 33.1575 177.754 33.109 177.64 33.0903L166.93 31.5303L162.14 21.8301C162.082 21.7349 161.999 21.6572 161.901 21.6045C161.802 21.5518 161.692 21.5262 161.58 21.5303Z" fill="#FDDB09"></path><path d="M193.52 7C193.618 7.00253 193.71 7.04248 193.779 7.11133C193.848 7.18018 193.888 7.27278 193.89 7.37012V22.3003C193.89 37.6703 190.36 52.0704 183.95 62.8604C177.84 73.1304 169.9 78.79 161.58 78.79C153.26 78.79 145.32 73.1304 139.21 62.8604C132.81 52.0704 129.28 37.6703 129.28 22.3003V7.37012C129.28 7.27199 129.319 7.17779 129.389 7.1084C129.458 7.03901 129.552 7 129.65 7H193.52ZM151.71 55.6504C152.216 55.65 152.713 55.5261 153.16 55.29L161.58 50.8701L170 55.29C170.515 55.5651 171.096 55.6904 171.678 55.6509C172.26 55.6114 172.819 55.4089 173.291 55.0669C173.763 54.7249 174.13 54.2568 174.349 53.7163C174.568 53.1758 174.631 52.5847 174.53 52.0103L172.92 42.6304L179.73 35.9902C180.147 35.5837 180.441 35.0689 180.58 34.5039C180.719 33.9389 180.698 33.3463 180.518 32.793C180.338 32.2396 180.007 31.7472 179.562 31.3721C179.117 30.997 178.576 30.7542 178 30.6704L168.59 29.3003L164.38 20.77C164.123 20.2468 163.725 19.8062 163.23 19.498C162.735 19.1899 162.163 19.0264 161.58 19.0264C160.997 19.0264 160.426 19.1899 159.931 19.498C159.436 19.8062 159.037 20.2468 158.78 20.77L154.57 29.3003L145.16 30.6704C144.585 30.7542 144.044 30.997 143.599 31.3721C143.154 31.7472 142.823 32.2396 142.643 32.793C142.463 33.3463 142.441 33.9389 142.58 34.5039C142.719 35.0689 143.014 35.5837 143.43 35.9902L150.24 42.6304L148.63 52.0103C148.555 52.4579 148.578 52.9166 148.698 53.3545C148.817 53.7924 149.032 54.1988 149.325 54.5454C149.618 54.892 149.984 55.1705 150.396 55.3613C150.808 55.5521 151.256 55.6509 151.71 55.6504ZM193.52 2H129.65C128.227 2.00264 126.863 2.56967 125.856 3.57617C124.85 4.58267 124.283 5.94672 124.28 7.37012V22.3003C124.28 38.5503 128.05 53.8602 134.92 65.4102C141.92 77.2602 151.43 83.79 161.58 83.79C171.73 83.79 181.2 77.2602 188.25 65.4102C195.11 53.8602 198.89 38.5503 198.89 22.3003V7.37012C198.888 5.94672 198.321 4.58267 197.315 3.57617C196.308 2.56967 194.944 2.00264 193.52 2ZM149.65 35.0703L155.29 34.25L157.89 33.8701L159.06 31.5103L161.58 26.4004L164.11 31.5103L165.27 33.8701L167.87 34.25L173.51 35.0703L169.43 39.0703L167.55 40.9004L167.99 43.4902L168.99 49.1201L163.99 46.46L161.66 45.2402L159.33 46.46L154.33 49.1201L155.33 43.4902L155.78 40.9004L153.89 39.0703L149.81 35.0703H149.65Z" fill="black"></path><path d="M123.931 16.5601V22.3003C123.897 30.9733 125.017 39.6123 127.26 47.9902C118.63 41.1846 112.849 31.403 111.05 20.5601C110.969 20.0717 110.995 19.5717 111.129 19.0947C111.262 18.6178 111.498 18.1759 111.82 17.8003C112.153 17.4121 112.566 17.1003 113.03 16.8862C113.494 16.6722 113.999 16.5609 114.51 16.5601H123.931ZM128.931 11.5601H114.51C113.284 11.5584 112.071 11.8227 110.956 12.3345C109.842 12.8463 108.851 13.5935 108.053 14.5249C107.254 15.4563 106.667 16.5495 106.332 17.7295C105.997 18.9095 105.921 20.1484 106.11 21.3604C108.085 33.4462 114.527 44.3493 124.16 51.9102L136.09 61.3403L132.09 46.6704C129.962 38.7233 128.902 30.5275 128.941 22.3003V11.5601H128.931Z" fill="black"></path><path d="M208.71 16.5601C209.221 16.5609 209.726 16.6722 210.19 16.8862C210.654 17.1002 211.067 17.4121 211.4 17.8003C211.724 18.1748 211.962 18.6165 212.095 19.0938C212.228 19.571 212.253 20.0717 212.17 20.5601C210.371 31.403 204.59 41.1846 195.96 47.9902C198.203 39.6123 199.323 30.9733 199.29 22.3003V16.5601H208.71ZM208.71 11.5601H194.29V22.3003C194.328 30.5275 193.268 38.7232 191.14 46.6704L187.14 61.3403L199.07 51.9102C208.703 44.3493 215.145 33.4462 217.12 21.3604C217.312 20.1569 217.242 18.9262 216.914 17.7524C216.586 16.5787 216.008 15.4894 215.22 14.5601C214.418 13.6189 213.422 12.8632 212.3 12.3452C211.177 11.8272 209.956 11.5593 208.72 11.5601H208.71Z" fill="black"></path></g><defs><clipPath id="clip0"><rect width="323.28" height="537.2" fill="white"></rect></clipPath><clipPath id="clip1"><rect width="111.21" height="132.32" fill="white" transform="translate(106 2)"></rect></clipPath></defs></svg>