<?xml version="1.0" encoding="UTF-8"?>
<!-- Generated by Pixelmator Pro 3.5.3 -->
<svg width="180" height="180" viewBox="0 0 180 180" xmlns="http://www.w3.org/2000/svg">
    <g id="Group">
        <path id="Path" fill="none" stroke="#000000" stroke-width="4" stroke-linecap="round" stroke-linejoin="round" d="M 55.709999 134.110001 L 55.709999 53.110001 C 55.709999 48.691727 59.291725 45.110001 63.709999 45.110001 L 101.199997 45.110001 C 105.59874 45.137497 109.150085 48.711182 109.150002 53.110001 L 109.150002 134.110001 Z"/>
        <path id="path1" fill="none" stroke="#000000" stroke-width="4" stroke-linecap="round" stroke-linejoin="round" d="M 65.209999 52.5 L 99.400002 52.5 C 100.670258 52.5 101.699997 53.529739 101.699997 54.800003 L 101.699997 73.330002 L 62.910004 73.330002 L 62.910004 54.800003 C 62.910004 53.529739 63.939743 52.5 65.209999 52.5 Z"/>
        <path id="path2" fill="none" stroke="#000000" stroke-width="4" stroke-linecap="round" stroke-linejoin="round" d="M 62.910004 79.199997 L 78.769997 79.199997 L 78.769997 100.029999 L 62.910004 100.029999 Z"/>
        <path id="path3" fill="none" stroke="#000000" stroke-width="4" stroke-linecap="round" stroke-linejoin="round" d="M 85.839996 79.199997 L 101.699997 79.199997 L 101.699997 100.029999 L 85.839996 100.029999 Z"/>
        <path id="path4" fill="none" stroke="#000000" stroke-width="4" stroke-linecap="round" stroke-linejoin="round" d="M 109.099998 95.57 C 109.099998 95.57 116.220001 89.650002 121.369995 97.290001 C 126.520004 104.93 137.369995 96.290001 130.160004 86.970001 C 122.949997 77.650002 133.789993 70.860001 133.789993 70.860001"/>
        <path id="path5" fill="none" stroke="#000000" stroke-width="4" stroke-linecap="round" stroke-linejoin="round" d="M 146 67.489998 C 141.440002 67.147636 136.9095 68.461342 133.240005 71.190002 C 133.240005 71.190002 136.520004 68.629997 139.070007 71.860001"/>
        <path id="path6" fill="#60d8d8" stroke="#000000" stroke-width="4" stroke-linecap="round" stroke-linejoin="round" d="M 34.23 134.110001 L 131.149994 134.110001"/>
    </g>
</svg>
