<svg xmlns="http://www.w3.org/2000/svg" viewBox="0 0 75.35 75.35"><defs><style>.cls-1,.cls-3{fill:#ffdb43;}.cls-1,.cls-2,.cls-3{stroke:#000;}.cls-1{stroke-linecap:round;stroke-linejoin:round;stroke-width:3px;}.cls-2,.cls-3{stroke-miterlimit:10;}</style></defs><g id="Layer_2" data-name="Layer 2"><g id="Layer_1-2" data-name="Layer 1"><circle class="cls-1" cx="37.68" cy="37.68" r="36.18"></circle><g id="rtMSRt"><path class="cls-2" d="M35.47,60c-.83-.12-1.66-.21-2.48-.36a15.35,15.35,0,0,1-10.82-7.31A16.78,16.78,0,0,1,19.9,45.2a16.19,16.19,0,0,1,1-7.83,21.72,21.72,0,0,1,3.86-6.08c1.86-2.14,3.79-4.22,5.64-6.37a27.14,27.14,0,0,0,5.43-9.3A1,1,0,0,1,37.28,15a21.06,21.06,0,0,1,5.94,3.83,39.45,39.45,0,0,1,10.39,14,20.7,20.7,0,0,1,2,8.4,18.24,18.24,0,0,1-3.32,10.69,18.64,18.64,0,0,1-12.87,8L37.85,60Zm-6.19-3.66a2.61,2.61,0,0,0-.17-.28,9.24,9.24,0,0,1-1.69-5.86,19.16,19.16,0,0,1,5.36-12.16.94.94,0,0,1,1.11-.31.91.91,0,0,1,.6,1c-.12,1.13-.26,2.27-.39,3.41a17.91,17.91,0,0,0-.22,1.92,2.11,2.11,0,0,0,1.63,2.18,2.2,2.2,0,0,0,2.52-1,5.6,5.6,0,0,0,.57-4.18,15.1,15.1,0,0,0-1.35-3.8.94.94,0,0,1,.13-1.18A.93.93,0,0,1,38.52,36a12.2,12.2,0,0,1,5.59,5.06,16.48,16.48,0,0,1,2,8.16,11.2,11.2,0,0,1-1.24,5.66c-.3.55-.65,1.06-1,1.64l.24-.1a16.91,16.91,0,0,0,8.3-21.53,35.93,35.93,0,0,0-7.12-11.41,30,30,0,0,0-6.56-5.65c-.47-.28-1-.53-1.46-.81-.17.43-.3.78-.45,1.13a31.85,31.85,0,0,1-5.52,8.56c-1.86,2.13-3.77,4.2-5.61,6.34a17.79,17.79,0,0,0-3.22,5.33,14.69,14.69,0,0,0-.61,7.52,13.92,13.92,0,0,0,4.86,8.92A9.54,9.54,0,0,0,29.28,56.37ZM40.06,39.14c.12.47.22.84.31,1.21a7.89,7.89,0,0,1-.5,5.53A4.15,4.15,0,0,1,32,43.57c0-.55.13-1.1.22-1.77-.16.22-.26.35-.34.48a18,18,0,0,0-2.18,5.17,10.47,10.47,0,0,0-.23,4.88,7.38,7.38,0,0,0,14.43-.07,14.12,14.12,0,0,0-.81-9.1A10.17,10.17,0,0,0,40.06,39.14Z"></path><path class="cls-3" d="M29.28,56.37a9.54,9.54,0,0,1-2.53-1.56,13.92,13.92,0,0,1-4.86-8.92,14.69,14.69,0,0,1,.61-7.52A17.79,17.79,0,0,1,25.72,33c1.84-2.14,3.75-4.21,5.61-6.34a31.85,31.85,0,0,0,5.52-8.56c.15-.35.28-.7.45-1.13.5.28,1,.53,1.46.81a30,30,0,0,1,6.56,5.65,35.93,35.93,0,0,1,7.12,11.41,16.91,16.91,0,0,1-8.3,21.53l-.24.1c.36-.58.71-1.09,1-1.64a11.2,11.2,0,0,0,1.24-5.66,16.48,16.48,0,0,0-2-8.16A12.2,12.2,0,0,0,38.52,36a.93.93,0,0,0-1.14.15.94.94,0,0,0-.13,1.18,15.1,15.1,0,0,1,1.35,3.8A5.6,5.6,0,0,1,38,45.3a2.2,2.2,0,0,1-2.52,1,2.11,2.11,0,0,1-1.63-2.18,17.91,17.91,0,0,1,.22-1.92c.13-1.14.27-2.28.39-3.41a.91.91,0,0,0-.6-1,.94.94,0,0,0-1.11.31,19.16,19.16,0,0,0-5.36,12.16,9.24,9.24,0,0,0,1.69,5.86A2.61,2.61,0,0,1,29.28,56.37Z"></path><path class="cls-3" d="M40.06,39.14a10.17,10.17,0,0,1,3,4,14.12,14.12,0,0,1,.81,9.1,7.38,7.38,0,0,1-14.43.07,10.47,10.47,0,0,1,.23-4.88,18,18,0,0,1,2.18-5.17c.08-.13.18-.26.34-.48-.09.67-.17,1.22-.22,1.77a4.15,4.15,0,0,0,7.87,2.31,7.89,7.89,0,0,0,.5-5.53C40.28,40,40.18,39.61,40.06,39.14Z"></path></g></g></g></svg>