<svg xmlns="http://www.w3.org/2000/svg" viewBox="0 0 64.95 64.95"><defs><style>.cls-1,.cls-3{fill:#ffdb43;}.cls-1,.cls-2,.cls-3{stroke:#000;}.cls-1{stroke-linecap:round;stroke-linejoin:round;stroke-width:3px;}.cls-2,.cls-3{stroke-miterlimit:10;}</style></defs><g id="Layer_2" data-name="Layer 2"><g id="Layer_1-2" data-name="Layer 1"><rect class="cls-1" x="1.5" y="1.5" width="61.95" height="61.95" rx="10.62"></rect><g id="rtMSRt"><path class="cls-2" d="M30.27,54.62c-.83-.12-1.66-.21-2.48-.36A15.36,15.36,0,0,1,17,47a16.9,16.9,0,0,1-2.26-7.16,16.19,16.19,0,0,1,1-7.83,21.5,21.5,0,0,1,3.86-6.08c1.86-2.14,3.79-4.22,5.64-6.37a27.14,27.14,0,0,0,5.43-9.3c.24-.75.74-1,1.49-.66A21.06,21.06,0,0,1,38,13.38,39.57,39.57,0,0,1,48.41,27.33a20.7,20.7,0,0,1,2,8.4A18.24,18.24,0,0,1,47,46.42a18.66,18.66,0,0,1-12.88,8c-.5.08-1,.14-1.51.21ZM24.08,51a2.61,2.61,0,0,0-.17-.28,9.22,9.22,0,0,1-1.69-5.86,19.19,19.19,0,0,1,5.36-12.16.94.94,0,0,1,1.11-.31.92.92,0,0,1,.6,1c-.12,1.14-.26,2.27-.39,3.41-.08.64-.21,1.28-.23,1.92a2.13,2.13,0,0,0,1.64,2.18,2.2,2.2,0,0,0,2.52-1,5.6,5.6,0,0,0,.57-4.18,15.24,15.24,0,0,0-1.35-3.8.94.94,0,0,1,.13-1.18.92.92,0,0,1,1.13-.15,12.22,12.22,0,0,1,5.6,5.06,16.48,16.48,0,0,1,2,8.16,11.2,11.2,0,0,1-1.24,5.66c-.3.55-.65,1.06-1,1.64l.24-.1a16.91,16.91,0,0,0,8.3-21.53,36.11,36.11,0,0,0-7.12-11.41,30,30,0,0,0-6.56-5.65c-.47-.28-1-.53-1.46-.81-.17.43-.3.78-.45,1.13a31.85,31.85,0,0,1-5.52,8.56c-1.86,2.13-3.77,4.2-5.61,6.34A17.79,17.79,0,0,0,17.3,33a14.8,14.8,0,0,0-.62,7.52,13.93,13.93,0,0,0,4.87,8.92A9.54,9.54,0,0,0,24.08,51ZM34.86,33.73c.12.47.22.84.31,1.21a7.89,7.89,0,0,1-.5,5.53,4.15,4.15,0,0,1-7.87-2.31c.05-.55.13-1.1.22-1.77-.16.22-.26.35-.34.48A18,18,0,0,0,24.5,42a10.47,10.47,0,0,0-.23,4.88,7.38,7.38,0,0,0,14.43-.07,14.18,14.18,0,0,0-.81-9.1A10.17,10.17,0,0,0,34.86,33.73Z"></path><path class="cls-3" d="M24.08,51a9.54,9.54,0,0,1-2.53-1.56,13.93,13.93,0,0,1-4.87-8.92A14.8,14.8,0,0,1,17.3,33a17.79,17.79,0,0,1,3.22-5.33c1.84-2.14,3.75-4.21,5.61-6.34a31.85,31.85,0,0,0,5.52-8.56c.15-.35.28-.7.45-1.13.5.28,1,.53,1.46.81a30,30,0,0,1,6.56,5.65,36.11,36.11,0,0,1,7.12,11.41A16.91,16.91,0,0,1,38.94,51l-.24.1c.36-.58.71-1.09,1-1.64A11.2,11.2,0,0,0,41,43.8a16.48,16.48,0,0,0-2-8.16,12.22,12.22,0,0,0-5.6-5.06.92.92,0,0,0-1.13.15.94.94,0,0,0-.13,1.18,15.24,15.24,0,0,1,1.35,3.8,5.6,5.6,0,0,1-.57,4.18,2.2,2.2,0,0,1-2.52,1,2.13,2.13,0,0,1-1.64-2.18c0-.64.15-1.28.23-1.92.13-1.14.27-2.27.39-3.41a.92.92,0,0,0-.6-1,.94.94,0,0,0-1.11.31,19.19,19.19,0,0,0-5.36,12.16,9.22,9.22,0,0,0,1.69,5.86A2.61,2.61,0,0,1,24.08,51Z"></path><path class="cls-3" d="M34.86,33.73a10.17,10.17,0,0,1,3,4,14.18,14.18,0,0,1,.81,9.1,7.38,7.38,0,0,1-14.43.07A10.47,10.47,0,0,1,24.5,42a18,18,0,0,1,2.18-5.17c.08-.13.18-.26.34-.48-.09.67-.17,1.22-.22,1.77a4.15,4.15,0,0,0,7.87,2.31,7.89,7.89,0,0,0,.5-5.53C35.08,34.57,35,34.2,34.86,33.73Z"></path></g></g></g></svg>