<svg width="286" height="80" viewBox="0 0 286 80" fill="none" xmlns="http://www.w3.org/2000/svg">
<path d="M217.513 76.5688H215.013H182.023H78.501H43.995H5.521H3.021V74.0688C3.021 68.8062 4.05225 63.6997 6.08606 58.8916C8.04993 54.248 10.8608 50.0786 14.4408 46.499C18.0208 42.9189 22.1903 40.1079 26.8335 38.144C31.642 36.1104 36.7484 35.0791 42.011 35.0791C45.4641 35.0791 48.8859 35.5347 52.21 36.436C58.3378 26.5571 66.8217 18.2627 76.8485 12.3682C82.2166 9.2124 87.9739 6.7749 93.9604 5.12256C100.135 3.41846 106.544 2.55469 113.009 2.55469C120.746 2.55469 128.356 3.78418 135.628 6.2085C142.66 8.55273 149.268 11.9751 155.267 16.3804C161.193 20.7319 166.4 25.9482 170.742 31.8838C174.579 37.1294 177.667 42.8384 179.943 48.8882C183.208 47.5483 186.736 46.8491 190.293 46.8491C193.967 46.8491 197.532 47.5693 200.889 48.9893C204.131 50.3604 207.042 52.3223 209.541 54.8213C212.04 57.3203 214.002 60.231 215.373 63.4727C216.793 66.8301 217.513 70.395 217.513 74.0688V76.5688Z" fill="white"/>
<path d="M215.013 74.0688C215.013 60.416 203.946 49.3491 190.293 49.3491C186.026 49.3491 182.012 50.4287 178.51 52.332C169.4 24.8711 143.527 5.05469 113.009 5.05469C87.542 5.05469 65.312 18.8608 53.353 39.3857C49.782 38.2188 45.9719 37.5791 42.011 37.5791C21.8579 37.5791 5.521 53.916 5.521 74.0688H215.013ZM215.013 79.0688H5.521C2.75952 79.0688 0.520996 76.8301 0.520996 74.0688C0.520996 68.4697 1.61865 63.0356 3.78345 57.9175C5.87341 52.9766 8.86426 48.54 12.6731 44.731C16.4818 40.9224 20.9185 37.9316 25.8596 35.8418C30.9779 33.6768 36.412 32.5791 42.011 32.5791C45.0663 32.5791 48.0985 32.9146 51.067 33.5786C57.3195 24.0332 65.7308 16.0039 75.5815 10.2129C81.1382 6.94629 87.098 4.42285 93.2954 2.71289C99.6866 0.949219 106.319 0.0546875 113.009 0.0546875C121.015 0.0546875 128.891 1.32715 136.419 3.83691C143.698 6.26367 150.537 9.80615 156.747 14.3652C162.879 18.8682 168.267 24.2656 172.759 30.4082C176.242 35.1689 179.128 40.2983 181.374 45.7114C181.869 45.5557 182.367 45.4136 182.869 45.2842C185.282 44.6636 187.78 44.3491 190.293 44.3491C194.303 44.3491 198.196 45.1357 201.863 46.6865C205.403 48.1836 208.581 50.3257 211.308 53.0537C214.036 55.7812 216.178 58.9595 217.675 62.499C219.226 66.166 220.013 70.0586 220.013 74.0688C220.013 76.8301 217.774 79.0688 215.013 79.0688Z" fill="black"/>
<path d="M233.319 74.0718C233.36 67.5427 235.983 61.2955 240.615 56.6934C245.246 52.0912 251.51 49.5078 258.039 49.5078C264.568 49.5078 270.833 52.0912 275.464 56.6934C280.096 61.2955 282.718 67.5427 282.76 74.0718H233.319Z" fill="white" stroke="black" stroke-width="5" stroke-linejoin="round"/>
</svg>
