<svg width="131" height="131" viewBox="0 0 131 131" fill="none" xmlns="http://www.w3.org/2000/svg">
<path d="M65.8252 125.412C98.9617 125.412 125.824 98.5496 125.824 65.4131C125.824 32.2765 98.9617 5.41406 65.8252 5.41406C32.6886 5.41406 5.82617 32.2765 5.82617 65.4131C5.82617 98.5496 32.6886 125.412 65.8252 125.412Z" fill="white"/>
<path d="M65.8252 127.912C100.342 127.912 128.324 99.9303 128.324 65.4131C128.324 30.8958 100.342 2.91406 65.8252 2.91406C31.3079 2.91406 3.32617 30.8958 3.32617 65.4131C3.32617 99.9303 31.3079 127.912 65.8252 127.912Z" stroke="black" stroke-width="5" stroke-linejoin="round"/>
<mask id="mask0_2_2435" style="mask-type:luminance" maskUnits="userSpaceOnUse" x="5" y="5" width="121" height="121">
<path d="M65.8252 125.412C98.9617 125.412 125.824 98.5496 125.824 65.4131C125.824 32.2765 98.9617 5.41406 65.8252 5.41406C32.6886 5.41406 5.82617 32.2765 5.82617 65.4131C5.82617 98.5496 32.6886 125.412 65.8252 125.412Z" fill="white"/>
</mask>
<g mask="url(#mask0_2_2435)">
<path d="M60.0239 31.439C56.8838 32.3791 53.9595 33.9284 51.4182 35.9986C48.8768 38.0688 46.7682 40.6192 45.2125 43.5043C43.6568 46.3895 42.6847 49.5528 42.3515 52.8136C42.0184 56.0744 42.3308 59.3689 43.2708 62.509L48.6119 80.351L43.3889 81.915C42.6097 82.1482 41.8842 82.5326 41.2536 83.0463C40.623 83.5599 40.0997 84.1927 39.7137 84.9086C39.3277 85.6244 39.0864 86.4093 39.0037 87.2184C38.9211 88.0274 38.9987 88.8449 39.2319 89.624C39.4651 90.4031 39.8495 91.1287 40.3631 91.7593C40.8768 92.3899 41.5096 92.9131 42.2254 93.2991C42.9413 93.6852 43.7262 93.9264 44.5352 94.0091C45.3443 94.0918 46.1618 94.0143 46.9409 93.781L52.1649 92.217L63.4089 137.189L111.233 122.872L91.0948 48.192C89.1958 41.8504 84.8556 36.5227 79.0288 33.381C73.2019 30.2392 66.3657 29.5407 60.0239 31.439Z" fill="white" stroke="black" stroke-width="5" stroke-miterlimit="10" stroke-linecap="round"/>
<path d="M43.2718 62.511C42.3314 59.3709 42.0188 56.0762 42.3518 52.8152C42.6847 49.5542 43.6566 46.3907 45.2122 43.5054C46.7678 40.62 48.8765 38.0694 51.4179 35.999C53.9593 33.9287 56.8836 32.3792 60.0239 31.439C66.3657 29.5407 73.2019 30.2392 79.0288 33.381C84.8556 36.5227 89.1958 41.8504 91.0948 48.192V52.577L43.2718 62.511Z" fill="black"/>
<path d="M92.317 52.2734L15.978 71.3604" stroke="black" stroke-width="5" stroke-miterlimit="10" stroke-linecap="round"/>
<path d="M60.091 76.7708C61.924 76.7708 63.41 75.2848 63.41 73.4518C63.41 71.6188 61.924 70.1328 60.091 70.1328C58.2579 70.1328 56.772 71.6188 56.772 73.4518C56.772 75.2848 58.2579 76.7708 60.091 76.7708Z" fill="black"/>
<path d="M74.397 82.641C76.0128 81.4254 78.0455 80.9014 80.0476 81.1844C82.0497 81.4674 83.8574 82.5342 85.073 84.15C86.2886 85.7659 86.8125 87.7984 86.5295 89.8005C86.2465 91.8027 85.1798 93.6104 83.564 94.826" fill="white"/>
<path d="M74.397 82.641C76.0128 81.4254 78.0455 80.9014 80.0476 81.1844C82.0497 81.4674 83.8574 82.5342 85.073 84.15C86.2886 85.7658 86.8125 87.7984 86.5295 89.8005C86.2465 91.8027 85.1798 93.6104 83.564 94.826" stroke="black" stroke-width="5" stroke-miterlimit="10" stroke-linecap="round"/>
<path d="M54.8159 97.7527C54.8159 97.7527 65.5979 100.063 76.9579 90.2188L54.8159 97.7527Z" fill="white"/>
<path d="M54.8159 97.7527C54.8159 97.7527 65.5979 100.063 76.9579 90.2188" stroke="black" stroke-width="5" stroke-miterlimit="10" stroke-linecap="round"/>
</g>
</svg>
