<svg width="239" height="206" viewBox="0 0 239 206" fill="none" xmlns="http://www.w3.org/2000/svg">
<path d="M64.9025 142.951H33.8574V173.995H2.81445V202.995H93.8364V111.906H64.8994L64.9025 142.951Z" fill="#9CF0E8" stroke="black" stroke-width="4.542" stroke-linejoin="round"/>
<path d="M97.4386 160.195L103.08 143.757L114.08 111.696H76.7205C73.8409 111.705 71.0056 110.987 68.4766 109.61C65.9477 108.233 63.8067 106.24 62.2515 103.816C60.693 101.383 59.765 98.5998 59.5515 95.7178C59.3379 92.8359 59.8456 89.9462 61.0285 87.3096L61.3005 86.7657H119.99C122.11 86.7591 124.206 87.211 126.135 88.0909C128.065 88.9708 129.78 90.2575 131.165 91.8629C132.55 93.4683 133.572 95.3544 134.159 97.3917C134.747 99.4289 134.887 101.569 134.57 103.666V103.684C134.48 104.3 134.353 104.911 134.189 105.512L124.475 140.696L126.188 143.76L140.913 170.1L97.4386 160.195Z" fill="black" stroke="black" stroke-width="4.542" stroke-linejoin="round"/>
<path d="M136.147 35.2312L132.88 33.8064C132.029 33.4312 131.359 32.7368 131.016 31.8728C130.672 31.0089 130.681 30.0444 131.042 29.1873L131.111 29.1184C131.512 28.265 132.212 27.5889 133.08 27.2185C133.513 27.044 133.978 26.9599 134.446 26.9714C134.913 26.983 135.373 27.0898 135.798 27.2854L139.33 28.8484L136.147 35.2312ZM150.14 42.5603L154.266 34.0505L157.036 28.3362C157.487 27.4196 158.284 26.7194 159.251 26.3884C160.217 26.0575 161.276 26.1231 162.195 26.5706L162.262 26.6375C163.187 27.0911 163.894 27.8938 164.228 28.8689C164.562 29.844 164.495 30.9115 164.042 31.8372L164.028 31.8674L161.473 37.1672L157.351 45.7141L150.239 60.4656C148.632 63.7636 146.13 66.5436 143.019 68.4885C139.908 70.4335 136.313 71.465 132.645 71.4656L90.9186 71.5833M105.366 71.5422L99.2736 84.8523H62.1855L78.0116 50.0794H128.958L135.735 36.1985L139.795 27.8845L143.02 21.2844C143.239 20.8219 143.551 20.4087 143.935 20.0701C144.319 19.7314 144.768 19.4742 145.255 19.3142C145.741 19.1451 146.256 19.0758 146.77 19.1101C147.284 19.1445 147.785 19.2821 148.245 19.5144L148.312 19.5813C148.774 19.8012 149.188 20.113 149.526 20.4973C149.865 20.8817 150.123 21.3304 150.283 21.8171C150.451 22.3034 150.519 22.8189 150.484 23.3323C150.449 23.8457 150.311 24.3467 150.078 24.8054L147.06 31.0315L142.972 39.4622L142.472 40.4954L142.995 39.4036L147.047 30.9343L150.012 24.7341C150.231 24.2713 150.543 23.8581 150.927 23.5193C151.312 23.1805 151.761 22.9234 152.248 22.7634C152.734 22.595 153.249 22.5261 153.762 22.5613C154.276 22.5965 154.777 22.7352 155.236 22.9685L155.305 23.0344C156.231 23.4901 156.938 24.295 157.271 25.2722C157.604 26.2494 157.535 27.319 157.08 28.2454L157.071 28.2654L154.264 34.0545L150.142 42.5545M173.462 46.6956L173.395 46.7625C173.02 47.6132 172.325 48.2824 171.461 48.6257C170.597 48.969 169.633 48.9588 168.777 48.5974L158.177 43.9783L161.302 37.5925L171.627 42.0774C172.478 42.4528 173.148 43.1486 173.49 44.0139C173.833 44.8793 173.821 45.8447 173.458 46.7014L173.462 46.6956Z" fill="#F9D94A"/>
<path d="M150.14 42.5603L154.266 34.0505L157.036 28.3362C157.487 27.4196 158.284 26.7194 159.251 26.3884C160.217 26.0575 161.276 26.1231 162.195 26.5706L162.262 26.6375C163.187 27.0911 163.894 27.8938 164.228 28.8689C164.562 29.844 164.495 30.9115 164.042 31.8372L164.028 31.8674L161.473 37.1672L157.351 45.7141L150.239 60.4656C148.632 63.7636 146.13 66.5436 143.019 68.4885C139.908 70.4335 136.313 71.465 132.645 71.4656L90.9186 71.5833M105.366 71.5422L99.2736 84.8523H62.1855L78.0116 50.0794H128.958L135.735 36.1985L139.795 27.8845L143.02 21.2844C143.239 20.8219 143.551 20.4087 143.935 20.0701C144.319 19.7314 144.768 19.4742 145.255 19.3142C145.741 19.1451 146.256 19.0758 146.77 19.1101C147.284 19.1445 147.785 19.2821 148.245 19.5144L148.312 19.5813C148.774 19.8012 149.188 20.113 149.526 20.4973C149.865 20.8817 150.123 21.3304 150.283 21.8171C150.451 22.3034 150.519 22.8189 150.484 23.3323C150.449 23.8457 150.311 24.3467 150.078 24.8054L147.06 31.0315L142.972 39.4622L142.472 40.4954L142.995 39.4036L147.047 30.9343L150.012 24.7341C150.231 24.2713 150.543 23.8581 150.927 23.5193C151.312 23.1805 151.761 22.9234 152.248 22.7634C152.734 22.595 153.249 22.5261 153.762 22.5613C154.276 22.5965 154.777 22.7352 155.236 22.9685L155.305 23.0344C156.231 23.4901 156.938 24.295 157.271 25.2722C157.604 26.2494 157.535 27.319 157.08 28.2454L157.071 28.2654L154.264 34.0545L150.142 42.5545M136.147 35.2312L132.88 33.8064C132.029 33.4312 131.359 32.7368 131.016 31.8728C130.672 31.0089 130.681 30.0444 131.042 29.1873L131.111 29.1184C131.512 28.265 132.212 27.5889 133.08 27.2185C133.513 27.044 133.978 26.9599 134.446 26.9714C134.913 26.983 135.373 27.0898 135.798 27.2854L139.33 28.8484L136.147 35.2312ZM173.462 46.6956L173.395 46.7625C173.02 47.6132 172.325 48.2824 171.461 48.6257C170.597 48.969 169.633 48.9588 168.777 48.5974L158.177 43.9783L161.302 37.5925L171.627 42.0774C172.478 42.4528 173.148 43.1486 173.49 44.0139C173.833 44.8793 173.821 45.8447 173.458 46.7014L173.462 46.6956Z" stroke="black" stroke-width="4.046" stroke-linecap="round" stroke-linejoin="round"/>
<path d="M49.8908 15.3747C50.5008 17.7507 52.5387 24.5437 59.0607 25.2897C65.5827 26.0357 84.9397 28.2135 84.9397 28.2135L84.2627 26.7848L70.3348 6.88492C68.5952 5.17722 66.4331 3.96232 64.0697 3.3649C61.7064 2.76748 59.2269 2.80862 56.8848 3.48453C55.6755 3.75391 54.531 4.2592 53.5169 4.97086C52.5027 5.68252 51.6388 6.58688 50.9742 7.63248C50.3096 8.67807 49.8575 9.84427 49.6436 11.0646C49.4297 12.2849 49.4583 13.5355 49.7277 14.7448C49.7747 14.9588 49.8298 15.1677 49.8908 15.3747Z" fill="black" stroke="black" stroke-width="4.542" stroke-linejoin="round"/>
<path d="M92.4016 47.7514C94.9434 48.5413 97.6697 48.5086 100.192 47.6577C102.714 46.8067 104.902 45.181 106.446 43.0126C107.99 40.8443 108.81 38.2441 108.788 35.5825C108.767 32.9209 107.906 30.3342 106.328 28.1909C104.749 26.0476 102.535 24.4573 99.9993 23.6469C97.464 22.8365 94.7375 22.8472 92.2087 23.6777C89.6799 24.5081 87.478 26.1157 85.9167 28.2714C84.3555 30.4272 83.5149 33.0209 83.5146 35.6826C83.5138 38.3794 84.3759 41.0056 85.975 43.1772C87.574 45.3488 89.8261 46.9517 92.4016 47.7514ZM96.1486 24.0673C98.4444 24.0681 100.689 24.7498 102.597 26.0258C104.506 27.3018 105.993 29.1151 106.871 31.2363C107.75 33.3575 107.979 35.6916 107.531 37.9433C107.083 40.195 105.978 42.2632 104.354 43.8867C102.731 45.5102 100.663 46.6157 98.4111 47.0639C96.1595 47.5121 93.8255 47.2828 91.7042 46.4047C89.5829 45.5267 87.7696 44.0393 86.4934 42.1308C85.2173 40.2223 84.5355 37.9784 84.5345 35.6826C84.5285 34.1556 84.8248 32.6428 85.4063 31.2309C85.9877 29.819 86.8429 28.5362 87.9226 27.4565C89.0023 26.3767 90.2851 25.521 91.6969 24.9394C93.1087 24.3578 94.6216 24.0614 96.1486 24.0673Z" fill="#F4C2FA" stroke="black" stroke-width="4.542" stroke-linejoin="round"/>
<path d="M190.824 48.2951C191.147 48.1861 191.434 48.0432 191.757 47.9362C192.308 49.3946 193.096 50.7522 194.089 51.9543C197.012 55.2586 201.02 57.4095 205.389 58.0192C209.673 58.6394 214.036 58.42 218.235 57.3732C218.307 57.3372 218.417 57.3374 218.487 57.3014C219.662 59.1954 221.073 60.932 222.687 62.4694C225.45 65.0011 228.497 67.2044 231.766 69.0353L232.304 68.1032C229.112 66.3109 226.137 64.1554 223.44 61.6793C221.971 60.3028 220.681 58.7462 219.601 57.047C222.728 56.384 225.723 55.2078 228.465 53.5661C231.696 51.6749 234.169 48.7188 235.459 45.2043C235.929 43.7285 236.195 42.1951 236.248 40.6471C236.329 39.4039 236.206 38.156 235.885 36.9523C235.37 35.4711 234.453 34.1626 233.236 33.1735C232.019 32.1844 230.55 31.5537 228.995 31.3522C225.922 31.0169 222.838 31.8785 220.383 33.7575C218.643 34.95 217.285 36.6192 216.471 38.5651C216.041 39.8035 215.788 41.0965 215.718 42.4054C215.287 45.9777 215.568 49.5997 216.543 53.0631C216.911 54.2024 217.38 55.3071 217.943 56.3634C213.904 57.3445 209.715 57.5513 205.599 56.9733C201.482 56.3953 197.705 54.3729 194.941 51.2672C194.017 50.1482 193.278 48.8883 192.752 47.5353C196.628 45.9213 200.396 43.9114 203.123 40.7174C204.166 39.618 204.854 38.2297 205.097 36.734C205.21 35.9215 205.071 35.094 204.699 34.3629C204.326 33.6319 203.739 33.0327 203.015 32.6461C202.189 32.3442 201.3 32.2576 200.431 32.3942C198.453 32.6923 196.59 33.5108 195.033 34.7658C193.476 36.0207 192.28 37.6671 191.568 39.5363C190.748 41.9246 190.698 44.5101 191.425 46.9284C191.101 47.0724 190.778 47.1794 190.456 47.3224C187.896 48.3969 185.207 49.133 182.456 49.5124L182.564 50.588C185.404 50.1802 188.18 49.4096 190.824 48.2951Z" stroke="black" stroke-width="4.542" stroke-linejoin="round"/>
</svg>
