<svg width="101" height="113" viewBox="0 0 101 113" fill="none" xmlns="http://www.w3.org/2000/svg">
<path d="M56.6049 17.1719C56.6049 17.1719 49.9328 17.5089 47.7108 17.6499C44.0975 17.911 40.7108 19.508 38.2108 22.1299C29.3003 32.3577 23.4839 44.9098 21.4409 58.3199L31.2938 55.226" fill="#9EF2EA"/>
<path d="M56.6049 17.1719C56.6049 17.1719 49.9328 17.5089 47.7108 17.6499C44.0975 17.911 40.7108 19.508 38.2108 22.1299C29.3003 32.3577 23.4839 44.9098 21.4409 58.3199L31.2938 55.226" stroke="black" stroke-width="5" stroke-miterlimit="10"/>
<path d="M99.2499 46.5391C100.95 49.8651 102.739 56.8 100.01 61.464C98.1219 64.4983 95.9191 67.3251 93.4379 69.8971L89.7959 59.041" fill="#9EF2EA"/>
<path d="M99.2499 46.5391C100.95 49.8651 102.739 56.8 100.01 61.464C98.1219 64.4983 95.9191 67.3251 93.4379 69.8971L89.7959 59.041" stroke="black" stroke-width="5" stroke-miterlimit="10"/>
<path d="M103.848 3.02852C84.6939 2.23852 65.1619 8.35654 50.5029 22.3505C37.5419 34.7235 30.5608 51.1886 29.0488 68.0876C28.9273 69.4895 28.4761 70.8428 27.7317 72.0369C26.9873 73.2311 25.971 74.2322 24.7659 74.9586C18.746 78.5458 12.096 80.9496 5.17383 82.0406C6.39208 83.7633 7.97476 85.1966 9.80933 86.2387C11.6439 87.2809 13.6853 87.9062 15.7888 88.0705C19.5178 88.4505 21.1418 90.7085 22.1798 96.0805C23.4578 102.696 29.1798 107.155 29.1798 107.155C29.1798 107.155 29.5619 95.5196 34.2719 85.4956C34.9778 84.0481 36.0615 82.8182 37.4086 81.9356C38.7556 81.0531 40.316 80.5507 41.9249 80.4815C58.5359 79.5595 74.9049 73.3575 87.6129 61.2265C102.272 47.2325 109.29 28.0045 109.389 8.83455C107.895 8.76777 106.484 8.1266 105.452 7.04475C104.42 5.9629 103.845 4.52397 103.848 3.02852Z" fill="#9EF2EA" stroke="black" stroke-width="5" stroke-miterlimit="10"/>
<path d="M73.8457 19.5781C74.6939 22.6992 76.1546 25.6205 78.1425 28.1718C80.1303 30.723 82.6057 32.8534 85.4247 34.439C88.2437 36.0245 91.3499 37.0336 94.5625 37.4073C97.7751 37.7811 101.03 37.5121 104.138 36.6161" fill="#9EF2EA"/>
<path d="M73.8457 19.5781C74.6939 22.6992 76.1546 25.6205 78.1425 28.1718C80.1303 30.723 82.6057 32.8534 85.4247 34.439C88.2437 36.0245 91.3499 37.0336 94.5625 37.4073C97.7751 37.7811 101.03 37.5121 104.138 36.6161" stroke="black" stroke-width="5" stroke-miterlimit="10"/>
<path d="M40.1191 59.6719C40.4205 60.7805 40.9394 61.8179 41.6455 62.7241C42.3516 63.6303 43.231 64.387 44.2323 64.9502C45.2336 65.5134 46.3369 65.8718 47.478 66.0046C48.6191 66.1375 49.7753 66.042 50.8792 65.7239" fill="#9EF2EA"/>
<path d="M40.1191 59.6719C40.4205 60.7805 40.9394 61.8179 41.6455 62.7241C42.3516 63.6303 43.231 64.387 44.2323 64.9502C45.2336 65.5134 46.3369 65.8718 47.478 66.0046C48.6191 66.1375 49.7753 66.042 50.8792 65.7239" stroke="black" stroke-width="5" stroke-miterlimit="10"/>
<path d="M48.751 43.2734C49.0521 44.382 49.5708 45.4196 50.2769 46.3258C50.9829 47.232 51.8621 47.9887 52.8634 48.5519C53.8647 49.115 54.968 49.4733 56.1091 49.606C57.2502 49.7386 58.4063 49.6428 59.51 49.3243" fill="#9EF2EA"/>
<path d="M48.751 43.2734C49.0521 44.382 49.5708 45.4196 50.2769 46.3258C50.9829 47.232 51.8621 47.9887 52.8634 48.5519C53.8647 49.115 54.968 49.4733 56.1091 49.606C57.2502 49.7386 58.4063 49.6428 59.51 49.3243" stroke="black" stroke-width="5" stroke-miterlimit="10"/>
<path d="M58.1416 58.7891C58.4429 59.8976 58.9617 60.9351 59.6677 61.8413C60.3738 62.7475 61.2529 63.5042 62.2542 64.0674C63.2554 64.6306 64.3586 64.989 65.4996 65.1218C66.6407 65.2547 67.7968 65.1592 68.9006 64.8411" fill="#9EF2EA"/>
<path d="M58.1416 58.7891C58.4429 59.8976 58.9617 60.9351 59.6677 61.8413C60.3738 62.7475 61.2529 63.5042 62.2542 64.0674C63.2554 64.6306 64.3586 64.989 65.4996 65.1218C66.6407 65.2547 67.7968 65.1592 68.9006 64.8411" stroke="black" stroke-width="5" stroke-miterlimit="10"/>
<path d="M66.7729 42.3906C67.0742 43.4991 67.593 44.5367 68.2991 45.4429C69.0051 46.349 69.8844 47.1056 70.8856 47.6687C71.8869 48.2318 72.9901 48.5902 74.1311 48.7229C75.2721 48.8556 76.4282 48.76 77.532 48.4417" fill="#9EF2EA"/>
<path d="M66.7729 42.3906C67.0742 43.4991 67.593 44.5367 68.2991 45.4429C69.0051 46.349 69.8844 47.1056 70.8856 47.6687C71.8869 48.2318 72.9901 48.5902 74.1311 48.7229C75.2721 48.8556 76.4282 48.76 77.532 48.4417" stroke="black" stroke-width="5" stroke-miterlimit="10"/>
<path d="M57.3818 26.8672C57.683 27.9758 58.2017 29.0134 58.9077 29.9196C59.6137 30.8258 60.493 31.5825 61.4943 32.1456C62.4955 32.7088 63.5989 33.0671 64.74 33.1997C65.8811 33.3323 67.0371 33.2365 68.1409 32.9181" fill="#9EF2EA"/>
<path d="M57.3818 26.8672C57.683 27.9758 58.2017 29.0134 58.9077 29.9196C59.6137 30.8258 60.493 31.5825 61.4943 32.1456C62.4955 32.7088 63.5989 33.0671 64.74 33.1997C65.8811 33.3323 67.0371 33.2365 68.1409 32.9181" stroke="black" stroke-width="5" stroke-miterlimit="10"/>
<path d="M86.6912 16.2831C86.6914 16.5541 86.6112 16.819 86.4607 17.0444C86.3103 17.2699 86.0964 17.4456 85.8461 17.5494C85.5958 17.6533 85.3203 17.6806 85.0545 17.6278C84.7887 17.5751 84.5445 17.4447 84.3528 17.2532C84.1611 17.0616 84.0305 16.8174 83.9776 16.5516C83.9246 16.2859 83.9517 16.0104 84.0553 15.76C84.159 15.5096 84.3347 15.2956 84.56 15.145C84.7853 14.9944 85.0502 14.9141 85.3212 14.9141C85.5011 14.9139 85.6792 14.9492 85.8454 15.0179C86.0116 15.0867 86.1626 15.1876 86.2898 15.3147C86.4171 15.4418 86.518 15.5928 86.5868 15.7589C86.6557 15.9251 86.6912 16.1032 86.6912 16.2831Z" fill="#9EF2EA" stroke="black" stroke-width="5" stroke-miterlimit="10"/>
</svg>
