<svg width="165" height="165" viewBox="0 0 165 165" fill="none" xmlns="http://www.w3.org/2000/svg">
<path d="M3.26277 109.568C2.41087 116.801 2.66143 124.122 4.00581 131.28C5.81381 139.749 11.3619 147.743 21.4829 153.425C46.5589 167.502 82.1649 162.942 96.2959 145.703C106.474 133.286 126.614 123.617 152.809 120.081C155.338 119.74 157.978 119.201 159.798 117.422C163.433 113.867 161.974 101.389 160.01 97.2734" fill="white"/>
<path d="M3.26277 109.568C2.41087 116.801 2.66143 124.122 4.00581 131.28C5.81381 139.749 11.3619 147.743 21.4829 153.425C46.5589 167.502 82.1649 162.942 96.2959 145.703C106.474 133.286 126.614 123.617 152.809 120.081C155.338 119.74 157.978 119.201 159.798 117.422C163.433 113.867 161.974 101.389 160.01 97.2734" stroke="black" stroke-width="5" stroke-linecap="round" stroke-linejoin="round"/>
<path d="M159.742 96.7748C147.357 75.6598 105.003 63.6608 64.3259 68.9988C23.3949 74.3708 -3.55021 95.6667 4.77279 117.59C7.69479 125.29 14.5728 132.067 24.1898 137.468C48.0258 150.848 79.0659 147.686 92.4989 131.3C102.173 119.5 121.317 110.306 146.217 106.945C148.621 106.621 151.029 106.357 153.441 106.154C159.611 105.628 162.4 101.328 159.742 96.7748Z" fill="#EE82AA" stroke="black" stroke-width="5" stroke-linejoin="round"/>
<path d="M52.1088 117.718C57.6768 116.968 60.9458 113.611 59.4268 110.246C57.9208 106.909 52.2647 104.819 46.7787 105.553C41.2927 106.287 37.9788 109.582 39.4048 112.935C40.8418 116.317 46.5368 118.47 52.1088 117.718Z" fill="white" stroke="black" stroke-width="5" stroke-linecap="round" stroke-linejoin="round"/>
<path d="M52.1089 117.719L60.4839 136.833" stroke="black" stroke-width="5" stroke-linecap="round" stroke-linejoin="round"/>
<path d="M46.7787 105.555L38.0527 85.6406" stroke="black" stroke-width="5" stroke-linecap="round" stroke-linejoin="round"/>
<path d="M80.7619 128.128L58.4219 80.3516" stroke="black" stroke-width="5" stroke-linecap="round" stroke-linejoin="round"/>
<path d="M97.718 113.573L79.874 77.6797" stroke="black" stroke-width="5" stroke-linecap="round" stroke-linejoin="round"/>
<path d="M34.2628 132.015L19.7998 96.6406" stroke="black" stroke-width="5" stroke-linecap="round" stroke-linejoin="round"/>
<path d="M116.988 104.861L102.907 78.1328" stroke="black" stroke-width="5" stroke-linecap="round" stroke-linejoin="round"/>
<path d="M129.959 85.5859L137.881 99.8179" stroke="black" stroke-width="5" stroke-linecap="round" stroke-linejoin="round"/>
<path d="M57.621 48.3073C59.1225 46.8057 60.3136 45.0231 61.1262 43.0613C61.9389 41.0994 62.3572 38.9968 62.3572 36.8733C62.3572 34.7498 61.9389 32.6472 61.1262 30.6853C60.3136 28.7235 59.1225 26.9409 57.621 25.4393C54.5884 22.4067 52.8848 18.2935 52.8848 14.0048C52.8848 9.71601 54.5884 5.60295 57.621 2.57031" fill="white"/>
<path d="M57.621 48.3073C59.1225 46.8057 60.3136 45.0231 61.1262 43.0613C61.9389 41.0994 62.3572 38.9968 62.3572 36.8733C62.3572 34.7498 61.9389 32.6472 61.1262 30.6853C60.3136 28.7235 59.1225 26.9409 57.621 25.4393C54.5884 22.4067 52.8848 18.2935 52.8848 14.0048C52.8848 9.71601 54.5884 5.60295 57.621 2.57031" stroke="black" stroke-width="5" stroke-linecap="round" stroke-linejoin="round"/>
<path d="M107.115 48.3073C108.617 46.8057 109.808 45.0231 110.62 43.0613C111.433 41.0994 111.851 38.9968 111.851 36.8733C111.851 34.7498 111.433 32.6472 110.62 30.6853C109.808 28.7235 108.617 26.9409 107.115 25.4393C104.083 22.4067 102.379 18.2935 102.379 14.0048C102.379 9.71601 104.083 5.60295 107.115 2.57031" fill="white"/>
<path d="M107.115 48.3073C108.617 46.8057 109.808 45.0231 110.62 43.0613C111.433 41.0994 111.851 38.9968 111.851 36.8733C111.851 34.7498 111.433 32.6472 110.62 30.6853C109.808 28.7235 108.617 26.9409 107.115 25.4393C104.083 22.4067 102.379 18.2935 102.379 14.0048C102.379 9.71601 104.083 5.60295 107.115 2.57031" stroke="black" stroke-width="5" stroke-linecap="round" stroke-linejoin="round"/>
<path d="M82.3682 53.9183C84.054 52.2326 85.3912 50.2313 86.3036 48.0287C87.2159 45.8261 87.6854 43.4654 87.6854 41.0813C87.6854 38.6972 87.2159 36.3365 86.3036 34.1339C85.3912 31.9313 84.054 29.93 82.3682 28.2443C80.6822 26.5586 79.3448 24.5573 78.4324 22.3547C77.5199 20.1521 77.0503 17.7914 77.0503 15.4073C77.0503 13.0233 77.5199 10.6624 78.4324 8.45984C79.3448 6.25725 80.6822 4.25601 82.3682 2.57031" fill="white"/>
<path d="M82.3682 53.9183C84.054 52.2326 85.3912 50.2313 86.3036 48.0287C87.2159 45.8261 87.6854 43.4654 87.6854 41.0813C87.6854 38.6972 87.2159 36.3365 86.3036 34.1339C85.3912 31.9313 84.054 29.93 82.3682 28.2443C80.6822 26.5586 79.3448 24.5573 78.4324 22.3547C77.5199 20.1521 77.0503 17.7914 77.0503 15.4073C77.0503 13.0233 77.5199 10.6624 78.4324 8.45984C79.3448 6.25725 80.6822 4.25601 82.3682 2.57031" stroke="black" stroke-width="5" stroke-linecap="round" stroke-linejoin="round"/>
</svg>
