<svg width="358" height="156" viewBox="0 0 358 156" fill="none" xmlns="http://www.w3.org/2000/svg">
<path d="M285.526 151.328H4.6001V4.82812H285.526L353.403 78.0771L285.526 151.328Z" fill="#EFCBF9" stroke="black" stroke-width="9.046" stroke-linejoin="round"/>
<path d="M70.4519 73.2282L31.9226 60.5192V52.7972L70.4519 40.0882V46.7645L38.1967 56.6582L70.4519 66.552V73.2282ZM92.0184 51.3494L91.4554 50.3841L103.923 35.262H82.9291V23.9203H118.482V24.2421L103.199 42.0187C113.093 43.9492 121.217 51.1081 121.217 60.7605C121.217 73.9522 106.819 80.6284 95.8794 80.6284C85.6639 80.6284 79.7116 76.8479 79.7116 70.7347C79.7116 66.4715 83.0095 63.254 87.2727 63.254C91.5358 63.254 94.9142 66.552 94.9142 70.8151C94.9142 74.0326 92.9033 76.7675 91.0532 78.2153C96.2816 79.8241 106.658 74.5152 106.658 63.1736C106.658 53.8429 99.1773 50.7863 92.0184 51.3494ZM166.915 35.262H139.405L137.636 49.8211C140.21 47.8101 146.403 44.834 152.516 44.834C163.134 44.834 171.419 51.0276 171.419 60.9214C171.419 74.113 157.343 80.6284 146.403 80.6284C135.705 80.6284 130.235 76.9283 130.235 70.8151C130.235 66.552 133.775 63.254 138.038 63.254C142.301 63.254 145.438 66.4715 145.438 70.7347C145.438 73.9522 143.427 76.7675 141.577 78.2153C149.058 79.7436 156.538 74.1935 156.538 63.3345C156.538 54.8886 151.471 51.0276 145.036 51.0276C141.336 51.0276 138.118 52.4755 135.625 54.406L134.016 53.682L137.957 23.9203H166.915V35.262ZM200.869 78.3762C207.304 78.3762 207.304 58.2669 207.304 52.1537C207.304 45.9601 206.982 25.0465 200.869 25.0465C194.755 25.0465 194.434 45.9601 194.434 52.1537C194.434 58.2669 194.434 78.3762 200.869 78.3762ZM200.869 80.6284C185.505 80.6284 178.668 63.0932 178.668 51.5102C178.668 39.9273 186.068 22.7942 200.869 22.7942C215.669 22.7942 223.15 39.5251 223.15 51.1081C223.15 62.691 216.232 80.6284 200.869 80.6284ZM237.017 86.3165H226.331V86.1786C228.02 85.2133 228.227 84.1102 228.227 81.6281V67.8045C228.227 64.7708 227.882 64.0124 225.986 63.1161V62.9783C228.985 62.7025 232.019 62.0475 234.466 61.427H234.604V64.1848C235.362 63.3919 237.5 61.427 239.878 61.427C244.119 61.427 246.394 65.0122 246.394 70.1142C246.394 77.4224 239.878 79.8356 235.983 79.8356C235.535 79.8356 235.052 79.8011 234.57 79.7666V81.6281C234.57 84.1102 234.811 85.1444 237.017 86.1786V86.3165ZM234.604 64.564V78.2498C235.225 78.5945 235.673 78.6635 236.293 78.6635C238.534 78.6635 240.051 75.8712 240.051 70.7347C240.051 66.7013 238.706 64.1503 236.155 64.1503C235.604 64.1503 234.949 64.3916 234.604 64.564ZM257.755 86.3165H247.068V86.1786C248.757 85.2133 248.964 84.1102 248.964 81.6281V67.8045C248.964 64.7708 248.619 64.0124 246.723 63.1161V62.9783C249.723 62.7025 252.756 62.0475 255.204 61.427H255.342V64.1848C256.1 63.3919 258.237 61.427 260.616 61.427C264.856 61.427 267.131 65.0122 267.131 70.1142C267.131 77.4224 260.616 79.8356 256.721 79.8356C256.273 79.8356 255.79 79.8011 255.307 79.7666V81.6281C255.307 84.1102 255.549 85.1444 257.755 86.1786V86.3165ZM255.342 64.564V78.2498C255.962 78.5945 256.41 78.6635 257.031 78.6635C259.272 78.6635 260.788 75.8712 260.788 70.7347C260.788 66.7013 259.444 64.1503 256.893 64.1503C256.341 64.1503 255.686 64.3916 255.342 64.564ZM299.176 79.4219H289.145V79.284C290.834 78.3187 291.041 77.2156 291.041 74.7335V67.115C291.041 65.0811 289.524 64.2193 288.076 64.2193C287.421 64.2193 286.594 64.3227 286.249 64.4606C286.525 65.1845 286.663 66.0464 286.663 67.115V74.7335C286.663 77.2156 286.869 78.3187 288.559 79.284V79.4219H278.527V79.284C280.216 78.3187 280.423 77.2156 280.423 74.7335V67.115C280.423 65.0811 279.182 64.2193 277.734 64.2193C277.148 64.2193 276.424 64.3227 276.045 64.4261V74.7335C276.045 77.2156 276.252 78.3187 277.941 79.284V79.4219H267.909V79.284C269.598 78.3187 269.805 77.2156 269.805 74.7335V67.8045C269.805 64.7708 269.461 64.0124 267.565 63.1161V62.9783C270.564 62.7025 273.459 62.0475 275.907 61.427H276.045V64.0814C277.217 62.7025 279.423 61.427 281.836 61.427C283.663 61.427 285.422 62.1854 286.214 64.2882C287.318 62.8748 289.903 61.427 292.454 61.427C294.971 61.427 297.28 62.8404 297.28 67.115V74.7335C297.28 77.2156 297.487 78.3187 299.176 79.284V79.4219Z" fill="black"/>
<path d="M41.7941 101.97C41.4053 101.465 40.9129 101.076 40.3169 100.804C39.7208 100.532 39.1053 100.396 38.4704 100.396C37.6929 100.396 36.9867 100.545 36.3517 100.843C35.7297 101.128 35.192 101.523 34.7384 102.029C34.2979 102.534 33.9545 103.13 33.7083 103.817C33.4621 104.491 33.339 105.216 33.339 105.994C33.339 106.719 33.4556 107.406 33.6889 108.054C33.9221 108.702 34.259 109.272 34.6996 109.765C35.1401 110.257 35.6779 110.646 36.3128 110.931C36.9478 111.216 37.667 111.358 38.4704 111.358C39.2608 111.358 39.954 111.196 40.5501 110.872C41.1462 110.548 41.6515 110.095 42.0662 109.512L43.6406 110.697C43.5369 110.84 43.3555 111.047 43.0964 111.319C42.8372 111.579 42.4938 111.844 42.0662 112.116C41.6386 112.376 41.1203 112.602 40.5112 112.797C39.9152 113.004 39.2219 113.108 38.4315 113.108C37.343 113.108 36.3582 112.9 35.4771 112.486C34.6089 112.071 33.8638 111.527 33.2418 110.853C32.6328 110.179 32.1663 109.421 31.8423 108.579C31.5184 107.724 31.3564 106.862 31.3564 105.994C31.3564 104.931 31.5313 103.953 31.8812 103.059C32.2311 102.152 32.717 101.374 33.339 100.726C33.9739 100.065 34.732 99.5536 35.6131 99.1908C36.4943 98.828 37.4661 98.6466 38.5287 98.6466C39.4357 98.6466 40.3233 98.8215 41.1915 99.1713C42.0727 99.5212 42.7918 100.059 43.349 100.785L41.7941 101.97ZM52.2143 113.108C51.1647 113.108 50.1993 112.926 49.3182 112.563C48.437 112.188 47.679 111.676 47.044 111.028C46.4221 110.38 45.9297 109.615 45.5668 108.734C45.217 107.853 45.042 106.901 45.042 105.877C45.042 104.853 45.217 103.901 45.5668 103.02C45.9297 102.139 46.4221 101.374 47.044 100.726C47.679 100.078 48.437 99.573 49.3182 99.2102C50.1993 98.8344 51.1647 98.6466 52.2143 98.6466C53.2639 98.6466 54.2293 98.8344 55.1104 99.2102C55.9915 99.573 56.7431 100.078 57.3651 100.726C58 101.374 58.4924 102.139 58.8423 103.02C59.2051 103.901 59.3865 104.853 59.3865 105.877C59.3865 106.901 59.2051 107.853 58.8423 108.734C58.4924 109.615 58 110.38 57.3651 111.028C56.7431 111.676 55.9915 112.188 55.1104 112.563C54.2293 112.926 53.2639 113.108 52.2143 113.108ZM52.2143 111.358C53.0047 111.358 53.7174 111.216 54.3524 110.931C54.9873 110.633 55.5315 110.237 55.9851 109.745C56.4386 109.253 56.7885 108.676 57.0347 108.015C57.2809 107.341 57.404 106.629 57.404 105.877C57.404 105.126 57.2809 104.419 57.0347 103.758C56.7885 103.085 56.4386 102.502 55.9851 102.009C55.5315 101.517 54.9873 101.128 54.3524 100.843C53.7174 100.545 53.0047 100.396 52.2143 100.396C51.4238 100.396 50.7112 100.545 50.0762 100.843C49.4413 101.128 48.897 101.517 48.4435 102.009C47.99 102.502 47.6401 103.085 47.3939 103.758C47.1477 104.419 47.0246 105.126 47.0246 105.877C47.0246 106.629 47.1477 107.341 47.3939 108.015C47.6401 108.676 47.99 109.253 48.4435 109.745C48.897 110.237 49.4413 110.633 50.0762 110.931C50.7112 111.216 51.4238 111.358 52.2143 111.358ZM61.1948 110.775L66.7149 105.294C66.9093 105.113 67.0972 104.918 67.2786 104.711C67.46 104.491 67.622 104.264 67.7645 104.031C67.907 103.797 68.0172 103.551 68.0949 103.292C68.1856 103.033 68.231 102.761 68.231 102.476C68.231 102.139 68.1662 101.834 68.0366 101.562C67.92 101.29 67.7515 101.063 67.5313 100.882C67.3239 100.687 67.0712 100.538 66.7732 100.435C66.4881 100.331 66.1836 100.279 65.8597 100.279C65.1859 100.279 64.6287 100.467 64.1881 100.843C63.7475 101.219 63.4689 101.737 63.3523 102.398L61.3308 102.223C61.4216 101.614 61.5965 101.089 61.8556 100.649C62.1278 100.195 62.4582 99.8192 62.8469 99.5212C63.2486 99.2232 63.7022 99.0029 64.2075 98.8604C64.7258 98.7178 65.283 98.6466 65.8791 98.6466C66.4752 98.6466 67.0324 98.7308 67.5507 98.8992C68.082 99.0547 68.542 99.2944 68.9307 99.6184C69.3324 99.9294 69.6434 100.325 69.8637 100.804C70.0969 101.271 70.2136 101.821 70.2136 102.456C70.2136 102.91 70.1423 103.337 69.9997 103.739C69.8702 104.128 69.6952 104.497 69.475 104.847C69.2547 105.197 69.002 105.527 68.7169 105.838C68.4318 106.149 68.1338 106.454 67.8228 106.752L63.294 111.125H70.2136V112.758H61.1948V110.775ZM84.4217 105.994C84.0978 105.657 83.7544 105.404 83.3915 105.236C83.0417 105.054 82.6205 104.964 82.1281 104.964C81.6487 104.964 81.2276 105.054 80.8647 105.236C80.5149 105.404 80.2168 105.644 79.9706 105.955C79.7374 106.253 79.556 106.603 79.4264 107.004C79.3098 107.393 79.2515 107.801 79.2515 108.229C79.2515 108.657 79.3227 109.065 79.4653 109.454C79.6078 109.829 79.8087 110.16 80.0678 110.445C80.327 110.73 80.638 110.957 81.0008 111.125C81.3636 111.281 81.7718 111.358 82.2253 111.358C82.7177 111.358 83.1389 111.274 83.4887 111.106C83.8386 110.924 84.1625 110.665 84.4606 110.328L85.7045 111.572C85.251 112.078 84.7197 112.44 84.1107 112.661C83.5146 112.881 82.8797 112.991 82.2059 112.991C81.4932 112.991 80.8388 112.874 80.2427 112.641C79.6596 112.408 79.1543 112.084 78.7267 111.669C78.299 111.242 77.9686 110.736 77.7354 110.153C77.5021 109.557 77.3855 108.903 77.3855 108.19C77.3855 107.477 77.5021 106.823 77.7354 106.227C77.9686 105.631 78.2926 105.119 78.7072 104.691C79.1348 104.264 79.6402 103.933 80.2233 103.7C80.8194 103.454 81.4802 103.331 82.2059 103.331C82.8797 103.331 83.5211 103.454 84.1301 103.7C84.7521 103.933 85.2899 104.296 85.7434 104.789L84.4217 105.994ZM88.6283 108.151C88.6283 108.618 88.6996 109.052 88.8421 109.454C88.9846 109.842 89.1855 110.179 89.4446 110.464C89.7038 110.736 90.0213 110.957 90.3971 111.125C90.7728 111.281 91.194 111.358 91.6605 111.358C92.1269 111.358 92.5481 111.281 92.9239 111.125C93.2996 110.957 93.6171 110.736 93.8763 110.464C94.1354 110.179 94.3363 109.842 94.4788 109.454C94.6214 109.052 94.6926 108.618 94.6926 108.151C94.6926 107.685 94.6214 107.257 94.4788 106.868C94.3363 106.467 94.1354 106.13 93.8763 105.858C93.6171 105.573 93.2996 105.352 92.9239 105.197C92.5481 105.028 92.1269 104.944 91.6605 104.944C91.194 104.944 90.7728 105.028 90.3971 105.197C90.0213 105.352 89.7038 105.573 89.4446 105.858C89.1855 106.13 88.9846 106.467 88.8421 106.868C88.6996 107.257 88.6283 107.685 88.6283 108.151ZM86.7623 108.151C86.7623 107.477 86.8854 106.849 87.1316 106.266C87.3908 105.683 87.7407 105.171 88.1812 104.73C88.6218 104.29 89.1401 103.946 89.7362 103.7C90.3323 103.441 90.9737 103.311 91.6605 103.311C92.3472 103.311 92.9887 103.441 93.5847 103.7C94.1808 103.946 94.6991 104.29 95.1397 104.73C95.5803 105.171 95.9236 105.683 96.1698 106.266C96.429 106.849 96.5586 107.477 96.5586 108.151C96.5586 108.825 96.429 109.46 96.1698 110.056C95.9236 110.639 95.5803 111.151 95.1397 111.592C94.6991 112.019 94.1808 112.363 93.5847 112.622C92.9887 112.868 92.3472 112.991 91.6605 112.991C90.9737 112.991 90.3323 112.868 89.7362 112.622C89.1401 112.363 88.6218 112.019 88.1812 111.592C87.7407 111.151 87.3908 110.639 87.1316 110.056C86.8854 109.46 86.7623 108.825 86.7623 108.151ZM98.7501 103.545H100.499V104.964H100.538C100.759 104.471 101.141 104.076 101.685 103.778C102.229 103.467 102.858 103.311 103.57 103.311C104.011 103.311 104.432 103.383 104.834 103.525C105.249 103.655 105.605 103.862 105.903 104.147C106.214 104.432 106.46 104.802 106.642 105.255C106.823 105.696 106.914 106.221 106.914 106.83V112.758H105.164V107.315C105.164 106.888 105.106 106.525 104.989 106.227C104.873 105.916 104.717 105.67 104.523 105.488C104.329 105.294 104.102 105.158 103.843 105.08C103.596 104.989 103.337 104.944 103.065 104.944C102.702 104.944 102.365 105.002 102.054 105.119C101.743 105.236 101.471 105.424 101.238 105.683C101.005 105.929 100.823 106.246 100.694 106.635C100.564 107.024 100.499 107.484 100.499 108.015V112.758H98.7501V103.545ZM116.14 105.994C115.816 105.657 115.472 105.404 115.11 105.236C114.76 105.054 114.339 104.964 113.846 104.964C113.367 104.964 112.946 105.054 112.583 105.236C112.233 105.404 111.935 105.644 111.689 105.955C111.455 106.253 111.274 106.603 111.144 107.004C111.028 107.393 110.969 107.801 110.969 108.229C110.969 108.657 111.041 109.065 111.183 109.454C111.326 109.829 111.527 110.16 111.786 110.445C112.045 110.73 112.356 110.957 112.719 111.125C113.082 111.281 113.49 111.358 113.943 111.358C114.436 111.358 114.857 111.274 115.207 111.106C115.557 110.924 115.881 110.665 116.179 110.328L117.423 111.572C116.969 112.078 116.438 112.44 115.829 112.661C115.233 112.881 114.598 112.991 113.924 112.991C113.211 112.991 112.557 112.874 111.961 112.641C111.378 112.408 110.872 112.084 110.445 111.669C110.017 111.242 109.687 110.736 109.453 110.153C109.22 109.557 109.104 108.903 109.104 108.19C109.104 107.477 109.22 106.823 109.453 106.227C109.687 105.631 110.011 105.119 110.425 104.691C110.853 104.264 111.358 103.933 111.941 103.7C112.537 103.454 113.198 103.331 113.924 103.331C114.598 103.331 115.239 103.454 115.848 103.7C116.47 103.933 117.008 104.296 117.461 104.789L116.14 105.994ZM120.249 108.793C120.249 109.194 120.333 109.564 120.502 109.901C120.683 110.225 120.916 110.503 121.202 110.736C121.487 110.97 121.817 111.151 122.193 111.281C122.569 111.41 122.957 111.475 123.359 111.475C123.903 111.475 124.376 111.352 124.778 111.106C125.18 110.847 125.549 110.51 125.886 110.095L127.208 111.106C126.236 112.363 124.875 112.991 123.126 112.991C122.4 112.991 121.739 112.868 121.143 112.622C120.56 112.376 120.061 112.039 119.647 111.611C119.245 111.17 118.934 110.659 118.714 110.076C118.493 109.479 118.383 108.838 118.383 108.151C118.383 107.464 118.5 106.83 118.733 106.246C118.979 105.65 119.31 105.139 119.724 104.711C120.152 104.27 120.657 103.927 121.24 103.681C121.823 103.435 122.458 103.311 123.145 103.311C123.962 103.311 124.648 103.454 125.206 103.739C125.776 104.024 126.242 104.4 126.605 104.866C126.968 105.32 127.227 105.838 127.382 106.421C127.551 106.992 127.635 107.575 127.635 108.171V108.793H120.249ZM125.769 107.393C125.756 107.004 125.691 106.648 125.575 106.324C125.471 106 125.309 105.722 125.089 105.488C124.869 105.242 124.59 105.054 124.253 104.925C123.929 104.782 123.547 104.711 123.106 104.711C122.679 104.711 122.284 104.795 121.921 104.964C121.571 105.119 121.273 105.326 121.027 105.586C120.78 105.845 120.586 106.136 120.443 106.46C120.314 106.771 120.249 107.082 120.249 107.393H125.769ZM129.728 103.545H131.477V104.964H131.516C131.736 104.471 132.119 104.076 132.663 103.778C133.207 103.467 133.836 103.311 134.548 103.311C134.989 103.311 135.41 103.383 135.812 103.525C136.226 103.655 136.583 103.862 136.881 104.147C137.192 104.432 137.438 104.802 137.619 105.255C137.801 105.696 137.891 106.221 137.891 106.83V112.758H136.142V107.315C136.142 106.888 136.084 106.525 135.967 106.227C135.85 105.916 135.695 105.67 135.501 105.488C135.306 105.294 135.079 105.158 134.82 105.08C134.574 104.989 134.315 104.944 134.043 104.944C133.68 104.944 133.343 105.002 133.032 105.119C132.721 105.236 132.449 105.424 132.216 105.683C131.983 105.929 131.801 106.246 131.672 106.635C131.542 107.024 131.477 107.484 131.477 108.015V112.758H129.728V103.545ZM145.465 105.061H142.958V109.24C142.958 109.499 142.964 109.758 142.977 110.017C142.99 110.263 143.036 110.49 143.113 110.697C143.204 110.892 143.334 111.054 143.502 111.183C143.684 111.3 143.943 111.358 144.28 111.358C144.487 111.358 144.701 111.339 144.921 111.3C145.141 111.261 145.342 111.19 145.524 111.086V112.68C145.316 112.797 145.044 112.874 144.707 112.913C144.383 112.965 144.131 112.991 143.949 112.991C143.275 112.991 142.751 112.9 142.375 112.719C142.012 112.525 141.74 112.278 141.558 111.98C141.39 111.682 141.286 111.352 141.247 110.989C141.222 110.613 141.209 110.237 141.209 109.862V105.061H139.187V103.545H141.209V100.96H142.958V103.545H145.465V105.061ZM147.722 103.545H149.472V104.964H149.51C149.627 104.717 149.783 104.497 149.977 104.303C150.171 104.095 150.385 103.92 150.618 103.778C150.865 103.635 151.13 103.525 151.415 103.447C151.7 103.357 151.985 103.311 152.27 103.311C152.556 103.311 152.815 103.35 153.048 103.428L152.97 105.313C152.828 105.275 152.685 105.242 152.543 105.216C152.4 105.19 152.258 105.177 152.115 105.177C151.26 105.177 150.605 105.417 150.152 105.897C149.698 106.376 149.472 107.121 149.472 108.132V112.758H147.722V103.545ZM154.955 104.672C155.447 104.218 156.018 103.882 156.666 103.661C157.313 103.428 157.961 103.311 158.609 103.311C159.283 103.311 159.86 103.396 160.339 103.564C160.832 103.733 161.233 103.959 161.544 104.244C161.855 104.529 162.082 104.86 162.225 105.236C162.38 105.599 162.458 105.981 162.458 106.382V111.086C162.458 111.41 162.464 111.708 162.477 111.98C162.49 112.252 162.51 112.512 162.536 112.758H160.981C160.942 112.291 160.922 111.825 160.922 111.358H160.883C160.495 111.954 160.035 112.376 159.503 112.622C158.972 112.868 158.357 112.991 157.657 112.991C157.229 112.991 156.821 112.933 156.432 112.816C156.044 112.7 155.7 112.525 155.402 112.291C155.117 112.058 154.89 111.773 154.722 111.436C154.553 111.086 154.469 110.685 154.469 110.231C154.469 109.635 154.599 109.136 154.858 108.734C155.13 108.333 155.493 108.009 155.946 107.763C156.413 107.503 156.951 107.322 157.56 107.218C158.182 107.102 158.842 107.043 159.542 107.043H160.825V106.655C160.825 106.421 160.78 106.188 160.689 105.955C160.598 105.722 160.462 105.514 160.281 105.333C160.099 105.139 159.873 104.989 159.601 104.886C159.328 104.769 159.004 104.711 158.629 104.711C158.292 104.711 157.994 104.743 157.735 104.808C157.488 104.873 157.262 104.957 157.054 105.061C156.847 105.151 156.659 105.262 156.491 105.391C156.322 105.521 156.16 105.644 156.005 105.76L154.955 104.672ZM159.892 108.326C159.477 108.326 159.05 108.352 158.609 108.404C158.182 108.443 157.786 108.527 157.424 108.657C157.074 108.786 156.782 108.968 156.549 109.201C156.329 109.434 156.218 109.732 156.218 110.095C156.218 110.626 156.393 111.008 156.743 111.242C157.106 111.475 157.592 111.592 158.201 111.592C158.681 111.592 159.089 111.514 159.426 111.358C159.762 111.19 160.035 110.976 160.242 110.717C160.449 110.458 160.598 110.173 160.689 109.862C160.78 109.538 160.825 109.22 160.825 108.909V108.326H159.892ZM169.932 105.061H167.425V109.24C167.425 109.499 167.431 109.758 167.444 110.017C167.457 110.263 167.503 110.49 167.58 110.697C167.671 110.892 167.801 111.054 167.969 111.183C168.151 111.3 168.41 111.358 168.747 111.358C168.954 111.358 169.168 111.339 169.388 111.3C169.608 111.261 169.809 111.19 169.991 111.086V112.68C169.783 112.797 169.511 112.874 169.174 112.913C168.85 112.965 168.598 112.991 168.416 112.991C167.742 112.991 167.218 112.9 166.842 112.719C166.479 112.525 166.207 112.278 166.026 111.98C165.857 111.682 165.753 111.352 165.715 110.989C165.689 110.613 165.676 110.237 165.676 109.862V105.061H163.654V103.545H165.676V100.96H167.425V103.545H169.932V105.061ZM172.325 103.545H174.075V112.758H172.325V103.545ZM171.917 100.24C171.917 99.8905 172.04 99.5925 172.287 99.3463C172.546 99.0871 172.85 98.9575 173.2 98.9575C173.55 98.9575 173.848 99.0871 174.094 99.3463C174.353 99.5925 174.483 99.8905 174.483 100.24C174.483 100.59 174.353 100.895 174.094 101.154C173.848 101.4 173.55 101.523 173.2 101.523C172.85 101.523 172.546 101.4 172.287 101.154C172.04 100.895 171.917 100.59 171.917 100.24ZM178.278 108.151C178.278 108.618 178.349 109.052 178.491 109.454C178.634 109.842 178.835 110.179 179.094 110.464C179.353 110.736 179.671 110.957 180.046 111.125C180.422 111.281 180.843 111.358 181.31 111.358C181.776 111.358 182.197 111.281 182.573 111.125C182.949 110.957 183.266 110.736 183.526 110.464C183.785 110.179 183.986 109.842 184.128 109.454C184.271 109.052 184.342 108.618 184.342 108.151C184.342 107.685 184.271 107.257 184.128 106.868C183.986 106.467 183.785 106.13 183.526 105.858C183.266 105.573 182.949 105.352 182.573 105.197C182.197 105.028 181.776 104.944 181.31 104.944C180.843 104.944 180.422 105.028 180.046 105.197C179.671 105.352 179.353 105.573 179.094 105.858C178.835 106.13 178.634 106.467 178.491 106.868C178.349 107.257 178.278 107.685 178.278 108.151ZM176.412 108.151C176.412 107.477 176.535 106.849 176.781 106.266C177.04 105.683 177.39 105.171 177.831 104.73C178.271 104.29 178.79 103.946 179.386 103.7C179.982 103.441 180.623 103.311 181.31 103.311C181.997 103.311 182.638 103.441 183.234 103.7C183.83 103.946 184.348 104.29 184.789 104.73C185.23 105.171 185.573 105.683 185.819 106.266C186.078 106.849 186.208 107.477 186.208 108.151C186.208 108.825 186.078 109.46 185.819 110.056C185.573 110.639 185.23 111.151 184.789 111.592C184.348 112.019 183.83 112.363 183.234 112.622C182.638 112.868 181.997 112.991 181.31 112.991C180.623 112.991 179.982 112.868 179.386 112.622C178.79 112.363 178.271 112.019 177.831 111.592C177.39 111.151 177.04 110.639 176.781 110.056C176.535 109.46 176.412 108.825 176.412 108.151ZM188.399 103.545H190.149V104.964H190.188C190.408 104.471 190.79 104.076 191.334 103.778C191.879 103.467 192.507 103.311 193.22 103.311C193.66 103.311 194.082 103.383 194.483 103.525C194.898 103.655 195.254 103.862 195.552 104.147C195.863 104.432 196.109 104.802 196.291 105.255C196.472 105.696 196.563 106.221 196.563 106.83V112.758H194.814V107.315C194.814 106.888 194.755 106.525 194.639 106.227C194.522 105.916 194.367 105.67 194.172 105.488C193.978 105.294 193.751 105.158 193.492 105.08C193.246 104.989 192.987 104.944 192.714 104.944C192.352 104.944 192.015 105.002 191.704 105.119C191.393 105.236 191.121 105.424 190.887 105.683C190.654 105.929 190.473 106.246 190.343 106.635C190.214 107.024 190.149 107.484 190.149 108.015V112.758H188.399V103.545ZM205.29 105.061H203.307V103.545H205.29V101.484C205.29 100.253 205.523 99.3398 205.99 98.7437C206.469 98.1347 207.285 97.8302 208.439 97.8302C208.633 97.8302 208.834 97.8367 209.041 97.8496C209.262 97.8626 209.495 97.9015 209.741 97.9663L209.547 99.5212C209.378 99.4564 209.216 99.4111 209.061 99.3852C208.905 99.3592 208.737 99.3463 208.555 99.3463C208.231 99.3463 207.972 99.3981 207.778 99.5018C207.583 99.5925 207.428 99.7285 207.311 99.91C207.208 100.091 207.136 100.312 207.098 100.571C207.072 100.817 207.059 101.102 207.059 101.426V103.545H209.138V105.061H207.039V112.758H205.29V105.061ZM212.501 108.151C212.501 108.618 212.572 109.052 212.715 109.454C212.858 109.842 213.058 110.179 213.318 110.464C213.577 110.736 213.894 110.957 214.27 111.125C214.646 111.281 215.067 111.358 215.533 111.358C216 111.358 216.421 111.281 216.797 111.125C217.173 110.957 217.49 110.736 217.749 110.464C218.008 110.179 218.209 109.842 218.352 109.454C218.494 109.052 218.566 108.618 218.566 108.151C218.566 107.685 218.494 107.257 218.352 106.868C218.209 106.467 218.008 106.13 217.749 105.858C217.49 105.573 217.173 105.352 216.797 105.197C216.421 105.028 216 104.944 215.533 104.944C215.067 104.944 214.646 105.028 214.27 105.197C213.894 105.352 213.577 105.573 213.318 105.858C213.058 106.13 212.858 106.467 212.715 106.868C212.572 107.257 212.501 107.685 212.501 108.151ZM210.635 108.151C210.635 107.477 210.758 106.849 211.005 106.266C211.264 105.683 211.614 105.171 212.054 104.73C212.495 104.29 213.013 103.946 213.609 103.7C214.205 103.441 214.847 103.311 215.533 103.311C216.22 103.311 216.862 103.441 217.458 103.7C218.054 103.946 218.572 104.29 219.013 104.73C219.453 105.171 219.797 105.683 220.043 106.266C220.302 106.849 220.432 107.477 220.432 108.151C220.432 108.825 220.302 109.46 220.043 110.056C219.797 110.639 219.453 111.151 219.013 111.592C218.572 112.019 218.054 112.363 217.458 112.622C216.862 112.868 216.22 112.991 215.533 112.991C214.847 112.991 214.205 112.868 213.609 112.622C213.013 112.363 212.495 112.019 212.054 111.592C211.614 111.151 211.264 110.639 211.005 110.056C210.758 109.46 210.635 108.825 210.635 108.151ZM222.623 103.545H224.372V104.964H224.411C224.528 104.717 224.683 104.497 224.878 104.303C225.072 104.095 225.286 103.92 225.519 103.778C225.765 103.635 226.031 103.525 226.316 103.447C226.601 103.357 226.886 103.311 227.171 103.311C227.456 103.311 227.716 103.35 227.949 103.428L227.871 105.313C227.728 105.275 227.586 105.242 227.443 105.216C227.301 105.19 227.158 105.177 227.016 105.177C226.161 105.177 225.506 105.417 225.053 105.897C224.599 106.376 224.372 107.121 224.372 108.132V112.758H222.623V103.545Z" fill="black"/>
<path d="M31.8035 124.203C32.2959 123.75 32.866 123.413 33.5139 123.193C34.1618 122.959 34.8097 122.843 35.4576 122.843C36.1314 122.843 36.7081 122.927 37.1875 123.095C37.6799 123.264 38.0816 123.491 38.3926 123.776C38.7036 124.061 38.9304 124.391 39.0729 124.767C39.2284 125.13 39.3061 125.512 39.3061 125.914V130.617C39.3061 130.941 39.3126 131.239 39.3256 131.512C39.3385 131.784 39.358 132.043 39.3839 132.289H37.8289C37.7901 131.823 37.7706 131.356 37.7706 130.89H37.7317C37.343 131.486 36.883 131.907 36.3517 132.153C35.8204 132.399 35.2049 132.522 34.5052 132.522C34.0776 132.522 33.6694 132.464 33.2807 132.347C32.8919 132.231 32.5485 132.056 32.2505 131.823C31.9654 131.589 31.7387 131.304 31.5702 130.967C31.4018 130.617 31.3175 130.216 31.3175 129.762C31.3175 129.166 31.4471 128.667 31.7063 128.266C31.9784 127.864 32.3412 127.54 32.7947 127.294C33.2612 127.035 33.799 126.853 34.408 126.75C35.03 126.633 35.6909 126.575 36.3906 126.575H37.6734V126.186C37.6734 125.953 37.6281 125.719 37.5374 125.486C37.4467 125.253 37.3106 125.046 37.1292 124.864C36.9478 124.67 36.721 124.521 36.4489 124.417C36.1768 124.3 35.8528 124.242 35.4771 124.242C35.1401 124.242 34.8421 124.275 34.583 124.339C34.3368 124.404 34.11 124.488 33.9027 124.592C33.6953 124.683 33.5074 124.793 33.339 124.922C33.1705 125.052 33.0086 125.175 32.8531 125.292L31.8035 124.203ZM36.7405 127.857C36.3258 127.857 35.8982 127.883 35.4576 127.935C35.03 127.974 34.6348 128.058 34.272 128.188C33.9221 128.317 33.6305 128.499 33.3973 128.732C33.177 128.965 33.0669 129.263 33.0669 129.626C33.0669 130.157 33.2418 130.54 33.5917 130.773C33.9545 131.006 34.4404 131.123 35.0494 131.123C35.5289 131.123 35.9371 131.045 36.274 130.89C36.6109 130.721 36.883 130.507 37.0903 130.248C37.2977 129.989 37.4467 129.704 37.5374 129.393C37.6281 129.069 37.6734 128.752 37.6734 128.441V127.857H36.7405ZM52.1904 124.592H49.6831V128.771C49.6831 129.03 49.6896 129.289 49.7025 129.548C49.7155 129.795 49.7608 130.021 49.8386 130.229C49.9293 130.423 50.0589 130.585 50.2273 130.715C50.4087 130.831 50.6679 130.89 51.0048 130.89C51.2121 130.89 51.4259 130.87 51.6462 130.831C51.8665 130.792 52.0673 130.721 52.2488 130.617V132.211C52.0414 132.328 51.7693 132.406 51.4324 132.445C51.1085 132.496 50.8558 132.522 50.6744 132.522C50.0005 132.522 49.4757 132.432 49.1 132.25C48.7371 132.056 48.465 131.81 48.2836 131.512C48.1152 131.214 48.0115 130.883 47.9726 130.52C47.9467 130.145 47.9337 129.769 47.9337 129.393V124.592H45.9123V123.076H47.9337V120.491H49.6831V123.076H52.1904V124.592ZM54.4474 117.595H56.1967V124.495H56.2356C56.4559 124.002 56.8382 123.607 57.3824 123.309C57.9266 122.998 58.5551 122.843 59.2678 122.843C59.7084 122.843 60.1295 122.914 60.5312 123.056C60.9459 123.186 61.3022 123.393 61.6002 123.678C61.9112 123.964 62.1574 124.333 62.3388 124.786C62.5202 125.227 62.611 125.752 62.611 126.361V132.289H60.8616V126.847C60.8616 126.419 60.8033 126.056 60.6867 125.758C60.5701 125.447 60.4146 125.201 60.2202 125.02C60.0258 124.825 59.7991 124.689 59.5399 124.611C59.2937 124.521 59.0345 124.475 58.7624 124.475C58.3996 124.475 58.0627 124.534 57.7517 124.65C57.4407 124.767 57.1686 124.955 56.9354 125.214C56.7021 125.46 56.5207 125.778 56.3911 126.166C56.2615 126.555 56.1967 127.015 56.1967 127.546V132.289H54.4474V117.595ZM65.2479 123.076H66.9972V124.495H67.0361C67.1527 124.249 67.3082 124.028 67.5025 123.834C67.6969 123.627 67.9107 123.452 68.144 123.309C68.3902 123.167 68.6558 123.056 68.9409 122.979C69.226 122.888 69.511 122.843 69.7961 122.843C70.0812 122.843 70.3403 122.882 70.5736 122.959L70.4958 124.845C70.3533 124.806 70.2108 124.773 70.0682 124.748C69.9257 124.722 69.7832 124.709 69.6406 124.709C68.7854 124.709 68.131 124.948 67.6775 125.428C67.224 125.907 66.9972 126.652 66.9972 127.663V132.289H65.2479V123.076ZM72.5779 123.076H74.3272V132.289H72.5779V123.076ZM72.1697 119.772C72.1697 119.422 72.2928 119.124 72.539 118.878C72.7982 118.618 73.1027 118.489 73.4525 118.489C73.8024 118.489 74.1004 118.618 74.3467 118.878C74.6058 119.124 74.7354 119.422 74.7354 119.772C74.7354 120.121 74.6058 120.426 74.3467 120.685C74.1004 120.931 73.8024 121.054 73.4525 121.054C73.1027 121.054 72.7982 120.931 72.539 120.685C72.2928 120.426 72.1697 120.121 72.1697 119.772ZM76.0034 123.076H78.0248L80.7849 130.132L83.4283 123.076H85.2942L81.679 132.289H79.7547L76.0034 123.076ZM86.9658 123.076H88.7152V132.289H86.9658V123.076ZM86.5576 119.772C86.5576 119.422 86.6807 119.124 86.9269 118.878C87.1861 118.618 87.4906 118.489 87.8405 118.489C88.1904 118.489 88.4884 118.618 88.7346 118.878C88.9937 119.124 89.1233 119.422 89.1233 119.772C89.1233 120.121 88.9937 120.426 88.7346 120.685C88.4884 120.931 88.1904 121.054 87.8405 121.054C87.4906 121.054 87.1861 120.931 86.9269 120.685C86.6807 120.426 86.5576 120.121 86.5576 119.772ZM91.4992 123.076H93.2485V124.495H93.2874C93.5077 124.002 93.8899 123.607 94.4342 123.309C94.9784 122.998 95.6069 122.843 96.3196 122.843C96.7601 122.843 97.1813 122.914 97.583 123.056C97.9976 123.186 98.354 123.393 98.652 123.678C98.963 123.964 99.2092 124.333 99.3906 124.786C99.572 125.227 99.6627 125.752 99.6627 126.361V132.289H97.9134V126.847C97.9134 126.419 97.8551 126.056 97.7385 125.758C97.6219 125.447 97.4664 125.201 97.272 125.02C97.0776 124.825 96.8508 124.689 96.5917 124.611C96.3455 124.521 96.0863 124.475 95.8142 124.475C95.4514 124.475 95.1145 124.534 94.8035 124.65C94.4925 124.767 94.2204 124.955 93.9871 125.214C93.7539 125.46 93.5725 125.778 93.4429 126.166C93.3133 126.555 93.2485 127.015 93.2485 127.546V132.289H91.4992V123.076ZM111.532 132.211C111.532 132.911 111.409 133.546 111.163 134.116C110.93 134.699 110.593 135.198 110.152 135.613C109.712 136.04 109.18 136.371 108.558 136.604C107.936 136.837 107.25 136.954 106.498 136.954C105.617 136.954 104.807 136.831 104.068 136.585C103.343 136.338 102.65 135.911 101.989 135.302L103.174 133.825C103.628 134.317 104.12 134.686 104.652 134.932C105.183 135.192 105.785 135.321 106.459 135.321C107.107 135.321 107.645 135.224 108.072 135.03C108.5 134.848 108.837 134.609 109.083 134.311C109.342 134.012 109.524 133.669 109.627 133.28C109.731 132.905 109.783 132.522 109.783 132.134V130.773H109.725C109.388 131.33 108.928 131.745 108.345 132.017C107.774 132.276 107.172 132.406 106.537 132.406C105.863 132.406 105.235 132.289 104.652 132.056C104.081 131.81 103.589 131.479 103.174 131.065C102.76 130.637 102.436 130.138 102.202 129.568C101.969 128.985 101.853 128.356 101.853 127.682C101.853 127.009 101.963 126.38 102.183 125.797C102.403 125.201 102.714 124.683 103.116 124.242C103.531 123.802 104.023 123.458 104.593 123.212C105.176 122.966 105.824 122.843 106.537 122.843C107.159 122.843 107.761 122.979 108.345 123.251C108.941 123.523 109.407 123.905 109.744 124.398H109.783V123.076H111.532V132.211ZM106.751 124.475C106.284 124.475 105.863 124.56 105.487 124.728C105.112 124.884 104.794 125.104 104.535 125.389C104.276 125.661 104.075 125.998 103.932 126.4C103.79 126.788 103.719 127.216 103.719 127.682C103.719 128.615 103.991 129.367 104.535 129.937C105.079 130.494 105.818 130.773 106.751 130.773C107.684 130.773 108.422 130.494 108.967 129.937C109.511 129.367 109.783 128.615 109.783 127.682C109.783 127.216 109.712 126.788 109.569 126.4C109.427 125.998 109.226 125.661 108.967 125.389C108.707 125.104 108.39 124.884 108.014 124.728C107.638 124.56 107.217 124.475 106.751 124.475ZM119.592 123.076H121.341V124.398H121.38C121.717 123.905 122.177 123.523 122.76 123.251C123.356 122.979 123.965 122.843 124.587 122.843C125.3 122.843 125.941 122.966 126.511 123.212C127.094 123.458 127.587 123.802 127.989 124.242C128.403 124.683 128.721 125.201 128.941 125.797C129.161 126.38 129.271 127.009 129.271 127.682C129.271 128.369 129.161 129.011 128.941 129.607C128.721 130.19 128.403 130.702 127.989 131.142C127.587 131.57 127.094 131.907 126.511 132.153C125.941 132.399 125.3 132.522 124.587 132.522C123.926 132.522 123.304 132.386 122.721 132.114C122.138 131.829 121.691 131.447 121.38 130.967H121.341V137.77H119.592V123.076ZM124.373 124.475C123.907 124.475 123.486 124.56 123.11 124.728C122.734 124.884 122.417 125.104 122.157 125.389C121.898 125.661 121.697 125.998 121.555 126.4C121.412 126.788 121.341 127.216 121.341 127.682C121.341 128.149 121.412 128.583 121.555 128.985C121.697 129.374 121.898 129.71 122.157 129.995C122.417 130.268 122.734 130.488 123.11 130.656C123.486 130.812 123.907 130.89 124.373 130.89C124.84 130.89 125.261 130.812 125.637 130.656C126.012 130.488 126.33 130.268 126.589 129.995C126.848 129.71 127.049 129.374 127.192 128.985C127.334 128.583 127.405 128.149 127.405 127.682C127.405 127.216 127.334 126.788 127.192 126.4C127.049 125.998 126.848 125.661 126.589 125.389C126.33 125.104 126.012 124.884 125.637 124.728C125.261 124.56 124.84 124.475 124.373 124.475ZM131.61 117.595H133.36V132.289H131.61V117.595ZM136.182 124.203C136.675 123.75 137.245 123.413 137.893 123.193C138.541 122.959 139.189 122.843 139.837 122.843C140.51 122.843 141.087 122.927 141.566 123.095C142.059 123.264 142.461 123.491 142.772 123.776C143.083 124.061 143.309 124.391 143.452 124.767C143.607 125.13 143.685 125.512 143.685 125.914V130.617C143.685 130.941 143.692 131.239 143.705 131.512C143.718 131.784 143.737 132.043 143.763 132.289H142.208C142.169 131.823 142.15 131.356 142.15 130.89H142.111C141.722 131.486 141.262 131.907 140.731 132.153C140.199 132.399 139.584 132.522 138.884 132.522C138.457 132.522 138.048 132.464 137.66 132.347C137.271 132.231 136.928 132.056 136.629 131.823C136.344 131.589 136.118 131.304 135.949 130.967C135.781 130.617 135.697 130.216 135.697 129.762C135.697 129.166 135.826 128.667 136.085 128.266C136.357 127.864 136.72 127.54 137.174 127.294C137.64 127.035 138.178 126.853 138.787 126.75C139.409 126.633 140.07 126.575 140.77 126.575H142.052V126.186C142.052 125.953 142.007 125.719 141.916 125.486C141.826 125.253 141.69 125.046 141.508 124.864C141.327 124.67 141.1 124.521 140.828 124.417C140.556 124.3 140.232 124.242 139.856 124.242C139.519 124.242 139.221 124.275 138.962 124.339C138.716 124.404 138.489 124.488 138.282 124.592C138.074 124.683 137.886 124.793 137.718 124.922C137.549 125.052 137.388 125.175 137.232 125.292L136.182 124.203ZM141.119 127.857C140.705 127.857 140.277 127.883 139.837 127.935C139.409 127.974 139.014 128.058 138.651 128.188C138.301 128.317 138.01 128.499 137.776 128.732C137.556 128.965 137.446 129.263 137.446 129.626C137.446 130.157 137.621 130.54 137.971 130.773C138.333 131.006 138.819 131.123 139.428 131.123C139.908 131.123 140.316 131.045 140.653 130.89C140.99 130.721 141.262 130.507 141.469 130.248C141.677 129.989 141.826 129.704 141.916 129.393C142.007 129.069 142.052 128.752 142.052 128.441V127.857H141.119ZM146.223 123.076H147.972V124.495H148.011C148.231 124.002 148.613 123.607 149.158 123.309C149.702 122.998 150.33 122.843 151.043 122.843C151.484 122.843 151.905 122.914 152.306 123.056C152.721 123.186 153.077 123.393 153.376 123.678C153.687 123.964 153.933 124.333 154.114 124.786C154.296 125.227 154.386 125.752 154.386 126.361V132.289H152.637V126.847C152.637 126.419 152.579 126.056 152.462 125.758C152.345 125.447 152.19 125.201 151.995 125.02C151.801 124.825 151.574 124.689 151.315 124.611C151.069 124.521 150.81 124.475 150.538 124.475C150.175 124.475 149.838 124.534 149.527 124.65C149.216 124.767 148.944 124.955 148.711 125.214C148.477 125.46 148.296 125.778 148.166 126.166C148.037 126.555 147.972 127.015 147.972 127.546V132.289H146.223V123.076ZM158.345 128.324C158.345 128.726 158.429 129.095 158.598 129.432C158.779 129.756 159.012 130.034 159.297 130.268C159.582 130.501 159.913 130.682 160.289 130.812C160.664 130.941 161.053 131.006 161.455 131.006C161.999 131.006 162.472 130.883 162.874 130.637C163.275 130.378 163.645 130.041 163.982 129.626L165.303 130.637C164.331 131.894 162.971 132.522 161.222 132.522C160.496 132.522 159.835 132.399 159.239 132.153C158.656 131.907 158.157 131.57 157.742 131.142C157.341 130.702 157.03 130.19 156.809 129.607C156.589 129.011 156.479 128.369 156.479 127.682C156.479 126.996 156.596 126.361 156.829 125.778C157.075 125.182 157.405 124.67 157.82 124.242C158.248 123.802 158.753 123.458 159.336 123.212C159.919 122.966 160.554 122.843 161.241 122.843C162.057 122.843 162.744 122.985 163.301 123.27C163.871 123.555 164.338 123.931 164.701 124.398C165.064 124.851 165.323 125.369 165.478 125.953C165.647 126.523 165.731 127.106 165.731 127.702V128.324H158.345ZM163.865 126.924C163.852 126.536 163.787 126.179 163.671 125.855C163.567 125.531 163.405 125.253 163.185 125.02C162.964 124.773 162.686 124.586 162.349 124.456C162.025 124.313 161.643 124.242 161.202 124.242C160.774 124.242 160.379 124.326 160.016 124.495C159.667 124.65 159.369 124.858 159.122 125.117C158.876 125.376 158.682 125.668 158.539 125.991C158.41 126.302 158.345 126.613 158.345 126.924H163.865ZM172.761 124.592H170.253V128.771C170.253 129.03 170.26 129.289 170.273 129.548C170.286 129.795 170.331 130.021 170.409 130.229C170.499 130.423 170.629 130.585 170.797 130.715C170.979 130.831 171.238 130.89 171.575 130.89C171.782 130.89 171.996 130.87 172.216 130.831C172.437 130.792 172.637 130.721 172.819 130.617V132.211C172.612 132.328 172.339 132.406 172.003 132.445C171.679 132.496 171.426 132.522 171.245 132.522C170.571 132.522 170.046 132.432 169.67 132.25C169.307 132.056 169.035 131.81 168.854 131.512C168.685 131.214 168.582 130.883 168.543 130.52C168.517 130.145 168.504 129.769 168.504 129.393V124.592H166.482V123.076H168.504V120.491H170.253V123.076H172.761V124.592Z" fill="black"/>
</svg>
