<svg width="477" height="375" viewBox="0 0 477 375" fill="none" xmlns="http://www.w3.org/2000/svg">
<path d="M105.743 280.93C136.139 311.116 177.259 328.024 220.096 327.95C262.934 327.876 303.996 310.826 334.287 280.536C364.578 250.245 381.628 209.184 381.703 166.346C381.778 123.509 364.87 82.3881 334.685 51.9922L105.743 280.93Z" stroke="black" stroke-width="5" stroke-linejoin="round"/>
<path d="M133.757 164.791C144.47 148.444 156.826 133.234 170.633 119.4L117.387 64.1562C92.754 88.7013 78.0345 121.466 76.0439 156.183C78.7899 156.024 81.5549 155.935 84.3439 155.935C101.211 155.918 117.946 158.917 133.757 164.791Z" fill="#F8D949" stroke="black" stroke-width="5" stroke-linecap="round" stroke-linejoin="round"/>
<path d="M217.247 248.222C223.145 264.062 226.156 280.831 226.139 297.734C226.139 300.52 226.049 303.284 225.891 306.034C258.814 304.148 290.039 290.802 314.155 268.311L260.897 213.055C247.536 226.181 232.916 237.96 217.247 248.222Z" fill="#F9D94A" stroke="black" stroke-width="5" stroke-linecap="round" stroke-linejoin="round"/>
<path d="M171.635 118.39C186.153 103.757 202.209 90.7359 219.524 79.5518C213.555 63.6275 210.507 46.7579 210.524 29.752C210.524 27.438 210.58 25.1376 210.694 22.8516C175.534 24.519 142.262 39.2466 117.388 64.1519L170.634 119.396C170.968 119.065 171.299 118.726 171.635 118.39Z" fill="white" stroke="black" stroke-width="5" stroke-linecap="round" stroke-linejoin="round"/>
<path d="M302.429 162.516C291.25 179.816 278.237 195.86 263.615 210.369C262.711 211.271 261.805 212.166 260.896 213.052L314.155 268.308C341.28 243.141 357.46 208.343 359.221 171.383C356.935 171.493 354.635 171.549 352.322 171.552C335.282 171.569 318.38 168.508 302.429 162.516Z" fill="white" stroke="black" stroke-width="5" stroke-linecap="round" stroke-linejoin="round"/>
<path d="M170.634 119.406L260.897 213.055C261.805 212.169 262.711 211.274 263.615 210.372C278.237 195.863 291.251 179.819 302.43 162.519C283.506 155.38 266.322 144.288 252.026 129.981C237.729 115.675 226.649 98.4835 219.524 79.5547C202.209 90.7388 186.153 103.76 171.635 118.393C171.299 118.73 170.968 119.069 170.634 119.406Z" fill="white" stroke="black" stroke-width="5" stroke-linecap="round" stroke-linejoin="round"/>
<path d="M133.757 164.789C152.835 171.907 170.162 183.04 184.565 197.433C198.969 211.827 210.114 229.145 217.246 248.218C232.914 237.955 247.535 226.175 260.896 213.047L170.633 119.398C156.826 133.233 144.47 148.442 133.757 164.789Z" fill="#F9D94A" stroke="black" stroke-width="5" stroke-linecap="round" stroke-linejoin="round"/>
<path d="M217.594 22.6875C215.28 22.6875 212.979 22.7438 210.693 22.8564C210.583 25.1438 210.527 27.4442 210.524 29.7568C210.506 46.7628 213.555 63.6324 219.524 79.5566C260.531 53.3966 299.486 45.9938 317.75 64.2568C336.014 82.5198 328.607 121.5 302.429 162.52C318.38 168.512 335.282 171.573 352.32 171.556C354.634 171.556 356.934 171.499 359.22 171.387C359.33 169.099 359.386 166.799 359.39 164.487C359.389 126.88 344.45 90.8135 317.858 64.2212C291.267 37.6289 255.2 22.6886 217.594 22.6875Z" fill="white" stroke="black" stroke-width="5" stroke-linecap="round" stroke-linejoin="round"/>
<path d="M302.429 162.52C328.607 121.5 336.019 82.5277 317.75 64.2577C299.481 45.9877 260.53 53.3965 219.523 79.5575C226.649 98.4861 237.729 115.677 252.026 129.984C266.322 144.29 283.506 155.382 302.429 162.52Z" fill="#9CF0E8" stroke="black" stroke-width="5" stroke-linecap="round" stroke-linejoin="round"/>
<path d="M217.247 248.223C175.685 275.175 135.988 282.995 117.499 264.505C99.0099 246.015 106.825 206.342 133.758 164.794C117.946 158.919 101.21 155.92 84.3419 155.938C81.5559 155.938 78.7909 156.027 76.0419 156.186C75.8839 158.932 75.7949 161.696 75.7949 164.486C75.7949 202.094 90.7346 238.161 117.327 264.753C143.92 291.346 179.987 306.286 217.595 306.286C220.381 306.286 223.146 306.197 225.895 306.038C226.053 303.292 226.143 300.528 226.143 297.738C226.159 280.834 223.146 264.064 217.247 248.223Z" fill="white" stroke="black" stroke-width="5" stroke-linecap="round" stroke-linejoin="round"/>
<path d="M133.757 164.789C106.824 206.337 99.0136 246.016 117.498 264.5C135.982 282.984 175.684 275.17 217.246 248.218C210.114 229.145 198.969 211.827 184.565 197.433C170.161 183.04 152.835 171.907 133.757 164.789Z" fill="white" stroke="black" stroke-width="5" stroke-linecap="round" stroke-linejoin="round"/>
<path d="M219.523 326.68V338.833" stroke="black" stroke-width="5" stroke-linejoin="round"/>
<path d="M425.986 255.676C425.984 252.627 425.191 249.63 423.684 246.98C422.177 244.329 420.007 242.116 417.387 240.556C414.767 238.996 411.787 238.143 408.739 238.081C405.69 238.018 402.678 238.749 399.997 240.201C397.017 231.223 391.51 223.297 384.135 217.373C376.761 211.45 367.833 207.781 358.424 206.808C349.016 205.834 339.526 207.598 331.095 211.886C322.664 216.175 315.651 222.806 310.897 230.984C306.996 229.709 302.849 229.375 298.795 230.012C294.741 230.648 290.895 232.236 287.573 234.645C284.251 237.054 281.546 240.216 279.681 243.871C277.816 247.527 276.844 251.572 276.844 255.676H425.99H425.986Z" fill="white" stroke="black" stroke-width="5" stroke-linecap="round" stroke-linejoin="round"/>
<path d="M439.018 255.678C439.018 251.01 440.872 246.534 444.172 243.233C447.473 239.932 451.95 238.078 456.618 238.078C461.285 238.078 465.762 239.932 469.063 243.233C472.363 246.534 474.218 251.01 474.218 255.678H439.018Z" fill="white" stroke="black" stroke-width="5" stroke-linecap="round" stroke-linejoin="round"/>
<path d="M308.698 358.288C306.912 352.871 303.464 348.156 298.843 344.814C294.222 341.472 288.665 339.672 282.962 339.672H156.087C150.384 339.672 144.826 341.472 140.205 344.814C135.585 348.156 132.136 352.871 130.351 358.288H308.698Z" fill="#F9D94A" stroke="black" stroke-width="5" stroke-linecap="round" stroke-linejoin="round"/>
<path d="M81.4822 21.1567C81.482 21.1567 81.4823 21.1567 81.4822 21.1567C77.2441 21.1567 73.5238 18.2935 72.4355 14.1943C71.1208 9.20264 74.1088 4.07666 79.095 2.76318C79.8766 2.55713 80.6797 2.45312 81.4821 2.45312C85.7219 2.45312 89.4389 5.31934 90.5212 9.42285C91.1577 11.8394 90.8154 14.3579 89.5573 16.5161C88.2992 18.6738 86.2761 20.2129 83.8607 20.8491C83.079 21.0537 82.2801 21.1567 81.4822 21.1567Z" fill="white"/>
<path d="M81.4818 18.6568C82.057 18.6568 82.6413 18.584 83.2238 18.4317C86.8828 17.4678 89.0678 13.7198 88.1038 10.0606C87.1387 6.40092 83.3915 4.21732 79.7318 5.1807C76.0728 6.14457 73.8878 9.89262 74.8518 13.5528C75.6673 16.625 78.4436 18.6568 81.4818 18.6568Z" fill="black"/>
<path d="M21.7119 63.6216L23.4739 64.2925C26.4784 56.4322 32.4774 50.0841 40.1555 46.6406C47.8336 43.1971 56.5639 42.9392 64.4319 45.9233L65.1029 44.1606C57.2473 41.15 50.904 35.1504 47.4608 27.4746C44.0176 19.7988 43.7548 11.0717 46.7299 3.20264L44.9669 2.53125C41.9559 10.3867 35.9561 16.7302 28.2802 20.1733C20.6043 23.6165 11.8772 23.8792 4.00793 20.9043L3.33691 22.6665C11.1977 25.6696 17.5467 31.6676 20.9913 39.3452C24.436 47.0228 24.6951 55.7532 21.7119 63.6216Z" fill="white" stroke="black" stroke-width="5" stroke-linecap="round" stroke-linejoin="round"/>
<path d="M131.745 358.289H130.351C129.449 361.026 128.989 363.889 128.989 366.771V371.737H310.057V366.771C310.058 363.889 309.599 361.026 308.696 358.289H131.745Z" fill="black" stroke="black" stroke-width="5" stroke-linecap="round" stroke-linejoin="round"/>
</svg>
