<svg width="358" height="157" viewBox="0 0 358 157" fill="none" xmlns="http://www.w3.org/2000/svg">
<path d="M285.526 151.617H4.6001V5.11719H285.526L353.403 78.3662L285.526 151.617Z" fill="#EFCBF9" stroke="black" stroke-width="9.046" stroke-linejoin="round"/>
<path d="M56.4298 57.9125V32.6553L42.0315 57.9125H56.4298ZM76.6194 79.7109H50.7187V79.3892C55.8667 76.9761 56.4298 74.2412 56.4298 68.4498V65.2323H33.4248V64.9105L57.1537 24.2094H70.9084V57.9125H76.3781V65.2323H70.9084V68.4498C70.9084 74.2412 71.4715 76.9761 76.6194 79.3892V79.7109ZM121.111 35.551H93.6011L91.8315 50.1101C94.4054 48.0992 100.599 45.123 106.712 45.123C117.33 45.123 125.615 51.3167 125.615 61.2104C125.615 74.4021 111.539 80.9175 100.599 80.9175C89.901 80.9175 84.4313 77.2174 84.4313 71.1042C84.4313 66.841 87.9705 63.5431 92.2336 63.5431C96.4968 63.5431 99.6338 66.7606 99.6338 71.0237C99.6338 74.2412 97.6229 77.0565 95.7729 78.5044C103.254 80.0327 110.734 74.4825 110.734 63.6235C110.734 55.1777 105.667 51.3167 99.2317 51.3167C95.5316 51.3167 92.3141 52.7645 89.8205 54.695L88.2118 53.9711L92.1532 24.2094H121.111V35.551ZM155.064 78.6653C161.499 78.6653 161.499 58.556 161.499 52.4428C161.499 46.2491 161.178 25.3355 155.064 25.3355C148.951 25.3355 148.629 46.2491 148.629 52.4428C148.629 58.556 148.629 78.6653 155.064 78.6653ZM155.064 80.9175C139.701 80.9175 132.864 63.3822 132.864 51.7993C132.864 40.2164 140.264 23.0833 155.064 23.0833C169.865 23.0833 177.345 39.8142 177.345 51.3971C177.345 62.98 170.428 80.9175 155.064 80.9175ZM191.213 86.6055H180.526V86.4676C182.216 85.5024 182.422 84.3993 182.422 81.9172V68.0935C182.422 65.0599 182.078 64.3015 180.182 63.4052V63.2673C183.181 62.9915 186.214 62.3365 188.662 61.716H188.8V64.4739C189.558 63.681 191.696 61.716 194.074 61.716C198.314 61.716 200.59 65.3012 200.59 70.4032C200.59 77.7115 194.074 80.1246 190.179 80.1246C189.731 80.1246 189.248 80.0901 188.765 80.0557V81.9172C188.765 84.3993 189.007 85.4335 191.213 86.4676V86.6055ZM188.8 64.8531V78.5389C189.42 78.8836 189.869 78.9525 190.489 78.9525C192.73 78.9525 194.247 76.1602 194.247 71.0237C194.247 66.9904 192.902 64.4394 190.351 64.4394C189.8 64.4394 189.145 64.6807 188.8 64.8531ZM211.951 86.6055H201.264V86.4676C202.953 85.5024 203.16 84.3993 203.16 81.9172V68.0935C203.16 65.0599 202.815 64.3015 200.919 63.4052V63.2673C203.918 62.9915 206.952 62.3365 209.4 61.716H209.538V64.4739C210.296 63.681 212.433 61.716 214.812 61.716C219.052 61.716 221.327 65.3012 221.327 70.4032C221.327 77.7115 214.812 80.1246 210.916 80.1246C210.468 80.1246 209.986 80.0901 209.503 80.0557V81.9172C209.503 84.3993 209.744 85.4335 211.951 86.4676V86.6055ZM209.538 64.8531V78.5389C210.158 78.8836 210.606 78.9525 211.227 78.9525C213.467 78.9525 214.984 76.1602 214.984 71.0237C214.984 66.9904 213.64 64.4394 211.089 64.4394C210.537 64.4394 209.882 64.6807 209.538 64.8531ZM253.372 79.7109H243.34V79.573C245.03 78.6078 245.236 77.5047 245.236 75.0226V67.4041C245.236 65.3702 243.72 64.5083 242.272 64.5083C241.617 64.5083 240.789 64.6118 240.445 64.7497C240.721 65.4736 240.858 66.3354 240.858 67.4041V75.0226C240.858 77.5047 241.065 78.6078 242.754 79.573V79.7109H232.723V79.573C234.412 78.6078 234.619 77.5047 234.619 75.0226V67.4041C234.619 65.3702 233.378 64.5083 231.93 64.5083C231.344 64.5083 230.62 64.6118 230.241 64.7152V75.0226C230.241 77.5047 230.448 78.6078 232.137 79.573V79.7109H222.105V79.573C223.794 78.6078 224.001 77.5047 224.001 75.0226V68.0935C224.001 65.0599 223.656 64.3015 221.76 63.4052V63.2673C224.76 62.9915 227.655 62.3365 230.103 61.716H230.241V64.3705C231.413 62.9915 233.619 61.716 236.032 61.716C237.859 61.716 239.617 62.4744 240.41 64.5773C241.513 63.1639 244.099 61.716 246.65 61.716C249.166 61.716 251.476 63.1294 251.476 67.4041V75.0226C251.476 77.5047 251.683 78.6078 253.372 79.573V79.7109Z" fill="black"/>
<path d="M41.7941 102.259C41.4053 101.754 40.9129 101.365 40.3169 101.093C39.7208 100.821 39.1053 100.685 38.4704 100.685C37.6929 100.685 36.9867 100.834 36.3517 101.132C35.7297 101.417 35.192 101.812 34.7384 102.318C34.2979 102.823 33.9545 103.419 33.7083 104.106C33.4621 104.78 33.339 105.505 33.339 106.283C33.339 107.008 33.4556 107.695 33.6889 108.343C33.9221 108.991 34.259 109.561 34.6996 110.054C35.1401 110.546 35.6779 110.935 36.3128 111.22C36.9478 111.505 37.667 111.647 38.4704 111.647C39.2608 111.647 39.954 111.485 40.5501 111.161C41.1462 110.838 41.6515 110.384 42.0662 109.801L43.6406 110.987C43.5369 111.129 43.3555 111.336 43.0964 111.609C42.8372 111.868 42.4938 112.133 42.0662 112.405C41.6386 112.665 41.1203 112.891 40.5112 113.086C39.9152 113.293 39.2219 113.397 38.4315 113.397C37.343 113.397 36.3582 113.189 35.4771 112.775C34.6089 112.36 33.8638 111.816 33.2418 111.142C32.6328 110.468 32.1663 109.71 31.8423 108.868C31.5184 108.013 31.3564 107.151 31.3564 106.283C31.3564 105.22 31.5313 104.242 31.8812 103.348C32.2311 102.441 32.717 101.663 33.339 101.015C33.9739 100.355 34.732 99.8427 35.6131 99.4798C36.4943 99.117 37.4661 98.9356 38.5287 98.9356C39.4357 98.9356 40.3233 99.1105 41.1915 99.4604C42.0727 99.8103 42.7918 100.348 43.349 101.074L41.7941 102.259ZM52.2143 113.397C51.1647 113.397 50.1993 113.215 49.3182 112.853C48.437 112.477 47.679 111.965 47.044 111.317C46.4221 110.669 45.9297 109.905 45.5668 109.023C45.217 108.142 45.042 107.19 45.042 106.166C45.042 105.142 45.217 104.19 45.5668 103.309C45.9297 102.428 46.4221 101.663 47.044 101.015C47.679 100.367 48.437 99.8621 49.3182 99.4993C50.1993 99.1235 51.1647 98.9356 52.2143 98.9356C53.2639 98.9356 54.2293 99.1235 55.1104 99.4993C55.9915 99.8621 56.7431 100.367 57.3651 101.015C58 101.663 58.4924 102.428 58.8423 103.309C59.2051 104.19 59.3865 105.142 59.3865 106.166C59.3865 107.19 59.2051 108.142 58.8423 109.023C58.4924 109.905 58 110.669 57.3651 111.317C56.7431 111.965 55.9915 112.477 55.1104 112.853C54.2293 113.215 53.2639 113.397 52.2143 113.397ZM52.2143 111.647C53.0047 111.647 53.7174 111.505 54.3524 111.22C54.9873 110.922 55.5315 110.527 55.9851 110.034C56.4386 109.542 56.7885 108.965 57.0347 108.304C57.2809 107.63 57.404 106.918 57.404 106.166C57.404 105.415 57.2809 104.708 57.0347 104.048C56.7885 103.374 56.4386 102.791 55.9851 102.298C55.5315 101.806 54.9873 101.417 54.3524 101.132C53.7174 100.834 53.0047 100.685 52.2143 100.685C51.4238 100.685 50.7112 100.834 50.0762 101.132C49.4413 101.417 48.897 101.806 48.4435 102.298C47.99 102.791 47.6401 103.374 47.3939 104.048C47.1477 104.708 47.0246 105.415 47.0246 106.166C47.0246 106.918 47.1477 107.63 47.3939 108.304C47.6401 108.965 47.99 109.542 48.4435 110.034C48.897 110.527 49.4413 110.922 50.0762 111.22C50.7112 111.505 51.4238 111.647 52.2143 111.647ZM61.1948 111.064L66.7149 105.583C66.9093 105.402 67.0972 105.207 67.2786 105C67.46 104.78 67.622 104.553 67.7645 104.32C67.907 104.086 68.0172 103.84 68.0949 103.581C68.1856 103.322 68.231 103.05 68.231 102.765C68.231 102.428 68.1662 102.123 68.0366 101.851C67.92 101.579 67.7515 101.352 67.5313 101.171C67.3239 100.976 67.0712 100.827 66.7732 100.724C66.4881 100.62 66.1836 100.568 65.8597 100.568C65.1859 100.568 64.6287 100.756 64.1881 101.132C63.7475 101.508 63.4689 102.026 63.3523 102.687L61.3308 102.512C61.4216 101.903 61.5965 101.378 61.8556 100.938C62.1278 100.484 62.4582 100.108 62.8469 99.8103C63.2486 99.5122 63.7022 99.292 64.2075 99.1494C64.7258 99.0069 65.283 98.9356 65.8791 98.9356C66.4752 98.9356 67.0324 99.0198 67.5507 99.1883C68.082 99.3438 68.542 99.5835 68.9307 99.9075C69.3324 100.218 69.6434 100.614 69.8637 101.093C70.0969 101.56 70.2136 102.11 70.2136 102.745C70.2136 103.199 70.1423 103.626 69.9997 104.028C69.8702 104.417 69.6952 104.786 69.475 105.136C69.2547 105.486 69.002 105.816 68.7169 106.127C68.4318 106.438 68.1338 106.743 67.8228 107.041L63.294 111.414H70.2136V113.047H61.1948V111.064ZM84.4217 106.283C84.0978 105.946 83.7544 105.693 83.3915 105.525C83.0417 105.343 82.6205 105.253 82.1281 105.253C81.6487 105.253 81.2276 105.343 80.8647 105.525C80.5149 105.693 80.2168 105.933 79.9706 106.244C79.7374 106.542 79.556 106.892 79.4264 107.294C79.3098 107.682 79.2515 108.09 79.2515 108.518C79.2515 108.946 79.3227 109.354 79.4653 109.743C79.6078 110.118 79.8087 110.449 80.0678 110.734C80.327 111.019 80.638 111.246 81.0008 111.414C81.3636 111.57 81.7718 111.647 82.2253 111.647C82.7177 111.647 83.1389 111.563 83.4887 111.395C83.8386 111.213 84.1625 110.954 84.4606 110.617L85.7045 111.861C85.251 112.367 84.7197 112.729 84.1107 112.95C83.5146 113.17 82.8797 113.28 82.2059 113.28C81.4932 113.28 80.8388 113.163 80.2427 112.93C79.6596 112.697 79.1543 112.373 78.7267 111.958C78.299 111.531 77.9686 111.025 77.7354 110.442C77.5021 109.846 77.3855 109.192 77.3855 108.479C77.3855 107.766 77.5021 107.112 77.7354 106.516C77.9686 105.92 78.2926 105.408 78.7072 104.981C79.1348 104.553 79.6402 104.222 80.2233 103.989C80.8194 103.743 81.4802 103.62 82.2059 103.62C82.8797 103.62 83.5211 103.743 84.1301 103.989C84.7521 104.222 85.2899 104.585 85.7434 105.078L84.4217 106.283ZM88.6283 108.44C88.6283 108.907 88.6996 109.341 88.8421 109.743C88.9846 110.131 89.1855 110.468 89.4446 110.753C89.7038 111.025 90.0213 111.246 90.3971 111.414C90.7728 111.57 91.194 111.647 91.6605 111.647C92.1269 111.647 92.5481 111.57 92.9239 111.414C93.2996 111.246 93.6171 111.025 93.8763 110.753C94.1354 110.468 94.3363 110.131 94.4788 109.743C94.6214 109.341 94.6926 108.907 94.6926 108.44C94.6926 107.974 94.6214 107.546 94.4788 107.157C94.3363 106.756 94.1354 106.419 93.8763 106.147C93.6171 105.862 93.2996 105.641 92.9239 105.486C92.5481 105.317 92.1269 105.233 91.6605 105.233C91.194 105.233 90.7728 105.317 90.3971 105.486C90.0213 105.641 89.7038 105.862 89.4446 106.147C89.1855 106.419 88.9846 106.756 88.8421 107.157C88.6996 107.546 88.6283 107.974 88.6283 108.44ZM86.7623 108.44C86.7623 107.766 86.8854 107.138 87.1316 106.555C87.3908 105.972 87.7407 105.46 88.1812 105.019C88.6218 104.579 89.1401 104.235 89.7362 103.989C90.3323 103.73 90.9737 103.6 91.6605 103.6C92.3472 103.6 92.9887 103.73 93.5847 103.989C94.1808 104.235 94.6991 104.579 95.1397 105.019C95.5803 105.46 95.9236 105.972 96.1698 106.555C96.429 107.138 96.5586 107.766 96.5586 108.44C96.5586 109.114 96.429 109.749 96.1698 110.345C95.9236 110.928 95.5803 111.44 95.1397 111.881C94.6991 112.308 94.1808 112.652 93.5847 112.911C92.9887 113.157 92.3472 113.28 91.6605 113.28C90.9737 113.28 90.3323 113.157 89.7362 112.911C89.1401 112.652 88.6218 112.308 88.1812 111.881C87.7407 111.44 87.3908 110.928 87.1316 110.345C86.8854 109.749 86.7623 109.114 86.7623 108.44ZM98.7501 103.834H100.499V105.253H100.538C100.759 104.76 101.141 104.365 101.685 104.067C102.229 103.756 102.858 103.6 103.57 103.6C104.011 103.6 104.432 103.672 104.834 103.814C105.249 103.944 105.605 104.151 105.903 104.436C106.214 104.721 106.46 105.091 106.642 105.544C106.823 105.985 106.914 106.51 106.914 107.119V113.047H105.164V107.605C105.164 107.177 105.106 106.814 104.989 106.516C104.873 106.205 104.717 105.959 104.523 105.777C104.329 105.583 104.102 105.447 103.843 105.369C103.596 105.279 103.337 105.233 103.065 105.233C102.702 105.233 102.365 105.292 102.054 105.408C101.743 105.525 101.471 105.713 101.238 105.972C101.005 106.218 100.823 106.535 100.694 106.924C100.564 107.313 100.499 107.773 100.499 108.304V113.047H98.7501V103.834ZM116.14 106.283C115.816 105.946 115.472 105.693 115.11 105.525C114.76 105.343 114.339 105.253 113.846 105.253C113.367 105.253 112.946 105.343 112.583 105.525C112.233 105.693 111.935 105.933 111.689 106.244C111.455 106.542 111.274 106.892 111.144 107.294C111.028 107.682 110.969 108.09 110.969 108.518C110.969 108.946 111.041 109.354 111.183 109.743C111.326 110.118 111.527 110.449 111.786 110.734C112.045 111.019 112.356 111.246 112.719 111.414C113.082 111.57 113.49 111.647 113.943 111.647C114.436 111.647 114.857 111.563 115.207 111.395C115.557 111.213 115.881 110.954 116.179 110.617L117.423 111.861C116.969 112.367 116.438 112.729 115.829 112.95C115.233 113.17 114.598 113.28 113.924 113.28C113.211 113.28 112.557 113.163 111.961 112.93C111.378 112.697 110.872 112.373 110.445 111.958C110.017 111.531 109.687 111.025 109.453 110.442C109.22 109.846 109.104 109.192 109.104 108.479C109.104 107.766 109.22 107.112 109.453 106.516C109.687 105.92 110.011 105.408 110.425 104.981C110.853 104.553 111.358 104.222 111.941 103.989C112.537 103.743 113.198 103.62 113.924 103.62C114.598 103.62 115.239 103.743 115.848 103.989C116.47 104.222 117.008 104.585 117.461 105.078L116.14 106.283ZM120.249 109.082C120.249 109.483 120.333 109.853 120.502 110.19C120.683 110.514 120.916 110.792 121.202 111.025C121.487 111.259 121.817 111.44 122.193 111.57C122.569 111.699 122.957 111.764 123.359 111.764C123.903 111.764 124.376 111.641 124.778 111.395C125.18 111.136 125.549 110.799 125.886 110.384L127.208 111.395C126.236 112.652 124.875 113.28 123.126 113.28C122.4 113.28 121.739 113.157 121.143 112.911C120.56 112.665 120.061 112.328 119.647 111.9C119.245 111.46 118.934 110.948 118.714 110.365C118.493 109.769 118.383 109.127 118.383 108.44C118.383 107.754 118.5 107.119 118.733 106.535C118.979 105.939 119.31 105.428 119.724 105C120.152 104.559 120.657 104.216 121.24 103.97C121.823 103.724 122.458 103.6 123.145 103.6C123.962 103.6 124.648 103.743 125.206 104.028C125.776 104.313 126.242 104.689 126.605 105.155C126.968 105.609 127.227 106.127 127.382 106.71C127.551 107.281 127.635 107.864 127.635 108.46V109.082H120.249ZM125.769 107.682C125.756 107.294 125.691 106.937 125.575 106.613C125.471 106.289 125.309 106.011 125.089 105.777C124.869 105.531 124.59 105.343 124.253 105.214C123.929 105.071 123.547 105 123.106 105C122.679 105 122.284 105.084 121.921 105.253C121.571 105.408 121.273 105.615 121.027 105.875C120.78 106.134 120.586 106.425 120.443 106.749C120.314 107.06 120.249 107.371 120.249 107.682H125.769ZM129.728 103.834H131.477V105.253H131.516C131.736 104.76 132.119 104.365 132.663 104.067C133.207 103.756 133.836 103.6 134.548 103.6C134.989 103.6 135.41 103.672 135.812 103.814C136.226 103.944 136.583 104.151 136.881 104.436C137.192 104.721 137.438 105.091 137.619 105.544C137.801 105.985 137.891 106.51 137.891 107.119V113.047H136.142V107.605C136.142 107.177 136.084 106.814 135.967 106.516C135.85 106.205 135.695 105.959 135.501 105.777C135.306 105.583 135.079 105.447 134.82 105.369C134.574 105.279 134.315 105.233 134.043 105.233C133.68 105.233 133.343 105.292 133.032 105.408C132.721 105.525 132.449 105.713 132.216 105.972C131.983 106.218 131.801 106.535 131.672 106.924C131.542 107.313 131.477 107.773 131.477 108.304V113.047H129.728V103.834ZM145.465 105.35H142.958V109.529C142.958 109.788 142.964 110.047 142.977 110.306C142.99 110.552 143.036 110.779 143.113 110.987C143.204 111.181 143.334 111.343 143.502 111.472C143.684 111.589 143.943 111.647 144.28 111.647C144.487 111.647 144.701 111.628 144.921 111.589C145.141 111.55 145.342 111.479 145.524 111.375V112.969C145.316 113.086 145.044 113.163 144.707 113.202C144.383 113.254 144.131 113.28 143.949 113.28C143.275 113.28 142.751 113.189 142.375 113.008C142.012 112.814 141.74 112.567 141.558 112.269C141.39 111.971 141.286 111.641 141.247 111.278C141.222 110.902 141.209 110.527 141.209 110.151V105.35H139.187V103.834H141.209V101.249H142.958V103.834H145.465V105.35ZM147.722 103.834H149.472V105.253H149.51C149.627 105.006 149.783 104.786 149.977 104.592C150.171 104.384 150.385 104.21 150.618 104.067C150.865 103.924 151.13 103.814 151.415 103.737C151.7 103.646 151.985 103.6 152.27 103.6C152.556 103.6 152.815 103.639 153.048 103.717L152.97 105.603C152.828 105.564 152.685 105.531 152.543 105.505C152.4 105.479 152.258 105.466 152.115 105.466C151.26 105.466 150.605 105.706 150.152 106.186C149.698 106.665 149.472 107.41 149.472 108.421V113.047H147.722V103.834ZM154.955 104.961C155.447 104.508 156.018 104.171 156.666 103.95C157.313 103.717 157.961 103.6 158.609 103.6C159.283 103.6 159.86 103.685 160.339 103.853C160.832 104.022 161.233 104.248 161.544 104.533C161.855 104.819 162.082 105.149 162.225 105.525C162.38 105.888 162.458 106.27 162.458 106.672V111.375C162.458 111.699 162.464 111.997 162.477 112.269C162.49 112.542 162.51 112.801 162.536 113.047H160.981C160.942 112.58 160.922 112.114 160.922 111.647H160.883C160.495 112.243 160.035 112.665 159.503 112.911C158.972 113.157 158.357 113.28 157.657 113.28C157.229 113.28 156.821 113.222 156.432 113.105C156.044 112.989 155.7 112.814 155.402 112.58C155.117 112.347 154.89 112.062 154.722 111.725C154.553 111.375 154.469 110.974 154.469 110.52C154.469 109.924 154.599 109.425 154.858 109.023C155.13 108.622 155.493 108.298 155.946 108.052C156.413 107.792 156.951 107.611 157.56 107.507C158.182 107.391 158.842 107.332 159.542 107.332H160.825V106.944C160.825 106.71 160.78 106.477 160.689 106.244C160.598 106.011 160.462 105.803 160.281 105.622C160.099 105.428 159.873 105.279 159.601 105.175C159.328 105.058 159.004 105 158.629 105C158.292 105 157.994 105.032 157.735 105.097C157.488 105.162 157.262 105.246 157.054 105.35C156.847 105.441 156.659 105.551 156.491 105.68C156.322 105.81 156.16 105.933 156.005 106.05L154.955 104.961ZM159.892 108.615C159.477 108.615 159.05 108.641 158.609 108.693C158.182 108.732 157.786 108.816 157.424 108.946C157.074 109.075 156.782 109.257 156.549 109.49C156.329 109.723 156.218 110.021 156.218 110.384C156.218 110.915 156.393 111.298 156.743 111.531C157.106 111.764 157.592 111.881 158.201 111.881C158.681 111.881 159.089 111.803 159.426 111.647C159.762 111.479 160.035 111.265 160.242 111.006C160.449 110.747 160.598 110.462 160.689 110.151C160.78 109.827 160.825 109.509 160.825 109.198V108.615H159.892ZM169.932 105.35H167.425V109.529C167.425 109.788 167.431 110.047 167.444 110.306C167.457 110.552 167.503 110.779 167.58 110.987C167.671 111.181 167.801 111.343 167.969 111.472C168.151 111.589 168.41 111.647 168.747 111.647C168.954 111.647 169.168 111.628 169.388 111.589C169.608 111.55 169.809 111.479 169.991 111.375V112.969C169.783 113.086 169.511 113.163 169.174 113.202C168.85 113.254 168.598 113.28 168.416 113.28C167.742 113.28 167.218 113.189 166.842 113.008C166.479 112.814 166.207 112.567 166.026 112.269C165.857 111.971 165.753 111.641 165.715 111.278C165.689 110.902 165.676 110.527 165.676 110.151V105.35H163.654V103.834H165.676V101.249H167.425V103.834H169.932V105.35ZM172.325 103.834H174.075V113.047H172.325V103.834ZM171.917 100.529C171.917 100.18 172.04 99.8815 172.287 99.6353C172.546 99.3762 172.85 99.2466 173.2 99.2466C173.55 99.2466 173.848 99.3762 174.094 99.6353C174.353 99.8815 174.483 100.18 174.483 100.529C174.483 100.879 174.353 101.184 174.094 101.443C173.848 101.689 173.55 101.812 173.2 101.812C172.85 101.812 172.546 101.689 172.287 101.443C172.04 101.184 171.917 100.879 171.917 100.529ZM178.278 108.44C178.278 108.907 178.349 109.341 178.491 109.743C178.634 110.131 178.835 110.468 179.094 110.753C179.353 111.025 179.671 111.246 180.046 111.414C180.422 111.57 180.843 111.647 181.31 111.647C181.776 111.647 182.197 111.57 182.573 111.414C182.949 111.246 183.266 111.025 183.526 110.753C183.785 110.468 183.986 110.131 184.128 109.743C184.271 109.341 184.342 108.907 184.342 108.44C184.342 107.974 184.271 107.546 184.128 107.157C183.986 106.756 183.785 106.419 183.526 106.147C183.266 105.862 182.949 105.641 182.573 105.486C182.197 105.317 181.776 105.233 181.31 105.233C180.843 105.233 180.422 105.317 180.046 105.486C179.671 105.641 179.353 105.862 179.094 106.147C178.835 106.419 178.634 106.756 178.491 107.157C178.349 107.546 178.278 107.974 178.278 108.44ZM176.412 108.44C176.412 107.766 176.535 107.138 176.781 106.555C177.04 105.972 177.39 105.46 177.831 105.019C178.271 104.579 178.79 104.235 179.386 103.989C179.982 103.73 180.623 103.6 181.31 103.6C181.997 103.6 182.638 103.73 183.234 103.989C183.83 104.235 184.348 104.579 184.789 105.019C185.23 105.46 185.573 105.972 185.819 106.555C186.078 107.138 186.208 107.766 186.208 108.44C186.208 109.114 186.078 109.749 185.819 110.345C185.573 110.928 185.23 111.44 184.789 111.881C184.348 112.308 183.83 112.652 183.234 112.911C182.638 113.157 181.997 113.28 181.31 113.28C180.623 113.28 179.982 113.157 179.386 112.911C178.79 112.652 178.271 112.308 177.831 111.881C177.39 111.44 177.04 110.928 176.781 110.345C176.535 109.749 176.412 109.114 176.412 108.44ZM188.399 103.834H190.149V105.253H190.188C190.408 104.76 190.79 104.365 191.334 104.067C191.879 103.756 192.507 103.6 193.22 103.6C193.66 103.6 194.082 103.672 194.483 103.814C194.898 103.944 195.254 104.151 195.552 104.436C195.863 104.721 196.109 105.091 196.291 105.544C196.472 105.985 196.563 106.51 196.563 107.119V113.047H194.814V107.605C194.814 107.177 194.755 106.814 194.639 106.516C194.522 106.205 194.367 105.959 194.172 105.777C193.978 105.583 193.751 105.447 193.492 105.369C193.246 105.279 192.987 105.233 192.714 105.233C192.352 105.233 192.015 105.292 191.704 105.408C191.393 105.525 191.121 105.713 190.887 105.972C190.654 106.218 190.473 106.535 190.343 106.924C190.214 107.313 190.149 107.773 190.149 108.304V113.047H188.399V103.834ZM203.502 103.834H205.465L207.545 110.714H207.583L209.78 103.834H211.626L213.959 110.714H213.998L215.98 103.834H217.827L214.853 113.047H213.084L210.655 106.166H210.616L208.419 113.047H206.534L203.502 103.834ZM219.358 98.3525H221.108V105.253H221.146C221.367 104.76 221.749 104.365 222.293 104.067C222.837 103.756 223.466 103.6 224.179 103.6C224.619 103.6 225.04 103.672 225.442 103.814C225.857 103.944 226.213 104.151 226.511 104.436C226.822 104.721 227.068 105.091 227.25 105.544C227.431 105.985 227.522 106.51 227.522 107.119V113.047H225.772V107.605C225.772 107.177 225.714 106.814 225.597 106.516C225.481 106.205 225.325 105.959 225.131 105.777C224.937 105.583 224.71 105.447 224.451 105.369C224.205 105.279 223.945 105.233 223.673 105.233C223.31 105.233 222.973 105.292 222.663 105.408C222.352 105.525 222.079 105.713 221.846 105.972C221.613 106.218 221.431 106.535 221.302 106.924C221.172 107.313 221.108 107.773 221.108 108.304V113.047H219.358V98.3525ZM231.48 109.082C231.48 109.483 231.565 109.853 231.733 110.19C231.914 110.514 232.148 110.792 232.433 111.025C232.718 111.259 233.048 111.44 233.424 111.57C233.8 111.699 234.189 111.764 234.59 111.764C235.135 111.764 235.608 111.641 236.009 111.395C236.411 111.136 236.78 110.799 237.117 110.384L238.439 111.395C237.467 112.652 236.106 113.28 234.357 113.28C233.631 113.28 232.971 113.157 232.374 112.911C231.791 112.665 231.292 112.328 230.878 111.9C230.476 111.46 230.165 110.948 229.945 110.365C229.725 109.769 229.614 109.127 229.614 108.44C229.614 107.754 229.731 107.119 229.964 106.535C230.21 105.939 230.541 105.428 230.956 105C231.383 104.559 231.889 104.216 232.472 103.97C233.055 103.724 233.69 103.6 234.376 103.6C235.193 103.6 235.88 103.743 236.437 104.028C237.007 104.313 237.473 104.689 237.836 105.155C238.199 105.609 238.458 106.127 238.614 106.71C238.782 107.281 238.866 107.864 238.866 108.46V109.082H231.48ZM237 107.682C236.988 107.294 236.923 106.937 236.806 106.613C236.702 106.289 236.54 106.011 236.32 105.777C236.1 105.531 235.821 105.343 235.484 105.214C235.16 105.071 234.778 105 234.338 105C233.91 105 233.515 105.084 233.152 105.253C232.802 105.408 232.504 105.615 232.258 105.875C232.012 106.134 231.817 106.425 231.675 106.749C231.545 107.06 231.48 107.371 231.48 107.682H237ZM240.959 103.834H242.708V105.253H242.747C242.864 105.006 243.019 104.786 243.214 104.592C243.408 104.384 243.622 104.21 243.855 104.067C244.101 103.924 244.367 103.814 244.652 103.737C244.937 103.646 245.222 103.6 245.507 103.6C245.792 103.6 246.052 103.639 246.285 103.717L246.207 105.603C246.065 105.564 245.922 105.531 245.779 105.505C245.637 105.479 245.494 105.466 245.352 105.466C244.497 105.466 243.842 105.706 243.389 106.186C242.935 106.665 242.708 107.41 242.708 108.421V113.047H240.959V103.834ZM249.133 109.082C249.133 109.483 249.217 109.853 249.386 110.19C249.567 110.514 249.8 110.792 250.086 111.025C250.371 111.259 250.701 111.44 251.077 111.57C251.453 111.699 251.841 111.764 252.243 111.764C252.787 111.764 253.26 111.641 253.662 111.395C254.064 111.136 254.433 110.799 254.77 110.384L256.092 111.395C255.12 112.652 253.759 113.28 252.01 113.28C251.284 113.28 250.623 113.157 250.027 112.911C249.444 112.665 248.945 112.328 248.531 111.9C248.129 111.46 247.818 110.948 247.598 110.365C247.377 109.769 247.267 109.127 247.267 108.44C247.267 107.754 247.384 107.119 247.617 106.535C247.863 105.939 248.194 105.428 248.608 105C249.036 104.559 249.541 104.216 250.124 103.97C250.708 103.724 251.342 103.6 252.029 103.6C252.846 103.6 253.532 103.743 254.09 104.028C254.66 104.313 255.126 104.689 255.489 105.155C255.852 105.609 256.111 106.127 256.266 106.71C256.435 107.281 256.519 107.864 256.519 108.46V109.082H249.133ZM254.653 107.682C254.64 107.294 254.575 106.937 254.459 106.613C254.355 106.289 254.193 106.011 253.973 105.777C253.753 105.531 253.474 105.343 253.137 105.214C252.813 105.071 252.431 105 251.99 105C251.563 105 251.168 105.084 250.805 105.253C250.455 105.408 250.157 105.615 249.911 105.875C249.664 106.134 249.47 106.425 249.327 106.749C249.198 107.06 249.133 107.371 249.133 107.682H254.653Z" fill="black"/>
<path d="M30.6567 123.365H32.6198L34.6996 130.246H34.7384L36.9348 123.365H38.7813L41.1138 130.246H41.1527L43.1352 123.365H44.9817L42.0079 132.578H40.2391L37.8095 125.697H37.7706L35.5742 132.578H33.6889L30.6567 123.365ZM47.8349 128.613C47.8349 129.015 47.9191 129.384 48.0876 129.721C48.269 130.045 48.5022 130.323 48.7873 130.557C49.0724 130.79 49.4028 130.971 49.7786 131.101C50.1544 131.23 50.5431 131.295 50.9448 131.295C51.489 131.295 51.962 131.172 52.3637 130.926C52.7654 130.667 53.1347 130.33 53.4716 129.915L54.7933 130.926C53.8215 132.183 52.4609 132.811 50.7116 132.811C49.9859 132.811 49.3251 132.688 48.729 132.442C48.1459 132.196 47.647 131.859 47.2323 131.431C46.8306 130.991 46.5196 130.479 46.2994 129.896C46.0791 129.3 45.9689 128.658 45.9689 127.972C45.9689 127.285 46.0856 126.65 46.3188 126.067C46.565 125.471 46.8954 124.959 47.3101 124.531C47.7377 124.091 48.2431 123.747 48.8262 123.501C49.4093 123.255 50.0442 123.132 50.731 123.132C51.5474 123.132 52.2341 123.274 52.7913 123.559C53.3615 123.844 53.828 124.22 54.1908 124.687C54.5536 125.14 54.8128 125.659 54.9683 126.242C55.1367 126.812 55.2209 127.395 55.2209 127.991V128.613H47.8349ZM53.355 127.214C53.342 126.825 53.2772 126.468 53.1606 126.144C53.057 125.821 52.895 125.542 52.6747 125.309C52.4544 125.062 52.1758 124.875 51.8389 124.745C51.515 124.602 51.1327 124.531 50.6921 124.531C50.2645 124.531 49.8693 124.615 49.5065 124.784C49.1566 124.939 48.8586 125.147 48.6124 125.406C48.3662 125.665 48.1718 125.957 48.0293 126.281C47.8997 126.592 47.8349 126.903 47.8349 127.214H53.355ZM67.6214 125.678C67.4141 125.419 67.155 125.205 66.844 125.037C66.5459 124.855 66.1766 124.764 65.7361 124.764C65.3214 124.764 64.9586 124.855 64.6476 125.037C64.3496 125.205 64.2005 125.458 64.2005 125.795C64.2005 126.067 64.2848 126.287 64.4532 126.455C64.6346 126.624 64.842 126.76 65.0752 126.864C65.3214 126.967 65.5806 127.045 65.8527 127.097C66.1248 127.149 66.358 127.194 66.5524 127.233C66.9282 127.324 67.2781 127.434 67.602 127.563C67.9389 127.693 68.224 127.861 68.4572 128.069C68.7034 128.276 68.8913 128.529 69.0209 128.827C69.1635 129.125 69.2347 129.488 69.2347 129.915C69.2347 130.434 69.1246 130.881 68.9043 131.256C68.684 131.619 68.3989 131.917 68.0491 132.151C67.6992 132.384 67.2975 132.552 66.844 132.656C66.4034 132.76 65.9563 132.811 65.5028 132.811C64.7383 132.811 64.0645 132.695 63.4814 132.462C62.9112 132.228 62.3994 131.801 61.9458 131.179L63.2676 130.09C63.5526 130.375 63.8701 130.628 64.22 130.848C64.5698 131.069 64.9975 131.179 65.5028 131.179C65.7231 131.179 65.9434 131.159 66.1637 131.12C66.3969 131.069 66.5978 130.997 66.7662 130.907C66.9476 130.803 67.0902 130.68 67.1938 130.537C67.3105 130.382 67.3688 130.207 67.3688 130.012C67.3688 129.753 67.2845 129.539 67.1161 129.371C66.9606 129.203 66.7662 129.073 66.533 128.982C66.3127 128.879 66.073 128.801 65.8138 128.749C65.5676 128.684 65.3473 128.632 65.1529 128.594C64.7772 128.503 64.4208 128.399 64.0839 128.283C63.747 128.166 63.449 128.01 63.1898 127.816C62.9307 127.622 62.7233 127.375 62.5678 127.077C62.4123 126.779 62.3346 126.41 62.3346 125.97C62.3346 125.49 62.4318 125.075 62.6261 124.726C62.8335 124.363 63.0991 124.065 63.4231 123.831C63.76 123.598 64.1357 123.423 64.5504 123.307C64.978 123.19 65.4056 123.132 65.8332 123.132C66.4552 123.132 67.0513 123.248 67.6214 123.482C68.1916 123.715 68.6451 124.104 68.982 124.648L67.6214 125.678ZM79.5234 132.578H77.7741V131.159H77.7352C77.5149 131.652 77.1327 132.053 76.5884 132.364C76.0442 132.662 75.4157 132.811 74.703 132.811C74.2495 132.811 73.8219 132.74 73.4202 132.598C73.0185 132.468 72.6622 132.261 72.3512 131.976C72.0531 131.691 71.8134 131.328 71.632 130.887C71.4506 130.434 71.3599 129.902 71.3599 129.293V123.365H73.1092V128.807C73.1092 129.235 73.1675 129.604 73.2841 129.915C73.4008 130.213 73.5563 130.459 73.7506 130.654C73.945 130.835 74.1653 130.971 74.4115 131.062C74.6707 131.14 74.9363 131.179 75.2084 131.179C75.5712 131.179 75.9081 131.12 76.2191 131.004C76.5301 130.887 76.8022 130.706 77.0355 130.459C77.2687 130.2 77.4501 129.876 77.5797 129.488C77.7093 129.099 77.7741 128.639 77.7741 128.108V123.365H79.5234V132.578ZM82.1603 123.365H83.9097V124.784H83.9485C84.0652 124.538 84.2206 124.317 84.415 124.123C84.6094 123.916 84.8232 123.741 85.0564 123.598C85.3026 123.456 85.5683 123.346 85.8534 123.268C86.1384 123.177 86.4235 123.132 86.7086 123.132C86.9937 123.132 87.2528 123.171 87.4861 123.248L87.4083 125.134C87.2658 125.095 87.1232 125.062 86.9807 125.037C86.8382 125.011 86.6956 124.998 86.5531 124.998C85.6979 124.998 85.0435 125.237 84.5899 125.717C84.1364 126.196 83.9097 126.941 83.9097 127.952V132.578H82.1603V123.365ZM89.3543 123.365H91.1036V124.687H91.1425C91.4794 124.194 91.9394 123.812 92.5225 123.54C93.1186 123.268 93.7276 123.132 94.3496 123.132C95.0623 123.132 95.7037 123.255 96.2739 123.501C96.857 123.747 97.3494 124.091 97.7511 124.531C98.1657 124.972 98.4832 125.49 98.7035 126.086C98.9238 126.669 99.0339 127.298 99.0339 127.972C99.0339 128.658 98.9238 129.3 98.7035 129.896C98.4832 130.479 98.1657 130.991 97.7511 131.431C97.3494 131.859 96.857 132.196 96.2739 132.442C95.7037 132.688 95.0623 132.811 94.3496 132.811C93.6887 132.811 93.0668 132.675 92.4837 132.403C91.9005 132.118 91.4535 131.736 91.1425 131.256H91.1036V138.059H89.3543V123.365ZM94.1358 124.764C93.6693 124.764 93.2482 124.849 92.8724 125.017C92.4966 125.173 92.1791 125.393 91.92 125.678C91.6608 125.95 91.46 126.287 91.3174 126.689C91.1749 127.077 91.1036 127.505 91.1036 127.972C91.1036 128.438 91.1749 128.872 91.3174 129.274C91.46 129.663 91.6608 129.999 91.92 130.285C92.1791 130.557 92.4966 130.777 92.8724 130.945C93.2482 131.101 93.6693 131.179 94.1358 131.179C94.6023 131.179 95.0234 131.101 95.3992 130.945C95.775 130.777 96.0925 130.557 96.3516 130.285C96.6108 129.999 96.8116 129.663 96.9542 129.274C97.0967 128.872 97.168 128.438 97.168 127.972C97.168 127.505 97.0967 127.077 96.9542 126.689C96.8116 126.287 96.6108 125.95 96.3516 125.678C96.0925 125.393 95.775 125.173 95.3992 125.017C95.0234 124.849 94.6023 124.764 94.1358 124.764ZM101.276 124.492C101.768 124.039 102.338 123.702 102.986 123.482C103.634 123.248 104.282 123.132 104.93 123.132C105.604 123.132 106.18 123.216 106.66 123.384C107.152 123.553 107.554 123.78 107.865 124.065C108.176 124.35 108.402 124.68 108.545 125.056C108.7 125.419 108.778 125.801 108.778 126.203V130.907C108.778 131.23 108.785 131.529 108.798 131.801C108.811 132.073 108.83 132.332 108.856 132.578H107.301C107.262 132.112 107.243 131.645 107.243 131.179H107.204C106.815 131.775 106.355 132.196 105.824 132.442C105.293 132.688 104.677 132.811 103.977 132.811C103.55 132.811 103.142 132.753 102.753 132.636C102.364 132.52 102.021 132.345 101.723 132.112C101.438 131.878 101.211 131.593 101.042 131.256C100.874 130.907 100.79 130.505 100.79 130.051C100.79 129.455 100.919 128.956 101.178 128.555C101.45 128.153 101.813 127.829 102.267 127.583C102.733 127.324 103.271 127.142 103.88 127.039C104.502 126.922 105.163 126.864 105.863 126.864H107.146V126.475C107.146 126.242 107.1 126.008 107.009 125.775C106.919 125.542 106.783 125.335 106.601 125.153C106.42 124.959 106.193 124.81 105.921 124.706C105.649 124.59 105.325 124.531 104.949 124.531C104.612 124.531 104.314 124.564 104.055 124.628C103.809 124.693 103.582 124.777 103.375 124.881C103.167 124.972 102.98 125.082 102.811 125.212C102.643 125.341 102.481 125.464 102.325 125.581L101.276 124.492ZM106.213 128.146C105.798 128.146 105.37 128.172 104.93 128.224C104.502 128.263 104.107 128.347 103.744 128.477C103.394 128.606 103.103 128.788 102.869 129.021C102.649 129.254 102.539 129.552 102.539 129.915C102.539 130.447 102.714 130.829 103.064 131.062C103.427 131.295 103.913 131.412 104.522 131.412C105.001 131.412 105.409 131.334 105.746 131.179C106.083 131.01 106.355 130.796 106.562 130.537C106.77 130.278 106.919 129.993 107.009 129.682C107.1 129.358 107.146 129.041 107.146 128.73V128.146H106.213ZM116.214 125.678C116.007 125.419 115.747 125.205 115.436 125.037C115.138 124.855 114.769 124.764 114.329 124.764C113.914 124.764 113.551 124.855 113.24 125.037C112.942 125.205 112.793 125.458 112.793 125.795C112.793 126.067 112.877 126.287 113.046 126.455C113.227 126.624 113.434 126.76 113.668 126.864C113.914 126.967 114.173 127.045 114.445 127.097C114.717 127.149 114.951 127.194 115.145 127.233C115.521 127.324 115.871 127.434 116.195 127.563C116.531 127.693 116.816 127.861 117.05 128.069C117.296 128.276 117.484 128.529 117.613 128.827C117.756 129.125 117.827 129.488 117.827 129.915C117.827 130.434 117.717 130.881 117.497 131.256C117.277 131.619 116.991 131.917 116.642 132.151C116.292 132.384 115.89 132.552 115.436 132.656C114.996 132.76 114.549 132.811 114.095 132.811C113.331 132.811 112.657 132.695 112.074 132.462C111.504 132.228 110.992 131.801 110.538 131.179L111.86 130.09C112.145 130.375 112.463 130.628 112.812 130.848C113.162 131.069 113.59 131.179 114.095 131.179C114.316 131.179 114.536 131.159 114.756 131.12C114.989 131.069 115.19 130.997 115.359 130.907C115.54 130.803 115.683 130.68 115.786 130.537C115.903 130.382 115.961 130.207 115.961 130.012C115.961 129.753 115.877 129.539 115.709 129.371C115.553 129.203 115.359 129.073 115.125 128.982C114.905 128.879 114.665 128.801 114.406 128.749C114.16 128.684 113.94 128.632 113.745 128.594C113.37 128.503 113.013 128.399 112.676 128.283C112.34 128.166 112.041 128.01 111.782 127.816C111.523 127.622 111.316 127.375 111.16 127.077C111.005 126.779 110.927 126.41 110.927 125.97C110.927 125.49 111.024 125.075 111.219 124.726C111.426 124.363 111.692 124.065 112.016 123.831C112.352 123.598 112.728 123.423 113.143 123.307C113.571 123.19 113.998 123.132 114.426 123.132C115.048 123.132 115.644 123.248 116.214 123.482C116.784 123.715 117.238 124.104 117.575 124.648L116.214 125.678ZM124.851 125.678C124.643 125.419 124.384 125.205 124.073 125.037C123.775 124.855 123.406 124.764 122.965 124.764C122.55 124.764 122.188 124.855 121.877 125.037C121.579 125.205 121.43 125.458 121.43 125.795C121.43 126.067 121.514 126.287 121.682 126.455C121.864 126.624 122.071 126.76 122.304 126.864C122.55 126.967 122.81 127.045 123.082 127.097C123.354 127.149 123.587 127.194 123.781 127.233C124.157 127.324 124.507 127.434 124.831 127.563C125.168 127.693 125.453 127.861 125.686 128.069C125.933 128.276 126.12 128.529 126.25 128.827C126.393 129.125 126.464 129.488 126.464 129.915C126.464 130.434 126.354 130.881 126.133 131.256C125.913 131.619 125.628 131.917 125.278 132.151C124.928 132.384 124.527 132.552 124.073 132.656C123.632 132.76 123.185 132.811 122.732 132.811C121.967 132.811 121.294 132.695 120.71 132.462C120.14 132.228 119.628 131.801 119.175 131.179L120.497 130.09C120.782 130.375 121.099 130.628 121.449 130.848C121.799 131.069 122.227 131.179 122.732 131.179C122.952 131.179 123.172 131.159 123.393 131.12C123.626 131.069 123.827 130.997 123.995 130.907C124.177 130.803 124.319 130.68 124.423 130.537C124.54 130.382 124.598 130.207 124.598 130.012C124.598 129.753 124.514 129.539 124.345 129.371C124.19 129.203 123.995 129.073 123.762 128.982C123.542 128.879 123.302 128.801 123.043 128.749C122.797 128.684 122.576 128.632 122.382 128.594C122.006 128.503 121.65 128.399 121.313 128.283C120.976 128.166 120.678 128.01 120.419 127.816C120.16 127.622 119.952 127.375 119.797 127.077C119.641 126.779 119.564 126.41 119.564 125.97C119.564 125.49 119.661 125.075 119.855 124.726C120.063 124.363 120.328 124.065 120.652 123.831C120.989 123.598 121.365 123.423 121.779 123.307C122.207 123.19 122.635 123.132 123.062 123.132C123.684 123.132 124.28 123.248 124.851 123.482C125.421 123.715 125.874 124.104 126.211 124.648L124.851 125.678ZM137.925 120.955L135.398 123.287L134.31 121.985L138.139 118.817H139.791V132.578H137.925V120.955ZM146.179 132.695C145.829 132.695 145.525 132.572 145.266 132.325C145.019 132.066 144.896 131.762 144.896 131.412C144.896 131.062 145.019 130.764 145.266 130.518C145.525 130.259 145.829 130.129 146.179 130.129C146.529 130.129 146.827 130.259 147.073 130.518C147.332 130.764 147.462 131.062 147.462 131.412C147.462 131.762 147.332 132.066 147.073 132.325C146.827 132.572 146.529 132.695 146.179 132.695ZM158.042 120.566H152.464L152.405 124.006C152.496 123.968 152.625 123.929 152.794 123.89C152.962 123.851 153.131 123.819 153.299 123.793C153.481 123.767 153.656 123.747 153.824 123.734C153.993 123.721 154.135 123.715 154.252 123.715C154.9 123.715 155.483 123.825 156.001 124.045C156.532 124.266 156.986 124.577 157.362 124.978C157.737 125.38 158.022 125.859 158.217 126.417C158.424 126.974 158.528 127.589 158.528 128.263C158.528 128.95 158.398 129.572 158.139 130.129C157.893 130.686 157.55 131.166 157.109 131.567C156.668 131.969 156.157 132.28 155.573 132.5C154.99 132.708 154.362 132.811 153.688 132.811C152.755 132.811 151.913 132.572 151.161 132.092C150.41 131.613 149.872 130.926 149.548 130.032L151.433 129.39C151.68 130.025 152.01 130.485 152.425 130.77C152.839 131.043 153.358 131.179 153.98 131.179C154.342 131.179 154.686 131.114 155.01 130.984C155.347 130.855 155.632 130.673 155.865 130.44C156.111 130.194 156.306 129.896 156.448 129.546C156.591 129.196 156.662 128.801 156.662 128.36C156.662 127.35 156.351 126.598 155.729 126.106C155.12 125.6 154.323 125.348 153.338 125.348C152.988 125.348 152.541 125.412 151.997 125.542C151.466 125.659 150.967 125.833 150.5 126.067L150.656 118.817H158.042V120.566ZM171.039 121.791C170.65 121.285 170.158 120.896 169.562 120.624C168.965 120.352 168.35 120.216 167.715 120.216C166.938 120.216 166.231 120.365 165.596 120.663C164.974 120.948 164.437 121.344 163.983 121.849C163.543 122.354 163.199 122.95 162.953 123.637C162.707 124.311 162.584 125.037 162.584 125.814C162.584 126.54 162.7 127.226 162.934 127.874C163.167 128.522 163.504 129.092 163.944 129.585C164.385 130.077 164.923 130.466 165.558 130.751C166.192 131.036 166.912 131.179 167.715 131.179C168.505 131.179 169.199 131.017 169.795 130.693C170.391 130.369 170.896 129.915 171.311 129.332L172.885 130.518C172.782 130.66 172.6 130.868 172.341 131.14C172.082 131.399 171.738 131.665 171.311 131.937C170.883 132.196 170.365 132.423 169.756 132.617C169.16 132.824 168.467 132.928 167.676 132.928C166.588 132.928 165.603 132.721 164.722 132.306C163.854 131.891 163.108 131.347 162.486 130.673C161.877 129.999 161.411 129.241 161.087 128.399C160.763 127.544 160.601 126.682 160.601 125.814C160.601 124.751 160.776 123.773 161.126 122.879C161.476 121.972 161.962 121.195 162.584 120.547C163.219 119.886 163.977 119.374 164.858 119.011C165.739 118.648 166.711 118.467 167.773 118.467C168.68 118.467 169.568 118.642 170.436 118.992C171.317 119.342 172.037 119.879 172.594 120.605L171.039 121.791Z" fill="black"/>
</svg>
