<svg width="137" height="134" viewBox="0 0 137 134" fill="none" xmlns="http://www.w3.org/2000/svg">
<path d="M72.0201 128.57C105.148 128.57 132.004 101.714 132.004 68.5856C132.004 35.4573 105.148 8.60156 72.0201 8.60156C38.8919 8.60156 12.0361 35.4573 12.0361 68.5856C12.0361 101.714 38.8919 128.57 72.0201 128.57Z" fill="white"/>
<path d="M72.0201 131.07C106.529 131.07 134.504 103.095 134.504 68.5856C134.504 34.0766 106.529 6.10156 72.0201 6.10156C37.5112 6.10156 9.53613 34.0766 9.53613 68.5856C9.53613 103.095 37.5112 131.07 72.0201 131.07Z" stroke="black" stroke-width="5" stroke-linejoin="round"/>
<path d="M57.3812 126.875L57.6362 126.027C58.7008 121.942 60.5602 118.106 63.1081 114.74C65.656 111.373 68.8424 108.542 72.4852 106.408L72.6852 106.327C75.8546 104.463 78.6488 102.024 80.9242 99.136C81.8286 98.0002 82.6577 96.8063 83.4062 95.562C84.6443 93.3192 85.598 90.9308 86.2452 88.4521L86.6452 86.941L97.0892 87.7151C98.5099 87.8223 99.915 87.361 100.996 86.4326C102.076 85.5042 102.744 84.1846 102.852 82.764V82.746L102.866 82.5551C102.978 81.1217 102.52 79.7022 101.59 78.6052C100.661 77.5081 99.3364 76.8224 97.9042 76.6971L89.4712 76.0721L95.6622 52.3441L42.7622 47.1641L36.9702 77.191C35.9059 84.9557 37.1645 92.8617 40.5872 99.912L40.7522 100.312C44.6972 108.231 43.8522 113.173 42.2432 121.871" fill="white"/>
<path d="M57.3812 126.875L57.6362 126.027C58.7008 121.942 60.5602 118.106 63.1081 114.74C65.656 111.373 68.8424 108.542 72.4852 106.408L72.6852 106.327C75.8546 104.463 78.6487 102.024 80.9242 99.136C81.8286 98.0002 82.6577 96.8063 83.4062 95.562C84.6443 93.3192 85.598 90.9308 86.2452 88.4521L86.6452 86.941L97.0892 87.7151C98.5099 87.8223 99.915 87.361 100.996 86.4326C102.076 85.5042 102.744 84.1846 102.852 82.764V82.746L102.866 82.5551C102.978 81.1217 102.52 79.7022 101.59 78.6052C100.661 77.5081 99.3364 76.8224 97.9042 76.6971L89.4712 76.0721L95.6622 52.3441L42.7622 47.1641L36.9702 77.191C35.9059 84.9557 37.1645 92.8617 40.5872 99.912L40.7522 100.312C44.6972 108.231 43.8522 113.173 42.2432 121.871" stroke="black" stroke-width="5" stroke-miterlimit="10" stroke-linecap="round"/>
<path d="M81.6362 72.233C81.6805 69.4597 79.4683 67.1757 76.6951 67.1313C73.9219 67.087 71.6378 69.2992 71.5935 72.0724C71.5491 74.8456 73.7613 77.1297 76.5345 77.174C79.3078 77.2184 81.5918 75.0062 81.6362 72.233Z" fill="black"/>
<path d="M27.5941 52.074C41.1455 52.074 52.1311 41.0884 52.1311 27.537C52.1311 13.9856 41.1455 3 27.5941 3C14.0427 3 3.05713 13.9856 3.05713 27.537C3.05713 41.0884 14.0427 52.074 27.5941 52.074Z" fill="black" stroke="black" stroke-width="5" stroke-miterlimit="10" stroke-linecap="round"/>
<path d="M80.9243 99.1311C77.43 99.7223 73.8412 99.3686 70.5295 98.1065C67.2179 96.8444 64.3039 94.72 62.0894 91.9531" fill="white"/>
<path d="M80.9243 99.1311C77.43 99.7223 73.8412 99.3686 70.5295 98.1065C67.2179 96.8444 64.3039 94.72 62.0894 91.9531" stroke="black" stroke-width="5" stroke-miterlimit="10" stroke-linecap="round"/>
<path d="M41.1382 72.8669L45.2487 51.5547L84.3486 55.3837L41.1382 72.8669Z" fill="black"/>
<path d="M47.2722 54.264L44.464 68.8236L73.9836 56.8798L47.2722 54.264ZM43.2254 48.8438L94.7138 53.886L37.8125 76.9086L43.2254 48.8438Z" fill="black"/>
</svg>
