<svg width="107" height="91" viewBox="0 0 107 91" fill="none" xmlns="http://www.w3.org/2000/svg">
<path d="M88.167 27.4102L87.08 24.9873C76.2643 29.8211 63.9732 30.1686 52.9019 25.9531C41.8306 21.7377 32.8829 13.303 28.021 2.5L25.598 3.58691C30.4204 14.4045 30.7622 26.6918 26.5486 37.7607C22.335 48.8297 13.9091 57.7798 3.11401 62.6523L4.19995 65.0752C15.0176 60.2522 27.3052 59.9104 38.3745 64.124C49.4438 68.3376 58.3936 76.764 63.266 87.5596L65.688 86.4727C60.8528 75.6577 60.5039 63.3658 64.7179 52.2939C68.9318 41.2221 77.3646 32.2735 88.167 27.4102Z" fill="white" stroke="black" stroke-width="5" stroke-linecap="round" stroke-linejoin="round"/>
</svg>
