<svg width="358" height="155" viewBox="0 0 358 155" fill="none" xmlns="http://www.w3.org/2000/svg">
<path d="M72.8101 150.875H353.736V4.375H72.8101L4.93311 77.624L72.8101 150.875Z" fill="#F8D949" stroke="black" stroke-width="8" stroke-linejoin="round"/>
<path d="M154.867 78.9688H117.061V76.797L133.068 57.0899C139.262 49.4484 141.434 42.7721 141.434 37.5437C141.434 31.6718 136.849 26.363 131.299 26.363C129.288 26.363 125.185 27.2478 123.496 29.4196C128.886 29.7413 132.907 33.2001 132.907 38.0263C132.907 42.3699 129.529 45.7483 125.185 45.7483C120.842 45.7483 116.981 42.7721 116.981 37.3024C116.981 30.1435 125.668 22.3411 137.492 22.3411C146.582 22.3411 156.475 27.5695 156.475 36.6589C156.475 50.4941 137.171 55.8833 130.575 64.0879L128.644 66.501H157.039L154.867 78.9688ZM170.642 80.1753L170.561 78.9688C180.616 77.9231 189.223 69.3967 192.038 55.642C189.223 56.8486 184.799 58.1356 181.34 58.1356C171.446 58.1356 163.966 52.505 163.966 42.209C163.966 33.361 172.251 22.3411 184.879 22.3411C198.553 22.3411 208.447 32.3153 208.447 46.2309C208.447 66.9032 189.062 78.5666 170.642 80.1753ZM192.44 53.4702C192.923 50.7354 193.084 48.644 193.084 45.6678C193.084 37.3828 190.912 24.5129 184.96 24.5129C180.696 24.5129 178.927 33.6023 178.927 39.2329C178.927 47.8396 182.949 54.4355 188.821 54.4355C190.108 54.4355 191.314 54.0333 192.44 53.4702ZM251.732 22.3411L251.812 23.789C241.114 24.9151 232.749 33.2805 230.657 46.2309C233.553 44.9439 238.057 43.5765 241.677 43.5765C251.571 43.5765 258.649 50.0114 258.649 60.3074C258.649 69.1554 250.606 80.1753 237.977 80.1753C223.498 80.1753 214.65 69.3967 214.65 55.4811C214.65 34.8088 233.312 23.9498 251.732 22.3411ZM230.335 48.4027C230.094 50.0114 230.014 51.6202 230.014 53.2289C230.014 61.5139 231.22 78.0839 237.897 78.0839C242.16 78.0839 243.688 68.9141 243.688 63.2835C243.688 56.2051 239.264 47.357 234.196 47.357C232.829 47.357 231.542 47.8396 230.335 48.4027ZM272.919 85.8634H262.232V85.7255C263.922 84.7602 264.128 83.6571 264.128 81.175V67.3513C264.128 64.3177 263.784 63.5593 261.888 62.663V62.5251C264.887 62.2493 267.92 61.5944 270.368 60.9738H270.506V63.7317C271.264 62.9388 273.402 60.9738 275.78 60.9738C280.02 60.9738 282.296 64.559 282.296 69.661C282.296 76.9693 275.78 79.3824 271.885 79.3824C271.437 79.3824 270.954 79.348 270.471 79.3135V81.175C270.471 83.6571 270.713 84.6913 272.919 85.7255V85.8634ZM270.506 64.1109V77.7967C271.126 78.1414 271.575 78.2103 272.195 78.2103C274.436 78.2103 275.953 75.418 275.953 70.2816C275.953 66.2482 274.608 63.6972 272.057 63.6972C271.506 63.6972 270.851 63.9385 270.506 64.1109ZM293.657 85.8634H282.97V85.7255C284.659 84.7602 284.866 83.6571 284.866 81.175V67.3513C284.866 64.3177 284.521 63.5593 282.625 62.663V62.5251C285.624 62.2493 288.658 61.5944 291.106 60.9738H291.244V63.7317C292.002 62.9388 294.139 60.9738 296.518 60.9738C300.758 60.9738 303.033 64.559 303.033 69.661C303.033 76.9693 296.518 79.3824 292.623 79.3824C292.174 79.3824 291.692 79.348 291.209 79.3135V81.175C291.209 83.6571 291.45 84.6913 293.657 85.7255V85.8634ZM291.244 64.1109V77.7967C291.864 78.1414 292.312 78.2103 292.933 78.2103C295.174 78.2103 296.69 75.418 296.69 70.2816C296.69 66.2482 295.346 63.6972 292.795 63.6972C292.243 63.6972 291.588 63.9385 291.244 64.1109ZM335.078 78.9688H325.047V78.8309C326.736 77.8656 326.943 76.7625 326.943 74.2804V66.6619C326.943 64.628 325.426 63.7662 323.978 63.7662C323.323 63.7662 322.496 63.8696 322.151 64.0075C322.427 64.7314 322.564 65.5932 322.564 66.6619V74.2804C322.564 76.7625 322.771 77.8656 324.46 78.8309V78.9688H314.429V78.8309C316.118 77.8656 316.325 76.7625 316.325 74.2804V66.6619C316.325 64.628 315.084 63.7662 313.636 63.7662C313.05 63.7662 312.326 63.8696 311.947 63.973V74.2804C311.947 76.7625 312.154 77.8656 313.843 78.8309V78.9688H303.811V78.8309C305.5 77.8656 305.707 76.7625 305.707 74.2804V67.3513C305.707 64.3177 305.362 63.5593 303.466 62.663V62.5251C306.466 62.2493 309.361 61.5944 311.809 60.9738H311.947V63.6283C313.119 62.2493 315.325 60.9738 317.738 60.9738C319.565 60.9738 321.323 61.7323 322.116 63.8351C323.219 62.4217 325.805 60.9738 328.356 60.9738C330.872 60.9738 333.182 62.3872 333.182 66.6619V74.2804C333.182 76.7625 333.389 77.8656 335.078 78.8309V78.9688Z" fill="black"/>
<path d="M174.899 101.517C174.51 101.012 174.018 100.623 173.422 100.351C172.826 100.079 172.21 99.9428 171.575 99.9428C170.798 99.9428 170.092 100.092 169.457 100.39C168.835 100.675 168.297 101.07 167.843 101.575C167.403 102.081 167.059 102.677 166.813 103.364C166.567 104.037 166.444 104.763 166.444 105.541C166.444 106.266 166.561 106.953 166.794 107.601C167.027 108.249 167.364 108.819 167.805 109.311C168.245 109.804 168.783 110.193 169.418 110.478C170.053 110.763 170.772 110.905 171.575 110.905C172.366 110.905 173.059 110.743 173.655 110.419C174.251 110.095 174.757 109.642 175.171 109.059L176.746 110.244C176.642 110.387 176.46 110.594 176.201 110.866C175.942 111.126 175.599 111.391 175.171 111.663C174.744 111.922 174.225 112.149 173.616 112.344C173.02 112.551 172.327 112.655 171.536 112.655C170.448 112.655 169.463 112.447 168.582 112.033C167.714 111.618 166.969 111.074 166.347 110.4C165.738 109.726 165.271 108.968 164.947 108.126C164.623 107.271 164.461 106.409 164.461 105.541C164.461 104.478 164.636 103.5 164.986 102.606C165.336 101.699 165.822 100.921 166.444 100.273C167.079 99.6123 167.837 99.1005 168.718 98.7377C169.599 98.3748 170.571 98.1934 171.634 98.1934C172.541 98.1934 173.428 98.3684 174.297 98.7182C175.178 99.0681 175.897 99.6058 176.454 100.331L174.899 101.517ZM185.319 112.655C184.27 112.655 183.304 112.473 182.423 112.11C181.542 111.735 180.784 111.223 180.149 110.575C179.527 109.927 179.035 109.162 178.672 108.281C178.322 107.4 178.147 106.448 178.147 105.424C178.147 104.4 178.322 103.448 178.672 102.567C179.035 101.686 179.527 100.921 180.149 100.273C180.784 99.6253 181.542 99.1199 182.423 98.7571C183.304 98.3813 184.27 98.1934 185.319 98.1934C186.369 98.1934 187.334 98.3813 188.215 98.7571C189.097 99.1199 189.848 99.6253 190.47 100.273C191.105 100.921 191.597 101.686 191.947 102.567C192.31 103.448 192.492 104.4 192.492 105.424C192.492 106.448 192.31 107.4 191.947 108.281C191.597 109.162 191.105 109.927 190.47 110.575C189.848 111.223 189.097 111.735 188.215 112.11C187.334 112.473 186.369 112.655 185.319 112.655ZM185.319 110.905C186.11 110.905 186.822 110.763 187.457 110.478C188.092 110.18 188.637 109.784 189.09 109.292C189.544 108.8 189.893 108.223 190.14 107.562C190.386 106.888 190.509 106.176 190.509 105.424C190.509 104.672 190.386 103.966 190.14 103.305C189.893 102.632 189.544 102.048 189.09 101.556C188.637 101.064 188.092 100.675 187.457 100.39C186.822 100.092 186.11 99.9428 185.319 99.9428C184.529 99.9428 183.816 100.092 183.181 100.39C182.546 100.675 182.002 101.064 181.548 101.556C181.095 102.048 180.745 102.632 180.499 103.305C180.253 103.966 180.13 104.672 180.13 105.424C180.13 106.176 180.253 106.888 180.499 107.562C180.745 108.223 181.095 108.8 181.548 109.292C182.002 109.784 182.546 110.18 183.181 110.478C183.816 110.763 184.529 110.905 185.319 110.905ZM194.3 110.322L199.82 104.841C200.014 104.659 200.202 104.465 200.384 104.258C200.565 104.037 200.727 103.811 200.869 103.577C201.012 103.344 201.122 103.098 201.2 102.839C201.291 102.58 201.336 102.308 201.336 102.023C201.336 101.686 201.271 101.381 201.142 101.109C201.025 100.837 200.857 100.61 200.636 100.429C200.429 100.234 200.176 100.085 199.878 99.9816C199.593 99.878 199.289 99.8261 198.965 99.8261C198.291 99.8261 197.734 100.014 197.293 100.39C196.852 100.766 196.574 101.284 196.457 101.945L194.436 101.77C194.527 101.161 194.701 100.636 194.961 100.195C195.233 99.7419 195.563 99.3661 195.952 99.0681C196.354 98.7701 196.807 98.5498 197.313 98.4072C197.831 98.2647 198.388 98.1934 198.984 98.1934C199.58 98.1934 200.137 98.2777 200.656 98.4461C201.187 98.6016 201.647 98.8413 202.036 99.1653C202.437 99.4763 202.748 99.8715 202.969 100.351C203.202 100.817 203.319 101.368 203.319 102.003C203.319 102.457 203.247 102.884 203.105 103.286C202.975 103.675 202.8 104.044 202.58 104.394C202.36 104.744 202.107 105.074 201.822 105.385C201.537 105.696 201.239 106.001 200.928 106.299L196.399 110.672H203.319V112.305H194.3V110.322ZM217.527 105.541C217.203 105.204 216.859 104.951 216.497 104.783C216.147 104.601 215.726 104.51 215.233 104.51C214.754 104.51 214.333 104.601 213.97 104.783C213.62 104.951 213.322 105.191 213.076 105.502C212.842 105.8 212.661 106.15 212.531 106.551C212.415 106.94 212.356 107.348 212.356 107.776C212.356 108.203 212.428 108.612 212.57 109C212.713 109.376 212.914 109.707 213.173 109.992C213.432 110.277 213.743 110.504 214.106 110.672C214.469 110.827 214.877 110.905 215.33 110.905C215.823 110.905 216.244 110.821 216.594 110.653C216.944 110.471 217.268 110.212 217.566 109.875L218.81 111.119C218.356 111.624 217.825 111.987 217.216 112.208C216.62 112.428 215.985 112.538 215.311 112.538C214.598 112.538 213.944 112.421 213.348 112.188C212.765 111.955 212.259 111.631 211.832 111.216C211.404 110.789 211.074 110.283 210.84 109.7C210.607 109.104 210.49 108.45 210.49 107.737C210.49 107.024 210.607 106.37 210.84 105.774C211.074 105.178 211.398 104.666 211.812 104.238C212.24 103.811 212.745 103.48 213.328 103.247C213.924 103.001 214.585 102.878 215.311 102.878C215.985 102.878 216.626 103.001 217.235 103.247C217.857 103.48 218.395 103.843 218.848 104.336L217.527 105.541ZM221.733 107.698C221.733 108.165 221.805 108.599 221.947 109C222.09 109.389 222.29 109.726 222.55 110.011C222.809 110.283 223.126 110.504 223.502 110.672C223.878 110.827 224.299 110.905 224.765 110.905C225.232 110.905 225.653 110.827 226.029 110.672C226.405 110.504 226.722 110.283 226.981 110.011C227.24 109.726 227.441 109.389 227.584 109C227.726 108.599 227.798 108.165 227.798 107.698C227.798 107.232 227.726 106.804 227.584 106.415C227.441 106.014 227.24 105.677 226.981 105.405C226.722 105.119 226.405 104.899 226.029 104.744C225.653 104.575 225.232 104.491 224.765 104.491C224.299 104.491 223.878 104.575 223.502 104.744C223.126 104.899 222.809 105.119 222.55 105.405C222.29 105.677 222.09 106.014 221.947 106.415C221.805 106.804 221.733 107.232 221.733 107.698ZM219.867 107.698C219.867 107.024 219.99 106.396 220.237 105.813C220.496 105.23 220.846 104.718 221.286 104.277C221.727 103.837 222.245 103.493 222.841 103.247C223.437 102.988 224.079 102.858 224.765 102.858C225.452 102.858 226.094 102.988 226.69 103.247C227.286 103.493 227.804 103.837 228.245 104.277C228.685 104.718 229.029 105.23 229.275 105.813C229.534 106.396 229.664 107.024 229.664 107.698C229.664 108.372 229.534 109.007 229.275 109.603C229.029 110.186 228.685 110.698 228.245 111.138C227.804 111.566 227.286 111.909 226.69 112.169C226.094 112.415 225.452 112.538 224.765 112.538C224.079 112.538 223.437 112.415 222.841 112.169C222.245 111.909 221.727 111.566 221.286 111.138C220.846 110.698 220.496 110.186 220.237 109.603C219.99 109.007 219.867 108.372 219.867 107.698ZM231.855 103.092H233.604V104.51H233.643C233.864 104.018 234.246 103.623 234.79 103.325C235.334 103.014 235.963 102.858 236.675 102.858C237.116 102.858 237.537 102.93 237.939 103.072C238.354 103.202 238.71 103.409 239.008 103.694C239.319 103.979 239.565 104.348 239.747 104.802C239.928 105.243 240.019 105.767 240.019 106.376V112.305H238.269V106.862C238.269 106.435 238.211 106.072 238.094 105.774C237.978 105.463 237.822 105.217 237.628 105.035C237.434 104.841 237.207 104.705 236.948 104.627C236.701 104.536 236.442 104.491 236.17 104.491C235.807 104.491 235.47 104.549 235.159 104.666C234.848 104.783 234.576 104.97 234.343 105.23C234.11 105.476 233.928 105.793 233.799 106.182C233.669 106.571 233.604 107.031 233.604 107.562V112.305H231.855V103.092ZM249.245 105.541C248.921 105.204 248.577 104.951 248.215 104.783C247.865 104.601 247.444 104.51 246.951 104.51C246.472 104.51 246.051 104.601 245.688 104.783C245.338 104.951 245.04 105.191 244.794 105.502C244.56 105.8 244.379 106.15 244.249 106.551C244.133 106.94 244.074 107.348 244.074 107.776C244.074 108.203 244.146 108.612 244.288 109C244.431 109.376 244.632 109.707 244.891 109.992C245.15 110.277 245.461 110.504 245.824 110.672C246.187 110.827 246.595 110.905 247.048 110.905C247.541 110.905 247.962 110.821 248.312 110.653C248.662 110.471 248.986 110.212 249.284 109.875L250.528 111.119C250.074 111.624 249.543 111.987 248.934 112.208C248.338 112.428 247.703 112.538 247.029 112.538C246.316 112.538 245.662 112.421 245.066 112.188C244.483 111.955 243.977 111.631 243.55 111.216C243.122 110.789 242.792 110.283 242.558 109.7C242.325 109.104 242.208 108.45 242.208 107.737C242.208 107.024 242.325 106.37 242.558 105.774C242.792 105.178 243.116 104.666 243.53 104.238C243.958 103.811 244.463 103.48 245.046 103.247C245.642 103.001 246.303 102.878 247.029 102.878C247.703 102.878 248.344 103.001 248.953 103.247C249.575 103.48 250.113 103.843 250.566 104.336L249.245 105.541ZM253.354 108.34C253.354 108.741 253.438 109.111 253.607 109.447C253.788 109.771 254.021 110.05 254.306 110.283C254.592 110.516 254.922 110.698 255.298 110.827C255.674 110.957 256.062 111.022 256.464 111.022C257.008 111.022 257.481 110.899 257.883 110.653C258.285 110.393 258.654 110.056 258.991 109.642L260.313 110.653C259.341 111.909 257.98 112.538 256.231 112.538C255.505 112.538 254.844 112.415 254.248 112.169C253.665 111.922 253.166 111.586 252.752 111.158C252.35 110.717 252.039 110.205 251.819 109.622C251.598 109.026 251.488 108.385 251.488 107.698C251.488 107.011 251.605 106.376 251.838 105.793C252.084 105.197 252.415 104.685 252.829 104.258C253.257 103.817 253.762 103.474 254.345 103.228C254.928 102.981 255.563 102.858 256.25 102.858C257.067 102.858 257.753 103.001 258.311 103.286C258.881 103.571 259.347 103.947 259.71 104.413C260.073 104.867 260.332 105.385 260.487 105.968C260.656 106.538 260.74 107.121 260.74 107.718V108.34H253.354ZM258.874 106.94C258.861 106.551 258.796 106.195 258.68 105.871C258.576 105.547 258.414 105.268 258.194 105.035C257.974 104.789 257.695 104.601 257.358 104.472C257.034 104.329 256.652 104.258 256.211 104.258C255.784 104.258 255.388 104.342 255.026 104.51C254.676 104.666 254.378 104.873 254.132 105.132C253.885 105.392 253.691 105.683 253.548 106.007C253.419 106.318 253.354 106.629 253.354 106.94H258.874ZM262.833 103.092H264.582V104.51H264.621C264.841 104.018 265.224 103.623 265.768 103.325C266.312 103.014 266.94 102.858 267.653 102.858C268.094 102.858 268.515 102.93 268.917 103.072C269.331 103.202 269.688 103.409 269.986 103.694C270.297 103.979 270.543 104.348 270.724 104.802C270.906 105.243 270.996 105.767 270.996 106.376V112.305H269.247V106.862C269.247 106.435 269.189 106.072 269.072 105.774C268.955 105.463 268.8 105.217 268.606 105.035C268.411 104.841 268.184 104.705 267.925 104.627C267.679 104.536 267.42 104.491 267.148 104.491C266.785 104.491 266.448 104.549 266.137 104.666C265.826 104.783 265.554 104.97 265.321 105.23C265.088 105.476 264.906 105.793 264.777 106.182C264.647 106.571 264.582 107.031 264.582 107.562V112.305H262.833V103.092ZM278.57 104.608H276.063V108.787C276.063 109.046 276.069 109.305 276.082 109.564C276.095 109.81 276.141 110.037 276.218 110.244C276.309 110.439 276.439 110.601 276.607 110.73C276.789 110.847 277.048 110.905 277.385 110.905C277.592 110.905 277.806 110.886 278.026 110.847C278.246 110.808 278.447 110.737 278.629 110.633V112.227C278.421 112.344 278.149 112.421 277.812 112.46C277.488 112.512 277.236 112.538 277.054 112.538C276.38 112.538 275.856 112.447 275.48 112.266C275.117 112.071 274.845 111.825 274.663 111.527C274.495 111.229 274.391 110.899 274.352 110.536C274.327 110.16 274.314 109.784 274.314 109.409V104.608H272.292V103.092H274.314V100.506H276.063V103.092H278.57V104.608ZM280.827 103.092H282.577V104.51H282.615C282.732 104.264 282.888 104.044 283.082 103.85C283.276 103.642 283.49 103.467 283.723 103.325C283.97 103.182 284.235 103.072 284.52 102.994C284.805 102.904 285.09 102.858 285.375 102.858C285.661 102.858 285.92 102.897 286.153 102.975L286.075 104.86C285.933 104.821 285.79 104.789 285.648 104.763C285.505 104.737 285.363 104.724 285.22 104.724C284.365 104.724 283.71 104.964 283.257 105.443C282.803 105.923 282.577 106.668 282.577 107.679V112.305H280.827V103.092ZM288.06 104.219C288.552 103.765 289.123 103.428 289.771 103.208C290.418 102.975 291.066 102.858 291.714 102.858C292.388 102.858 292.965 102.943 293.444 103.111C293.937 103.279 294.338 103.506 294.649 103.791C294.96 104.076 295.187 104.407 295.329 104.783C295.485 105.145 295.563 105.528 295.563 105.929V110.633C295.563 110.957 295.569 111.255 295.582 111.527C295.595 111.799 295.615 112.058 295.64 112.305H294.086C294.047 111.838 294.027 111.372 294.027 110.905H293.988C293.6 111.501 293.14 111.922 292.608 112.169C292.077 112.415 291.462 112.538 290.762 112.538C290.334 112.538 289.926 112.48 289.537 112.363C289.149 112.246 288.805 112.071 288.507 111.838C288.222 111.605 287.995 111.32 287.827 110.983C287.658 110.633 287.574 110.231 287.574 109.778C287.574 109.182 287.704 108.683 287.963 108.281C288.235 107.88 288.598 107.556 289.051 107.309C289.518 107.05 290.056 106.869 290.665 106.765C291.287 106.649 291.947 106.59 292.647 106.59H293.93V106.201C293.93 105.968 293.885 105.735 293.794 105.502C293.703 105.268 293.567 105.061 293.386 104.88C293.204 104.685 292.978 104.536 292.706 104.433C292.433 104.316 292.109 104.258 291.734 104.258C291.397 104.258 291.099 104.29 290.84 104.355C290.593 104.42 290.367 104.504 290.159 104.608C289.952 104.698 289.764 104.808 289.596 104.938C289.427 105.068 289.265 105.191 289.11 105.307L288.06 104.219ZM292.997 107.873C292.582 107.873 292.155 107.899 291.714 107.951C291.287 107.99 290.891 108.074 290.529 108.203C290.179 108.333 289.887 108.514 289.654 108.748C289.434 108.981 289.323 109.279 289.323 109.642C289.323 110.173 289.498 110.555 289.848 110.789C290.211 111.022 290.697 111.138 291.306 111.138C291.785 111.138 292.194 111.061 292.531 110.905C292.867 110.737 293.14 110.523 293.347 110.264C293.554 110.005 293.703 109.72 293.794 109.409C293.885 109.085 293.93 108.767 293.93 108.456V107.873H292.997ZM303.037 104.608H300.53V108.787C300.53 109.046 300.536 109.305 300.549 109.564C300.562 109.81 300.608 110.037 300.685 110.244C300.776 110.439 300.906 110.601 301.074 110.73C301.256 110.847 301.515 110.905 301.852 110.905C302.059 110.905 302.273 110.886 302.493 110.847C302.713 110.808 302.914 110.737 303.096 110.633V112.227C302.888 112.344 302.616 112.421 302.279 112.46C301.955 112.512 301.703 112.538 301.521 112.538C300.847 112.538 300.323 112.447 299.947 112.266C299.584 112.071 299.312 111.825 299.131 111.527C298.962 111.229 298.858 110.899 298.82 110.536C298.794 110.16 298.781 109.784 298.781 109.409V104.608H296.759V103.092H298.781V100.506H300.53V103.092H303.037V104.608ZM305.43 103.092H307.18V112.305H305.43V103.092ZM305.022 99.7873C305.022 99.4374 305.145 99.1394 305.391 98.8932C305.651 98.634 305.955 98.5044 306.305 98.5044C306.655 98.5044 306.953 98.634 307.199 98.8932C307.458 99.1394 307.588 99.4374 307.588 99.7873C307.588 100.137 307.458 100.442 307.199 100.701C306.953 100.947 306.655 101.07 306.305 101.07C305.955 101.07 305.651 100.947 305.391 100.701C305.145 100.442 305.022 100.137 305.022 99.7873ZM311.383 107.698C311.383 108.165 311.454 108.599 311.596 109C311.739 109.389 311.94 109.726 312.199 110.011C312.458 110.283 312.776 110.504 313.151 110.672C313.527 110.827 313.948 110.905 314.415 110.905C314.881 110.905 315.302 110.827 315.678 110.672C316.054 110.504 316.371 110.283 316.631 110.011C316.89 109.726 317.091 109.389 317.233 109C317.376 108.599 317.447 108.165 317.447 107.698C317.447 107.232 317.376 106.804 317.233 106.415C317.091 106.014 316.89 105.677 316.631 105.405C316.371 105.119 316.054 104.899 315.678 104.744C315.302 104.575 314.881 104.491 314.415 104.491C313.948 104.491 313.527 104.575 313.151 104.744C312.776 104.899 312.458 105.119 312.199 105.405C311.94 105.677 311.739 106.014 311.596 106.415C311.454 106.804 311.383 107.232 311.383 107.698ZM309.517 107.698C309.517 107.024 309.64 106.396 309.886 105.813C310.145 105.23 310.495 104.718 310.936 104.277C311.376 103.837 311.894 103.493 312.491 103.247C313.087 102.988 313.728 102.858 314.415 102.858C315.102 102.858 315.743 102.988 316.339 103.247C316.935 103.493 317.453 103.837 317.894 104.277C318.335 104.718 318.678 105.23 318.924 105.813C319.183 106.396 319.313 107.024 319.313 107.698C319.313 108.372 319.183 109.007 318.924 109.603C318.678 110.186 318.335 110.698 317.894 111.138C317.453 111.566 316.935 111.909 316.339 112.169C315.743 112.415 315.102 112.538 314.415 112.538C313.728 112.538 313.087 112.415 312.491 112.169C311.894 111.909 311.376 111.566 310.936 111.138C310.495 110.698 310.145 110.186 309.886 109.603C309.64 109.007 309.517 108.372 309.517 107.698ZM321.504 103.092H323.254V104.51H323.293C323.513 104.018 323.895 103.623 324.439 103.325C324.984 103.014 325.612 102.858 326.325 102.858C326.765 102.858 327.187 102.93 327.588 103.072C328.003 103.202 328.359 103.409 328.657 103.694C328.968 103.979 329.214 104.348 329.396 104.802C329.577 105.243 329.668 105.767 329.668 106.376V112.305H327.919V106.862C327.919 106.435 327.86 106.072 327.744 105.774C327.627 105.463 327.472 105.217 327.277 105.035C327.083 104.841 326.856 104.705 326.597 104.627C326.351 104.536 326.092 104.491 325.819 104.491C325.457 104.491 325.12 104.549 324.809 104.666C324.498 104.783 324.226 104.97 323.992 105.23C323.759 105.476 323.578 105.793 323.448 106.182C323.319 106.571 323.254 107.031 323.254 107.562V112.305H321.504V103.092Z" fill="black"/>
<path d="M266.408 122.623H268.158V131.836H266.408V122.623ZM266 119.319C266 118.969 266.123 118.671 266.37 118.424C266.629 118.165 266.933 118.036 267.283 118.036C267.633 118.036 267.931 118.165 268.177 118.424C268.436 118.671 268.566 118.969 268.566 119.319C268.566 119.668 268.436 119.973 268.177 120.232C267.931 120.478 267.633 120.601 267.283 120.601C266.933 120.601 266.629 120.478 266.37 120.232C266.123 119.973 266 119.668 266 119.319ZM270.942 122.623H272.691V124.042H272.73C272.95 123.549 273.333 123.154 273.877 122.856C274.421 122.545 275.05 122.39 275.762 122.39C276.203 122.39 276.624 122.461 277.026 122.603C277.44 122.733 277.797 122.94 278.095 123.225C278.406 123.51 278.652 123.88 278.833 124.333C279.015 124.774 279.105 125.299 279.105 125.908V131.836H277.356V126.394C277.356 125.966 277.298 125.603 277.181 125.305C277.064 124.994 276.909 124.748 276.715 124.566C276.52 124.372 276.293 124.236 276.034 124.158C275.788 124.068 275.529 124.022 275.257 124.022C274.894 124.022 274.557 124.081 274.246 124.197C273.935 124.314 273.663 124.502 273.43 124.761C273.197 125.007 273.015 125.325 272.886 125.713C272.756 126.102 272.691 126.562 272.691 127.093V131.836H270.942V122.623ZM291.078 120.213L288.551 122.545L287.463 121.243L291.292 118.075H292.944V131.836H291.078V120.213ZM303.162 126.51H303.084C302.656 126.718 302.151 126.821 301.568 126.821C301.075 126.821 300.576 126.737 300.071 126.569C299.566 126.4 299.106 126.141 298.691 125.791C298.289 125.428 297.959 124.975 297.7 124.43C297.441 123.873 297.311 123.219 297.311 122.467C297.311 121.716 297.434 121.055 297.68 120.485C297.939 119.902 298.283 119.416 298.71 119.027C299.138 118.638 299.637 118.347 300.207 118.152C300.777 117.945 301.386 117.841 302.034 117.841C302.682 117.841 303.291 117.945 303.861 118.152C304.431 118.36 304.93 118.658 305.358 119.046C305.786 119.435 306.122 119.902 306.369 120.446C306.628 120.99 306.757 121.599 306.757 122.273C306.757 122.701 306.725 123.089 306.66 123.439C306.595 123.789 306.498 124.126 306.369 124.45C306.252 124.761 306.109 125.072 305.941 125.383C305.773 125.694 305.585 126.011 305.377 126.335L301.898 131.836H299.702L303.162 126.51ZM304.891 122.331C304.891 121.917 304.82 121.534 304.678 121.184C304.548 120.835 304.354 120.537 304.095 120.29C303.848 120.031 303.55 119.83 303.2 119.688C302.851 119.545 302.462 119.474 302.034 119.474C301.607 119.474 301.218 119.545 300.868 119.688C300.518 119.83 300.214 120.031 299.954 120.29C299.708 120.537 299.514 120.835 299.371 121.184C299.242 121.534 299.177 121.917 299.177 122.331C299.177 122.746 299.242 123.128 299.371 123.478C299.514 123.828 299.708 124.132 299.954 124.392C300.214 124.638 300.518 124.832 300.868 124.975C301.218 125.117 301.607 125.188 302.034 125.188C302.462 125.188 302.851 125.117 303.2 124.975C303.55 124.832 303.848 124.638 304.095 124.392C304.354 124.132 304.548 123.828 304.678 123.478C304.82 123.128 304.891 122.746 304.891 122.331ZM308.092 124.955C308.092 124.45 308.118 123.925 308.17 123.381C308.222 122.837 308.312 122.305 308.442 121.787C308.584 121.256 308.766 120.75 308.986 120.271C309.219 119.791 309.511 119.377 309.861 119.027C310.224 118.664 310.645 118.379 311.124 118.172C311.617 117.951 312.187 117.841 312.835 117.841C313.483 117.841 314.046 117.951 314.526 118.172C315.018 118.379 315.439 118.664 315.789 119.027C316.152 119.377 316.443 119.791 316.664 120.271C316.897 120.75 317.078 121.256 317.208 121.787C317.351 122.305 317.448 122.837 317.5 123.381C317.551 123.925 317.577 124.45 317.577 124.955C317.577 125.681 317.512 126.458 317.383 127.288C317.253 128.117 317.014 128.888 316.664 129.601C316.314 130.313 315.828 130.903 315.206 131.369C314.597 131.836 313.806 132.069 312.835 132.069C311.863 132.069 311.066 131.836 310.444 131.369C309.835 130.903 309.355 130.313 309.006 129.601C308.656 128.888 308.416 128.117 308.286 127.288C308.157 126.458 308.092 125.681 308.092 124.955ZM309.958 124.955C309.958 125.409 309.984 125.947 310.036 126.569C310.101 127.19 310.23 127.793 310.424 128.376C310.619 128.946 310.904 129.432 311.28 129.834C311.668 130.236 312.187 130.436 312.835 130.436C313.483 130.436 313.994 130.236 314.37 129.834C314.759 129.432 315.05 128.946 315.245 128.376C315.439 127.793 315.562 127.19 315.614 126.569C315.679 125.947 315.711 125.409 315.711 124.955C315.711 124.644 315.698 124.294 315.672 123.906C315.659 123.504 315.614 123.102 315.536 122.701C315.472 122.286 315.374 121.891 315.245 121.515C315.115 121.126 314.94 120.783 314.72 120.485C314.513 120.174 314.254 119.928 313.943 119.746C313.632 119.565 313.262 119.474 312.835 119.474C312.407 119.474 312.038 119.565 311.727 119.746C311.416 119.928 311.15 120.174 310.93 120.485C310.722 120.783 310.554 121.126 310.424 121.515C310.295 121.891 310.191 122.286 310.113 122.701C310.049 123.102 310.003 123.504 309.977 123.906C309.964 124.294 309.958 124.644 309.958 124.955ZM318.892 124.955C318.892 124.45 318.918 123.925 318.97 123.381C319.022 122.837 319.113 122.305 319.242 121.787C319.385 121.256 319.566 120.75 319.787 120.271C320.02 119.791 320.311 119.377 320.661 119.027C321.024 118.664 321.445 118.379 321.925 118.172C322.417 117.951 322.987 117.841 323.635 117.841C324.283 117.841 324.847 117.951 325.326 118.172C325.819 118.379 326.24 118.664 326.59 119.027C326.952 119.377 327.244 119.791 327.464 120.271C327.697 120.75 327.879 121.256 328.008 121.787C328.151 122.305 328.248 122.837 328.3 123.381C328.352 123.925 328.378 124.45 328.378 124.955C328.378 125.681 328.313 126.458 328.183 127.288C328.054 128.117 327.814 128.888 327.464 129.601C327.114 130.313 326.628 130.903 326.006 131.369C325.397 131.836 324.607 132.069 323.635 132.069C322.663 132.069 321.866 131.836 321.244 131.369C320.635 130.903 320.156 130.313 319.806 129.601C319.456 128.888 319.216 128.117 319.087 127.288C318.957 126.458 318.892 125.681 318.892 124.955ZM320.758 124.955C320.758 125.409 320.784 125.947 320.836 126.569C320.901 127.19 321.031 127.793 321.225 128.376C321.419 128.946 321.704 129.432 322.08 129.834C322.469 130.236 322.987 130.436 323.635 130.436C324.283 130.436 324.795 130.236 325.171 129.834C325.559 129.432 325.851 128.946 326.045 128.376C326.24 127.793 326.363 127.19 326.415 126.569C326.479 125.947 326.512 125.409 326.512 124.955C326.512 124.644 326.499 124.294 326.473 123.906C326.46 123.504 326.415 123.102 326.337 122.701C326.272 122.286 326.175 121.891 326.045 121.515C325.916 121.126 325.741 120.783 325.52 120.485C325.313 120.174 325.054 119.928 324.743 119.746C324.432 119.565 324.063 119.474 323.635 119.474C323.207 119.474 322.838 119.565 322.527 119.746C322.216 119.928 321.951 120.174 321.73 120.485C321.523 120.783 321.354 121.126 321.225 121.515C321.095 121.891 320.992 122.286 320.914 122.701C320.849 123.102 320.804 123.504 320.778 123.906C320.765 124.294 320.758 124.644 320.758 124.955Z" fill="black"/>
</svg>
