<svg xmlns="http://www.w3.org/2000/svg" width="294" height="315" viewBox="0 0 294 315" fill="none"><path d="M205.877 60.0075C199.22 59.9307 192.789 57.5808 187.65 53.3475C186.353 52.1821 185.123 50.9443 183.965 49.6401L182.744 48.1305C182.123 47.2203 181.457 46.1991 180.835 45.0891L175.307 46.2435C174.894 46.2884 174.477 46.2884 174.064 46.2435C172.734 46.2456 171.439 45.8129 170.377 45.0115C169.315 44.21 168.544 43.0835 168.181 41.8035V41.3817C167.929 40.1143 168.085 38.7995 168.628 37.6266C169.17 36.4537 170.071 35.4832 171.2 34.8549C171.717 34.5628 172.269 34.3389 172.843 34.1889L177.572 33.2565C177.223 28.7906 177.941 24.3057 179.666 20.1718C181.392 16.0379 184.075 12.3733 187.495 9.4803C188.507 8.59286 189.635 7.84612 190.847 7.2603L191.846 6.68311L234.337 26.3301L234.492 27.5511C234.627 28.8786 234.664 30.2142 234.603 31.5471C234.63 36.1201 233.555 40.6322 231.468 44.7014C229.381 48.7706 226.345 52.277 222.615 54.9237C221.521 55.7528 220.363 56.4951 219.152 57.1437L221.55 70.4637L208.874 77.1237L205.877 60.0075Z" fill="#EDD9CA" stroke="black" stroke-width="4"></path><path d="M208.939 35.077C209.66 34.8686 210.419 34.8231 211.159 34.9439C211.781 35.0585 212.375 35.295 212.905 35.6398C213.435 35.9846 213.892 36.4309 214.249 36.953C214.605 37.475 214.856 38.0625 214.985 38.6816C215.114 39.3008 215.119 39.9393 215 40.5605C214.893 41.0434 214.713 41.5074 214.467 41.9369" stroke="black" stroke-width="4" stroke-miterlimit="10" stroke-linecap="round"></path><path d="M189.625 53.5248C193.559 53.0436 197.369 51.8314 200.858 49.9506C202.173 49.2404 203.441 48.447 204.654 47.5752" fill="white"></path><path d="M189.625 53.5248C193.559 53.0436 197.369 51.8314 200.858 49.9506C202.173 49.2404 203.441 48.447 204.654 47.5752" stroke="black" stroke-width="4" stroke-miterlimit="10" stroke-linecap="round"></path><path d="M225.946 30.4593C218.734 30.4331 211.649 28.5581 205.368 25.0135C199.088 21.4689 193.821 16.3732 190.07 10.2129C189.914 9.95553 189.811 9.66894 189.769 9.37062C189.727 9.07231 189.746 8.76851 189.825 8.47774C189.904 8.18697 190.041 7.91531 190.228 7.6793C190.415 7.44328 190.649 7.24787 190.914 7.10494C191.144 6.98481 191.366 6.85139 191.58 6.70534L192.579 6.08375C198.686 2.83984 205.758 1.90933 212.496 3.46329C219.234 5.01724 225.184 8.95121 229.253 14.5419C231.985 18.3218 233.753 22.7112 234.404 27.3291C234.487 27.9087 234.337 28.4974 233.988 28.9673C233.638 29.4371 233.118 29.7499 232.539 29.8377C230.361 30.2174 228.156 30.4253 225.946 30.4593Z" fill="#FED900" stroke="black" stroke-width="4"></path><path d="M261.354 72.883C261.017 72.8762 260.686 72.7927 260.386 72.6389C260.086 72.485 259.825 72.2648 259.623 71.995L235.025 39.0724C234.796 38.7841 234.65 38.4386 234.603 38.0734L233.382 29.7706C233.321 29.3367 233.389 28.8944 233.579 28.4993C233.769 28.1043 234.071 27.7742 234.448 27.5506C234.784 27.3511 235.167 27.2439 235.558 27.2398C236.056 27.2364 236.541 27.4006 236.934 27.706L273.542 56.011C273.776 56.1934 273.972 56.421 274.117 56.6803C274.262 56.9396 274.353 57.2253 274.386 57.5206C274.42 57.8167 274.395 58.1167 274.311 58.4028C274.227 58.6889 274.086 58.9551 273.897 59.1856L263.108 72.1726C262.902 72.4203 262.644 72.6202 262.352 72.7582C262.061 72.8962 261.743 72.9691 261.421 72.9718L261.354 72.883Z" fill="#FED900" stroke="black" stroke-width="4"></path><path d="M193.303 27.0546C192.168 27.1694 191.072 27.5283 190.089 28.1065C189.106 28.6847 188.26 29.4686 187.608 30.4045C186.603 31.7817 186.826 32.4888 188.408 33.1588C188.874 33.4602 189.415 33.6238 189.97 33.6305C190.525 33.6373 191.07 33.487 191.543 33.197C192.016 32.9071 192.397 32.4892 192.643 31.9918C192.888 31.4944 192.988 30.9376 192.931 30.3859C192.931 29.3623 193.47 29.2507 194.252 29.2879C195.064 29.283 195.868 29.4457 196.614 29.766C197.36 30.0862 198.032 30.557 198.588 31.1489C199.202 31.8003 199.835 32.3586 200.617 31.5583C201.398 30.7581 200.84 30.0323 200.226 29.4554C199.325 28.5623 198.236 27.8829 197.037 27.4674C195.839 27.0519 194.563 26.9108 193.303 27.0546Z" fill="black"></path><path d="M168.136 157H2.32422V173.494H168.136V157Z" fill="white" stroke="black" stroke-width="4"></path><path d="M154.705 173.76H16.71V311.755H154.705V173.76Z" fill="white" stroke="black" stroke-width="4"></path><path d="M267.126 171.273H261.043V224.997H267.126V171.273Z" fill="black" stroke="black" stroke-width="4" stroke-miterlimit="10" stroke-linecap="round"></path><path d="M242.641 222.134H236.559V275.858H242.641V222.134Z" fill="black" stroke="black" stroke-width="4" stroke-miterlimit="10" stroke-linecap="round"></path><path d="M241.395 272.178L238.64 277.601L286.538 301.933L289.293 296.51L241.395 272.178Z" fill="black" stroke="black" stroke-width="4" stroke-miterlimit="10" stroke-linecap="round"></path><path d="M186.912 296.495L189.667 301.918L237.565 277.586L234.81 272.163L186.912 296.495Z" fill="black" stroke="black" stroke-width="4" stroke-miterlimit="10" stroke-linecap="round"></path><path d="M268.235 210.657H205.121C199.003 210.657 194.043 215.616 194.043 221.735C194.043 227.853 199.003 232.812 205.121 232.812H268.235C274.353 232.812 279.313 227.853 279.313 221.735C279.313 215.616 274.353 210.657 268.235 210.657Z" fill="#CDF7D3" stroke="black" stroke-width="4" stroke-miterlimit="10" stroke-linecap="round"></path><path d="M275.163 173.182V110.068C275.163 103.949 270.203 98.9897 264.085 98.9897C257.967 98.9897 253.007 103.949 253.007 110.068V173.182C253.007 179.3 257.967 184.26 264.085 184.26C270.203 184.26 275.163 179.3 275.163 173.182Z" fill="#CDF7D3" stroke="black" stroke-width="4" stroke-miterlimit="10" stroke-linecap="round"></path><path d="M285.551 314.508C289.843 314.508 293.321 311.029 293.321 306.738C293.321 302.447 289.843 298.968 285.551 298.968C281.26 298.968 277.781 302.447 277.781 306.738C277.781 311.029 281.26 314.508 285.551 314.508Z" fill="black"></path><path d="M187.807 314.508C192.098 314.508 195.577 311.029 195.577 306.738C195.577 302.447 192.098 298.968 187.807 298.968C183.516 298.968 180.037 302.447 180.037 306.738C180.037 311.029 183.516 314.508 187.807 314.508Z" fill="black"></path><path d="M253.34 183.816H190.137C190.137 183.816 178.282 183.816 172.732 193.829C171.224 196.513 170.332 199.499 170.121 202.571C169.91 205.643 170.385 208.723 171.511 211.589L200.371 264.869L189.071 293.285L235.691 271.706L209.318 211.722L235.58 211.5C239.042 211.218 242.376 210.064 245.272 208.147C248.168 206.229 250.531 203.61 252.142 200.533C253.54 198 254.372 195.193 254.579 192.306C254.786 189.42 254.363 186.523 253.34 183.816Z" fill="#F7C8FC" stroke="black" stroke-width="4" stroke-linecap="round" stroke-linejoin="round"></path><path d="M136.789 147.542H72.165L74.718 156.155H139.298L136.789 147.542Z" fill="white" stroke="black" stroke-width="4" stroke-miterlimit="10" stroke-linecap="round"></path><path d="M21.2822 103.542L36.6224 156.155H74.7176L72.1646 147.542H42.1946L29.9624 103.542H21.2822Z" fill="white" stroke="black" stroke-width="4" stroke-miterlimit="10" stroke-linecap="round"></path><path d="M82.2883 103.542H29.9629L42.1951 147.542H95.1421L82.7767 103.542H82.2883Z" fill="#00DBD9" stroke="black" stroke-width="4" stroke-linecap="round" stroke-linejoin="round"></path><path d="M123.705 138.488H110.385H102.327C101.036 138.489 99.7945 137.99 98.8633 137.096C97.9321 136.202 97.3832 134.982 97.3315 133.693V133.582C97.3003 132.953 97.4029 132.326 97.6325 131.74C97.8622 131.155 98.2136 130.625 98.6635 130.185C99.1073 129.73 99.6397 129.371 100.228 129.131C100.816 128.89 101.447 128.773 102.082 128.786H110.696L122.44 128.92H110.696H102.038C101.39 128.93 100.746 128.811 100.144 128.571C99.5421 128.331 98.9936 127.974 98.5303 127.521C98.065 127.089 97.6915 126.567 97.4321 125.987C97.1727 125.408 97.0328 124.782 97.0207 124.147V124.036C96.9558 123.366 97.0439 122.69 97.2785 122.059C97.5131 121.428 97.8881 120.859 98.3749 120.395C98.8187 119.94 99.3511 119.581 99.9392 119.341C100.527 119.1 101.158 118.983 101.794 118.996H110.985H151.278L175.698 93L195.322 114.623L171.413 142.217C169.755 144.124 167.709 145.655 165.412 146.708C163.115 147.76 160.62 148.311 158.093 148.322L122.129 148.145H110.252H102.882C101.595 148.151 100.356 147.657 99.428 146.766C98.4998 145.875 97.9549 144.658 97.9087 143.372C97.8998 142.748 98.0159 142.129 98.2504 141.552C98.4849 140.974 98.8328 140.449 99.2737 140.008C99.7146 139.567 100.239 139.219 100.817 138.985C101.395 138.75 102.014 138.634 102.637 138.643H110.585H122.44" fill="white"></path><path d="M123.705 138.488H110.385H102.327C101.036 138.489 99.7945 137.99 98.8633 137.096C97.9321 136.202 97.3832 134.982 97.3315 133.693V133.582C97.3003 132.953 97.4029 132.326 97.6325 131.74C97.8622 131.155 98.2136 130.625 98.6635 130.185C99.1073 129.73 99.6397 129.371 100.228 129.131C100.816 128.89 101.447 128.773 102.082 128.786H110.696L122.44 128.92H110.696H102.038C101.39 128.93 100.746 128.811 100.144 128.571C99.5421 128.331 98.9936 127.974 98.5303 127.521C98.065 127.089 97.6915 126.567 97.4321 125.987C97.1727 125.408 97.0328 124.782 97.0207 124.147V124.036C96.9558 123.366 97.0439 122.69 97.2785 122.059C97.5131 121.428 97.8881 120.859 98.3749 120.395C98.8187 119.94 99.3511 119.581 99.9392 119.341C100.527 119.1 101.158 118.983 101.794 118.996H110.985H151.278L175.698 93L195.322 114.623L171.413 142.217C169.755 144.124 167.709 145.655 165.412 146.708C163.115 147.76 160.62 148.311 158.093 148.322L122.129 148.145H110.252H102.882C101.595 148.151 100.356 147.657 99.428 146.766C98.4998 145.875 97.9549 144.658 97.9087 143.372V143.372C97.8998 142.748 98.0159 142.129 98.2504 141.552C98.4849 140.974 98.8328 140.449 99.2737 140.008C99.7146 139.567 100.239 139.219 100.817 138.985C101.395 138.75 102.014 138.634 102.637 138.643H110.585H122.44" stroke="black" stroke-width="4" stroke-linecap="round" stroke-linejoin="round"></path><path d="M242.772 89.3996L253.34 183.816L194.066 183.128L197.351 114.308L189.537 124.587L160.677 106.827L182.122 81.119C185.803 76.6754 190.939 73.6789 196.619 72.6608L218.685 68.6426C224.517 68.6561 230.152 70.7565 234.57 74.5636C238.988 78.3708 241.898 83.6335 242.772 89.3996Z" fill="#B689F2" stroke="black" stroke-width="4" stroke-linecap="round" stroke-linejoin="round"></path></svg>