<svg width="220" height="80" viewBox="0 0 220 80" fill="none" xmlns="http://www.w3.org/2000/svg">
<path d="M217.213 76.5688H214.713H181.723H78.2007H43.6947H5.2207H2.7207V74.0688C2.7207 68.8062 3.75195 63.6997 5.78577 58.8916C7.74963 54.248 10.5607 50.0786 14.1405 46.499C17.7206 42.9189 21.89 40.1079 26.5332 38.144C31.3417 36.1104 36.4481 35.0791 41.7107 35.0791C45.1653 35.0791 48.5869 35.5347 51.9097 36.4351C58.0375 26.5562 66.5214 18.2617 76.5483 12.3677C81.9164 9.2124 87.6736 6.77441 93.6603 5.12256C99.8348 3.41846 106.244 2.55469 112.709 2.55469C120.445 2.55469 128.055 3.78418 135.328 6.2085C142.36 8.55273 148.968 11.9751 154.967 16.3804C160.893 20.7319 166.099 25.9478 170.441 31.8833C174.279 37.1294 177.366 42.8379 179.643 48.8872C182.909 47.5479 186.437 46.8481 189.993 46.8481C193.666 46.8481 197.232 47.5684 200.589 48.9883C203.831 50.3594 206.741 52.3218 209.24 54.8208C211.739 57.3198 213.702 60.231 215.073 63.4727C216.493 66.8301 217.213 70.395 217.213 74.0688V76.5688Z" fill="white"/>
<path d="M214.713 74.0688C214.713 60.416 203.646 49.3481 189.993 49.3481C185.726 49.3481 181.712 50.4287 178.21 52.3311C169.1 24.8711 143.227 5.05469 112.709 5.05469C87.2417 5.05469 65.0117 18.8599 53.0527 39.3848C49.4817 38.2178 45.6718 37.5791 41.7107 37.5791C21.5577 37.5791 5.2207 53.916 5.2207 74.0688H214.713ZM214.713 79.0688H5.2207C3.89465 79.0688 2.6228 78.542 1.68518 77.6045C0.747437 76.6665 0.220703 75.395 0.220703 74.0688C0.220703 68.4697 1.31836 63.0356 3.48328 57.9175C5.57312 52.9766 8.56409 48.54 12.3728 44.731C16.1816 40.9224 20.6182 37.9316 25.5593 35.8418C30.6777 33.6768 36.1118 32.5791 41.7107 32.5791C44.7668 32.5791 47.7992 32.9141 50.7666 33.5776C57.0189 24.0327 65.4305 16.0029 75.2814 10.2124C80.838 6.94629 86.7977 4.42285 92.9952 2.7124C99.3865 0.94873 106.019 0.0546875 112.709 0.0546875C120.715 0.0546875 128.591 1.32715 136.118 3.83691C143.398 6.26367 150.237 9.80566 156.446 14.3652C162.579 18.8682 167.966 24.2656 172.459 30.4077C175.941 35.168 178.828 40.2979 181.074 45.7104C181.569 45.5552 182.067 45.4131 182.569 45.2837C184.983 44.6631 187.48 44.3481 189.993 44.3481C194.003 44.3481 197.896 45.1348 201.563 46.686C205.103 48.1831 208.28 50.3252 211.008 53.0532C213.736 55.7812 215.878 58.959 217.375 62.499C218.926 66.166 219.713 70.0586 219.713 74.0688C219.713 76.8301 217.474 79.0688 214.713 79.0688Z" fill="black"/>
</svg>
