<svg width="171" height="237" viewBox="0 0 171 237" fill="none" xmlns="http://www.w3.org/2000/svg">
<path d="M164.393 112.363L113.787 98.5634L165.447 10.9155C166.077 9.89187 166.347 8.68693 166.214 7.49239C166.081 6.29785 165.552 5.18221 164.712 4.32247C163.862 3.53459 162.752 3.08648 161.593 3.06344C160.435 3.04039 159.308 3.44401 158.427 4.19747L23.8871 112.833C23.1286 113.452 22.5423 114.255 22.185 115.166C21.8276 116.077 21.7112 117.064 21.8471 118.033C21.939 118.962 22.3099 119.842 22.911 120.556C23.5122 121.27 24.3155 121.785 25.2151 122.033L80.9271 137.842L31.0131 225.963C30.3965 227.001 30.1479 228.217 30.3074 229.414C30.4669 230.61 31.0252 231.718 31.8921 232.559C32.284 232.913 32.7353 233.195 33.2251 233.393C34.0644 233.718 34.9776 233.803 35.8626 233.639C36.7476 233.474 37.5694 233.067 38.2361 232.462L165.911 121.446C166.637 120.808 167.19 119.996 167.518 119.087C167.846 118.178 167.938 117.2 167.786 116.245C167.637 115.347 167.241 114.508 166.641 113.822C166.042 113.136 165.264 112.631 164.393 112.363Z" fill="#FEFF00" stroke="black" stroke-width="5.651" stroke-linecap="round" stroke-linejoin="round"/>
<path d="M88.3741 178.25C117.343 178.25 140.827 154.766 140.827 125.797C140.827 96.8278 117.343 73.3438 88.3741 73.3438C59.4051 73.3438 35.9211 96.8278 35.9211 125.797C35.9211 154.766 59.4051 178.25 88.3741 178.25Z" fill="#7DF1E7" stroke="black" stroke-width="5.651" stroke-linecap="round" stroke-linejoin="round"/>
<path d="M85.6882 218.421L85.3791 220.821C85.3177 221.552 84.9693 222.23 84.4101 222.706C83.8509 223.182 83.1262 223.417 82.3941 223.361L70.0941 221.78C69.3717 221.649 68.7305 221.237 68.3103 220.635C67.8901 220.033 67.725 219.289 67.8512 218.566L68.1601 216.166C68.3575 214.544 68.1641 212.898 67.5961 211.366L87.4462 213.919C86.5098 215.258 85.9071 216.802 85.6882 218.421ZM104.65 211.355C104.198 212.627 103.337 213.713 102.201 214.443C101.065 215.172 99.7189 215.504 98.3741 215.385L56.6181 210.015C55.2829 209.788 54.0609 209.124 53.145 208.126C52.229 207.129 51.6711 205.855 51.5592 204.505C51.1022 200.725 51.4892 197.354 52.2142 191.717L55.5211 166.008L110.611 173.087L107.304 198.802C106.607 204.225 106.105 207.731 104.651 211.355H104.65Z" fill="white" stroke="black" stroke-width="5.651" stroke-linecap="round" stroke-linejoin="round"/>
<path d="M98.4381 196.438L59.4561 198.997" stroke="black" stroke-width="5.651" stroke-linecap="round" stroke-linejoin="round"/>
<path d="M97.2611 205.578L86.1091 206.31" stroke="black" stroke-width="5.651" stroke-linecap="round" stroke-linejoin="round"/>
<path d="M99.4481 186.445L60.4661 189.005" stroke="black" stroke-width="5.651" stroke-linecap="round" stroke-linejoin="round"/>
<path d="M77.5392 178.047L61.7422 179.084" stroke="black" stroke-width="5.651" stroke-linecap="round" stroke-linejoin="round"/>
<path d="M92.4971 80.5305C95.1436 80.6483 97.7875 80.2436 100.278 79.3396C102.768 78.4356 105.056 77.0499 107.01 75.2617C108.965 73.4735 110.548 71.3178 111.669 68.9177C112.791 66.5176 113.429 63.92 113.546 61.2734C113.309 66.6184 115.205 71.8388 118.816 75.7861C122.428 79.7335 127.459 82.0846 132.804 82.3225C130.157 82.2043 127.513 82.6086 125.022 83.5125C122.532 84.4163 120.244 85.8019 118.289 87.5901C116.334 89.3783 114.75 91.5343 113.628 93.9346C112.507 96.3349 111.869 98.9327 111.751 101.58C111.989 96.2352 110.094 91.0152 106.483 87.0679C102.872 83.1205 97.8414 80.7689 92.4971 80.5305Z" fill="white" stroke="black" stroke-width="5.651" stroke-linecap="round" stroke-linejoin="round"/>
<path d="M83.3951 148.698C80.9391 148.314 78.4721 147.991 76.0331 147.523C74.5011 147.228 73.0551 146.523 73.5091 144.607C73.9541 142.727 75.4671 142.696 77.0401 143.107C82.1004 144.374 87.3459 144.731 92.5311 144.159C97.9556 143.59 103.132 141.591 107.531 138.367C108.819 137.448 110.208 136.137 111.601 137.967C113.083 139.919 111.436 141.053 110.07 142.067C102.11 147.978 93.0781 149.58 83.3951 148.698Z" fill="#000605"/>
<path d="M68.037 115.945C70.2482 116.176 72.3833 116.883 74.2963 118.015C76.2094 119.148 77.8551 120.681 79.121 122.508C81.081 125.23 80.647 126.584 77.57 127.883C72.697 129.939 69.002 127.77 68.717 122.436C68.61 120.436 67.685 120.227 66.167 120.28C64.5841 120.259 63.0135 120.561 61.551 121.166C60.0884 121.772 58.7645 122.669 57.66 123.803C56.471 125.072 55.208 126.141 53.704 124.561C52.259 123.043 53.292 121.591 54.486 120.461C56.2604 118.739 58.4002 117.439 60.7461 116.657C63.0921 115.875 65.5841 115.632 68.037 115.945Z" fill="#000605"/>
<path d="M111.784 119.998C114.014 120.274 116.156 121.037 118.057 122.235C119.959 123.432 121.573 125.035 122.784 126.927C124.195 129.009 124.091 130.482 121.484 131.68C116.343 134.038 112.506 132.043 112.111 126.317C111.984 124.486 111.145 124.258 109.811 124.265C108.171 124.224 106.541 124.526 105.025 125.151C103.508 125.776 102.138 126.71 101.003 127.894C99.9161 129.025 98.7091 130.066 97.2561 128.747C95.6641 127.303 96.6261 125.916 97.8071 124.691C101.417 120.945 105.851 119.458 111.784 119.998Z" fill="#000605"/>
<path d="M19.209 80.042L31.844 65.873C36.436 60.723 41 55.5461 45.655 50.4531C46.3354 49.6826 47.2669 49.178 48.284 49.0291C61.284 48.3831 74.2929 47.8461 87.299 47.2891C87.656 47.3001 88.0123 47.3308 88.366 47.3811C87.852 48.0271 87.466 48.5699 87.019 49.0659C78.7323 58.3559 70.43 67.6324 62.112 76.895C61.3876 77.7149 60.395 78.2502 59.312 78.405C46.453 79.047 33.588 79.569 20.723 80.114C20.309 80.131 19.893 80.077 19.209 80.042Z" fill="black" stroke="black" stroke-width="2.826" stroke-linejoin="round"/>
<path d="M78.9511 60.7578C80.7241 64.5008 85.551 72.6578 86.851 76.2578C87.0331 77.0312 87.043 77.8352 86.8801 78.6128C86.7171 79.3904 86.3853 80.1226 85.9081 80.7578C83.3416 83.963 80.4327 86.8784 77.2331 89.4519C70.2163 94.7887 61.8517 98.0654 53.0771 98.9148C52.0891 99.0148 51.0901 98.9988 50.0961 99.0278C46.4111 99.1358 43.6641 98.0139 42.3781 94.0999C41.4961 91.4169 37.0481 84.172 35.6851 81.293C36.6141 81.209 37.3391 81.1128 38.0671 81.0818C45.0301 80.7818 51.9921 80.4279 58.9581 80.2319C59.7992 80.2506 60.6334 80.0757 61.3962 79.7209C62.1591 79.3662 62.8303 78.841 63.3581 78.1858C67.9231 72.9198 72.608 67.7578 77.252 62.5608C77.712 62.0368 78.2081 61.5388 78.9511 60.7578Z" fill="black" stroke="black" stroke-width="2.826" stroke-linejoin="round"/>
<path d="M30.2759 86.337L27.5129 87.6448L24.7849 81.8839C28.3889 81.1239 28.6509 81.332 30.2759 86.337Z" fill="black" stroke="black" stroke-width="2.826" stroke-linejoin="round"/>
<path d="M31.77 93.0715C30.279 93.5895 29.032 93.2584 28.392 91.7944C28.1383 91.1924 28.1278 90.5154 28.3628 89.9058C28.5978 89.2962 29.06 88.8014 29.6521 88.5254C30.2443 88.2494 30.9204 88.2137 31.5384 88.4258C32.1563 88.6378 32.668 89.0812 32.966 89.6626C33.659 91.0986 33.122 92.2635 31.77 93.0715Z" fill="black" stroke="black" stroke-width="2.826" stroke-linejoin="round"/>
<path d="M1.5101 43.5635C1.67925 42.3137 2.33202 41.1802 3.32809 40.4065C3.8036 40.0518 4.34985 39.8037 4.92978 39.6788C5.50971 39.5538 6.10972 39.5549 6.68909 39.6824C7.61653 39.9075 8.43509 40.4521 9.0011 41.2205C9.5327 40.6095 10.2216 40.1561 10.993 39.9092C11.7643 39.6624 12.5886 39.6318 13.3761 39.8206C13.9845 39.958 14.5594 40.2155 15.0668 40.5782C15.5743 40.9409 16.0041 41.4012 16.3311 41.9324C16.7029 42.5701 16.9374 43.2787 17.0195 44.0123C17.1016 44.7458 17.0296 45.4883 16.8081 46.1924L15.4881 52.0926L0.360107 48.7095L1.5101 43.5635ZM6.84711 47.0936L7.3071 45.0396C7.41002 44.7547 7.44747 44.4501 7.41666 44.1487C7.38584 43.8473 7.28754 43.5569 7.12909 43.2986C6.89952 42.9564 6.54723 42.7154 6.14505 42.6255C5.74287 42.5357 5.32154 42.6035 4.96811 42.8155C4.71516 42.982 4.5029 43.2033 4.34711 43.4629C4.19131 43.7226 4.09594 44.014 4.06808 44.3155L3.6091 46.3694L6.84711 47.0936ZM14.2001 45.6746C14.3193 45.3291 14.36 44.9612 14.3194 44.598C14.2787 44.2347 14.1577 43.8852 13.9651 43.5745C13.6659 43.143 13.2153 42.8399 12.7028 42.7254C12.1903 42.6109 11.6535 42.6935 11.1991 42.9566C10.8934 43.1553 10.6357 43.4194 10.4444 43.7298C10.2531 44.0402 10.1332 44.3891 10.0931 44.7515L9.4411 47.6695L13.5471 48.5884L14.2001 45.6746Z" fill="black"/>
<path d="M21.6692 31.1991C21.9332 31.9852 22.0264 32.8186 21.9424 33.6437C21.8584 34.4687 21.5992 35.2662 21.1822 35.983C20.8475 36.6486 20.3781 37.2372 19.8036 37.7115C19.2292 38.1858 18.5624 38.5355 17.8455 38.7381C17.1287 38.9408 16.3775 38.9921 15.6397 38.8888C14.902 38.7855 14.1938 38.5298 13.5602 38.138C12.9175 37.823 12.3454 37.3809 11.8785 36.8385C11.4116 36.2961 11.0595 35.6646 10.8436 34.9823C10.6276 34.2999 10.5523 33.5808 10.6222 32.8685C10.6921 32.1562 10.9057 31.4654 11.2502 30.838C11.6081 30.2404 12.0823 29.7206 12.6445 29.3094C13.2068 28.8982 13.8458 28.6039 14.5237 28.4439C15.2017 28.284 15.9048 28.2616 16.5916 28.378C17.2784 28.4945 17.9349 28.7474 18.5222 29.1219C18.7624 29.2543 18.9903 29.4079 19.2032 29.5809L15.5472 36.0589C16.2025 36.3499 16.9442 36.3801 17.621 36.1434C18.2978 35.9067 18.859 35.421 19.1902 34.785C19.4284 34.3333 19.5732 33.8381 19.6158 33.3292C19.6584 32.8203 19.598 32.3081 19.4382 31.8231L21.6692 31.1991ZM15.9572 31.0521C15.474 30.8522 14.9344 30.8359 14.4402 31.0064C13.9459 31.177 13.5312 31.5225 13.2742 31.9779C13.004 32.449 12.9068 32.9998 12.9996 33.535C13.0923 34.0702 13.3692 34.5563 13.7822 34.909L15.9572 31.0521Z" fill="black"/>
<path d="M25.9932 24.2522C27.0687 24.2823 28.1197 23.9277 28.9572 23.2522C29.5632 22.7682 29.7952 22.1013 29.4632 21.6853C28.4562 20.4223 24.7492 24.1182 22.5942 21.4182C21.3102 19.8082 22.0672 17.5633 23.7282 16.2363C24.7381 15.4341 25.9592 14.9422 27.2432 14.8203L27.4852 17.2893C26.7397 17.3095 26.0184 17.5583 25.4192 18.0022C24.7962 18.5022 24.4712 19.1561 24.8192 19.5881C25.6892 20.6781 29.4102 17.0012 31.7302 19.9092C33.0132 21.5172 32.2302 23.7602 30.4622 25.1682C29.2374 26.1251 27.7432 26.6736 26.1902 26.7363L25.9932 24.2522Z" fill="black"/>
<path d="M34.0791 21.3293L30.4941 11.2052L33.1031 10.2814L33.3911 11.0944C33.9052 10.1578 34.7514 9.44781 35.7631 9.10442C36.4115 8.87304 37.1028 8.78711 37.7881 8.85295C38.4733 8.9188 39.1357 9.13467 39.7281 9.48528C40.0153 8.83014 40.4314 8.23946 40.9516 7.74846C41.4718 7.25746 42.0855 6.87628 42.7561 6.62737C43.4291 6.38428 44.1471 6.29154 44.8597 6.35564C45.5724 6.41973 46.2624 6.63895 46.8811 6.99822C47.9466 7.6963 48.727 8.7527 49.0811 9.97624L50.9811 15.3403L48.2681 16.3012L46.3311 10.8334C46.178 10.1888 45.7776 9.63007 45.2161 9.27825C44.9474 9.14285 44.6534 9.06513 44.3529 9.04997C44.0524 9.03482 43.7521 9.08268 43.4711 9.19036C42.9969 9.38261 42.5729 9.68087 42.2316 10.0622C41.8904 10.4435 41.6408 10.8977 41.5021 11.3903C41.686 11.7465 41.8474 12.114 41.9851 12.4904L43.8851 17.8554L41.1721 18.8163L39.2351 13.3473C39.0825 12.7028 38.6823 12.1443 38.1211 11.7924C37.8523 11.6566 37.558 11.5787 37.2573 11.5639C36.9565 11.5491 36.6559 11.5975 36.3751 11.7062C35.9215 11.891 35.5144 12.174 35.1831 12.5348C34.8518 12.8957 34.6046 13.3256 34.4591 13.7934L36.7891 20.3693L34.0791 21.3293Z" fill="black"/>
<path d="M62.8571 16.7757L60.0971 16.5757L60.1581 15.7156C59.2792 16.3691 58.1913 16.678 57.1001 16.5838C56.3366 16.5312 55.5929 16.3167 54.9186 15.9546C54.2443 15.5925 53.6547 15.0911 53.1891 14.4837C52.374 13.3723 51.9838 12.0058 52.0891 10.6316C52.1118 9.91629 52.2767 9.21266 52.5742 8.56178C52.8718 7.9109 53.296 7.32595 53.8222 6.84084C54.3484 6.35572 54.9659 5.98017 55.6388 5.73634C56.3116 5.49252 57.0263 5.38525 57.7411 5.42067C58.8805 5.48585 59.9616 5.94551 60.7991 6.72072L60.8601 5.85963L63.6211 6.05959L62.8571 16.7757ZM60.4811 9.61769C60.2031 9.18341 59.8271 8.82038 59.3834 8.55763C58.9397 8.29488 58.4406 8.13978 57.9261 8.10475C57.1715 8.09534 56.4423 8.37685 55.8897 8.89088C55.3372 9.40492 55.0038 10.1119 54.9587 10.8652C54.9137 11.6186 55.1605 12.3603 55.6479 12.9365C56.1352 13.5127 56.8258 13.8792 57.5761 13.9597C58.0813 13.9993 58.5885 13.9162 59.0546 13.7175C59.5207 13.5189 59.9319 13.2104 60.2531 12.8186L60.4811 9.61769Z" fill="black"/>
<path d="M73.4512 11.7312C73.1543 11.5453 72.8342 11.3993 72.4991 11.2971C71.9901 11.148 71.4518 11.1285 70.9332 11.2405C70.4147 11.3524 69.9324 11.5924 69.5302 11.9382L67.3892 18.3381L64.6602 17.4241L68.0602 7.24219L70.6842 8.12012L70.3401 9.14722C70.8509 8.86362 71.4172 8.69444 71.9998 8.65161C72.5825 8.60879 73.1675 8.6933 73.7142 8.89917C74.0247 9.00501 74.3257 9.13685 74.6141 9.29321L73.4512 11.7312Z" fill="black"/>
<path d="M79.2421 24.4333C78.6644 24.2533 78.1122 24 77.5991 23.6794C76.9756 23.3593 76.4373 22.8954 76.0285 22.3262C75.6197 21.7569 75.3522 21.0986 75.2481 20.4055C75.2207 19.2713 75.5761 18.1609 76.257 17.2534L78.235 14.0535L75.692 12.4824L76.971 10.4104L79.515 11.9805L81.087 9.4375L83.5371 10.9504L81.965 13.4934L84.98 15.3555L83.7 17.4294L80.6851 15.5645L78.532 19.0505C78.2376 19.4312 78.0925 19.9063 78.124 20.3865C78.1847 20.6484 78.3026 20.8936 78.4693 21.1045C78.636 21.3154 78.8472 21.4869 79.088 21.6064C79.425 21.8099 79.7786 21.9844 80.145 22.1284L79.2421 24.4333Z" fill="black"/>
<path d="M84.218 24.186C84.4062 24.3588 84.5583 24.567 84.6656 24.7988C84.773 25.0306 84.8334 25.2816 84.8434 25.5369C84.8535 25.7921 84.8129 26.0466 84.7241 26.2861C84.6353 26.5256 84.5 26.7454 84.326 26.9324C84.152 27.1194 83.9427 27.2702 83.7101 27.376C83.4776 27.4818 83.2265 27.5405 82.9712 27.5488C82.7159 27.5572 82.4614 27.515 82.2225 27.4246C81.9835 27.3342 81.7649 27.1972 81.579 27.022C81.2069 26.6711 80.9887 26.1873 80.972 25.676C80.9553 25.1648 81.1415 24.6677 81.4899 24.2932C81.8384 23.9188 82.3207 23.6973 82.8318 23.6772C83.343 23.6572 83.8413 23.8401 84.218 24.186ZM85.928 23.812L84.47 22.4541L87.9921 18.021L91.235 14.5391L93.3411 16.499L90.098 19.981L85.928 23.812Z" fill="black"/>
</svg>
