<svg width="358" height="155" viewBox="0 0 358 155" fill="none" xmlns="http://www.w3.org/2000/svg">
<path d="M72.8101 150.727H353.736V4.22656H72.8101L4.93311 77.4756L72.8101 150.727Z" fill="#F8D949" stroke="black" stroke-width="8" stroke-linejoin="round"/>
<path d="M138.136 57.0219V31.7647L123.738 57.0219H138.136ZM158.325 78.8203H132.425V78.4986C137.573 76.0855 138.136 73.3506 138.136 67.5591V64.3417H115.131V64.0199L138.86 23.3188H152.614V57.0219H158.084V64.3417H152.614V67.5591C152.614 73.3506 153.178 76.0855 158.325 78.4986V78.8203ZM204.747 78.8203H166.942V76.6485L182.949 56.9414C189.142 49.2999 191.314 42.6237 191.314 37.3953C191.314 31.5234 186.729 26.2145 181.179 26.2145C179.168 26.2145 175.066 27.0993 173.377 29.2711C178.766 29.5929 182.788 33.0517 182.788 37.8779C182.788 42.2215 179.409 45.5998 175.066 45.5998C170.722 45.5998 166.861 42.6237 166.861 37.1539C166.861 29.9951 175.548 22.1927 187.373 22.1927C196.462 22.1927 206.356 27.4211 206.356 36.5105C206.356 50.3456 187.051 55.7349 180.455 63.9395L178.525 66.3526H206.919L204.747 78.8203ZM250.847 78.8203H224.544V78.4986C229.692 76.0855 230.255 73.3506 230.255 67.5591V36.1083C227.118 36.9931 223.096 37.717 219.879 37.9583L219.637 37.2344C228.003 35.2235 239.264 27.1798 244.814 22.3535H245.136V67.5591C245.136 73.3506 245.699 76.0855 250.847 78.4986V78.8203ZM272.919 85.7149H262.232V85.577C263.922 84.6118 264.128 83.5086 264.128 81.0266V67.2029C264.128 64.1693 263.784 63.4109 261.888 62.5146V62.3767C264.887 62.1009 267.92 61.4459 270.368 60.8254H270.506V63.5832C271.264 62.7904 273.402 60.8254 275.78 60.8254C280.02 60.8254 282.296 64.4106 282.296 69.5126C282.296 76.8209 275.78 79.234 271.885 79.234C271.437 79.234 270.954 79.1995 270.471 79.165V81.0266C270.471 83.5086 270.713 84.5428 272.919 85.577V85.7149ZM270.506 63.9624V77.6482C271.126 77.993 271.575 78.0619 272.195 78.0619C274.436 78.0619 275.953 75.2696 275.953 70.1331C275.953 66.0998 274.608 63.5488 272.057 63.5488C271.506 63.5488 270.851 63.7901 270.506 63.9624ZM293.657 85.7149H282.97V85.577C284.659 84.6118 284.866 83.5086 284.866 81.0266V67.2029C284.866 64.1693 284.521 63.4109 282.625 62.5146V62.3767C285.624 62.1009 288.658 61.4459 291.106 60.8254H291.244V63.5832C292.002 62.7904 294.139 60.8254 296.518 60.8254C300.758 60.8254 303.033 64.4106 303.033 69.5126C303.033 76.8209 296.518 79.234 292.623 79.234C292.174 79.234 291.692 79.1995 291.209 79.165V81.0266C291.209 83.5086 291.45 84.5428 293.657 85.577V85.7149ZM291.244 63.9624V77.6482C291.864 77.993 292.312 78.0619 292.933 78.0619C295.174 78.0619 296.69 75.2696 296.69 70.1331C296.69 66.0998 295.346 63.5488 292.795 63.5488C292.243 63.5488 291.588 63.7901 291.244 63.9624ZM335.078 78.8203H325.047V78.6824C326.736 77.7172 326.943 76.614 326.943 74.132V66.5135C326.943 64.4795 325.426 63.6177 323.978 63.6177C323.323 63.6177 322.496 63.7211 322.151 63.859C322.427 64.583 322.564 65.4448 322.564 66.5135V74.132C322.564 76.614 322.771 77.7172 324.46 78.6824V78.8203H314.429V78.6824C316.118 77.7172 316.325 76.614 316.325 74.132V66.5135C316.325 64.4795 315.084 63.6177 313.636 63.6177C313.05 63.6177 312.326 63.7211 311.947 63.8246V74.132C311.947 76.614 312.154 77.7172 313.843 78.6824V78.8203H303.811V78.6824C305.5 77.7172 305.707 76.614 305.707 74.132V67.2029C305.707 64.1693 305.362 63.4109 303.466 62.5146V62.3767C306.466 62.1009 309.361 61.4459 311.809 60.8254H311.947V63.4798C313.119 62.1009 315.325 60.8254 317.738 60.8254C319.565 60.8254 321.323 61.5838 322.116 63.6867C323.219 62.2733 325.805 60.8254 328.356 60.8254C330.872 60.8254 333.182 62.2388 333.182 66.5135V74.132C333.182 76.614 333.389 77.7172 335.078 78.6824V78.8203Z" fill="black"/>
<path d="M174.899 101.369C174.51 100.863 174.018 100.475 173.422 100.202C172.826 99.9304 172.21 99.7943 171.575 99.7943C170.798 99.7943 170.092 99.9433 169.457 100.241C168.835 100.526 168.297 100.922 167.843 101.427C167.403 101.932 167.059 102.528 166.813 103.215C166.567 103.889 166.444 104.615 166.444 105.392C166.444 106.118 166.561 106.805 166.794 107.452C167.027 108.1 167.364 108.671 167.805 109.163C168.245 109.655 168.783 110.044 169.418 110.329C170.053 110.614 170.772 110.757 171.575 110.757C172.366 110.757 173.059 110.595 173.655 110.271C174.251 109.947 174.757 109.493 175.171 108.91L176.746 110.096C176.642 110.238 176.46 110.446 176.201 110.718C175.942 110.977 175.599 111.243 175.171 111.515C174.744 111.774 174.225 112.001 173.616 112.195C173.02 112.402 172.327 112.506 171.536 112.506C170.448 112.506 169.463 112.299 168.582 111.884C167.714 111.469 166.969 110.925 166.347 110.251C165.738 109.578 165.271 108.82 164.947 107.977C164.623 107.122 164.461 106.26 164.461 105.392C164.461 104.33 164.636 103.351 164.986 102.457C165.336 101.55 165.822 100.773 166.444 100.125C167.079 99.4639 167.837 98.952 168.718 98.5892C169.599 98.2264 170.571 98.045 171.634 98.045C172.541 98.045 173.428 98.2199 174.297 98.5698C175.178 98.9197 175.897 99.4574 176.454 100.183L174.899 101.369ZM185.319 112.506C184.27 112.506 183.304 112.325 182.423 111.962C181.542 111.586 180.784 111.074 180.149 110.426C179.527 109.778 179.035 109.014 178.672 108.133C178.322 107.252 178.147 106.299 178.147 105.276C178.147 104.252 178.322 103.299 178.672 102.418C179.035 101.537 179.527 100.773 180.149 100.125C180.784 99.4768 181.542 98.9715 182.423 98.6087C183.304 98.2329 184.27 98.045 185.319 98.045C186.369 98.045 187.334 98.2329 188.215 98.6087C189.097 98.9715 189.848 99.4768 190.47 100.125C191.105 100.773 191.597 101.537 191.947 102.418C192.31 103.299 192.492 104.252 192.492 105.276C192.492 106.299 192.31 107.252 191.947 108.133C191.597 109.014 191.105 109.778 190.47 110.426C189.848 111.074 189.097 111.586 188.215 111.962C187.334 112.325 186.369 112.506 185.319 112.506ZM185.319 110.757C186.11 110.757 186.822 110.614 187.457 110.329C188.092 110.031 188.637 109.636 189.09 109.144C189.544 108.651 189.893 108.074 190.14 107.414C190.386 106.74 190.509 106.027 190.509 105.276C190.509 104.524 190.386 103.818 190.14 103.157C189.893 102.483 189.544 101.9 189.09 101.408C188.637 100.915 188.092 100.526 187.457 100.241C186.822 99.9433 186.11 99.7943 185.319 99.7943C184.529 99.7943 183.816 99.9433 183.181 100.241C182.546 100.526 182.002 100.915 181.548 101.408C181.095 101.9 180.745 102.483 180.499 103.157C180.253 103.818 180.13 104.524 180.13 105.276C180.13 106.027 180.253 106.74 180.499 107.414C180.745 108.074 181.095 108.651 181.548 109.144C182.002 109.636 182.546 110.031 183.181 110.329C183.816 110.614 184.529 110.757 185.319 110.757ZM194.3 110.174L199.82 104.692C200.014 104.511 200.202 104.317 200.384 104.109C200.565 103.889 200.727 103.662 200.869 103.429C201.012 103.196 201.122 102.95 201.2 102.69C201.291 102.431 201.336 102.159 201.336 101.874C201.336 101.537 201.271 101.233 201.142 100.961C201.025 100.688 200.857 100.462 200.636 100.28C200.429 100.086 200.176 99.9369 199.878 99.8332C199.593 99.7295 199.289 99.6777 198.965 99.6777C198.291 99.6777 197.734 99.8656 197.293 100.241C196.852 100.617 196.574 101.135 196.457 101.796L194.436 101.621C194.527 101.012 194.701 100.488 194.961 100.047C195.233 99.5935 195.563 99.2177 195.952 98.9197C196.354 98.6216 196.807 98.4013 197.313 98.2588C197.831 98.1163 198.388 98.045 198.984 98.045C199.58 98.045 200.137 98.1292 200.656 98.2977C201.187 98.4532 201.647 98.6929 202.036 99.0168C202.437 99.3278 202.748 99.723 202.969 100.202C203.202 100.669 203.319 101.22 203.319 101.855C203.319 102.308 203.247 102.736 203.105 103.137C202.975 103.526 202.8 103.896 202.58 104.245C202.36 104.595 202.107 104.926 201.822 105.237C201.537 105.548 201.239 105.852 200.928 106.15L196.399 110.524H203.319V112.156H194.3V110.174ZM217.527 105.392C217.203 105.055 216.859 104.803 216.497 104.634C216.147 104.453 215.726 104.362 215.233 104.362C214.754 104.362 214.333 104.453 213.97 104.634C213.62 104.803 213.322 105.042 213.076 105.353C212.842 105.651 212.661 106.001 212.531 106.403C212.415 106.792 212.356 107.2 212.356 107.627C212.356 108.055 212.428 108.463 212.57 108.852C212.713 109.228 212.914 109.558 213.173 109.843C213.432 110.128 213.743 110.355 214.106 110.524C214.469 110.679 214.877 110.757 215.33 110.757C215.823 110.757 216.244 110.673 216.594 110.504C216.944 110.323 217.268 110.064 217.566 109.727L218.81 110.971C218.356 111.476 217.825 111.839 217.216 112.059C216.62 112.279 215.985 112.389 215.311 112.389C214.598 112.389 213.944 112.273 213.348 112.04C212.765 111.806 212.259 111.482 211.832 111.068C211.404 110.64 211.074 110.135 210.84 109.552C210.607 108.956 210.49 108.301 210.49 107.589C210.49 106.876 210.607 106.221 210.84 105.625C211.074 105.029 211.398 104.518 211.812 104.09C212.24 103.662 212.745 103.332 213.328 103.099C213.924 102.852 214.585 102.729 215.311 102.729C215.985 102.729 216.626 102.852 217.235 103.099C217.857 103.332 218.395 103.695 218.848 104.187L217.527 105.392ZM221.733 107.55C221.733 108.016 221.805 108.45 221.947 108.852C222.09 109.241 222.29 109.578 222.55 109.863C222.809 110.135 223.126 110.355 223.502 110.524C223.878 110.679 224.299 110.757 224.765 110.757C225.232 110.757 225.653 110.679 226.029 110.524C226.405 110.355 226.722 110.135 226.981 109.863C227.24 109.578 227.441 109.241 227.584 108.852C227.726 108.45 227.798 108.016 227.798 107.55C227.798 107.083 227.726 106.656 227.584 106.267C227.441 105.865 227.24 105.528 226.981 105.256C226.722 104.971 226.405 104.751 226.029 104.595C225.653 104.427 225.232 104.343 224.765 104.343C224.299 104.343 223.878 104.427 223.502 104.595C223.126 104.751 222.809 104.971 222.55 105.256C222.29 105.528 222.09 105.865 221.947 106.267C221.805 106.656 221.733 107.083 221.733 107.55ZM219.867 107.55C219.867 106.876 219.99 106.247 220.237 105.664C220.496 105.081 220.846 104.569 221.286 104.129C221.727 103.688 222.245 103.345 222.841 103.099C223.437 102.839 224.079 102.71 224.765 102.71C225.452 102.71 226.094 102.839 226.69 103.099C227.286 103.345 227.804 103.688 228.245 104.129C228.685 104.569 229.029 105.081 229.275 105.664C229.534 106.247 229.664 106.876 229.664 107.55C229.664 108.223 229.534 108.858 229.275 109.455C229.029 110.038 228.685 110.549 228.245 110.99C227.804 111.418 227.286 111.761 226.69 112.02C226.094 112.266 225.452 112.389 224.765 112.389C224.079 112.389 223.437 112.266 222.841 112.02C222.245 111.761 221.727 111.418 221.286 110.99C220.846 110.549 220.496 110.038 220.237 109.455C219.99 108.858 219.867 108.223 219.867 107.55ZM231.855 102.943H233.604V104.362H233.643C233.864 103.87 234.246 103.474 234.79 103.176C235.334 102.865 235.963 102.71 236.675 102.71C237.116 102.71 237.537 102.781 237.939 102.924C238.354 103.053 238.71 103.261 239.008 103.546C239.319 103.831 239.565 104.2 239.747 104.654C239.928 105.094 240.019 105.619 240.019 106.228V112.156H238.269V106.714C238.269 106.286 238.211 105.923 238.094 105.625C237.978 105.314 237.822 105.068 237.628 104.887C237.434 104.692 237.207 104.556 236.948 104.479C236.701 104.388 236.442 104.343 236.17 104.343C235.807 104.343 235.47 104.401 235.159 104.518C234.848 104.634 234.576 104.822 234.343 105.081C234.11 105.327 233.928 105.645 233.799 106.034C233.669 106.422 233.604 106.882 233.604 107.414V112.156H231.855V102.943ZM249.245 105.392C248.921 105.055 248.577 104.803 248.215 104.634C247.865 104.453 247.444 104.362 246.951 104.362C246.472 104.362 246.051 104.453 245.688 104.634C245.338 104.803 245.04 105.042 244.794 105.353C244.56 105.651 244.379 106.001 244.249 106.403C244.133 106.792 244.074 107.2 244.074 107.627C244.074 108.055 244.146 108.463 244.288 108.852C244.431 109.228 244.632 109.558 244.891 109.843C245.15 110.128 245.461 110.355 245.824 110.524C246.187 110.679 246.595 110.757 247.048 110.757C247.541 110.757 247.962 110.673 248.312 110.504C248.662 110.323 248.986 110.064 249.284 109.727L250.528 110.971C250.074 111.476 249.543 111.839 248.934 112.059C248.338 112.279 247.703 112.389 247.029 112.389C246.316 112.389 245.662 112.273 245.066 112.04C244.483 111.806 243.977 111.482 243.55 111.068C243.122 110.64 242.792 110.135 242.558 109.552C242.325 108.956 242.208 108.301 242.208 107.589C242.208 106.876 242.325 106.221 242.558 105.625C242.792 105.029 243.116 104.518 243.53 104.09C243.958 103.662 244.463 103.332 245.046 103.099C245.642 102.852 246.303 102.729 247.029 102.729C247.703 102.729 248.344 102.852 248.953 103.099C249.575 103.332 250.113 103.695 250.566 104.187L249.245 105.392ZM253.354 108.191C253.354 108.593 253.438 108.962 253.607 109.299C253.788 109.623 254.021 109.902 254.306 110.135C254.592 110.368 254.922 110.549 255.298 110.679C255.674 110.809 256.062 110.873 256.464 110.873C257.008 110.873 257.481 110.75 257.883 110.504C258.285 110.245 258.654 109.908 258.991 109.493L260.313 110.504C259.341 111.761 257.98 112.389 256.231 112.389C255.505 112.389 254.844 112.266 254.248 112.02C253.665 111.774 253.166 111.437 252.752 111.009C252.35 110.569 252.039 110.057 251.819 109.474C251.598 108.878 251.488 108.236 251.488 107.55C251.488 106.863 251.605 106.228 251.838 105.645C252.084 105.049 252.415 104.537 252.829 104.109C253.257 103.669 253.762 103.325 254.345 103.079C254.928 102.833 255.563 102.71 256.25 102.71C257.067 102.71 257.753 102.852 258.311 103.137C258.881 103.423 259.347 103.798 259.71 104.265C260.073 104.718 260.332 105.237 260.487 105.82C260.656 106.39 260.74 106.973 260.74 107.569V108.191H253.354ZM258.874 106.792C258.861 106.403 258.796 106.047 258.68 105.723C258.576 105.399 258.414 105.12 258.194 104.887C257.974 104.641 257.695 104.453 257.358 104.323C257.034 104.181 256.652 104.109 256.211 104.109C255.784 104.109 255.388 104.194 255.026 104.362C254.676 104.518 254.378 104.725 254.132 104.984C253.885 105.243 253.691 105.535 253.548 105.859C253.419 106.17 253.354 106.481 253.354 106.792H258.874ZM262.833 102.943H264.582V104.362H264.621C264.841 103.87 265.224 103.474 265.768 103.176C266.312 102.865 266.94 102.71 267.653 102.71C268.094 102.71 268.515 102.781 268.917 102.924C269.331 103.053 269.688 103.261 269.986 103.546C270.297 103.831 270.543 104.2 270.724 104.654C270.906 105.094 270.996 105.619 270.996 106.228V112.156H269.247V106.714C269.247 106.286 269.189 105.923 269.072 105.625C268.955 105.314 268.8 105.068 268.606 104.887C268.411 104.692 268.184 104.556 267.925 104.479C267.679 104.388 267.42 104.343 267.148 104.343C266.785 104.343 266.448 104.401 266.137 104.518C265.826 104.634 265.554 104.822 265.321 105.081C265.088 105.327 264.906 105.645 264.777 106.034C264.647 106.422 264.582 106.882 264.582 107.414V112.156H262.833V102.943ZM278.57 104.459H276.063V108.638C276.063 108.897 276.069 109.156 276.082 109.416C276.095 109.662 276.141 109.889 276.218 110.096C276.309 110.29 276.439 110.452 276.607 110.582C276.789 110.698 277.048 110.757 277.385 110.757C277.592 110.757 277.806 110.737 278.026 110.698C278.246 110.66 278.447 110.588 278.629 110.485V112.079C278.421 112.195 278.149 112.273 277.812 112.312C277.488 112.364 277.236 112.389 277.054 112.389C276.38 112.389 275.856 112.299 275.48 112.117C275.117 111.923 274.845 111.677 274.663 111.379C274.495 111.081 274.391 110.75 274.352 110.387C274.327 110.012 274.314 109.636 274.314 109.26V104.459H272.292V102.943H274.314V100.358H276.063V102.943H278.57V104.459ZM280.827 102.943H282.577V104.362H282.615C282.732 104.116 282.888 103.896 283.082 103.701C283.276 103.494 283.49 103.319 283.723 103.176C283.97 103.034 284.235 102.924 284.52 102.846C284.805 102.755 285.09 102.71 285.375 102.71C285.661 102.71 285.92 102.749 286.153 102.826L286.075 104.712C285.933 104.673 285.79 104.641 285.648 104.615C285.505 104.589 285.363 104.576 285.22 104.576C284.365 104.576 283.71 104.816 283.257 105.295C282.803 105.774 282.577 106.52 282.577 107.53V112.156H280.827V102.943ZM288.06 104.07C288.552 103.617 289.123 103.28 289.771 103.06C290.418 102.826 291.066 102.71 291.714 102.71C292.388 102.71 292.965 102.794 293.444 102.963C293.937 103.131 294.338 103.358 294.649 103.643C294.96 103.928 295.187 104.258 295.329 104.634C295.485 104.997 295.563 105.379 295.563 105.781V110.485C295.563 110.809 295.569 111.107 295.582 111.379C295.595 111.651 295.615 111.91 295.64 112.156H294.086C294.047 111.69 294.027 111.223 294.027 110.757H293.988C293.6 111.353 293.14 111.774 292.608 112.02C292.077 112.266 291.462 112.389 290.762 112.389C290.334 112.389 289.926 112.331 289.537 112.215C289.149 112.098 288.805 111.923 288.507 111.69C288.222 111.457 287.995 111.171 287.827 110.835C287.658 110.485 287.574 110.083 287.574 109.629C287.574 109.033 287.704 108.534 287.963 108.133C288.235 107.731 288.598 107.407 289.051 107.161C289.518 106.902 290.056 106.72 290.665 106.617C291.287 106.5 291.947 106.442 292.647 106.442H293.93V106.053C293.93 105.82 293.885 105.587 293.794 105.353C293.703 105.12 293.567 104.913 293.386 104.731C293.204 104.537 292.978 104.388 292.706 104.284C292.433 104.168 292.109 104.109 291.734 104.109C291.397 104.109 291.099 104.142 290.84 104.207C290.593 104.271 290.367 104.356 290.159 104.459C289.952 104.55 289.764 104.66 289.596 104.79C289.427 104.919 289.265 105.042 289.11 105.159L288.06 104.07ZM292.997 107.725C292.582 107.725 292.155 107.751 291.714 107.802C291.287 107.841 290.891 107.925 290.529 108.055C290.179 108.185 289.887 108.366 289.654 108.599C289.434 108.833 289.323 109.131 289.323 109.493C289.323 110.025 289.498 110.407 289.848 110.64C290.211 110.873 290.697 110.99 291.306 110.99C291.785 110.99 292.194 110.912 292.531 110.757C292.867 110.588 293.14 110.375 293.347 110.115C293.554 109.856 293.703 109.571 293.794 109.26C293.885 108.936 293.93 108.619 293.93 108.308V107.725H292.997ZM303.037 104.459H300.53V108.638C300.53 108.897 300.536 109.156 300.549 109.416C300.562 109.662 300.608 109.889 300.685 110.096C300.776 110.29 300.906 110.452 301.074 110.582C301.256 110.698 301.515 110.757 301.852 110.757C302.059 110.757 302.273 110.737 302.493 110.698C302.713 110.66 302.914 110.588 303.096 110.485V112.079C302.888 112.195 302.616 112.273 302.279 112.312C301.955 112.364 301.703 112.389 301.521 112.389C300.847 112.389 300.323 112.299 299.947 112.117C299.584 111.923 299.312 111.677 299.131 111.379C298.962 111.081 298.858 110.75 298.82 110.387C298.794 110.012 298.781 109.636 298.781 109.26V104.459H296.759V102.943H298.781V100.358H300.53V102.943H303.037V104.459ZM305.43 102.943H307.18V112.156H305.43V102.943ZM305.022 99.6388C305.022 99.289 305.145 98.9909 305.391 98.7447C305.651 98.4856 305.955 98.356 306.305 98.356C306.655 98.356 306.953 98.4856 307.199 98.7447C307.458 98.9909 307.588 99.289 307.588 99.6388C307.588 99.9887 307.458 100.293 307.199 100.552C306.953 100.799 306.655 100.922 306.305 100.922C305.955 100.922 305.651 100.799 305.391 100.552C305.145 100.293 305.022 99.9887 305.022 99.6388ZM311.383 107.55C311.383 108.016 311.454 108.45 311.596 108.852C311.739 109.241 311.94 109.578 312.199 109.863C312.458 110.135 312.776 110.355 313.151 110.524C313.527 110.679 313.948 110.757 314.415 110.757C314.881 110.757 315.302 110.679 315.678 110.524C316.054 110.355 316.371 110.135 316.631 109.863C316.89 109.578 317.091 109.241 317.233 108.852C317.376 108.45 317.447 108.016 317.447 107.55C317.447 107.083 317.376 106.656 317.233 106.267C317.091 105.865 316.89 105.528 316.631 105.256C316.371 104.971 316.054 104.751 315.678 104.595C315.302 104.427 314.881 104.343 314.415 104.343C313.948 104.343 313.527 104.427 313.151 104.595C312.776 104.751 312.458 104.971 312.199 105.256C311.94 105.528 311.739 105.865 311.596 106.267C311.454 106.656 311.383 107.083 311.383 107.55ZM309.517 107.55C309.517 106.876 309.64 106.247 309.886 105.664C310.145 105.081 310.495 104.569 310.936 104.129C311.376 103.688 311.894 103.345 312.491 103.099C313.087 102.839 313.728 102.71 314.415 102.71C315.102 102.71 315.743 102.839 316.339 103.099C316.935 103.345 317.453 103.688 317.894 104.129C318.335 104.569 318.678 105.081 318.924 105.664C319.183 106.247 319.313 106.876 319.313 107.55C319.313 108.223 319.183 108.858 318.924 109.455C318.678 110.038 318.335 110.549 317.894 110.99C317.453 111.418 316.935 111.761 316.339 112.02C315.743 112.266 315.102 112.389 314.415 112.389C313.728 112.389 313.087 112.266 312.491 112.02C311.894 111.761 311.376 111.418 310.936 110.99C310.495 110.549 310.145 110.038 309.886 109.455C309.64 108.858 309.517 108.223 309.517 107.55ZM321.504 102.943H323.254V104.362H323.293C323.513 103.87 323.895 103.474 324.439 103.176C324.984 102.865 325.612 102.71 326.325 102.71C326.765 102.71 327.187 102.781 327.588 102.924C328.003 103.053 328.359 103.261 328.657 103.546C328.968 103.831 329.214 104.2 329.396 104.654C329.577 105.094 329.668 105.619 329.668 106.228V112.156H327.919V106.714C327.919 106.286 327.86 105.923 327.744 105.625C327.627 105.314 327.472 105.068 327.277 104.887C327.083 104.692 326.856 104.556 326.597 104.479C326.351 104.388 326.092 104.343 325.819 104.343C325.457 104.343 325.12 104.401 324.809 104.518C324.498 104.634 324.226 104.822 323.992 105.081C323.759 105.327 323.578 105.645 323.448 106.034C323.319 106.422 323.254 106.882 323.254 107.414V112.156H321.504V102.943Z" fill="black"/>
<path d="M266.408 122.474H268.158V131.688H266.408V122.474ZM266 119.17C266 118.82 266.123 118.522 266.37 118.276C266.629 118.017 266.933 117.887 267.283 117.887C267.633 117.887 267.931 118.017 268.177 118.276C268.436 118.522 268.566 118.82 268.566 119.17C268.566 119.52 268.436 119.824 268.177 120.084C267.931 120.33 267.633 120.453 267.283 120.453C266.933 120.453 266.629 120.33 266.37 120.084C266.123 119.824 266 119.52 266 119.17ZM270.942 122.474H272.691V123.893H272.73C272.95 123.401 273.333 123.006 273.877 122.708C274.421 122.397 275.05 122.241 275.762 122.241C276.203 122.241 276.624 122.312 277.026 122.455C277.44 122.585 277.797 122.792 278.095 123.077C278.406 123.362 278.652 123.731 278.833 124.185C279.015 124.625 279.105 125.15 279.105 125.759V131.688H277.356V126.245C277.356 125.818 277.298 125.455 277.181 125.157C277.064 124.846 276.909 124.599 276.715 124.418C276.52 124.224 276.293 124.088 276.034 124.01C275.788 123.919 275.529 123.874 275.257 123.874C274.894 123.874 274.557 123.932 274.246 124.049C273.935 124.165 273.663 124.353 273.43 124.612C273.197 124.859 273.015 125.176 272.886 125.565C272.756 125.954 272.691 126.414 272.691 126.945V131.688H270.942V122.474ZM286.724 129.705L292.244 124.224C292.439 124.042 292.627 123.848 292.808 123.641C292.99 123.42 293.152 123.194 293.294 122.96C293.437 122.727 293.547 122.481 293.625 122.222C293.715 121.963 293.761 121.69 293.761 121.405C293.761 121.068 293.696 120.764 293.566 120.492C293.45 120.22 293.281 119.993 293.061 119.811C292.854 119.617 292.601 119.468 292.303 119.364C292.018 119.261 291.713 119.209 291.389 119.209C290.715 119.209 290.158 119.397 289.718 119.773C289.277 120.148 288.999 120.667 288.882 121.328L286.86 121.153C286.951 120.544 287.126 120.019 287.385 119.578C287.657 119.125 287.988 118.749 288.377 118.451C288.778 118.153 289.232 117.933 289.737 117.79C290.255 117.648 290.813 117.576 291.409 117.576C292.005 117.576 292.562 117.66 293.08 117.829C293.612 117.984 294.072 118.224 294.46 118.548C294.862 118.859 295.173 119.254 295.393 119.734C295.627 120.2 295.743 120.751 295.743 121.386C295.743 121.839 295.672 122.267 295.529 122.669C295.4 123.057 295.225 123.427 295.005 123.777C294.784 124.127 294.532 124.457 294.246 124.768C293.961 125.079 293.663 125.383 293.352 125.681L288.824 130.055H295.743V131.688H286.724V129.705ZM297.292 124.807C297.292 124.301 297.317 123.777 297.369 123.232C297.421 122.688 297.512 122.157 297.641 121.639C297.784 121.107 297.965 120.602 298.186 120.122C298.419 119.643 298.71 119.228 299.06 118.879C299.423 118.516 299.844 118.231 300.324 118.023C300.816 117.803 301.386 117.693 302.034 117.693C302.682 117.693 303.246 117.803 303.725 118.023C304.218 118.231 304.639 118.516 304.989 118.879C305.351 119.228 305.643 119.643 305.863 120.122C306.097 120.602 306.278 121.107 306.408 121.639C306.55 122.157 306.647 122.688 306.699 123.232C306.751 123.777 306.777 124.301 306.777 124.807C306.777 125.532 306.712 126.31 306.582 127.139C306.453 127.969 306.213 128.74 305.863 129.452C305.513 130.165 305.028 130.755 304.406 131.221C303.796 131.688 303.006 131.921 302.034 131.921C301.062 131.921 300.265 131.688 299.643 131.221C299.034 130.755 298.555 130.165 298.205 129.452C297.855 128.74 297.616 127.969 297.486 127.139C297.356 126.31 297.292 125.532 297.292 124.807ZM299.158 124.807C299.158 125.26 299.183 125.798 299.235 126.42C299.3 127.042 299.43 127.645 299.624 128.228C299.818 128.798 300.103 129.284 300.479 129.685C300.868 130.087 301.386 130.288 302.034 130.288C302.682 130.288 303.194 130.087 303.57 129.685C303.958 129.284 304.25 128.798 304.444 128.228C304.639 127.645 304.762 127.042 304.814 126.42C304.878 125.798 304.911 125.26 304.911 124.807C304.911 124.496 304.898 124.146 304.872 123.757C304.859 123.356 304.814 122.954 304.736 122.552C304.671 122.137 304.574 121.742 304.444 121.366C304.315 120.978 304.14 120.634 303.92 120.336C303.712 120.025 303.453 119.779 303.142 119.598C302.831 119.416 302.462 119.326 302.034 119.326C301.607 119.326 301.237 119.416 300.926 119.598C300.615 119.779 300.35 120.025 300.129 120.336C299.922 120.634 299.754 120.978 299.624 121.366C299.494 121.742 299.391 122.137 299.313 122.552C299.248 122.954 299.203 123.356 299.177 123.757C299.164 124.146 299.158 124.496 299.158 124.807ZM308.325 129.705L313.845 124.224C314.04 124.042 314.228 123.848 314.409 123.641C314.59 123.42 314.752 123.194 314.895 122.96C315.038 122.727 315.148 122.481 315.225 122.222C315.316 121.963 315.361 121.69 315.361 121.405C315.361 121.068 315.297 120.764 315.167 120.492C315.05 120.22 314.882 119.993 314.662 119.811C314.454 119.617 314.202 119.468 313.904 119.364C313.619 119.261 313.314 119.209 312.99 119.209C312.316 119.209 311.759 119.397 311.319 119.773C310.878 120.148 310.599 120.667 310.483 121.328L308.461 121.153C308.552 120.544 308.727 120.019 308.986 119.578C309.258 119.125 309.589 118.749 309.977 118.451C310.379 118.153 310.833 117.933 311.338 117.79C311.856 117.648 312.414 117.576 313.01 117.576C313.606 117.576 314.163 117.66 314.681 117.829C315.212 117.984 315.672 118.224 316.061 118.548C316.463 118.859 316.774 119.254 316.994 119.734C317.227 120.2 317.344 120.751 317.344 121.386C317.344 121.839 317.273 122.267 317.13 122.669C317.001 123.057 316.826 123.427 316.605 123.777C316.385 124.127 316.132 124.457 315.847 124.768C315.562 125.079 315.264 125.383 314.953 125.681L310.424 130.055H317.344V131.688H308.325V129.705ZM321.089 128.325C321.309 128.986 321.601 129.478 321.964 129.802C322.339 130.126 322.89 130.288 323.616 130.288C323.978 130.288 324.315 130.23 324.626 130.113C324.95 129.984 325.235 129.815 325.482 129.608C325.728 129.387 325.922 129.128 326.065 128.83C326.207 128.519 326.279 128.176 326.279 127.8C326.279 127.23 326.155 126.776 325.909 126.44C325.676 126.09 325.371 125.83 324.996 125.662C324.62 125.481 324.205 125.364 323.752 125.312C323.298 125.26 322.851 125.234 322.411 125.234V123.602C323.123 123.602 323.706 123.556 324.16 123.466C324.613 123.362 324.97 123.219 325.229 123.038C325.488 122.857 325.669 122.63 325.773 122.358C325.877 122.086 325.929 121.781 325.929 121.444C325.929 120.706 325.708 120.148 325.268 119.773C324.827 119.397 324.277 119.209 323.616 119.209C323.11 119.209 322.65 119.358 322.236 119.656C321.834 119.941 321.529 120.323 321.322 120.803L319.417 120.161C319.78 119.28 320.331 118.632 321.069 118.218C321.821 117.79 322.657 117.576 323.577 117.576C324.134 117.576 324.665 117.654 325.171 117.809C325.689 117.952 326.142 118.179 326.531 118.49C326.92 118.801 327.224 119.196 327.445 119.675C327.678 120.142 327.795 120.693 327.795 121.328C327.795 122.053 327.574 122.701 327.134 123.271C326.706 123.841 326.142 124.23 325.443 124.437V124.476C325.87 124.554 326.253 124.697 326.59 124.904C326.926 125.111 327.211 125.37 327.445 125.681C327.678 125.992 327.853 126.342 327.97 126.731C328.086 127.107 328.144 127.509 328.144 127.936C328.144 128.597 328.015 129.18 327.756 129.685C327.51 130.178 327.173 130.593 326.745 130.929C326.33 131.253 325.844 131.5 325.287 131.668C324.743 131.837 324.166 131.921 323.557 131.921C322.508 131.921 321.581 131.681 320.778 131.202C319.987 130.722 319.437 129.964 319.126 128.927L321.089 128.325Z" fill="black"/>
</svg>
