<svg width="208" height="185" viewBox="0 0 208 185" fill="none" xmlns="http://www.w3.org/2000/svg">
<path d="M37.8524 122.234C25.5444 128.562 18.1943 136.509 18.1943 145.147C18.1943 165.778 60.0064 182.504 111.584 182.504C163.162 182.504 204.975 165.778 204.975 145.147C204.975 137.425 199.115 130.247 189.075 124.295" fill="white"/>
<path d="M37.8524 122.234C25.5444 128.562 18.1943 136.509 18.1943 145.147C18.1943 165.778 60.0064 182.504 111.584 182.504C163.162 182.504 204.975 165.778 204.975 145.147C204.975 137.425 199.115 130.247 189.075 124.295" stroke="black" stroke-width="5" stroke-linejoin="round"/>
<path d="M113.452 3.19531C111.713 4.50062 110.302 6.19291 109.33 8.13806C108.358 10.0832 107.852 12.2279 107.852 14.4023C107.852 23.7393 115.323 27.4763 115.323 36.8153C115.324 38.9898 114.818 41.1346 113.846 43.0798C112.874 45.025 111.462 46.7172 109.723 48.0223" fill="white"/>
<path d="M113.452 3.19531C111.713 4.50062 110.302 6.19291 109.33 8.13806C108.358 10.0832 107.852 12.2279 107.852 14.4023C107.852 23.7393 115.323 27.4763 115.323 36.8153C115.324 38.9898 114.818 41.1346 113.846 43.0798C112.874 45.025 111.462 46.7172 109.723 48.0223" stroke="black" stroke-width="5" stroke-linecap="round" stroke-linejoin="round"/>
<path d="M135.866 3.19531C134.127 4.50057 132.716 6.19277 131.744 8.13794C130.772 10.0831 130.266 12.2279 130.266 14.4023C130.266 23.7393 137.738 27.4763 137.738 36.8153C137.739 38.9898 137.233 41.1346 136.261 43.0798C135.289 45.025 133.877 46.7172 132.138 48.0223" fill="white"/>
<path d="M135.866 3.19531C134.127 4.50057 132.716 6.19277 131.744 8.13794C130.772 10.0831 130.266 12.2279 130.266 14.4023C130.266 23.7393 137.738 27.4763 137.738 36.8153C137.739 38.9898 137.233 41.1346 136.261 43.0798C135.289 45.025 133.877 46.7172 132.138 48.0223" stroke="black" stroke-width="5" stroke-linecap="round" stroke-linejoin="round"/>
<path d="M158.279 3.19531C156.54 4.50062 155.129 6.19291 154.157 8.13806C153.185 10.0832 152.679 12.2279 152.679 14.4023C152.679 23.7393 160.15 27.4763 160.15 36.8153C160.151 38.9898 159.645 41.1347 158.673 43.0798C157.701 45.025 156.289 46.7171 154.55 48.0223" fill="white"/>
<path d="M158.279 3.19531C156.54 4.50062 155.129 6.19291 154.157 8.13806C153.185 10.0832 152.679 12.2279 152.679 14.4023C152.679 23.7393 160.15 27.4763 160.15 36.8153C160.151 38.9898 159.645 41.1347 158.673 43.0798C157.701 45.025 156.289 46.7171 154.55 48.0223" stroke="black" stroke-width="5" stroke-linecap="round" stroke-linejoin="round"/>
<path d="M43.6732 80.9721L31.2732 68.5721C32.4413 66.2508 33.0793 63.699 33.1412 61.101C33.179 59.8644 32.9634 58.633 32.5074 57.4829C32.0515 56.3327 31.3649 55.288 30.4901 54.4132C29.6152 53.5383 28.5705 52.8518 27.4204 52.3958C26.2702 51.9399 25.0389 51.7242 23.8022 51.7621C22.3909 51.7496 20.9955 52.0601 19.7225 52.6696C18.4496 53.2792 17.3328 54.1717 16.4576 55.2789C15.5824 56.3861 14.972 57.6788 14.6729 59.0581C14.3739 60.4374 14.3942 61.8668 14.7322 63.237C13.3619 62.8998 11.9326 62.8802 10.5535 63.1797C9.17441 63.4791 7.88194 64.0897 6.77481 64.9648C5.66768 65.8399 4.77519 66.9564 4.16537 68.2291C3.55556 69.5018 3.24457 70.8969 3.25619 72.3081C3.21836 73.5447 3.43404 74.7761 3.88998 75.9262C4.34592 77.0764 5.03245 78.1211 5.90732 78.9959C6.78218 79.8708 7.82685 80.5573 8.97702 81.0133C10.1272 81.4692 11.3585 81.6849 12.5952 81.6471C15.1934 81.5852 17.7455 80.9472 20.0672 79.7791L32.4672 92.179" fill="white"/>
<path d="M43.6732 80.9721L31.2732 68.5721C32.4413 66.2508 33.0793 63.699 33.1412 61.101C33.179 59.8644 32.9634 58.633 32.5074 57.4829C32.0515 56.3327 31.3649 55.288 30.4901 54.4132C29.6152 53.5383 28.5705 52.8518 27.4204 52.3958C26.2702 51.9399 25.0389 51.7242 23.8022 51.7621C22.3909 51.7496 20.9955 52.0601 19.7225 52.6696C18.4496 53.2792 17.3328 54.1717 16.4576 55.2789C15.5824 56.3861 14.972 57.6788 14.6729 59.0581C14.3739 60.4374 14.3942 61.8668 14.7322 63.237C13.3619 62.8998 11.9326 62.8802 10.5535 63.1797C9.17441 63.4791 7.88194 64.0897 6.77481 64.9648C5.66768 65.8399 4.77519 66.9564 4.16537 68.2291C3.55556 69.5018 3.24457 70.8969 3.25619 72.3081C3.21836 73.5447 3.43404 74.7761 3.88998 75.9262C4.34592 77.0764 5.03245 78.1211 5.90732 78.9959C6.78218 79.8708 7.82685 80.5573 8.97702 81.0133C10.1272 81.4692 11.3585 81.6849 12.5952 81.6471C15.1934 81.5852 17.7455 80.9472 20.0672 79.7791L32.4672 92.179" stroke="black" stroke-width="5" stroke-linejoin="round"/>
<path d="M79.4404 53.7802L68.9824 39.6962C70.477 37.5703 71.4812 35.1391 71.9224 32.5781C72.14 31.3604 72.1061 30.1111 71.8228 28.907C71.5395 27.7029 71.0129 26.5695 70.2752 25.5765C69.5375 24.5836 68.6044 23.7522 67.5334 23.1333C66.4623 22.5145 65.276 22.1214 64.0474 21.9782C62.6532 21.7604 61.2276 21.8641 59.8796 22.2813C58.5316 22.6984 57.2967 23.4181 56.2693 24.3854C55.2418 25.3526 54.449 26.5418 53.9512 27.8622C53.4535 29.1826 53.264 30.5994 53.3973 32.0042C52.0909 31.4697 50.6795 31.2411 49.2711 31.3357C47.8627 31.4303 46.4947 31.8458 45.2714 32.5502C44.0482 33.2546 43.0022 34.2293 42.2134 35.3999C41.4246 36.5705 40.9139 37.9059 40.7203 39.3041C40.5029 40.5217 40.5369 41.7709 40.8201 42.9749C41.1034 44.1788 41.63 45.3122 42.3676 46.3051C43.1051 47.2979 44.038 48.1295 45.1088 48.7484C46.1797 49.3674 47.3658 49.7607 48.5944 49.9042C51.1735 50.2228 53.7912 49.9645 56.2584 49.1481L66.7164 63.2322" fill="white"/>
<path d="M79.4404 53.7802L68.9824 39.6962C70.477 37.5703 71.4812 35.1391 71.9224 32.5781C72.14 31.3604 72.1061 30.1111 71.8228 28.907C71.5395 27.7029 71.0129 26.5695 70.2752 25.5765C69.5375 24.5836 68.6044 23.7522 67.5334 23.1333C66.4623 22.5145 65.276 22.1214 64.0474 21.9782C62.6532 21.7604 61.2276 21.8641 59.8796 22.2813C58.5316 22.6984 57.2967 23.4181 56.2693 24.3854C55.2418 25.3526 54.449 26.5418 53.9512 27.8622C53.4535 29.1826 53.264 30.5994 53.3973 32.0042C52.0909 31.4697 50.6795 31.2411 49.2711 31.3357C47.8627 31.4303 46.4947 31.8458 45.2714 32.5502C44.0482 33.2546 43.0022 34.2293 42.2134 35.3999C41.4246 36.5705 40.9139 37.9059 40.7203 39.3041C40.5029 40.5217 40.5369 41.7709 40.8201 42.9749C41.1034 44.1788 41.63 45.3122 42.3676 46.3051C43.1051 47.2979 44.038 48.1295 45.1088 48.7484C46.1797 49.3674 47.3658 49.7607 48.5944 49.9042C51.1735 50.2228 53.7912 49.9645 56.2584 49.1481L66.7164 63.2322" stroke="black" stroke-width="5" stroke-linejoin="round"/>
<path d="M114.313 69.7686C102.098 54.3596 83.4623 48.6826 72.0693 57.1436C65.1773 62.2616 62.4693 71.4126 63.8923 81.4186L63.5253 106.319C63.5253 106.319 127.232 107.097 130.262 107.41C133.292 107.723 114.313 69.7686 114.313 69.7686Z" fill="#F9D94A" stroke="black" stroke-width="5" stroke-linejoin="round"/>
<path d="M95.1483 122.771C95.4173 113.103 90.7253 101.879 81.6993 92.8531C67.2573 78.4111 47.1873 75.0662 36.8723 85.3812C26.5573 95.6962 29.9013 115.767 44.3433 130.209C44.3433 130.209 40.6083 160.094 107.849 160.094C175.09 160.094 190.032 145.151 190.032 111.531C190.032 89.1171 171.354 66.7031 141.469 66.7031C96.6423 66.7031 77.6523 89.1172 77.6523 89.1172" fill="#F9D94A"/>
<path d="M95.1483 122.771C95.4173 113.103 90.7253 101.879 81.6993 92.8531C67.2573 78.4111 47.1873 75.0662 36.8723 85.3812C26.5573 95.6962 29.9013 115.767 44.3433 130.209C44.3433 130.209 40.6083 160.094 107.849 160.094C175.09 160.094 190.032 145.151 190.032 111.531C190.032 89.1171 171.354 66.7031 141.469 66.7031C96.6423 66.7031 77.6523 89.1172 77.6523 89.1172" stroke="black" stroke-width="5" stroke-linejoin="round"/>
</svg>
