<svg width="62" height="61" viewBox="0 0 62 61" fill="none" xmlns="http://www.w3.org/2000/svg">
<path d="M25.4202 3.60284C25.2121 3.64809 25.0299 3.77285 24.9124 3.95049C24.7949 4.12813 24.7514 4.34478 24.7912 4.55401C25.9951 11.3106 24.5778 18.2718 20.828 24.0198C17.0782 29.7679 11.2781 33.8708 4.6092 35.4915C4.40134 35.5396 4.22051 35.6665 4.10525 35.846C3.98998 36.0255 3.94942 36.2434 3.99221 36.4524C4.03748 36.6604 4.16202 36.8426 4.33939 36.9603C4.51677 37.0779 4.73301 37.1215 4.94221 37.0823C11.6981 35.8852 18.6564 37.3048 24.4032 41.053C30.1501 44.8013 34.2544 50.5968 35.8822 57.262C35.9303 57.4699 36.0577 57.6507 36.2372 57.7659C36.4167 57.8812 36.6342 57.922 36.8432 57.8792C37.0512 57.8339 37.2333 57.7089 37.3509 57.5315C37.4686 57.3542 37.5124 57.1382 37.4732 56.929C36.2771 50.173 37.6978 43.2153 41.4468 37.469C45.1958 31.7228 50.9918 27.6195 57.6572 25.9925C57.8649 25.9442 58.0456 25.8165 58.1608 25.637C58.2761 25.4576 58.3167 25.2405 58.2742 25.0315C58.2292 24.8232 58.1045 24.6405 57.9269 24.5228C57.7492 24.4051 57.5326 24.3619 57.3232 24.4017C50.5668 25.6065 43.6053 24.1898 37.8568 20.4407C32.1084 16.6917 28.0056 10.8916 26.3842 4.22295C26.3366 4.01405 26.2089 3.83202 26.0287 3.71612C25.8485 3.60021 25.6301 3.55954 25.4202 3.60284Z" fill="#BEEDEA" stroke="black" stroke-width="6.057" stroke-miterlimit="10"/>
</svg>
