<svg width="524" height="204" viewBox="0 0 524 204" fill="none" xmlns="http://www.w3.org/2000/svg">
<path d="M337.045 184.91L353.329 186.681C353.641 186.715 353.958 186.687 354.259 186.599C354.561 186.511 354.843 186.364 355.088 186.167C355.333 185.97 355.537 185.727 355.688 185.451C355.839 185.175 355.934 184.873 355.968 184.56C356.038 183.929 356.355 183.352 356.849 182.954C357.344 182.556 357.976 182.371 358.607 182.438L358.94 182.474C359.571 182.544 360.148 182.861 360.545 183.356C360.943 183.851 361.128 184.483 361.061 185.114C360.994 185.745 361.179 186.377 361.577 186.871C361.974 187.366 362.551 187.683 363.182 187.753L381.914 189.79C382.545 189.857 383.177 189.672 383.672 189.274C384.167 188.877 384.484 188.3 384.554 187.669C384.588 187.356 384.683 187.053 384.834 186.777C384.985 186.502 385.189 186.258 385.434 186.061C385.679 185.864 385.96 185.717 386.262 185.629C386.564 185.541 386.88 185.513 387.193 185.547L387.525 185.583C388.156 185.653 388.733 185.971 389.13 186.465C389.528 186.96 389.713 187.592 389.646 188.223C389.612 188.536 389.64 188.852 389.728 189.154C389.816 189.456 389.963 189.737 390.16 189.982C390.357 190.227 390.601 190.431 390.877 190.582C391.152 190.733 391.455 190.828 391.768 190.862L410.499 192.899C410.812 192.933 411.128 192.905 411.429 192.817C411.731 192.729 412.013 192.582 412.258 192.385C412.503 192.188 412.707 191.945 412.858 191.669C413.009 191.393 413.104 191.09 413.138 190.778C413.208 190.147 413.525 189.57 414.019 189.172C414.514 188.775 415.146 188.589 415.777 188.656L416.11 188.693C416.422 188.727 416.725 188.822 417.001 188.973C417.277 189.124 417.52 189.328 417.717 189.573C417.914 189.818 418.061 190.1 418.149 190.401C418.237 190.703 418.265 191.02 418.231 191.332C418.164 191.963 418.349 192.595 418.747 193.089C419.144 193.584 419.721 193.901 420.352 193.971L439.063 196.006C439.375 196.04 439.692 196.012 439.993 195.924C440.295 195.836 440.577 195.689 440.822 195.492C441.067 195.295 441.271 195.052 441.422 194.776C441.573 194.5 441.668 194.197 441.702 193.885C441.736 193.572 441.831 193.27 441.982 192.994C442.133 192.718 442.337 192.474 442.582 192.277C442.827 192.08 443.108 191.934 443.41 191.845C443.712 191.757 444.028 191.729 444.341 191.763L444.673 191.799C445.304 191.869 445.881 192.186 446.279 192.681C446.676 193.176 446.861 193.808 446.794 194.439C446.76 194.752 446.788 195.068 446.876 195.37C446.964 195.671 447.111 195.953 447.308 196.198C447.505 196.443 447.748 196.647 448.024 196.798C448.3 196.949 448.602 197.044 448.915 197.078L474.323 199.841C478.59 200.307 482.907 199.928 487.027 198.725C491.147 197.523 494.99 195.52 498.337 192.832C501.683 190.144 504.467 186.823 506.53 183.059C508.593 179.295 509.895 175.162 510.36 170.895L520.381 78.7623C520.845 74.4939 520.464 70.1759 519.26 66.0548C518.055 61.9336 516.051 58.0897 513.361 54.7432C510.671 51.3968 507.348 48.6131 503.582 46.5508C499.816 44.4886 495.681 43.1883 491.413 42.7242L466.013 39.961C465.699 39.9263 465.381 39.9541 465.078 40.0425C464.775 40.131 464.492 40.2782 464.245 40.4761C463.999 40.6741 463.794 40.9191 463.643 41.1964C463.492 41.4736 463.396 41.7777 463.363 42.0919C463.294 42.7259 462.976 43.3065 462.479 43.7061C461.981 44.1057 461.346 44.2919 460.712 44.2232L460.401 44.189C459.767 44.1198 459.186 43.8019 458.787 43.3048C458.387 42.8077 458.201 42.1722 458.27 41.5382C458.305 41.224 458.277 40.906 458.189 40.6026C458.101 40.2992 457.953 40.0164 457.755 39.7701C457.557 39.5238 457.312 39.3186 457.035 39.1671C456.758 39.0156 456.453 38.9208 456.139 38.8873L437.451 36.8541C436.817 36.7854 436.181 36.9711 435.684 37.3707C435.187 37.7703 434.869 38.3509 434.8 38.9849C434.766 39.2992 434.671 39.6041 434.52 39.8814C434.368 40.1588 434.163 40.4031 433.917 40.6011C433.671 40.7991 433.388 40.9469 433.084 41.0352C432.781 41.1236 432.463 41.1511 432.149 41.1163L431.838 41.0821C431.524 41.0486 431.219 40.9533 430.942 40.8018C430.664 40.6503 430.42 40.4456 430.222 40.1993C430.024 39.953 429.876 39.6697 429.788 39.3663C429.7 39.0628 429.672 38.7453 429.707 38.4312C429.742 38.1171 429.714 37.7991 429.626 37.4957C429.538 37.1922 429.39 36.909 429.192 36.6627C428.994 36.4163 428.749 36.2116 428.472 36.0601C428.195 35.9086 427.89 35.8133 427.576 35.7799L408.866 33.7452C408.232 33.6765 407.596 33.8622 407.099 34.2618C406.602 34.6614 406.284 35.242 406.215 35.876C406.146 36.5101 405.828 37.0907 405.331 37.4903C404.833 37.8899 404.198 38.0756 403.564 38.0069L403.253 37.9732C402.939 37.9396 402.634 37.844 402.357 37.6924C402.08 37.5409 401.835 37.3362 401.637 37.0899C401.439 36.8436 401.292 36.5608 401.204 36.2574C401.116 35.954 401.088 35.6359 401.123 35.3218C401.192 34.6878 401.006 34.0523 400.606 33.5552C400.207 33.0581 399.626 32.7402 398.992 32.671L380.281 30.6358C379.967 30.601 379.649 30.6285 379.346 30.7169C379.042 30.8052 378.759 30.9529 378.513 31.1509C378.266 31.3489 378.062 31.5933 377.91 31.8707C377.759 32.148 377.663 32.4529 377.63 32.7672C377.561 33.4012 377.243 33.9818 376.746 34.3814C376.248 34.781 375.613 34.9667 374.979 34.898L374.668 34.8638C374.354 34.8303 374.049 34.7356 373.772 34.5841C373.494 34.4326 373.25 34.2273 373.052 33.981C372.854 33.7347 372.706 33.4519 372.618 33.1485C372.53 32.8451 372.502 32.5271 372.537 32.213C372.572 31.8989 372.544 31.5808 372.456 31.2774C372.368 30.974 372.22 30.6912 372.022 30.4449C371.824 30.1986 371.579 29.9939 371.302 29.8424C371.025 29.6909 370.72 29.5956 370.406 29.5621L352.383 27.6011L351.252 28.5098C344.493 33.9414 335.855 36.4665 327.235 35.5299C322.967 35.0656 318.832 33.7654 315.067 31.7032C311.301 29.641 307.979 26.8571 305.289 23.5108L304.38 22.3799L137.78 4.01716C121.43 2.24529 105.032 6.9051 92.0569 17.0108L50.5499 49.2833L30.7999 47.1348L25.4829 96.024L45.2329 98.1719L78.8329 138.635C89.3357 151.289 104.351 159.359 120.7 161.135L287.3 179.498C290.842 176.651 294.909 174.53 299.271 173.255C303.633 171.981 308.203 171.577 312.72 172.069L313.826 172.189C318.343 172.68 322.719 174.057 326.705 176.239C330.69 178.422 334.206 181.369 337.053 184.91H337.045Z" fill="#9CF0E8" stroke="black" stroke-width="6.485" stroke-linecap="round" stroke-linejoin="round"/>
<path d="M31.2549 42.9531L25.0354 100.196L8.96041 98.449C7.12215 98.2493 5.43853 97.3275 4.27991 95.8864C3.1213 94.4453 2.5826 92.603 2.78233 90.7648L7.49567 47.3846C7.6954 45.5464 8.61719 43.8627 10.0583 42.7041C11.4993 41.5455 13.3417 41.0068 15.1799 41.2065L31.2549 42.9531Z" fill="#F8D949" stroke="black" stroke-width="5.22522" stroke-linejoin="round"/>
<path d="M36.082 104.453L42.964 41.1797" stroke="black" stroke-width="7.866" stroke-linejoin="round"/>
<path d="M21.0268 56.3394L15.8208 55.7734" stroke="black" stroke-width="7.866" stroke-linejoin="round"/>
<path d="M19.4721 70.6363L14.2661 70.0703" stroke="black" stroke-width="7.866" stroke-linejoin="round"/>
<path d="M17.9169 84.9332L12.7109 84.3672" stroke="black" stroke-width="7.866" stroke-linejoin="round"/>
<path d="M209.573 80.5209L174.765 77.0576L174.791 76.7954C179.182 75.2462 179.836 73.3253 180.306 68.6055L183.032 41.2045C183.502 36.4847 183.239 34.4725 179.239 32.0885L179.265 31.8263L201.029 33.9917L201.002 34.2539C196.611 35.803 195.957 37.724 195.487 42.4437L192.115 76.3344L195.458 76.6671C203.063 77.4237 205.08 73.7847 211.775 67.0363L212.234 67.082L209.573 80.5209ZM255.062 71.1446L252.774 82.8332C249.058 84.2509 243.893 84.9287 237.862 84.3286C224.948 83.0437 212.162 73.8273 213.701 58.3569C215.344 41.8376 231.604 36.1071 242.814 37.2224C248.845 37.8224 253.172 39.577 256.437 41.3583L255.794 52.4824L255.532 52.4563C252.119 44.8346 247.817 40.1696 242.376 39.6283C234.641 38.8586 228.653 45.1478 227.283 58.9138C225.9 72.811 231.089 81.2053 238.825 81.9749C243.872 82.4771 249.874 78.043 254.669 71.1055L255.062 71.1446ZM305.854 90.1006L283.107 87.8373L283.133 87.5751C285.873 87.3181 287.387 86.7405 287.661 83.9873C287.869 81.8896 287.343 78.5272 286.095 73.1069L285.622 71.2062L270.283 69.68C267.972 74.9447 266.833 78.4063 266.598 80.7662C266.226 84.5027 268.114 85.485 271.268 86.3946L271.242 86.6568L254.001 84.9414L254.028 84.6792C258.511 84.1985 260.424 82.9324 267.332 68.0624L279.544 41.8038L290.557 42.8995L298.288 74.32C301.592 87.6905 303.001 88.8238 305.88 89.8384L305.854 90.1006ZM284.985 68.2961L280.242 47.4341L271.481 66.9525L284.985 68.2961ZM339.328 92.1734C343.917 92.63 345.303 85.3533 346.112 77.2248C347.018 68.113 346.406 61.6304 342.407 61.2326C338.408 60.8347 336.53 67.0694 335.623 76.1812C334.815 84.3097 334.74 91.7168 339.328 92.1734ZM358.567 78.464C357.556 88.6247 349.221 95.21 339.126 94.2055C329.031 93.2011 322.157 85.1026 323.168 74.942C324.238 64.1913 332.907 58.2351 342.609 59.2004C352.311 60.1657 359.636 67.7134 358.567 78.464ZM378.499 97.3286L358.112 95.3001L358.138 95.0379C361.533 93.522 362.135 91.4635 362.604 86.7437L364.665 66.0291L359.487 65.5138L359.578 65.2581L365.044 62.227L365.18 60.8504C366.081 51.8042 375.328 49.348 383.064 50.1177C388.57 50.6655 391.974 53.7184 391.589 57.586C391.263 60.8637 388.609 62.9167 385.593 62.6167C382.512 62.3101 380.486 60.0562 380.786 57.0408C381.04 54.4843 383.143 52.6413 385.332 51.9322C384.756 51.7424 384.238 51.6247 383.713 51.5725C380.042 51.2073 378.077 54.3218 377.66 58.5172L377.171 63.4337L383.005 64.0141L382.627 67.8162L376.792 67.2357L374.731 87.9503C374.262 92.6701 374.525 94.6824 378.525 97.0664L378.499 97.3286ZM413.519 95.7155L414.778 83.0638C414.266 82.8805 413.696 82.6252 412.909 82.5469C410.615 82.3186 408.066 84.6469 407.577 89.5634C407.186 93.4965 409.206 95.816 411.172 96.0116C412.09 96.1029 412.628 96.024 413.519 95.7155ZM429.718 99.2471L429.692 99.5093C427.359 100.998 422.968 102.548 419.363 102.189C415.823 101.837 413.836 99.8515 413.506 96.5086C411.154 98.8565 407.498 101.008 403.695 100.63C398.582 100.121 394.943 96.7801 395.432 91.8636C396.006 86.095 400.966 81.491 414.967 81.1628L415.397 76.8363C416.063 70.15 410.712 67.3668 404.492 68.6678C407.967 69.6755 409.358 72.3295 409.143 74.4928C408.843 77.5082 406.176 79.6923 403.16 79.3923C400.211 79.0988 398 76.6942 398.3 73.6788C398.835 68.3035 405.736 65.4814 414.127 66.3163C423.435 67.2425 427.954 71.0683 427.151 79.1313L425.808 92.6351C425.312 97.6171 426.42 98.4556 429.718 99.2471Z" fill="black"/>
<path d="M127.197 128.994L104.122 126.698L104.148 126.436C108.539 124.887 109.22 122.704 109.69 117.984L112.39 90.8451C112.859 86.1253 112.596 84.1131 108.596 81.7291L108.623 81.4669L131.828 83.7758C145.07 85.0933 149.156 90.5974 148.367 98.5293C147.5 107.248 140.737 111.341 128.61 110.135L123.103 109.587L122.144 119.223C121.675 123.943 122.568 126.283 127.223 128.732L127.197 128.994ZM123.351 107.096L126.432 107.402C132.397 107.996 135.298 102.128 135.807 97.0148C136.251 92.5572 135.061 86.5469 129.096 85.9534L125.49 85.5947L123.351 107.096ZM165.903 132.845L146.565 130.921L146.591 130.659C149.986 129.143 150.588 127.084 151.057 122.365L153.66 96.2092C154.234 90.4406 153.722 88.9332 150.286 86.8701L150.312 86.6079C156.067 86.6509 161.96 85.9794 166.731 85.2625L166.994 85.2886L163.185 123.571C162.715 128.291 162.9 130.428 165.929 132.583L165.903 132.845ZM185.652 129.713L186.911 117.061C186.4 116.878 185.83 116.622 185.043 116.544C182.749 116.316 180.2 118.644 179.711 123.561C179.319 127.494 181.339 129.813 183.306 130.009C184.224 130.1 184.761 130.021 185.652 129.713ZM201.851 133.244L201.825 133.507C199.493 134.996 195.102 136.545 191.496 136.186C187.956 135.834 185.969 133.849 185.64 130.506C183.288 132.854 179.631 135.006 175.829 134.627C170.716 134.119 167.076 130.777 167.566 125.861C168.139 120.092 173.099 115.488 187.1 115.16L187.531 110.834C188.196 104.147 182.846 101.364 176.626 102.665C180.101 103.673 181.492 106.327 181.276 108.49C180.976 111.505 178.31 113.69 175.294 113.39C172.344 113.096 170.134 110.691 170.434 107.676C170.969 102.301 177.87 99.4787 186.261 100.314C195.569 101.24 200.087 105.066 199.285 113.129L197.941 126.632C197.446 131.614 198.554 132.453 201.851 133.244ZM202.412 135.683L203.055 124.559L203.383 124.592C206.625 131.27 210.166 135.594 213.575 135.933C216.394 136.214 218.969 134.948 219.282 131.801C220.013 124.459 202.997 125.149 204.164 113.415C204.79 107.122 211.704 102.845 218.718 103.543C221.93 103.863 226.04 105.132 228.191 106.141L227.284 115.252L227.022 115.226C223.427 109.44 221.04 106.157 217.827 105.838C215.074 105.564 212.886 106.935 212.677 109.032C212.005 115.784 229.822 116.365 228.628 128.362C227.93 135.376 220.289 138.985 213.013 138.261C208.358 137.798 204.444 136.548 202.412 135.683ZM251.083 136.091L251.313 136.444C249.19 138.484 245.6 141.304 240.486 140.796C234.062 140.157 230.41 136.946 231.153 129.473L233.129 109.611L229.196 109.22L229.242 108.761C235.665 106.752 242.158 101.373 245.689 97.819L246.279 97.8777L245.373 106.989L253.501 107.798L253.123 111.6L244.994 110.792L243.025 130.588C242.666 134.194 244.66 136.113 247.806 136.426C248.724 136.518 250.133 136.327 251.083 136.091ZM263.594 107.081C260.316 106.755 257.968 103.741 258.288 100.529C258.607 97.3168 261.497 94.8901 264.774 95.2162C268.052 95.5423 270.472 98.4974 270.153 101.709C269.833 104.922 266.871 107.407 263.594 107.081ZM269.865 143.189L250.789 141.291L250.816 141.029C254.21 139.513 254.812 137.455 255.282 132.735L256.593 119.559C257.167 113.79 256.655 112.283 253.219 110.22L253.245 109.957C259 110 264.631 109.303 269.402 108.586L269.664 108.612L267.147 133.915C266.677 138.635 266.862 140.772 269.891 142.927L269.865 143.189ZM299.317 137.116L299.56 137.339C297.857 140.48 293.639 146.283 285.641 145.487C275.94 144.522 270.816 136.796 271.847 126.439C272.825 116.606 281.251 109.765 291.019 110.737C297.508 111.382 301.312 115.071 300.882 119.397C300.523 123.003 297.909 125.325 294.5 124.985C291.222 124.659 288.829 122.104 289.155 118.826C289.389 116.467 291.309 113.811 293.642 112.984C290.147 111.511 284.328 114.109 283.323 124.204C282.378 133.71 286.87 138.46 291.852 138.955C294.671 139.236 297.351 138.245 299.317 137.116ZM333.176 149.488L313.903 147.571L313.929 147.309C318.32 145.76 319.001 143.576 319.471 138.857L322.171 111.718C322.64 106.998 322.377 104.986 318.378 102.602L318.404 102.34L338.725 104.362C351.377 105.62 358.399 108.901 357.583 117.095C357.009 122.864 349.846 125.66 344.255 125.964L344.222 126.292C351.178 127.579 357.702 132.532 357.115 138.431C356.137 148.264 346.286 150.793 333.176 149.488ZM331.831 147.038L333.076 147.161C338.124 147.664 342.638 144.207 343.271 137.848C343.839 132.145 340.231 127.814 335.052 127.299L333.807 127.175L331.831 147.038ZM334.035 124.881L335.084 124.985C340.132 125.487 344.056 121.972 344.598 116.531C345.172 110.762 341.388 106.877 337.52 106.492L335.881 106.329L334.035 124.881ZM376.745 152.566C381.334 153.022 382.72 145.746 383.529 137.617C384.435 128.505 383.822 122.023 379.824 121.625C375.825 121.227 373.947 127.462 373.04 136.573C372.231 144.702 372.156 152.109 376.745 152.566ZM395.984 138.856C394.973 149.017 386.638 155.602 376.543 154.598C366.448 153.593 359.574 145.495 360.585 135.334C361.655 124.584 370.324 118.627 380.026 119.593C389.728 120.558 397.053 128.106 395.984 138.856ZM419.894 152.887L420.124 153.241C418.001 155.28 414.41 158.101 409.297 157.592C402.873 156.953 399.22 153.743 399.964 146.27L401.94 126.407L398.007 126.016L398.053 125.557C404.475 123.548 410.969 118.17 414.5 114.615L415.09 114.674L414.183 123.786L422.312 124.594L421.934 128.397L413.805 127.588L411.835 147.385C411.477 150.99 413.47 152.91 416.617 153.223C417.535 153.314 418.944 153.123 419.894 152.887ZM442.94 155.18L443.17 155.534C441.047 157.573 437.456 160.394 432.343 159.885C425.919 159.246 422.266 156.036 423.01 148.563L424.986 128.7L421.053 128.309L421.098 127.85C427.521 125.841 434.015 120.463 437.546 116.908L438.136 116.967L437.229 126.079L445.358 126.887L444.98 130.69L436.851 129.881L434.881 149.678C434.523 153.283 436.516 155.203 439.663 155.516C440.58 155.607 441.99 155.416 442.94 155.18ZM461.722 162.278L442.384 160.354L442.41 160.092C445.805 158.576 446.407 156.518 446.876 151.798L449.479 125.642C450.053 119.874 449.541 118.366 446.105 116.303L446.131 116.041C451.886 116.084 457.779 115.413 462.55 114.696L462.812 114.722L459.003 153.005C458.534 157.724 458.718 159.861 461.748 162.016L461.722 162.278ZM492.851 156.041L493.094 156.264C490.251 160.218 485.764 165.399 477.438 164.57C467.737 163.605 462.941 155.912 463.907 146.21C464.885 136.377 472.459 128.79 481.833 129.722C489.961 130.531 494.454 135.281 493.632 143.541L493.26 147.277L475.758 145.536C475.316 153.966 478.733 157.549 483.453 158.019C486.927 158.365 490.728 157.419 492.851 156.041ZM483.563 143.598L483.948 139.731C484.398 135.207 484.115 132.068 481.296 131.787C477.494 131.409 476.481 138.259 475.908 144.028L475.881 144.29L483.563 143.598Z" fill="black"/>
</svg>
