<svg width="203" height="203" viewBox="0 0 203 203" fill="none" xmlns="http://www.w3.org/2000/svg">
<path d="M101.629 162.772C85.3912 162.641 69.8627 156.098 58.4266 144.57C46.9905 133.041 40.5735 117.461 40.5735 101.222C40.5735 84.9835 46.9905 69.4027 58.4266 57.874C69.8627 46.3454 85.3912 39.8028 101.629 39.6719V3.67188C86.0091 3.66902 70.6166 7.41747 56.7465 14.6016C42.8764 21.7857 30.9343 32.1956 21.9247 44.9556C12.915 57.7156 7.10136 72.4523 4.97263 87.9268C2.84389 103.401 4.46233 119.161 9.69187 133.879C14.9214 148.598 23.6091 161.846 35.0241 172.509C46.4392 183.171 60.2479 190.936 75.2887 195.151C90.3294 199.366 106.162 199.908 121.456 196.73C136.75 193.552 151.057 186.749 163.173 176.891C165.44 175.046 167.618 173.101 169.706 171.058L144.584 145.286C133.106 156.512 117.684 162.79 101.629 162.772Z" fill="#9CF0E8" stroke="black" stroke-width="6.537" stroke-linecap="round" stroke-linejoin="round"/>
<path d="M199.177 101.22C199.177 75.3484 188.9 50.537 170.606 32.2432C152.312 13.9494 127.5 3.67188 101.629 3.67188V39.6719C113.87 39.6692 125.833 43.3173 135.99 50.1494C146.146 56.9815 154.035 66.6875 158.646 78.0264C163.258 89.3652 164.383 101.822 161.878 113.803C159.373 125.785 153.352 136.747 144.584 145.289L169.706 171.061C179.045 161.986 186.466 151.128 191.528 139.131C196.591 127.134 199.192 114.241 199.177 101.22Z" fill="#F9D94A" stroke="black" stroke-width="6.537" stroke-linecap="round" stroke-linejoin="round"/>
<path d="M101.63 181.339C145.876 181.339 181.745 145.471 181.745 101.224C181.745 56.9781 145.876 21.1094 101.63 21.1094C57.3834 21.1094 21.5146 56.9781 21.5146 101.224C21.5146 145.471 57.3834 181.339 101.63 181.339Z" fill="white" stroke="black" stroke-width="5.274" stroke-linecap="round" stroke-linejoin="round"/>
<path d="M101.58 55.6172V104.86C101.579 107.119 102.475 109.286 104.07 110.884L126.77 133.584" stroke="black" stroke-width="11.109" stroke-miterlimit="10" stroke-linecap="round"/>
</svg>
