<svg width="104" height="118" viewBox="0 0 104 118" fill="none" xmlns="http://www.w3.org/2000/svg">
<path d="M82.26 93.6943C92.671 93.6943 100.551 85.9733 100.551 74.7633C100.551 66.3903 92.9509 52.4453 92.9509 52.4453H71.5588C71.5588 52.4453 63.959 66.3903 63.959 74.7633C63.959 85.9733 71.841 93.6943 82.26 93.6943L82.259 115.079L82.26 93.6943Z" fill="#EE82AA"/>
<path d="M82.26 93.6943C92.671 93.6943 100.551 85.9733 100.551 74.7633C100.551 66.3903 92.9509 52.4453 92.9509 52.4453H71.5588C71.5588 52.4453 63.959 66.3903 63.959 74.7633C63.959 85.9733 71.841 93.6943 82.26 93.6943ZM82.26 93.6943L82.259 115.079" stroke="black" stroke-width="5" stroke-linejoin="round"/>
<path d="M92.9517 52.4453H71.5598C71.5598 52.4453 66.1327 62.4063 64.4517 70.5453H100.06C98.3788 62.4063 92.9517 52.4453 92.9517 52.4453Z" fill="url(#paint0_linear_6_193)" stroke="black" stroke-width="5" stroke-linejoin="round"/>
<path d="M92.9516 115.078H71.1206" stroke="black" stroke-width="5" stroke-linejoin="round"/>
<path d="M99.2087 70.5469H65.2837" stroke="black" stroke-width="5" stroke-linejoin="round"/>
<path d="M20.1997 19.8906H33.4997" stroke="black" stroke-width="5" stroke-linejoin="round"/>
<path d="M50.6678 67.2554C50.6678 67.2554 50.7249 57.6173 47.4459 50.9703C43.6049 43.1793 37.1457 42.7133 35.4307 33.1643C33.3307 20.1973 33.5067 16.5414 33.5067 16.5414H33.5008V2.57031H20.2008V16.5414C20.2008 16.5414 20.3868 20.1973 18.2838 33.1643C16.5648 42.7133 9.96873 43.1093 6.27473 50.9703C2.99573 57.9303 3.05378 67.2554 3.05378 67.2554" fill="#65C556"/>
<path d="M50.6678 67.2554C50.6678 67.2554 50.7249 57.6173 47.4459 50.9703C43.6049 43.1793 37.1457 42.7133 35.4307 33.1643C33.3307 20.1973 33.5067 16.5414 33.5067 16.5414H33.5008V2.57031H20.2008V16.5414C20.2008 16.5414 20.3868 20.1973 18.2838 33.1643C16.5648 42.7133 9.96873 43.1093 6.27473 50.9703C2.99573 57.9303 3.05378 67.2554 3.05378 67.2554" stroke="black" stroke-width="5" stroke-linejoin="round"/>
<path d="M50.6677 98.1406V111.486C50.6684 111.957 50.5758 112.425 50.3955 112.861C50.2152 113.297 49.9509 113.693 49.6172 114.027C49.2835 114.361 48.8873 114.625 48.4512 114.806C48.0151 114.986 47.5476 115.078 47.0757 115.078H6.6377C5.68601 115.077 4.77361 114.698 4.10132 114.024C3.42903 113.35 3.05194 112.437 3.05274 111.486V98.1406" fill="#65C556"/>
<path d="M50.6677 98.1406V111.486C50.6684 111.957 50.5758 112.425 50.3955 112.861C50.2152 113.297 49.9509 113.693 49.6172 114.027C49.2835 114.361 48.8873 114.625 48.4512 114.806C48.0151 114.986 47.5476 115.078 47.0757 115.078H6.6377C5.68601 115.077 4.77361 114.698 4.10132 114.024C3.42903 113.35 3.05194 112.437 3.05274 111.486V98.1406" stroke="black" stroke-width="5" stroke-linejoin="round"/>
<path d="M50.6677 67.25H3.05273V98.139H50.6677V67.25Z" fill="#EE82AA" stroke="black" stroke-width="5" stroke-linejoin="round"/>
<defs>
<linearGradient id="paint0_linear_6_193" x1="64.4517" y1="61.4953" x2="100.06" y2="61.4953" gradientUnits="userSpaceOnUse">
<stop stop-color="#F3D8F8"/>
<stop offset="0.01" stop-color="#F3D9F8"/>
<stop offset="0.122" stop-color="#F8EAFB"/>
<stop offset="0.261" stop-color="#FCF6FD"/>
<stop offset="0.457" stop-color="#FEFDFE"/>
<stop offset="1" stop-color="white"/>
</linearGradient>
</defs>
</svg>
