<svg width="131" height="131" viewBox="0 0 131 131" fill="none" xmlns="http://www.w3.org/2000/svg">
<path d="M65.1762 125.795C98.3128 125.795 125.175 98.9324 125.175 65.7959C125.175 32.6593 98.3128 5.79688 65.1762 5.79688C32.0397 5.79688 5.17725 32.6593 5.17725 65.7959C5.17725 98.9324 32.0397 125.795 65.1762 125.795Z" fill="white"/>
<path d="M65.1762 128.295C99.6935 128.295 127.675 100.313 127.675 65.7959C127.675 31.2786 99.6935 3.29688 65.1762 3.29688C30.659 3.29688 2.67725 31.2786 2.67725 65.7959C2.67725 100.313 30.659 128.295 65.1762 128.295Z" stroke="black" stroke-width="5" stroke-linejoin="round"/>
<path d="M106.716 64.7949C106.849 66.3545 106.864 67.9219 106.761 69.4839C106.717 74.9995 105.337 80.4223 102.74 85.2885C100.143 90.1547 96.4064 94.3196 91.8492 97.4269C90.3748 98.4598 88.8175 99.3689 87.1931 100.145L85.7342 100.891L88.9062 120.565C89.0594 121.517 88.8504 122.492 88.3202 123.297C87.79 124.102 86.9772 124.679 86.0422 124.915L76.8242 127.237L74.0492 103.337L72.1802 103.284C63.9964 103.196 56.1077 100.215 49.9112 94.8689C48.3547 93.4135 46.8855 91.8674 45.5112 90.2389L44.0941 88.4479C43.2121 87.0569 42.3342 85.6639 41.5872 84.2039L40.8402 82.7449L31.4992 84.5039C30.1809 84.7541 28.8172 84.471 27.7075 83.7167C26.5978 82.9625 25.8327 81.7987 25.5802 80.4809L25.5132 80.3499C25.3317 79.2926 25.4872 78.205 25.9578 77.241C26.4283 76.277 27.19 75.4853 28.1352 74.9779C28.5719 74.7267 29.0438 74.5423 29.5352 74.4309L38.1422 72.8779L37.9892 70.9449C37.6436 65.4756 38.6311 60.0041 40.8667 55.0006C43.1024 49.9972 46.5194 45.6113 50.8242 42.2199C51.9581 41.1282 53.2601 40.2257 54.6802 39.5469" fill="white"/>
<path d="M106.716 64.7949C106.849 66.3545 106.864 67.9219 106.761 69.4839C106.717 74.9995 105.337 80.4223 102.74 85.2885C100.143 90.1547 96.4064 94.3196 91.8492 97.4269C90.3748 98.4598 88.8175 99.3689 87.1931 100.145L85.7342 100.891L88.9062 120.565C89.0594 121.517 88.8504 122.492 88.3202 123.297C87.79 124.102 86.9772 124.679 86.0422 124.915L76.8242 127.237L74.0492 103.337L72.1802 103.284C63.9964 103.196 56.1077 100.215 49.9112 94.8689C48.3547 93.4135 46.8855 91.8674 45.5112 90.2389L44.0941 88.4479C43.2121 87.0569 42.3342 85.6639 41.5872 84.2039L40.8402 82.7449L31.4992 84.5039C30.1809 84.7541 28.8172 84.471 27.7075 83.7167C26.5978 82.9625 25.8327 81.7987 25.5802 80.4809L25.5132 80.3499C25.3317 79.2926 25.4872 78.205 25.9578 77.241C26.4283 76.277 27.19 75.4853 28.1352 74.9779C28.5719 74.7267 29.0438 74.5423 29.5352 74.4309L38.1422 72.8779L37.9892 70.9449C37.6436 65.4756 38.6311 60.0041 40.8667 55.0006C43.1024 49.9972 46.5194 45.6113 50.8242 42.2199C51.9581 41.1282 53.2601 40.2257 54.6802 39.5469" stroke="black" stroke-width="5" stroke-linecap="round" stroke-linejoin="round"/>
<path d="M67.4932 73.6634C69.1021 73.2026 70.7991 73.1411 72.4371 73.4843C75.0801 74.0764 77.3941 75.6622 78.9001 77.9134C80.351 80.1904 80.8572 82.9432 80.3112 85.5873C80.0701 86.6242 79.6732 87.6185 79.1342 88.5363" fill="white"/>
<path d="M67.4932 73.6634C69.1021 73.2026 70.7991 73.1411 72.4371 73.4843C75.0801 74.0764 77.3941 75.6622 78.9001 77.9134C80.351 80.1904 80.8572 82.9432 80.3112 85.5873C80.0701 86.6242 79.6732 87.6185 79.1342 88.5363" stroke="black" stroke-width="5" stroke-miterlimit="10"/>
<path d="M49.9111 94.8712C55.0937 94.558 60.1543 93.1695 64.7711 90.7942C66.5078 89.9048 68.1744 88.8846 69.7562 87.7422" fill="white"/>
<path d="M49.9111 94.8712C55.0937 94.558 60.1543 93.1695 64.7711 90.7942C66.5078 89.9048 68.1744 88.8846 69.7562 87.7422" stroke="black" stroke-width="5" stroke-miterlimit="10"/>
<path d="M56.8762 38.2587C64.3027 34.4828 72.8456 33.5248 80.9241 35.5618C89.0026 37.5987 96.0698 42.4929 100.818 49.3387H100.824C104.03 53.9262 106.054 59.2342 106.716 64.7917C96.514 66.2489 86.1091 64.6238 76.8372 60.125C67.5653 55.6263 59.8495 48.4592 54.6802 39.5437C55.4802 39.1377 56.0732 38.6687 56.8762 38.2587Z" fill="black" stroke="black" stroke-width="5" stroke-linecap="round" stroke-linejoin="round"/>
<path d="M51.2982 73.3474C53.942 73.3474 56.0852 71.2042 56.0852 68.5604C56.0852 65.9167 53.942 63.7734 51.2982 63.7734C48.6544 63.7734 46.5112 65.9167 46.5112 68.5604C46.5112 71.2042 48.6544 73.3474 51.2982 73.3474Z" fill="black"/>
</svg>
