<svg width="163" height="163" viewBox="0 0 163 163" fill="none" xmlns="http://www.w3.org/2000/svg">
<g clip-path="url(#clip0_157_16)">
<path d="M81.5001 160.301C125.02 160.301 160.299 125.022 160.299 81.5023C160.299 37.9827 125.02 2.70312 81.5001 2.70312C37.9805 2.70312 2.70093 37.9827 2.70093 81.5023C2.70093 125.022 37.9805 160.301 81.5001 160.301Z" fill="#FF7BAC"/>
<path d="M81.5001 160.301C125.02 160.301 160.299 125.022 160.299 81.5023C160.299 37.9827 125.02 2.70312 81.5001 2.70312C37.9805 2.70312 2.70093 37.9827 2.70093 81.5023C2.70093 125.022 37.9805 160.301 81.5001 160.301Z" stroke="black" stroke-width="5" stroke-miterlimit="10"/>
<path d="M111.123 86.5986C109.351 101.81 107.579 117.024 105.807 132.242C105.719 133.448 105.381 134.623 104.816 135.692C104.25 136.76 103.469 137.7 102.522 138.451C101.575 139.203 100.482 139.749 99.3122 140.057C98.1427 140.364 96.9223 140.425 95.7279 140.237L54.4701 135.44C53.276 135.344 52.1144 135.003 51.0574 134.439C50.0003 133.875 49.0702 133.101 48.3248 132.163C47.5794 131.225 47.0345 130.144 46.7238 128.987C46.4132 127.83 46.3435 126.621 46.5189 125.436C50.0768 94.8415 53.6563 64.2393 57.2574 33.63C57.3615 32.4473 57.7054 31.2982 58.2683 30.2528C58.8311 29.2074 59.6011 28.2877 60.5311 27.5497C61.4612 26.8117 62.5319 26.271 63.6778 25.9605C64.8238 25.6499 66.021 25.5762 67.1964 25.7436L108.713 30.5835C109.894 30.694 111.04 31.0439 112.081 31.6119C113.122 32.1799 114.037 32.9541 114.769 33.8872C115.501 34.8203 116.035 35.8928 116.338 37.0392C116.642 38.1856 116.709 39.3818 116.535 40.5549C114.72 55.91 112.916 71.2579 111.123 86.5986Z" fill="white" stroke="black" stroke-width="5" stroke-miterlimit="10"/>
<path d="M107.774 49.5534L99.2497 122.757L55.0967 117.614L63.6205 44.4219L107.774 49.5534Z" fill="#5CA7EE" stroke="black" stroke-width="5" stroke-miterlimit="10"/>
<path d="M86.5884 40.2461L90.4452 40.689C91.2122 40.7754 91.9576 40.689 92.044 39.7275C92.1305 38.766 91.4715 38.6472 90.7368 38.5608C88.0792 38.2727 85.4216 37.963 82.764 37.6317C82.0078 37.5453 81.2516 37.6857 81.284 38.4851C81.3707 38.7714 81.5249 39.0327 81.7336 39.247C81.9422 39.4613 82.1993 39.6224 82.4831 39.7167C83.8415 39.9642 85.2117 40.1409 86.5884 40.2461Z" fill="black"/>
<path d="M80.2252 128.703C80.3082 127.853 80.1377 126.998 79.7351 126.245C79.3326 125.492 78.716 124.875 77.9633 124.472C77.2105 124.069 76.3553 123.899 75.5056 123.981C74.6558 124.064 73.8497 124.397 73.1887 124.937C72.5278 125.478 72.0418 126.202 71.7921 127.018C71.5423 127.834 71.54 128.707 71.7854 129.524C72.0308 130.342 72.5129 131.069 73.1709 131.613C73.8289 132.157 74.6332 132.494 75.4825 132.581C76.0488 132.639 76.6211 132.585 77.1664 132.421C77.7117 132.258 78.2192 131.988 78.6599 131.627C79.1006 131.267 79.4658 130.823 79.7344 130.321C80.003 129.819 80.1698 129.269 80.2252 128.703Z" fill="black"/>
<path d="M78.3239 89.0434L77.7837 88.9678C77.2072 88.7212 76.7179 88.3072 76.3793 87.7795C75.3045 86.2556 74.6252 84.4885 74.4023 82.6371C74.3375 82.0105 74.3267 81.3731 74.2834 80.7357L74.4455 79.4285L74.5427 79.1909C74.7536 78.5679 75.01 77.9613 75.3098 77.3759C75.8377 76.4369 76.7028 75.7337 77.7298 75.4087C78.7569 75.0838 79.8691 75.1614 80.841 75.6258C82.6236 76.5549 82.2131 76.5008 84.1577 76.0363C84.7457 75.8867 85.3579 75.8574 85.9575 75.9502C86.5571 76.0431 87.1318 76.2561 87.6471 76.5765C88.2807 76.9519 88.7912 77.5037 89.1164 78.1645L88.8031 78.3482C88.0151 78.7766 87.3921 79.455 87.0322 80.2765C86.6723 81.098 86.596 82.0159 86.8153 82.8856C87.1023 83.9377 87.7831 84.839 88.7166 85.4027V85.4784C88.7166 85.5756 88.587 85.6728 88.533 85.7809C87.8687 87.0531 86.9536 88.1776 85.843 89.0867C85.5466 89.3585 85.184 89.5476 84.7914 89.6348C84.3989 89.7221 83.9902 89.7044 83.6067 89.5836C83.264 89.4582 82.9347 89.2989 82.6236 89.1083C82.2163 88.8564 81.7632 88.6876 81.2904 88.6115C80.8176 88.5355 80.3344 88.5538 79.8687 88.6653L78.3239 89.0434Z" fill="black"/>
<path d="M86.5883 71.5938C86.5019 74.1865 83.9523 75.7206 82.375 75.2777C82.4378 74.8915 82.5354 74.5119 82.6667 74.1433C82.9572 73.4371 83.4384 72.8256 84.0566 72.3773C84.6747 71.9289 85.4054 71.6614 86.167 71.6046H86.2966L86.5883 71.5938Z" fill="black"/>
</g>
<defs>
<clipPath id="clip0_157_16">
<rect width="163" height="163" fill="white"/>
</clipPath>
</defs>
</svg>
