<svg width="163" height="163" viewBox="0 0 163 163" fill="none" xmlns="http://www.w3.org/2000/svg">
<g clip-path="url(#clip0_157_76)">
<path d="M81.4999 160.299C125.021 160.299 160.302 125.018 160.302 81.497C160.302 37.976 125.021 2.69531 81.4999 2.69531C37.979 2.69531 2.69824 37.976 2.69824 81.497C2.69824 125.018 37.979 160.299 81.4999 160.299Z" fill="#65C556"/>
<path d="M81.4999 160.299C125.021 160.299 160.302 125.018 160.302 81.497C160.302 37.976 125.021 2.69531 81.4999 2.69531C37.979 2.69531 2.69824 37.976 2.69824 81.497C2.69824 125.018 37.979 160.299 81.4999 160.299Z" stroke="black" stroke-width="5" stroke-miterlimit="10"/>
<path d="M95.5851 42.5228C97.3734 42.5228 98.8231 41.0731 98.8231 39.2849C98.8231 37.4966 97.3734 36.0469 95.5851 36.0469C93.7969 36.0469 92.3472 37.4966 92.3472 39.2849C92.3472 41.0731 93.7969 42.5228 95.5851 42.5228Z" fill="black" stroke="black" stroke-width="2" stroke-miterlimit="10"/>
<path d="M66.1735 134.428C67.8127 134.428 69.1416 133.1 69.1416 131.46C69.1416 129.821 67.8127 128.492 66.1735 128.492C64.5342 128.492 63.2053 129.821 63.2053 131.46C63.2053 133.1 64.5342 134.428 66.1735 134.428Z" fill="black" stroke="black" stroke-width="2" stroke-miterlimit="10"/>
<path d="M98.6182 38.1732V25.0378L112.185 22.8359V37.5148" stroke="black" stroke-width="2" stroke-miterlimit="10"/>
<path d="M109.185 41.0541C110.973 41.0541 112.423 39.6044 112.423 37.8161C112.423 36.0278 110.973 34.5781 109.185 34.5781C107.396 34.5781 105.947 36.0278 105.947 37.8161C105.947 39.6044 107.396 41.0541 109.185 41.0541Z" fill="black" stroke="black" stroke-width="2" stroke-miterlimit="10"/>
<path d="M98.6182 29.3474L112.185 26.9297" stroke="black" stroke-width="2" stroke-miterlimit="10"/>
<path d="M69.1848 119.539L63.6694 117.164L69.1092 130.818" stroke="black" stroke-width="2" stroke-miterlimit="10"/>
<path d="M88.289 99.568C88.1379 99.309 87.8897 99.0715 87.7386 98.8125C87.5713 99.3183 87.5525 99.8614 87.6846 100.378C88.1055 101.943 91.7537 109.487 94.2793 112.175C94.5125 112.499 94.8122 112.77 95.1584 112.969C95.5046 113.168 95.8893 113.291 96.2868 113.329C96.44 113.324 96.5874 113.269 96.7077 113.174C96.828 113.079 96.9149 112.948 96.956 112.801L96.5998 111.603C95.8225 110.15 95.2935 108.578 95.0348 106.951C92.5567 104.71 90.2979 102.238 88.289 99.568Z" fill="#EFCBF9"/>
<path d="M134.182 85.8612C133.862 86.1639 133.612 86.5321 133.448 86.9405C133.346 87.3643 133.306 87.8005 133.329 88.2357C133.268 89.6642 132.775 91.0406 131.916 92.1833C131.057 93.326 129.871 94.1812 128.515 94.6361C127.148 95.0712 125.681 95.0858 124.305 94.6778C122.929 94.2698 121.708 93.4582 120.798 92.348C120.556 91.8871 120.18 91.5107 119.719 91.2686C119.492 91.1283 119.115 91.2039 118.812 91.1715C117.491 91.1579 116.183 91.4342 114.981 91.981C114.677 92.0519 114.402 92.2138 114.193 92.4451C113.844 92.828 113.638 93.32 113.61 93.8374C113.28 95.1249 112.602 96.2966 111.65 97.2238C110.698 98.1511 109.509 98.7981 108.213 99.0938C106.893 99.3324 105.531 99.1948 104.285 98.6967C103.039 98.1985 101.958 97.36 101.165 96.2767C100.766 95.7802 100.442 95.1974 100.021 94.5714C99.3763 93.8589 98.5895 93.2891 97.7115 92.8984C97.2797 92.7041 96.7509 92.5207 96.3191 92.3156C95.6931 92.1537 95.6715 92.0673 95.5096 92.6826C95.0455 94.6361 95.8227 96.9243 96.3084 98.77C96.8624 100.929 97.5064 103.044 98.2403 105.116C100.893 111.818 105.174 117.753 110.696 122.386C112.591 124.074 114.704 125.5 116.977 126.627C119.272 127.703 121.832 128.078 124.338 127.707L124.9 127.588C127.204 126.993 129.285 125.741 130.89 123.983C132.656 122.094 134.113 119.937 135.207 117.593C137.822 112.92 139.425 107.75 139.913 102.418C140.496 95.4456 138.456 88.5487 137.755 81.5547L134.182 85.8612ZM116.222 100.81L114.916 94.6253C114.895 94.5394 114.893 94.4502 114.908 94.3632C114.923 94.2762 114.956 94.1933 115.005 94.1195C115.053 94.0457 115.116 93.9826 115.19 93.9341C115.264 93.8856 115.347 93.8527 115.434 93.8374C115.52 93.8153 115.61 93.8114 115.697 93.8259C115.785 93.8405 115.868 93.8733 115.943 93.922C116.017 93.9708 116.08 94.0346 116.128 94.1092C116.176 94.1839 116.208 94.2678 116.222 94.3555L117.528 100.529C117.55 100.614 117.554 100.703 117.54 100.79C117.527 100.877 117.495 100.96 117.447 101.034C117.399 101.109 117.337 101.172 117.264 101.221C117.19 101.269 117.107 101.302 117.021 101.317C116.643 101.457 116.211 101.198 116.222 100.81ZM127.415 113.988C127.296 114.132 127.158 114.259 127.004 114.366C125.726 115.33 124.253 116.004 122.687 116.341C120.979 116.691 119.209 116.594 117.55 116.061C117.456 116.042 117.369 116.003 117.292 115.947C117.215 115.891 117.152 115.818 117.106 115.735C117.059 115.652 117.032 115.56 117.025 115.466C117.017 115.371 117.031 115.276 117.064 115.187C117.085 115.094 117.127 115.007 117.184 114.932C117.242 114.856 117.315 114.794 117.399 114.749C117.483 114.704 117.575 114.678 117.67 114.671C117.765 114.665 117.86 114.678 117.949 114.712C119.337 115.122 120.803 115.196 122.226 114.928C123.649 114.66 124.987 114.056 126.13 113.168C126.195 113.06 126.389 113.017 126.465 112.909C126.533 112.845 126.615 112.796 126.704 112.765C126.792 112.734 126.887 112.722 126.981 112.731C127.074 112.739 127.165 112.767 127.247 112.812C127.33 112.858 127.401 112.92 127.458 112.995C127.526 113.06 127.58 113.139 127.615 113.226C127.65 113.314 127.667 113.408 127.662 113.502C127.658 113.596 127.634 113.688 127.591 113.772C127.549 113.856 127.488 113.93 127.415 113.988ZM125.99 100.303C126.163 100.659 126.929 102.461 126.4 103.638C126.203 104.054 125.85 104.376 125.418 104.534C125.129 104.612 124.824 104.613 124.535 104.538C124.245 104.462 123.98 104.312 123.766 104.102C123.766 104.005 123.605 103.843 123.518 103.854C123.234 104.172 123.008 104.537 122.849 104.933C122.413 105.944 121.6 106.746 120.582 107.167H120.496C119.923 107.22 119.345 107.151 118.8 106.965C118.255 106.779 117.755 106.48 117.334 106.088C117.057 105.809 116.71 105.612 116.33 105.516C116.146 105.516 116.146 105.516 115.995 105.786C115.917 106.042 115.762 106.268 115.552 106.433C115.342 106.599 115.086 106.697 114.819 106.714C114.347 106.702 113.896 106.522 113.545 106.207C112.813 105.378 112.427 104.3 112.466 103.195C112.466 103.001 112.543 102.814 112.681 102.676C112.818 102.539 113.005 102.461 113.2 102.461C113.394 102.461 113.581 102.539 113.719 102.676C113.856 102.814 113.934 103.001 113.934 103.195C113.918 103.911 114.101 104.617 114.463 105.235C114.465 105.247 114.47 105.258 114.477 105.267C114.484 105.277 114.492 105.285 114.503 105.291C114.513 105.297 114.524 105.301 114.536 105.302C114.547 105.304 114.559 105.303 114.571 105.3C114.583 105.299 114.595 105.295 114.606 105.289C114.617 105.282 114.626 105.274 114.633 105.263C114.641 105.253 114.645 105.241 114.648 105.229C114.65 105.217 114.649 105.204 114.646 105.192C114.742 104.844 114.962 104.542 115.263 104.344C115.565 104.145 115.929 104.063 116.287 104.113C116.941 104.26 117.547 104.572 118.046 105.019C118.609 105.499 119.325 105.763 120.064 105.764C120.414 105.617 120.73 105.399 120.992 105.124C121.253 104.849 121.456 104.523 121.586 104.167C121.832 103.624 122.202 103.147 122.666 102.774C122.966 102.581 123.326 102.504 123.679 102.555C124.032 102.607 124.354 102.784 124.587 103.055C124.695 103.12 124.824 103.292 124.921 103.271C125.018 103.249 125.018 103.271 124.997 103.163C125.064 102.388 124.934 101.608 124.619 100.896C124.568 100.807 124.537 100.708 124.527 100.605C124.517 100.503 124.529 100.399 124.561 100.302C124.594 100.204 124.647 100.115 124.716 100.039C124.786 99.9628 124.87 99.9023 124.964 99.8612C125.059 99.8202 125.161 99.7994 125.264 99.8002C125.366 99.8011 125.468 99.8236 125.562 99.8662C125.655 99.9088 125.739 99.9707 125.807 100.048C125.875 100.125 125.927 100.215 125.957 100.313L125.99 100.303Z" fill="#EFCBF9"/>
<path d="M107.857 97.7788C109.246 97.4937 110.477 96.6952 111.303 95.5429C112.129 94.3905 112.491 92.969 112.315 91.5619L112.229 91.1842C111.891 89.7469 111.005 88.4989 109.759 87.7076C108.512 86.9163 107.006 86.6447 105.561 86.951C104.117 87.2573 102.851 88.1172 102.033 89.3463C101.215 90.5754 100.912 92.076 101.187 93.5263C101.517 94.9693 102.402 96.2243 103.65 97.02C104.899 97.8158 106.41 98.0884 107.857 97.7788ZM102.072 94.0228C102.008 93.9542 101.959 93.8728 101.928 93.7839C101.897 93.6951 101.885 93.6007 101.894 93.507C101.902 93.4133 101.929 93.3224 101.975 93.2402C102.021 93.1579 102.083 93.0863 102.158 93.0298C104.317 91.1086 106.26 90.202 107.857 90.3531C109.239 90.4502 109.778 91.1194 109.703 91.2381C109.767 91.3067 109.816 91.3881 109.847 91.477C109.878 91.5658 109.89 91.6602 109.882 91.7539C109.873 91.8476 109.846 91.9385 109.8 92.0207C109.754 92.103 109.692 92.1746 109.617 92.2311C109.471 92.3443 109.287 92.3983 109.103 92.3823C108.919 92.3663 108.748 92.2815 108.624 92.1448C108.445 91.9744 108.229 91.8492 107.992 91.7797C107.756 91.7103 107.506 91.6985 107.264 91.7454C107.384 91.8036 107.492 91.885 107.581 91.9851C107.67 92.0851 107.738 92.2017 107.782 92.3282C107.9 92.8895 107.339 93.4939 106.519 93.7637C105.699 94.0336 104.846 93.7637 104.727 93.1701C104.727 92.9758 104.727 92.8895 104.727 92.7708L103.076 94.0983C102.979 94.1923 102.854 94.2528 102.72 94.271C102.6 94.281 102.48 94.2638 102.368 94.2209C102.255 94.1779 102.154 94.1102 102.072 94.0228Z" fill="#EFCBF9"/>
<path d="M127.922 77.994C127.022 78.8228 125.955 79.4486 124.792 79.8289C117.884 82.7538 110.253 83.6821 103.033 85.6033C102.74 85.7384 102.432 85.8363 102.115 85.8947C101.017 86.2057 99.9651 86.6593 98.9852 87.2439C97.7332 88.0803 96.7598 89.2718 96.1897 90.6653C97.377 91.205 98.5858 91.8202 99.7839 92.4462C99.7968 90.7083 100.446 89.0352 101.608 87.7429C102.77 86.4506 104.365 85.6285 106.092 85.4319C107.819 85.2353 109.558 85.6778 110.981 86.6758C112.404 87.6738 113.412 89.1582 113.815 90.8488C115.587 89.8723 117.605 89.4335 119.622 89.586C119.272 87.8838 119.563 86.1125 120.438 84.6113C121.313 83.11 122.711 81.9843 124.365 81.4496C126.018 80.915 127.81 81.009 129.399 81.7137C130.987 82.4183 132.26 83.6841 132.973 85.2687C134.193 83.6389 135.531 82.0955 136.848 80.4441C135.941 79.8505 134.776 79.9044 133.869 79.3648C132.962 78.8251 132.455 77.314 132.11 76.1268C131.246 72.9751 130.48 69.8127 129.616 66.6719C129.851 68.6568 129.981 70.6527 130.005 72.6513C130.02 74.6333 129.275 76.5456 127.922 77.994Z" fill="#EFCBF9"/>
<path d="M143.184 97.4523C143.584 99.009 143.628 100.636 143.313 102.212L143.41 103.173C143.67 103.228 143.938 103.228 144.198 103.173C144.548 102.982 144.852 102.716 145.088 102.396C145.325 102.075 145.489 101.707 145.569 101.316C146.907 97.9056 147.069 89.4437 146.907 87.7384C146.877 87.5109 146.796 87.2932 146.67 87.1016V87.1879C145.887 90.7266 144.717 94.1686 143.184 97.4523Z" fill="#EFCBF9"/>
<path d="M127.49 93.5353C128.554 93.2932 129.523 92.7426 130.276 91.9526C131.029 91.1625 131.532 90.1681 131.722 89.0936C131.912 88.0192 131.781 86.9124 131.346 85.9119C130.911 84.9114 130.19 84.0615 129.274 83.4685C128.358 82.8756 127.287 82.566 126.196 82.5785C125.105 82.5909 124.042 82.9249 123.139 83.5385C122.237 84.1522 121.536 85.0183 121.123 86.0285C120.711 87.0387 120.605 88.1482 120.82 89.218L120.906 89.5958C121.303 90.9626 122.203 92.1286 123.424 92.8594C124.645 93.5902 126.098 93.8317 127.49 93.5353ZM122.892 88.4409C123.217 87.763 123.75 87.207 124.414 86.8543C125.817 86.0664 127.976 86.0987 130.523 87.0269C130.615 87.0472 130.702 87.0871 130.777 87.1438C130.853 87.2005 130.915 87.2728 130.96 87.3557C131.005 87.4386 131.032 87.5302 131.038 87.6243C131.045 87.7184 131.031 87.8129 130.998 87.9012C130.991 88.0286 130.937 88.1491 130.848 88.2404C130.759 88.3316 130.64 88.3875 130.512 88.3977C130.329 88.3977 130.232 88.3977 130.124 88.3977C129.466 88.1103 128.766 87.9282 128.051 87.858C128.159 87.9228 128.203 88.1171 128.224 88.2034C128.343 88.7647 127.674 89.2827 126.832 89.477C126.495 89.5857 126.129 89.5639 125.807 89.416C125.486 89.2681 125.231 89.0049 125.094 88.6783C125.081 88.5463 125.096 88.413 125.137 88.2868C125.178 88.1605 125.244 88.044 125.332 87.9444C125.097 88.0085 124.879 88.1228 124.692 88.2793C124.506 88.4358 124.356 88.6309 124.252 88.851C124.229 88.9414 124.187 89.026 124.13 89.0996C124.072 89.1731 124 89.2341 123.918 89.2786C123.836 89.3232 123.746 89.3504 123.653 89.3585C123.56 89.3666 123.466 89.3555 123.378 89.3259C123.284 89.3072 123.194 89.2681 123.117 89.2112C123.039 89.1544 122.975 89.0812 122.929 88.9968C122.882 88.9124 122.855 88.8189 122.849 88.7228C122.842 88.6268 122.857 88.5305 122.892 88.4409Z" fill="#EFCBF9"/>
<path d="M104.749 92.8245C104.673 92.9432 104.749 93.0296 104.749 93.2239C104.867 93.7851 105.72 94.0873 106.54 93.8175C107.361 93.5477 107.922 92.9432 107.803 92.382C107.759 92.2555 107.691 92.1388 107.602 92.0388C107.513 91.9388 107.406 91.8573 107.285 91.7992C107.527 91.7522 107.777 91.764 108.014 91.8335C108.25 91.903 108.467 92.0281 108.645 92.1985C108.769 92.3352 108.94 92.4201 109.125 92.4361C109.309 92.4521 109.492 92.3981 109.638 92.2849C109.713 92.2284 109.776 92.1567 109.821 92.0745C109.867 91.9923 109.895 91.9013 109.903 91.8077C109.911 91.714 109.899 91.6196 109.869 91.5307C109.838 91.4419 109.789 91.3605 109.724 91.2919C109.8 91.1732 109.26 90.504 107.879 90.4068C106.281 90.2557 104.317 91.1624 102.18 93.0836C102.105 93.14 102.042 93.2117 101.996 93.2939C101.951 93.3762 101.923 93.4671 101.915 93.5608C101.907 93.6545 101.918 93.7488 101.949 93.8377C101.98 93.9266 102.029 94.008 102.093 94.0765C102.176 94.1639 102.277 94.2316 102.389 94.2746C102.501 94.3176 102.621 94.3347 102.741 94.3248C102.875 94.3065 103 94.246 103.097 94.1521L104.749 92.8245Z" fill="black" stroke="black" stroke-miterlimit="10"/>
<path d="M125.029 99.922C124.854 100.002 124.717 100.147 124.647 100.326C124.577 100.505 124.578 100.705 124.651 100.883C124.967 101.594 125.097 102.374 125.029 103.149C125.029 103.235 124.954 103.257 124.954 103.257C124.954 103.257 124.727 103.106 124.619 103.041C124.387 102.77 124.064 102.593 123.711 102.541C123.358 102.49 122.998 102.568 122.698 102.761C122.234 103.134 121.864 103.611 121.619 104.153C121.492 104.512 121.292 104.842 121.032 105.12C120.772 105.399 120.457 105.621 120.108 105.772C119.368 105.771 118.652 105.507 118.089 105.027C117.59 104.58 116.984 104.268 116.33 104.121C115.972 104.071 115.608 104.153 115.307 104.352C115.005 104.55 114.785 104.852 114.689 105.2C114.692 105.212 114.693 105.225 114.691 105.237C114.689 105.249 114.684 105.261 114.677 105.271C114.669 105.282 114.66 105.29 114.649 105.296C114.638 105.303 114.626 105.307 114.614 105.308C114.602 105.311 114.591 105.312 114.579 105.31C114.567 105.309 114.556 105.305 114.546 105.299C114.536 105.293 114.527 105.285 114.52 105.275C114.513 105.265 114.508 105.255 114.506 105.243C114.144 104.625 113.961 103.919 113.977 103.203C113.977 103.008 113.9 102.822 113.762 102.684C113.624 102.546 113.438 102.469 113.243 102.469C113.048 102.469 112.862 102.546 112.724 102.684C112.586 102.822 112.509 103.008 112.509 103.203C112.47 104.308 112.856 105.386 113.588 106.214C113.939 106.53 114.39 106.71 114.862 106.722C115.129 106.705 115.385 106.607 115.595 106.441C115.805 106.275 115.96 106.049 116.038 105.793C116.19 105.567 116.19 105.567 116.373 105.524C116.753 105.62 117.1 105.817 117.377 106.096C117.798 106.488 118.298 106.787 118.843 106.973C119.388 107.159 119.966 107.228 120.539 107.175H120.626C121.643 106.754 122.456 105.952 122.892 104.941C123.051 104.545 123.277 104.18 123.561 103.862C123.648 103.862 123.788 104.013 123.81 104.11C124.023 104.32 124.288 104.47 124.578 104.545C124.868 104.621 125.172 104.62 125.461 104.541C125.894 104.384 126.246 104.062 126.443 103.646C126.972 102.458 126.206 100.667 126.033 100.311C125.994 100.218 125.937 100.134 125.865 100.063C125.793 99.993 125.708 99.9381 125.614 99.9018C125.52 99.8655 125.42 99.8485 125.32 99.852C125.219 99.8555 125.12 99.8793 125.029 99.922Z" fill="black" stroke="black" stroke-miterlimit="10"/>
<path d="M124.252 88.8375C124.356 88.6174 124.506 88.4223 124.692 88.2658C124.879 88.1093 125.097 87.995 125.332 87.9309C125.244 88.0305 125.178 88.147 125.137 88.2733C125.096 88.3995 125.081 88.5327 125.094 88.6648C125.231 88.9914 125.486 89.2546 125.807 89.4025C126.129 89.5504 126.495 89.5722 126.832 89.4635C127.674 89.2908 128.343 88.7512 128.224 88.1899C128.224 88.1036 128.159 87.9093 128.051 87.8445C128.766 87.9147 129.465 88.0968 130.124 88.3842C130.232 88.4489 130.329 88.3842 130.512 88.3842C130.64 88.374 130.759 88.3181 130.848 88.2268C130.937 88.1356 130.991 88.0151 130.998 87.8877C131.031 87.7994 131.045 87.7049 131.038 87.6108C131.032 87.5167 131.005 87.4251 130.96 87.3422C130.915 87.2593 130.853 87.187 130.777 87.1303C130.702 87.0736 130.615 87.0337 130.523 87.0134C127.976 86.0852 125.817 86.0528 124.414 86.8408C123.75 87.1935 123.217 87.7495 122.892 88.4274C122.859 88.5164 122.846 88.6116 122.853 88.7064C122.86 88.8011 122.888 88.8932 122.934 88.9762C122.98 89.0593 123.044 89.1314 123.12 89.1876C123.197 89.2437 123.285 89.2826 123.378 89.3016C123.466 89.3314 123.559 89.3429 123.651 89.3355C123.743 89.328 123.833 89.3018 123.915 89.2583C123.997 89.2148 124.069 89.1551 124.127 89.0827C124.185 89.0104 124.228 88.9269 124.252 88.8375Z" fill="black" stroke="black" stroke-miterlimit="10"/>
<path d="M126.508 112.909C126.432 113.017 126.238 113.06 126.173 113.168C125.03 114.056 123.692 114.66 122.269 114.928C120.847 115.196 119.38 115.122 117.992 114.712C117.903 114.679 117.808 114.665 117.713 114.671C117.618 114.678 117.526 114.704 117.442 114.749C117.359 114.794 117.285 114.856 117.228 114.932C117.17 115.007 117.129 115.094 117.107 115.187C117.074 115.276 117.061 115.371 117.068 115.466C117.075 115.56 117.103 115.652 117.149 115.735C117.195 115.819 117.258 115.891 117.335 115.947C117.412 116.003 117.5 116.042 117.593 116.061C119.253 116.594 121.022 116.691 122.73 116.341C124.296 116.004 125.769 115.33 127.048 114.366C127.201 114.26 127.339 114.132 127.458 113.989C127.535 113.933 127.598 113.862 127.645 113.78C127.692 113.697 127.72 113.606 127.728 113.512C127.736 113.418 127.724 113.323 127.693 113.234C127.661 113.145 127.61 113.063 127.544 112.996C127.488 112.913 127.414 112.844 127.328 112.794C127.242 112.744 127.146 112.714 127.047 112.705C126.947 112.697 126.847 112.711 126.754 112.746C126.661 112.782 126.577 112.837 126.508 112.909Z" fill="black" stroke="black" stroke-miterlimit="10"/>
<path d="M117.021 101.32C117.108 101.305 117.19 101.272 117.264 101.224C117.337 101.175 117.4 101.112 117.447 101.037C117.495 100.963 117.527 100.88 117.541 100.793C117.555 100.706 117.55 100.617 117.528 100.532L116.222 94.3585C116.208 94.2708 116.176 94.1869 116.128 94.1122C116.08 94.0376 116.017 93.9738 115.943 93.925C115.869 93.8762 115.785 93.8435 115.697 93.8289C115.61 93.8144 115.52 93.8183 115.434 93.8404C115.347 93.8557 115.264 93.8886 115.19 93.9371C115.117 93.9856 115.053 94.0487 115.005 94.1225C114.956 94.1963 114.923 94.2792 114.908 94.3662C114.893 94.4532 114.896 94.5424 114.916 94.6283L116.222 100.813C116.211 101.201 116.643 101.46 117.021 101.32Z" fill="black" stroke="black" stroke-miterlimit="10"/>
<path d="M109.768 46.2372C76.4381 54.1595 81.1763 76.534 82.5255 87.1006C82.914 90.3386 84.9648 94.5048 86.8428 97.5269C86.2391 98.531 86.0386 99.7266 86.2815 100.873C86.7888 102.816 90.5988 110.522 93.2108 113.285C93.5627 113.72 93.9979 114.081 94.4909 114.346C94.9838 114.611 95.5247 114.775 96.0818 114.828C96.5999 116.383 101.165 119.923 102.018 121.207C103.907 123.636 100.313 124.694 103.303 124.942C104.273 124.916 105.218 124.624 106.034 124.099C106.85 123.574 107.507 122.835 107.933 121.963C113.642 127.694 119.147 130.144 124.123 129.378L125.202 129.14C130.35 128.061 134.581 123.539 137.819 115.724C138.53 116.341 139.398 116.747 140.327 116.896C141.256 117.045 142.208 116.93 143.076 116.566C145.709 115.131 142.094 115.595 142.73 112.627C143.076 110.997 146.206 105.438 145.537 104.122C146.164 103.522 146.642 102.782 146.929 101.963C148.246 98.4551 148.57 89.7881 148.246 87.8021C148.063 86.7294 147.476 85.7675 146.605 85.1146C146.361 81.2166 145.609 77.367 144.371 73.663C144.371 73.663 137.528 39.6857 109.768 46.2372ZM96.5999 111.601L96.9561 112.799C96.915 112.947 96.828 113.078 96.7078 113.173C96.5875 113.268 96.4401 113.322 96.2869 113.328C95.8902 113.291 95.5061 113.17 95.1599 112.972C94.8138 112.775 94.5136 112.506 94.2793 112.184C91.7429 109.497 88.1056 101.952 87.6847 100.376C87.5505 99.8568 87.5692 99.3096 87.7386 98.8005C87.8897 99.0595 88.138 99.297 88.2891 99.556C90.2979 102.226 92.5568 104.698 95.0349 106.939C95.2924 108.569 95.8214 110.145 96.5999 111.601ZM139.838 102.459C139.351 107.795 137.748 112.969 135.132 117.646C134.038 119.989 132.581 122.146 130.815 124.035C129.21 125.793 127.129 127.045 124.824 127.64L124.263 127.759C121.757 128.131 119.196 127.755 116.902 126.68C114.628 125.552 112.516 124.126 110.62 122.438C105.111 117.784 100.848 111.83 98.2189 105.115C97.4993 103.021 96.8553 100.905 96.2869 98.7681C95.8012 96.9225 95.0241 94.6343 95.4882 92.6807C95.6501 92.0655 95.6717 92.1518 96.2977 92.3137C96.7294 92.5188 97.2583 92.7023 97.69 92.8966C98.5681 93.2872 99.3548 93.857 99.9998 94.5695C100.421 95.1632 100.745 95.7784 101.144 96.2749C101.936 97.3581 103.017 98.1967 104.264 98.6948C105.51 99.1929 106.871 99.3305 108.192 99.0919C109.488 98.7962 110.677 98.1492 111.629 97.222C112.581 96.2947 113.259 95.123 113.589 93.8356C113.616 93.3181 113.822 92.8262 114.171 92.4432C114.381 92.212 114.656 92.0501 114.959 91.9791C116.162 91.4324 117.47 91.1561 118.791 91.1696C119.093 91.1696 119.471 91.1696 119.698 91.2668C120.158 91.5089 120.535 91.8853 120.777 92.3461C121.686 93.4563 122.908 94.268 124.284 94.6759C125.66 95.0839 127.126 95.0694 128.494 94.6343C129.85 94.1794 131.035 93.3241 131.895 92.1814C132.754 91.0388 133.247 89.6624 133.308 88.2339C133.285 87.7987 133.325 87.3624 133.427 86.9387C133.591 86.5302 133.841 86.162 134.16 85.8594L137.658 81.542C138.381 88.5901 140.421 95.4869 139.838 102.459ZM101.187 93.5226C100.876 92.0555 101.161 90.5252 101.979 89.2682C102.797 88.0112 104.08 87.1305 105.548 86.82C107.015 86.5094 108.545 86.7943 109.802 87.612C111.059 88.4298 111.94 89.7134 112.25 91.1804L112.336 91.5582C112.525 93.0019 112.149 94.4627 111.288 95.6364C110.426 96.8102 109.145 97.6065 107.712 97.8596C106.278 98.1127 104.802 97.8031 103.59 96.9953C102.379 96.1874 101.526 94.9435 101.209 93.5226H101.187ZM120.885 89.6478L120.798 89.27C120.651 88.5476 120.648 87.803 120.79 87.0795C120.932 86.3559 121.216 85.6676 121.625 85.0544C122.035 84.4411 122.561 83.9152 123.175 83.5068C123.789 83.0985 124.478 82.8159 125.202 82.6753C126.259 82.4779 127.351 82.592 128.344 83.0036C129.338 83.4153 130.19 84.1068 130.798 84.994C131.405 85.8812 131.742 86.9259 131.767 88.001C131.792 89.076 131.503 90.1351 130.937 91.0494C130.371 91.9636 129.552 92.6937 128.578 93.1507C127.605 93.6077 126.519 93.7719 125.454 93.6234C124.389 93.4749 123.39 93.0201 122.579 92.3142C121.768 91.6084 121.179 90.682 120.885 89.6478ZM146.886 87.7698C147.048 89.4859 146.886 97.937 145.547 101.348C145.468 101.738 145.304 102.107 145.067 102.427C144.83 102.748 144.526 103.013 144.177 103.204C143.917 103.26 143.648 103.26 143.389 103.204L143.292 102.244C143.607 100.667 143.562 99.0404 143.162 97.4837C144.701 94.2112 145.877 90.7801 146.67 87.2517V87.1653C146.792 87.3474 146.873 87.5535 146.907 87.7698H146.886ZM132.11 76.0375C132.455 77.2247 132.844 78.6171 133.869 79.2755C134.894 79.9338 135.941 79.8151 136.848 80.3548C135.531 82.0061 134.193 83.5928 132.973 85.1794C132.272 83.5646 130.992 82.2703 129.385 81.5506C127.778 80.8308 125.96 80.7375 124.288 81.289C122.616 81.8405 121.211 82.997 120.347 84.5314C119.484 86.0659 119.225 87.8676 119.622 89.583C117.613 89.4195 115.599 89.8432 113.826 90.8027C113.423 89.1121 112.414 87.6276 110.992 86.6297C109.569 85.6317 107.83 85.1892 106.103 85.3858C104.376 85.5824 102.781 86.4044 101.619 87.6967C100.456 88.989 99.8076 90.6621 99.7947 92.4001C98.5967 91.7741 97.3878 91.1588 96.2005 90.6192C96.7706 89.2256 97.7441 88.0342 98.996 87.1977C99.9759 86.6132 101.028 86.1596 102.126 85.8486C102.443 85.7901 102.751 85.6922 103.043 85.5571C110.264 83.6359 117.895 82.7077 124.803 79.7827C125.965 79.4024 127.033 78.7767 127.933 77.9479C129.299 76.4859 130.045 74.5518 130.016 72.5512C129.992 70.5526 129.862 68.5567 129.627 66.5718C130.48 69.7234 131.246 72.8858 132.11 76.0375Z" fill="black" stroke="black" stroke-miterlimit="10"/>
<path d="M129.638 109.701C129.535 109.811 129.462 109.944 129.424 110.089C129.386 110.235 129.386 110.387 129.422 110.533C129.033 110.533 128.634 110.533 128.148 110.533C128.051 110.533 127.943 110.533 127.738 110.425C126.335 109.842 122.741 108.061 121.262 109.842C119.438 109.054 117.355 111.256 116.157 112.486C115.95 112.707 115.73 112.916 115.499 113.112L115.434 113.231C114.797 113.458 114.268 113.771 113.826 113.954C113.852 113.806 113.821 113.653 113.739 113.527C113.657 113.4 113.53 113.31 113.383 113.274C113.295 113.239 113.2 113.224 113.105 113.229C113.011 113.235 112.918 113.261 112.835 113.307C112.752 113.352 112.679 113.415 112.623 113.492C112.566 113.568 112.528 113.656 112.509 113.749L111.786 115.908C111.753 115.996 111.739 116.09 111.745 116.185C111.752 116.279 111.779 116.37 111.824 116.453C111.869 116.536 111.931 116.608 112.007 116.665C112.082 116.722 112.169 116.762 112.261 116.782C112.369 116.857 112.466 116.782 112.649 116.782C112.777 116.772 112.896 116.716 112.985 116.625C113.074 116.533 113.128 116.413 113.135 116.285L113.297 115.67H113.48C113.48 115.67 115.261 114.807 117.236 113.997C120.528 112.941 123.927 112.256 127.371 111.957C128.926 111.957 130.296 111.957 130.609 111.957L131.095 112.443C131.177 112.53 131.278 112.598 131.39 112.641C131.503 112.684 131.623 112.701 131.743 112.691C131.864 112.666 131.977 112.61 132.071 112.529C132.166 112.448 132.238 112.344 132.281 112.228C132.324 112.111 132.337 111.986 132.318 111.863C132.299 111.74 132.25 111.624 132.174 111.526L130.599 109.788C130.543 109.716 130.473 109.657 130.394 109.614C130.315 109.57 130.227 109.543 130.137 109.535C130.047 109.527 129.956 109.538 129.87 109.566C129.784 109.595 129.705 109.641 129.638 109.701Z" fill="black"/>
<path d="M65.5799 76.2C65.6486 76.4377 65.6335 76.6918 65.5373 76.9197C65.441 77.1476 65.2693 77.3355 65.051 77.452C64.8148 77.518 64.5632 77.5015 64.3376 77.4054C64.112 77.3093 63.9258 77.1392 63.8098 76.9231C62.6549 74.1493 60.928 72.4115 58.8017 71.8611H58.7046C54.7326 70.7818 50.588 73.7823 50.588 73.7823C50.4771 73.882 50.3423 73.9514 50.1967 73.9835C50.051 74.0157 49.8995 74.0096 49.7569 73.9658C49.6527 73.9516 49.553 73.9142 49.4652 73.8562C49.3774 73.7983 49.3037 73.7214 49.2497 73.6312C49.1738 73.5304 49.1198 73.415 49.0912 73.2922C49.0625 73.1694 49.0597 73.0419 49.0831 72.918C49.1065 72.7941 49.1554 72.6764 49.2268 72.5724C49.2983 72.4685 49.3906 72.3806 49.4979 72.3144C49.7246 72.1741 53.9879 69.1412 58.5211 69.9291L60.2156 63.4531C60.2156 63.4531 58.4887 64.3813 54.2146 69.0009C51.214 69.8967 43.5076 66.0975 36.3949 64.5325C38.4604 65.9005 40.1165 67.8028 41.1871 70.037C41.244 70.1487 41.278 70.2706 41.287 70.3956C41.2961 70.5206 41.28 70.6462 41.2398 70.7649C41.1995 70.8835 41.1359 70.993 41.0527 71.0867C40.9695 71.1805 40.8684 71.2566 40.7554 71.3106C40.5586 71.372 40.3477 71.372 40.1509 71.3106C39.8757 71.2102 39.6483 71.0098 39.5141 70.7494C39.417 70.7494 37.2583 66.1083 33.3728 65.0829H33.2864C31.1278 64.6188 28.8936 65.2232 26.4435 67.0581C26.3468 67.1401 26.2346 67.2016 26.1135 67.2391C25.9924 67.2765 25.865 67.2891 25.7389 67.2759C25.6129 67.2628 25.4908 67.2243 25.38 67.1628C25.2692 67.1012 25.172 67.0179 25.0943 66.9178C24.9964 66.7707 24.9441 66.598 24.9441 66.4213C24.9441 66.2446 24.9964 66.0719 25.0943 65.9248C24.1293 67.0222 23.4442 68.3368 23.0976 69.7564C23.0976 69.9399 22.4176 72.7353 21.8347 75.7467C21.8347 76.146 21.8347 76.5346 21.8347 76.9339C21.6513 78.758 21.4786 80.5928 21.2627 82.514L21.0253 87.5977C20.9415 89.7993 21.0281 92.0041 21.2843 94.1924C21.3921 95.0759 21.6322 95.9383 21.9966 96.7504C23.0912 99.3839 24.4971 101.877 26.1844 104.176C27.8901 106.677 30.037 108.846 32.5201 110.577C33.7093 111.369 35.0576 111.892 36.4704 112.109C38.4733 112.213 40.479 111.965 42.3959 111.375C45.3095 110.45 48.1058 109.19 50.7283 107.619C52.7908 106.511 54.6429 105.05 56.2005 103.302C57.4376 101.531 58.5519 99.6774 59.5356 97.7541L61.921 92.8216C62.5578 91.1163 63.2701 89.5189 63.9933 87.9215L66.1519 81.0785C66.4121 80.2308 66.4899 79.3377 66.3801 78.4577C66.2704 77.5778 65.9756 76.7311 65.5151 75.9733C65.5043 76.0813 65.6015 76.1136 65.5799 76.2ZM42.8169 71.3322C42.8565 71.2149 42.9376 71.1162 43.0449 71.0546C43.1523 70.9929 43.2785 70.9727 43.3997 70.9976C43.4625 71.0098 43.5221 71.0352 43.5744 71.0721C43.6267 71.1089 43.6706 71.1565 43.7032 71.2115C43.7359 71.2666 43.7565 71.3279 43.7637 71.3915C43.7709 71.4551 43.7646 71.5195 43.7451 71.5805L40.0754 84.8562C40.0632 84.919 40.0378 84.9785 40.0009 85.0308C39.9641 85.0832 39.9165 85.1271 39.8615 85.1597C39.8064 85.1923 39.7451 85.2129 39.6815 85.2201C39.6179 85.2274 39.5535 85.221 39.4925 85.2016C39.4305 85.1879 39.372 85.1616 39.3206 85.1243C39.2691 85.0871 39.2259 85.0396 39.1935 84.985C39.1611 84.9304 39.1403 84.8697 39.1323 84.8067C39.1244 84.7437 39.1294 84.6797 39.1472 84.6187L42.8169 71.3322ZM36.8482 87.425C36.9345 87.425 37.0533 87.425 37.172 87.3171C37.4706 87.1765 37.7926 87.0923 38.1218 87.0688C38.8881 87.1767 39.05 87.7056 39.2011 88.0618L39.4062 88.4072C39.7043 88.9659 40.2071 89.3876 40.8093 89.5836C41.4375 89.6586 42.0719 89.5095 42.601 89.1627L42.9572 88.9576C43.1385 88.7585 43.3782 88.6221 43.642 88.5678C43.9057 88.5135 44.1799 88.5441 44.4251 88.6554C44.7202 88.8088 44.9641 89.0452 45.1266 89.3354C45.2022 89.4541 45.2669 89.5621 45.3641 89.5944C45.4612 89.6268 46.0764 89.4865 46.4434 89.0979C46.8339 88.572 47.0963 87.9622 47.2097 87.3171C47.2219 87.2542 47.2473 87.1947 47.2842 87.1424C47.321 87.0901 47.3686 87.0462 47.4236 87.0135C47.4787 86.9809 47.54 86.9603 47.6036 86.9531C47.6672 86.9459 47.7316 86.9522 47.7926 86.9717C47.8546 86.9854 47.9131 87.0117 47.9645 87.0489C48.016 87.0862 48.0592 87.1336 48.0916 87.1882C48.124 87.2428 48.1448 87.3035 48.1528 87.3665C48.1607 87.4296 48.1557 87.4935 48.138 87.5545C48.0022 88.3408 47.6761 89.0819 47.1881 89.7132C46.6485 90.2636 45.6879 90.9004 44.8352 90.3823C44.5635 90.2328 44.3448 90.0028 44.2092 89.7239C44.0797 89.4973 44.0041 89.3786 43.9178 89.357C43.8314 89.3354 43.7343 89.357 43.3781 89.5081C43.2383 89.6572 43.0741 89.7813 42.8924 89.8751C42.1327 90.2929 41.2563 90.4485 40.3992 90.3176C39.5897 90.0095 38.9035 89.4446 38.4456 88.7094C38.4456 88.5043 38.2405 88.364 38.1973 88.1589C38.1542 87.9539 38.0894 87.8243 37.8951 87.7812C37.7009 87.738 37.5713 87.8891 37.4526 87.9646C37.1903 88.1131 36.8999 88.205 36.5999 88.2345C35.5962 88.2345 35.0565 87.3278 34.873 86.4968C34.7511 85.7173 34.8253 84.9198 35.0889 84.1762C35.1011 84.1134 35.1265 84.0539 35.1633 84.0015C35.2002 83.9492 35.2477 83.9053 35.3028 83.8727C35.3578 83.8401 35.4192 83.8195 35.4828 83.8123C35.5464 83.805 35.6108 83.8114 35.6717 83.8308C35.9286 83.9954 36.1402 84.2218 36.2869 84.4892C36.0865 85.0863 36.0274 85.7218 36.1142 86.3457C36.2006 86.8098 36.546 87.425 36.8482 87.425ZM33.4591 75.8978C32.8184 76.1809 32.0922 76.2016 31.4364 75.9555C30.7806 75.7093 30.2474 75.2158 29.9513 74.581C29.767 74.0845 29.7407 73.5432 29.876 73.0312C30.0112 72.5192 30.3014 72.0615 30.7068 71.7208C29.4431 72.008 28.2618 72.5802 27.253 73.3937L29.1418 75.4552C29.1809 75.5041 29.21 75.5602 29.2274 75.6203C29.2448 75.6804 29.2502 75.7434 29.2431 75.8055C29.2361 75.8677 29.2169 75.9279 29.1865 75.9826C29.1562 76.0374 29.1153 76.0855 29.0662 76.1244C29.0079 76.1713 28.9398 76.2044 28.8669 76.2212C28.794 76.238 28.7183 76.2381 28.6453 76.2216C28.5928 76.2116 28.5428 76.1912 28.4983 76.1615C28.4538 76.1318 28.4157 76.0935 28.3863 76.0489L26.1629 73.588C26.0906 73.4958 26.0524 73.3814 26.0549 73.2642C26.0549 73.0807 26.1305 72.9836 26.2492 72.9188C27.0972 72.1304 28.095 71.5206 29.1835 71.1256C30.2719 70.7307 31.4286 70.5587 32.5849 70.6199C34.9836 70.9752 37.1627 72.2149 38.6938 74.0953C38.7405 74.144 38.7765 74.2019 38.7995 74.2652C38.8225 74.3286 38.8321 74.396 38.8277 74.4633C38.8232 74.5306 38.8048 74.5962 38.7736 74.656C38.7424 74.7157 38.6991 74.7684 38.6465 74.8105C38.5938 74.8526 38.533 74.8833 38.4678 74.9006C38.4027 74.9179 38.3346 74.9215 38.268 74.9111C38.2014 74.9007 38.1377 74.8765 38.0809 74.8401C38.0241 74.8037 37.9756 74.7559 37.9383 74.6997C37.0568 73.6892 35.9718 72.8764 34.7543 72.3144C34.8514 72.3144 34.8298 72.4331 34.9917 72.5734C35.1136 72.892 35.1705 73.2317 35.1592 73.5726C35.1478 73.9135 35.0684 74.2487 34.9256 74.5584C34.7828 74.8682 34.5795 75.1462 34.3276 75.3762C34.0758 75.6062 33.7805 75.7836 33.4591 75.8978ZM42.8277 102.082C42.0936 102.213 41.3498 102.281 40.6042 102.287C39.6024 102.294 38.6042 102.167 37.6361 101.91C37.0813 101.742 36.5401 101.533 36.0171 101.284C35.0641 100.86 34.18 100.296 33.3943 99.6106L33.2324 99.4703C33.1146 99.3317 33.0499 99.1557 33.0499 98.9738C33.0499 98.7919 33.1146 98.6159 33.2324 98.4773C33.37 98.3573 33.5464 98.2913 33.7289 98.2913C33.9115 98.2913 34.0878 98.3573 34.2254 98.4773H34.3226C35.0556 99.0674 35.852 99.5742 36.6971 99.9883C37.9209 100.577 39.2685 100.862 40.6258 100.819C41.2753 100.833 41.924 100.767 42.5578 100.625C42.7468 100.613 42.9341 100.667 43.0864 100.78C43.2386 100.893 43.3458 101.056 43.3889 101.24C43.4147 101.336 43.4189 101.436 43.4011 101.534C43.3834 101.632 43.3442 101.724 43.2863 101.805C43.2285 101.885 43.1535 101.952 43.0667 102C42.9799 102.048 42.8835 102.076 42.7845 102.082H42.8277ZM60.4423 82.9674L57.3014 84.0467C57.2538 84.0675 57.2023 84.0782 57.1503 84.0782C57.0983 84.0782 57.0469 84.0675 56.9992 84.0467C56.8697 83.9815 56.7584 83.885 56.6754 83.7661C56.6511 83.7073 56.6387 83.6443 56.6391 83.5808C56.6396 83.5172 56.6528 83.4544 56.6779 83.396C56.7031 83.3376 56.7397 83.2849 56.7856 83.2409C56.8316 83.1969 56.8858 83.1626 56.9453 83.1401L59.5464 82.2334C59.0988 81.0266 58.3568 79.9507 57.3878 79.1034C57.5182 79.577 57.5135 80.0777 57.3742 80.5488C57.235 81.0199 56.9668 81.4426 56.5999 81.7693C56.0276 82.1767 55.3186 82.3438 54.6246 82.2348C53.9307 82.1259 53.3069 81.7496 52.887 81.1865C52.4235 80.6697 52.1828 79.9909 52.2172 79.2977C52.2515 78.6044 52.5582 77.9527 53.0705 77.4844C51.845 77.4248 50.6198 77.6082 49.4655 78.024C49.2281 78.1536 48.9798 78.024 48.8395 77.765C48.8151 77.7063 48.8028 77.6433 48.8032 77.5797C48.8037 77.5161 48.8168 77.4533 48.842 77.3949C48.8672 77.3365 48.9038 77.2838 48.9497 77.2398C48.9956 77.1959 49.0499 77.1616 49.1093 77.139C51.4081 76.3275 53.9196 76.3542 56.2005 77.2145C58.3096 78.2742 59.9238 80.1128 60.7013 82.3414C60.7449 82.4709 60.7449 82.6112 60.7013 82.7407C60.6797 82.8271 60.561 82.9026 60.4423 82.9674Z" fill="#EFCBF9"/>
<path d="M67.5011 91.1381L66.9183 91.4835C66.3387 91.8484 65.8182 92.2997 65.3749 92.8219C65.0403 93.3292 64.6625 94.0307 64.2955 94.7215C63.9014 95.3553 63.6783 96.0804 63.6479 96.8262V97.2147C63.8746 97.0852 64.1768 97.0636 64.4143 96.9233C66.3031 96.1354 67.7602 94.3329 68.7316 91.6346C68.9906 91.0086 69.1417 90.4581 69.3468 90.0156L67.8357 90.9007L67.5011 91.1381Z" fill="#EFCBF9"/>
<path d="M18.122 80.7039L17.9925 80.0779C17.7226 79.603 17.3988 78.9338 17.0858 78.2538C16.9671 77.9301 16.7405 77.671 16.6325 77.3472C16.4087 76.9799 16.2103 76.5976 16.0389 76.2031C15.8687 76.82 15.7389 77.4474 15.6503 78.0812C15.2618 81.0385 15.6503 83.3159 16.9455 84.8377C17.1305 85.0568 17.3448 85.2493 17.5823 85.4098L17.7766 85.0644C18.1158 84.3972 18.2757 83.6534 18.2407 82.9057C18.2191 82.215 18.1436 81.3947 18.122 80.7039Z" fill="#EFCBF9"/>
<path d="M34.9919 72.5534C34.83 72.4131 34.8516 72.316 34.7544 72.2944C35.9545 72.8691 37.0208 73.6891 37.8845 74.7013C37.9218 74.7575 37.9703 74.8053 38.0271 74.8417C38.0838 74.8781 38.1475 74.9022 38.2142 74.9127C38.2808 74.9231 38.3488 74.9195 38.414 74.9022C38.4791 74.8849 38.54 74.8542 38.5926 74.8121C38.6453 74.7699 38.6886 74.7173 38.7198 74.6576C38.751 74.5978 38.7694 74.5322 38.7739 74.4649C38.7783 74.3976 38.7687 74.3302 38.7457 74.2668C38.7226 74.2034 38.6866 74.1456 38.64 74.0969C37.1089 72.2165 34.9298 70.9768 32.531 70.6214C31.3748 70.5603 30.218 70.7323 29.1296 71.1272C28.0412 71.5222 27.0433 72.132 26.1954 72.9204C26.0766 72.9852 26.0443 73.0823 26.0011 73.2658C25.9986 73.3829 26.0367 73.4974 26.109 73.5896L28.3324 76.0504C28.3619 76.0951 28.3999 76.1334 28.4444 76.1631C28.4889 76.1927 28.5389 76.2132 28.5915 76.2231C28.6644 76.2397 28.7402 76.2396 28.8131 76.2228C28.886 76.2059 28.9541 76.1729 29.0124 76.126C29.0615 76.0871 29.1023 76.0389 29.1327 75.9842C29.1631 75.9295 29.1823 75.8693 29.1893 75.8071C29.1963 75.7449 29.191 75.682 29.1736 75.6219C29.1562 75.5617 29.1271 75.5057 29.088 75.4568L27.2531 73.3953C28.2493 72.5876 29.4153 72.0157 30.6638 71.7223C30.2584 72.0631 29.9682 72.5208 29.833 73.0328C29.6977 73.5448 29.724 74.0861 29.9083 74.5826C30.0548 74.9023 30.263 75.19 30.5208 75.4293C30.7786 75.6685 31.0811 75.8546 31.4109 75.9769C31.7406 76.0992 32.0913 76.1553 32.4428 76.142C32.7942 76.1287 33.1396 76.0462 33.4592 75.8993C33.7832 75.7853 34.0809 75.6072 34.3346 75.3757C34.5882 75.1442 34.7927 74.8639 34.9357 74.5517C35.0787 74.2394 35.1574 73.9016 35.1671 73.5583C35.1767 73.215 35.1171 72.8732 34.9919 72.5534Z" fill="black" stroke="black" stroke-miterlimit="10"/>
<path d="M56.2113 77.2122C53.9304 76.3519 51.4188 76.3251 49.1201 77.1366C49.0607 77.1592 49.0064 77.1935 48.9605 77.2375C48.9145 77.2814 48.8779 77.3342 48.8528 77.3925C48.8276 77.4509 48.8144 77.5138 48.814 77.5773C48.8135 77.6409 48.8259 77.7039 48.8503 77.7626C48.9906 77.9893 49.2388 78.1512 49.4763 78.0217C50.6306 77.6058 51.8558 77.4224 53.0812 77.482C52.5674 77.9489 52.2587 78.5998 52.2224 79.2931C52.186 79.9864 52.4248 80.666 52.887 81.1841C53.3069 81.7472 53.9306 82.1235 54.6246 82.2324C55.3185 82.3414 56.0276 82.1743 56.5998 81.7669C56.9667 81.4403 57.235 81.0175 57.3742 80.5464C57.5134 80.0753 57.5181 79.5746 57.3877 79.101C58.3567 79.9483 59.0987 81.0242 59.5464 82.231L56.9452 83.1053C56.8858 83.1279 56.8315 83.1622 56.7856 83.2062C56.7397 83.2501 56.703 83.3028 56.6779 83.3612C56.6527 83.4196 56.6395 83.4824 56.6391 83.546C56.6387 83.6096 56.651 83.6726 56.6754 83.7313C56.7584 83.8503 56.8696 83.9467 56.9992 84.0119C57.0469 84.0327 57.0983 84.0435 57.1503 84.0435C57.2023 84.0435 57.2537 84.0327 57.3014 84.0119L60.4422 82.9326C60.561 82.8678 60.6797 82.7923 60.7013 82.7059C60.7449 82.5764 60.7449 82.4361 60.7013 82.3066C59.9191 80.0921 58.31 78.2663 56.2113 77.2122Z" fill="black" stroke="black" stroke-miterlimit="10"/>
<path d="M36.3194 84.4689C36.1726 84.2015 35.961 83.9751 35.7041 83.8105C35.6432 83.7911 35.5788 83.7847 35.5152 83.792C35.4516 83.7992 35.3902 83.8198 35.3352 83.8524C35.2801 83.885 35.2326 83.9289 35.1957 83.9813C35.1589 84.0336 35.1335 84.0931 35.1213 84.1559C34.8577 84.8995 34.7835 85.697 34.9054 86.4765C35.0889 87.3076 35.6286 88.2466 36.6324 88.2142C36.9323 88.1848 37.2228 88.0928 37.485 87.9444C37.6037 87.8688 37.8196 87.8256 37.9275 87.7609C38.0355 87.6961 38.1218 87.7609 38.2298 88.1386C38.3377 88.5164 38.4348 88.484 38.478 88.6891C38.9359 89.4243 39.6221 89.9892 40.4316 90.2973C41.2887 90.4282 42.1651 90.2726 42.9248 89.8548C43.1065 89.761 43.2708 89.6369 43.4105 89.4878C43.7667 89.2827 43.7667 89.2827 43.9502 89.3367C44.1337 89.3906 44.1121 89.477 44.2416 89.7037C44.3772 89.9825 44.5959 90.2126 44.8676 90.362C45.7203 90.8801 46.6809 90.2433 47.2206 89.6929C47.7086 89.0616 48.0346 88.3205 48.1704 87.5342C48.1881 87.4732 48.1931 87.4093 48.1852 87.3463C48.1772 87.2833 48.1564 87.2226 48.124 87.1679C48.0916 87.1133 48.0484 87.0659 47.997 87.0286C47.9455 86.9914 47.887 86.9651 47.825 86.9514C47.764 86.9319 47.6996 86.9256 47.636 86.9328C47.5724 86.94 47.5111 86.9606 47.456 86.9932C47.401 87.0259 47.3535 87.0698 47.3166 87.1221C47.2797 87.1744 47.2543 87.2339 47.2421 87.2968C47.1288 87.9419 46.8664 88.5517 46.4758 89.0776C46.0765 89.4662 45.6124 89.736 45.3965 89.5741C45.1806 89.4122 45.2346 89.4338 45.159 89.3151C44.9965 89.0249 44.7526 88.7885 44.4575 88.6351C44.2123 88.5239 43.9381 88.4932 43.6744 88.5475C43.4106 88.6018 43.1709 88.7383 42.9896 88.9373L42.6334 89.1424C42.1043 89.4892 41.4699 89.6383 40.8417 89.5633C40.2483 89.3398 39.7647 88.8949 39.4926 88.3221L39.2875 87.9767C39.0824 87.6206 38.9205 87.0917 38.2082 86.9837C37.879 87.0072 37.557 87.0914 37.2584 87.232C37.1396 87.2968 37.0209 87.3723 36.9346 87.3399C36.6324 87.3399 36.287 86.7787 36.2006 86.3577C36.0912 85.7276 36.1319 85.0804 36.3194 84.4689Z" fill="black" stroke="black" stroke-miterlimit="10"/>
<path d="M39.4925 85.1987C39.5535 85.2182 39.6179 85.2245 39.6815 85.2173C39.7451 85.2101 39.8064 85.1895 39.8615 85.1569C39.9165 85.1242 39.9641 85.0803 40.0009 85.028C40.0378 84.9757 40.0632 84.9162 40.0754 84.8533L43.7451 71.5776C43.7645 71.5167 43.7709 71.4523 43.7637 71.3887C43.7564 71.3251 43.7358 71.2637 43.7032 71.2087C43.6706 71.1536 43.6267 71.1061 43.5744 71.0692C43.522 71.0324 43.4625 71.007 43.3997 70.9948C43.2785 70.9698 43.1523 70.9901 43.0449 71.0517C42.9376 71.1133 42.8565 71.2121 42.8169 71.3294L39.1471 84.6159C39.1294 84.6769 39.1244 84.7408 39.1323 84.8038C39.1403 84.8668 39.1611 84.9275 39.1935 84.9822C39.2259 85.0368 39.2691 85.0842 39.3206 85.1215C39.372 85.1587 39.4305 85.185 39.4925 85.1987Z" fill="black" stroke="black" stroke-miterlimit="10"/>
<path d="M56.2006 31.1308C27.879 23.7482 9.63841 54.1637 15.5963 74.4766C15.1018 75.5927 14.7885 76.7805 14.6681 77.9952C14.2471 81.1468 14.776 83.6617 16.1683 85.5505C16.3641 85.8717 16.6297 86.1447 16.9455 86.3492C16.9455 86.5327 16.762 86.6946 16.708 86.8781C16.2555 88.0603 16.0783 89.33 16.1899 90.591C16.2655 91.7998 17.3664 95.1457 19.6761 95.7501C19.9521 95.8517 20.246 95.8958 20.5396 95.8797C20.65 96.2474 20.7834 96.6079 20.939 96.959C22.0141 99.6987 23.4673 102.274 25.2563 104.611C27.0662 107.175 29.3174 109.397 31.9049 111.174C32.8911 111.801 33.9638 112.281 35.0889 112.598C35.4893 112.718 35.9023 112.79 36.3194 112.814C38.4194 112.936 40.5243 112.683 42.5363 112.07C45.5751 111.215 48.4809 109.944 51.1709 108.292C52.8914 107.315 54.4924 106.142 55.9415 104.795L56.6755 104.989C58.996 105.594 61.6188 103.111 62.2556 102.194C62.9072 101.116 63.3536 99.9264 63.5724 98.6859C63.5724 98.4916 63.5724 98.2866 63.5724 98.1031C63.907 97.9843 64.3171 97.898 64.6517 97.7901C66.7456 96.9482 68.3646 94.9083 69.5411 91.9509C69.9109 90.9983 70.1997 90.0163 70.4045 89.0151C86.5297 76.2467 84.3386 38.4918 56.2006 31.1308ZM17.7765 85.0972L17.5823 85.4426C17.3447 85.2821 17.1304 85.0896 16.9455 84.8705C15.6611 83.3487 15.2617 81.0713 15.6503 78.1139C15.7388 77.4801 15.8686 76.8528 16.0388 76.2359C16.2103 76.6304 16.4086 77.0127 16.6324 77.38C16.7404 77.7038 16.967 77.9628 17.0858 78.2866C17.3988 78.9666 17.7226 79.6358 17.9924 80.1107L18.1219 80.7367C18.1219 81.4275 18.2191 82.2478 18.2406 82.8954C18.2776 83.6466 18.1176 84.3944 17.7765 85.0648V85.0972ZM63.9933 87.979C63.2702 89.5872 62.601 91.1414 61.921 92.8252L59.5465 97.7469C58.5627 99.6701 57.4484 101.524 56.2114 103.295C54.6538 105.043 52.8016 106.504 50.7392 107.612C48.0952 109.18 45.277 110.433 42.342 111.346C40.4251 111.936 38.4194 112.184 36.4165 112.08C35.0037 111.864 33.6554 111.341 32.4662 110.548C29.9831 108.817 27.8362 106.648 26.1305 104.147C24.4432 101.848 23.0373 99.3551 21.9427 96.7215C21.5783 95.9094 21.3382 95.0471 21.2304 94.1635C20.9742 91.9753 20.8876 89.7705 20.9713 87.5688L21.2088 82.4852C21.4247 80.564 21.5974 78.7291 21.7808 76.9051C21.7808 76.5057 21.7808 76.1172 21.7808 75.7178C22.3637 72.7065 23.0005 69.911 23.0437 69.7276C23.3903 68.3079 24.0754 66.9933 25.0404 65.8959C24.9425 66.043 24.8902 66.2157 24.8902 66.3924C24.8902 66.5691 24.9425 66.7419 25.0404 66.8889C25.1165 66.9906 25.2125 67.0758 25.3225 67.1394C25.4325 67.2029 25.5542 67.2435 25.6803 67.2586C25.8065 67.2738 25.9343 67.2632 26.0563 67.2274C26.1782 67.1917 26.2916 67.1316 26.3896 67.0508C28.8396 65.216 31.0738 64.6115 33.2325 65.0757H33.3188C37.2044 66.155 39.3631 70.7097 39.4602 70.7421C39.5944 71.0026 39.8218 71.203 40.097 71.3034C40.2938 71.3648 40.5046 71.3648 40.7014 71.3034C40.8145 71.2493 40.9156 71.1732 40.9988 71.0795C41.082 70.9857 41.1456 70.8763 41.1859 70.7576C41.2261 70.6389 41.2422 70.5134 41.2331 70.3884C41.2241 70.2634 41.1901 70.1414 41.1332 70.0298C40.0626 67.7956 38.4065 65.8933 36.341 64.5252C43.4537 66.0902 51.1601 69.9218 54.1607 68.9936C58.478 64.3741 60.1617 63.4459 60.1617 63.4459L58.4672 69.9218C53.9664 69.08 49.7246 72.156 49.498 72.3179C49.3906 72.3842 49.2983 72.472 49.2269 72.576C49.1555 72.6799 49.1065 72.7976 49.0831 72.9215C49.0598 73.0455 49.0625 73.1729 49.0912 73.2957C49.1199 73.4185 49.1739 73.534 49.2497 73.6347C49.3038 73.725 49.3774 73.8019 49.4652 73.8598C49.5531 73.9177 49.6528 73.9551 49.757 73.9693C49.8996 74.0131 50.0511 74.0192 50.1967 73.9871C50.3424 73.9549 50.4772 73.8856 50.5881 73.7858C50.5881 73.7858 54.7327 70.8177 58.7046 71.8646H58.8018C60.9604 72.4151 62.655 74.1528 63.8098 76.9267C63.9259 77.1427 64.112 77.3128 64.3376 77.409C64.5632 77.5051 64.8149 77.5215 65.0511 77.4555C65.2694 77.3391 65.441 77.1512 65.5373 76.9232C65.6336 76.6953 65.6486 76.4412 65.5799 76.2035C65.5799 76.1172 65.5044 76.0848 65.5799 75.9985C66.0404 76.7563 66.3352 77.603 66.445 78.4829C66.5547 79.3628 66.4769 80.256 66.2167 81.1037L63.9933 87.979ZM68.7532 91.7027C67.7494 94.401 66.2923 96.2035 64.4358 96.9914C64.1984 97.1317 63.8962 97.1533 63.6695 97.2828V96.8942C63.6998 96.1485 63.923 95.4233 64.3171 94.7895C64.6949 94.0988 65.0727 93.3972 65.3965 92.8899C65.8283 92.3465 66.3416 91.8731 66.9183 91.4868L67.5011 91.1414L67.8573 90.9363L69.3684 90.0513C69.1633 90.4938 69.0122 91.0443 68.7532 91.6703V91.7027Z" fill="black" stroke="black" stroke-miterlimit="10"/>
<path d="M42.4823 100.615C41.8485 100.757 41.1998 100.823 40.5503 100.809C39.193 100.852 37.8454 100.567 36.6216 99.9783C35.7765 99.5642 34.9801 99.0574 34.2471 98.4673H34.1499C34.0123 98.3473 33.836 98.2812 33.6534 98.2812C33.4709 98.2812 33.2945 98.3473 33.157 98.4673C33.0391 98.6059 32.9744 98.7819 32.9744 98.9638C32.9744 99.1457 33.0391 99.3217 33.157 99.4603L33.3189 99.6006C34.1045 100.286 34.9886 100.85 35.9416 101.274C36.4646 101.523 37.0058 101.732 37.5606 101.9C38.5287 102.157 39.5269 102.284 40.5288 102.277C41.2743 102.271 42.0181 102.203 42.7522 102.072C42.8457 102.056 42.9348 102.021 43.0136 101.968C43.0923 101.915 43.1589 101.846 43.2089 101.765C43.259 101.685 43.2913 101.594 43.3037 101.5C43.3161 101.406 43.3084 101.31 43.281 101.22C43.2368 101.043 43.1335 100.887 42.9882 100.777C42.8429 100.667 42.6644 100.61 42.4823 100.615Z" fill="black" stroke="black" stroke-miterlimit="10"/>
<path d="M46.4111 98.2765C46.3605 98.098 46.2449 97.9448 46.0872 97.8469C45.9295 97.7491 45.7409 97.7137 45.5585 97.7476C45.3832 97.8025 45.234 97.9194 45.1387 98.0763C45.0433 98.2332 45.0084 98.4195 45.0404 98.6003V98.8162C44.7598 98.7406 44.4575 98.8162 44.1877 98.6867C42.8386 96.2582 40.7878 95.4487 39.1796 95.902C38.1003 94.8227 36.0172 94.3801 33.5348 95.902C33.2649 95.8372 33.0059 95.6645 32.7361 95.5998L32.8764 95.4379C32.9433 95.3725 32.9964 95.2945 33.0327 95.2083C33.069 95.1221 33.0877 95.0295 33.0877 94.936C33.0877 94.8425 33.069 94.7499 33.0327 94.6637C32.9964 94.5775 32.9433 94.4995 32.8764 94.4341C32.8128 94.3661 32.7359 94.312 32.6505 94.2749C32.5651 94.2379 32.473 94.2188 32.3799 94.2188C32.2868 94.2188 32.1947 94.2379 32.1093 94.2749C32.0239 94.312 31.947 94.3661 31.8834 94.4341L30.1241 96.2582C30.0547 96.3209 29.9992 96.3975 29.9612 96.483C29.9232 96.5686 29.9036 96.6611 29.9036 96.7547C29.9036 96.8482 29.9232 96.9408 29.9612 97.0263C29.9992 97.1118 30.0547 97.1884 30.1241 97.2512C30.1513 97.2968 30.189 97.3352 30.234 97.3634C30.2791 97.3915 30.3302 97.4086 30.3831 97.4131C30.5001 97.4497 30.6256 97.4486 30.7418 97.4099C30.8581 97.3711 30.9592 97.2967 31.0307 97.1972L31.5704 96.6359C33.7977 97.5307 36.0754 98.2947 38.3917 98.9241C40.6747 99.5206 42.9925 99.9748 45.3318 100.284L45.5045 101.115C45.5359 101.23 45.5931 101.337 45.6716 101.426C45.7501 101.516 45.848 101.587 45.9578 101.633C46.0055 101.654 46.0569 101.665 46.1089 101.665C46.1609 101.665 46.2124 101.654 46.26 101.633C46.4386 101.583 46.5918 101.467 46.6896 101.309C46.7874 101.152 46.8228 100.963 46.7889 100.781L46.4111 98.2765Z" fill="black"/>
</g>
<defs>
<clipPath id="clip0_157_76">
<rect width="163" height="163" fill="white"/>
</clipPath>
</defs>
</svg>
