<svg width="163" height="163" viewBox="0 0 163 163" fill="none" xmlns="http://www.w3.org/2000/svg">
<g clip-path="url(#clip0_157_27)">
<path d="M81.4999 160.299C125.021 160.299 160.302 125.018 160.302 81.497C160.302 37.976 125.021 2.69531 81.4999 2.69531C37.979 2.69531 2.69824 37.976 2.69824 81.497C2.69824 125.018 37.979 160.299 81.4999 160.299Z" fill="#DDE8ED"/>
<mask id="mask0_157_27" style="mask-type:luminance" maskUnits="userSpaceOnUse" x="2" y="2" width="159" height="159">
<path d="M81.4999 160.299C125.021 160.299 160.302 125.018 160.302 81.497C160.302 37.976 125.021 2.69531 81.4999 2.69531C37.979 2.69531 2.69824 37.976 2.69824 81.497C2.69824 125.018 37.979 160.299 81.4999 160.299Z" fill="white"/>
</mask>
<g mask="url(#mask0_157_27)">
<path d="M100.507 136.683L113.912 108.48L81.7588 95.0859L49.6165 108.48L63.0217 136.683" fill="#506AA8"/>
<path d="M100.507 136.683L113.912 108.48L81.7588 95.0859L49.6165 108.48L63.0217 136.683" stroke="#231F20" stroke-width="3" stroke-linecap="round" stroke-linejoin="round"/>
<path d="M118.175 77.6953H45.3423V83.3726H118.175V77.6953Z" stroke="#231F20" stroke-width="3" stroke-linecap="round" stroke-linejoin="round"/>
<path d="M111.98 87.3793L118.186 83.375H81.7588H45.3423L51.5376 87.3793V92.2902L48.44 93.5746V109.16L81.7588 95.2908L115.078 109.16V93.5746L111.98 92.2902V87.3793Z" stroke="#231F20" stroke-width="3" stroke-linecap="round" stroke-linejoin="round"/>
<path d="M97.6034 58.0859H65.9143V67.3466H97.6034V58.0859Z" stroke="#231F20" stroke-width="3" stroke-linecap="round" stroke-linejoin="round"/>
<path d="M86.3892 36.875H76.9451V58.0838H86.3892V36.875Z" fill="#F9D94A" stroke="#231F20" stroke-width="3" stroke-linecap="round" stroke-linejoin="round"/>
<path d="M73.1567 16.2734C74.1625 16.2734 75.1272 16.6722 75.8394 17.3824C76.5516 18.0926 76.9531 19.0561 76.956 20.0619C76.956 22.0478 75.4989 23.2999 73.5021 23.7856V23.8611H76.7941C78.6891 23.8611 80.5065 24.6139 81.8465 25.9539C83.1864 27.2938 83.9392 29.1112 83.9392 31.0063V36.8778" stroke="#231F20" stroke-width="3" stroke-miterlimit="10"/>
<path d="M68.7854 15.5811C68.2653 15.5418 67.7427 15.6102 67.2503 15.7822C66.7579 15.9543 66.3063 16.2261 65.9238 16.5807C65.5413 16.9354 65.2362 17.3651 65.0275 17.8432C64.8189 18.3212 64.7112 18.8372 64.7112 19.3588C64.7112 19.8803 64.8189 20.3963 65.0275 20.8743C65.2362 21.3524 65.5413 21.7821 65.9238 22.1368C66.3063 22.4914 66.7579 22.7632 67.2503 22.9353C67.7427 23.1073 68.2653 23.1757 68.7854 23.1364C68.0767 23.487 67.5358 24.104 67.2809 24.8524C67.0261 25.6008 67.078 26.4197 67.4254 27.1299C68.1486 28.5978 69.3898 28.4899 71.4189 28.4899H72.8545C74.509 28.4899 76.0958 29.1471 77.2657 30.3171C78.4357 31.487 79.093 33.0738 79.093 34.7284V36.887" stroke="#231F20" stroke-width="3" stroke-linejoin="round"/>
<path d="M77.625 136.343L81.7588 116.43L85.9034 136.354" stroke="#231F20" stroke-width="3" stroke-linecap="round" stroke-linejoin="round"/>
<path d="M106.907 67.3438H56.6213V77.6945H106.907V67.3438Z" fill="#EE82AA" stroke="#231F20" stroke-width="3" stroke-linecap="round" stroke-linejoin="round"/>
<path d="M64.6195 73.0772C64.9333 71.9271 64.2552 70.7403 63.1051 70.4265C61.9549 70.1127 60.7682 70.7907 60.4544 71.9409C60.1406 73.0911 60.8186 74.2778 61.9688 74.5916C63.1189 74.9054 64.3057 74.2274 64.6195 73.0772Z" fill="#231F20"/>
<path d="M74.2533 73.0137C74.5286 71.8538 73.8114 70.6902 72.6514 70.415C71.4914 70.1397 70.3279 70.8569 70.0526 72.0169C69.7774 73.1768 70.4945 74.3403 71.6545 74.6156C72.8145 74.8909 73.978 74.1737 74.2533 73.0137Z" fill="#231F20"/>
<path d="M83.8911 72.8369C84.0687 71.658 83.2571 70.5584 82.0782 70.3807C80.8993 70.203 79.7996 71.0147 79.622 72.1936C79.4443 73.3725 80.256 74.4721 81.4348 74.6498C82.6137 74.8275 83.7134 74.0158 83.8911 72.8369Z" fill="#231F20"/>
<path d="M91.3757 74.6767C92.5679 74.6767 93.5343 73.7102 93.5343 72.518C93.5343 71.3258 92.5679 70.3594 91.3757 70.3594C90.1835 70.3594 89.217 71.3258 89.217 72.518C89.217 73.7102 90.1835 74.6767 91.3757 74.6767Z" fill="#231F20"/>
<path d="M100.982 74.6767C102.174 74.6767 103.14 73.7102 103.14 72.518C103.14 71.3258 102.174 70.3594 100.982 70.3594C99.7895 70.3594 98.823 71.3258 98.823 72.518C98.823 73.7102 99.7895 74.6767 100.982 74.6767Z" fill="#231F20"/>
<path d="M42.0181 133.031L42.7952 133.992C43.5038 134.857 44.3957 135.554 45.4064 136.032C46.4171 136.511 47.5215 136.759 48.6397 136.759C49.758 136.759 50.8624 136.511 51.8731 136.032C52.8838 135.554 53.7756 134.857 54.4843 133.992L55.2614 133.031L56.0493 133.992C56.758 134.857 57.6498 135.554 58.6606 136.032C59.6713 136.511 60.7756 136.759 61.8939 136.759C63.0122 136.759 64.1165 136.511 65.1272 136.032C66.1379 135.554 67.0298 134.857 67.7384 133.992L68.5155 133.031L69.2927 133.992C70.0013 134.857 70.8932 135.554 71.9039 136.032C72.9146 136.511 74.0189 136.759 75.1372 136.759C76.2555 136.759 77.3598 136.511 78.3705 136.032C79.3813 135.554 80.2731 134.857 80.9818 133.992L81.7589 133.031L82.536 133.992C83.2447 134.857 84.1365 135.554 85.1472 136.032C86.1579 136.511 87.2623 136.759 88.3806 136.759C89.4989 136.759 90.6032 136.511 91.6139 136.032C92.6246 135.554 93.5165 134.857 94.2251 133.992L95.0022 133.031L95.7901 133.992C96.4988 134.857 97.3907 135.554 98.4014 136.032C99.4121 136.511 100.516 136.759 101.635 136.759C102.753 136.759 103.857 136.511 104.868 136.032C105.879 135.554 106.771 134.857 107.479 133.992L108.256 133.031L109.033 133.992C109.742 134.857 110.634 135.554 111.645 136.032C112.655 136.511 113.76 136.759 114.878 136.759C115.996 136.759 117.101 136.511 118.111 136.032C119.122 135.554 120.014 134.857 120.723 133.992L121.5 133.031" stroke="#231F20" stroke-width="3" stroke-linecap="round" stroke-linejoin="round"/>
</g>
<path d="M81.4999 160.299C125.021 160.299 160.302 125.018 160.302 81.497C160.302 37.976 125.021 2.69531 81.4999 2.69531C37.979 2.69531 2.69824 37.976 2.69824 81.497C2.69824 125.018 37.979 160.299 81.4999 160.299Z" stroke="black" stroke-width="5" stroke-miterlimit="10"/>
</g>
<defs>
<clipPath id="clip0_157_27">
<rect width="163" height="163" fill="white"/>
</clipPath>
</defs>
</svg>
