<svg width="163" height="164" viewBox="0 0 163 164" fill="none" xmlns="http://www.w3.org/2000/svg">
<g clip-path="url(#clip0_157_49)">
<path d="M81.43 160.36C125.022 160.36 160.36 125.022 160.36 81.43C160.36 37.8382 125.022 2.5 81.43 2.5C37.8382 2.5 2.5 37.8382 2.5 81.43C2.5 125.022 37.8382 160.36 81.43 160.36Z" fill="#BEEDEA"/>
<mask id="mask0_157_49" style="mask-type:luminance" maskUnits="userSpaceOnUse" x="2" y="2" width="159" height="159">
<path d="M81.43 160.36C125.022 160.36 160.36 125.022 160.36 81.43C160.36 37.8382 125.022 2.5 81.43 2.5C37.8382 2.5 2.5 37.8382 2.5 81.43C2.5 125.022 37.8382 160.36 81.43 160.36Z" fill="white"/>
</mask>
<g mask="url(#mask0_157_49)">
<path d="M89.85 139.468L90.96 175.498L70.37 169.278L34.5 155.968L69.74 125.828L89.85 139.468Z" fill="black" stroke="black" stroke-miterlimit="10"/>
<path d="M87.4499 139.468L88.5599 175.498L67.9799 169.278L32.1099 155.968L67.3499 125.828L87.4499 139.468Z" fill="#EC68C8"/>
<path d="M37.8599 68.4071C38.2457 69.6936 38.3683 71.0446 38.2206 72.3796C38.0728 73.7145 37.6577 75.0061 36.9999 76.1771C36.217 77.3809 35.8003 78.7861 35.8003 80.2221C35.8003 81.6581 36.217 83.0632 36.9999 84.2671C37.4117 84.953 37.7248 85.6937 37.9299 86.4671C38.0799 87.0471 38.3599 87.1171 38.8599 86.8671C40.0118 86.3033 41.1936 85.8026 42.3999 85.3671C44.5899 84.5471 46.8499 83.9171 48.9799 82.9471C51.1099 81.9771 53.1999 80.5371 53.6399 77.8071C53.7166 77.143 53.76 76.4755 53.7699 75.8071C53.784 75.5647 53.7407 75.3223 53.6434 75.0999C53.5461 74.8774 53.3975 74.6812 53.2099 74.5271C52.3226 73.7711 51.4748 72.9701 50.6699 72.1271C47.4362 68.5168 45.2993 64.0591 44.5099 59.2771C43.7899 55.2771 44.3599 51.2771 44.7399 47.3671C44.7607 47.065 44.868 46.7752 45.0488 46.5324C45.2296 46.2895 45.4764 46.1037 45.7599 45.9971C47.3305 45.2439 48.788 44.2745 50.0899 43.1171C51.4138 41.9925 52.572 40.6862 53.5299 39.2371C54.1999 38.2371 54.9899 37.9971 55.7299 38.6771C57.8897 40.4625 60.4006 41.7742 63.0999 42.5271C67.7029 44.0334 72.427 45.1408 77.2199 45.8371C78.5999 46.0471 78.8899 46.3571 79.0399 47.7471C79.1899 49.1371 79.2999 50.3571 79.4699 51.6571C80.0479 55.9697 79.5427 60.3585 77.9999 64.4271C76.6537 68.0504 74.4348 71.2859 71.5399 73.8471C71.1358 74.1118 70.852 74.5249 70.7499 74.9971C70.6399 77.0871 70.8199 79.1071 72.3299 80.7571C73.2174 81.7211 74.2498 82.541 75.3899 83.1871C78.3099 84.8471 81.6199 85.5471 84.6599 86.9071C85.0599 87.0871 85.2399 86.8471 85.3399 86.4971C85.6854 85.4565 86.1308 84.4518 86.6699 83.4971C87.207 82.4692 87.4875 81.3268 87.4875 80.1671C87.4875 79.0074 87.207 77.8649 86.6699 76.8371C86.1126 75.8902 85.6632 74.8839 85.3299 73.8371C84.9789 72.5562 84.8866 71.2183 85.0583 69.9015C85.23 68.5846 85.6622 67.3151 86.3299 66.1671C87.0699 64.9878 87.4582 63.622 87.4493 62.2298C87.4405 60.8376 87.0348 59.4768 86.2799 58.3071C86.1199 58.0471 85.9899 57.7571 85.8499 57.4771C84.8499 55.5371 84.9199 53.4771 84.9599 51.3671C85.1475 48.1669 84.6793 44.9621 83.5839 41.9493C82.4885 38.9366 80.7891 36.1794 78.5899 33.8471C72.2399 27.0971 64.4199 24.7271 55.4099 27.1171C48.1599 29.0971 43.0999 33.7771 40.0799 40.6471C38.5495 44.4518 37.9164 48.5581 38.2299 52.6471C38.323 54.7464 37.8129 56.8285 36.7599 58.6471C36.0952 59.754 35.7441 61.0209 35.7441 62.3121C35.7441 63.6032 36.0952 64.8701 36.7599 65.9771C37.2356 66.7331 37.6057 67.5507 37.8599 68.4071Z" fill="#C99F79"/>
<path d="M69.3599 135.131C69.6299 135.601 69.9699 136.031 70.1899 136.521C70.5199 137.211 71.0299 137.261 71.6799 137.101C72.9882 136.771 74.1503 136.017 74.9844 134.957C75.8186 133.897 76.2777 132.59 76.2899 131.241C76.2653 129.668 75.6313 128.167 74.5216 127.052C73.4119 125.938 71.913 125.298 70.3407 125.267C68.7684 125.236 67.2454 125.816 66.0925 126.886C64.9396 127.955 64.2467 129.43 64.1599 131.001C64.1599 131.731 64.3499 132.111 65.1599 132.201C66.0494 132.298 66.9002 132.617 67.634 133.129C68.3679 133.641 68.9614 134.329 69.3599 135.131Z" fill="#4B4945"/>
<path d="M57.8001 135.125C55.8001 135.905 53.7401 136.795 51.6301 137.385C51.2401 137.495 51.1601 137.765 51.0801 138.065C50.7201 139.355 50.3901 140.655 50.0101 141.935C49.8201 142.565 50.0701 142.755 50.6401 142.805C52.3951 143.019 54.1725 142.961 55.9101 142.635C58.4838 142.117 61.1376 142.144 63.7001 142.715C64.9301 142.975 66.1501 143.295 67.3801 143.465C69.2901 143.735 70.1701 142.585 69.3801 140.845C68.6959 139.284 67.9006 137.773 67.0001 136.325C66.7639 135.902 66.4304 135.54 66.027 135.271C65.6236 135.001 65.162 134.831 64.6801 134.775C63.5912 134.579 62.4864 134.485 61.3801 134.495C60.1544 134.431 58.9303 134.647 57.8001 135.125Z" fill="#F6C8A9"/>
<path d="M100.46 128.625C100.141 126.677 99.4626 124.806 98.4599 123.105C98.1499 122.435 97.8399 122.315 97.1599 122.675C94.6899 123.965 92.1599 125.205 89.6999 126.475C89.1099 126.785 88.7699 126.745 88.4499 126.075C87.3299 123.735 86.1499 121.425 85.0199 119.075C84.4899 117.995 84.5099 117.985 85.5699 117.465L92.9899 113.765C93.3099 113.605 93.7399 113.485 93.4799 112.965C92.7573 111.193 91.7433 109.553 90.4799 108.115C89.625 107.216 88.5838 106.515 87.4292 106.06C86.2746 105.606 85.0346 105.409 83.7961 105.484C82.5575 105.56 81.3504 105.905 80.2594 106.496C79.1683 107.087 78.2197 107.909 77.4799 108.905C76.4133 110.402 75.1823 111.773 73.8099 112.995C68.0799 117.805 61.7599 119.325 54.6399 116.495C52.1989 115.578 49.6074 115.127 46.9999 115.165C43.852 115.233 40.7654 116.05 37.9954 117.547C35.2254 119.044 32.8515 121.179 31.0699 123.775C30.4199 124.675 30.4499 124.775 31.4899 125.055L50.7999 131.185C52.7199 131.795 52.7199 131.795 52.2499 133.715C52.2499 133.895 52.0399 134.125 52.2499 134.275C52.4599 134.425 52.6799 134.275 52.8799 134.185C54.3199 133.645 55.7699 133.115 57.1899 132.535C58.2063 132.075 59.3145 131.852 60.4299 131.885C61.3299 131.935 61.5799 131.605 61.5999 130.725C61.6615 128.952 62.2717 127.242 63.3463 125.831C64.421 124.419 65.9073 123.376 67.5999 122.845C69.3058 122.327 71.1283 122.337 72.8288 122.872C74.5293 123.407 76.0284 124.444 77.1299 125.845C77.992 126.953 78.574 128.252 78.8264 129.633C79.0789 131.013 78.9944 132.434 78.5802 133.775C78.1659 135.116 77.4341 136.337 76.447 137.335C75.4598 138.332 74.2464 139.077 72.9099 139.505C72.1699 139.745 71.9099 139.985 72.1799 140.805C72.3642 141.441 72.3948 142.112 72.269 142.762C72.1432 143.413 71.8648 144.024 71.4566 144.545C71.0484 145.067 70.5221 145.484 69.9211 145.762C69.3202 146.04 68.6617 146.171 67.9999 146.145C66.7164 146.098 65.4436 145.893 64.2099 145.535C61.8975 144.887 59.4726 144.744 57.0999 145.115C54.6429 145.631 52.1141 145.709 49.6299 145.345C49.0499 145.265 48.9299 145.615 48.8699 146.025C48.7399 146.845 48.3899 147.025 47.5799 146.735C41.2999 144.665 35.0099 142.645 28.7199 140.615C28.4399 140.525 28.1099 140.235 27.8599 140.505C27.6099 140.775 27.9399 141.035 28.0399 141.295C29.9699 146.115 32.4099 150.695 34.7599 155.295C35.2397 156.203 35.8236 157.052 36.4999 157.825C41.2499 163.425 47.2499 166.295 54.6599 165.535C61.4699 164.835 66.5499 161.295 70.0499 155.435C71.2299 153.435 71.7099 151.205 72.6399 149.125C74.4045 144.989 77.7014 141.695 81.8399 139.935C85.1871 138.587 88.7719 137.927 92.3799 137.995C93.5405 137.953 94.6799 137.672 95.7267 137.169C96.7735 136.666 97.7053 135.952 98.4637 135.073C99.2221 134.193 99.7909 133.167 100.134 132.057C100.478 130.948 100.589 129.78 100.46 128.625Z" fill="#FBEBFB"/>
<path d="M91.3599 95.796C89.302 92.6445 86.2667 90.2556 82.7199 88.996C80.6599 88.246 78.5999 87.486 76.5599 86.686C76.0799 86.496 75.8299 86.686 75.5599 86.966L65.6999 95.806C64.9599 96.476 64.2099 97.136 63.4899 97.806C63.4268 97.8898 63.3461 97.9588 63.2535 98.0082C63.1609 98.0576 63.0586 98.0862 62.9538 98.0919C62.849 98.0976 62.7443 98.0804 62.6469 98.0413C62.5494 98.0023 62.4617 97.9425 62.3899 97.866C57.5799 94.336 52.7899 90.796 47.9999 87.216C47.7143 86.9688 47.3645 86.8076 46.9911 86.751C46.6177 86.6944 46.2359 86.7446 45.8899 86.896C42.8516 87.8705 39.9279 89.1715 37.1699 90.776C33.649 93.0645 30.5557 95.9513 28.0299 99.306C23.7676 104.798 19.7955 110.509 16.1299 116.416C13.9299 119.936 11.7265 123.463 9.51987 126.996C9.19234 127.423 8.97517 127.924 8.88761 128.455C8.80004 128.985 8.84478 129.53 9.01786 130.039C9.19095 130.548 9.48703 131.007 9.87986 131.375C10.2727 131.742 10.7501 132.007 11.2699 132.146L27.5999 137.466C33.6699 139.466 39.7499 141.376 45.8099 143.386C46.6199 143.656 46.8799 143.476 47.0799 142.686C47.7999 139.876 48.5799 137.066 49.3699 134.276C49.5499 133.656 49.2799 133.486 48.7699 133.276C41.4365 130.956 34.1032 128.623 26.7699 126.276C25.1999 125.776 25.2999 126.086 25.7699 124.386C25.9499 123.786 26.0599 123.186 26.9499 123.556C27.3799 123.736 27.6199 123.316 27.8499 123.046C30.0899 120.386 32.3999 117.796 34.5899 115.046C37.0788 112.076 39.2475 108.851 41.0599 105.426C41.2599 105.026 41.4399 104.886 41.9099 105.086C43.9099 105.876 43.9099 105.846 42.9099 107.696C41.8036 109.69 40.5746 111.614 39.2299 113.456C39.1099 113.636 38.9999 113.826 38.8699 114.016C39.0999 114.166 39.2499 114.016 39.3999 114.016C44.7751 111.923 50.7479 111.97 56.0899 114.146C61.3999 116.216 66.2499 115.146 70.7799 111.976C72.6392 110.603 74.2809 108.958 75.6499 107.096C80.8599 100.406 90.3299 102.096 94.1399 108.336C94.7248 109.304 95.2524 110.306 95.7199 111.336C96.0399 112.046 96.3599 112.086 97.0199 111.756L99.2399 110.646L98.9999 110.096C96.744 105.18 94.1927 100.404 91.3599 95.796Z" fill="#EC68C8"/>
<path d="M66.7701 74.6241C68.5014 73.2775 70.0958 71.7635 71.5301 70.1041C75.245 65.849 77.2008 60.3392 77.0001 54.6941C76.9535 52.9047 76.8133 51.1189 76.5801 49.3441C76.5801 48.6441 76.1901 48.3441 75.4701 48.2041C73.5701 47.8841 71.6601 47.5441 69.7701 47.1041C64.8601 45.9941 60.0001 44.7441 55.6401 41.9941C55.1801 41.7041 54.9401 41.8641 54.6401 42.2141C52.7684 44.5204 50.4826 46.4569 47.9001 47.9241C47.7 48.0226 47.5314 48.1749 47.413 48.3639C47.2947 48.5529 47.2313 48.7711 47.2301 48.9941C47.1401 50.1841 46.9901 51.3741 46.8801 52.5641C46.416 57.3008 47.3882 62.0675 49.6701 66.2441C51.4201 69.5441 54.1901 71.9141 56.9301 74.3141C58.3055 75.4458 60.017 76.09 61.7973 76.146C63.5775 76.2021 65.3262 75.6669 66.7701 74.6241ZM67.7701 50.6241C68.5878 50.2778 69.4731 50.1206 70.3601 50.1641C71.7851 50.2168 73.1941 50.4831 74.5401 50.9541C74.7099 50.9859 74.8612 51.0811 74.9634 51.2204C75.0655 51.3597 75.1108 51.5326 75.0901 51.7041C75.0901 51.8741 75.0901 52.0441 75.0901 52.2141C75.0901 53.7541 75.0901 53.7741 73.5801 53.4341C73.0901 53.3241 72.8701 53.4341 72.7001 53.9141C72.5979 54.3558 72.3388 54.7453 71.9709 55.0102C71.603 55.2751 71.1514 55.3973 70.7001 55.3541C70.2798 55.3367 69.879 55.1718 69.5681 54.8884C69.2572 54.6049 69.0561 54.2211 69.0001 53.8041C68.8501 53.3041 68.7001 52.9841 68.1501 53.3941C68.0967 53.4424 68.0331 53.4781 67.9641 53.4985C67.8951 53.5189 67.8223 53.5235 67.7513 53.512C67.6802 53.5004 67.6126 53.4731 67.5536 53.4319C67.4945 53.3907 67.4455 53.3368 67.4101 53.2741C67.3501 53.1841 67.2601 53.1041 67.1901 53.0141C66.0001 51.6041 66.0001 51.3441 67.8001 50.5841L67.7701 50.6241ZM66.8801 64.5141C67.3701 64.4341 67.5901 64.6041 67.7501 65.0641C68.4301 66.9841 68.3101 67.1741 66.2601 67.1841H65.6801C65.2284 67.1006 64.7645 67.1088 64.3161 67.2085C63.8676 67.3081 63.4439 67.4971 63.0701 67.7641C62.9117 67.8882 62.7163 67.9556 62.5151 67.9556C62.3139 67.9556 62.1185 67.8882 61.9601 67.7641C61.5865 67.4817 61.1562 67.2836 60.6987 67.1834C60.2412 67.0833 59.7675 67.0835 59.3101 67.1841C59.1371 67.1992 58.9631 67.1992 58.7901 67.1841C56.8601 67.1841 56.7901 67.1841 57.2901 65.3041C57.4301 64.7241 57.6401 64.3941 58.2901 64.5241C58.6811 64.6191 59.0891 64.6191 59.4801 64.5241C59.9305 64.3564 60.4152 64.3024 60.8915 64.3669C61.3677 64.4315 61.8206 64.6126 62.2101 64.8941C62.5801 65.1641 62.9201 64.8941 63.2101 64.6941C63.468 64.4947 63.7743 64.3674 64.0976 64.3252C64.4209 64.283 64.7496 64.3275 65.0501 64.4541C65.6566 64.6304 66.2999 64.6374 66.9101 64.4741L66.8801 64.5141ZM61.1201 59.4041C61.5591 59.2636 62.0197 59.2027 62.4801 59.2241C63.5691 59.177 64.6372 59.5331 65.4801 60.2241C65.6401 60.3441 65.8901 60.5241 65.8701 60.6441C65.7801 61.3641 65.0801 61.6441 64.6801 62.1141C64.4801 62.3641 64.2501 62.5441 63.8801 62.3141C63.4988 62.0575 63.0497 61.9204 62.5901 61.9204C62.1305 61.9204 61.6813 62.0575 61.3001 62.3141C61.1869 62.399 61.0449 62.4361 60.9047 62.4174C60.7644 62.3987 60.6371 62.3257 60.5501 62.2141C60.0901 61.7241 59.2001 61.3041 59.3101 60.7041C59.4201 60.1041 60.4101 59.6041 61.1501 59.3641L61.1201 59.4041ZM56.6701 53.9941C56.5534 54.3941 56.3077 54.7444 55.9713 54.9903C55.6349 55.2363 55.2267 55.3642 54.8101 55.3541C54.3949 55.3849 53.9826 55.264 53.6498 55.0139C53.3169 54.7638 53.0861 54.4015 53.0001 53.9941C52.8301 53.2441 52.5101 53.2241 51.8701 53.4041C50.5101 53.7941 50.4301 53.7041 50.4301 52.1341C50.2401 51.3441 50.6601 50.9741 51.5501 50.7441C52.9871 50.2849 54.4922 50.0752 56.0001 50.1241C57.0831 50.2188 58.12 50.6059 59.0001 51.2441C59.4301 51.5341 59.4701 51.8341 59.1101 52.2441C58.7501 52.6541 58.5201 52.9341 58.2301 53.2441C57.9401 53.5541 57.8401 53.6441 57.5701 53.4541C56.8601 52.9941 56.8101 53.4841 56.6701 53.9941Z" fill="#F6C8A9"/>
<path d="M72.6099 84.5806C70.3199 82.8106 68.4399 80.7706 68.2099 77.6906C68.2099 77.1206 67.8699 77.1306 67.4499 77.3506C65.8493 78.2727 64.039 78.7688 62.1919 78.7916C60.3448 78.8143 58.5228 78.3629 56.8999 77.4806C56.5099 77.2706 56.3799 77.3506 56.2899 77.7906C56.1511 78.5405 55.9572 79.2791 55.7099 80.0006C54.8399 82.4506 52.8999 83.8506 50.7099 85.0006C50.2899 85.2306 49.8899 85.3606 50.5399 85.8306C54.4333 88.6906 58.3199 91.5672 62.1999 94.4606C62.269 94.5241 62.3503 94.5728 62.4389 94.6038C62.5274 94.6348 62.6214 94.6474 62.715 94.6408C62.8086 94.6343 62.8999 94.6087 62.9832 94.5657C63.0666 94.5226 63.1404 94.4631 63.1999 94.3906C63.9499 93.6906 64.7299 93.0306 65.4899 92.3906C67.9299 90.2106 70.3633 88.0239 72.7899 85.8306C72.9799 85.6706 73.2099 85.5206 73.2299 85.2306C73.2499 84.9406 72.8499 84.7606 72.6099 84.5806Z" fill="#F6C8A9"/>
<path d="M151 87.5772C150.17 85.8072 150 85.6972 148.3 86.5772C145.53 87.8972 142.77 89.2672 140.01 90.5772C139.37 90.8872 138.84 91.2772 139.23 92.0972C140.31 94.3239 141.4 96.5472 142.5 98.7672C142.58 98.9932 142.727 99.1892 142.922 99.3288C143.117 99.4683 143.35 99.5445 143.59 99.5472C143.73 99.4972 143.92 99.4372 144.1 99.3572C147.1 97.8872 150.1 96.4372 153.1 94.9572C154.1 94.4572 154.21 94.0872 153.7 93.0372C152.82 91.2172 151.89 89.4172 151 87.5772Z" fill="#653A2D"/>
<path d="M126.48 120.245C125.93 119.605 125.56 119.675 124.92 120.075C119.127 123.775 113.33 127.442 107.53 131.075C106.3 131.855 106.3 131.845 105.53 130.585C104.91 129.645 104.9 129.585 105.9 129.025C106.025 128.979 106.138 128.904 106.23 128.808C106.322 128.711 106.391 128.595 106.431 128.468C106.472 128.34 106.483 128.206 106.463 128.074C106.444 127.942 106.395 127.816 106.32 127.705C105.6 126.035 104.92 124.335 104.25 122.645C104.036 122.216 103.884 121.758 103.8 121.285L103.4 120.285L103.16 119.695C102.91 119.825 102.66 119.955 102.4 120.075C100.45 121.075 100.4 121.075 101.4 123.015C102.472 124.84 103.076 126.901 103.16 129.015C103.257 130.986 102.831 132.948 101.925 134.701C101.018 136.453 99.6643 137.935 98 138.995C97.8963 139.04 97.8044 139.108 97.7313 139.194C97.6583 139.28 97.6062 139.381 97.579 139.491C97.5519 139.6 97.5505 139.714 97.575 139.825C97.5994 139.935 97.6491 140.038 97.72 140.125C98.06 140.755 98.35 141.405 98.72 142.035C99.1946 142.934 99.9034 143.687 100.771 144.215C101.639 144.743 102.634 145.027 103.65 145.035C104.842 145.008 106.002 144.648 107 143.995C111.147 141.275 115.3 138.565 119.46 135.865L131.77 127.865C132.64 127.295 132.65 127.285 131.94 126.485C130.14 124.375 128.27 122.345 126.48 120.245Z" fill="#EC68C8"/>
<path d="M138 95.4561C137.7 94.6861 137.29 94.6561 136.63 94.9961C134.91 95.8861 133.17 96.7361 131.44 97.5961L112.25 107.156C108.05 109.256 103.85 111.376 99.6501 113.466C96.0801 115.246 92.5201 117.036 88.9201 118.766C88.1801 119.126 88.1201 119.486 88.4801 120.136C88.8932 120.854 89.2574 121.599 89.5701 122.366C89.8901 123.186 90.2601 123.236 91.0301 122.846C96.7601 119.916 102.51 117.026 108.26 114.126C112.08 112.206 115.89 110.286 119.72 108.376C120.049 108.252 120.344 108.053 120.582 107.794C120.82 107.535 120.994 107.224 121.09 106.886C121.335 105.963 121.903 105.157 122.69 104.616C124.261 103.532 125.936 102.607 127.69 101.856C128.169 101.675 128.678 101.584 129.19 101.586C130.115 101.531 131.039 101.706 131.88 102.096C132.069 102.063 132.253 102.009 132.43 101.936C134.57 100.866 136.71 99.7861 138.85 98.7361C139.3 98.5161 139.34 98.2661 139.13 97.8561C138.73 97.0661 138.32 96.2761 138 95.4561Z" fill="#653A2D"/>
<path d="M128.15 104.547C127.01 105.127 125.87 105.727 124.78 106.397C124.408 106.601 124.088 106.886 123.843 107.232C123.598 107.578 123.435 107.975 123.366 108.394C123.298 108.812 123.326 109.241 123.448 109.647C123.57 110.053 123.782 110.426 124.07 110.737C124.984 111.937 125.987 113.067 127.07 114.117C127.797 114.738 128.388 115.503 128.805 116.363C129.221 117.224 129.455 118.162 129.49 119.117C129.506 119.49 129.655 119.845 129.91 120.117C130.98 121.297 132.05 122.477 133.09 123.677C133.48 124.147 133.79 124.177 134.17 123.677C136.118 121.332 137.18 118.376 137.17 115.327C137.144 114.178 136.798 113.06 136.17 112.097C134.71 109.797 133.17 107.537 131.6 105.307C131.22 104.777 130.658 104.405 130.021 104.265C129.384 104.125 128.717 104.225 128.15 104.547Z" fill="#F6C8A9"/>
<path d="M156.18 92.067C155.11 89.897 154.02 87.737 152.97 85.557C152.784 85.0845 152.499 84.6573 152.133 84.3045C151.768 83.9516 151.331 83.6812 150.853 83.5115C150.374 83.3418 149.865 83.2769 149.359 83.3209C148.853 83.365 148.362 83.5171 147.92 83.767C144.92 85.247 141.84 86.767 138.78 88.227C138.116 88.4952 137.545 88.9512 137.137 89.5391C136.728 90.1271 136.5 90.8214 136.48 91.537C136.487 91.7206 136.438 91.902 136.34 92.0573C136.242 92.2125 136.099 92.3345 135.93 92.407C134.93 92.857 134.06 93.407 133.11 93.837C127.697 96.5037 122.287 99.1704 116.88 101.837C111.78 104.37 106.69 106.914 101.61 109.467C99.5251 104.836 97.1883 100.323 94.61 95.947C93.0003 93.1484 90.8279 90.7139 88.23 88.797C88.023 88.6666 87.8654 88.471 87.7821 88.241C87.6988 88.0109 87.6945 87.7597 87.77 87.527C87.9823 86.7195 88.3197 85.9502 88.77 85.247C89.7097 83.669 90.1923 81.8608 90.1641 80.0244C90.1358 78.1879 89.5978 76.3954 88.61 74.847C87.7804 73.4006 87.4732 71.713 87.74 70.067C87.9444 69.0058 88.3373 67.9897 88.9 67.067C89.7329 65.6516 90.1804 64.0426 90.1979 62.4004C90.2155 60.7581 89.8024 59.14 89 57.707C88.0491 56.0091 87.5854 54.0817 87.66 52.137C87.7283 50.7707 87.7116 49.4013 87.61 48.037C87.0787 41.1053 83.8467 34.6594 78.61 30.087C74.1322 26.0174 68.3202 23.7268 62.27 23.647C56.2847 23.4458 50.4238 25.3853 45.74 29.117C40.9246 32.8079 37.5616 38.0756 36.24 43.997C35.629 47.0163 35.4106 50.1018 35.59 53.177C35.6008 54.6599 35.2104 56.118 34.46 57.397C33.575 58.8585 33.0997 60.5312 33.0839 62.2397C33.0681 63.9482 33.5123 65.6294 34.37 67.107C35.1446 68.36 35.5549 69.804 35.5549 71.277C35.5549 72.7501 35.1446 74.1941 34.37 75.447C33.4972 76.9487 33.045 78.6576 33.0608 80.3944C33.0767 82.1311 33.56 83.8316 34.46 85.317C34.9305 86.1281 35.2681 87.0092 35.46 87.927C35.5253 88.145 35.5143 88.3788 35.4289 88.5897C35.3434 88.8006 35.1886 88.976 34.99 89.087C30.6 91.907 27.33 95.847 24.2 99.927C21.57 103.367 19.13 106.927 16.75 110.567C13.45 115.617 10.25 120.797 6.99998 125.997C6.28304 127.114 6.00187 128.456 6.20998 129.767C6.34352 130.911 6.81409 131.99 7.56191 132.866C8.30974 133.742 9.30106 134.376 10.41 134.687C14.28 135.957 18.13 137.307 22.05 138.407C23.86 138.917 25.05 139.697 25.31 141.617C25.3558 141.783 25.4195 141.944 25.5 142.097C27.4566 146.844 29.6631 151.484 32.11 155.997C34.2916 160.207 37.755 163.614 42 165.727C46.1367 167.918 50.8505 168.775 55.4936 168.178C60.1367 167.582 64.4812 165.562 67.93 162.397C71.0319 159.508 73.3098 155.846 74.53 151.787C75.2291 149.437 76.4963 147.296 78.2194 145.551C79.9425 143.807 82.0687 142.515 84.41 141.787C87.17 140.847 90.07 140.927 92.91 140.567C94.82 140.327 95.37 141.097 96.03 142.567C98.38 147.697 104.03 149.207 108.7 146.117C117.733 140.21 126.777 134.31 135.83 128.417C136.74 127.827 136.83 127.787 136.04 127.007C135.53 126.477 135.55 126.117 136.04 125.577C137.615 123.834 138.75 121.739 139.35 119.467C139.86 117.858 140.001 116.155 139.762 114.484C139.523 112.814 138.91 111.218 137.97 109.817C136.82 108.157 135.72 106.457 134.56 104.817C134.18 104.277 134.27 104.017 134.86 103.737C136.58 102.907 138.28 102.047 139.98 101.167C140.164 101.04 140.389 100.986 140.611 101.015C140.833 101.045 141.036 101.156 141.18 101.327C141.672 101.814 142.303 102.135 142.987 102.245C143.67 102.354 144.371 102.246 144.99 101.937C148.19 100.437 151.367 98.8904 154.52 97.297C155.005 97.0994 155.44 96.7976 155.796 96.4129C156.151 96.0282 156.417 95.5701 156.575 95.071C156.734 94.5719 156.781 94.0441 156.712 93.525C156.644 93.0058 156.462 92.5081 156.18 92.067ZM36.76 58.677C37.813 56.8585 38.3232 54.7764 38.23 52.677C37.9165 48.588 38.5496 44.4818 40.08 40.677C43.08 33.807 48.16 29.127 55.45 27.187C64.45 24.797 72.28 27.187 78.63 33.917C80.8254 36.2459 82.5227 38.9981 83.618 42.0054C84.7132 45.0127 85.1835 48.2118 85 51.407C85 53.497 84.9 55.577 85.89 57.517C86.03 57.797 86.16 58.087 86.32 58.347C87.0749 59.5168 87.4806 60.8776 87.4894 62.2698C87.4983 63.6619 87.11 65.0278 86.37 66.207C85.7023 67.355 85.2701 68.6245 85.0984 69.9414C84.9267 71.2583 85.019 72.5962 85.37 73.877C85.7033 74.9239 86.1528 75.9302 86.71 76.877C87.2471 77.9048 87.5276 79.0473 87.5276 80.207C87.5276 81.3667 87.2471 82.5092 86.71 83.537C86.1709 84.4918 85.7255 85.4965 85.38 86.537C85.28 86.887 85.1 87.127 84.7 86.947C81.7 85.587 78.35 84.887 75.43 83.227C74.2899 82.581 73.2575 81.7611 72.37 80.797C70.86 79.147 70.68 77.127 70.79 75.037C70.8369 74.7978 70.9309 74.5703 71.0666 74.3678C71.2022 74.1652 71.3767 73.9916 71.58 73.857C74.4617 71.2884 76.6666 68.0498 78 64.427C79.5428 60.3585 80.048 55.9697 79.47 51.657C79.3 50.357 79.19 49.057 79.04 47.747C78.89 46.437 78.6 46.047 77.22 45.837C72.4271 45.1408 67.703 44.0334 63.1 42.527C60.4007 41.7742 57.8898 40.4625 55.73 38.677C54.99 37.997 54.2 38.237 53.53 39.237C52.5721 40.6862 51.414 41.9925 50.09 43.117C48.7881 44.2744 47.3307 45.2438 45.76 45.997C45.4749 46.0946 45.2236 46.2716 45.0358 46.5072C44.8479 46.7429 44.7314 47.0273 44.7 47.327C44.32 51.327 43.7 55.247 44.47 59.237C45.2594 64.0191 47.3963 68.4767 50.63 72.087C51.4349 72.93 52.2827 73.7311 53.17 74.487C53.3576 74.6411 53.5062 74.8374 53.6035 75.0599C53.7008 75.2823 53.7442 75.5246 53.73 75.767C53.7201 76.4354 53.6767 77.103 53.6 77.767C53.16 80.497 51.21 81.857 48.94 82.907C46.67 83.957 44.55 84.507 42.36 85.327C41.1537 85.7626 39.972 86.2633 38.82 86.827C38.32 87.077 38.04 87.007 37.89 86.427C37.6849 85.6536 37.3719 84.913 36.96 84.227C36.1771 83.0232 35.7605 81.618 35.7605 80.182C35.7605 78.746 36.1771 77.3409 36.96 76.137C37.6228 74.9681 38.0432 73.6776 38.1961 72.3426C38.349 71.0076 38.2313 69.6555 37.85 68.367C37.597 67.5325 37.2338 66.7355 36.77 65.997C36.1058 64.8921 35.754 63.6276 35.7522 62.3384C35.7505 61.0492 36.0988 59.7838 36.76 58.677ZM56.29 77.787C56.38 77.347 56.51 77.267 56.9 77.477C58.5228 78.3594 60.3449 78.8108 62.1919 78.788C64.039 78.7653 65.8494 78.2691 67.45 77.347C67.87 77.127 68.16 77.117 68.21 77.687C68.44 80.767 70.32 82.807 72.61 84.577C72.85 84.757 73.17 84.877 73.28 85.207C73.39 85.537 73.03 85.647 72.84 85.807C70.4066 87.9937 67.9733 90.1804 65.54 92.367C64.78 93.057 64 93.717 63.25 94.367C63.1904 94.4395 63.1167 94.4991 63.0333 94.5421C62.9499 94.5852 62.8586 94.6107 62.765 94.6173C62.6714 94.6238 62.5775 94.6112 62.4889 94.5802C62.4004 94.5492 62.3191 94.5005 62.25 94.437C58.37 91.5504 54.4833 88.6737 50.59 85.807C49.94 85.337 50.34 85.207 50.76 84.977C52.94 83.817 54.88 82.417 55.76 79.977C55.9894 79.2608 56.1665 78.5289 56.29 77.787ZM49.67 66.227C47.3881 62.0504 46.4159 57.2837 46.88 52.547C46.99 51.357 47.14 50.167 47.23 48.977C47.2303 48.7513 47.2942 48.5302 47.4145 48.3391C47.5348 48.1481 47.7065 47.9949 47.91 47.897C50.4925 46.4298 52.7783 44.4933 54.65 42.187C54.94 41.837 55.18 41.677 55.65 41.967C59.97 44.747 64.87 45.967 69.78 47.107C71.67 47.547 73.58 47.887 75.48 48.207C76.2 48.327 76.54 48.647 76.59 49.347C76.8198 51.122 76.9567 52.9078 77 54.697C77.2007 60.3421 75.2449 65.8519 71.53 70.107C70.0957 71.7664 68.5013 73.2804 66.77 74.627C65.3239 75.6671 63.574 76.1988 61.7937 76.1391C60.0135 76.0794 58.3031 75.4316 56.93 74.297C54.19 71.897 51.42 69.527 49.67 66.227ZM11.27 132.137C10.7519 131.997 10.2761 131.733 9.88462 131.366C9.4931 130.999 9.19787 130.541 9.02494 130.033C8.85202 129.526 8.80673 128.983 8.89306 128.453C8.97939 127.924 9.19469 127.424 9.51998 126.997C11.7333 123.464 13.9466 119.94 16.16 116.427C19.8256 110.52 23.7977 104.809 28.06 99.317C30.5858 95.9624 33.6791 93.0755 37.2 90.787C39.958 89.1825 42.8817 87.8816 45.92 86.907C46.266 86.7557 46.6478 86.7054 47.0212 86.7621C47.3946 86.8187 47.7444 86.9799 48.03 87.227C52.79 90.807 57.58 94.347 62.34 97.917C62.4118 97.9935 62.4995 98.0534 62.597 98.0924C62.6944 98.1314 62.7991 98.1487 62.9039 98.143C63.0087 98.1373 63.111 98.1087 63.2036 98.0593C63.2962 98.0099 63.3769 97.9409 63.44 97.857C64.16 97.167 64.91 96.507 65.65 95.857L75.51 86.997C75.83 86.717 76.08 86.527 76.51 86.717C78.51 87.517 80.61 88.277 82.67 89.027C86.2139 90.2815 89.2488 92.6631 91.31 95.807C94.1616 100.43 96.7297 105.222 99 110.157L99.24 110.707L97 111.817C96.34 112.147 96 112.107 95.7 111.397C95.2325 110.367 94.7049 109.365 94.12 108.397C90.31 102.157 80.84 100.467 75.63 107.157C74.2579 109.005 72.6163 110.636 70.76 111.997C66.23 115.217 61.38 116.237 56.07 114.167C50.728 111.991 44.7552 111.944 39.38 114.037C39.23 114.037 39.08 114.227 38.85 114.037C38.98 113.847 39.09 113.657 39.21 113.477C40.5547 111.635 41.7837 109.711 42.89 107.717C43.89 105.867 43.89 105.897 41.89 105.107C41.42 104.907 41.24 105.047 41.04 105.447C39.2276 108.872 37.0589 112.097 34.57 115.067C32.38 117.777 30.07 120.367 27.83 123.067C27.6 123.337 27.36 123.757 26.93 123.577C26.04 123.207 25.93 123.807 25.75 124.407C25.27 126.107 25.17 125.797 26.75 126.297C34.0833 128.644 41.4166 130.977 48.75 133.297C49.26 133.457 49.53 133.627 49.35 134.297C48.56 137.087 47.78 139.897 47.06 142.707C46.86 143.497 46.6 143.707 45.79 143.407C39.73 141.407 33.65 139.457 27.58 137.487L11.27 132.137ZM92.38 137.997C88.7779 137.952 85.2036 138.632 81.87 139.997C77.7315 141.757 74.4346 145.05 72.67 149.187C71.74 151.267 71.26 153.517 70.08 155.497C66.58 161.357 61.5 164.897 54.69 165.597C47.28 166.357 41.28 163.487 36.53 157.887C35.8537 157.114 35.2697 156.265 34.79 155.357C32.44 150.737 30 146.157 28.07 141.357C27.97 141.097 27.69 140.797 27.89 140.567C28.09 140.337 28.47 140.567 28.75 140.677C35.04 142.677 41.33 144.677 47.61 146.797C48.42 147.067 48.77 146.907 48.9 146.087C48.96 145.677 49.08 145.327 49.66 145.407C52.1441 145.771 54.6729 145.693 57.13 145.177C59.5027 144.806 61.9275 144.949 64.24 145.597C65.4736 145.955 66.7464 146.16 68.03 146.207C68.6957 146.233 69.3578 146.099 69.9613 145.816C70.5647 145.534 71.0919 145.111 71.4989 144.584C71.906 144.057 72.181 143.44 72.3013 142.784C72.4215 142.129 72.3833 141.455 72.19 140.817C71.97 139.997 72.19 139.757 72.92 139.517C74.2565 139.089 75.4698 138.344 76.457 137.347C77.4442 136.349 78.176 135.128 78.5902 133.787C79.0045 132.446 79.0889 131.025 78.8365 129.644C78.584 128.264 78.002 126.965 77.14 125.857C76.0385 124.455 74.5393 123.419 72.8388 122.884C71.1383 122.348 69.3158 122.339 67.61 122.857C65.9173 123.388 64.4311 124.431 63.3564 125.843C62.2817 127.254 61.6715 128.964 61.61 130.737C61.61 131.617 61.34 131.947 60.44 131.897C59.3245 131.864 58.2163 132.086 57.2 132.547C55.78 133.127 54.33 133.657 52.89 134.197C52.69 134.267 52.46 134.467 52.26 134.287C52.06 134.107 52.26 133.907 52.26 133.727C52.73 131.807 52.73 131.807 50.81 131.197L31.5 125.067C30.5 124.737 30.43 124.687 31.08 123.787C32.8594 121.19 35.2312 119.054 37.9995 117.555C40.7677 116.056 43.8528 115.238 47 115.167C49.6068 115.126 52.1982 115.573 54.64 116.487C61.76 119.317 68.08 117.797 73.81 112.987C75.2156 111.78 76.4803 110.418 77.58 108.927C78.3197 107.931 79.2683 107.108 80.3594 106.518C81.4505 105.927 82.6576 105.581 83.8961 105.506C85.1346 105.431 86.3746 105.627 87.5292 106.082C88.6838 106.536 89.7251 107.238 90.58 108.137C91.8433 109.575 92.8573 111.214 93.58 112.987C93.84 113.507 93.41 113.627 93.09 113.787L85.67 117.487C84.61 118.007 84.59 118.017 85.12 119.097C86.25 121.427 87.43 123.737 88.55 126.097C88.87 126.767 89.21 126.807 89.8 126.497C92.29 125.227 94.8 123.987 97.26 122.697C97.94 122.337 98.26 122.457 98.56 123.127C99.5627 124.827 100.241 126.699 100.56 128.647C100.686 129.808 100.57 130.982 100.219 132.096C99.8686 133.209 99.2904 134.238 98.5216 135.117C97.7528 135.996 96.81 136.705 95.7529 137.201C94.6957 137.697 93.5472 137.968 92.38 137.997ZM64.69 134.737C65.1739 134.799 65.636 134.975 66.0378 135.252C66.4397 135.528 66.7696 135.897 67 136.327C67.9107 137.774 68.7162 139.284 69.41 140.847C70.16 142.587 69.28 143.737 67.41 143.467C66.18 143.297 64.96 142.977 63.73 142.717C61.1675 142.146 58.5137 142.119 55.94 142.637C54.2024 142.963 52.425 143.02 50.67 142.807C50.1 142.757 49.85 142.567 50.04 141.937C50.42 140.657 50.75 139.357 51.11 138.067C51.19 137.767 51.27 137.497 51.66 137.387C53.77 136.797 55.78 135.907 57.83 135.127C58.9632 134.647 60.191 134.432 61.42 134.497C62.5163 134.489 63.611 134.583 64.69 134.777V134.737ZM64.16 130.997C64.2003 129.869 64.5544 128.774 65.1825 127.836C65.8106 126.898 66.6879 126.154 67.7157 125.687C68.7435 125.22 69.8811 125.049 71.0007 125.193C72.1204 125.337 73.1777 125.791 74.0538 126.503C74.9299 127.215 75.5902 128.157 75.9604 129.223C76.3306 130.29 76.3961 131.438 76.1495 132.54C75.9029 133.641 75.354 134.652 74.5644 135.459C73.7749 136.266 72.776 136.837 71.68 137.107C71.03 137.267 70.52 137.217 70.19 136.527C69.97 136.037 69.63 135.607 69.36 135.137C68.9592 134.329 68.3601 133.635 67.6186 133.121C66.8772 132.607 66.0175 132.289 65.12 132.197C64.35 132.097 64.15 131.717 64.16 130.997ZM131.81 127.837L119.5 135.837C115.353 138.57 111.187 141.29 107 143.997C105.992 144.661 104.817 145.025 103.61 145.047C102.594 145.038 101.599 144.755 100.731 144.227C99.8634 143.699 99.1546 142.945 98.68 142.047C98.35 141.417 98.06 140.767 97.68 140.137C97.608 140.047 97.5585 139.94 97.5356 139.827C97.5127 139.714 97.5171 139.596 97.5483 139.485C97.5796 139.374 97.6368 139.272 97.7153 139.187C97.7939 139.102 97.8914 139.037 98 138.997C99.6581 137.929 101.004 136.441 101.902 134.685C102.799 132.929 103.216 130.966 103.11 128.997C103.026 126.883 102.422 124.822 101.35 122.997C100.35 121.067 100.35 120.997 102.35 120.057C102.61 119.937 102.86 119.807 103.11 119.677L103.35 120.267L103.75 121.267C104.51 123.267 105.67 126.267 106.27 127.687C106.345 127.797 106.394 127.923 106.413 128.055C106.433 128.187 106.422 128.322 106.381 128.449C106.341 128.576 106.272 128.693 106.18 128.789C106.088 128.886 105.975 128.96 105.85 129.007C104.85 129.597 104.85 129.627 105.48 130.567C106.3 131.827 106.3 131.837 107.48 131.057C113.28 127.39 119.077 123.724 124.87 120.057C125.51 119.657 125.87 119.587 126.43 120.227C128.22 122.327 130.09 124.357 131.93 126.427C132.69 127.247 132.68 127.257 131.81 127.827V127.837ZM105.58 118.657L105.5 118.507C110.38 116.047 115.26 113.597 120.12 111.117C120.78 110.787 121.04 110.857 121.43 111.517C122.498 113.062 123.699 114.511 125.02 115.847C125.53 116.457 125.42 116.677 124.82 117.057C119.7 120.27 114.593 123.5 109.5 126.747C108.99 127.077 108.8 126.977 108.59 126.437C107.89 124.627 106.27 120.457 105.58 118.647V118.657ZM136.23 112.117C136.858 113.08 137.204 114.198 137.23 115.347C137.24 118.396 136.178 121.352 134.23 123.697C133.85 124.177 133.54 124.147 133.15 123.697C132.15 122.497 131.04 121.317 129.97 120.137C129.715 119.865 129.566 119.51 129.55 119.137C129.514 118.182 129.281 117.244 128.865 116.383C128.448 115.522 127.857 114.758 127.13 114.137C126.047 113.087 125.044 111.957 124.13 110.757C123.842 110.446 123.63 110.073 123.508 109.667C123.386 109.261 123.358 108.832 123.426 108.414C123.495 107.995 123.658 107.598 123.903 107.252C124.148 106.906 124.468 106.621 124.84 106.417C125.93 105.747 127.07 105.147 128.21 104.567C128.784 104.229 129.465 104.12 130.116 104.263C130.767 104.406 131.34 104.789 131.72 105.337C133.23 107.547 134.77 109.807 136.23 112.107V112.117ZM138.85 98.747C136.71 99.797 134.57 100.877 132.43 101.947C132.253 102.02 132.069 102.074 131.88 102.107C131.039 101.717 130.115 101.542 129.19 101.597C128.678 101.595 128.169 101.686 127.69 101.867C125.935 102.618 124.26 103.543 122.69 104.627C121.903 105.168 121.335 105.974 121.09 106.897C120.994 107.235 120.82 107.546 120.582 107.805C120.344 108.064 120.049 108.263 119.72 108.387C115.89 110.297 112.08 112.217 108.26 114.137C102.51 117.037 96.76 119.927 91.03 122.857C90.26 123.247 89.89 123.197 89.57 122.377C89.2573 121.61 88.8931 120.865 88.48 120.147C88.12 119.497 88.18 119.147 88.92 118.777C92.52 117.047 96.08 115.257 99.65 113.477C103.85 111.387 108.05 109.267 112.25 107.167L131.44 97.607C133.17 96.747 134.91 95.897 136.63 95.007C137.29 94.667 137.7 94.697 138 95.467C138.3 96.237 138.73 97.077 139.13 97.867C139.34 98.267 139.3 98.517 138.85 98.737V98.747ZM153.11 94.997C150.11 96.477 147.11 97.927 144.11 99.397C143.93 99.477 143.74 99.537 143.6 99.587C143.36 99.5843 143.127 99.5081 142.932 99.3686C142.737 99.2291 142.59 99.0331 142.51 98.807C141.41 96.587 140.32 94.3637 139.24 92.137C138.85 91.317 139.38 90.927 140.02 90.617C142.78 89.267 145.54 87.897 148.31 86.617C150.03 85.787 150.18 85.897 151.01 87.617C151.84 89.337 152.79 91.257 153.68 93.067C154.22 94.077 154.12 94.447 153.11 94.997Z" fill="black" stroke="black" stroke-miterlimit="10"/>
<path d="M57.52 53.4676C57.79 53.6576 58 53.4676 58.18 53.2576C58.36 53.0476 58.75 52.5476 59.06 52.2576C59.37 51.9676 59.38 51.5776 58.95 51.2576C58.0699 50.6194 57.033 50.2323 55.95 50.1376C54.4688 50.0977 52.9916 50.3073 51.58 50.7576C50.69 50.9876 50.27 51.3576 50.46 52.1476C50.46 53.7176 50.54 53.8076 51.9 53.4176C52.54 53.2376 52.9 53.2576 53.03 54.0076C53.1235 54.4021 53.3534 54.7509 53.6791 54.9925C54.0047 55.234 54.4053 55.3527 54.81 55.3276C55.2227 55.3395 55.628 55.216 55.9639 54.9758C56.2998 54.7356 56.5478 54.392 56.67 53.9976C56.81 53.4876 56.86 52.9976 57.52 53.4676Z" fill="black"/>
<path d="M67.4499 53.2743C67.4853 53.337 67.5343 53.3909 67.5934 53.4321C67.6525 53.4732 67.72 53.5006 67.7911 53.5121C67.8621 53.5236 67.9349 53.519 68.0039 53.4986C68.073 53.4782 68.1365 53.4426 68.1899 53.3943C68.7399 52.9843 68.8899 53.3043 69.0399 53.8043C69.1052 54.2172 69.3129 54.5943 69.627 54.8701C69.9412 55.1459 70.342 55.3031 70.7599 55.3143C71.2112 55.3575 71.6628 55.2352 72.0307 54.9704C72.3986 54.7055 72.6577 54.316 72.7599 53.8743C72.9299 53.3843 73.1499 53.2843 73.6399 53.3943C75.1499 53.7343 75.1599 53.7143 75.1499 52.1743C75.1499 52.0043 75.1499 51.8343 75.1499 51.6643C75.1706 51.4928 75.1253 51.3198 75.0232 51.1805C74.921 51.0413 74.7697 50.9461 74.5999 50.9143C73.254 50.4433 71.8449 50.177 70.4199 50.1243C69.533 50.0807 68.6476 50.238 67.8299 50.5843C66.0499 51.3443 65.9899 51.5843 67.2599 53.0143C67.2999 53.1043 67.3899 53.1843 67.4499 53.2743Z" fill="black"/>
<path d="M63.2901 64.6378C62.9801 64.8378 62.6401 65.1078 62.2901 64.8378C61.9006 64.5562 61.4477 64.3752 60.9715 64.3106C60.4952 64.2461 60.0104 64.3001 59.5601 64.4678C59.1691 64.5628 58.761 64.5628 58.3701 64.4678C57.6901 64.3378 57.4801 64.6678 57.3701 65.2478C56.9201 67.0878 56.9401 67.1178 58.8701 67.1278C59.0431 67.1429 59.2171 67.1429 59.3901 67.1278C59.8475 67.0272 60.3212 67.027 60.7787 67.1271C61.2362 67.2273 61.6665 67.4254 62.0401 67.7078C62.1985 67.8319 62.3939 67.8993 62.5951 67.8993C62.7963 67.8993 62.9917 67.8319 63.1501 67.7078C63.5239 67.4408 63.9476 67.2518 64.396 67.1522C64.8445 67.0525 65.3084 67.0442 65.7601 67.1278H66.3401C68.3401 67.1278 68.5101 66.9278 67.8301 65.0078C67.6701 64.5478 67.4501 64.3778 66.9601 64.4578C66.3699 64.587 65.7562 64.5594 65.1801 64.3778C64.8714 64.2443 64.532 64.1979 64.1987 64.2437C63.8655 64.2896 63.5513 64.4259 63.2901 64.6378Z" fill="black"/>
<path d="M60.5799 62.1192C60.6669 62.2308 60.7942 62.3038 60.9345 62.3225C61.0747 62.3412 61.2167 62.3041 61.3299 62.2192C61.7112 61.9625 62.1603 61.8254 62.6199 61.8254C63.0795 61.8254 63.5287 61.9625 63.9099 62.2192C64.2799 62.4492 64.5099 62.2692 64.7099 62.0192C65.1099 61.5292 65.8099 61.2692 65.8999 60.5492C65.8999 60.4292 65.6699 60.2492 65.5099 60.1292C64.667 59.4381 63.5989 59.0821 62.5099 59.1292C62.0495 59.1077 61.5889 59.1687 61.1499 59.3092C60.4099 59.5492 59.4899 59.8192 59.3399 60.5492C59.1899 61.2792 60.1199 61.6292 60.5799 62.1192Z" fill="black"/>
<path d="M64.4101 69.1809C64.2897 69.0408 64.1265 68.9443 63.9457 68.9064C63.7649 68.8684 63.5767 68.8911 63.4101 68.9709C62.8783 69.1713 62.2918 69.1713 61.7601 68.9709C61.6206 68.8914 61.4588 68.86 61.2997 68.8817C61.1406 68.9034 60.9932 68.9769 60.8801 69.0909C60.5701 69.3709 60.2301 69.6309 59.8801 69.8909C59.5301 70.1509 59.6301 70.3209 59.9901 70.5109C60.8059 70.9379 61.7202 71.1414 62.6401 71.1009C63.1486 71.1231 63.6575 71.0692 64.1501 70.9409C65.6801 70.5409 65.7501 70.3609 64.6901 69.4509C64.589 69.3694 64.4953 69.279 64.4101 69.1809Z" fill="black"/>
</g>
<path d="M81.43 160.36C125.022 160.36 160.36 125.022 160.36 81.43C160.36 37.8382 125.022 2.5 81.43 2.5C37.8382 2.5 2.5 37.8382 2.5 81.43C2.5 125.022 37.8382 160.36 81.43 160.36Z" stroke="black" stroke-width="5" stroke-linejoin="round"/>
</g>
<defs>
<clipPath id="clip0_157_49">
<rect width="162.86" height="163.18" fill="white"/>
</clipPath>
</defs>
</svg>
