<svg width="163" height="163" viewBox="0 0 163 163" fill="none" xmlns="http://www.w3.org/2000/svg">
<g clip-path="url(#clip0_157_108)">
<path d="M81.5001 160.301C125.02 160.301 160.299 125.022 160.299 81.5023C160.299 37.9827 125.02 2.70312 81.5001 2.70312C37.9805 2.70312 2.70093 37.9827 2.70093 81.5023C2.70093 125.022 37.9805 160.301 81.5001 160.301Z" fill="#F8D949"/>
<path d="M81.5001 160.301C125.02 160.301 160.299 125.022 160.299 81.5023C160.299 37.9827 125.02 2.70312 81.5001 2.70312C37.9805 2.70312 2.70093 37.9827 2.70093 81.5023C2.70093 125.022 37.9805 160.301 81.5001 160.301Z" stroke="black" stroke-width="5" stroke-miterlimit="10"/>
<path d="M136.478 78.1649C135.502 77.7982 134.433 77.7647 133.436 78.0696C132.439 78.3744 131.572 79.0005 130.968 79.8502C130.738 80.2077 130.416 80.4968 130.036 80.6869C129.656 80.877 129.231 80.9611 128.808 80.9305C127.392 80.9305 125.966 80.9305 124.54 80.9305H120.024C119.77 80.9594 119.513 80.9343 119.269 80.8568C119.026 80.7794 118.801 80.6513 118.61 80.4809C118.419 80.3106 118.267 80.1018 118.162 79.8684C118.058 79.635 118.004 79.3821 118.004 79.1264C117.305 71.9946 114.512 65.229 109.977 59.6804C109.797 59.5005 109.657 59.2848 109.565 59.0473C109.473 58.8098 109.432 58.5557 109.444 58.3013C109.456 58.047 109.522 57.798 109.636 57.5704C109.75 57.3427 109.91 57.1415 110.107 56.9796C112.268 54.819 114.428 52.7231 116.503 50.5733C116.745 50.3062 117.053 50.1069 117.396 49.9952C117.739 49.8834 118.105 49.8629 118.458 49.9359C119.474 50.1199 120.521 49.9698 121.445 49.5082C122.368 49.0466 123.117 48.2984 123.579 47.3755C124.058 46.4691 124.234 45.4331 124.081 44.4194C123.928 43.4057 123.454 42.4676 122.729 41.7427C122.005 41.0179 121.067 40.5443 120.053 40.3914C119.039 40.2386 118.003 40.4146 117.097 40.8935C116.176 41.3588 115.433 42.1115 114.978 43.0375C114.524 43.9635 114.384 45.0124 114.58 46.0251C114.668 46.4132 114.651 46.8178 114.531 47.1975C114.412 47.5771 114.194 47.9181 113.899 48.1857C111.825 50.2276 109.772 52.3018 107.709 54.3544C107.541 54.5804 107.325 54.7664 107.077 54.8988C106.828 55.0313 106.554 55.107 106.273 55.1204C105.992 55.1338 105.711 55.0847 105.451 54.9765C105.191 54.8683 104.959 54.7038 104.77 54.4949C99.2605 49.9612 92.5316 47.1607 85.4323 46.4464C85.1656 46.4533 84.9006 46.4024 84.6555 46.2971C84.4104 46.1919 84.191 46.0348 84.0124 45.8367C83.8338 45.6385 83.7002 45.4041 83.6208 45.1494C83.5414 44.8947 83.5181 44.6259 83.5525 44.3614C83.5525 41.4769 83.5525 38.5816 83.5525 35.7187C83.5175 35.2821 83.5991 34.844 83.7889 34.4492C83.9787 34.0544 84.27 33.717 84.6328 33.4717C85.469 32.8673 86.0836 32.0051 86.3822 31.0175C86.6809 30.0299 86.647 28.9716 86.2858 28.0052C85.9447 27.0592 85.3156 26.2439 84.4869 25.6741C83.6582 25.1044 82.6717 24.8088 81.6663 24.8291C80.6608 24.8494 79.687 25.1844 78.882 25.7871C78.077 26.3898 77.4812 27.2298 77.1786 28.1889C76.8608 29.1668 76.8679 30.2214 77.1989 31.195C77.5299 32.1686 78.1671 33.0089 79.0151 33.5905C79.3413 33.8074 79.6049 34.1062 79.7793 34.4569C79.9537 34.8077 80.0329 35.1981 80.009 35.5891C80.009 38.5384 80.009 41.4877 80.009 44.4478C80.0397 44.7065 80.015 44.9687 79.9365 45.2171C79.858 45.4655 79.7276 45.6944 79.5539 45.8885C79.3802 46.0827 79.1672 46.2376 78.929 46.3431C78.6909 46.4486 78.433 46.5022 78.1725 46.5004C71.0751 47.1939 64.3404 49.9674 58.813 54.4733C58.6237 54.6816 58.3905 54.8454 58.1302 54.9526C57.8699 55.0599 57.5891 55.1081 57.3079 55.0936C57.0268 55.0791 56.7524 55.0024 56.5045 54.869C56.2566 54.7355 56.0414 54.5487 55.8745 54.322C53.7138 52.2262 51.672 50.1087 49.5546 48.0237C49.2889 47.766 49.0856 47.451 48.9601 47.1027C48.8347 46.7545 48.7905 46.3822 48.8308 46.0143C48.882 45.287 48.8089 44.5563 48.6147 43.8536C48.232 42.6812 47.4077 41.704 46.3166 41.1292C45.2255 40.5544 43.9534 40.4273 42.7701 40.7747C41.5618 41.0987 40.5278 41.8819 39.8888 42.9574C39.2497 44.0328 39.0561 45.3154 39.3492 46.5316C39.6424 47.7478 40.399 48.8013 41.4579 49.4676C42.5167 50.1338 43.7939 50.36 45.0172 50.0979C45.4356 49.9877 45.8765 49.9961 46.2905 50.122C46.7045 50.2479 47.0753 50.4864 47.3615 50.8109C49.3493 52.8528 51.3803 54.8514 53.4005 56.8608C53.6192 57.0289 53.7986 57.2425 53.9264 57.4869C54.0542 57.7313 54.1273 58.0005 54.1406 58.2759C54.154 58.5514 54.1073 58.8264 54.0037 59.082C53.9002 59.3376 53.7423 59.5676 53.541 59.7561C49.0324 65.2828 46.2552 72.0173 45.5574 79.1155C45.5619 79.3758 45.511 79.6341 45.4082 79.8732C45.3053 80.1123 45.1528 80.3268 44.9608 80.5025C44.7687 80.6782 44.5415 80.8111 44.2942 80.8923C44.0469 80.9736 43.7852 81.0013 43.5263 80.9737C40.6095 80.9737 37.7034 80.9737 34.7865 80.9737C34.3283 81.0079 33.8689 80.927 33.4501 80.7383C33.0312 80.5496 32.6661 80.2592 32.3882 79.8934C31.7747 79.1295 30.9373 78.577 29.9936 78.3135C29.05 78.0499 28.0475 78.0886 27.127 78.4241C26.1785 78.7576 25.3585 79.38 24.7823 80.2038C24.206 81.0275 23.9025 82.0112 23.9144 83.0165C23.9263 84.0217 24.2531 84.998 24.8487 85.8078C25.4444 86.6177 26.2789 87.2204 27.235 87.5313C28.2349 87.8606 29.3157 87.8494 30.3085 87.4996C31.3014 87.1497 32.1505 86.4809 32.7231 85.5975C32.9486 85.2357 33.2698 84.9434 33.6511 84.7527C34.0324 84.5621 34.459 84.4805 34.8837 84.5172C37.7682 84.5172 40.6635 84.5172 43.5263 84.5172C43.7854 84.4847 44.0483 84.5082 44.2975 84.586C44.5467 84.6638 44.7763 84.7941 44.9708 84.9682C45.1653 85.1422 45.3203 85.3559 45.4252 85.595C45.5301 85.834 45.5825 86.0927 45.579 86.3538C46.2676 93.4862 49.0574 100.254 53.595 105.8C53.8016 105.991 53.9631 106.226 54.0677 106.488C54.1723 106.75 54.2174 107.031 54.1998 107.312C54.1822 107.594 54.1024 107.867 53.966 108.114C53.8297 108.361 53.6402 108.574 53.4114 108.738C51.51 110.65 49.5762 112.541 47.6856 114.486C47.3785 114.849 46.9641 115.105 46.502 115.217C46.04 115.33 45.5542 115.293 45.1144 115.112C44.1577 114.79 43.1226 114.785 42.163 115.099C41.2035 115.412 40.3706 116.027 39.7884 116.851C39.3356 117.459 39.0332 118.165 38.906 118.912C38.7788 119.659 38.8303 120.426 39.0564 121.149C39.2825 121.872 39.6767 122.531 40.2067 123.073C40.7368 123.614 41.3876 124.023 42.1058 124.264C42.824 124.506 43.5892 124.574 44.3387 124.462C45.0883 124.351 45.8008 124.064 46.4179 123.624C47.035 123.184 47.5392 122.605 47.8891 121.933C48.239 121.261 48.4247 120.515 48.431 119.758C48.4257 119.407 48.4941 119.06 48.6318 118.738C48.7696 118.416 48.9735 118.127 49.2305 117.889C51.4776 115.663 53.703 113.427 55.9393 111.191C56.1055 110.971 56.3176 110.791 56.5606 110.663C56.8036 110.534 57.0718 110.46 57.3465 110.445C57.6211 110.431 57.8955 110.477 58.1507 110.579C58.4059 110.682 58.6356 110.839 58.8238 111.039C64.3421 115.529 71.0602 118.294 78.1401 118.99C78.3996 118.984 78.6576 119.031 78.8973 119.131C79.1371 119.23 79.3532 119.379 79.5316 119.568C79.71 119.756 79.8466 119.98 79.9326 120.225C80.0186 120.47 80.052 120.73 80.0307 120.989C80.0307 123.906 80.0307 126.812 80.0307 129.729C80.0556 130.152 79.969 130.575 79.7794 130.954C79.5898 131.333 79.3039 131.656 78.9503 131.89C78.1681 132.442 77.5724 133.22 77.2425 134.119C76.9125 135.018 76.8639 135.996 77.103 136.924C77.3566 137.921 77.9236 138.811 78.7206 139.462C79.5176 140.113 80.5026 140.492 81.5306 140.541C82.5586 140.591 83.5753 140.309 84.4313 139.738C85.2873 139.166 85.9373 138.335 86.2858 137.367C86.6655 136.382 86.7049 135.298 86.3975 134.288C86.0902 133.277 85.4538 132.399 84.5896 131.792C84.2405 131.57 83.9566 131.258 83.7668 130.89C83.577 130.522 83.4882 130.11 83.5093 129.697C83.5093 126.758 83.5093 123.83 83.5093 120.892C83.4787 120.633 83.5034 120.371 83.5819 120.123C83.6603 119.874 83.7907 119.645 83.9644 119.451C84.1381 119.257 84.3511 119.102 84.5893 118.997C84.8275 118.891 85.0854 118.837 85.3459 118.839C92.4756 118.147 99.2414 115.362 104.792 110.834C104.979 110.639 105.206 110.487 105.457 110.388C105.708 110.289 105.977 110.245 106.247 110.259C106.517 110.274 106.78 110.346 107.019 110.471C107.258 110.597 107.468 110.772 107.633 110.985C109.729 113.07 111.803 115.166 113.91 117.24C114.188 117.501 114.395 117.828 114.51 118.191C114.626 118.555 114.646 118.941 114.569 119.315C114.382 120.329 114.531 121.376 114.993 122.299C115.455 123.221 116.205 123.967 117.129 124.425C117.807 124.766 118.556 124.942 119.315 124.937C120.074 124.933 120.821 124.749 121.495 124.399C122.169 124.05 122.75 123.546 123.191 122.928C123.632 122.311 123.92 121.597 124.032 120.846C124.144 120.096 124.075 119.329 123.833 118.61C123.591 117.891 123.181 117.239 122.638 116.709C122.095 116.179 121.434 115.785 120.709 115.56C119.984 115.335 119.217 115.285 118.469 115.415C118.08 115.503 117.674 115.485 117.294 115.363C116.914 115.242 116.574 115.021 116.308 114.723C114.266 112.649 112.192 110.596 110.139 108.533C109.913 108.366 109.726 108.152 109.592 107.905C109.457 107.658 109.379 107.385 109.363 107.104C109.346 106.824 109.392 106.543 109.496 106.282C109.601 106.021 109.761 105.786 109.967 105.594C114.475 100.068 117.252 93.3332 117.95 86.2349C117.947 85.9749 117.999 85.7172 118.103 85.4791C118.208 85.2409 118.362 85.0277 118.555 84.8538C118.748 84.68 118.976 84.5494 119.224 84.4708C119.472 84.3923 119.734 84.3676 119.992 84.3984C122.909 84.3984 125.815 84.3984 128.732 84.3984C129.154 84.3787 129.575 84.4677 129.953 84.6569C130.331 84.846 130.655 85.1289 130.893 85.4787C131.448 86.2595 132.229 86.8519 133.131 87.1763C134.033 87.5007 135.012 87.5416 135.938 87.2936C136.933 87.0405 137.82 86.4747 138.469 85.6797C139.119 84.8846 139.496 83.9022 139.546 82.8768C139.595 81.8514 139.315 80.8371 138.745 79.9831C138.175 79.1291 137.346 78.4804 136.381 78.1325L136.478 78.1649Z" fill="#5DC945"/>
<path d="M113.564 106.947C115.163 108.546 116.719 110.112 118.307 111.646C118.52 111.79 118.774 111.858 119.031 111.841C120.695 111.785 122.339 112.227 123.75 113.112C125.162 113.996 126.277 115.281 126.953 116.803C127.629 118.326 127.835 120.015 127.545 121.655C127.255 123.295 126.482 124.811 125.324 126.009C124.167 127.206 122.678 128.031 121.049 128.377C119.42 128.723 117.724 128.575 116.18 127.951C114.635 127.327 113.313 126.257 112.381 124.876C111.449 123.496 110.951 121.868 110.95 120.203C110.965 119.941 110.921 119.68 110.819 119.438C110.718 119.197 110.563 118.982 110.366 118.809C108.929 117.394 107.514 115.946 106.045 114.488L105.472 114.898C100.254 118.763 94.1595 121.276 87.7334 122.212C87.2365 122.288 87.096 122.45 87.1068 122.947C87.1068 124.87 87.1068 126.782 87.1068 128.705C87.1032 128.879 87.137 129.053 87.2059 129.213C87.2749 129.373 87.3774 129.517 87.5065 129.634C88.7116 130.789 89.5435 132.278 89.8953 133.909C90.2471 135.541 90.1025 137.24 89.4803 138.789C88.8581 140.337 87.7867 141.664 86.4039 142.599C85.0212 143.534 83.3904 144.033 81.7214 144.033C80.0524 144.033 78.4216 143.534 77.0388 142.599C75.6561 141.664 74.5846 140.337 73.9624 138.789C73.3402 137.24 73.1957 135.541 73.5475 133.909C73.8992 132.278 74.7311 130.789 75.9362 129.634C76.1056 129.49 76.2389 129.309 76.3252 129.104C76.4115 128.9 76.4485 128.678 76.4332 128.456C76.4332 126.533 76.4332 124.61 76.4332 122.698C76.4332 122.32 76.3359 122.147 75.9362 122.093C69.4017 121.158 63.2061 118.599 57.9163 114.65L57.5706 114.423C57.4194 114.553 57.2681 114.671 57.1277 114.812C55.5396 116.4 53.8867 117.988 52.3634 119.598C52.1293 119.848 51.9783 120.165 51.9313 120.505C51.7457 122.031 51.143 123.477 50.1894 124.683C49.2357 125.888 47.9681 126.808 46.5258 127.34C45.0835 127.873 43.5224 127.997 42.0141 127.7C40.5057 127.403 39.1085 126.695 37.976 125.656C36.8435 124.616 36.0195 123.284 35.5946 121.807C35.1698 120.329 35.1605 118.763 35.5677 117.281C35.975 115.798 36.7831 114.457 37.9032 113.404C39.0232 112.351 40.4119 111.627 41.9167 111.312C42.9752 111.201 44.0407 111.173 45.1036 111.225C45.3704 111.235 45.6328 111.155 45.8491 110.998C47.113 109.778 48.3338 108.514 49.5978 107.293C49.6722 107.244 49.7346 107.179 49.7801 107.103C49.8256 107.026 49.853 106.941 49.8603 106.852C49.8676 106.764 49.8546 106.674 49.8222 106.592C49.7898 106.509 49.7389 106.435 49.6734 106.374C46.2385 101.799 43.8489 96.5252 42.6729 90.9258C42.5 90.1047 42.3596 89.2621 42.2408 88.4302C42.2408 88.0629 42.0895 87.8901 41.6682 87.8901C39.6912 87.8901 37.7034 87.8901 35.7264 87.8901C35.4335 87.931 35.1671 88.0816 34.981 88.3114C33.8829 89.5876 32.4256 90.5032 30.7992 90.9385C29.1729 91.3738 27.4531 91.3088 25.8643 90.7518C24.2755 90.1947 22.8915 89.1717 21.893 87.8161C20.8946 86.4605 20.328 84.8354 20.2672 83.1529C20.2064 81.4704 20.6543 79.8087 21.5524 78.3846C22.4504 76.9605 23.757 75.8403 25.3014 75.1701C26.8459 74.4999 28.5565 74.3109 30.21 74.6278C31.8636 74.9446 33.3831 75.7527 34.5704 76.9463C34.8361 77.1837 35.176 77.3212 35.5319 77.3353C37.5521 77.3353 39.5723 77.3353 41.5926 77.3353C41.9923 77.3353 42.1759 77.2488 42.2408 76.8167C43.1862 70.3094 45.7492 64.1434 49.695 58.8832C49.7923 58.7536 49.8787 58.6132 50.0083 58.4187L47.3723 55.7935C47.1887 55.6279 47.0155 55.4511 46.8538 55.2641C46.4479 54.7249 45.9176 54.2919 45.308 54.0022C44.6985 53.7125 44.0279 53.5746 43.3535 53.6004C41.3171 53.4519 39.4104 52.5449 38.0102 51.0587C36.6101 49.5726 35.8182 47.6153 35.7912 45.5736C35.6959 44.4296 35.8371 43.2783 36.2061 42.1912C36.5751 41.1042 37.164 40.1048 37.9361 39.2553C38.7081 38.4058 39.6468 37.7243 40.6937 37.2534C41.7407 36.7825 42.8733 36.5321 44.0212 36.518C45.169 36.5039 46.3075 36.7263 47.3657 37.1713C48.4238 37.6163 49.3791 38.2745 50.1718 39.1047C50.9645 39.935 51.5778 40.9196 51.9735 41.9972C52.3691 43.0748 52.5386 44.2224 52.4715 45.3683C52.458 45.6106 52.5265 45.8503 52.6659 46.0489C54.2648 47.6802 55.9069 49.2899 57.5274 50.9536L58.0676 50.5755C63.3159 46.6817 69.4479 44.1502 75.9146 43.2077C76.3143 43.1537 76.4764 43.0348 76.4764 42.6027C76.4764 40.5933 76.4764 38.5947 76.4764 36.5961C76.4497 36.2814 76.3118 35.9865 76.0875 35.7642C74.9386 34.7198 74.114 33.3673 73.7118 31.8677C73.3096 30.368 73.3467 28.7844 73.8188 27.3052C74.2138 25.8242 75.0253 24.4874 76.1569 23.4534C77.2885 22.4195 78.6929 21.7316 80.2035 21.4715C81.9512 21.1432 83.758 21.3821 85.3603 22.1534C86.9625 22.9246 88.2764 24.1878 89.11 25.7585C89.9436 27.3292 90.2533 29.1252 89.994 30.8845C89.7347 32.6437 88.9199 34.2739 87.6686 35.5373C87.474 35.713 87.3222 35.931 87.2248 36.1744C87.1274 36.4178 87.0871 36.6803 87.1068 36.9418C87.1068 38.8215 87.1068 40.7013 87.1068 42.5811C87.1068 42.97 87.2365 43.1104 87.6146 43.1645C94.1694 44.1012 100.382 46.6762 105.678 50.6511C105.786 50.7376 105.915 50.8024 106.056 50.8996C106.207 50.77 106.347 50.6619 106.477 50.5323C107.849 49.1603 109.232 47.7991 110.582 46.4054C110.803 46.1542 110.925 45.8321 110.928 45.498C110.857 43.831 111.286 42.1808 112.159 40.7592C113.032 39.3375 114.311 38.2092 115.83 37.519C117.349 36.8289 119.039 36.6083 120.685 36.8856C122.33 37.1629 123.855 37.9255 125.064 39.0755C126.273 40.2255 127.11 41.7104 127.469 43.3398C127.828 44.9692 127.693 46.6687 127.079 48.2203C126.465 49.7719 125.402 51.1048 124.026 52.048C122.65 52.9912 121.023 53.5017 119.355 53.514C119.094 53.5018 118.833 53.5477 118.592 53.6486C118.351 53.7495 118.135 53.9028 117.961 54.0974C116.535 55.5666 115.066 56.9819 113.64 58.4187C114.32 59.4342 114.99 60.3741 115.606 61.3464C118.587 66.0273 120.536 71.2904 121.321 76.7843C121.386 77.238 121.558 77.3569 121.991 77.3569C123.935 77.3569 125.88 77.3569 127.814 77.3569C128.006 77.3637 128.198 77.3263 128.374 77.2477C128.55 77.1691 128.706 77.0512 128.829 76.9031C129.984 75.6981 131.473 74.8661 133.104 74.5144C134.736 74.1626 136.435 74.3071 137.984 74.9293C139.533 75.5516 140.86 76.623 141.794 78.0057C142.729 79.3885 143.228 81.0193 143.228 82.6883C143.228 84.3573 142.729 85.9881 141.794 87.3708C140.86 88.7536 139.533 89.825 137.984 90.4472C136.435 91.0694 134.736 91.214 133.104 90.8622C131.473 90.5105 129.984 89.6785 128.829 88.4734C128.685 88.3047 128.504 88.1719 128.299 88.0857C128.095 87.9994 127.873 87.962 127.652 87.9765C125.729 87.9765 123.806 87.9765 121.893 87.9765C121.504 87.9765 121.353 88.0845 121.288 88.4843C120.353 95.0343 117.782 101.243 113.813 106.537L113.564 106.947ZM124.551 80.9111H120.024C119.77 80.9401 119.513 80.915 119.269 80.8375C119.026 80.76 118.801 80.6319 118.61 80.4615C118.419 80.2912 118.267 80.0825 118.162 79.849C118.058 79.6156 118.004 79.3627 118.004 79.107C117.305 71.9753 114.512 65.2096 109.977 59.6611C109.797 59.4811 109.657 59.2654 109.565 59.0279C109.473 58.7904 109.432 58.5363 109.444 58.282C109.456 58.0276 109.522 57.7786 109.636 57.551C109.75 57.3234 109.91 57.1222 110.107 56.9603C112.268 54.7996 114.428 52.7038 116.503 50.5539C116.745 50.2868 117.053 50.0876 117.396 49.9758C117.739 49.864 118.105 49.8436 118.458 49.9165C119.474 50.1005 120.521 49.9505 121.445 49.4889C122.368 49.0273 123.117 48.279 123.579 47.3561C124.058 46.4497 124.234 45.4137 124.081 44.4C123.928 43.3864 123.454 42.4483 122.729 41.7234C122.005 40.9985 121.067 40.5249 120.053 40.3721C119.039 40.2193 118.003 40.3952 117.097 40.8742C116.176 41.3395 115.433 42.0921 114.978 43.0182C114.524 43.9442 114.384 44.993 114.58 46.0057C114.668 46.3939 114.651 46.7985 114.531 47.1781C114.412 47.5577 114.194 47.8988 113.899 48.1664C111.825 50.2082 109.772 52.2824 107.709 54.3351C107.541 54.5611 107.325 54.747 107.077 54.8795C106.828 55.0119 106.554 55.0876 106.273 55.101C105.992 55.1145 105.711 55.0653 105.451 54.9572C105.191 54.849 104.959 54.6845 104.77 54.4755C99.2579 49.9497 92.5293 47.1567 85.4323 46.4487C85.1656 46.4556 84.9006 46.4046 84.6555 46.2994C84.4104 46.1941 84.191 46.037 84.0124 45.8389C83.8338 45.6408 83.7002 45.4063 83.6208 45.1517C83.5414 44.897 83.5181 44.6282 83.5525 44.3636C83.5525 41.4791 83.5525 38.5839 83.5525 35.721C83.5175 35.2843 83.5991 34.8462 83.7889 34.4514C83.9787 34.0566 84.27 33.7193 84.6329 33.4739C85.469 32.8695 86.0836 32.0073 86.3822 31.0197C86.6809 30.0322 86.647 28.9739 86.2858 28.0074C85.9447 27.0614 85.3156 26.2461 84.4869 25.6764C83.6582 25.1066 82.6717 24.8111 81.6663 24.8313C80.6608 24.8516 79.6871 25.1867 78.882 25.7894C78.077 26.3921 77.4812 27.2321 77.1786 28.1911C76.8608 29.1691 76.8679 30.2236 77.1989 31.1972C77.5299 32.1708 78.1671 33.0112 79.0152 33.5927C79.3414 33.8096 79.6049 34.1084 79.7793 34.4592C79.9537 34.8099 80.0329 35.2004 80.0091 35.5914C80.0091 38.5407 80.0091 41.49 80.0091 44.4501C80.0397 44.7087 80.015 44.971 79.9365 45.2194C79.858 45.4678 79.7276 45.6966 79.5539 45.8908C79.3802 46.0849 79.1672 46.2399 78.9291 46.3454C78.6909 46.4509 78.433 46.5045 78.1725 46.5027C71.0751 47.1961 64.3404 49.9697 58.813 54.4755C58.6237 54.6839 58.3905 54.8476 58.1302 54.9549C57.8699 55.0622 57.5891 55.1103 57.3079 55.0958C57.0268 55.0814 56.7524 55.0046 56.5045 54.8712C56.2566 54.7378 56.0414 54.551 55.8745 54.3243C53.7139 52.2284 51.672 50.111 49.5546 48.0259C49.2889 47.7682 49.0856 47.4532 48.9602 47.105C48.8347 46.7568 48.7905 46.3845 48.8308 46.0165C48.882 45.2893 48.8089 44.5586 48.6147 43.8559C48.232 42.6835 47.4077 41.7063 46.3166 41.1315C45.2255 40.5567 43.9534 40.4295 42.7701 40.7769C41.5618 41.1009 40.5279 41.8842 39.8888 42.9596C39.2497 44.0351 39.0561 45.3177 39.3492 46.5338C39.6424 47.75 40.399 48.8036 41.4579 49.4698C42.5167 50.136 43.794 50.3622 45.0172 50.1002C45.4356 49.99 45.8765 49.9983 46.2905 50.1242C46.7045 50.2501 47.0753 50.4887 47.3615 50.8132C49.3493 52.855 51.3803 54.8536 53.4006 56.863C53.6192 57.0311 53.7986 57.2448 53.9264 57.4891C54.0542 57.7335 54.1273 58.0027 54.1407 58.2782C54.154 58.5536 54.1073 58.8287 54.0038 59.0843C53.9002 59.3398 53.7423 59.5698 53.541 59.7583C49.0324 65.2851 46.2552 72.0195 45.5574 79.1178C45.5619 79.3781 45.5111 79.6363 45.4082 79.8754C45.3053 80.1146 45.1528 80.3291 44.9608 80.5048C44.7687 80.6805 44.5415 80.8134 44.2942 80.8946C44.0469 80.9758 43.7852 81.0036 43.5264 80.976C40.6095 80.976 37.7034 80.976 34.7865 80.976C34.3284 81.0102 33.8689 80.9292 33.4501 80.7405C33.0312 80.5519 32.6661 80.2614 32.3882 79.8956C31.7747 79.1317 30.9373 78.5792 29.9936 78.3157C29.05 78.0522 28.0475 78.0909 27.127 78.4264C26.1786 78.7598 25.3585 79.3822 24.7823 80.206C24.206 81.0298 23.9025 82.0135 23.9144 83.0187C23.9263 84.024 24.2531 85.0002 24.8487 85.8101C25.4444 86.6199 26.2789 87.2227 27.235 87.5336C28.2349 87.8628 29.3157 87.8517 30.3085 87.5018C31.3014 87.152 32.1505 86.4831 32.7231 85.5998C32.9486 85.238 33.2698 84.9456 33.6511 84.755C34.0324 84.5643 34.459 84.4828 34.8837 84.5194C37.7682 84.5194 40.6635 84.5194 43.5264 84.5194C43.7854 84.487 44.0483 84.5104 44.2975 84.5882C44.5467 84.666 44.7763 84.7963 44.9708 84.9704C45.1653 85.1445 45.3203 85.3582 45.4252 85.5972C45.5301 85.8363 45.5825 86.095 45.579 86.356C46.2676 93.4885 49.0574 100.256 53.595 105.802C53.8016 105.994 53.9631 106.229 54.0677 106.49C54.1723 106.752 54.2174 107.033 54.1998 107.315C54.1823 107.596 54.1024 107.87 53.966 108.116C53.8297 108.363 53.6402 108.576 53.4114 108.74C51.51 110.653 49.5762 112.543 47.6856 114.488C47.3785 114.851 46.9641 115.107 46.5021 115.22C46.04 115.332 45.5542 115.295 45.1144 115.114C44.1577 114.792 43.1226 114.788 42.163 115.101C41.2035 115.414 40.3706 116.029 39.7884 116.854C39.3356 117.461 39.0332 118.167 38.906 118.914C38.7788 119.661 38.8303 120.428 39.0564 121.151C39.2825 121.874 39.6767 122.534 40.2067 123.075C40.7368 123.617 41.3876 124.025 42.1058 124.266C42.824 124.508 43.5892 124.576 44.3387 124.465C45.0883 124.353 45.8008 124.066 46.4179 123.626C47.035 123.187 47.5392 122.607 47.8891 121.935C48.239 121.263 48.4247 120.517 48.431 119.76C48.4257 119.41 48.4941 119.062 48.6318 118.74C48.7696 118.418 48.9736 118.129 49.2305 117.891C51.4776 115.665 53.703 113.429 55.9393 111.193C56.1066 110.973 56.3196 110.793 56.5635 110.664C56.8075 110.536 57.0765 110.461 57.352 110.447C57.6274 110.433 57.9027 110.478 58.1587 110.581C58.4148 110.684 58.6454 110.841 58.8346 111.042C64.3476 115.533 71.0629 118.299 78.1401 118.993C78.3996 118.986 78.6576 119.034 78.8974 119.133C79.1371 119.232 79.3532 119.381 79.5316 119.57C79.71 119.758 79.8466 119.983 79.9326 120.227C80.0186 120.472 80.052 120.733 80.0307 120.991C80.0307 123.908 80.0307 126.814 80.0307 129.731C80.0556 130.154 79.969 130.577 79.7794 130.956C79.5898 131.335 79.3039 131.658 78.9503 131.892C78.1681 132.445 77.5724 133.222 77.2425 134.121C76.9125 135.02 76.8639 135.999 77.103 136.926C77.3566 137.924 77.9236 138.813 78.7206 139.465C79.5176 140.116 80.5026 140.494 81.5306 140.543C82.5586 140.593 83.5753 140.311 84.4313 139.74C85.2873 139.169 85.9373 138.338 86.2858 137.369C86.6655 136.384 86.7049 135.3 86.3975 134.29C86.0902 133.28 85.4538 132.401 84.5897 131.795C84.2405 131.572 83.9566 131.261 83.7668 130.892C83.577 130.524 83.4882 130.112 83.5093 129.699C83.5093 126.76 83.5093 123.833 83.5093 120.894C83.4787 120.635 83.5034 120.373 83.5819 120.125C83.6603 119.876 83.7907 119.648 83.9644 119.453C84.1381 119.259 84.3511 119.104 84.5893 118.999C84.8275 118.893 85.0854 118.84 85.3459 118.841C92.4756 118.15 99.2414 115.364 104.792 110.836C104.979 110.642 105.206 110.49 105.457 110.39C105.708 110.291 105.977 110.247 106.247 110.262C106.517 110.276 106.78 110.348 107.019 110.474C107.258 110.599 107.468 110.774 107.633 110.987C109.729 113.073 111.803 115.168 113.91 117.243C114.188 117.503 114.395 117.83 114.51 118.194C114.626 118.557 114.646 118.944 114.569 119.317C114.382 120.331 114.531 121.379 114.993 122.301C115.455 123.223 116.205 123.969 117.129 124.427C117.807 124.768 118.556 124.944 119.315 124.94C120.074 124.935 120.821 124.751 121.495 124.402C122.169 124.052 122.75 123.548 123.191 122.93C123.632 122.313 123.92 121.599 124.032 120.849C124.144 120.098 124.075 119.331 123.833 118.612C123.591 117.893 123.181 117.241 122.638 116.711C122.095 116.181 121.434 115.787 120.709 115.562C119.984 115.337 119.217 115.287 118.469 115.417C118.08 115.513 117.672 115.5 117.29 115.378C116.909 115.255 116.569 115.03 116.308 114.725C114.266 112.651 112.192 110.599 110.139 108.535C109.913 108.369 109.726 108.154 109.592 107.907C109.457 107.661 109.379 107.387 109.363 107.107C109.346 106.826 109.392 106.545 109.496 106.284C109.601 106.023 109.761 105.788 109.967 105.597C114.475 100.07 117.252 93.3354 117.95 86.2372C117.947 85.9772 117.999 85.7195 118.103 85.4813C118.208 85.2431 118.362 85.03 118.555 84.8561C118.748 84.6822 118.976 84.5516 119.224 84.4731C119.472 84.3945 119.734 84.3698 119.992 84.4006C122.909 84.4006 125.815 84.4006 128.732 84.4006C129.154 84.381 129.575 84.47 129.953 84.6591C130.331 84.8483 130.655 85.1312 130.893 85.4809C131.448 86.2618 132.229 86.8541 133.131 87.1785C134.033 87.5029 135.012 87.5439 135.938 87.2959C136.933 87.0427 137.82 86.477 138.469 85.6819C139.119 84.8869 139.496 83.9044 139.546 82.879C139.595 81.8536 139.315 80.8394 138.745 79.9854C138.175 79.1314 137.346 78.4827 136.381 78.1347C135.405 77.7681 134.336 77.7346 133.339 78.0394C132.342 78.3443 131.474 78.9703 130.871 79.82C130.641 80.1776 130.319 80.4666 129.939 80.6567C129.559 80.8468 129.134 80.931 128.71 80.9003C127.403 80.8895 125.977 80.9111 124.551 80.9111Z" fill="black" stroke="black" stroke-miterlimit="10"/>
<path d="M85.0543 97.7671C85.0543 99.7634 85.6471 101.715 86.7576 103.374C87.868 105.033 89.446 106.324 91.2916 107.085C93.1372 107.846 95.1671 108.042 97.1241 107.648C99.0811 107.254 100.877 106.287 102.284 104.871C103.691 103.455 104.646 101.653 105.027 99.6935C105.409 97.734 105.2 95.7053 104.427 93.8647C103.654 92.0241 102.352 90.4544 100.686 89.3547C99.0202 88.255 97.0651 87.6748 95.0689 87.6876C92.406 87.7019 89.8572 88.7705 87.9804 90.6595C86.1035 92.5486 85.0514 95.1042 85.0543 97.7671ZM103.614 70.9749C102.148 70.9647 100.711 71.388 99.4841 72.1916C98.2573 72.9951 97.2952 74.1432 96.7186 75.4916C96.142 76.84 95.9765 78.3288 96.243 79.7709C96.5095 81.213 97.1961 82.5443 98.2166 83.5976C99.2371 84.6509 100.546 85.3793 101.979 85.6913C103.412 86.0033 104.905 85.885 106.271 85.3514C107.637 84.8177 108.815 83.8924 109.657 82.6917C110.499 81.4909 110.968 80.0682 111.004 78.6021C111.025 77.6145 110.851 76.6325 110.49 75.713C110.129 74.7935 109.589 73.9547 108.902 73.2452C108.215 72.5358 107.393 71.9698 106.486 71.5801C105.578 71.1904 104.602 70.9847 103.614 70.9749ZM74.3698 99.4956C74.3719 98.1631 73.9785 96.8599 73.2393 95.7512C72.5 94.6425 71.4484 93.7782 70.2175 93.2678C68.9866 92.7573 67.6319 92.6238 66.325 92.884C65.0181 93.1442 63.8179 93.7865 62.8764 94.7295C61.9349 95.6725 61.2945 96.8738 61.0364 98.1811C60.7783 99.4884 60.914 100.843 61.4264 102.073C61.9388 103.303 62.8048 104.353 63.9147 105.091C65.0246 105.828 66.3284 106.22 67.661 106.215C69.4412 106.212 71.1476 105.503 72.4055 104.243C73.6633 102.983 74.3698 101.276 74.3698 99.4956ZM83.5202 70.9425C83.5266 69.7135 83.1683 68.5102 82.4906 67.4849C81.8128 66.4595 80.8462 65.6583 79.713 65.1826C78.5797 64.7068 77.3309 64.5779 76.1243 64.8122C74.9178 65.0464 73.8079 65.6333 72.9351 66.4986C72.0622 67.3639 71.4657 68.4687 71.2209 69.6731C70.9762 70.8775 71.0942 72.1275 71.5601 73.2648C72.0259 74.4022 72.8187 75.3757 73.8381 76.0623C74.8575 76.7489 76.0576 77.1177 77.2867 77.122C78.1027 77.1291 78.9121 76.9746 79.6681 76.6672C80.424 76.3599 81.1117 75.9058 81.6912 75.3313C82.2708 74.7568 82.7308 74.0731 83.0447 73.3199C83.3586 72.5666 83.5202 71.7586 83.5202 70.9425ZM81.8673 63.1858C82.9988 63.1794 84.103 62.8378 85.0406 62.2043C85.9781 61.5708 86.7069 60.6737 87.135 59.6263C87.5631 58.5789 87.6712 57.4281 87.4458 56.3193C87.2203 55.2104 86.6714 54.1933 85.8683 53.3962C85.0652 52.5991 84.0439 52.0578 82.9334 51.8407C81.8229 51.6237 80.673 51.7405 79.6288 52.1764C78.5847 52.6124 77.6931 53.3479 77.0666 54.2902C76.4402 55.2325 76.107 56.3393 76.1091 57.4708C76.1177 58.9914 76.7285 60.4466 77.8077 61.5177C78.887 62.5888 80.3467 63.1887 81.8673 63.1858ZM64.0419 73.8594C63.0077 73.8637 61.9981 74.1745 61.1406 74.7526C60.2831 75.3307 59.6163 76.1501 59.2245 77.1072C58.8327 78.0643 58.7335 79.116 58.9394 80.1294C59.1454 81.1429 59.6472 82.0725 60.3815 82.8007C61.1158 83.529 62.0495 84.0231 63.0646 84.2206C64.0797 84.4182 65.1306 84.3103 66.0844 83.9106C67.0382 83.5109 67.852 82.8374 68.423 81.9752C68.994 81.1129 69.2965 80.1007 69.2923 79.0666C69.2923 78.3791 69.1562 77.6985 68.8918 77.0639C68.6274 76.4293 68.24 75.8533 67.7519 75.3692C67.2637 74.8851 66.6846 74.5024 66.0478 74.2433C65.4111 73.9842 64.7293 73.8537 64.0419 73.8594ZM85.0002 89.3621C85.0131 88.4006 84.7398 87.4569 84.2152 86.6509C83.6905 85.845 82.9382 85.2132 82.0537 84.8358C81.1692 84.4584 80.1924 84.3524 79.2476 84.5313C78.3027 84.7102 77.4323 85.166 76.747 85.8406C76.0617 86.5152 75.5924 87.3784 75.3987 88.3203C75.205 89.2623 75.2957 90.2405 75.6592 91.1308C76.0227 92.0211 76.6426 92.7833 77.4402 93.3205C78.2378 93.8577 79.1771 94.1458 80.1388 94.148C81.4168 94.1538 82.6453 93.6538 83.556 92.7572C84.4668 91.8606 84.986 90.6401 85.0002 89.3621ZM66.9804 54.1974C65.9852 54.2116 65.0038 54.432 64.0982 54.8448C63.1926 55.2577 62.3825 55.8539 61.7192 56.5958C60.7123 57.7198 60.1153 59.1513 60.0251 60.6576C59.9349 62.164 60.3568 63.6565 61.2222 64.8927C61.3356 65.0759 61.4845 65.2347 61.66 65.3597C61.8355 65.4847 62.0343 65.5735 62.2445 65.6207C62.4548 65.668 62.6723 65.6729 62.8845 65.6351C63.0967 65.5972 63.2991 65.5175 63.4801 65.4004C63.8252 65.1741 64.0723 64.8261 64.1724 64.4257C64.2725 64.0253 64.2182 63.6019 64.0203 63.2398C63.9122 63.0237 63.7718 62.8077 63.6745 62.5808C63.3425 61.9629 63.2199 61.254 63.3251 60.5605C63.4303 59.8671 63.7576 59.2264 64.2579 58.7348C64.5991 58.3377 65.0272 58.0247 65.5091 57.82C65.991 57.6154 66.5136 57.5247 67.0363 57.5551C67.5589 57.5854 68.0675 57.7359 68.5225 57.9948C68.9775 58.2538 69.3666 58.6142 69.6596 59.0481L69.7568 59.1886C70.0225 59.5184 70.4041 59.7344 70.8237 59.7927C71.2432 59.8509 71.6692 59.7469 72.0147 59.5019C72.1864 59.3785 72.3321 59.2224 72.4435 59.0427C72.5549 58.863 72.6297 58.6631 72.6639 58.4544C72.698 58.2457 72.6906 58.0324 72.6423 57.8265C72.5939 57.6207 72.5055 57.4264 72.382 57.2548C71.8191 56.325 71.0267 55.5555 70.0808 55.0201C69.1349 54.4847 68.0673 54.2014 66.9804 54.1974Z" fill="black" stroke="white" stroke-miterlimit="10"/>
<path d="M85.0543 97.768C85.0479 95.7754 85.6322 93.8256 86.7335 92.165C87.8348 90.5044 89.4035 89.2074 91.2416 88.438C93.0797 87.6686 95.1045 87.4612 97.0604 87.8421C99.0162 88.223 100.815 89.1751 102.23 90.578C103.645 91.9809 104.613 93.7718 105.01 95.7243C105.408 97.6769 105.218 99.7034 104.464 101.548C103.711 103.393 102.427 104.972 100.776 106.088C99.125 107.203 97.1803 107.804 95.1877 107.815C93.8615 107.825 92.5463 107.573 91.318 107.072C90.0897 106.572 88.9725 105.834 88.0306 104.9C87.0888 103.966 86.3409 102.855 85.8301 101.631C85.3193 100.407 85.0556 99.0943 85.0543 97.768ZM95.0689 104.531C96.4103 104.533 97.7222 104.137 98.8388 103.394C99.9555 102.651 100.827 101.593 101.343 100.355C101.858 99.1169 101.995 97.7535 101.737 96.4374C101.478 95.1212 100.835 93.9113 99.8884 92.9605C98.9422 92.0097 97.7354 91.3608 96.4205 91.0957C95.1055 90.8306 93.7415 90.9613 92.5008 91.4711C91.2601 91.981 90.1984 92.8472 89.4499 93.9603C88.7013 95.0734 88.2995 96.3834 88.2952 97.7248C88.2924 98.6166 88.4654 99.5003 88.8044 100.325C89.1434 101.15 89.6418 101.9 90.2709 102.532C90.9 103.164 91.6476 103.666 92.4709 104.009C93.2942 104.352 94.177 104.529 95.0689 104.531Z" fill="black" stroke="black" stroke-miterlimit="10"/>
<path d="M103.614 70.9688C105.09 70.9732 106.53 71.4159 107.754 72.2408C108.977 73.0657 109.927 74.2355 110.484 75.6016C111.041 76.9678 111.18 78.4686 110.882 79.9137C110.585 81.3587 109.864 82.6827 108.813 83.7176C107.761 84.7524 106.426 85.4514 104.976 85.7258C103.527 86.0002 102.028 85.8376 100.671 85.2587C99.314 84.6797 98.1597 83.7106 97.3545 82.4742C96.5494 81.2379 96.1298 79.7902 96.1491 78.315C96.1775 76.3549 96.9768 74.4849 98.3741 73.1099C99.7713 71.735 101.654 70.9657 103.614 70.9688ZM103.549 82.5715C104.374 82.5736 105.18 82.3314 105.867 81.8754C106.553 81.4195 107.09 80.7702 107.408 80.0097C107.725 79.2492 107.811 78.4115 107.653 77.6024C107.495 76.7934 107.101 76.0493 106.52 75.4642C105.94 74.8791 105.199 74.4792 104.391 74.315C103.583 74.1507 102.745 74.2296 101.982 74.5416C101.219 74.8536 100.565 75.3847 100.104 76.0679C99.6428 76.751 99.3943 77.5555 99.3901 78.3798C99.3872 79.4868 99.8234 80.5497 100.603 81.3355C101.383 82.1213 102.442 82.5658 103.549 82.5715Z" fill="black" stroke="black" stroke-miterlimit="10"/>
<path d="M74.3698 99.4913C74.3677 100.823 73.9706 102.124 73.2288 103.23C72.487 104.336 71.4338 105.197 70.2025 105.704C68.9712 106.211 67.6172 106.341 66.3118 106.079C65.0063 105.816 63.8081 105.172 62.8688 104.228C61.9295 103.284 61.2912 102.083 61.0349 100.776C60.7785 99.4696 60.9155 98.1162 61.4285 96.8874C61.9416 95.6585 62.8076 94.6095 63.917 93.8731C65.0264 93.1366 66.3294 92.7458 67.661 92.75C68.5447 92.75 69.4198 92.9246 70.2359 93.2638C71.0519 93.603 71.7929 94.1 72.4163 94.7265C73.0397 95.3529 73.5332 96.0963 73.8685 96.914C74.2037 97.7317 74.3741 98.6075 74.3698 99.4913ZM71.1288 99.4913C71.1331 98.8071 70.9343 98.137 70.5575 97.5659C70.1807 96.9948 69.6429 96.5484 69.0123 96.2831C68.3816 96.0178 67.6864 95.9456 67.0147 96.0757C66.3429 96.2058 65.7249 96.5322 65.2389 97.0137C64.7528 97.4953 64.4205 98.1102 64.2842 98.7807C64.1478 99.4511 64.2134 100.147 64.4728 100.78C64.7321 101.413 65.1735 101.955 65.7411 102.337C66.3086 102.719 66.9768 102.925 67.661 102.927C68.5694 102.924 69.4399 102.563 70.0833 101.921C70.7266 101.28 71.0907 100.41 71.0964 99.5021L71.1288 99.4913Z" fill="black" stroke="black" stroke-miterlimit="10"/>
<path d="M83.5201 70.9398C83.5137 72.1688 83.1428 73.3683 82.4544 74.3865C81.766 75.4046 80.7911 76.1957 79.653 76.6596C78.5148 77.1235 77.2647 77.2394 76.0607 76.9925C74.8567 76.7456 73.7529 76.1472 72.8892 75.2728C72.0254 74.3985 71.4405 73.2876 71.2083 72.0806C70.9761 70.8737 71.1072 69.6251 71.5849 68.4927C72.0626 67.3603 72.8655 66.395 73.892 65.7191C74.9185 65.0432 76.1224 64.6869 77.3515 64.6955C78.1671 64.6983 78.9742 64.8623 79.7263 65.178C80.4784 65.4937 81.1606 65.955 81.7339 66.5353C82.3071 67.1155 82.76 67.8034 83.0666 68.5592C83.3731 69.3151 83.5273 70.1241 83.5201 70.9398ZM80.2791 70.9398C80.2749 70.3586 80.0983 69.7918 79.7719 69.3109C79.4455 68.8301 78.9838 68.4569 78.4452 68.2384C77.9067 68.02 77.3154 67.9661 76.7463 68.0837C76.1771 68.2013 75.6556 68.485 75.2477 68.899C74.8398 69.3129 74.5638 69.8385 74.4546 70.4094C74.3454 70.9802 74.4079 71.5706 74.6342 72.1059C74.8606 72.6411 75.2406 73.0973 75.7262 73.4166C76.2117 73.736 76.7811 73.9041 77.3623 73.8999C78.1436 73.88 78.8854 73.552 79.4257 72.9873C79.9661 72.4227 80.2612 71.6672 80.2467 70.8857L80.2791 70.9398Z" fill="black" stroke="black" stroke-miterlimit="10"/>
<path d="M81.8673 63.1858C80.7358 63.1901 79.6284 62.8589 78.6849 62.2343C77.7415 61.6096 77.0042 60.7194 76.5663 59.6761C76.1284 58.6328 76.0094 57.4831 76.2244 56.3721C76.4394 55.2612 76.9788 54.239 77.7743 53.4343C78.5699 52.6297 79.586 52.0789 80.6944 51.8513C81.8028 51.6238 82.9538 51.7298 84.002 52.1559C85.0503 52.582 85.9487 53.3091 86.584 54.2455C87.2193 55.1818 87.5629 56.2854 87.5714 57.4169C87.5757 58.1702 87.4316 58.917 87.1472 59.6146C86.8629 60.3123 86.4439 60.947 85.9142 61.4827C85.3845 62.0184 84.7545 62.4446 84.0601 62.7368C83.3658 63.029 82.6206 63.1816 81.8673 63.1858ZM79.3934 57.3953C79.3784 57.8814 79.5084 58.3609 79.7667 58.773C80.025 59.1851 80.4 59.511 80.8441 59.7095C81.2881 59.9079 81.7811 59.9698 82.2604 59.8873C82.7397 59.8048 83.1836 59.5817 83.5358 59.2463C83.888 58.9109 84.1325 58.4784 84.2382 58.0037C84.344 57.5289 84.3062 57.0335 84.1296 56.5803C83.9531 56.1272 83.6458 55.7367 83.2468 55.4586C82.8478 55.1805 82.3752 55.0273 81.8889 55.0185C81.2448 55.0097 80.6228 55.2535 80.1563 55.6978C79.6898 56.1421 79.4159 56.7514 79.3934 57.3953Z" fill="black" stroke="black" stroke-miterlimit="10"/>
<path d="M64.0417 73.8594C65.0759 73.8573 66.0874 74.1618 66.9485 74.7346C67.8096 75.3074 68.4814 76.1226 68.8792 77.0772C69.2769 78.0318 69.3826 79.083 69.1829 80.0977C68.9833 81.1124 68.4872 82.0451 67.7575 82.7778C67.0277 83.5106 66.0971 84.0105 65.0832 84.2144C64.0693 84.4182 63.0178 84.3168 62.0615 83.9231C61.1053 83.5293 60.2873 82.8608 59.711 82.0021C59.1346 81.1434 58.8259 80.1331 58.8237 79.099C58.8223 78.4123 58.9562 77.7321 59.2176 77.0972C59.4791 76.4623 59.863 75.885 60.3476 75.3985C60.8321 74.912 61.4077 74.5256 62.0416 74.2615C62.6754 73.9975 63.3551 73.8608 64.0417 73.8594ZM62.1079 79.0774C62.1079 79.3336 62.1586 79.5874 62.257 79.824C62.3554 80.0607 62.4996 80.2755 62.6813 80.4562C62.863 80.637 63.0787 80.78 63.3159 80.8771C63.553 80.9741 63.8071 81.0234 64.0633 81.022C64.5554 80.9853 65.0155 80.764 65.3512 80.4023C65.6869 80.0406 65.8735 79.5654 65.8735 79.072C65.8735 78.5785 65.6869 78.1033 65.3512 77.7416C65.0155 77.38 64.5554 77.1586 64.0633 77.122C63.8061 77.1205 63.5512 77.1701 63.3133 77.2679C63.0755 77.3657 62.8593 77.5096 62.6775 77.6915C62.4956 77.8734 62.3516 78.0895 62.2539 78.3274C62.1561 78.5653 62.1065 78.8202 62.1079 79.0774Z" fill="black" stroke="black" stroke-miterlimit="10"/>
<path d="M97.7156 58.336C98.7343 58.3317 99.7314 58.6295 100.581 59.1917C101.431 59.754 102.094 60.5554 102.489 61.4947C102.883 62.434 102.99 63.4692 102.796 64.4693C102.602 65.4694 102.117 66.3897 101.4 67.1138C100.683 67.8379 99.7683 68.3334 98.7702 68.5377C97.7722 68.7419 96.736 68.6457 95.7926 68.2613C94.8491 67.8769 94.0408 67.2215 93.4697 66.3778C92.8987 65.5342 92.5904 64.5403 92.584 63.5216C92.5769 62.8431 92.7043 62.17 92.959 61.5412C93.2137 60.9124 93.5906 60.3403 94.0678 59.858C94.545 59.3758 95.1131 58.993 95.7393 58.7317C96.3654 58.4704 97.0371 58.3359 97.7156 58.336ZM97.7156 65.3473C97.9633 65.3487 98.209 65.3012 98.4383 65.2073C98.6676 65.1135 98.8761 64.9753 99.0518 64.8006C99.2275 64.6259 99.3669 64.4182 99.462 64.1894C99.5572 63.9606 99.6062 63.7153 99.6062 63.4675C99.6035 62.9725 99.4079 62.4981 99.0609 62.1451C98.7139 61.792 98.2429 61.5882 97.748 61.577C97.5002 61.577 97.2549 61.6259 97.0261 61.7211C96.7974 61.8162 96.5897 61.9557 96.415 62.1314C96.2403 62.3071 96.102 62.5156 96.0082 62.7449C95.9144 62.9742 95.8668 63.2198 95.8682 63.4675C95.8639 63.7143 95.9088 63.9594 96.0003 64.1886C96.0917 64.4178 96.2279 64.6265 96.4009 64.8025C96.5739 64.9785 96.7802 65.1182 97.0077 65.2136C97.2353 65.309 97.4796 65.3582 97.7264 65.3581L97.7156 65.3473Z" fill="black" stroke="black" stroke-miterlimit="10"/>
<path d="M85.0001 89.3611C84.9858 90.6505 84.4599 91.8813 83.538 92.7829C82.6162 93.6844 81.374 94.1829 80.0846 94.1686C78.7953 94.1542 77.5644 93.6283 76.6629 92.7065C75.7613 91.7847 75.2628 90.5424 75.2772 89.2531C75.2842 88.6147 75.417 87.9839 75.6679 87.3968C75.9188 86.8097 76.2828 86.2777 76.7392 85.8313C77.1957 85.3849 77.7356 85.0328 78.3281 84.795C78.9207 84.5572 79.5542 84.4385 80.1927 84.4456C80.8311 84.4527 81.4618 84.5855 82.049 84.8363C82.6361 85.0872 83.168 85.4513 83.6144 85.9077C84.0608 86.3642 84.413 86.9041 84.6507 87.4966C84.8885 88.0891 85.0072 88.7227 85.0001 89.3611ZM81.7591 89.2963C81.7591 88.9853 81.6671 88.6812 81.4947 88.4223C81.3224 88.1634 81.0773 87.9612 80.7903 87.8413C80.5034 87.7213 80.1874 87.6888 79.882 87.7479C79.5766 87.807 79.2956 87.9551 79.0742 88.1736C78.8527 88.392 78.7008 88.671 78.6376 88.9755C78.5743 89.2801 78.6024 89.5965 78.7185 89.8851C78.8346 90.1736 79.0334 90.4214 79.2899 90.5973C79.5464 90.7732 79.8492 90.8693 80.1602 90.8736C80.5749 90.8652 80.9701 90.696 81.2624 90.4017C81.5547 90.1074 81.7212 89.711 81.7267 89.2963H81.7591Z" fill="black" stroke="black" stroke-miterlimit="10"/>
<path d="M66.9804 54.1953C68.0673 54.1993 69.1349 54.4826 70.0808 55.018C71.0267 55.5533 71.8191 56.3228 72.382 57.2526C72.6061 57.5913 72.6939 58.0022 72.6278 58.4029C72.5617 58.8036 72.3465 59.1646 72.0255 59.4133C71.68 59.6583 71.254 59.7623 70.8345 59.7041C70.4149 59.6459 70.0334 59.4298 69.7676 59.1L69.6704 58.9596C69.3774 58.5257 68.9883 58.1652 68.5333 57.9063C68.0783 57.6473 67.5697 57.4968 67.0471 57.4665C66.5244 57.4362 66.0018 57.5269 65.5199 57.7315C65.0381 57.9361 64.6099 58.2492 64.2687 58.6463C63.7684 59.1379 63.4411 59.7785 63.3359 60.472C63.2307 61.1655 63.3533 61.8744 63.6854 62.4922C63.7826 62.7191 63.923 62.9352 64.0311 63.1512C64.229 63.5134 64.2834 63.9368 64.1833 64.3371C64.0832 64.7375 63.836 65.0855 63.4909 65.3119C63.3099 65.4289 63.1075 65.5087 62.8953 65.5465C62.6832 65.5843 62.4656 65.5795 62.2553 65.5322C62.0451 65.4849 61.8464 65.3962 61.6708 65.2712C61.4953 65.1461 61.3464 64.9874 61.233 64.8041C60.3676 63.568 59.9457 62.0754 60.0359 60.5691C60.1261 59.0628 60.7232 57.6313 61.73 56.5072C62.3998 55.7824 63.2115 55.2031 64.1148 54.8053C65.018 54.4076 65.9934 54.2 66.9804 54.1953Z" fill="black" stroke="black" stroke-miterlimit="10"/>
<path d="M50.1164 88.5788C50.0267 87.1211 50.4464 85.6775 51.3036 84.495C52.1609 83.3126 53.4024 82.4649 54.8158 82.0968C55.0288 82.0017 55.2594 81.9528 55.4926 81.9531C55.7258 81.9535 55.9563 82.0032 56.1689 82.099C56.3816 82.1948 56.5715 82.3345 56.7263 82.509C56.8811 82.6834 56.9972 82.8886 57.067 83.1112C57.1369 83.3337 57.1588 83.5684 57.1314 83.8C57.1041 84.0316 57.028 84.2548 56.9082 84.4549C56.7884 84.655 56.6277 84.8275 56.4365 84.9611C56.2453 85.0946 56.028 85.1862 55.7989 85.2298C55.369 85.334 54.9649 85.5251 54.6117 85.7914C54.2584 86.0576 53.9634 86.3934 53.7448 86.778C53.5261 87.1626 53.3886 87.5879 53.3405 88.0276C53.2925 88.4674 53.335 88.9123 53.4654 89.335C53.6238 90.1778 54.0974 90.9285 54.7899 91.4343C55.4824 91.9401 56.3415 92.1629 57.1925 92.0575C57.4734 92.0575 57.7543 91.9819 58.0352 91.9386C58.4444 91.8721 58.8637 91.9618 59.2099 92.1899C59.556 92.4181 59.8039 92.7679 59.9042 93.1702C60.0059 93.5696 59.9505 93.9927 59.7495 94.3525C59.5485 94.7122 59.2172 94.9812 58.8238 95.104C57.8062 95.3987 56.7335 95.4501 55.6923 95.2542C54.6511 95.0583 53.6705 94.6205 52.8296 93.9761C51.9886 93.3317 51.3108 92.4988 50.8508 91.5444C50.3908 90.59 50.1614 89.5409 50.1812 88.4816L50.1164 88.5788Z" fill="black" stroke="black" stroke-miterlimit="10"/>
<path d="M80.5168 112.73C79.4962 112.755 78.5052 112.387 77.749 111.701C76.9928 111.015 76.5294 110.064 76.4548 109.046C76.3999 108.81 76.3956 108.565 76.4421 108.328C76.4886 108.09 76.585 107.864 76.7248 107.666C76.8645 107.469 77.0446 107.302 77.2532 107.179C77.4617 107.056 77.694 106.978 77.9348 106.95C78.1672 106.932 78.4008 106.963 78.6203 107.041C78.8399 107.119 79.0404 107.243 79.2087 107.404C79.377 107.566 79.5094 107.761 79.5971 107.977C79.6847 108.192 79.7257 108.424 79.7174 108.657C79.7249 108.856 79.8058 109.044 79.9444 109.186C80.083 109.328 80.2694 109.413 80.4674 109.425C80.6654 109.437 80.8608 109.375 81.0157 109.251C81.1705 109.127 81.2738 108.95 81.3055 108.755C81.3055 108.647 81.3055 108.528 81.3055 108.42C81.3965 108.03 81.627 107.686 81.9536 107.454C82.2803 107.222 82.6804 107.118 83.0788 107.16C83.4771 107.203 83.8462 107.389 84.1165 107.685C84.3868 107.981 84.5397 108.365 84.5464 108.765C84.5267 109.822 84.0938 110.829 83.3405 111.57C82.5872 112.311 81.5736 112.728 80.5168 112.73Z" fill="black" stroke="black" stroke-miterlimit="10"/>
<path d="M95.0689 104.53C93.7271 104.523 92.4173 104.119 91.3052 103.368C90.1931 102.618 89.3286 101.554 88.821 100.312C88.3134 99.0696 88.1856 97.7048 88.4537 96.39C88.7217 95.0752 89.3737 93.8695 90.327 92.9252C91.2803 91.9809 92.4923 91.3406 93.8096 91.0851C95.1268 90.8296 96.4903 90.9704 97.7275 91.4898C98.9648 92.0092 100.02 92.8839 100.76 94.0031C101.501 95.1223 101.892 96.4359 101.886 97.7777C101.871 99.5753 101.147 101.294 99.8695 102.559C98.5923 103.824 96.8665 104.533 95.0689 104.53Z" fill="#5DC945"/>
<path d="M103.55 82.5763C103.001 82.5764 102.457 82.4677 101.95 82.2567C101.444 82.0456 100.984 81.7363 100.597 81.3467C100.21 80.957 99.9046 80.4947 99.6975 79.9863C99.4904 79.4779 99.386 78.9336 99.3903 78.3847C99.3967 77.563 99.6463 76.7616 100.108 76.0817C100.569 75.4017 101.222 74.8737 101.983 74.5642C102.744 74.2547 103.58 74.1775 104.385 74.3425C105.19 74.5075 105.928 74.9073 106.506 75.4913C107.084 76.0753 107.476 76.8175 107.632 77.6241C107.789 78.4308 107.703 79.2657 107.386 80.0236C107.068 80.7816 106.534 81.4285 105.849 81.8828C105.164 82.3371 104.36 82.5784 103.539 82.5763H103.55Z" fill="#5DC945"/>
<path d="M71.0965 99.507C71.0943 100.191 70.8892 100.859 70.5071 101.427C70.1249 101.994 69.583 102.436 68.9499 102.695C68.3167 102.955 67.6209 103.02 66.9504 102.884C66.2799 102.747 65.665 102.415 65.1835 101.929C64.7019 101.443 64.3755 100.825 64.2454 100.153C64.1153 99.4816 64.1875 98.7864 64.4528 98.1557C64.7181 97.525 65.1646 96.9873 65.7357 96.6105C66.3068 96.2337 66.9768 96.0349 67.661 96.0391C68.576 96.0448 69.4514 96.4131 70.0954 97.0631C70.7393 97.7132 71.0993 98.592 71.0965 99.507Z" fill="#5DC945"/>
<path d="M80.2468 70.8857C80.251 71.4669 80.0829 72.0362 79.7635 72.5218C79.4442 73.0074 78.9881 73.3874 78.4528 73.6137C77.9175 73.8401 77.3271 73.9026 76.7563 73.7934C76.1855 73.6842 75.6598 73.4082 75.2459 73.0003C74.8319 72.5924 74.5482 72.0709 74.4306 71.5017C74.3131 70.9326 74.3669 70.3413 74.5853 69.8028C74.8038 69.2642 75.177 68.8025 75.6579 68.4761C76.1387 68.1496 76.7055 67.9731 77.2867 67.9688C77.6726 67.966 78.0552 68.0392 78.4129 68.1842C78.7705 68.3293 79.096 68.5433 79.3709 68.8142C79.6457 69.0851 79.8646 69.4074 80.0149 69.7628C80.1651 70.1183 80.244 70.4998 80.2468 70.8857Z" fill="#5DC945"/>
<path d="M79.3932 57.389C79.4042 56.9028 79.5596 56.4309 79.8394 56.0332C80.1193 55.6355 80.5111 55.33 80.9651 55.1555C81.419 54.981 81.9146 54.9454 82.3888 55.0532C82.863 55.1611 83.2944 55.4075 83.6283 55.7611C83.9621 56.1148 84.1832 56.5597 84.2636 57.0393C84.3439 57.519 84.2799 58.0117 84.0795 58.4548C83.8792 58.8979 83.5516 59.2715 83.1385 59.528C82.7253 59.7845 82.2452 59.9124 81.7592 59.8954C81.1153 59.8701 80.5071 59.5935 80.0648 59.1249C79.6225 58.6564 79.3814 58.0332 79.3932 57.389Z" fill="#5DC945"/>
<path d="M62.1079 79.0775C62.1079 78.8203 62.1589 78.5657 62.258 78.3283C62.3571 78.091 62.5022 77.8756 62.6851 77.6948C62.868 77.5139 63.0849 77.3712 63.3233 77.2747C63.5618 77.1783 63.817 77.1301 64.0741 77.1329C64.5662 77.1696 65.0263 77.3909 65.362 77.7526C65.6977 78.1142 65.8843 78.5895 65.8843 79.0829C65.8843 79.5764 65.6977 80.0516 65.362 80.4133C65.0263 80.7749 64.5662 80.9963 64.0741 81.0329C63.816 81.0358 63.56 80.9873 63.3208 80.8901C63.0817 80.793 62.8643 80.6493 62.6813 80.4673C62.4982 80.2853 62.3533 80.0686 62.2549 79.83C62.1564 79.5914 62.1065 79.3356 62.1079 79.0775Z" fill="#5DC945"/>
<path d="M81.7267 89.2942C81.7253 89.5027 81.6828 89.7089 81.6017 89.9011C81.5205 90.0932 81.4024 90.2675 81.2539 90.4139C81.1054 90.5604 80.9296 90.6762 80.7363 90.7547C80.5431 90.8332 80.3363 90.8729 80.1278 90.8714C79.8137 90.8693 79.5073 90.7741 79.2473 90.5978C78.9874 90.4215 78.7855 90.1721 78.6673 89.8811C78.5491 89.5901 78.5198 89.2706 78.5832 88.963C78.6466 88.6553 78.7997 88.3734 79.0233 88.1528C79.2469 87.9323 79.5309 87.7829 79.8394 87.7238C80.1479 87.6646 80.4669 87.6982 80.7563 87.8204C81.0457 87.9425 81.2923 88.1477 81.465 88.4101C81.6377 88.6724 81.7288 88.9801 81.7267 89.2942Z" fill="#5DC945"/>
<path d="M109.113 94.6562C108.821 94.6562 108.487 94.5914 108.162 94.5157C107.862 94.4472 107.599 94.2686 107.423 94.0152C107.248 93.7618 107.175 93.4521 107.217 93.147C107.259 92.8419 107.413 92.5636 107.651 92.367C107.888 92.1704 108.19 92.0698 108.497 92.085C108.623 92.0739 108.75 92.0739 108.875 92.085C109.229 92.1515 109.595 92.0751 109.893 91.8727C110.19 91.6702 110.395 91.3581 110.464 91.0047C110.585 90.6661 110.57 90.2938 110.423 89.9656C110.276 89.6375 110.008 89.3788 109.675 89.2437C109.534 89.1789 109.383 89.1357 109.232 89.0817C108.929 88.9844 108.674 88.7742 108.521 88.4947C108.368 88.2151 108.329 87.8875 108.411 87.5795C108.492 87.2716 108.69 87.0069 108.961 86.8401C109.232 86.6733 109.558 86.6172 109.869 86.6833C110.613 86.8402 111.297 87.2061 111.841 87.7381C112.384 88.2701 112.765 88.946 112.938 89.6867C113.164 90.7182 112.98 91.7973 112.426 92.6963C111.872 93.5952 110.99 94.2437 109.967 94.5049C109.664 94.613 109.394 94.613 109.113 94.6562Z" fill="black" stroke="black" stroke-miterlimit="10"/>
<path d="M89.0837 76.956C88.7644 76.9333 88.4468 76.89 88.133 76.8263C87.8343 76.7574 87.572 76.5796 87.3974 76.3275C87.2228 76.0755 87.1485 75.7674 87.189 75.4635C87.2296 75.1596 87.382 74.8817 87.6165 74.6842C87.851 74.4867 88.1508 74.3838 88.4571 74.3956C88.5868 74.3956 88.7164 74.3956 88.8461 74.3956C89.0214 74.43 89.2017 74.4293 89.3768 74.3935C89.5518 74.3577 89.718 74.2875 89.8657 74.187C90.0134 74.0865 90.1397 73.9577 90.2372 73.8081C90.3348 73.6585 90.4018 73.491 90.4341 73.3153C90.544 72.9849 90.5261 72.6254 90.3842 72.3075C90.2422 71.9896 89.9864 71.7363 89.6671 71.5975C89.5267 71.5327 89.3646 71.4895 89.2242 71.4355C88.9259 71.3351 88.6769 71.1254 88.5274 70.8485C88.3778 70.5717 88.3389 70.2484 88.4184 69.944C88.4979 69.6395 88.69 69.3766 88.9559 69.2083C89.2217 69.04 89.5416 68.9788 89.8508 69.0372C90.594 69.1934 91.2769 69.5593 91.8188 70.0916C92.3606 70.6238 92.7386 71.3001 92.9081 72.0405C93.1399 73.0725 92.9589 74.1542 92.4037 75.0546C91.8486 75.9549 90.9634 76.6024 89.9372 76.8587C89.6552 76.91 89.37 76.9425 89.0837 76.956Z" fill="black" stroke="black" stroke-miterlimit="10"/>
</g>
<defs>
<clipPath id="clip0_157_108">
<rect width="163" height="163" fill="white"/>
</clipPath>
</defs>
</svg>
