<svg width="164" height="164" viewBox="0 0 164 164" fill="none" xmlns="http://www.w3.org/2000/svg">
<g clip-path="url(#clip0_157_2)">
<path d="M82.0001 161.287C125.787 161.287 161.284 125.79 161.284 82.0028C161.284 38.2154 125.787 2.71875 82.0001 2.71875C38.2127 2.71875 2.71606 38.2154 2.71606 82.0028C2.71606 125.79 38.2127 161.287 82.0001 161.287Z" fill="#F8D949"/>
<mask id="mask0_157_2" style="mask-type:luminance" maskUnits="userSpaceOnUse" x="2" y="2" width="160" height="160">
<path d="M82.0001 161.287C125.787 161.287 161.284 125.79 161.284 82.0028C161.284 38.2154 125.787 2.71875 82.0001 2.71875C38.2127 2.71875 2.71606 38.2154 2.71606 82.0028C2.71606 125.79 38.2127 161.287 82.0001 161.287Z" fill="white"/>
</mask>
<g mask="url(#mask0_157_2)">
<path d="M36.5132 72.7947C37.9496 72.674 39.295 72.0418 40.3047 71.013C40.5612 70.7309 40.8764 70.5084 41.2281 70.3612C41.5232 70.2697 41.8406 70.2824 42.1274 70.3971C42.4142 70.5118 42.6529 70.7216 42.8034 70.9913C42.9589 71.2693 43.0196 71.5903 42.9765 71.9058C42.9334 72.2214 42.7887 72.5143 42.5644 72.7404C41.7992 73.6372 40.8504 74.3594 39.7821 74.8579C38.7138 75.3565 37.5509 75.6198 36.372 75.6302C35.6007 75.6302 35.2856 75.8474 35.0466 76.5753C34.6881 77.8572 34.221 79.0957 33.7756 80.4428C34.7976 80.566 35.8328 80.3726 36.7414 79.8888C37.7055 79.2789 38.6241 78.6 39.4899 77.8572C39.7193 77.6229 40.0212 77.4728 40.3465 77.4314C40.6719 77.39 41.0017 77.4596 41.2825 77.6291C41.5563 77.8015 41.7615 78.0639 41.8626 78.3713C41.9637 78.6787 41.9545 79.0117 41.8365 79.313C41.7102 79.5992 41.5336 79.8604 41.315 80.0843C40.4119 81.1044 39.3033 81.922 38.062 82.4837C36.8207 83.0454 35.4748 83.3383 34.1123 83.3435H33.026L32.0156 89.0904L32.1895 89.2425C32.7218 88.9926 33.2758 88.7862 33.7864 88.4929C35.0072 87.7391 35.9755 86.6385 36.5676 85.3315C36.643 85.1354 36.7616 84.9587 36.9146 84.8146C37.0675 84.6705 37.251 84.5626 37.4512 84.499C37.6515 84.4353 37.8636 84.4176 38.0717 84.447C38.2798 84.4764 38.4786 84.5522 38.6534 84.6688C38.9595 84.8715 39.177 85.1829 39.2617 85.5401C39.3465 85.8972 39.2921 86.2732 39.1097 86.5917C38.5604 87.837 37.7522 88.951 36.7388 89.8595C35.7254 90.768 34.53 91.4502 33.2324 91.8607C31.907 92.3061 31.8527 92.2844 31.9287 93.6858C32.0265 95.2828 32.222 96.8798 32.3741 98.4767C32.4184 98.6678 32.4728 98.8564 32.5371 99.0417C33.9027 98.0577 34.8549 96.6023 35.2096 94.9569C35.2748 94.6961 35.3182 94.4245 35.3617 94.153C35.368 93.9533 35.4162 93.7573 35.5033 93.5775C35.5904 93.3978 35.7143 93.2383 35.867 93.1096C36.0197 92.9809 36.1978 92.8858 36.3897 92.8304C36.5816 92.7751 36.783 92.7608 36.9808 92.7884C37.1786 92.816 37.3684 92.8849 37.5378 92.9907C37.7072 93.0964 37.8525 93.2367 37.9641 93.4023C38.0758 93.5679 38.1513 93.7551 38.1859 93.9518C38.2204 94.1485 38.2131 94.3503 38.1645 94.544C37.9008 97.0272 36.6813 99.3103 34.7642 100.91C34.446 101.197 34.1003 101.452 33.7321 101.671C33.644 101.703 33.5639 101.753 33.4976 101.82C33.4312 101.886 33.3802 101.966 33.3481 102.054C33.316 102.142 33.3036 102.236 33.3118 102.329C33.3199 102.423 33.3484 102.513 33.3953 102.594C34.1342 104.785 35.1414 106.876 36.3937 108.819C37.3617 107.727 37.9356 106.343 38.0233 104.886C38.0488 104.211 38.0088 103.534 37.9038 102.866C37.7843 101.855 38.1971 101.149 38.9902 101.008C39.1928 100.979 39.3992 100.993 39.5964 101.048C39.7935 101.103 39.977 101.198 40.1353 101.328C40.2936 101.458 40.4233 101.619 40.516 101.801C40.6088 101.984 40.6626 102.183 40.6741 102.388C40.9668 103.845 40.9232 105.35 40.5467 106.789C40.1702 108.227 39.4707 109.56 38.5013 110.688C38.3818 110.829 38.2623 110.959 38.1537 111.1C38.045 111.242 38.1537 111.177 38.045 111.383L42.6404 116.098C43.2788 115.057 43.6434 113.872 43.7004 112.652C43.7574 111.433 43.5048 110.219 42.9663 109.123C42.8794 108.939 42.7599 108.765 42.673 108.58C42.4923 108.251 42.4479 107.864 42.5495 107.502C42.6511 107.141 42.8905 106.833 43.2162 106.646C43.3759 106.549 43.5538 106.486 43.739 106.46C43.9242 106.434 44.1126 106.447 44.2928 106.497C44.473 106.546 44.641 106.633 44.7866 106.75C44.9321 106.867 45.0521 107.013 45.1391 107.179C45.9172 108.432 46.3932 109.849 46.5297 111.318C46.7155 113.607 46.1511 115.895 44.9218 117.836L50.3537 121.182C50.9239 119.859 51.0938 118.397 50.8426 116.978C50.6065 115.702 50.0197 114.517 49.1479 113.556C48.9106 113.327 48.7554 113.026 48.7063 112.7C48.6572 112.374 48.7169 112.041 48.8763 111.752C48.9945 111.558 49.1574 111.396 49.3514 111.278C49.5453 111.16 49.7647 111.09 49.9912 111.074C50.2177 111.058 50.4447 111.096 50.6533 111.186C50.8619 111.276 51.046 111.414 51.1902 111.589C52.6042 113.075 53.4932 114.983 53.7215 117.021C53.9226 118.867 53.6612 120.734 52.961 122.453L58.9579 124.745C59.4103 123.608 59.5564 122.372 59.3816 121.16C59.184 119.808 58.6077 118.538 57.7194 117.499C57.4212 117.118 57.2434 116.657 57.2088 116.174C57.219 115.919 57.3129 115.674 57.4758 115.478C57.6388 115.282 57.8618 115.145 58.1105 115.087C58.3886 114.983 58.6926 114.968 58.9793 115.046C59.266 115.124 59.5208 115.291 59.7075 115.522C61.3283 117.23 62.2407 119.49 62.2605 121.845C62.2605 123.051 62.0432 124.257 61.9237 125.549L62.9449 125.777C63.306 125.856 63.622 126.073 63.8251 126.381C64.0282 126.69 64.1022 127.066 64.0313 127.429C64.0074 127.627 63.9389 127.818 63.8311 127.986C63.7233 128.154 63.5788 128.296 63.4085 128.4C63.2382 128.504 63.0465 128.569 62.8477 128.589C62.6489 128.609 62.4481 128.584 62.2605 128.515C61.6887 128.287 61.0619 128.234 60.4601 128.364C59.8583 128.493 59.3088 128.8 58.8818 129.243C57.8809 130.043 56.7203 130.62 55.478 130.935C54.2357 131.25 52.9404 131.295 51.6791 131.068C50.5927 130.905 49.9844 130.286 50.1365 129.352C50.2886 128.417 50.9838 128.091 52.1137 128.265C53.8018 128.551 55.5344 128.16 56.9372 127.179L56.4592 126.951C54.8839 126.332 53.2978 125.734 51.7443 125.071C51.594 124.982 51.4155 124.952 51.2443 124.988C51.0732 125.025 50.922 125.124 50.8209 125.267C49.7127 126.452 48.3272 127.342 46.7891 127.858C45.251 128.374 43.6088 128.499 42.0103 128.222C41.6796 128.201 41.3658 128.068 41.1209 127.845C40.876 127.622 40.7145 127.322 40.6632 126.994C40.607 126.69 40.6587 126.376 40.8095 126.107C40.9603 125.837 41.2006 125.628 41.4889 125.517C41.8999 125.408 42.329 125.386 42.7491 125.452C43.704 125.575 44.6741 125.5 45.5992 125.233C46.5242 124.966 47.3845 124.512 48.1267 123.898C48.2701 123.793 48.4188 123.695 48.5721 123.605C48.3331 123.431 48.2136 123.333 48.0832 123.257C46.6492 122.355 45.1934 121.497 43.7377 120.563C43.5679 120.431 43.3626 120.352 43.1479 120.336C42.9332 120.321 42.7188 120.369 42.5318 120.476C41.0574 121.285 39.3983 121.697 37.7168 121.672C36.0352 121.648 34.3889 121.187 32.9391 120.335C32.6839 120.206 32.4754 120 32.3429 119.747C32.2104 119.494 32.1606 119.205 32.2003 118.922C32.2087 118.667 32.3019 118.422 32.4651 118.225C32.6284 118.028 32.8525 117.891 33.102 117.836C33.6016 117.766 34.1109 117.841 34.5686 118.053C36.2137 118.908 38.1275 119.088 39.9028 118.553C40.1092 118.499 40.3156 118.412 40.6415 118.292C40.4134 118.075 40.2287 117.923 40.0766 117.76C38.8272 116.489 37.5562 115.229 36.3394 113.925C36.2075 113.744 36.0229 113.609 35.811 113.537C35.599 113.465 35.37 113.46 35.1553 113.523C33.4833 113.966 31.7234 113.954 30.0578 113.487C28.3921 113.021 26.8814 112.119 25.682 110.872C25.5172 110.75 25.3797 110.594 25.2784 110.415C25.1771 110.236 25.1142 110.038 25.0938 109.834C25.0733 109.629 25.0957 109.423 25.1596 109.228C25.2235 109.032 25.3274 108.852 25.4648 108.7C25.6139 108.557 25.7916 108.448 25.9861 108.38C26.1806 108.311 26.3873 108.285 26.5927 108.303C26.7981 108.32 26.9975 108.381 27.1776 108.481C27.3577 108.581 27.5145 108.719 27.6375 108.884C28.3791 109.649 29.2847 110.235 30.2859 110.598C31.2871 110.961 32.3578 111.092 33.4171 110.981C33.5421 110.972 33.666 110.951 33.7864 110.916L30.4187 103.213C29.1513 103.334 27.8785 103.389 26.6055 103.376C24.2552 103.239 22.0485 102.2 20.4457 100.476C20.2854 100.348 20.1534 100.189 20.0581 100.007C19.9627 99.8262 19.9061 99.6271 19.8918 99.4227C19.8775 99.2184 19.9058 99.0134 19.975 98.8206C20.0442 98.6278 20.1527 98.4515 20.2936 98.3029C20.4402 98.1556 20.6173 98.0421 20.8124 97.9705C21.0075 97.899 21.2159 97.871 21.423 97.8886C21.6301 97.9062 21.8308 97.969 22.0111 98.0724C22.1913 98.1759 22.3467 98.3176 22.4663 98.4876C23.3149 99.376 24.3805 100.028 25.5579 100.378C26.7354 100.729 27.9839 100.766 29.1802 100.487L29.5713 100.378C29.6443 100.35 29.7136 100.314 29.7777 100.269C29.6147 99.1829 29.3975 98.0965 29.2888 97.0862C29.1584 95.826 29.0933 94.5549 29.0607 93.2947C29.0607 92.7732 28.8869 92.5777 28.3763 92.4256C26.72 92.0272 25.1976 91.2001 23.962 90.0274C22.7263 88.8547 21.8209 87.3776 21.3365 85.7444C21.3365 85.614 21.2605 85.4836 21.2279 85.3533C21.1563 85.1685 21.1241 84.9708 21.1334 84.7729C21.1426 84.575 21.1931 84.3812 21.2816 84.2039C21.37 84.0266 21.4945 83.8698 21.6471 83.7434C21.7997 83.617 21.977 83.5239 22.1676 83.4699C22.3583 83.416 22.5581 83.4025 22.7543 83.4302C22.9504 83.458 23.1387 83.5264 23.3069 83.631C23.4751 83.7357 23.6196 83.8744 23.7312 84.0381C23.8427 84.2018 23.9188 84.3871 23.9547 84.5819C24.3082 86.0948 25.1905 87.4317 26.4425 88.3517C27.288 88.8942 28.162 89.3911 29.0607 89.84L30.1471 82.9306C29.2562 82.4961 28.3002 82.1158 27.442 81.5944C26.3401 80.9393 25.3853 80.0637 24.6376 79.0224C23.8898 77.9812 23.3652 76.7967 23.0964 75.5432C23.0185 75.2679 23.0326 74.9746 23.1365 74.7079C23.2404 74.4413 23.4285 74.2158 23.6722 74.0658C23.8921 73.8975 24.1613 73.8063 24.4381 73.8063C24.715 73.8063 24.9842 73.8975 25.204 74.0658C25.5345 74.3563 25.7788 74.7322 25.9102 75.1521C26.2121 76.2109 26.7559 77.185 27.4987 77.9976C28.2416 78.8101 29.1631 79.439 30.1905 79.8345C30.4078 79.9214 30.6468 79.9865 30.8858 80.0626C31.4398 78.4222 31.9722 76.8034 32.4719 75.2608C32.5262 75.087 32.2872 74.7502 32.1025 74.5981C31.0339 73.7908 30.1409 72.7744 29.4778 71.6108C28.8148 70.4472 28.3956 69.1608 28.2459 67.8299C28.2077 67.2439 28.2077 66.656 28.2459 66.07C28.2354 65.8721 28.2658 65.6742 28.3351 65.4885C28.4044 65.3029 28.5111 65.1335 28.6487 64.9908C28.7862 64.8482 28.9516 64.7353 29.1347 64.6594C29.3177 64.5834 29.5144 64.5458 29.7125 64.5491C29.9116 64.5531 30.1076 64.5995 30.2873 64.6851C30.4671 64.7708 30.6265 64.8938 30.755 65.046C30.8835 65.1981 30.9781 65.3759 31.0325 65.5674C31.0869 65.759 31.0999 65.96 31.0705 66.1569C30.999 67.2338 31.1753 68.3128 31.5858 69.3109C31.9964 70.3091 32.6303 71.1998 33.4388 71.9147L33.5909 72.0451H33.7538C34.4491 70.5459 35.1553 69.0358 35.8288 67.5149C35.8288 67.3845 35.7636 67.1347 35.655 67.0043C34.9362 66.1838 34.4383 65.1936 34.2083 64.1273C33.9783 63.0609 34.0238 61.9536 34.3405 60.9097C34.3748 60.7242 34.4469 60.5477 34.5522 60.3911C34.6574 60.2345 34.7937 60.1012 34.9525 59.9994C35.1114 59.8976 35.2894 59.8294 35.4756 59.7991C35.6619 59.7689 35.8523 59.7771 36.0352 59.8233C36.2193 59.8605 36.394 59.9344 36.5489 60.0404C36.7039 60.1465 36.836 60.2826 36.9373 60.4406C37.0386 60.5987 37.1072 60.7756 37.1388 60.9606C37.1705 61.1457 37.1646 61.3353 37.1216 61.5181C36.836 62.5 36.9251 63.553 37.3715 64.473C37.8169 63.7126 38.4579 63.278 39.2401 63.5279C40.0223 63.7777 40.2504 64.3753 40.2287 65.2226C40.9425 64.9165 41.5587 64.4205 42.0103 63.7886C42.2443 63.4631 42.5396 63.1864 42.8794 62.9738C43.1447 62.8337 43.4513 62.7928 43.744 62.8585C44.0368 62.9242 44.2965 63.0923 44.4764 63.3323C44.6896 63.5425 44.8218 63.8213 44.8496 64.1194C44.8775 64.4175 44.7992 64.7159 44.6285 64.9619C44.0872 65.9327 43.3007 66.7446 42.3476 67.3165C41.3944 67.8884 40.308 68.2003 39.1966 68.221C39.084 68.2218 38.973 68.2475 38.8715 68.2963C38.7701 68.3452 38.6807 68.4159 38.61 68.5035C37.8169 69.9484 37.1977 71.3064 36.5132 72.7947Z" fill="black"/>
<path d="M127.628 106.284C128.908 104.3 129.93 102.16 130.67 99.918C130.822 99.4834 130.55 99.3748 130.279 99.1901C129.052 98.411 128.017 97.3658 127.25 96.1321C126.483 94.8984 126.003 93.5078 125.846 92.0634C125.769 91.7877 125.787 91.494 125.897 91.2298C126.008 90.9655 126.204 90.7463 126.455 90.6077C126.896 90.4314 127.381 90.3935 127.845 90.4991C128.388 90.6294 128.595 91.1509 128.671 91.7158C128.852 93.3776 129.623 94.9195 130.844 96.0613C131.017 96.2243 131.213 96.3764 131.517 96.6371C131.658 95.7137 131.821 94.9206 131.897 94.1276C131.995 92.9108 132.017 91.6941 132.104 90.4773C132.104 89.9341 131.973 89.6951 131.43 89.5539C130.011 89.2231 128.686 88.5725 127.556 87.6519C126.427 86.7313 125.522 85.5648 124.912 84.2415C124.728 83.9521 124.647 83.6089 124.682 83.2677C124.718 82.9266 124.868 82.6074 125.108 82.3621C125.31 82.1434 125.581 82.0013 125.876 81.9597C126.171 81.9181 126.471 81.9797 126.726 82.1339C127.055 82.3623 127.317 82.6733 127.487 83.0356C127.929 83.9409 128.557 84.7426 129.33 85.3885C130.103 86.0343 131.004 86.5097 131.973 86.7836C131.626 84.7087 131.311 82.7749 131.007 80.9606C129.692 80.7868 128.519 80.7216 127.389 80.4609C125.506 80.0058 123.816 78.9633 122.565 77.4842C122.415 77.3459 122.295 77.1779 122.214 76.9909C122.132 76.8039 122.089 76.602 122.089 76.3978C122.089 76.1937 122.132 75.9918 122.214 75.8048C122.295 75.6178 122.415 75.4498 122.565 75.3115C122.717 75.1692 122.898 75.0617 123.096 74.9964C123.293 74.9311 123.503 74.9096 123.71 74.9334C123.916 74.9571 124.115 75.0256 124.293 75.1341C124.471 75.2425 124.623 75.3883 124.738 75.5613C125.357 76.2705 126.111 76.8492 126.956 77.2633C127.801 77.6774 128.72 77.9187 129.659 77.9731C129.768 77.9731 129.888 77.9731 129.996 77.9731C130.061 77.963 130.124 77.9409 130.181 77.9079C130.181 77.7558 130.181 77.582 130.094 77.4299C129.681 76.2023 129.257 74.9964 128.877 73.7688C128.863 73.6712 128.829 73.5775 128.778 73.4933C128.726 73.409 128.659 73.3359 128.579 73.2781C128.499 73.2204 128.408 73.1793 128.312 73.1572C128.216 73.1351 128.116 73.1325 128.019 73.1496C126.859 73.184 125.705 72.9767 124.629 72.5409C123.554 72.1051 122.581 71.4504 121.772 70.6183C121.494 70.3565 121.268 70.0428 121.11 69.6949C120.999 69.3945 120.997 69.0647 121.104 68.763C121.211 68.4613 121.421 68.2068 121.696 68.0436C121.984 67.8868 122.315 67.8265 122.639 67.8715C122.964 67.9165 123.265 68.0644 123.5 68.2934C124.181 68.875 124.908 69.4017 125.672 69.8687C126.202 70.0985 126.756 70.2661 127.324 70.3684L127.454 70.2272C126.802 68.8475 126.172 67.4569 125.499 66.0881C125.499 65.9577 125.173 65.8817 124.999 65.8817C122.522 65.8817 120.849 64.578 119.567 62.6225C119.382 62.3139 119.321 61.9465 119.396 61.5945C119.47 61.2425 119.676 60.9319 119.971 60.7253C120.265 60.5188 120.627 60.4315 120.984 60.4812C121.34 60.5308 121.665 60.7137 121.892 60.993C123.054 62.3944 123.109 62.4379 123.88 62.742C123.88 61.9598 124.151 61.2537 125.031 61.069C125.381 60.9954 125.744 61.0477 126.059 61.2167C126.373 61.3857 126.617 61.6606 126.748 61.9924H126.943C127.029 61.3945 127.083 60.7926 127.106 60.189C127.09 59.7829 127.035 59.3792 126.943 58.9832C126.888 58.6301 126.97 58.2693 127.172 57.9745C127.374 57.6796 127.681 57.4731 128.03 57.3971C128.205 57.3464 128.389 57.3316 128.571 57.3537C128.752 57.3758 128.927 57.4342 129.085 57.5255C129.243 57.6168 129.382 57.739 129.491 57.885C129.601 58.0309 129.681 58.1975 129.725 58.3748C130.06 59.4252 130.121 60.5442 129.9 61.6246C129.679 62.705 129.185 63.7107 128.464 64.5454C128.393 64.6175 128.338 64.7046 128.304 64.8004C128.27 64.8962 128.258 64.9984 128.269 65.0995C128.942 66.6096 129.638 68.0979 130.366 69.6623C131.157 69.0332 131.804 68.2407 132.261 67.3389C132.719 66.4371 132.976 65.4472 133.016 64.4368C133.016 64.1435 133.016 63.8501 133.016 63.5568C133.003 63.3642 133.029 63.1709 133.094 62.9888C133.158 62.8068 133.259 62.6398 133.39 62.4983C133.521 62.3568 133.68 62.2437 133.857 62.166C134.034 62.0884 134.225 62.0478 134.418 62.0468C134.786 62.0633 135.134 62.2199 135.39 62.4844C135.647 62.749 135.792 63.1015 135.797 63.4699C135.926 65.0906 135.643 66.7174 134.977 68.2003C134.31 69.6832 133.281 70.9743 131.984 71.9545C131.776 72.0714 131.621 72.2655 131.554 72.495C131.487 72.7246 131.513 72.9714 131.626 73.1822C132.136 74.6053 132.593 76.0393 133.114 77.6146C133.752 77.3469 134.376 77.0459 134.983 76.7129C135.761 76.2477 136.439 75.6327 136.978 74.9036C137.517 74.1744 137.906 73.3456 138.122 72.4651C138.174 72.1962 138.305 71.9488 138.499 71.7552C138.692 71.5615 138.94 71.4304 139.209 71.3788C139.448 71.3286 139.695 71.3421 139.927 71.418C140.159 71.4939 140.367 71.6295 140.53 71.8111C140.693 71.9927 140.805 72.214 140.855 72.4528C140.906 72.6916 140.892 72.9393 140.817 73.1713C140.448 74.7296 139.696 76.1714 138.63 77.3664C137.564 78.5613 136.217 79.4718 134.711 80.0155L133.885 80.3197L134.972 87.1096C136.503 86.7711 137.858 85.8868 138.785 84.6217C139.314 83.8128 139.748 82.9451 140.078 82.0362C140.447 81.1345 141.056 80.689 141.87 80.9498C142.068 80.999 142.253 81.0909 142.412 81.2191C142.571 81.3472 142.7 81.5084 142.79 81.6916C142.88 81.8747 142.929 82.0753 142.933 82.2793C142.938 82.4833 142.897 82.6858 142.816 82.8727C142.386 84.5814 141.497 86.1398 140.244 87.3789C138.992 88.618 137.424 89.4904 135.711 89.9016C135.167 90.0536 135.037 90.2818 135.004 90.8141C134.841 93.1281 134.613 95.4312 134.407 97.8321C135.381 98.1352 136.41 98.2223 137.421 98.0872C138.432 97.9521 139.402 97.5981 140.263 97.0499C140.765 96.7024 141.237 96.3135 141.675 95.8875C141.805 95.7378 141.964 95.6165 142.143 95.5315C142.322 95.4464 142.516 95.3993 142.714 95.3932C142.912 95.387 143.109 95.422 143.293 95.4959C143.477 95.5697 143.644 95.6809 143.782 95.8223C143.918 95.9662 144.023 96.1365 144.091 96.3226C144.159 96.5088 144.187 96.7068 144.175 96.9044C144.163 97.102 144.11 97.2951 144.02 97.4715C143.93 97.6479 143.805 97.8039 143.652 97.9299C142.466 99.1887 140.967 100.11 139.309 100.601C137.65 101.091 135.891 101.133 134.211 100.722L133.69 100.613C132.473 103.177 131.289 105.665 130.094 108.218C131.726 108.496 133.403 108.168 134.809 107.295C135.334 106.943 135.829 106.547 136.286 106.11C136.415 105.952 136.576 105.821 136.758 105.728C136.94 105.635 137.14 105.58 137.344 105.568C137.548 105.556 137.753 105.586 137.945 105.657C138.137 105.728 138.312 105.838 138.459 105.98C138.604 106.127 138.716 106.303 138.787 106.497C138.859 106.691 138.887 106.898 138.872 107.103C138.857 107.309 138.797 107.51 138.698 107.691C138.599 107.872 138.462 108.029 138.296 108.153C137.094 109.409 135.578 110.322 133.905 110.798C132.232 111.273 130.463 111.294 128.779 110.858C128.566 110.794 128.338 110.797 128.126 110.867C127.914 110.937 127.729 111.07 127.595 111.249C126.237 112.726 124.836 114.16 123.402 115.594C124.625 116.141 125.99 116.289 127.302 116.018C128.039 115.793 128.764 115.532 129.475 115.236C129.877 115.106 130.3 115.04 130.768 114.932C130.67 116.159 130.67 116.159 131.648 116.322C131.648 116.409 131.648 116.529 131.648 116.572C131.162 117.167 130.591 117.687 129.953 118.115C128.596 118.754 127.106 119.058 125.607 119.003C124.108 118.949 122.644 118.536 121.338 117.8C121.155 117.685 120.939 117.632 120.724 117.65C120.509 117.667 120.305 117.754 120.143 117.898C118.774 118.81 117.351 119.647 115.949 120.516L115.384 120.863C116.107 121.564 116.972 122.101 117.92 122.437C118.869 122.772 119.879 122.899 120.881 122.808C121.153 122.808 121.414 122.732 121.685 122.721C122.048 122.671 122.416 122.767 122.709 122.986C123.002 123.206 123.196 123.532 123.25 123.894C123.282 124.085 123.275 124.28 123.228 124.468C123.182 124.656 123.098 124.832 122.981 124.986C122.864 125.139 122.716 125.267 122.548 125.362C122.379 125.456 122.193 125.515 122 125.535C120.557 125.799 119.073 125.74 117.655 125.361C115.885 124.867 114.281 123.902 113.016 122.569C112.799 122.341 112.647 122.178 112.277 122.33C110.561 123.036 108.834 123.71 107.117 124.383C107.05 124.435 106.988 124.493 106.932 124.557C108.301 125.467 109.952 125.853 111.582 125.643C111.767 125.643 111.941 125.643 112.125 125.567C112.316 125.528 112.514 125.528 112.705 125.568C112.896 125.608 113.077 125.686 113.237 125.799C113.396 125.912 113.53 126.057 113.632 126.224C113.733 126.391 113.799 126.577 113.825 126.77C113.851 126.964 113.837 127.161 113.784 127.349C113.73 127.537 113.639 127.712 113.515 127.863C113.392 128.014 113.238 128.138 113.064 128.227C112.891 128.316 112.7 128.369 112.505 128.381C110.999 128.667 109.447 128.589 107.977 128.155C106.507 127.72 105.162 126.941 104.053 125.882C103.923 125.73 103.749 125.62 103.555 125.57C103.36 125.519 103.155 125.53 102.967 125.6C102.512 125.738 102.047 125.844 101.577 125.915C101.209 125.993 100.826 125.922 100.511 125.718C100.196 125.515 99.9733 125.195 99.8926 124.829C99.8527 124.647 99.8492 124.459 99.8823 124.275C99.9154 124.092 99.9844 123.917 100.085 123.761C100.186 123.604 100.317 123.469 100.471 123.363C100.624 123.258 100.797 123.183 100.979 123.145C101.348 123.047 101.729 122.982 102.152 122.884C102.044 122.276 101.902 121.711 101.816 121.146C101.563 119.704 101.641 118.223 102.044 116.816C102.447 115.408 103.164 114.11 104.14 113.02C104.264 112.835 104.427 112.68 104.618 112.567C104.809 112.454 105.023 112.386 105.245 112.367C105.466 112.348 105.689 112.38 105.896 112.459C106.104 112.538 106.291 112.663 106.443 112.824C106.691 113.094 106.822 113.451 106.808 113.818C106.793 114.184 106.635 114.529 106.367 114.78C105.719 115.493 105.224 116.331 104.912 117.243C104.6 118.155 104.478 119.12 104.553 120.081C104.553 120.744 104.781 121.396 104.923 122.178L110.876 119.918C110.637 118.647 110.333 117.539 110.224 116.398C110.094 115.077 110.248 113.743 110.675 112.486C111.102 111.229 111.793 110.077 112.701 109.109C112.824 108.966 112.973 108.849 113.141 108.764C113.309 108.679 113.492 108.628 113.68 108.614C113.868 108.6 114.056 108.623 114.235 108.682C114.414 108.741 114.579 108.834 114.722 108.957C114.864 109.079 114.981 109.229 115.066 109.397C115.151 109.565 115.202 109.748 115.216 109.935C115.23 110.123 115.207 110.312 115.149 110.49C115.09 110.669 114.996 110.835 114.874 110.977C114.052 111.888 113.48 112.996 113.213 114.194C112.947 115.391 112.995 116.637 113.353 117.811C113.396 117.984 113.45 118.155 113.516 118.321C113.516 118.386 113.592 118.43 113.722 118.582L118.937 115.323C118.502 114.15 118.024 113.15 117.731 112.064C117.402 110.85 117.319 109.582 117.489 108.335C117.659 107.088 118.077 105.889 118.72 104.807C118.792 104.615 118.905 104.44 119.051 104.296C119.197 104.151 119.372 104.04 119.565 103.969C119.758 103.898 119.963 103.869 120.168 103.884C120.373 103.9 120.572 103.959 120.752 104.058C120.932 104.157 121.089 104.293 121.211 104.458C121.334 104.623 121.42 104.812 121.463 105.013C121.506 105.214 121.505 105.421 121.461 105.622C121.417 105.823 121.331 106.011 121.207 106.176C120.644 107.161 120.326 108.268 120.281 109.403C120.235 110.537 120.464 111.666 120.947 112.694C121.012 112.835 121.088 112.976 121.164 113.118C121.241 113.214 121.324 113.305 121.414 113.389L125.966 108.739C125.401 107.946 124.879 107.305 124.488 106.621C123.275 104.623 122.838 102.249 123.261 99.9506C123.265 99.7422 123.313 99.5372 123.402 99.3486C123.491 99.1601 123.618 98.9923 123.776 98.8561C123.934 98.7199 124.118 98.6183 124.318 98.5579C124.517 98.4976 124.727 98.4798 124.934 98.5057C125.132 98.545 125.32 98.6259 125.485 98.743C125.65 98.8601 125.789 99.0109 125.891 99.1853C125.994 99.3598 126.058 99.554 126.081 99.7551C126.103 99.9563 126.082 100.16 126.02 100.353C125.833 101.289 125.839 102.253 126.037 103.187C126.235 104.121 126.621 105.005 127.172 105.784L127.411 106.11C127.411 106.11 127.53 106.219 127.628 106.284Z" fill="black"/>
<path d="M95.1343 93.2175C106.563 85.7215 107.878 76.748 107.878 76.748C110.126 63.3203 95.3842 51.3267 95.3842 51.3267C86.389 42.0816 90.2673 28.7734 90.2673 28.7734C90.2673 28.7734 75.775 41.093 70.1367 55.4115" stroke="black" stroke-width="4" stroke-miterlimit="10"/>
<path d="M62.7602 86.4291C56.8286 80.2802 51.4075 69.5359 59.4142 51.3281C59.4142 51.3281 67.3991 72.0671 77.8826 78.0639" stroke="black" stroke-width="4" stroke-miterlimit="10"/>
<path d="M81.8154 146.636L90.6477 110.035L108.03 93.6094H55.5576L72.9397 110.035L81.772 146.636" fill="#F0963F"/>
<path d="M81.8154 146.636L90.6477 110.035L108.03 93.6094H55.5576L72.9397 110.035L81.772 146.636" stroke="black" stroke-width="4" stroke-miterlimit="10"/>
<path d="M89.6373 85.8305C89.6373 85.8305 102.12 70.7515 90.1696 60.8438C88.666 64.1176 86.9495 67.2894 85.031 70.3387" stroke="black" stroke-width="4" stroke-miterlimit="10"/>
<path d="M72.907 109.781H90.5172" stroke="black" stroke-width="4" stroke-miterlimit="10"/>
</g>
<path d="M82.0001 161.287C125.787 161.287 161.284 125.79 161.284 82.0028C161.284 38.2154 125.787 2.71875 82.0001 2.71875C38.2127 2.71875 2.71606 38.2154 2.71606 82.0028C2.71606 125.79 38.2127 161.287 82.0001 161.287Z" stroke="black" stroke-width="5" stroke-miterlimit="10"/>
</g>
<defs>
<clipPath id="clip0_157_2">
<rect width="164" height="164" fill="white"/>
</clipPath>
</defs>
</svg>
