<svg xmlns="http://www.w3.org/2000/svg" width="549" height="549" viewBox="0 0 549 549" fill="none"><path d="M350.976 243.399C348.623 254.885 347.109 266.527 346.447 278.233C346.425 278.946 346.546 279.656 346.804 280.321C347.062 280.987 347.45 281.593 347.947 282.105C348.444 282.618 349.038 283.025 349.696 283.302C350.353 283.58 351.059 283.723 351.772 283.723C352.484 283.723 353.189 283.58 353.845 283.302C354.501 283.024 355.093 282.616 355.588 282.104C356.082 281.591 356.469 280.985 356.723 280.319C356.978 279.654 357.096 278.945 357.07 278.233C356.486 266.414 354.439 254.714 350.976 243.399Z" fill="#5EBC80" stroke="black" stroke-width="2.8" stroke-miterlimit="10" stroke-linecap="round"></path><path d="M365.908 246.254C358.98 255.716 352.751 265.67 347.27 276.037C346.941 276.676 346.744 277.375 346.692 278.091C346.64 278.808 346.733 279.528 346.966 280.207C347.2 280.887 347.568 281.512 348.05 282.046C348.531 282.579 349.116 283.01 349.768 283.311C350.414 283.615 351.116 283.785 351.83 283.81C352.543 283.836 353.255 283.717 353.922 283.461C354.588 283.204 355.196 282.816 355.709 282.318C356.222 281.821 356.628 281.225 356.905 280.566C361.324 269.549 364.349 258.022 365.908 246.254Z" fill="#5EBC80" stroke="black" stroke-width="2.8" stroke-miterlimit="10" stroke-linecap="round"></path><path d="M337.828 246.254C344.759 255.719 350.998 265.673 356.494 276.037C356.823 276.678 357.018 277.378 357.068 278.096C357.118 278.814 357.023 279.534 356.787 280.214C356.551 280.894 356.179 281.519 355.695 282.051C355.211 282.584 354.623 283.012 353.969 283.311C353.322 283.615 352.621 283.785 351.907 283.81C351.193 283.836 350.482 283.717 349.815 283.461C349.148 283.204 348.54 282.816 348.028 282.318C347.515 281.821 347.108 281.225 346.832 280.566C342.412 269.549 339.388 258.022 337.828 246.254Z" fill="#5EBC80" stroke="black" stroke-width="2.8" stroke-miterlimit="10" stroke-linecap="round"></path><path d="M362.339 306.012L358.936 299.452L356.63 294.978C356.253 294.265 356.169 293.434 356.394 292.66C356.62 291.887 357.137 291.231 357.838 290.833C358.174 290.634 358.548 290.509 358.936 290.466C359.324 290.424 359.717 290.464 360.088 290.586C360.471 290.691 360.826 290.878 361.129 291.134C361.433 291.39 361.677 291.708 361.845 292.068L364.288 296.844L367.829 303.322L368.241 304.173L367.829 303.377L364.48 296.872L362.01 292.068C361.815 291.715 361.693 291.327 361.651 290.926C361.608 290.525 361.646 290.12 361.763 289.735C361.865 289.351 362.044 288.993 362.289 288.681C362.535 288.37 362.841 288.112 363.19 287.923C363.526 287.724 363.901 287.599 364.289 287.556C364.677 287.514 365.07 287.555 365.441 287.676C365.825 287.786 366.182 287.974 366.489 288.23C366.796 288.485 367.047 288.801 367.225 289.158L369.97 294.236L378.013 309.718L404.722 331.431L393.166 343.454L360.884 316.196L357.124 308.757L353.747 302.142L351.634 298.052C351.257 297.339 351.173 296.508 351.398 295.735C351.624 294.961 352.141 294.306 352.842 293.907C353.176 293.701 353.55 293.57 353.94 293.521C354.329 293.472 354.725 293.507 355.099 293.625C355.474 293.742 355.819 293.938 356.112 294.199C356.404 294.461 356.637 294.783 356.794 295.142L359.073 299.562L362.477 306.122" fill="#EDD9CA"></path><path d="M362.339 306.012L358.936 299.452L356.63 294.978C356.253 294.265 356.169 293.434 356.394 292.66C356.62 291.887 357.137 291.231 357.838 290.833V290.833C358.174 290.634 358.548 290.509 358.936 290.466C359.324 290.424 359.717 290.464 360.088 290.586C360.471 290.691 360.826 290.878 361.129 291.134C361.433 291.39 361.677 291.708 361.845 292.068L364.288 296.844L367.829 303.322L368.241 304.173L367.829 303.377L364.48 296.872L362.01 292.068C361.815 291.715 361.693 291.327 361.651 290.926C361.608 290.525 361.646 290.12 361.763 289.735C361.865 289.351 362.044 288.993 362.289 288.681C362.535 288.37 362.841 288.112 363.19 287.923V287.923C363.526 287.724 363.901 287.599 364.289 287.556C364.677 287.514 365.07 287.555 365.441 287.676C365.825 287.786 366.182 287.974 366.489 288.23C366.796 288.485 367.047 288.801 367.225 289.158L369.97 294.236L378.013 309.718L404.722 331.431L393.166 343.454L360.884 316.196L357.124 308.757L353.747 302.142L351.634 298.052C351.257 297.339 351.173 296.508 351.398 295.735C351.624 294.961 352.141 294.306 352.842 293.907V293.907C353.176 293.701 353.55 293.57 353.94 293.521C354.329 293.472 354.725 293.507 355.099 293.625C355.474 293.742 355.819 293.938 356.112 294.199C356.404 294.461 356.637 294.783 356.794 295.142L359.073 299.562L362.477 306.122" stroke="black" stroke-width="2.8" stroke-linecap="round" stroke-linejoin="round"></path><path d="M341.671 311.832H360.611C361.375 311.837 362.115 311.56 362.687 311.053C363.26 310.547 363.625 309.846 363.713 309.087L366.211 280.621C366.249 280.194 366.198 279.763 366.061 279.356C365.924 278.95 365.704 278.576 365.415 278.259C365.126 277.941 364.774 277.687 364.382 277.513C363.99 277.338 363.566 277.247 363.136 277.245H339.173C338.741 277.243 338.314 277.332 337.919 277.505C337.523 277.677 337.168 277.931 336.876 278.248C336.584 278.566 336.362 278.941 336.223 279.35C336.084 279.759 336.033 280.192 336.071 280.621L338.569 309.087C338.657 309.846 339.022 310.547 339.594 311.053C340.167 311.56 340.906 311.837 341.671 311.832Z" fill="#F39424" stroke="black" stroke-width="2.8" stroke-miterlimit="10" stroke-linecap="round"></path><path d="M365.715 286.139H336.536" stroke="black" stroke-width="2.8" stroke-miterlimit="10" stroke-linecap="round"></path><path d="M404.586 331.377L429.62 353.502L406.892 353.968L393.029 343.4L404.586 331.377Z" fill="#955AE6" stroke="black" stroke-width="2.8" stroke-linecap="round" stroke-linejoin="round"></path><path d="M377.877 469.532H408.786V426.792C412.463 420.344 415.427 413.515 417.625 406.425C420.37 396.296 417.625 391.464 417.625 391.464L389.324 393.084L388.802 458.607L377.877 469.532Z" fill="#F7C8FC" stroke="black" stroke-width="2.8" stroke-linecap="round" stroke-linejoin="round"></path><path d="M425.474 304.695C424.565 304.553 423.639 304.553 422.729 304.695C419.415 304.83 416.183 305.77 413.313 307.435C410.443 309.099 408.022 311.437 406.259 314.248L405.655 315.236L400.907 312.985C400.627 312.861 400.331 312.778 400.028 312.738C399.387 312.658 398.737 312.782 398.17 313.092C397.604 313.403 397.149 313.884 396.871 314.467C396.542 315.2 396.513 316.033 396.79 316.787C397.067 317.541 397.628 318.157 398.354 318.502L403.514 321.165L403.377 322.153C403.377 323.114 403.158 324.102 403.103 325.09V326.49C403.199 327.763 403.373 329.028 403.624 330.278C404.768 335.074 407.58 339.306 411.557 342.219L412.463 342.905L406.891 354.105L414.357 355.313L419.106 345.788L420.094 345.952C421.153 346.149 422.228 346.25 423.306 346.254C426.625 346.335 429.914 345.61 432.892 344.143C435.87 342.675 438.449 340.508 440.407 337.827C441.009 337.104 441.551 336.333 442.027 335.521" fill="#EDD9CA"></path><path d="M425.474 304.695C424.565 304.553 423.639 304.553 422.729 304.695C419.415 304.83 416.183 305.77 413.313 307.435C410.443 309.099 408.022 311.437 406.259 314.248L405.655 315.236L400.907 312.985C400.627 312.861 400.331 312.778 400.028 312.738C399.387 312.658 398.737 312.782 398.17 313.092C397.604 313.403 397.149 313.884 396.871 314.467V314.467C396.542 315.2 396.513 316.033 396.79 316.787C397.067 317.541 397.628 318.157 398.354 318.502L403.514 321.165L403.377 322.153C403.377 323.114 403.158 324.102 403.103 325.09V326.49C403.199 327.763 403.373 329.028 403.624 330.278C404.768 335.074 407.58 339.306 411.557 342.219L412.463 342.905L406.891 354.105L414.357 355.313L419.106 345.788L420.094 345.952C421.153 346.149 422.228 346.25 423.306 346.254C426.625 346.335 429.914 345.61 432.892 344.143C435.87 342.675 438.449 340.508 440.407 337.827C441.009 337.104 441.551 336.333 442.027 335.521" stroke="black" stroke-width="2.8" stroke-linecap="round" stroke-linejoin="round"></path><path d="M423.252 326.655C424.208 326.989 425.066 327.555 425.75 328.302C426.824 329.518 427.394 331.099 427.342 332.721C427.29 333.85 426.927 334.943 426.292 335.878C425.657 336.813 424.776 337.554 423.746 338.019" stroke="black" stroke-width="2.8" stroke-miterlimit="10" stroke-linecap="round"></path><path d="M403.707 330.141C406.35 331.816 409.314 332.919 412.409 333.38C413.563 333.545 414.728 333.627 415.895 333.627" fill="white"></path><path d="M403.707 330.141C406.35 331.816 409.314 332.919 412.409 333.38C413.563 333.545 414.728 333.627 415.895 333.627" stroke="black" stroke-width="2.8" stroke-miterlimit="10" stroke-linecap="round"></path><path d="M426.986 304.914C431.94 305.676 436.452 308.206 439.686 312.036C442.921 315.866 444.659 320.737 444.581 325.749C444.538 329.122 443.661 332.432 442.028 335.384C436.519 332.508 431.997 328.047 429.047 322.577C426.097 317.107 424.853 310.879 425.476 304.695C425.998 304.86 426.437 304.832 426.986 304.914Z" fill="#FED900" stroke="black" stroke-width="2.8" stroke-linecap="round" stroke-linejoin="round"></path><path d="M387.292 483.807H418.228V441.067C421.885 434.612 424.839 427.784 427.04 420.699C429.785 410.57 427.04 405.739 427.04 405.739L398.766 407.331L398.245 472.854L387.292 483.807Z" fill="#F7C8FC" stroke="black" stroke-width="2.8" stroke-linecap="round" stroke-linejoin="round"></path><path d="M440.408 337.69V369.944L453.282 366.814L443.537 331.898L440.408 337.69Z" fill="#FED900" stroke="black" stroke-width="2.8" stroke-linecap="round" stroke-linejoin="round"></path><path d="M417.734 316.471C416.822 315.926 415.802 315.584 414.746 315.47C413.689 315.357 412.62 315.473 411.613 315.812C410.103 316.279 409.856 316.938 410.68 318.31C410.857 318.799 411.169 319.228 411.58 319.546C411.991 319.864 412.485 320.059 413.002 320.108C413.52 320.157 414.041 320.058 414.504 319.822C414.968 319.586 415.355 319.224 415.621 318.777C416.224 318.036 416.636 318.228 417.213 318.777C417.821 319.233 418.333 319.805 418.719 320.46C419.106 321.115 419.358 321.839 419.464 322.592C419.464 323.416 419.711 324.185 420.754 323.992C421.797 323.8 421.769 322.977 421.632 322.208C421.459 321.019 421.019 319.885 420.343 318.891C419.668 317.897 418.776 317.07 417.734 316.471Z" fill="black"></path><path d="M432.804 411.118L384.08 410.048L392.699 366.402L380.539 355.313L392.095 343.317L405.985 354.105L429.62 353.501L431.404 364.014L432.804 411.118Z" fill="#955AE6" stroke="black" stroke-width="2.8" stroke-linecap="round" stroke-linejoin="round"></path><path d="M349.904 317.926L346.528 311.366L344.222 306.919C343.846 306.206 343.761 305.375 343.987 304.602C344.212 303.828 344.73 303.172 345.43 302.774C345.766 302.575 346.141 302.45 346.529 302.407C346.917 302.365 347.31 302.405 347.681 302.527C348.064 302.632 348.419 302.819 348.722 303.075C349.025 303.331 349.269 303.65 349.438 304.009L351.881 308.813L355.23 315.346L355.641 316.169L355.23 315.373L351.881 308.868L349.41 304.064C349.216 303.711 349.093 303.323 349.051 302.922C349.008 302.522 349.047 302.116 349.163 301.731C349.268 301.349 349.448 300.991 349.694 300.68C349.939 300.369 350.244 300.11 350.591 299.919C350.927 299.72 351.301 299.595 351.689 299.553C352.078 299.51 352.47 299.551 352.842 299.672C353.223 299.788 353.577 299.979 353.883 300.233C354.19 300.488 354.442 300.801 354.626 301.154L357.371 306.26L365.414 321.714L392.123 343.455L380.566 355.45L348.285 328.22L344.524 320.754L341.148 314.166L339.034 310.075C338.658 309.363 338.573 308.532 338.799 307.758C339.024 306.985 339.542 306.329 340.242 305.931C340.582 305.75 340.955 305.638 341.338 305.602C341.722 305.566 342.109 305.607 342.477 305.722C342.844 305.837 343.186 306.024 343.48 306.272C343.775 306.519 344.018 306.823 344.195 307.166L346.473 311.585L349.877 318.146" fill="#EDD9CA"></path><path d="M349.904 317.926L346.528 311.366L344.222 306.919C343.846 306.206 343.761 305.375 343.987 304.602C344.212 303.828 344.73 303.172 345.43 302.774V302.774C345.766 302.575 346.141 302.45 346.529 302.407C346.917 302.365 347.31 302.405 347.681 302.527C348.064 302.632 348.419 302.819 348.722 303.075C349.025 303.331 349.269 303.65 349.438 304.009L351.881 308.813L355.23 315.346L355.641 316.169L355.23 315.373L351.881 308.868L349.41 304.064C349.216 303.711 349.093 303.323 349.051 302.922C349.008 302.522 349.047 302.116 349.163 301.731C349.268 301.349 349.448 300.991 349.694 300.68C349.939 300.369 350.244 300.11 350.591 299.919V299.919C350.927 299.72 351.301 299.595 351.689 299.553C352.078 299.51 352.47 299.551 352.842 299.672C353.223 299.788 353.577 299.979 353.883 300.233C354.19 300.488 354.442 300.801 354.626 301.154L357.371 306.26L365.414 321.714L392.123 343.455L380.566 355.45L348.285 328.22L344.524 320.754L341.148 314.166L339.034 310.075C338.658 309.363 338.573 308.532 338.799 307.758C339.024 306.985 339.542 306.329 340.242 305.931V305.931C340.582 305.75 340.955 305.638 341.338 305.602C341.722 305.566 342.109 305.607 342.477 305.722C342.844 305.837 343.186 306.024 343.48 306.272C343.775 306.519 344.018 306.823 344.195 307.166L346.473 311.585L349.877 318.146" stroke="black" stroke-width="2.8" stroke-linecap="round" stroke-linejoin="round"></path><path d="M311.942 188.966H130.059V487.704H311.942V188.966Z" fill="white" stroke="black" stroke-width="2.8" stroke-miterlimit="10" stroke-linecap="round"></path><path d="M241.038 188.664H281.444C283.21 188.665 284.939 188.159 286.424 187.205C287.91 186.25 289.089 184.889 289.821 183.282C290.554 181.676 290.808 179.892 290.554 178.145C290.3 176.397 289.548 174.76 288.389 173.429L275.131 158.194L244.304 154.241V160.692C244.307 163.36 245.203 165.951 246.85 168.051C248.496 170.15 250.799 171.638 253.39 172.276L260.61 173.429H217.678V195.608L225.913 208.675L233.516 188.664H241.038Z" fill="#B1EFEA" stroke="black" stroke-width="2.8" stroke-miterlimit="10"></path><path d="M282.487 67.8569C283.398 68.2957 284.225 68.8903 284.93 69.6137C287.651 71.8307 289.791 74.6754 291.168 77.903C292.546 81.1307 293.118 84.6447 292.836 88.1425L292.699 89.3777L298.189 90.4757C298.496 90.5541 298.792 90.6742 299.067 90.8326C299.671 91.1678 300.153 91.6859 300.444 92.3122C300.735 92.9386 300.82 93.6411 300.687 94.3187C300.602 94.7341 300.435 95.1286 300.197 95.4794C299.959 95.8301 299.654 96.1303 299.299 96.3625C298.944 96.5947 298.547 96.7544 298.131 96.8324C297.714 96.9103 297.286 96.905 296.871 96.8167L290.969 95.6638L290.475 96.5971C289.981 97.5304 289.377 98.4088 288.801 99.3421L287.895 100.468C287.035 101.496 286.118 102.477 285.15 103.405C281.117 106.75 276.034 108.568 270.794 108.538H269.586L267.28 121.686L259.923 118.036L261.927 106.891L260.994 106.397C259.949 105.858 258.957 105.224 258.029 104.503C255.148 102.458 252.803 99.7487 251.192 96.6043C249.582 93.4599 248.754 89.9733 248.779 86.4406C248.707 85.4445 248.707 84.4446 248.779 83.4485" fill="#EDE5D1"></path><path d="M282.487 67.8569C283.398 68.2957 284.225 68.8903 284.93 69.6137C287.651 71.8307 289.791 74.6754 291.168 77.903C292.546 81.1307 293.118 84.6447 292.836 88.1425L292.699 89.3777L298.189 90.4757C298.496 90.5541 298.792 90.6742 299.067 90.8326C299.671 91.1678 300.153 91.6859 300.444 92.3122C300.735 92.9386 300.82 93.6411 300.687 94.3187C300.602 94.7341 300.435 95.1286 300.197 95.4794C299.959 95.8301 299.654 96.1303 299.299 96.3625C298.944 96.5947 298.547 96.7544 298.131 96.8324C297.714 96.9103 297.286 96.905 296.871 96.8167L290.969 95.6638L290.475 96.5971C289.981 97.5304 289.377 98.4088 288.801 99.3421L287.895 100.468C287.035 101.496 286.118 102.477 285.15 103.405C281.117 106.75 276.034 108.568 270.794 108.538H269.586L267.28 121.686L259.923 118.036L261.927 106.891L260.994 106.397C259.949 105.858 258.957 105.224 258.029 104.503C255.148 102.458 252.803 99.7487 251.192 96.6043C249.582 93.4599 248.754 89.9733 248.779 86.4406C248.707 85.4445 248.707 84.4446 248.779 83.4485" stroke="black" stroke-width="2.8" stroke-linecap="round" stroke-linejoin="round"></path><path d="M279.88 87.5924L284.519 87.1807" stroke="black" stroke-width="2.8" stroke-miterlimit="10" stroke-linecap="round"></path><path d="M270.411 88.0049C269.389 87.6902 268.304 87.6336 267.254 87.8402C265.556 88.1871 264.054 89.1689 263.055 90.5852C262.093 92.0301 261.739 93.7947 262.066 95.4988C262.21 96.1618 262.45 96.8 262.78 97.3928" stroke="black" stroke-width="2.8" stroke-linecap="round" stroke-linejoin="round"></path><path d="M284.932 103.349C281.619 103.101 278.393 102.166 275.461 100.604C274.358 100.021 273.302 99.3506 272.305 98.6001" fill="white"></path><path d="M284.932 103.349C281.619 103.101 278.393 102.166 275.461 100.604C274.358 100.021 273.302 99.3506 272.305 98.6001" stroke="black" stroke-width="2.8" stroke-linecap="round" stroke-linejoin="round"></path><path d="M241.34 154.242L253.088 114.412L272.935 118.31L305.957 145.348L292.342 157.81L275.405 146.72L275.131 158.194L241.34 154.242Z" fill="#00DBD9" stroke="black" stroke-width="2.8" stroke-miterlimit="10"></path><path d="M260.281 55.4217C263.936 55.553 267.561 56.1432 271.069 57.1785C274.288 58.3523 277.647 59.0998 281.06 59.402C281.977 59.3113 282.902 59.4098 283.779 59.6914C284.656 59.9731 285.466 60.4318 286.158 61.0391C286.85 61.6465 287.41 62.3896 287.804 63.2223C288.197 64.0551 288.415 64.9597 288.444 65.8802C288.437 67.7974 287.671 69.6336 286.312 70.9867C284.954 72.3398 283.115 73.0996 281.198 73.0995H272.963C272.966 74.4248 272.708 75.7378 272.204 76.9632C271.699 78.1886 270.958 79.3024 270.022 80.2408C269.086 81.1792 267.974 81.9237 266.75 82.4317C265.526 82.9397 264.214 83.2011 262.889 83.2011H259.1C257.539 83.1877 256.024 83.734 254.831 84.7411C253.637 85.7483 252.844 87.1496 252.595 88.6911C252.483 89.5099 252.428 90.3353 252.43 91.1616V94.5654H249.054C246.309 94.5654 246.611 91.1891 246.309 89.3225C245.622 86.4402 244.799 83.6129 244.14 80.7306C243.088 76.672 242.863 72.4429 243.481 68.2958C243.966 65.9564 244.953 63.7503 246.375 61.8306C247.797 59.9108 249.62 58.3235 251.716 57.1785C254.377 55.8783 257.323 55.2739 260.281 55.4217Z" fill="black"></path><path d="M309.279 170.19C310.047 170.74 310.969 171.035 311.914 171.035C312.859 171.035 313.781 170.74 314.549 170.19C314.809 170 315.027 169.758 315.187 169.479C315.348 169.2 315.449 168.89 315.483 168.57C315.483 168.221 315.392 167.878 315.218 167.574C315.045 167.271 314.795 167.018 314.494 166.841L304.804 159.484L314.467 166.841C315.239 167.383 316.159 167.674 317.102 167.674C318.045 167.674 318.965 167.383 319.737 166.841C319.997 166.651 320.215 166.409 320.375 166.13C320.536 165.851 320.637 165.542 320.671 165.221C320.671 164.872 320.58 164.529 320.407 164.225C320.233 163.922 319.984 163.669 319.682 163.492L310.185 155.943L309.8 155.586L319.49 162.971C320.262 163.513 321.182 163.804 322.125 163.804C323.069 163.804 323.989 163.513 324.761 162.971C325.021 162.775 325.239 162.528 325.4 162.245C325.56 161.961 325.66 161.648 325.694 161.324C325.687 160.979 325.593 160.643 325.42 160.345C325.247 160.047 325.001 159.798 324.706 159.622L305.957 145.485L291.244 157.179L309.279 170.19Z" fill="#EDE5D1" stroke="black" stroke-width="2.8" stroke-linecap="round" stroke-linejoin="round"></path><path d="M311.915 290.174H130.059" stroke="black" stroke-width="2.8" stroke-miterlimit="10" stroke-linecap="round"></path><path d="M163.905 228.768H147.957V289.762H163.905V228.768Z" fill="#CDF7D3" stroke="black" stroke-width="2.8" stroke-miterlimit="10" stroke-linecap="round"></path><path d="M179.853 221.686H163.904V289.789H179.853V221.686Z" fill="#F4E0EC" stroke="black" stroke-width="2.8" stroke-miterlimit="10" stroke-linecap="round"></path><path d="M195.773 232.474H179.824V289.79H195.773V232.474Z" fill="#F7C8FC" stroke="black" stroke-width="2.8" stroke-miterlimit="10" stroke-linecap="round"></path><path d="M228.851 228.774L214.314 235.334L237.892 287.576L252.428 281.016L228.851 228.774Z" fill="#FED900" stroke="black" stroke-width="2.8" stroke-miterlimit="10" stroke-linecap="round"></path><path d="M141.719 481.159L156.256 487.72L179.833 435.478L165.296 428.918L141.719 481.159Z" fill="#00DBD9" stroke="black" stroke-width="2.8" stroke-miterlimit="10" stroke-linecap="round"></path><path d="M211.722 213.726H195.773V289.762H211.722V213.726Z" fill="#B689F2" stroke="black" stroke-width="2.8" stroke-miterlimit="10" stroke-linecap="round"></path><path d="M195.773 277.163H211.722" stroke="black" stroke-width="2.8" stroke-miterlimit="10" stroke-linecap="round"></path><path d="M195.773 270.3H211.722" stroke="black" stroke-width="2.8" stroke-miterlimit="10" stroke-linecap="round"></path><path d="M179.824 242.411H195.773" stroke="black" stroke-width="2.8" stroke-miterlimit="10" stroke-linecap="round"></path><path d="M179.824 252.677H195.773" stroke="black" stroke-width="2.8" stroke-miterlimit="10" stroke-linecap="round"></path><path d="M163.904 282.049H179.825" stroke="black" stroke-width="2.8" stroke-miterlimit="10" stroke-linecap="round"></path><path d="M163.904 236.976H179.825" stroke="black" stroke-width="2.8" stroke-miterlimit="10" stroke-linecap="round"></path><path d="M153.115 229.29V289.131" stroke="black" stroke-width="2.8" stroke-miterlimit="10" stroke-linecap="round"></path><path d="M158.496 229.29V289.131" stroke="black" stroke-width="2.8" stroke-miterlimit="10" stroke-linecap="round"></path><path d="M311.915 389.131H130.059" stroke="black" stroke-width="2.8" stroke-miterlimit="10" stroke-linecap="round"></path><path d="M258.745 388.747H274.693V320.644H258.745V388.747Z" fill="#B1EFEA" stroke="black" stroke-width="2.8" stroke-miterlimit="10" stroke-linecap="round"></path><path d="M242.821 388.747H258.77V331.431H242.821V388.747Z" fill="#F8F2CE" stroke="black" stroke-width="2.8" stroke-miterlimit="10" stroke-linecap="round"></path><path d="M155.916 373.182V389.131H213.232V373.182H155.916Z" fill="#F4E0EC" stroke="black" stroke-width="2.8" stroke-miterlimit="10" stroke-linecap="round"></path><path d="M146.445 357.261V373.21H203.761V357.261H146.445Z" fill="#F8F2CE" stroke="black" stroke-width="2.8" stroke-miterlimit="10" stroke-linecap="round"></path><path d="M226.874 388.747H242.822V312.711H226.874V388.747Z" fill="#00DBD9" stroke="black" stroke-width="2.8" stroke-miterlimit="10" stroke-linecap="round"></path><path d="M242.823 376.12H226.875" stroke="black" stroke-width="2.8" stroke-miterlimit="10" stroke-linecap="round"></path><path d="M242.823 338.102H226.875" stroke="black" stroke-width="2.8" stroke-miterlimit="10" stroke-linecap="round"></path><path d="M258.771 341.368H242.822" stroke="black" stroke-width="2.8" stroke-miterlimit="10" stroke-linecap="round"></path><path d="M258.771 358.003H242.822" stroke="black" stroke-width="2.8" stroke-miterlimit="10" stroke-linecap="round"></path><path d="M196.981 485.865H212.93V428.55H196.981V485.865Z" fill="#CDF7D3" stroke="black" stroke-width="2.8" stroke-miterlimit="10" stroke-linecap="round"></path><path d="M212.956 438.486H197.008" stroke="black" stroke-width="2.8" stroke-miterlimit="10" stroke-linecap="round"></path><path d="M212.956 455.121H197.008" stroke="black" stroke-width="2.8" stroke-miterlimit="10" stroke-linecap="round"></path><path d="M274.718 341.368H258.77" stroke="black" stroke-width="2.8" stroke-miterlimit="10" stroke-linecap="round"></path><path d="M274.718 335.933H258.77" stroke="black" stroke-width="2.8" stroke-miterlimit="10" stroke-linecap="round"></path><path d="M228.905 426.71H212.957V487.704H228.905V426.71Z" fill="#B1EFEA" stroke="black" stroke-width="2.8" stroke-miterlimit="10" stroke-linecap="round"></path><path d="M218.117 427.204V487.073" stroke="black" stroke-width="2.8" stroke-miterlimit="10" stroke-linecap="round"></path><path d="M223.498 427.204V487.073" stroke="black" stroke-width="2.8" stroke-miterlimit="10" stroke-linecap="round"></path><path d="M195.773 405.739H179.824V487.704H195.773V405.739Z" fill="#B1EFEA" stroke="black" stroke-width="2.8" stroke-miterlimit="10" stroke-linecap="round"></path><path d="M184.986 406.425V486.853" stroke="black" stroke-width="2.8" stroke-miterlimit="10" stroke-linecap="round"></path><path d="M190.393 406.425V486.853" stroke="black" stroke-width="2.8" stroke-miterlimit="10" stroke-linecap="round"></path><path d="M195.773 357.234V373.183" stroke="black" stroke-width="2.8" stroke-miterlimit="10" stroke-linecap="round"></path><path d="M160.967 438.486L175.488 445.074" stroke="black" stroke-width="2.8" stroke-miterlimit="10" stroke-linecap="round"></path></svg>