<svg xmlns="http://www.w3.org/2000/svg" width="508" height="550" viewBox="0 0 508 550" fill="none"><path d="M518.67 196.625H308.226V526H518.67" fill="white"></path><path d="M518.67 196.625H308.226V526H518.67" stroke="black" stroke-width="4.03241" stroke-linecap="round" stroke-linejoin="round"></path><path d="M517.769 53.2949L309.072 196.625H517.824" fill="#F7C8FC"></path><path d="M517.769 53.2949L309.072 196.625H517.824" stroke="black" stroke-width="4" stroke-linecap="round" stroke-linejoin="round"></path><path d="M383.763 243.871H451.825V338.636H383.763V243.871Z" fill="white" stroke="black" stroke-width="4" stroke-linecap="round" stroke-linejoin="round"></path><path d="M417.807 244.31V336.325" stroke="black" stroke-width="4" stroke-linecap="round" stroke-linejoin="round"></path><path d="M451.825 291.253H383.763" stroke="black" stroke-width="4" stroke-linecap="round" stroke-linejoin="round"></path><path d="M383.763 385.302H451.825V480.067H383.763V385.302Z" fill="white" stroke="black" stroke-width="4" stroke-linecap="round" stroke-linejoin="round"></path><path d="M417.807 385.743V477.758" stroke="black" stroke-width="4" stroke-linecap="round" stroke-linejoin="round"></path><path d="M451.825 432.685H383.763" stroke="black" stroke-width="4" stroke-linecap="round" stroke-linejoin="round"></path><path d="M322.768 158.043L180.868 477.07" stroke="black" stroke-width="5.7297" stroke-miterlimit="10" stroke-linecap="round"></path><path d="M299.009 161.206L169.731 457.051" stroke="black" stroke-width="5.7297" stroke-miterlimit="10" stroke-linecap="round"></path><path d="M192.555 450.781L173.937 447.426" stroke="black" stroke-width="5.7297" stroke-miterlimit="10" stroke-linecap="round"></path><path d="M203.555 425.728L184.91 422.29" stroke="black" stroke-width="5.7297" stroke-miterlimit="10" stroke-linecap="round"></path><path d="M214.583 400.674L195.911 397.154" stroke="black" stroke-width="5.7297" stroke-miterlimit="10" stroke-linecap="round"></path><path d="M225.584 375.65L206.884 372.02" stroke="black" stroke-width="5.7297" stroke-miterlimit="10" stroke-linecap="round"></path><path d="M236.584 350.598L217.857 346.885" stroke="black" stroke-width="5.7297" stroke-miterlimit="10" stroke-linecap="round"></path><path d="M247.584 325.544L228.856 321.75" stroke="black" stroke-width="5.7297" stroke-miterlimit="10" stroke-linecap="round"></path><path d="M258.584 300.492L239.829 296.615" stroke="black" stroke-width="5.7297" stroke-miterlimit="10" stroke-linecap="round"></path><path d="M269.582 275.44L250.8 271.48" stroke="black" stroke-width="5.7297" stroke-miterlimit="10" stroke-linecap="round"></path><path d="M280.583 250.388L261.8 246.345" stroke="black" stroke-width="5.7297" stroke-miterlimit="10" stroke-linecap="round"></path><path d="M291.583 225.336L272.773 221.239" stroke="black" stroke-width="5.7297" stroke-miterlimit="10" stroke-linecap="round"></path><path d="M302.609 200.283L283.744 196.103" stroke="black" stroke-width="5.7297" stroke-miterlimit="10" stroke-linecap="round"></path><path d="M313.61 175.23L294.745 170.967" stroke="black" stroke-width="5.7297" stroke-miterlimit="10" stroke-linecap="round"></path><path d="M159.334 388.41C159.279 389.225 159.279 390.042 159.334 390.857C159.331 393.722 160.022 396.544 161.349 399.083C162.675 401.621 164.598 403.8 166.952 405.432C167.715 405.986 168.525 406.474 169.372 406.89L170.114 407.275L168.574 416.322L174.404 419.265L176.192 408.595H177.154C181.405 408.595 185.518 407.084 188.759 404.332C189.572 403.577 190.343 402.779 191.069 401.94L191.812 401.005C192.294 400.298 192.734 399.563 193.132 398.805L193.544 398.062L198.384 399.025C199.066 399.134 199.765 398.983 200.341 398.601C200.917 398.219 201.328 397.634 201.492 396.962C201.565 396.422 201.476 395.872 201.236 395.382C200.996 394.893 200.616 394.485 200.144 394.212C199.923 394.081 199.681 393.987 199.429 393.937L194.947 393.085V392.067C195.16 389.225 194.674 386.374 193.534 383.761C192.393 381.149 190.631 378.855 188.402 377.08C187.823 376.507 187.154 376.033 186.422 375.677" fill="#A67C52"></path><path d="M159.334 388.41C159.279 389.225 159.279 390.042 159.334 390.857C159.331 393.722 160.022 396.544 161.349 399.083C162.675 401.621 164.598 403.8 166.952 405.432C167.715 405.986 168.525 406.474 169.372 406.89L170.114 407.275L168.574 416.322L174.404 419.265L176.192 408.595H177.154C181.405 408.595 185.518 407.084 188.759 404.332C189.572 403.577 190.343 402.779 191.069 401.94L191.812 401.005C192.294 400.298 192.734 399.563 193.132 398.805L193.544 398.062L198.384 399.025C199.066 399.134 199.765 398.983 200.341 398.601C200.917 398.219 201.328 397.634 201.492 396.962C201.565 396.422 201.476 395.872 201.236 395.382C200.996 394.893 200.616 394.485 200.144 394.212C199.923 394.081 199.681 393.987 199.429 393.937L194.947 393.085V392.067C195.16 389.225 194.674 386.374 193.534 383.761C192.393 381.149 190.631 378.855 188.402 377.08C187.823 376.507 187.154 376.033 186.422 375.677" stroke="black" stroke-width="2.69" stroke-linecap="round" stroke-linejoin="round"></path><path d="M184.524 391.544L188.291 391.187" stroke="black" stroke-width="2.4479" stroke-miterlimit="10" stroke-linecap="round"></path><path d="M176.852 391.957C176.004 391.738 175.114 391.738 174.267 391.957C172.892 392.249 171.682 393.056 170.884 394.212C170.128 395.394 169.853 396.821 170.114 398.2C170.241 398.739 170.445 399.258 170.719 399.74" stroke="black" stroke-width="2.4479" stroke-miterlimit="10" stroke-linecap="round"></path><path d="M188.732 404.251C185.02 403.957 181.461 402.644 178.447 400.456L188.732 404.251Z" fill="white"></path><path d="M188.732 404.251C185.02 403.957 181.461 402.644 178.447 400.456" stroke="black" stroke-width="2.4479" stroke-miterlimit="10" stroke-linecap="round"></path><path d="M185.377 374.825C181.537 372.826 177.105 372.283 172.896 373.293C168.687 374.304 164.984 376.801 162.47 380.325C160.792 382.699 159.716 385.445 159.335 388.327C164.633 389.129 170.05 388.329 174.891 386.031C179.732 383.733 183.776 380.042 186.505 375.43C186.092 375.292 185.79 375.045 185.377 374.825Z" fill="black" stroke="black" stroke-width="2.9859" stroke-linecap="round" stroke-linejoin="round"></path><path d="M189.172 378.676C186.119 378.676 183.644 376.201 183.644 373.148C183.644 370.095 186.119 367.621 189.172 367.621C192.224 367.621 194.699 370.095 194.699 373.148C194.699 376.201 192.224 378.676 189.172 378.676Z" fill="black"></path><path d="M181.72 383.048C178.667 383.048 176.192 380.573 176.192 377.52C176.192 374.467 178.667 371.993 181.72 371.993C184.772 371.993 187.247 374.467 187.247 377.52C187.247 380.573 184.772 383.048 181.72 383.048Z" fill="black"></path><path d="M175.808 386.981C172.756 386.981 170.281 384.506 170.281 381.453C170.281 378.401 172.756 375.926 175.808 375.926C178.861 375.926 181.336 378.401 181.336 381.453C181.336 384.506 178.861 386.981 175.808 386.981Z" fill="black"></path><path d="M169.949 390.225C166.896 390.225 164.422 387.75 164.422 384.697C164.422 381.645 166.896 379.17 169.949 379.17C173.002 379.17 175.477 381.645 175.477 384.697C175.477 387.75 173.002 390.225 169.949 390.225Z" fill="black"></path><path d="M162.526 393.168C159.473 393.168 156.999 390.693 156.999 387.64C156.999 384.588 159.473 382.113 162.526 382.113C165.579 382.113 168.054 384.588 168.054 387.64C168.054 390.693 165.579 393.168 162.526 393.168Z" fill="black"></path><path d="M155.842 392.838C152.789 392.838 150.314 390.363 150.314 387.31C150.314 384.257 152.789 381.783 155.842 381.783C158.894 381.783 161.369 384.257 161.369 387.31C161.369 390.363 158.894 392.838 155.842 392.838Z" fill="black"></path><path d="M155.704 400.235C152.651 400.235 150.176 397.76 150.176 394.708C150.176 391.655 152.651 389.18 155.704 389.18C158.757 389.18 161.231 391.655 161.231 394.708C161.231 397.76 158.757 400.235 155.704 400.235Z" fill="black"></path><path d="M159.389 405.102C156.336 405.102 153.861 402.628 153.861 399.575C153.861 396.522 156.336 394.047 159.389 394.047C162.441 394.047 164.916 396.522 164.916 399.575C164.916 402.628 162.441 405.102 159.389 405.102Z" fill="black"></path><path d="M162.058 396.247C159.006 396.247 156.531 393.772 156.531 390.719C156.531 387.667 159.006 385.192 162.058 385.192C165.111 385.192 167.586 387.667 167.586 390.719C167.586 393.772 165.111 396.247 162.058 396.247Z" fill="black"></path><path d="M157.684 384.202C154.632 384.202 152.157 381.728 152.157 378.675C152.157 375.622 154.632 373.147 157.684 373.147C160.737 373.147 163.212 375.622 163.212 378.675C163.212 381.728 160.737 384.202 157.684 384.202Z" fill="black"></path><path d="M162.994 385.029C159.941 385.029 157.466 382.554 157.466 379.501C157.466 376.448 159.941 373.974 162.994 373.974C166.047 373.974 168.521 376.448 168.521 379.501C168.521 382.554 166.047 385.029 162.994 385.029Z" fill="black"></path><path d="M165.75 376.72C165.03 373.753 168.011 370.482 172.409 369.414C176.807 368.346 180.957 369.885 181.677 372.852C182.397 375.818 179.416 379.089 175.018 380.157C170.62 381.225 166.47 379.686 165.75 376.72Z" fill="black"></path><path d="M164.862 378.62C161.809 378.62 159.335 376.145 159.335 373.092C159.335 370.04 161.809 367.565 164.862 367.565C167.915 367.565 170.39 370.04 170.39 373.092C170.39 376.145 167.915 378.62 164.862 378.62Z" fill="black"></path><path d="M173.359 375.43C170.306 375.43 167.832 372.955 167.832 369.902C167.832 366.85 170.306 364.375 173.359 364.375C176.412 364.375 178.887 366.85 178.887 369.902C178.887 372.955 176.412 375.43 173.359 375.43Z" fill="black"></path><path d="M182.517 374.797C179.465 374.797 176.99 372.322 176.99 369.27C176.99 366.217 179.465 363.742 182.517 363.742C185.57 363.742 188.045 366.217 188.045 369.27C188.045 372.322 185.57 374.797 182.517 374.797Z" fill="black"></path><path d="M193.545 526.35H166.045V488.51C162.8 482.795 160.181 476.747 158.235 470.47C155.705 461.505 158.235 457.243 158.235 457.243L183.287 467.033L183.755 516.533L193.545 526.35Z" fill="#F7C8FC" stroke="black" stroke-width="2.69" stroke-linecap="round" stroke-linejoin="round"></path><path d="M156.007 459.249L163.267 412.857L185.459 421.464L200.419 435.929L201.382 428.449L218.734 437.057L217.607 449.597C217.607 452.164 216.587 454.626 214.772 456.442C212.956 458.257 210.494 459.277 207.927 459.277C205.166 459.123 202.564 457.935 200.639 455.949L182.352 437.002L187.384 471.102L156.007 459.249Z" fill="#FED900" stroke="black" stroke-width="2.69" stroke-miterlimit="10"></path><path d="M204.353 402.435C204.449 401.686 204.831 401.004 205.419 400.532C206.007 400.059 206.755 399.833 207.506 399.9C208.258 399.968 208.954 400.324 209.448 400.894C209.942 401.464 210.196 402.204 210.156 402.957V403.672C210.291 402.917 210.72 402.247 211.349 401.809C211.979 401.37 212.756 401.2 213.511 401.335C214.266 401.47 214.936 401.899 215.375 402.528C215.813 403.157 215.983 403.935 215.848 404.69L215.656 406.89C215.68 406.498 215.783 406.115 215.957 405.763C216.131 405.412 216.374 405.099 216.672 404.843C216.969 404.586 217.314 404.392 217.688 404.271C218.061 404.151 218.455 404.106 218.846 404.14C219.238 404.156 219.622 404.253 219.975 404.423C220.329 404.593 220.643 404.834 220.901 405.13C221.158 405.426 221.352 405.771 221.472 406.144C221.591 406.518 221.634 406.912 221.596 407.302L220.193 422.592L218.846 436.865L201.383 430.21L204.353 402.435Z" fill="#A67C52" stroke="black" stroke-width="2.69" stroke-linecap="round" stroke-linejoin="round"></path><path d="M215.602 406.89L214.034 422.152" stroke="black" stroke-width="2.6093" stroke-miterlimit="10" stroke-linecap="round"></path><path d="M210.155 403.618L208.588 418.908" stroke="black" stroke-width="2.6093" stroke-miterlimit="10" stroke-linecap="round"></path><path d="M304.562 169.208L316.25 194.425L303.27 220L308.275 230.148L300.547 231.385L291.197 222.75L298.925 192.913L292.242 184.25L293.59 208.12L285.202 238.37L297.247 248.188L285.45 251.873L270.462 243.21L273.487 231L278.987 202.4L277.75 197.753C274.537 187.353 272.959 176.517 273.075 165.633V165.385L304.562 169.208Z" fill="#CDF7D3" stroke="black" stroke-width="2.69" stroke-linecap="round" stroke-linejoin="round"></path><path d="M286.631 103.318C286.56 104.169 286.56 105.024 286.631 105.875C286.66 108.906 287.426 111.885 288.863 114.553C290.3 117.222 292.366 119.501 294.881 121.193C295.689 121.746 296.534 122.242 297.411 122.678L298.208 123.09L296.668 132.633L302.801 135.685L304.616 124.438H305.633C310.108 124.389 314.423 122.763 317.816 119.845C318.668 119.046 319.475 118.201 320.236 117.315L321.006 116.325C321.506 115.581 321.966 114.81 322.381 114.015L322.793 113.218L327.908 114.18C328.266 114.252 328.635 114.251 328.992 114.179C329.35 114.107 329.69 113.965 329.992 113.76C330.294 113.555 330.552 113.292 330.751 112.987C330.951 112.681 331.088 112.339 331.153 111.98C331.262 111.401 331.181 110.803 330.924 110.273C330.666 109.743 330.245 109.31 329.723 109.038C329.483 108.898 329.224 108.796 328.953 108.735L324.251 107.883V106.81C324.442 103.816 323.904 100.821 322.683 98.0811C321.461 95.3413 319.593 92.9388 317.238 91.0801C316.627 90.4823 315.921 89.9898 315.148 89.6226" fill="#F4E0EC"></path><path d="M286.631 103.318C286.56 104.169 286.56 105.024 286.631 105.875C286.66 108.906 287.426 111.885 288.863 114.553C290.3 117.222 292.366 119.501 294.881 121.193C295.689 121.746 296.534 122.242 297.411 122.678L298.208 123.09L296.668 132.633L302.801 135.685L304.616 124.438H305.633C310.108 124.389 314.423 122.763 317.816 119.845C318.668 119.046 319.475 118.201 320.236 117.315L321.006 116.325C321.506 115.581 321.966 114.81 322.381 114.015L322.793 113.218L327.908 114.18C328.266 114.252 328.635 114.251 328.992 114.179C329.35 114.107 329.69 113.965 329.992 113.76C330.294 113.555 330.552 113.292 330.751 112.987C330.951 112.681 331.088 112.339 331.153 111.98V111.98C331.262 111.401 331.181 110.803 330.924 110.273C330.666 109.743 330.245 109.31 329.723 109.038C329.483 108.898 329.224 108.796 328.953 108.735L324.251 107.883V106.81C324.442 103.816 323.904 100.821 322.683 98.0811C321.461 95.3413 319.593 92.9388 317.238 91.0801C316.627 90.4823 315.921 89.9898 315.148 89.6226" stroke="black" stroke-width="2.69" stroke-linecap="round" stroke-linejoin="round"></path><path d="M313.143 106.424L317.131 106.012" stroke="black" stroke-width="2.69" stroke-miterlimit="10" stroke-linecap="round"></path><path d="M302.032 110.908C301.544 111.038 301.086 111.262 300.685 111.568C300.404 111.799 300.173 112.083 300.003 112.404C299.833 112.725 299.728 113.077 299.695 113.438C299.694 113.791 299.775 114.138 299.933 114.454C300.09 114.769 300.32 115.043 300.602 115.253C300.839 115.448 301.109 115.597 301.4 115.693" stroke="black" stroke-width="2.69" stroke-miterlimit="10" stroke-linecap="round"></path><path d="M317.678 119.818C314.799 119.659 311.987 118.89 309.428 117.563C308.465 117.083 307.545 116.522 306.678 115.885" fill="white"></path><path d="M317.678 119.818C314.799 119.659 311.987 118.89 309.428 117.563C308.465 117.083 307.545 116.522 306.678 115.885" stroke="black" stroke-width="2.69" stroke-miterlimit="10" stroke-linecap="round"></path><path d="M286.604 105.875L282.947 125.4L275.494 115.885L286.604 105.875Z" fill="#FF965C" stroke="black" stroke-width="2.69" stroke-linecap="round" stroke-linejoin="round"></path><path d="M288.447 97.2129L271.782 106.7L273.02 97.2129H288.447Z" fill="#FF965C" stroke="black" stroke-width="2.69" stroke-linecap="round" stroke-linejoin="round"></path><path d="M320.347 88.1921C321.98 89.7541 323.288 91.6232 324.197 93.6921C324.327 93.972 324.395 94.2771 324.395 94.5858C324.395 94.8946 324.327 95.1997 324.197 95.4796C323.537 96.4971 321.447 96.6346 320.512 97.1021C318.724 97.8516 316.886 98.4764 315.012 98.9721C311.424 99.9204 307.722 100.365 304.012 100.292C302.472 100.292 304.012 103.51 303.049 104.967C302.087 106.425 297.907 104.17 297.164 105.352C296.037 107.167 293.617 111.265 290.949 110.852C288.007 109.863 285.359 108.152 283.249 105.875C283.249 105.875 281.902 87.9446 295.899 85.6896C309.897 83.4346 315.974 82.9946 320.347 88.1921Z" fill="#FF965C" stroke="black" stroke-width="2.69" stroke-linecap="round" stroke-linejoin="round"></path><path d="M311.108 135.85L321.75 151.553L309.925 157.74H304.26L305.855 170.088L272.305 167.338L280.06 137.885C280.838 135.061 282.659 132.638 285.156 131.106C287.652 129.575 290.638 129.049 293.508 129.635L296.258 130.213L311.108 135.85Z" fill="#B1EFEA" stroke="black" stroke-width="2.69" stroke-miterlimit="10" stroke-linecap="round"></path><path d="M327.003 173.938C325.693 174.622 324.211 174.909 322.74 174.763C321.596 174.556 320.516 174.082 319.59 173.38C318.663 172.678 317.914 171.767 317.405 170.721C316.388 168.988 309.65 156.971 309.65 156.971L320.32 151.801L326.095 162.581L336.655 159.501C336.655 159.501 346.17 156.283 351.808 163.763C352.105 164.094 352.318 164.492 352.428 164.923C352.537 165.353 352.541 165.805 352.438 166.237C352.336 166.67 352.129 167.071 351.838 167.406C351.546 167.742 351.177 168.002 350.763 168.163C347.6 169.923 342.293 167.806 342.293 167.806L327.003 173.938Z" fill="#F4E0EC" stroke="black" stroke-width="2.69" stroke-linecap="round" stroke-linejoin="round"></path></svg>