<svg width="323" height="231" viewBox="0 0 323 231" fill="none" xmlns="http://www.w3.org/2000/svg">
<g clip-path="url(#clip0_250_308)">
<path d="M2.4502 144.633H320.03" stroke="black" stroke-width="4.9" stroke-linecap="round" stroke-linejoin="round"/>
<path d="M191.73 72.7705L191.41 72.4004C188.436 68.7116 184.121 66.3525 179.41 65.8403H179.29C177.256 65.6203 175.282 65.0199 173.47 64.0703C172.754 63.7028 172.062 63.2888 171.4 62.8306C170.259 61.9624 169.231 60.9545 168.34 59.8306L167.79 59.1606L162.67 61.9307C161.974 62.3058 161.159 62.3913 160.4 62.1685C159.642 61.9456 159.002 61.4326 158.62 60.7407L158.57 60.6504C158.376 60.3048 158.252 59.9245 158.205 59.5308C158.159 59.137 158.191 58.7377 158.3 58.3564C158.409 57.9752 158.592 57.6196 158.839 57.3096C159.086 56.9996 159.393 56.7412 159.74 56.5503L163.88 54.3105L155.33 43.7705L180.95 29.0703L190.74 42.9707C193.047 46.6607 194.213 50.95 194.09 55.3003V55.5405C193.893 60.4525 195.296 65.2954 198.09 69.3403" fill="white"/>
<path d="M191.73 72.7705L191.41 72.4004C188.436 68.7116 184.121 66.3525 179.41 65.8403H179.29C177.256 65.6203 175.282 65.0199 173.47 64.0703C172.754 63.7028 172.062 63.2888 171.4 62.8306C170.259 61.9624 169.231 60.9545 168.34 59.8306L167.79 59.1606L162.67 61.9307C161.974 62.3058 161.159 62.3913 160.4 62.1685C159.642 61.9456 159.002 61.4326 158.62 60.7407L158.57 60.6504C158.376 60.3048 158.252 59.9245 158.205 59.5308C158.159 59.137 158.191 58.7377 158.3 58.3564C158.409 57.9752 158.592 57.6196 158.839 57.3096C159.086 56.9996 159.393 56.7412 159.74 56.5503L163.88 54.3105L155.33 43.7705L180.95 29.0703L190.74 42.9707C193.047 46.6607 194.213 50.95 194.09 55.3003V55.5405C193.893 60.4525 195.296 65.2954 198.09 69.3403" stroke="black" stroke-width="4.05" stroke-miterlimit="10" stroke-linecap="round"/>
<path d="M171.128 51.6994C172.483 50.9646 172.985 49.271 172.25 47.9166C171.516 46.5622 169.822 46.0598 168.468 46.7946C167.113 47.5293 166.611 49.223 167.346 50.5774C168.08 51.9318 169.774 52.4341 171.128 51.6994Z" fill="black"/>
<path d="M184.16 29.3034C191.693 29.3034 197.8 23.1966 197.8 15.6634C197.8 8.13027 191.693 2.02344 184.16 2.02344C176.627 2.02344 170.52 8.13027 170.52 15.6634C170.52 23.1966 176.627 29.3034 184.16 29.3034Z" fill="black" stroke="black" stroke-width="4.05" stroke-miterlimit="10" stroke-linecap="round"/>
<path d="M251.88 123.912L192.6 118.572C192.6 118.572 181.47 117.682 175.42 126.502C173.776 128.898 172.686 131.629 172.227 134.499C171.769 137.368 171.954 140.303 172.77 143.092L193.47 195.462L223.92 184.462L208.24 146.462L232.89 148.522C232.89 148.522 243.52 149.062 249.37 139.632C250.908 137.353 251.929 134.765 252.363 132.049C252.796 129.334 252.632 126.557 251.88 123.912Z" fill="#F9D94A" stroke="black" stroke-width="4.05" stroke-linecap="round" stroke-linejoin="round"/>
<path d="M189.6 103.1L189.78 102.9L191.1 101.61L177.29 92.0001L188.76 74.46C188.76 74.46 194.46 64.3401 205.4 65.0601C208.404 65.1936 211.335 66.0336 213.953 67.5123C216.572 68.9909 218.804 71.0663 220.47 73.5699L245.8 112.94L249.36 118.47L250.9 121.24L251.9 123.96L199.9 119.12L189.6 103.1Z" fill="black" stroke="black" stroke-width="4.05" stroke-miterlimit="10" stroke-linecap="round"/>
<path d="M156.13 133.82L95.25 134.34L97.73 142.44L158.56 141.92L156.13 133.82Z" fill="white" stroke="black" stroke-width="4.05" stroke-miterlimit="10" stroke-linecap="round"/>
<path d="M46.96 93.2966L61.84 142.737L97.73 142.437L95.25 134.337L67.01 134.577L55.13 93.2266L46.96 93.2966Z" fill="white" stroke="black" stroke-width="4.05" stroke-miterlimit="10" stroke-linecap="round"/>
<path d="M104.44 92.8131L55.1299 93.2331L67.0099 134.583L116.89 134.163L104.91 92.8131L104.38 92.4531" fill="#9CF0E8"/>
<path d="M104.44 92.8131L55.1299 93.2331L67.0099 134.583L116.89 134.163L104.91 92.8131L104.38 92.4531" stroke="black" stroke-width="4.05" stroke-linecap="round" stroke-linejoin="round"/>
<path d="M192.95 227.869L235.17 211.679L223.94 184.469L204.68 191.519L206.75 206.519L187.08 214.588C185.36 215.348 184.001 216.743 183.285 218.482C182.569 220.221 182.553 222.168 183.24 223.918C183.24 223.918 186.04 230.459 192.95 227.869Z" fill="white" stroke="black" stroke-width="4.05" stroke-miterlimit="10" stroke-linecap="round"/>
<path d="M177.29 91.9375L161.73 115.768L156.89 111.768C155.319 110.422 153.377 109.586 151.32 109.368C147.98 109.068 145.11 112.228 144.23 113.308C143.35 114.388 136.32 122.808 136.32 122.808C136.32 122.808 133.24 127.267 137.32 130.317C137.32 130.317 141.32 132.208 143.91 129.018L146.91 125.337L155.96 132.337C158.044 133.683 160.48 134.379 162.96 134.337C167.27 134.337 170.62 131.077 172.55 128.337C174.48 125.597 191.11 101.498 191.11 101.498L177.29 91.9375Z" fill="white" stroke="black" stroke-width="4.05" stroke-miterlimit="10" stroke-linecap="round"/>
<path d="M173.47 64.1021C175.378 63.6098 177.119 62.6142 178.51 61.2192C179.902 59.8243 180.893 58.0809 181.38 56.1719" fill="white"/>
<path d="M173.47 64.1021C175.378 63.6098 177.119 62.6142 178.51 61.2192C179.902 59.8243 180.893 58.0809 181.38 56.1719" stroke="black" stroke-width="4.05" stroke-miterlimit="10" stroke-linecap="round"/>
<path d="M180.51 32.6875L186.45 41.1275L164.3 41.9775L180.51 32.6875Z" fill="black"/>
<path d="M179.88 35.3574L182.61 39.2476L172.41 39.6377L179.88 35.3574ZM181.06 30.0176L156.12 44.3174L190.21 43.0078L181.06 30.0078V30.0176Z" fill="black"/>
</g>
<defs>
<clipPath id="clip0_250_308">
<rect width="322.48" height="230.5" fill="white"/>
</clipPath>
</defs>
</svg>
