<svg width="255" height="204" viewBox="0 0 255 204" fill="none" xmlns="http://www.w3.org/2000/svg">
<g clip-path="url(#clip0_250_30)">
<path d="M126.9 123.999L136.83 126.069L138.9 116.129C139.228 114.81 139.287 113.44 139.075 112.098C138.863 110.756 138.384 109.47 137.666 108.317C136.948 107.163 136.006 106.166 134.895 105.384C133.785 104.601 132.528 104.05 131.201 103.762C129.873 103.474 128.501 103.455 127.166 103.708C125.831 103.96 124.56 104.477 123.429 105.23C122.298 105.982 121.329 106.954 120.58 108.087C119.832 109.221 119.318 110.493 119.07 111.829C119.07 111.889 119.07 111.939 119.07 111.989L116.31 125.279C119.605 123.705 123.325 123.255 126.9 123.999Z" fill="white"/>
<path d="M165.39 121.606C165.706 120.29 165.756 118.925 165.536 117.589C165.317 116.254 164.833 114.976 164.112 113.831C163.391 112.686 162.449 111.696 161.34 110.92C160.232 110.144 158.979 109.598 157.656 109.313C156.333 109.028 154.967 109.011 153.637 109.262C152.308 109.513 151.042 110.028 149.914 110.775C148.786 111.523 147.819 112.488 147.069 113.615C146.32 114.742 145.803 116.007 145.55 117.336C145.545 117.379 145.545 117.423 145.55 117.466L143.48 127.406L163.35 131.536L165.39 121.606Z" fill="white"/>
<path d="M171.88 140.238L125.52 130.578C124.205 130.28 122.844 130.246 121.516 130.479C120.188 130.712 118.92 131.207 117.786 131.936C116.651 132.665 115.673 133.612 114.909 134.723C114.145 135.834 113.61 137.086 113.335 138.406C113.06 139.726 113.05 141.087 113.307 142.411C113.564 143.734 114.082 144.993 114.831 146.115C115.58 147.236 116.545 148.196 117.67 148.94C118.794 149.685 120.055 150.197 121.38 150.448L147.87 155.968C148.305 156.059 148.717 156.234 149.084 156.484C149.451 156.734 149.765 157.054 150.009 157.426C150.252 157.797 150.42 158.213 150.502 158.649C150.585 159.085 150.581 159.534 150.49 159.968C150.4 160.403 150.224 160.816 149.974 161.183C149.724 161.549 149.404 161.863 149.033 162.107C148.661 162.35 148.245 162.518 147.809 162.6C147.373 162.683 146.925 162.679 146.49 162.588L120 157.068C115.609 156.155 111.762 153.534 109.303 149.783C106.844 146.033 105.977 141.459 106.89 137.068L116.55 90.6984C117.03 88.0905 116.471 85.3983 114.991 83.1978C113.511 80.9972 111.23 79.463 108.633 78.9234C106.037 78.3837 103.333 78.8815 101.099 80.3103C98.8651 81.739 97.279 83.9852 96.6801 86.5684L84.3101 146.168C82.3024 155.827 84.2126 165.888 89.6207 174.139C95.0288 182.39 103.492 188.156 113.15 190.168L139.65 195.688C149.309 197.696 159.37 195.786 167.621 190.378C175.872 184.97 181.637 176.506 183.65 166.848L185.03 160.218C185.48 158.043 185.497 155.8 185.08 153.618C184.663 151.436 183.819 149.358 182.598 147.502C181.376 145.646 179.801 144.049 177.962 142.803C176.123 141.557 174.056 140.685 171.88 140.238Z" fill="white"/>
<path d="M192.31 75.3777C191.005 75.1056 189.66 75.0933 188.35 75.3416C187.041 75.5899 185.793 76.0939 184.679 76.8249C183.564 77.5558 182.605 78.4993 181.855 79.6014C181.105 80.7035 180.58 81.9426 180.31 83.2477L176.86 99.8077L169.96 132.918L173.27 133.608C176.357 134.25 179.284 135.505 181.877 137.299C184.471 139.092 186.679 141.387 188.37 144.048L196.73 103.948L200.17 87.3877C200.444 86.083 200.458 84.737 200.211 83.4269C199.964 82.1168 199.461 80.8683 198.731 79.7527C198.001 78.6372 197.058 77.6766 195.956 76.9259C194.854 76.1752 193.615 75.6491 192.31 75.3777Z" fill="white"/>
<path d="M193.68 68.7687C189.289 67.8551 184.716 68.7231 180.965 71.1817C177.214 73.6403 174.594 77.4881 173.68 81.8787L170.23 98.4287L168.17 108.369C165.203 105.003 161.022 102.952 156.545 102.667C152.067 102.382 147.659 103.886 144.29 106.849C143.348 104.837 142.019 103.031 140.379 101.533C138.739 100.036 136.82 98.8758 134.731 98.1199C132.643 97.364 130.426 97.0269 128.207 97.128C125.988 97.229 123.811 97.7662 121.8 98.7087L123.18 92.0887C123.633 89.9147 123.654 87.6727 123.24 85.4908C122.827 83.3088 121.988 81.2297 120.771 79.372C119.554 77.5144 117.983 75.9146 116.148 74.6641C114.313 73.4136 112.249 72.5368 110.075 72.0837C107.901 71.6307 105.659 71.6102 103.477 72.0236C101.295 72.437 99.2161 73.2761 97.3584 74.493C95.5008 75.7099 93.9011 77.2808 92.6505 79.116C91.4 80.9512 90.5232 83.0147 90.0701 85.1887L77.6401 144.799C75.2987 156.21 77.5688 168.085 83.9544 177.828C90.34 187.571 100.322 194.392 111.72 196.799L138.22 202.319C149.633 204.66 161.509 202.388 171.252 196.001C180.996 189.613 187.815 179.628 190.22 168.229L191.59 161.609L203.32 105.309L206.77 88.7487C207.678 84.3638 206.81 79.7978 204.356 76.0522C201.902 72.3065 198.063 69.6872 193.68 68.7687ZM145.53 117.479C146.061 114.841 147.617 112.522 149.857 111.032C152.097 109.542 154.838 109.003 157.475 109.534C160.113 110.064 162.432 111.621 163.922 113.861C165.412 116.101 165.951 118.841 165.42 121.479C165.415 121.525 165.415 121.572 165.42 121.619L163.35 131.549L143.48 127.409L145.53 117.479ZM119.03 111.959C119.561 109.318 121.118 106.997 123.36 105.505C125.602 104.013 128.345 103.473 130.985 104.004C133.625 104.534 135.947 106.092 137.439 108.334C138.93 110.576 139.471 113.318 138.94 115.959C138.934 116.012 138.934 116.066 138.94 116.119L136.87 126.049L126.94 123.979C123.345 123.241 119.606 123.705 116.3 125.299L119.03 111.959ZM185.03 160.249L183.65 166.869C181.637 176.527 175.872 184.99 167.621 190.398C159.37 195.806 149.309 197.716 139.65 195.709L113.15 190.199C103.494 188.184 95.0319 182.417 89.6242 174.167C84.2165 165.917 82.3052 155.857 84.3101 146.199L96.7301 86.5887C97.329 84.0056 98.9151 81.7593 101.149 80.3306C103.383 78.9019 106.087 78.4041 108.683 78.9437C111.28 79.4833 113.561 81.0175 115.041 83.2181C116.521 85.4186 117.08 88.1108 116.6 90.7187L106.94 137.089C106.027 141.479 106.894 146.053 109.353 149.804C111.812 153.555 115.659 156.175 120.05 157.089L146.54 162.609C146.975 162.699 147.423 162.703 147.859 162.621C148.296 162.538 148.711 162.37 149.083 162.127C149.454 161.884 149.774 161.57 150.024 161.203C150.274 160.836 150.449 160.423 150.54 159.989C150.631 159.554 150.635 159.106 150.552 158.669C150.47 158.233 150.302 157.818 150.059 157.446C149.815 157.075 149.501 156.755 149.134 156.505C148.767 156.255 148.355 156.079 147.92 155.989L121.43 150.469C120.105 150.217 118.844 149.705 117.72 148.961C116.595 148.217 115.63 147.256 114.881 146.135C114.132 145.014 113.614 143.755 113.357 142.431C113.1 141.108 113.11 139.746 113.385 138.426C113.66 137.106 114.195 135.854 114.959 134.743C115.723 133.633 116.701 132.685 117.836 131.957C118.97 131.228 120.238 130.732 121.566 130.499C122.894 130.266 124.255 130.3 125.57 130.599L171.93 140.259C174.105 140.71 176.169 141.585 178.005 142.835C179.841 144.085 181.413 145.684 182.631 147.541C183.848 149.399 184.688 151.478 185.101 153.66C185.515 155.842 185.494 158.085 185.04 160.259L185.03 160.249ZM200.21 87.3887L196.72 103.999L188.36 144.109C186.67 141.446 184.463 139.15 181.869 137.357C179.275 135.563 176.348 134.309 173.26 133.669L169.95 132.979L176.85 99.8587L180.3 83.2987C180.862 80.6911 182.428 78.4096 184.659 76.9476C186.89 75.4856 189.607 74.9607 192.222 75.4864C194.838 76.012 197.141 77.546 198.634 79.7566C200.127 81.9671 200.689 84.6765 200.2 87.2987V87.4287L200.21 87.3887Z" fill="black"/>
<path d="M56.45 65.7812C51.45 65.7812 47.51 69.0612 47.51 72.9412C47.51 76.8212 51.45 80.0912 56.45 80.0912C61.45 80.0912 65.45 76.8112 65.45 72.9412C65.45 69.0712 61.46 65.7812 56.45 65.7812Z" fill="white" stroke="black" stroke-miterlimit="10"/>
<path d="M63.97 22.711C63.8171 22.7091 63.6651 22.7328 63.52 22.7811L27.02 34.871C26.7322 34.9617 26.4805 35.1412 26.3008 35.3837C26.1212 35.6262 26.0229 35.9192 26.02 36.221V50.321L65.38 37.651V24.141C65.38 23.7652 65.2321 23.4045 64.9683 23.1369C64.7044 22.8693 64.3458 22.7163 63.97 22.711Z" fill="white" stroke="black" stroke-miterlimit="10"/>
<path d="M13.5201 72.9375C8.52008 72.9375 4.58008 76.2175 4.58008 80.0875C4.58008 83.9575 8.52008 87.2475 13.5201 87.2475C18.5201 87.2475 22.47 83.9575 22.47 80.0875C22.47 76.2175 18.5201 72.9375 13.5201 72.9375Z" fill="white" stroke="black" stroke-miterlimit="10"/>
<path d="M13.5198 91.3203C10.183 91.3644 6.93944 90.2195 4.36981 88.0903C3.16258 87.1355 2.18709 85.9197 1.51648 84.5342C0.845869 83.1488 0.497559 81.6296 0.497559 80.0903C0.497559 78.5511 0.845869 77.0318 1.51648 75.6464C2.18709 74.2609 3.16258 73.0452 4.36981 72.0903C6.8433 70.0996 9.89763 68.9682 13.0711 68.8671C16.2446 68.7661 19.3647 69.701 21.9598 71.5303V36.5303C21.9586 35.2998 22.3441 34.1 23.0619 33.1005C23.7797 32.101 24.7934 31.3523 25.9598 30.9603L61.7398 19.1203C62.333 18.9219 62.9543 18.8206 63.5798 18.8203C65.1367 18.8203 66.6297 19.4388 67.7305 20.5396C68.8314 21.6405 69.4498 23.1335 69.4498 24.6903V72.4803C69.4498 72.5803 69.4498 72.6903 69.4498 72.8003V72.9803C69.4324 74.5162 69.0765 76.0294 68.4076 77.4122C67.7387 78.7949 66.7732 80.0132 65.5798 80.9803C62.9863 83.0704 59.7557 84.2101 56.4248 84.2101C53.0939 84.2101 49.8634 83.0704 47.2698 80.9803C46.0626 80.0254 45.0871 78.8097 44.4165 77.4243C43.7459 76.0388 43.3975 74.5195 43.3975 72.9803C43.3975 71.4411 43.7459 69.9218 44.4165 68.5364C45.0871 67.1509 46.0626 65.9352 47.2698 64.9803C49.8394 62.8499 53.0822 61.7016 56.4198 61.7403C58.1588 61.7356 59.8852 62.0369 61.5198 62.6303C62.7134 63.066 63.8408 63.665 64.8698 64.4103V42.0903L26.5098 54.4403V79.5803V80.0803C26.4944 81.6166 26.1395 83.1305 25.4705 84.5135C24.8014 85.8966 23.8348 87.1146 22.6398 88.0803C20.0795 90.2063 16.8476 91.3545 13.5198 91.3203ZM13.5198 73.4403C11.3506 73.4053 9.23424 74.1108 7.51984 75.4403C6.77501 75.9634 6.16701 76.6581 5.74731 77.4658C5.32762 78.2734 5.10852 79.1702 5.10852 80.0803C5.10852 80.9905 5.32762 81.8873 5.74731 82.6949C6.16701 83.5025 6.77501 84.1972 7.51984 84.7203C9.25616 86.0327 11.3733 86.7429 13.5498 86.7429C15.7264 86.7429 17.8435 86.0327 19.5798 84.7203C20.3247 84.1972 20.9326 83.5025 21.3523 82.6949C21.772 81.8873 21.9911 80.9905 21.9911 80.0803C21.9911 79.1702 21.772 78.2734 21.3523 77.4658C20.9326 76.6581 20.3247 75.9634 19.5798 75.4403C17.8493 74.0978 15.7095 73.3916 13.5198 73.4403ZM56.4498 66.2803C54.2816 66.2517 52.1673 66.9565 50.4498 68.2803C49.705 68.8045 49.0971 69.5002 48.6775 70.3086C48.2579 71.117 48.0388 72.0145 48.0388 72.9253C48.0388 73.8361 48.2579 74.7336 48.6775 75.5421C49.0971 76.3505 49.705 77.0461 50.4498 77.5703C52.1916 78.8743 54.3089 79.579 56.4848 79.579C58.6607 79.579 60.778 78.8743 62.5198 77.5703C63.2647 77.0461 63.8726 76.3505 64.2922 75.5421C64.7118 74.7336 64.9308 73.8361 64.9308 72.9253C64.9308 72.0145 64.7118 71.117 64.2922 70.3086C63.8726 69.5002 63.2647 68.8045 62.5198 68.2803C60.7832 66.9421 58.6418 66.2366 56.4498 66.2803ZM63.9698 23.2103C63.8704 23.1952 63.7692 23.1952 63.6698 23.2103L27.1798 35.2903C26.9942 35.3512 26.8326 35.469 26.7177 35.627C26.6028 35.7849 26.5406 35.975 26.5398 36.1703V49.5803L64.8998 37.2303V24.1403C64.8998 23.8937 64.8018 23.6571 64.6274 23.4827C64.453 23.3083 64.2164 23.2103 63.9698 23.2103Z" fill="black"/>
<path d="M63.6099 19.27C63.036 19.2718 62.4658 19.3628 61.9199 19.54L26.14 31.39C25.0707 31.7461 24.1403 32.429 23.48 33.3422C22.8198 34.2555 22.463 35.353 22.46 36.48V72.57C19.9622 70.4611 16.7888 69.3216 13.52 69.36C6.66996 69.36 0.999939 74.08 0.999939 80.09C0.999939 86.1 6.66996 90.82 13.52 90.82C20.37 90.82 26.0399 86.1 26.0399 80.09V54.09L65.4 41.43V65.43C62.8898 63.3006 59.6912 62.1563 56.4 62.21C49.55 62.21 43.8799 66.94 43.8799 72.95C43.8799 78.96 49.55 83.68 56.4 83.68C63.25 83.68 68.9299 78.95 68.9299 72.95C68.9299 72.77 68.9299 72.6 68.9299 72.44V24.64C68.9313 23.9345 68.7933 23.2356 68.5239 22.5834C68.2545 21.9313 67.859 21.3388 67.36 20.8399C66.8611 20.341 66.2686 19.9455 65.6165 19.6761C64.9644 19.4067 64.2655 19.2687 63.5599 19.27M25.9899 50.32V36.22C25.9928 35.9182 26.0912 35.6252 26.2708 35.3827C26.4504 35.1402 26.7021 34.9607 26.9899 34.87L63.4899 22.78C63.635 22.7318 63.7871 22.7081 63.9399 22.71C64.3192 22.71 64.6829 22.8607 64.9511 23.1289C65.2193 23.397 65.3699 23.7608 65.3699 24.14V37.65L26.0099 50.32M56.4199 80.09C51.4199 80.09 47.4799 76.81 47.4799 72.94C47.4799 69.07 51.4199 65.78 56.4199 65.78C61.4199 65.78 65.4199 69.06 65.4199 72.94C65.4199 76.82 61.4799 80.09 56.4199 80.09ZM13.4899 87.25C8.48993 87.25 4.54993 83.96 4.54993 80.09C4.54993 76.22 8.48993 72.94 13.4899 72.94C18.4899 72.94 22.4299 76.22 22.4299 80.09C22.4299 83.96 18.4899 87.25 13.4899 87.25ZM63.58 18.25C64.9202 18.248 66.2268 18.6695 67.3133 19.4543C68.3998 20.2391 69.2106 21.347 69.6299 22.62C69.8414 23.2656 69.9494 23.9406 69.95 24.62V72.44C69.9449 72.5399 69.9449 72.6401 69.95 72.74V72.92C69.9345 74.524 69.5685 76.1051 68.8775 77.5527C68.1865 79.0003 67.1874 80.2793 65.95 81.3C63.2642 83.481 59.9097 84.6715 56.45 84.6715C52.9902 84.6715 49.6357 83.481 46.95 81.3C45.6878 80.2971 44.6684 79.0221 43.9677 77.5703C43.2669 76.1184 42.903 74.5271 42.903 72.915C42.903 71.3029 43.2669 69.7116 43.9677 68.2597C44.6684 66.8079 45.6878 65.533 46.95 64.53C49.6106 62.3276 52.9662 61.1405 56.4199 61.18C58.217 61.1748 60.0009 61.4862 61.6899 62.1C62.6269 62.4411 63.5252 62.8802 64.3699 63.41V42.78L27.0099 54.78V80.07C27.0007 81.6751 26.6374 83.2583 25.946 84.7068C25.2546 86.1553 24.2521 87.4334 23.0099 88.45C20.3226 90.6275 16.9688 91.8157 13.5099 91.8157C10.0511 91.8157 6.6973 90.6275 4.00995 88.45C2.74962 87.447 1.73176 86.1726 1.03217 84.7217C0.33257 83.2708 -0.0307617 81.6808 -0.0307617 80.07C-0.0307617 78.4593 0.33257 76.8692 1.03217 75.4183C1.73176 73.9674 2.74962 72.6931 4.00995 71.69C6.67452 69.4877 10.0333 68.3008 13.4899 68.34C16.2928 68.318 19.045 69.0874 21.4299 70.56V36.46C21.4369 35.1279 21.8627 33.8318 22.647 32.755C23.4312 31.6782 24.5342 30.8754 25.7999 30.46L61.58 18.61C62.2342 18.3894 62.9195 18.2747 63.6099 18.27L63.58 18.25ZM64.3699 36.9V24.14C64.3699 24.026 64.3247 23.9166 64.244 23.8359C64.1634 23.7553 64.054 23.71 63.9399 23.71H63.7999L27.3099 35.82C27.2237 35.8457 27.1479 35.8985 27.0939 35.9705C27.0399 36.0425 27.0105 36.13 27.0099 36.22V48.94L64.3699 36.9ZM56.3699 79.07C58.4383 79.1129 60.4583 78.4419 62.09 77.17C62.7789 76.6945 63.342 76.0589 63.731 75.3178C64.12 74.5766 64.3233 73.752 64.3233 72.915C64.3233 72.0779 64.12 71.2534 63.731 70.5123C63.342 69.7711 62.7789 69.1354 62.09 68.66C60.4396 67.4273 58.4349 66.7612 56.3749 66.7612C54.315 66.7612 52.3103 67.4273 50.6599 68.66C49.971 69.1354 49.4079 69.7711 49.0189 70.5123C48.6298 71.2534 48.4266 72.0779 48.4266 72.915C48.4266 73.752 48.6298 74.5766 49.0189 75.3178C49.4079 76.0589 49.971 76.6945 50.6599 77.17C52.3076 78.4645 54.3553 79.1436 56.45 79.09L56.3699 79.07ZM13.4399 86.23C15.5088 86.2652 17.5273 85.5912 19.1599 84.32C19.8448 83.8428 20.4042 83.2071 20.7905 82.4671C21.1768 81.7271 21.3785 80.9048 21.3785 80.07C21.3785 79.2353 21.1768 78.4129 20.7905 77.6729C20.4042 76.9329 19.8448 76.2972 19.1599 75.82C17.508 74.5865 15.5016 73.92 13.4399 73.92C11.3783 73.92 9.37182 74.5865 7.71991 75.82C7.03503 76.2972 6.47565 76.9329 6.08936 77.6729C5.70306 78.4129 5.50134 79.2353 5.50134 80.07C5.50134 80.9048 5.70306 81.7271 6.08936 82.4671C6.47565 83.2071 7.03503 83.8428 7.71991 84.32C9.37209 85.6143 11.4217 86.2963 13.52 86.25L13.4399 86.23Z" fill="black"/>
<path d="M243.93 64.6907C244.648 65.3268 245.538 65.7358 246.488 65.866C247.438 65.9963 248.406 65.8419 249.268 65.4224C250.131 65.0029 250.849 64.3371 251.333 63.5092C251.818 62.6813 252.045 61.7285 251.988 60.7712C251.931 59.8139 251.591 58.895 251.011 58.1307C250.432 57.3665 249.639 56.7912 248.733 56.4776C247.826 56.164 246.848 56.1261 245.92 56.3687C244.992 56.6113 244.157 57.1236 243.52 57.8408C242.668 58.8044 242.233 60.0665 242.309 61.3505C242.386 62.6345 242.969 63.8356 243.93 64.6907Z" fill="white" stroke="black" stroke-width="5" stroke-linecap="round" stroke-linejoin="round"/>
<path d="M223.64 47.5L224.94 47.81C226.343 42.0205 229.986 37.0238 235.068 33.9157C240.15 30.8076 246.257 29.8418 252.05 31.23L252.37 29.93C246.581 28.5218 241.585 24.8777 238.476 19.7952C235.367 14.7126 234.397 8.60546 235.78 2.81L234.48 2.5C233.07 8.2879 229.425 13.282 224.343 16.3907C219.261 19.4994 213.155 20.4699 207.36 19.09L207.05 20.39C212.841 21.7912 217.841 25.4323 220.951 30.5146C224.061 35.597 225.028 41.7055 223.64 47.5Z" fill="white" stroke="black" stroke-width="5" stroke-linecap="round" stroke-linejoin="round"/>
</g>
<defs>
<clipPath id="clip0_250_30">
<rect width="254.87" height="203.25" fill="white"/>
</clipPath>
</defs>
</svg>
