<svg width="77" height="109" viewBox="0 0 77 109" fill="none" xmlns="http://www.w3.org/2000/svg">
<g clip-path="url(#clip0_250_6)">
<path d="M73.34 78.0406L61.63 74.8807L73.63 54.6006C73.7714 54.3617 73.8313 54.0832 73.8007 53.8073C73.77 53.5313 73.6504 53.2728 73.46 53.0707C73.2577 52.8941 72.9984 52.7969 72.73 52.7969C72.4615 52.7969 72.2022 52.8941 71.9999 53.0707L40.87 78.2107C40.6948 78.3532 40.5595 78.5386 40.4772 78.7489C40.3948 78.9592 40.3682 79.1871 40.4 79.4107C40.4121 79.6281 40.4949 79.8355 40.6356 80.0015C40.7764 80.1676 40.9675 80.2831 41.18 80.3307L53.99 83.9307L42.44 104.321C42.299 104.562 42.2422 104.843 42.2784 105.12C42.3146 105.397 42.4417 105.654 42.6399 105.851C42.7318 105.931 42.8366 105.995 42.95 106.041C43.1443 106.114 43.3547 106.133 43.5589 106.096C43.7631 106.059 43.9535 105.967 44.1099 105.831L73.65 80.1507C73.816 80.002 73.943 79.8148 74.0197 79.6056C74.0964 79.3963 74.1206 79.1714 74.09 78.9507C74.0587 78.7454 73.9725 78.5524 73.8405 78.3922C73.7084 78.232 73.5355 78.1105 73.34 78.0406Z" fill="#FEFF00" stroke="black" stroke-width="5.69" stroke-linecap="round" stroke-linejoin="round"/>
<path d="M29.7399 40.9783L18.2599 44.8784L17.0499 3.97834C17.0359 3.70023 16.9302 3.43459 16.7493 3.22291C16.5684 3.01123 16.3224 2.86547 16.0499 2.80836C15.7839 2.76963 15.513 2.82961 15.2882 2.977C15.0634 3.12439 14.9004 3.34897 14.8299 3.60835L2.8999 59.2883C2.83611 59.5056 2.82928 59.7356 2.88007 59.9563C2.93085 60.177 3.03755 60.3808 3.1899 60.5484C3.3268 60.7147 3.51116 60.8355 3.7184 60.8944C3.92564 60.9534 4.14592 60.9478 4.3499 60.8784L17.0699 56.6683L18.7899 98.9984C18.8065 99.2735 18.9135 99.5354 19.0944 99.7434C19.2752 99.9513 19.5198 100.094 19.7899 100.148C19.9091 100.168 20.0307 100.168 20.1499 100.148C20.3528 100.101 20.5387 99.9983 20.687 99.8518C20.8352 99.7053 20.94 99.5207 20.9899 99.3184L31.1799 42.4884C31.2334 42.2713 31.2321 42.0444 31.1763 41.828C31.1204 41.6116 31.0117 41.4124 30.8599 41.2484C30.714 41.1079 30.5334 41.009 30.3365 40.9615C30.1397 40.914 29.9337 40.9198 29.7399 40.9783Z" fill="#FEFF00" stroke="black" stroke-width="5.69" stroke-linecap="round" stroke-linejoin="round"/>
</g>
<defs>
<clipPath id="clip0_250_6">
<rect width="76.98" height="108.96" fill="white"/>
</clipPath>
</defs>
</svg>
