<svg width="161" height="161" viewBox="0 0 161 161" fill="none" xmlns="http://www.w3.org/2000/svg">
<path d="M8.40807 156.857C12.0461 149.487 14.9151 143.181 18.2331 137.122C20.4251 133.122 20.2331 130.004 17.5171 126.169C-15.4019 79.7501 9.22508 16.6237 64.7931 4.6867C107.303 -4.4453 148.975 24.4516 156.73 68.4396C164.064 110.04 133.737 151.504 91.758 157.408C74.499 159.836 58.3311 156.809 42.8641 148.842C40.0755 147.597 36.9415 147.357 33.9961 148.163C25.7601 150.535 17.7301 153.626 8.40807 156.857Z" fill="#80F2E8" stroke="black" stroke-width="5" stroke-linejoin="round"/>
<path d="M90.553 104.41L99.7779 93.7093C97.4779 92.2973 96.0779 91.5007 94.7459 90.6097C91.6519 88.5282 89.3222 85.493 88.1111 81.9662C86.9 78.4393 86.8736 74.6139 88.0361 71.0707C89.1986 67.5274 91.4862 64.4602 94.5513 62.3363C97.6164 60.2124 101.291 59.1481 105.017 59.3041C112.73 59.6291 118.727 64.6352 120.632 72.3392C125.273 91.1002 108.626 108.679 90.553 104.41Z" fill="black"/>
<path d="M42.386 104.39L51.5951 93.5344C43.3951 89.3884 38.667 84.0814 39.057 75.4924C39.2397 71.4624 40.8519 67.6299 43.6045 64.6808C46.3572 61.7318 50.0702 59.8592 54.078 59.3996C58.0787 58.8719 62.134 59.828 65.477 62.0881C68.82 64.3481 71.219 67.7551 72.2201 71.6642C77.4611 90.5472 60.753 108.746 42.386 104.39Z" fill="black"/>
</svg>
