<svg width="161" height="161" viewBox="0 0 161 161" fill="none" xmlns="http://www.w3.org/2000/svg">
<path d="M132.088 144.679C129.09 144.096 125.983 144.571 123.297 146.025C108.478 155.138 92.587 159.387 75.197 158.275C32.891 155.575 -0.49201 116.523 3.66699 74.4872C8.06699 30.0372 47.427 -1.9349 90.506 3.9481C146.82 11.6391 176.161 72.7179 146.856 121.499C144.435 125.529 144.484 128.65 146.972 132.475C150.74 138.265 154.079 144.333 158.265 151.407C148.721 148.891 140.481 146.416 132.088 144.679Z" fill="#FFD943" stroke="black" stroke-width="5" stroke-linejoin="round"/>
<path d="M88.8866 105.343L98.8956 95.3673C96.7126 93.7853 95.3766 92.8868 94.1146 91.8918C91.1876 89.5817 89.0948 86.379 88.1546 82.7707C87.2144 79.1623 87.4782 75.3453 88.9058 71.9005C90.3334 68.4558 92.8468 65.5712 96.0638 63.6857C99.2808 61.8002 103.026 61.0166 106.729 61.4543C114.395 62.3633 119.996 67.8109 121.311 75.6379C124.516 94.7038 106.584 110.97 88.8866 105.343Z" fill="black"/>
<path d="M40.8598 101.67L50.8648 91.5438C43.0078 86.7878 38.6908 81.1393 39.7308 72.6043C40.2183 68.5994 42.1167 64.8986 45.0855 62.1668C48.0543 59.435 51.8992 57.8506 55.9307 57.6971C59.9599 57.4742 63.931 58.736 67.0931 61.243C70.2552 63.75 72.3889 67.3288 73.0908 71.3025C76.8838 90.5275 58.8438 107.405 40.8598 101.67Z" fill="black"/>
</svg>
