<svg width="162" height="161" viewBox="0 0 162 161" fill="none" xmlns="http://www.w3.org/2000/svg">
<path d="M9.14303 156.967C12.78 149.598 15.649 143.292 18.967 137.234C21.159 133.234 20.9669 130.116 18.2509 126.281C-14.6681 79.8607 9.95892 16.7344 65.5279 4.79636C108.037 -4.33664 149.709 24.5613 157.464 68.5483C164.799 110.148 134.472 151.615 92.492 157.52C75.233 159.947 59.065 156.92 43.598 148.952C40.8095 147.706 37.6752 147.467 34.7299 148.275C26.4939 150.647 18.464 153.737 9.14303 156.967Z" fill="#FFC3FF" stroke="black" stroke-width="5" stroke-linejoin="round"/>
<path d="M91.2871 104.519L100.512 93.8135C98.212 92.4015 96.812 91.6049 95.481 90.7129C92.3892 88.6308 90.0616 85.5971 88.8519 82.0713C87.6421 78.5456 87.6163 74.7215 88.7784 71.1797C89.9405 67.638 92.2271 64.5719 95.2905 62.4483C98.3539 60.3246 102.027 59.2588 105.751 59.4131C113.464 59.7381 119.461 64.7443 121.366 72.4493C126.007 91.2073 109.36 108.787 91.2871 104.519Z" fill="black"/>
<path d="M43.1198 104.497L52.3288 93.6436C44.1338 89.4976 39.4018 84.1907 39.7908 75.6017C39.9731 71.5714 41.5853 67.7374 44.3382 64.7882C47.0911 61.839 50.8046 59.9679 54.8128 59.5089C58.8133 58.9814 62.8684 59.9373 66.2112 62.1974C69.554 64.4574 71.9527 67.8646 72.9538 71.7735C78.1958 90.6555 61.4878 108.853 43.1198 104.497Z" fill="black"/>
</svg>
