<svg xmlns="http://www.w3.org/2000/svg" viewBox="0 0 73.04 80.22"><defs><style>.cls-1{fill:#ffdb43;}</style></defs><g id="Layer_2" data-name="Layer 2"><g id="Layer_1-2" data-name="Layer 1"><path class="cls-1" d="M12.46,58.41c-.05,1.53,0,3.05.07,4.58.06,1.23.1,2.46.25,3.68.12.92.51,1.25,1.45,1.25h38c.13,0,.26,0,.39,0a1.22,1.22,0,0,0,1.14-1.06c.17-1.71.26-3.44.28-5.16,0-2.31,0-4.63-.06-6.94-.07-1.51-.11-3-.23-4.53-.19-2.32-.36-4.65-.6-7-.21-2.07-.42-4.13-.67-6.19q-.57-4.68-1.27-9.33-.63-4.18-1.35-8.34c-.06-.4-.22-.48-.59-.48-3,0-5.92,0-8.88,0l-23.21,0c-.29,0-.43.07-.48.39-.27,1.69-.56,3.38-.84,5.07-.41,2.42-.75,4.84-1.09,7.27-.29,2.1-.55,4.21-.81,6.32s-.46,4.05-.65,6.08c-.21,2.23-.4,4.46-.54,6.7C12.62,53.3,12.54,55.86,12.46,58.41Zm13.69-28.7a7.21,7.21,0,0,1,1.28-4.31A7.13,7.13,0,0,1,40.23,28a9,9,0,0,1,.17,1.72V43.43c0,4.48,0,9,0,13.45a7.5,7.5,0,0,1-1.14,4.33,6.92,6.92,0,0,1-5.16,3.22,7.09,7.09,0,0,1-7.88-6.14,29.81,29.81,0,0,1-.06-3.41Q26.14,42.3,26.15,29.71Z"></path><path class="cls-1" d="M10.79,40c.27-2.6.6-5.19,1-7.78Q12.29,28,13,23.8c.07-.43.06-.43-.36-.43H3.46c-.46,0-.47,0-.45.48a35.12,35.12,0,0,0,.52,4.57,49.89,49.89,0,0,0,2,7.62,58.11,58.11,0,0,0,2.81,6.72c.55,1.14,1.14,2.26,1.83,3.41,0-.2.07-.33.08-.46C10.37,43.8,10.59,41.89,10.79,40Z"></path><path class="cls-1" d="M33.22,44.64c-1.24,0-2.47,0-3.7,0-.33,0-.46.09-.45.44,0,.68,0,1.36,0,2,0,.47,0,.46.47.47a23.74,23.74,0,0,1,2.53.05,1.38,1.38,0,0,1,1.31,1.5,1.43,1.43,0,0,1-1.52,1.42c-.81,0-1.62,0-2.43,0-.28,0-.37.09-.36.37,0,.64,0,1.29,0,1.93s0,.64.62.64c1.19,0,2.37,0,3.56,0a1.37,1.37,0,0,1,1.33.82,1.43,1.43,0,0,1-.22,1.61,1.63,1.63,0,0,1-1.32.53h-3.6c-.17,0-.36,0-.37.25a5,5,0,0,0,.69,2.93,4.16,4.16,0,0,0,7.66-2.29q0-6.93,0-13.87t0-14a3.88,3.88,0,0,0-2-3.52,4.17,4.17,0,0,0-6.32,3.64c0,.31.08.41.39.41,1.25,0,2.49,0,3.74,0a1.46,1.46,0,0,1,1.49,1.8,1.44,1.44,0,0,1-1.4,1.12c-1.24,0-2.48,0-3.73,0-.46,0-.49,0-.49.47,0,.69,0,1.39,0,2.08,0,.3.09.41.4.4h3.13a16.46,16.46,0,0,1,2.22,0A1.45,1.45,0,0,1,35.88,38a1.48,1.48,0,0,1-1.41.76H29.65c-.57,0-.57,0-.57.55V41.2c0,.52,0,.52.52.52h3.62a1.45,1.45,0,0,1,1.52,1.46A1.43,1.43,0,0,1,33.22,44.64Z"></path><path class="cls-1" d="M31.11,4.67c.5,0,1-.11,1.5-.13a16,16,0,0,1,2.77.12c.1,0,.23,0,.3,0s0-.19-.08-.28a2.7,2.7,0,0,0-2.29-1.39,2.76,2.76,0,0,0-2.39,1.42C30.77,4.6,30.82,4.7,31.11,4.67Z"></path><path class="cls-1" d="M18.49,16H47.92c.11,0,.21,0,.32,0s.21-.07.11-.21-.08-.15-.12-.21a19.65,19.65,0,0,0-4.79-4.92A16.85,16.85,0,0,0,36.7,7.79a19.25,19.25,0,0,0-6.06-.12A16,16,0,0,0,25.58,9.2a18.55,18.55,0,0,0-5.33,4,23,23,0,0,0-2,2.44c-.07.1-.2.21-.13.34S18.38,16,18.49,16Z"></path><path class="cls-1" d="M70,34a14.88,14.88,0,0,0-3.62-8.32A14.58,14.58,0,0,0,58.75,21a20.74,20.74,0,0,0-5.39-.41c-.29,0-.28.17-.25.37.27,1.65.54,3.29.78,4.94.06.37.22.45.56.44a12.29,12.29,0,0,1,1.82,0,8.93,8.93,0,0,1,6.16,3.31A8.57,8.57,0,0,1,64.49,35c.07,2.32,0,4.65,0,7,0,3.22,0,6.43,0,9.65a3.44,3.44,0,0,0,.39,1.69,2.79,2.79,0,0,0,3.53,1.18,2.84,2.84,0,0,0,1.67-2.75V43.46c0-2.61,0-5.21,0-7.82A14.35,14.35,0,0,0,70,34Z"></path><path class="cls-1" d="M33.25,70.84h-20a3.43,3.43,0,0,0-2.29.84,3.17,3.17,0,0,0-.68,3.91,3.23,3.23,0,0,0,3,1.7h40a3.42,3.42,0,0,0,1.78-.47,3.22,3.22,0,0,0,1.32-4,3.17,3.17,0,0,0-3.09-2Zm13.84,4.7c-.4,0-.8,0-1.2,0H19.74a3.43,3.43,0,0,1-.56,0,1.46,1.46,0,0,1,0-2.89,2.27,2.27,0,0,1,.45,0H46.91a1.5,1.5,0,0,1,1.68,1.26A1.44,1.44,0,0,1,47.09,75.54Z"></path><path d="M73,36a18.66,18.66,0,0,0-.71-5.41,17.43,17.43,0,0,0-1.12-2.92,17.72,17.72,0,0,0-5.5-6.58A17.18,17.18,0,0,0,55.63,17.7H52.88c-.19,0-.32,0-.38-.25a12.63,12.63,0,0,0-2-3.71A22.37,22.37,0,0,0,44.76,8a19.73,19.73,0,0,0-5.65-2.65A.35.35,0,0,1,38.86,5a5.41,5.41,0,0,0-.44-1.62A5.6,5.6,0,0,0,31.49.31,5.52,5.52,0,0,0,27.7,4.93c0,.22-.09.38-.35.46a22.37,22.37,0,0,0-3,1.15,20.77,20.77,0,0,0-5.16,3.52,22.63,22.63,0,0,0-4,4.93,9.05,9.05,0,0,0-1,2,24.68,24.68,0,0,0-.56,3c-.06.36-.19.47-.57.46-3.69,0-7.39,0-11.09,0A1.86,1.86,0,0,0,0,22.38C0,23.94.16,25.49.35,27c0,.2.06.39-.22.47.26,0,.3.12.33.3.06.44.14.87.21,1.3A44.57,44.57,0,0,0,1.9,34.46a58.18,58.18,0,0,0,3.89,9.87,56,56,0,0,0,3.8,6.54,1.11,1.11,0,0,1,.21.82c-.16,1.78-.22,3.56-.25,5.34a83.84,83.84,0,0,0,.21,8.83,7.06,7.06,0,0,0,.39,2.42c.12.28.08.39-.18.55a5.9,5.9,0,0,0-2.78,3.66,6.13,6.13,0,0,0,5.72,7.71c1,0,2,0,3,0s2,0,2.93,0,1.92,0,2.88,0,1.67,0,2.5,0H53.66a5.4,5.4,0,0,0,2.5-.61,6.14,6.14,0,0,0,3.26-6.85,6,6,0,0,0-2.87-3.93c-.24-.15-.29-.28-.16-.53a2.68,2.68,0,0,0,.28-1c.2-2,.29-4,.35-6.07,0-1.7,0-3.4-.06-5.11-.08-2.4-.21-4.8-.37-7.2-.07-1.13-.17-2.27-.28-3.4-.15-1.56-.3-3.13-.47-4.69-.19-1.73-.38-3.47-.59-5.2s-.5-3.63-.74-5.44c-.11-.84-.1-.85.75-.84a6.14,6.14,0,0,1,5.17,2.66,6.33,6.33,0,0,1,1.17,3.77q0,8,0,16a6.75,6.75,0,0,0,.1,1.19,5.72,5.72,0,0,0,5.67,4.72,5.58,5.58,0,0,0,5.07-3.16A6.54,6.54,0,0,0,73,51.24Q73,43.62,73,36ZM30.92,4.36a2.76,2.76,0,0,1,2.39-1.42A2.7,2.7,0,0,1,35.6,4.33c0,.09.16.18.08.28s-.2.06-.3,0a16,16,0,0,0-2.77-.12c-.5,0-1,.08-1.5.13C30.82,4.7,30.77,4.6,30.92,4.36ZM18.29,15.61a23,23,0,0,1,2-2.44,18.55,18.55,0,0,1,5.33-4,16,16,0,0,1,5.06-1.53,19.25,19.25,0,0,1,6.06.12,16.85,16.85,0,0,1,6.74,2.88,19.65,19.65,0,0,1,4.79,4.92c0,.06.08.14.12.21s.07.21-.11.21-.21,0-.32,0H18.49c-.11,0-.27.06-.33-.05S18.22,15.71,18.29,15.61Zm-5,28.44Q13.6,41,14,38c.26-2.11.52-4.22.81-6.32.34-2.43.68-4.85,1.09-7.27.28-1.69.57-3.38.84-5.07.05-.32.19-.39.48-.39l23.21,0c3,0,5.92,0,8.88,0,.37,0,.53.08.59.48q.72,4.16,1.35,8.34.7,4.65,1.27,9.33c.25,2.06.46,4.12.67,6.19.24,2.32.41,4.65.6,7,.12,1.51.16,3,.23,4.53.1,2.31.1,4.63.06,6.94,0,1.72-.11,3.45-.28,5.16a1.22,1.22,0,0,1-1.14,1.06c-.13,0-.26,0-.39,0h-38c-.94,0-1.33-.33-1.45-1.25-.15-1.22-.19-2.45-.25-3.68-.07-1.53-.12-3.05-.07-4.58.08-2.55.16-5.11.31-7.66C12.91,48.51,13.1,46.28,13.31,44.05Zm-3.16,2.12C9.46,45,8.87,43.9,8.32,42.76A58.11,58.11,0,0,1,5.51,36a49.89,49.89,0,0,1-2-7.62A35.12,35.12,0,0,1,3,23.85c0-.48,0-.48.45-.48h9.16c.42,0,.43,0,.36.43q-.69,4.18-1.24,8.39c-.35,2.59-.68,5.18-1,7.78-.2,1.92-.42,3.83-.56,5.74C10.22,45.84,10.18,46,10.15,46.17ZM56.38,72.84a3.22,3.22,0,0,1-1.32,4,3.42,3.42,0,0,1-1.78.47h-40a3.23,3.23,0,0,1-3-1.7A3.17,3.17,0,0,1,11,71.68a3.43,3.43,0,0,1,2.29-.84h40A3.17,3.17,0,0,1,56.38,72.84ZM70.11,43.46V51.7a2.84,2.84,0,0,1-1.67,2.75,2.79,2.79,0,0,1-3.53-1.18,3.44,3.44,0,0,1-.39-1.69c0-3.22,0-6.43,0-9.65,0-2.32,0-4.65,0-7a8.57,8.57,0,0,0-2.06-5.25,8.93,8.93,0,0,0-6.16-3.31,12.29,12.29,0,0,0-1.82,0c-.34,0-.5-.07-.56-.44-.24-1.65-.51-3.29-.78-4.94,0-.2,0-.37.25-.37a20.74,20.74,0,0,1,5.39.41,14.58,14.58,0,0,1,7.65,4.68A14.88,14.88,0,0,1,70,34a14.35,14.35,0,0,1,.09,1.61C70.1,38.25,70.11,40.85,70.11,43.46Z"></path><path d="M26.22,58.29a7.09,7.09,0,0,0,7.88,6.14,6.92,6.92,0,0,0,5.16-3.22,7.5,7.5,0,0,0,1.14-4.33c0-4.48,0-9,0-13.45V29.7A9,9,0,0,0,40.23,28a7.13,7.13,0,0,0-12.8-2.58,7.21,7.21,0,0,0-1.28,4.31q0,12.59,0,25.17A29.81,29.81,0,0,0,26.22,58.29Zm7-16.56H29.6c-.52,0-.52,0-.52-.52V39.33c0-.55,0-.55.57-.55h4.82A1.48,1.48,0,0,0,35.88,38a1.45,1.45,0,0,0-1.05-2.15,16.46,16.46,0,0,0-2.22,0H29.48c-.31,0-.41-.1-.4-.4,0-.69,0-1.39,0-2.08,0-.44,0-.47.49-.47,1.25,0,2.49,0,3.73,0a1.44,1.44,0,0,0,1.4-1.12A1.46,1.46,0,0,0,33.21,30c-1.25,0-2.49,0-3.74,0-.31,0-.4-.1-.39-.41a4.17,4.17,0,0,1,6.32-3.64,3.88,3.88,0,0,1,2,3.52q0,7,0,14t0,13.87a4.16,4.16,0,0,1-7.66,2.29,5,5,0,0,1-.69-2.93c0-.27.2-.25.37-.25h3.6a1.63,1.63,0,0,0,1.32-.53,1.43,1.43,0,0,0,.22-1.61,1.37,1.37,0,0,0-1.33-.82c-1.19,0-2.37,0-3.56,0-.62,0-.62,0-.62-.64s0-1.29,0-1.93c0-.28.08-.38.36-.37.81,0,1.62,0,2.43,0a1.43,1.43,0,0,0,1.52-1.42,1.38,1.38,0,0,0-1.31-1.5,23.74,23.74,0,0,0-2.53-.05c-.47,0-.47,0-.47-.47,0-.68,0-1.36,0-2,0-.35.12-.44.45-.44,1.23,0,2.46,0,3.7,0a1.43,1.43,0,0,0,1.52-1.45A1.45,1.45,0,0,0,33.22,41.73Z"></path><path d="M46.91,72.58H19.66a2.27,2.27,0,0,0-.45,0,1.46,1.46,0,0,0,0,2.89,3.43,3.43,0,0,0,.56,0H45.89c.4,0,.8,0,1.2,0a1.44,1.44,0,0,0,1.5-1.7A1.5,1.5,0,0,0,46.91,72.58Z"></path></g></g></svg>