<svg xmlns="http://www.w3.org/2000/svg" viewBox="0 0 74.09 113.08"><defs><style>.cls-1{fill:#fff;}</style></defs><g id="Layer_2" data-name="Layer 2"><g id="Layer_1-2" data-name="Layer 1"><path class="cls-1" d="M47.88,105.36c-4.63,0-9.26,0-13.89,0-6,0-11.92,0-17.88.1-.39,0-.79,0-1.08.3l-3.18,3.68h40.3c0-.33-.27-.46-.42-.64-.81-.93-1.65-1.84-2.42-2.8A1.61,1.61,0,0,0,47.88,105.36Z"></path><path d="M66.74,58a12.16,12.16,0,0,0-7,.78c-.21.08-.46.32-.67.12s0-.46,0-.69l5.16-28.73c.29-1.58-.39-2.4-2-2.4H2A1.75,1.75,0,0,0,.05,29.32c.39,2.29.81,4.58,1.22,6.87Q3.34,47.73,5.4,59.27q2,11.29,4,22.59C10.61,88.44,11.77,95,13,101.59a1.89,1.89,0,0,1-.53,1.75c-2,2.22-3.86,4.48-5.78,6.73a1.72,1.72,0,0,0-.29,2,1.78,1.78,0,0,0,1.63,1c.14,0,.29,0,.43,0H53.6c.85,0,1.7,0,2.54,0A1.77,1.77,0,0,0,58,111.52a2,2,0,0,0-.61-1.64c-1.85-2.11-3.69-4.24-5.57-6.33a2,2,0,0,1-.55-1.94c.62-3.11,1.27-6.23,1.65-9.37a10.07,10.07,0,0,1,3.77-6.84A27.24,27.24,0,0,1,61,82.67a41.6,41.6,0,0,0,8.75-5.81c3-2.87,4.76-6.3,4.32-10.61A9.49,9.49,0,0,0,66.74,58ZM5.54,40.06c-.45-2.85-1-5.68-1.48-8.51-.17-1-.13-1,.82-1H59.32c1.13,0,1.14,0,.94,1.13-.5,2.82-1,5.62-1.5,8.44-.11.68-.39.9-1.09.9Q32.23,41,6.79,41C6.05,41.05,5.67,40.88,5.54,40.06Zm46.19,68.76c.15.18.37.31.42.64H11.85L15,105.78c.29-.35.69-.3,1.08-.3,6-.13,11.92-.09,17.88-.1,4.63,0,9.26,0,13.89,0a1.61,1.61,0,0,1,1.43.66C50.08,107,50.92,107.89,51.73,108.82ZM50.64,85.18c-1,5.32-1.94,10.63-2.89,15.94-.12.68-.55.68-1.06.68l-16.43,0c-4.22,0-8.44-.06-12.65.12-.76,0-1.05-.22-1.19-1q-2.3-13.17-4.66-26.32-2.6-14.51-5.2-29c-.18-1-.19-1,.8-1l21.74,0h26c.72,0,1.45,0,2.18,0,.46,0,.61.13.51.65-.73,4-1.43,7.91-2.14,11.86Q53.16,71.14,50.64,85.18ZM70.52,68.32c-.34,3-2,5.05-4.25,6.84a50.8,50.8,0,0,1-7.47,4.63q-1.74,1-3.39,2.1c-.15.1-.31.31-.51.15s0-.31,0-.48l2.61-14.43c.18-1,.36-1.95.52-2.93a1.13,1.13,0,0,1,.46-.78,11.7,11.7,0,0,1,6.17-2.11C68.71,61.2,70.9,65.06,70.52,68.32Z"></path><path d="M20.1,10.28a37.81,37.81,0,0,1,2.66,3.26,2.24,2.24,0,0,1,0,2.65A12.21,12.21,0,0,1,21.17,18a1.8,1.8,0,1,0,2.48,2.6,12.16,12.16,0,0,0,1.14-1.13,7.86,7.86,0,0,0,2.05-4.16,7.53,7.53,0,0,0-1.7-4.69c-.91-1.16-2-2.19-2.82-3.41a2,2,0,0,1,0-2.71,5.93,5.93,0,0,1,1.08-1.16A1.88,1.88,0,0,0,23.48.38,2,2,0,0,0,21,.58a9.51,9.51,0,0,0-1.64,1.83A5.48,5.48,0,0,0,18.61,8,9.91,9.91,0,0,0,20.1,10.28Z"></path><path d="M40.35,11.18a15.44,15.44,0,0,1,2,2.5,2.08,2.08,0,0,1,.05,2.2A8.7,8.7,0,0,1,40.58,18a1.87,1.87,0,0,0-.12,2.4,1.73,1.73,0,0,0,2.23.4,7.68,7.68,0,0,0,3.55-5.91,5.8,5.8,0,0,0-.67-2.81,19.14,19.14,0,0,0-3.14-4.07c-1.34-1.49-1.51-2.57-.4-3.89.28-.33.63-.6.94-.91a1.75,1.75,0,0,0,.67-1.73A1.78,1.78,0,0,0,40.82.36a7.76,7.76,0,0,0-2,2.08,5.43,5.43,0,0,0-.19,6.5A15,15,0,0,0,40.35,11.18Z"></path><path d="M32.16,13.17c1,1.26.91,2.15-.07,3.4a9,9,0,0,1-1.18,1.28,1.76,1.76,0,0,0-.61,1.52,1.52,1.52,0,0,0,.88,1.5A1.68,1.68,0,0,0,33,20.79a6.71,6.71,0,0,0,1.38-1.28c1.77-2,2.68-4.13,1.66-6.77a9.16,9.16,0,0,0-1.65-2.64c-.78-.93-1.6-1.82-2.32-2.78s-.84-1.75-.23-2.59A6.6,6.6,0,0,1,33.1,3.27,1.81,1.81,0,0,0,33.42.68,1.8,1.8,0,0,0,30.94.36a8.48,8.48,0,0,0-2.63,3.22,5.71,5.71,0,0,0,1,6.12C30.22,10.89,31.25,12,32.16,13.17Z"></path><path class="cls-1" d="M50.64,85.18c-1,5.32-1.94,10.63-2.89,15.94-.12.68-.55.68-1.06.68l-16.43,0c-4.22,0-8.44-.06-12.65.12-.76,0-1.05-.22-1.19-1q-2.3-13.17-4.66-26.32-2.6-14.51-5.2-29c-.18-1-.19-1,.8-1l21.74,0h26c.72,0,1.45,0,2.18,0,.46,0,.61.13.51.65-.73,4-1.43,7.91-2.14,11.86Q53.16,71.14,50.64,85.18Z"></path></g></g></svg>