<svg width="179" height="205" viewBox="0 0 179 205" fill="none" xmlns="http://www.w3.org/2000/svg">
<g clip-path="url(#clip0_250_47)">
<path d="M23.13 82.2425L2.5 163.982L155.14 202.503L175.77 120.763L109.21 62.8125L23.13 82.2425Z" fill="#F8D949"/>
<path d="M155.14 204.983C154.934 204.98 154.729 204.953 154.53 204.903L1.88994 166.383C1.25386 166.222 0.706887 165.817 0.367965 165.255C0.0290426 164.693 -0.0744339 164.02 0.07994 163.383L20.6999 81.6427C20.815 81.1945 21.0514 80.7866 21.383 80.4638C21.7146 80.141 22.1287 79.9159 22.5799 79.8129L108.66 60.3827C109.043 60.2954 109.44 60.2998 109.821 60.3954C110.201 60.491 110.554 60.675 110.85 60.9328L177.41 118.883C177.758 119.187 178.016 119.581 178.153 120.023C178.291 120.464 178.304 120.935 178.19 121.383L157.62 203.113C157.475 203.657 157.152 204.136 156.702 204.475C156.253 204.814 155.703 204.993 155.14 204.983ZM5.5399 162.153L153.33 199.443L172.97 121.613L108.53 65.5129L25.18 84.3229L5.5399 162.153Z" fill="black"/>
<path d="M2.5 163.982L54.3 129.662L23.13 82.2422L2.5 163.982Z" fill="#F8D949"/>
<path d="M2.49994 166.478C1.98356 166.48 1.47976 166.319 1.05994 166.018C0.643737 165.73 0.325075 165.323 0.146426 164.849C-0.0322239 164.376 -0.0623816 163.859 0.0599389 163.368L20.6799 81.6281C20.8015 81.1598 21.0543 80.7359 21.4086 80.4064C21.7629 80.0769 22.2041 79.8556 22.68 79.7682C23.16 79.6886 23.6527 79.7502 24.0983 79.9455C24.544 80.1408 24.9231 80.4612 25.1899 80.8681L56.3599 128.288C56.7213 128.842 56.8494 129.516 56.7165 130.164C56.5835 130.812 56.2003 131.381 55.65 131.748L3.84992 166.058C3.4502 166.326 2.98116 166.472 2.49994 166.478ZM24.16 88.3581L6.50995 158.358L50.8399 128.988L24.16 88.3581Z" fill="black"/>
<path d="M155.14 202.498L122.34 146.828L175.77 120.758L155.14 202.498Z" fill="#F8D949"/>
<path d="M155.14 204.978C154.705 204.979 154.278 204.866 153.9 204.65C153.523 204.434 153.209 204.123 152.99 203.748L120.18 148.078C120.005 147.781 119.892 147.451 119.851 147.109C119.81 146.767 119.84 146.42 119.939 146.09C120.039 145.76 120.206 145.454 120.43 145.192C120.654 144.93 120.93 144.718 121.24 144.568L174.67 118.488C175.098 118.279 175.578 118.196 176.051 118.251C176.525 118.305 176.973 118.494 177.343 118.794C177.713 119.095 177.989 119.495 178.139 119.947C178.289 120.4 178.307 120.886 178.19 121.348L157.62 203.108C157.498 203.588 157.236 204.021 156.868 204.352C156.499 204.684 156.041 204.898 155.55 204.968C155.414 204.984 155.277 204.987 155.14 204.978ZM125.86 147.868L154.21 195.968L172.03 125.338L125.86 147.868Z" fill="black"/>
<path d="M122.34 149.33C122.135 149.331 121.93 149.308 121.73 149.26L53.7301 132.09C53.0869 131.928 52.5345 131.517 52.1941 130.948C51.8537 130.379 51.7534 129.698 51.9152 129.055C52.0769 128.411 52.4876 127.859 53.0568 127.518C53.6259 127.178 54.3069 127.078 54.9501 127.24L122.95 144.41C123.537 144.562 124.05 144.923 124.391 145.424C124.732 145.926 124.879 146.535 124.804 147.137C124.729 147.74 124.438 148.294 123.985 148.697C123.532 149.101 122.947 149.326 122.34 149.33Z" fill="black"/>
<path d="M37.3501 103.89L62.9401 2.5L143.9 22.93L165.77 50.48L144.15 136.19L122.34 146.83L54.3001 129.66L37.3501 103.89Z" fill="white"/>
<path d="M122.34 149.33C122.134 149.332 121.93 149.308 121.73 149.26L53.7299 132.09C53.1233 131.936 52.5958 131.562 52.25 131.04L35.3099 105.26C35.1166 104.969 34.9865 104.64 34.9279 104.296C34.8694 103.951 34.8837 103.598 34.9699 103.26L60.5599 1.87973C60.7206 1.24366 61.126 0.696925 61.6877 0.358003C62.2495 0.0190804 62.9222 -0.0844571 63.5599 0.0699168L144.56 20.4998C145.088 20.6328 145.559 20.9347 145.9 21.3597L167.78 48.9198C168.02 49.2189 168.187 49.5699 168.269 49.9447C168.35 50.3195 168.344 50.7081 168.25 51.0799L146.62 136.8C146.532 137.154 146.367 137.484 146.137 137.768C145.908 138.051 145.618 138.281 145.29 138.44L123.48 149.08C123.126 149.254 122.735 149.34 122.34 149.33ZM55.8499 127.48L122.06 144.19L142.06 134.45L163.06 51.0699L142.47 25.1498L64.76 5.53989L40.0599 103.43L55.8499 127.48Z" fill="black"/>
<path d="M75.5502 26.7073L71.9202 25.7073L72.4401 23.8672L81.7902 26.4773L81.2802 28.3174L77.6501 27.3174L74.8601 37.3174L72.7601 36.7373L75.5502 26.7073Z" fill="black"/>
<path d="M82.35 32.9793C82.5857 32.098 82.9936 31.2722 83.5501 30.5494C84.0506 29.8957 84.6852 29.3567 85.4114 28.9686C86.1375 28.5805 86.9384 28.3523 87.76 28.2994C88.6525 28.2233 89.5513 28.3149 90.41 28.5694C91.2828 28.8028 92.1061 29.1924 92.84 29.7193C93.5141 30.2016 94.0853 30.8136 94.52 31.5194C94.945 32.2271 95.2111 33.0187 95.3001 33.8394C95.4057 34.7431 95.3239 35.6587 95.0599 36.5294C94.8309 37.4002 94.4297 38.2161 93.88 38.9293C93.3689 39.5852 92.7292 40.1297 92 40.5294C91.2625 40.9253 90.4533 41.1701 89.62 41.2493C88.7189 41.3326 87.8101 41.2478 86.9399 40.9993C86.0706 40.7633 85.2532 40.3665 84.53 39.8294C83.864 39.3321 83.3066 38.7037 82.8922 37.9832C82.4778 37.2627 82.215 36.465 82.12 35.6392C82.0201 34.7461 82.0983 33.8421 82.35 32.9793ZM84.64 33.6192C84.4654 34.2125 84.4009 34.8328 84.45 35.4493C84.4849 36.0117 84.6383 36.5604 84.9 37.0594C85.1418 37.5474 85.4823 37.9799 85.9 38.3294C86.3555 38.6965 86.8838 38.9622 87.45 39.1092C88.017 39.2783 88.6133 39.3262 89.2 39.2493C89.7457 39.174 90.27 38.9867 90.74 38.6993C91.2188 38.4011 91.6363 38.0142 91.97 37.5594C92.3245 37.0519 92.5884 36.4868 92.75 35.8892C92.9165 35.3115 92.9776 34.7085 92.9301 34.1092C92.8845 33.5531 92.7352 33.0105 92.49 32.5093C92.2454 32.0203 91.9054 31.585 91.49 31.2293C91.0247 30.8557 90.4866 30.5831 89.91 30.4293C89.3397 30.259 88.7392 30.2148 88.15 30.2994C87.6064 30.3768 87.0851 30.5674 86.62 30.8592C86.1451 31.1552 85.7338 31.5429 85.41 31.9993C85.0529 32.4847 84.7854 33.0298 84.62 33.6092L84.64 33.6192Z" fill="black"/>
<path d="M90.5501 61.512C85.8701 60.202 74.79 62.382 73.72 66.222C73.27 67.822 75.4701 69.072 78.8001 70.002C80.2741 70.4666 81.815 70.6828 83.36 70.6419C84.16 70.8619 85.2 71.7019 85.01 72.3819C84.91 72.7119 84.59 72.892 83.89 72.972C82.14 73.212 75.53 73.232 69.72 76.292C67.22 77.592 64.72 79.342 64.01 81.742C63.54 83.432 64.1101 85.1419 66.6801 85.8619C70.6801 86.9819 75.8901 86.1119 80.6801 84.6319C86.9001 82.7319 92.32 79.782 93.33 78.752C93.4665 78.7077 93.6135 78.7077 93.75 78.752C93.8343 78.783 93.9114 78.8305 93.977 78.8919C94.0425 78.9533 94.095 79.0273 94.1314 79.1094C94.1678 79.1915 94.1873 79.2801 94.1887 79.3699C94.1902 79.4597 94.1737 79.5486 94.14 79.6319C93.83 80.7319 88.04 84.7019 81.22 87.1219C76.62 88.7419 71.5 89.682 67.32 88.512C63.14 87.342 60.57 83.852 61.65 80.012C62.59 76.632 65.8401 74.272 68.7801 73.012C71.4977 71.9178 74.391 71.3249 77.32 71.262C77.0433 71.2372 76.7692 71.1903 76.5 71.1219C73.8 70.3619 70.69 67.4921 71.5 64.5821C71.8435 63.5476 72.5094 62.6504 73.4001 62.022C76.4001 59.632 84.32 57.2919 90.1 58.9119C93.56 59.9119 95.1701 62.1019 94.5301 64.3819C93.9901 66.3219 90.25 69.3821 87.34 68.6021C87.1629 68.565 86.9953 68.4918 86.8477 68.3873C86.7 68.2827 86.5755 68.1489 86.4817 67.9942C86.3879 67.8395 86.3269 67.6671 86.3025 67.4878C86.2781 67.3086 86.2909 67.1261 86.34 66.952C86.3681 66.8179 86.4235 66.691 86.5026 66.5791C86.5817 66.4673 86.683 66.3731 86.8001 66.3021C88.5101 66.692 92.15 65.392 92.62 63.702C92.93 62.442 91.5201 61.782 90.5501 61.512Z" fill="black"/>
<path d="M71.43 89.5084C69.9954 89.5218 68.5657 89.3401 67.18 88.9683C65.1415 88.446 63.3486 87.2296 62.1099 85.5284C61.5289 84.7168 61.1374 83.7851 60.9643 82.8021C60.7912 81.819 60.841 80.8097 61.1099 79.8485C61.9499 76.8485 64.72 74.1484 68.54 72.5584C70.5208 71.7351 72.6081 71.1963 74.74 70.9583C72.37 69.6883 70.2199 67.1183 70.9699 64.4583C71.3417 63.3217 72.0671 62.3336 73.04 61.6382C76.13 59.1682 84.14 56.7483 90.18 58.4383C93.78 59.4383 95.6999 61.8884 94.9599 64.5284C94.3799 66.5884 90.42 70.0085 87.16 69.0985C86.9157 69.046 86.6847 68.9443 86.4809 68.7996C86.2772 68.655 86.105 68.4705 85.9749 68.2571C85.8449 68.0438 85.7596 67.8063 85.7243 67.5589C85.6891 67.3115 85.7047 67.0596 85.77 66.8184C85.8153 66.6232 85.8999 66.439 86.0185 66.2774C86.1371 66.1158 86.2872 65.98 86.4599 65.8782L86.63 65.7784H86.8199C88.3499 66.1384 91.68 64.8684 92.05 63.5284C92.1154 63.3469 92.1162 63.1482 92.0525 62.9661C91.9887 62.784 91.8642 62.6295 91.6999 62.5284C91.3025 62.2326 90.8505 62.0183 90.37 61.8983C88.19 61.2883 84.3699 61.4584 80.8599 62.3284C77.1499 63.2384 74.58 64.7484 74.16 66.2584C73.74 67.7684 76.95 68.8883 78.9 69.4283C80.3028 69.8718 81.7691 70.0814 83.24 70.0484H83.3499H83.4499C83.9789 70.2047 84.4625 70.4858 84.8599 70.8682C85.0906 71.0433 85.2679 71.2794 85.3722 71.5496C85.4764 71.8198 85.5033 72.1136 85.4499 72.3983C85.2499 73.1183 84.52 73.2883 83.9 73.3983C83.62 73.3983 83.2 73.4684 82.66 73.5084C80.07 73.7184 74.66 74.1483 69.91 76.6583C66.74 78.3083 64.9599 79.9884 64.4499 81.8084C64.2402 82.4695 64.294 83.186 64.5999 83.8084C64.849 84.1826 65.17 84.5033 65.5443 84.7523C65.9185 85.0012 66.3386 85.1733 66.78 85.2584C70.14 86.1984 74.8799 85.7784 80.4799 84.0384C86.4799 82.1984 91.96 79.2684 92.93 78.2884L93.01 78.1983H93.13C93.3573 78.1235 93.6026 78.1235 93.8299 78.1983C93.9683 78.2321 94.0979 78.2952 94.21 78.3831C94.3221 78.4711 94.4142 78.5819 94.4799 78.7083C94.561 78.8605 94.6107 79.0275 94.6262 79.1993C94.6416 79.371 94.6225 79.5441 94.5699 79.7083C94.1899 81.0783 88.1099 85.1284 81.3399 87.5284C78.1664 88.7236 74.8191 89.3924 71.43 89.5084ZM85.8199 58.8782C81.0099 58.8782 75.8999 60.6583 73.6999 62.4183C72.8957 62.9883 72.2907 63.7963 71.9699 64.7283C71.2399 67.3383 74.24 69.9783 76.62 70.6483C76.8599 70.7069 77.1039 70.7471 77.3499 70.7684V71.7684C74.4822 71.8227 71.6487 72.4023 68.99 73.4783C65.45 74.9583 62.89 77.4782 62.14 80.1182C61.8987 80.9335 61.8462 81.7933 61.9865 82.6319C62.1269 83.4705 62.4563 84.266 62.9499 84.9583C64.0571 86.4686 65.655 87.5469 67.4699 88.0084C71.9399 89.2584 77.3299 87.9482 81.0599 86.6282C88.0599 84.1282 93.41 80.2583 93.67 79.4683C93.696 79.3973 93.696 79.3194 93.67 79.2484H93.5899C92.1899 80.5184 86.7399 83.3383 80.8499 85.1483C74.9599 86.9583 70.1699 87.3782 66.5799 86.3782C66.0111 86.2586 65.4721 86.0264 64.9946 85.6949C64.5171 85.3634 64.1109 84.9394 63.8 84.4483C63.5748 84.0213 63.4375 83.5535 63.3963 83.0726C63.3551 82.5916 63.4107 82.1073 63.5599 81.6483C64.3399 78.8583 67.3299 77.0182 69.5599 75.8882C74.5599 73.2782 80.0399 72.8882 82.6899 72.6282L83.89 72.5184C84.1 72.5184 84.5499 72.4284 84.5999 72.2784C84.6499 72.1284 84.53 71.9783 84.28 71.7383C84.0227 71.4928 83.7158 71.3053 83.38 71.1883C81.8073 71.216 80.2405 70.9898 78.74 70.5184C74.6399 69.3784 72.8099 67.8982 73.3099 66.1182C74.0699 63.3982 78.7499 61.9683 80.7299 61.4883C84.4499 60.5683 88.3799 60.3984 90.7299 61.0584C91.3464 61.2186 91.9246 61.5006 92.43 61.8882C92.7322 62.1137 92.9582 62.4261 93.078 62.7835C93.1977 63.1409 93.2053 63.5263 93.0999 63.8882C92.5499 65.8882 88.8999 67.1582 86.9399 66.8882C86.8857 66.9627 86.8482 67.048 86.8299 67.1382C86.8038 67.2497 86.8013 67.3654 86.8226 67.4778C86.8438 67.5903 86.8883 67.6971 86.9533 67.7913C87.0183 67.8855 87.1023 67.9649 87.1999 68.0247C87.2975 68.0845 87.4065 68.1231 87.52 68.1382C90.14 68.8682 93.6199 65.9184 94.0899 64.2684C94.6699 62.1784 93.09 60.2683 90 59.4083C88.6373 59.0419 87.2309 58.8636 85.8199 58.8782Z" fill="black"/>
<path d="M94.2901 84.9815C93.9401 86.2515 94.0702 87.2415 94.9202 87.4815C97.5702 88.2215 103.92 82.9916 105.26 82.0516C105.483 82.1107 105.674 82.2518 105.797 82.4466C105.919 82.6414 105.963 82.8756 105.92 83.1016C105.55 84.4016 97.7201 90.4514 94.0101 89.4114C92.3701 88.9514 90.7601 87.5415 91.7601 83.9615C93.6501 77.2115 103.38 65.1916 108.23 66.5516C109.07 66.8474 109.761 67.4588 110.157 68.2562C110.553 69.0535 110.622 69.9739 110.35 70.8216C109.35 74.2816 100.58 78.6014 96.4101 80.6614C95.5105 81.9985 94.7973 83.4519 94.2901 84.9815ZM108.64 69.6214C108.79 69.1114 108.64 68.8816 108.37 68.8116C106.64 68.3316 101.77 73.2014 98.3701 77.8814C101.98 75.7014 107.16 72.4715 108.37 70.2715C108.473 70.0458 108.557 69.8117 108.62 69.5716L108.64 69.6214Z" fill="black"/>
<path d="M94.9302 89.9812C94.5927 89.9817 94.2565 89.9381 93.9302 89.8513C92.7302 89.5113 90.0801 88.2512 91.3301 83.7812C92.2801 80.4012 95.1101 75.7113 98.5601 71.8413C100.4 69.7813 105.03 65.0812 108.41 66.0212C108.898 66.1689 109.349 66.4207 109.73 66.759C110.112 67.0974 110.415 67.5143 110.62 67.9812C111.043 68.9062 111.127 69.95 110.86 70.9311C109.86 74.5511 101.39 78.7412 96.8602 80.9912C96.0123 82.2511 95.3395 83.6203 94.8602 85.0613C94.7202 85.5613 94.4602 86.7512 95.1302 86.9412C97.1302 87.5012 102.24 83.6812 104.13 82.2412C104.52 81.9512 104.82 81.7113 105.02 81.5713L105.24 81.4211L105.49 81.5212C105.837 81.6155 106.134 81.8394 106.32 82.1465C106.506 82.4536 106.567 82.8203 106.49 83.1711C105.96 84.7611 99.0902 89.9812 94.9302 89.9812ZM107.42 66.9011C105.42 66.9011 102.42 68.9012 99.2602 72.5012C96.1002 76.1012 93.1402 80.8513 92.2602 84.0513C91.5302 86.6613 92.1902 88.3311 94.1702 88.8911C97.5602 89.8311 105.17 83.9711 105.46 82.8911C105.471 82.8288 105.462 82.7649 105.435 82.7078C105.408 82.6506 105.365 82.603 105.31 82.5713L104.7 83.0312C100.86 85.9212 97.0102 88.5011 94.8002 87.8911C94.2902 87.7511 93.1702 87.1612 93.8002 84.7812C94.3172 83.2041 95.0508 81.7064 95.9802 80.3313L96.0502 80.2112L96.3602 80.0613C100.13 78.1913 108.97 73.8211 109.86 70.6211C110.068 69.8692 110.001 69.0676 109.67 68.3611C109.526 68.0244 109.308 67.7243 109.033 67.4822C108.758 67.24 108.432 67.062 108.08 66.9612C107.864 66.9075 107.642 66.8839 107.42 66.8911V66.9011ZM96.4202 79.5613L97.9002 77.5613C100.79 73.6513 106.22 67.6813 108.48 68.3113C108.94 68.4413 109.34 68.8812 109.1 69.7312C109.033 69.963 108.942 70.1874 108.83 70.4011V70.5012C107.57 72.6912 102.96 75.6712 98.6002 78.2912L96.4202 79.5613ZM108.05 69.1912C106.94 69.1912 103.73 71.8812 100.38 75.9912C103.18 74.2312 106.95 71.6812 107.92 69.9912C108.003 69.8151 108.076 69.6348 108.14 69.4512C108.16 69.3758 108.16 69.2966 108.14 69.2212L108.05 69.1912Z" fill="black"/>
<path d="M119.2 83.157C118.35 84.9921 117.131 86.6329 115.62 87.9771C117.815 88.0305 119.994 87.5824 121.99 86.667C122.37 86.777 122.49 87.1772 122.37 87.5972C122.25 88.0172 121.15 88.707 119.7 89.167C117.718 89.7997 115.615 89.9606 113.56 89.637C110.77 91.637 107.88 92.8672 105.94 92.3272C102.94 91.4872 102.38 87.8271 102.77 86.4371C104.11 81.6271 111.42 76.2971 115.6 77.4371C116.834 77.7208 117.906 78.482 118.581 79.554C119.255 80.626 119.478 81.9213 119.2 83.157ZM105.99 90.387C107.17 90.717 109.2 89.7871 110.86 88.7471L110.51 88.5071C109.689 88.0769 109.023 87.4019 108.604 86.5757C108.184 85.7496 108.033 84.8133 108.17 83.897C106.799 85.0441 105.731 86.5104 105.06 88.167C104.71 89.437 105.23 90.167 105.99 90.387ZM109.99 83.5472C109.792 84.2709 109.881 85.0433 110.239 85.7029C110.596 86.3626 111.195 86.8585 111.91 87.0872L112.72 87.4471C115.3 85.3871 117.03 83.2771 117.38 82.0171C117.73 80.7571 117.32 80.2671 116.48 80.0171C114.83 79.5771 110.71 80.9772 109.99 83.5472Z" fill="black"/>
<path d="M106.9 92.98C106.518 92.9828 106.138 92.9324 105.77 92.8301C102.56 91.9401 101.77 88.0601 102.25 86.3201C103.7 81.1101 111.37 75.8001 115.7 77.0101C117.139 77.3899 118.373 78.3155 119.14 79.5901C119.474 80.1463 119.694 80.7634 119.787 81.4056C119.879 82.0477 119.843 82.7021 119.68 83.3301C118.991 84.8916 118.01 86.3069 116.79 87.5C118.518 87.3741 120.211 86.9442 121.79 86.23L121.95 86.16H122.12C122.273 86.2077 122.414 86.2866 122.535 86.3916C122.656 86.4967 122.753 86.6257 122.822 86.7703C122.891 86.915 122.928 87.0722 122.933 87.2322C122.938 87.3922 122.91 87.5515 122.85 87.7C122.59 88.62 120.85 89.2999 119.85 89.6199C117.859 90.258 115.75 90.4358 113.68 90.1399C111.11 91.9799 108.73 92.98 106.9 92.98ZM114.29 77.8301C110.29 77.8301 104.4 82.3301 103.21 86.5901C102.86 87.8401 103.41 91.1299 106.04 91.8699C107.67 92.3199 110.36 91.35 113.23 89.25L113.4 89.1299H113.62C115.592 89.435 117.609 89.2776 119.51 88.67C121.13 88.16 121.79 87.61 121.85 87.44C121.861 87.3704 121.861 87.2996 121.85 87.23C119.859 88.0995 117.701 88.5194 115.53 88.46H114.36L115.22 87.6499C116.672 86.369 117.855 84.8123 118.7 83.0701C118.83 82.566 118.858 82.0408 118.783 81.5257C118.707 81.0105 118.529 80.5157 118.26 80.0701C117.621 79.0184 116.6 78.2549 115.41 77.94C115.045 77.8436 114.668 77.7966 114.29 77.8001V77.8301ZM106.53 90.98C106.301 90.9848 106.072 90.9578 105.85 90.8999C104.97 90.6499 104.11 89.7601 104.58 88.0701C105.286 86.3279 106.401 84.781 107.83 83.5601L108.83 82.5601L108.62 83.98C108.501 84.8008 108.641 85.6381 109.019 86.3763C109.397 87.1144 109.995 87.7169 110.73 88.1001L111.73 88.7701L111.08 89.18C109.732 90.1399 108.17 90.7577 106.53 90.98ZM106.12 89.98C106.87 90.18 108.28 89.7301 109.92 88.8001C109.299 88.4029 108.773 87.8732 108.381 87.2491C107.988 86.625 107.739 85.9219 107.65 85.19C106.716 86.0817 105.995 87.1719 105.54 88.3799C105.31 89.2199 105.54 89.81 106.12 89.98ZM112.8 88.1001L111.71 87.6099C110.884 87.3341 110.196 86.7521 109.787 85.9837C109.377 85.2153 109.278 84.3192 109.51 83.48C110.33 80.57 114.77 79.1099 116.61 79.6299C116.858 79.6784 117.093 79.7772 117.301 79.92C117.509 80.0627 117.686 80.2465 117.82 80.46C117.938 80.7385 117.998 81.0378 117.998 81.3401C117.998 81.6424 117.938 81.9416 117.82 82.22C117.41 83.68 115.56 85.86 113 87.91L112.8 88.1001ZM115.73 80.5201C114.03 80.5201 111.02 81.8 110.47 83.75C110.296 84.3666 110.372 85.0267 110.68 85.5879C110.989 86.1492 111.506 86.5667 112.12 86.75L112.65 86.99C115.2 84.9 116.65 82.99 116.9 81.99C117.017 81.6669 117.017 81.3131 116.9 80.99C116.9 80.9 116.74 80.7599 116.3 80.6399C116.12 80.5511 115.928 80.4872 115.73 80.45V80.5201Z" fill="black"/>
<path d="M124.23 88.7994C126.59 87.3694 132.62 84.5094 134.88 84.5494C135.218 84.5617 135.553 84.6119 135.88 84.6993C137.23 85.0793 138.07 86.1394 137.74 87.3194C137.703 87.4762 137.646 87.6275 137.57 87.7693C135.8 89.0493 132.28 92.6992 131.81 94.3892C131.67 94.8992 131.81 95.1594 132.24 95.2794C133.04 95.5094 134.77 95.0393 136.59 94.2293C137.966 93.625 139.254 92.8378 140.42 91.8892C140.524 91.9159 140.622 91.9632 140.708 92.0281C140.794 92.0931 140.866 92.1745 140.92 92.2676C140.974 92.3607 141.009 92.4636 141.022 92.5704C141.036 92.6771 141.029 92.7855 141 92.8892C140.75 93.7792 138.79 95.0994 136.66 96.0494C134.53 96.9994 132.44 97.6392 131.51 97.3792C129.87 96.9192 129.23 94.4693 129.79 92.4893C130.677 90.1081 132.281 88.0606 134.38 86.6292C130.6 86.6292 120.15 93.7492 118.94 95.6292C118.434 95.4203 118.03 95.0225 117.813 94.5201C117.597 94.0177 117.585 93.4504 117.78 92.9393C118.35 90.9393 125.25 83.3393 127.62 81.9993C127.873 81.8495 128.163 81.774 128.457 81.7818C128.75 81.7896 129.036 81.8802 129.281 82.0433C129.525 82.2063 129.719 82.4352 129.839 82.7034C129.959 82.9716 130.001 83.2684 129.96 83.5594C129.939 83.663 129.898 83.7615 129.84 83.8494C129.22 83.8294 125.55 87.1694 124.23 88.7994Z" fill="black"/>
<path d="M132.06 97.9779C131.847 97.9834 131.635 97.9564 131.43 97.8978C129.43 97.3478 128.75 94.5578 129.36 92.3878C129.991 90.5435 131.078 88.889 132.52 87.578C128.1 89.098 120.43 94.3678 119.41 95.9478L119.22 96.2579L118.86 96.1578C118.223 95.9196 117.706 95.4385 117.423 94.8199C117.14 94.2013 117.114 93.4956 117.35 92.8577C117.99 90.5777 125.04 82.9577 127.43 81.6177C127.662 81.4774 127.919 81.3855 128.187 81.3477C128.456 81.3099 128.729 81.3269 128.99 81.3978C129.497 81.5475 129.933 81.8741 130.22 82.3179C130.365 82.523 130.464 82.7567 130.511 83.0035C130.557 83.2502 130.55 83.5041 130.49 83.7479C130.45 83.923 130.371 84.0869 130.26 84.2279L130.09 84.4078H129.85C128.724 85.1062 127.689 85.9427 126.77 86.8978C129.57 85.5078 133.21 84.058 134.89 84.078C135.289 84.0874 135.685 84.1444 136.07 84.2479C137.74 84.7179 138.67 86.0779 138.28 87.4779C138.231 87.6778 138.153 87.8697 138.05 88.0479L137.91 88.1978C136.12 89.4978 132.76 93.0579 132.34 94.5579C132.329 94.6342 132.329 94.7116 132.34 94.7879H132.46C132.98 94.9379 134.46 94.6679 136.46 93.7879C137.797 93.2038 139.049 92.4401 140.18 91.5179L140.38 91.348L140.64 91.4278C140.809 91.4739 140.967 91.5532 141.105 91.661C141.243 91.7687 141.358 91.9026 141.443 92.0552C141.529 92.2079 141.583 92.3761 141.603 92.5499C141.623 92.7237 141.609 92.8999 141.56 93.0679C141.23 94.2579 138.87 95.6879 136.95 96.5379C135.416 97.2979 133.761 97.7851 132.06 97.9779ZM136.16 86.1478L134.7 87.088C132.698 88.4463 131.168 90.3924 130.32 92.6578C129.84 94.3678 130.32 96.5578 131.7 96.9378C132.41 97.1378 134.39 96.5978 136.5 95.6278C138.85 94.6278 140.41 93.3679 140.57 92.7979C140.594 92.7532 140.606 92.7035 140.606 92.6529C140.606 92.6024 140.594 92.5526 140.57 92.5079C139.439 93.3925 138.199 94.1285 136.88 94.6978C135.88 95.1378 133.45 96.1279 132.21 95.7879C132.047 95.7527 131.894 95.6825 131.761 95.5823C131.628 95.4822 131.519 95.3545 131.44 95.2078C131.33 94.9076 131.33 94.5781 131.44 94.2779C131.95 92.4379 135.52 88.7778 137.29 87.4578C137.29 87.3678 137.35 87.2778 137.37 87.1978C137.65 86.1978 136.78 85.4578 135.86 85.1978C135.556 85.1189 135.244 85.0754 134.93 85.0679C132.85 85.0679 126.93 87.7879 124.55 89.2479L122.1 90.7379L123.9 88.5079C124.83 87.3579 128.15 84.0579 129.59 83.5079C129.609 83.4014 129.605 83.2921 129.579 83.1871C129.553 83.0821 129.506 82.9835 129.44 82.8978C129.287 82.6555 129.053 82.4749 128.78 82.3878C128.645 82.3524 128.504 82.3458 128.366 82.3682C128.228 82.3906 128.097 82.4416 127.98 82.5179C125.63 83.8379 118.9 91.2978 118.38 93.1578C118.253 93.4934 118.235 93.8605 118.329 94.2069C118.422 94.5532 118.622 94.8615 118.9 95.088C121.04 92.618 130.76 86.2278 134.49 86.1978L136.16 86.1478Z" fill="black"/>
<path d="M73.16 103.432C91.9 101.432 111.62 99.5122 129.57 106.652C131.36 107.372 132.14 104.462 130.37 103.762C116.3 98.1623 100.88 98.0522 85.99 99.2122C81.71 99.5422 77.43 99.9822 73.16 100.432C71.26 100.632 71.24 103.632 73.16 103.432Z" fill="black"/>
</g>
<defs>
<clipPath id="clip0_250_47">
<rect width="178.27" height="205" fill="white"/>
</clipPath>
</defs>
</svg>
