<svg width="357" height="282" viewBox="0 0 357 282" fill="none" xmlns="http://www.w3.org/2000/svg">
<g clip-path="url(#clip0_250_352)">
<path d="M188.12 278.807C258.884 278.807 316.25 221.441 316.25 150.677C316.25 79.9126 258.884 22.5469 188.12 22.5469C117.356 22.5469 59.9902 79.9126 59.9902 150.677C59.9902 221.441 117.356 278.807 188.12 278.807Z" fill="#F8D949" stroke="black" stroke-width="5.23" stroke-linejoin="round"/>
<path d="M264.39 105.284C262.379 105.282 260.425 104.616 258.831 103.39C257.238 102.165 256.093 100.447 255.575 98.5037C255.058 96.5608 255.196 94.5012 255.969 92.6448C256.741 90.7885 258.105 89.2395 259.848 88.2376C261.592 87.2357 263.617 86.8373 265.61 87.1043C267.603 87.3713 269.452 88.2887 270.87 89.7142C272.288 91.1396 273.196 92.9933 273.453 94.9876C273.71 96.9819 273.301 99.0053 272.29 100.743C271.486 102.126 270.333 103.272 268.947 104.069C267.56 104.866 265.989 105.285 264.39 105.284Z" fill="white"/>
<path d="M264.41 90.6607C265.619 90.6616 266.794 91.0618 267.753 91.7988C268.711 92.5359 269.399 93.5685 269.711 94.7368C270.022 95.9052 269.939 97.1435 269.474 98.2598C269.01 99.3761 268.19 100.308 267.142 100.911C266.093 101.513 264.875 101.752 263.677 101.592C262.479 101.431 261.367 100.88 260.514 100.022C259.661 99.1653 259.115 98.0508 258.961 96.8516C258.806 95.6524 259.052 94.4358 259.66 93.3906C260.141 92.5575 260.834 91.8661 261.668 91.3867C262.502 90.9073 263.448 90.6569 264.41 90.6607ZM264.41 83.3906C261.314 83.3852 258.322 84.5043 255.99 86.5401C253.658 88.5759 252.145 91.39 251.732 94.458C251.319 97.5261 252.035 100.639 253.746 103.219C255.457 105.799 258.047 107.669 261.034 108.482C264.021 109.295 267.202 108.995 269.984 107.639C272.767 106.282 274.962 103.961 276.161 101.106C277.36 98.2524 277.481 95.06 276.503 92.1231C275.524 89.1862 273.511 86.7048 270.84 85.1406C268.889 84.0003 266.67 83.3965 264.41 83.3906Z" fill="black"/>
<path d="M150.96 137.427C167.722 137.427 181.31 123.838 181.31 107.077C181.31 90.3147 167.722 76.7266 150.96 76.7266C134.198 76.7266 120.61 90.3147 120.61 107.077C120.61 123.838 134.198 137.427 150.96 137.427Z" fill="#9CF0E8" stroke="black" stroke-width="6.62" stroke-linecap="round" stroke-linejoin="round"/>
<path d="M150.96 96.2969V118.817" stroke="black" stroke-width="7.27" stroke-linecap="round" stroke-linejoin="round"/>
<path d="M162.22 107.562H139.7" stroke="black" stroke-width="7.27" stroke-linecap="round" stroke-linejoin="round"/>
<path d="M177.54 55.0518C187.266 51.0648 195.012 43.3805 199.077 33.687C203.141 23.9935 203.193 13.0831 199.22 3.35156C201.193 8.17308 204.097 12.5589 207.765 16.2583C211.433 19.9577 215.793 22.8985 220.598 24.9126C225.402 26.9267 230.557 27.9744 235.766 27.9966C240.976 28.0187 246.138 27.0147 250.96 25.0415C246.138 27.0125 241.752 29.9142 238.052 33.5811C234.352 37.2479 231.41 41.6081 229.396 46.4121C227.382 51.2162 226.334 56.3699 226.312 61.5791C226.291 66.7883 227.296 71.9509 229.27 76.7715C227.301 71.9477 224.4 67.5594 220.735 63.8569C217.069 60.1544 212.709 57.2104 207.905 55.1934C203.101 53.1763 197.947 52.1254 192.737 52.1011C187.527 52.0768 182.363 53.0796 177.54 55.0518Z" fill="white" stroke="black" stroke-width="6.62" stroke-linecap="round" stroke-linejoin="round"/>
<path d="M45.89 204.177L153.97 192.677L165.72 131.867H29.75" fill="white"/>
<path d="M45.89 204.177L153.97 192.677L165.72 131.867H29.75" stroke="black" stroke-width="6.62" stroke-linecap="round" stroke-linejoin="round"/>
<path d="M124.32 228.938C123.621 230.293 123.239 231.789 123.203 233.313C123.167 234.838 123.478 236.35 124.113 237.737C124.747 239.123 125.689 240.348 126.866 241.317C128.043 242.286 129.425 242.975 130.908 243.332C132.39 243.688 133.934 243.703 135.424 243.375C136.913 243.047 138.308 242.385 139.503 241.439C140.699 240.493 141.664 239.287 142.325 237.913C142.986 236.539 143.327 235.033 143.32 233.508C143.313 231.915 142.922 230.347 142.18 228.938H124.32Z" fill="white" stroke="black" stroke-width="6.62" stroke-linecap="round" stroke-linejoin="round"/>
<path d="M62.8899 228.938C62.1908 230.293 61.8088 231.789 61.7728 233.313C61.7369 234.838 62.0479 236.35 62.6825 237.737C63.317 239.123 64.2585 240.348 65.4357 241.317C66.6128 242.286 67.9949 242.975 69.4774 243.332C70.9599 243.688 72.5042 243.703 73.9933 243.375C75.4825 243.047 76.8776 242.385 78.0732 241.439C79.2689 240.493 80.2338 239.287 80.895 237.913C81.5562 236.539 81.8964 235.033 81.8899 233.508C81.8827 231.915 81.4917 230.347 80.7499 228.938H62.8899Z" fill="white" stroke="black" stroke-width="6.62" stroke-linecap="round" stroke-linejoin="round"/>
<path d="M110.05 131.867L106.55 197.727" stroke="black" stroke-width="6.62" stroke-linecap="round" stroke-linejoin="round"/>
<path d="M129.46 131.867L122.64 196.017" stroke="black" stroke-width="6.62" stroke-linecap="round" stroke-linejoin="round"/>
<path d="M148.86 131.867L138.9 194.287" stroke="black" stroke-width="6.62" stroke-linecap="round" stroke-linejoin="round"/>
<path d="M87.4102 131.867L91.0002 199.377" stroke="black" stroke-width="6.62" stroke-linecap="round" stroke-linejoin="round"/>
<path d="M68.0098 131.867L75.3698 201.047" stroke="black" stroke-width="6.62" stroke-linecap="round" stroke-linejoin="round"/>
<path d="M48.6099 131.867L59.8999 202.687" stroke="black" stroke-width="6.62" stroke-linecap="round" stroke-linejoin="round"/>
<path d="M3.31006 106.297H24.0501L51.4101 228.937H151.7" stroke="black" stroke-width="6.62" stroke-linecap="round" stroke-linejoin="round"/>
<path d="M204.11 145.344V166.124H224.37V145.344" stroke="black" stroke-width="6.62" stroke-linecap="round" stroke-linejoin="round"/>
<path d="M278.37 233.564C302.731 233.564 322.48 213.815 322.48 189.454C322.48 165.092 302.731 145.344 278.37 145.344C254.008 145.344 234.26 165.092 234.26 189.454C234.26 213.815 254.008 233.564 278.37 233.564Z" fill="white" stroke="black" stroke-width="6.62" stroke-linecap="round" stroke-linejoin="round"/>
<path d="M352.89 233.562V145.352C350.991 145.35 349.11 145.723 347.355 146.45C345.6 147.176 344.005 148.241 342.662 149.584C341.319 150.927 340.254 152.521 339.528 154.276C338.802 156.031 338.429 157.912 338.43 159.812V198.032L352.89 197.742" fill="white"/>
<path d="M352.89 233.562V145.352C350.991 145.35 349.11 145.723 347.355 146.45C345.6 147.176 344.005 148.241 342.662 149.584C341.319 150.927 340.254 152.521 339.528 154.276C338.802 156.031 338.429 157.912 338.43 159.812V198.032L352.89 197.742" stroke="black" stroke-width="6.62" stroke-linecap="round" stroke-linejoin="round"/>
<path d="M214.24 145.344V232.094" stroke="black" stroke-width="6.62" stroke-linecap="round" stroke-linejoin="round"/>
<path d="M248.17 189.45C248.17 183.477 249.941 177.638 253.26 172.672C256.578 167.705 261.295 163.834 266.813 161.549C272.331 159.263 278.403 158.665 284.262 159.83C290.12 160.996 295.501 163.872 299.724 168.096C303.948 172.319 306.824 177.7 307.99 183.558C309.155 189.417 308.557 195.489 306.271 201.007C303.985 206.525 300.114 211.242 295.148 214.56C290.182 217.879 284.343 219.65 278.37 219.65" stroke="black" stroke-width="6.62" stroke-linecap="round" stroke-linejoin="round"/>
</g>
<defs>
<clipPath id="clip0_250_352">
<rect width="356.16" height="281.42" fill="white"/>
</clipPath>
</defs>
</svg>
