<svg width="394" height="299" viewBox="0 0 394 299" fill="none" xmlns="http://www.w3.org/2000/svg">
<g clip-path="url(#clip0_250_323)">
<path d="M177.35 295.588C248.114 295.588 305.48 238.222 305.48 167.458C305.48 96.6939 248.114 39.3281 177.35 39.3281C106.586 39.3281 49.2202 96.6939 49.2202 167.458C49.2202 238.222 106.586 295.588 177.35 295.588Z" fill="#9CF0E8" stroke="black" stroke-width="6.49" stroke-linecap="round" stroke-linejoin="round"/>
<path d="M54.5901 21.4268C52.6209 21.4257 50.7071 20.7741 49.146 19.5738C47.5848 18.3734 46.4637 16.6915 45.9567 14.7886C45.4496 12.8857 45.5851 10.8688 46.342 9.05083C47.0989 7.23284 48.4349 5.71526 50.1425 4.73442C51.8501 3.75359 53.8338 3.36432 55.7856 3.62651C57.7373 3.88871 59.5479 4.78789 60.9361 6.18462C62.3243 7.58134 63.2125 9.39734 63.4628 11.3506C63.7131 13.3039 63.3114 15.2853 62.3202 16.9869C61.5343 18.3399 60.4064 19.4624 59.0496 20.2417C57.6928 21.0211 56.1548 21.4297 54.5901 21.4268Z" fill="white"/>
<path d="M54.6001 7.10791C55.5501 7.10861 56.4825 7.36391 57.3001 7.84766C58.3081 8.44903 59.0918 9.36344 59.5316 10.4517C59.9715 11.5399 60.0433 12.7421 59.7363 13.875C59.4293 15.0079 58.7602 16.0093 57.8311 16.7266C56.902 17.4438 55.7638 17.8375 54.5901 17.8477C53.6386 17.8446 52.7044 17.593 51.8801 17.1177C50.8714 16.5158 50.0874 15.6004 49.6478 14.5112C49.2081 13.422 49.137 12.2189 49.4453 11.0854C49.7536 9.95205 50.4243 8.95082 51.3551 8.23438C52.2859 7.51793 53.4255 7.12567 54.6001 7.11768M54.6001 0.0078125C51.5752 0.0106598 48.6544 1.11191 46.3807 3.10693C44.1071 5.10195 42.6354 7.85471 42.2393 10.8535C41.8433 13.8523 42.5498 16.8933 44.2276 19.4102C45.9054 21.927 48.4401 23.7486 51.3605 24.5366C54.2809 25.3247 57.3881 25.0256 60.1043 23.6943C62.8205 22.3631 64.9607 20.0903 66.1269 17.2993C67.2932 14.5083 67.4061 11.389 66.4447 8.521C65.4833 5.65301 63.5129 3.23164 60.9001 1.70752C58.9871 0.594386 56.8134 0.00812091 54.6001 0.0078125Z" fill="black"/>
<path d="M281.52 66.1616L280.04 66.1016C279.78 72.705 276.915 78.9367 272.073 83.4341C267.231 87.9315 260.805 90.3287 254.2 90.1016L254.14 91.5815C260.744 91.842 266.975 94.7066 271.473 99.5488C275.97 104.391 278.367 110.817 278.14 117.421L279.61 117.481C279.871 110.878 282.735 104.646 287.577 100.149C292.419 95.6515 298.845 93.2543 305.45 93.4814L305.51 92.0015C302.238 91.8803 299.022 91.1157 296.046 89.7515C293.069 88.3872 290.391 86.4503 288.163 84.0508C285.935 81.6513 284.202 78.8365 283.062 75.7671C281.922 72.6977 281.398 69.4336 281.52 66.1616Z" fill="#F9D94A" stroke="black" stroke-width="6.49" stroke-linecap="round" stroke-linejoin="round"/>
<path d="M172.5 117.271C170.508 116.429 168.78 115.065 167.5 113.321L141.91 80.6612C141.91 80.6612 125.48 56.4714 122.39 53.8014C120.432 52.1619 118.07 51.0774 115.55 50.6612C111.4 50.3912 112.55 54.4811 112.55 54.4811C112.55 54.4811 132.61 106.691 133.95 111.721C134.83 115.051 133.14 116.781 131.95 117.571" fill="white"/>
<path d="M172.5 117.271C170.508 116.429 168.78 115.065 167.5 113.321L141.91 80.6612C141.91 80.6612 125.48 56.4714 122.39 53.8014C120.432 52.1619 118.07 51.0774 115.55 50.6612C111.4 50.3912 112.55 54.4811 112.55 54.4811C112.55 54.4811 132.61 106.691 133.95 111.721C134.83 115.051 133.14 116.781 131.95 117.571" stroke="black" stroke-width="7.12" stroke-linecap="round" stroke-linejoin="round"/>
<path d="M132.89 137.392C133.522 138.058 133.957 138.886 134.15 139.784C134.342 140.682 134.283 141.615 133.98 142.481C132.64 147.481 112.58 199.702 112.58 199.702C112.58 199.702 111.4 203.812 115.58 203.542C118.094 203.115 120.45 202.032 122.41 200.402C125.51 197.722 141.95 173.532 141.95 173.532L167.5 140.902C168.708 139.251 170.324 137.941 172.19 137.102" fill="white"/>
<path d="M132.89 137.392C133.522 138.058 133.957 138.886 134.15 139.784C134.342 140.682 134.283 141.615 133.98 142.481C132.64 147.481 112.58 199.702 112.58 199.702C112.58 199.702 111.4 203.812 115.58 203.542C118.094 203.115 120.45 202.032 122.41 200.402C125.51 197.722 141.95 173.532 141.95 173.532L167.5 140.902C168.708 139.251 170.324 137.941 172.19 137.102" stroke="black" stroke-width="7.12" stroke-linecap="round" stroke-linejoin="round"/>
<path d="M90.2198 118.457L76.4598 100.597C76.4598 100.597 72.9698 95.0469 68.4598 95.0469C67.2652 94.8322 66.0537 94.7248 64.8398 94.7266L74.2798 121.297" fill="white"/>
<path d="M90.2198 118.457L76.4598 100.597C76.4598 100.597 72.9698 95.0469 68.4598 95.0469C67.2652 94.8322 66.0537 94.7248 64.8398 94.7266L74.2798 121.297" stroke="black" stroke-width="7.12" stroke-linecap="round" stroke-linejoin="round"/>
<path d="M74.1598 133.188L64.8198 159.478C66.0336 159.479 67.2451 159.372 68.4398 159.158C72.9698 159.158 76.4398 153.598 76.4398 153.598L89.8598 136.188" fill="white"/>
<path d="M74.1598 133.188L64.8198 159.478C66.0336 159.479 67.2451 159.372 68.4398 159.158C72.9698 159.158 76.4398 153.598 76.4398 153.598L89.8598 136.188" stroke="black" stroke-width="7.12" stroke-linecap="round" stroke-linejoin="round"/>
<path d="M103.11 136.857C98.1099 136.857 63.1099 132.857 63.1099 127.857V126.367C63.1099 121.367 98.1099 117.367 103.11 117.367H192.11C197.11 117.367 210.11 121.367 210.11 126.367V127.857C210.11 132.857 197.11 136.857 192.11 136.857H103.11Z" fill="white" stroke="black" stroke-width="7.12" stroke-linecap="round" stroke-linejoin="round"/>
<path d="M3.56006 178.898H90.4401" stroke="black" stroke-width="7.12" stroke-linecap="round" stroke-linejoin="round"/>
<path d="M6.18994 73.3672H70.5799" stroke="black" stroke-width="7.12" stroke-linecap="round" stroke-linejoin="round"/>
<path d="M326.51 163.961H350.32" stroke="black" stroke-width="7.12" stroke-linecap="round" stroke-linejoin="round"/>
<path d="M338.53 181.797H389.97" stroke="black" stroke-width="7.12" stroke-linecap="round" stroke-linejoin="round"/>
<path d="M322.01 201.027L305.2 170.887C303.795 168.358 301.739 166.252 299.246 164.786C296.752 163.319 293.912 162.546 291.02 162.547H251.88C247.96 162.55 244.174 163.971 241.22 166.547L201.55 201.037" fill="white"/>
<path d="M322.01 201.027L305.2 170.887C303.795 168.358 301.739 166.252 299.246 164.786C296.752 163.319 293.912 162.546 291.02 162.547H251.88C247.96 162.55 244.174 163.971 241.22 166.547L201.55 201.037" stroke="black" stroke-width="6.49" stroke-linecap="round" stroke-linejoin="round"/>
<path d="M163.7 246.109L346.31 246.109C350.397 246.109 353.71 242.796 353.71 238.709V208.439C353.71 204.353 350.397 201.04 346.31 201.04L163.7 201.04C159.613 201.04 156.3 204.353 156.3 208.439V238.709C156.3 242.796 159.613 246.109 163.7 246.109Z" fill="#F9D94A" stroke="black" stroke-width="6.49" stroke-linecap="round" stroke-linejoin="round"/>
<path d="M187.76 267.311C199.474 267.311 208.97 257.815 208.97 246.101C208.97 234.387 199.474 224.891 187.76 224.891C176.046 224.891 166.55 234.387 166.55 246.101C166.55 257.815 176.046 267.311 187.76 267.311Z" fill="#F9D94A" stroke="black" stroke-width="6.49" stroke-linecap="round" stroke-linejoin="round"/>
<path d="M187.76 261.032C196.006 261.032 202.69 254.347 202.69 246.102C202.69 237.856 196.006 231.172 187.76 231.172C179.514 231.172 172.83 237.856 172.83 246.102C172.83 254.347 179.514 261.032 187.76 261.032Z" fill="white" stroke="black" stroke-width="6.49" stroke-linecap="round" stroke-linejoin="round"/>
<path d="M187.76 249.339C189.549 249.339 191 247.889 191 246.099C191 244.31 189.549 242.859 187.76 242.859C185.971 242.859 184.52 244.31 184.52 246.099C184.52 247.889 185.971 249.339 187.76 249.339Z" fill="#F9D94A" stroke="black" stroke-width="6.49" stroke-linecap="round" stroke-linejoin="round"/>
<path d="M308.52 267.311C320.234 267.311 329.73 257.815 329.73 246.101C329.73 234.387 320.234 224.891 308.52 224.891C296.806 224.891 287.31 234.387 287.31 246.101C287.31 257.815 296.806 267.311 308.52 267.311Z" fill="#F9D94A" stroke="black" stroke-width="6.49" stroke-linecap="round" stroke-linejoin="round"/>
<path d="M308.52 261.032C316.765 261.032 323.45 254.347 323.45 246.102C323.45 237.856 316.765 231.172 308.52 231.172C300.274 231.172 293.59 237.856 293.59 246.102C293.59 254.347 300.274 261.032 308.52 261.032Z" fill="white" stroke="black" stroke-width="6.49" stroke-linecap="round" stroke-linejoin="round"/>
<path d="M308.52 249.339C310.309 249.339 311.76 247.889 311.76 246.099C311.76 244.31 310.309 242.859 308.52 242.859C306.73 242.859 305.28 244.31 305.28 246.099C305.28 247.889 306.73 249.339 308.52 249.339Z" fill="#F9D94A" stroke="black" stroke-width="6.49" stroke-linecap="round" stroke-linejoin="round"/>
<path d="M340.13 227.852H353.71V212.161H340.13V227.852Z" fill="#9CF0E8" stroke="black" stroke-width="6.49" stroke-linecap="round" stroke-linejoin="round"/>
<path d="M220.63 225.753V234.372H276.58V201.042V162.562" stroke="black" stroke-width="6.49" stroke-linecap="round" stroke-linejoin="round"/>
<path d="M159.43 212.172H173.52L160.7 225.002H159.43" fill="white"/>
<path d="M159.43 212.172H173.52L160.7 225.002H159.43" stroke="black" stroke-width="6.49" stroke-linecap="round" stroke-linejoin="round"/>
</g>
<defs>
<clipPath id="clip0_250_323">
<rect width="393.52" height="298.83" fill="white"/>
</clipPath>
</defs>
</svg>
