<svg width="1342" height="970" viewBox="0 0 1342 970" fill="none" xmlns="http://www.w3.org/2000/svg">
<g clip-path="url(#clip0_250_95)">
<path d="M1293.89 19.9961L24.2744 87.8672L71.3848 969.129L1341 901.258L1293.89 19.9961Z" fill="black"/>
<path d="M1273.39 3.82424L3.77051 71.6953L50.8809 952.957L1320.5 885.086L1273.39 3.82424Z" fill="#D5F5D6" stroke="black" stroke-width="7.73" stroke-linejoin="round"/>
<path d="M183.5 141.688L219.97 823.278L1208.21 770.388" stroke="black" stroke-width="7.73" stroke-linejoin="round"/>
<path d="M112.924 161.472L102.462 162.032L102.281 158.637L111.209 142.388L115.227 142.173L116.094 158.385L119.558 158.2L119.713 161.109L116.249 161.294L116.538 166.698L113.212 166.876L112.924 161.472ZM112.113 146.3L112.043 146.303L105.216 158.966L112.768 158.562L112.113 146.3ZM135.993 144.189L126.051 144.721L126.275 150.858C126.433 150.78 126.66 150.698 126.957 150.613C127.253 150.528 127.55 150.454 127.848 150.392C128.169 150.328 128.479 150.277 128.778 150.238C129.077 150.198 129.33 150.173 129.538 150.162C130.693 150.101 131.743 150.241 132.687 150.584C133.655 150.926 134.493 151.437 135.201 152.118C135.909 152.798 136.463 153.625 136.862 154.599C137.285 155.573 137.528 156.66 137.592 157.861C137.658 159.085 137.486 160.206 137.077 161.223C136.692 162.24 136.125 163.127 135.378 163.885C134.632 164.643 133.749 165.246 132.731 165.694C131.711 166.119 130.601 166.364 129.4 166.428C127.737 166.517 126.214 166.17 124.828 165.387C123.443 164.604 122.419 163.431 121.757 161.869L125.056 160.546C125.555 161.654 126.188 162.442 126.954 162.911C127.719 163.356 128.656 163.549 129.764 163.49C130.411 163.456 131.017 163.307 131.582 163.046C132.17 162.783 132.661 162.432 133.054 161.994C133.469 161.532 133.787 160.982 134.008 160.345C134.229 159.708 134.318 158.997 134.276 158.212C134.18 156.41 133.554 155.101 132.399 154.282C131.265 153.44 129.821 153.065 128.066 153.159C127.442 153.192 126.652 153.35 125.694 153.633C124.758 153.892 123.886 154.251 123.077 154.711L122.663 141.775L135.826 141.072L135.993 144.189ZM140.593 153.115C140.544 152.214 140.541 151.276 140.581 150.301C140.622 149.327 140.733 148.371 140.914 147.435C141.118 146.475 141.393 145.557 141.74 144.681C142.11 143.804 142.59 143.038 143.18 142.381C143.792 141.7 144.515 141.151 145.35 140.736C146.207 140.297 147.212 140.046 148.367 139.984C149.522 139.923 150.537 140.065 151.412 140.412C152.31 140.735 153.087 141.203 153.745 141.816C154.425 142.405 154.984 143.116 155.423 143.95C155.884 144.782 156.256 145.665 156.537 146.6C156.84 147.51 157.064 148.448 157.209 149.413C157.353 150.378 157.449 151.31 157.497 152.211C157.566 153.504 157.525 154.896 157.373 156.386C157.221 157.877 156.867 159.274 156.312 160.577C155.756 161.881 154.946 162.978 153.882 163.868C152.841 164.758 151.455 165.249 149.723 165.341C147.991 165.434 146.548 165.094 145.395 164.322C144.265 163.549 143.355 162.544 142.663 161.307C141.972 160.07 141.471 158.719 141.161 157.253C140.851 155.787 140.662 154.408 140.593 153.115ZM143.918 152.937C143.961 153.745 144.059 154.701 144.21 155.805C144.385 156.907 144.673 157.969 145.075 158.989C145.476 159.987 146.03 160.826 146.738 161.506C147.469 162.185 148.412 162.493 149.567 162.432C150.722 162.37 151.615 161.963 152.246 161.211C152.901 160.458 153.374 159.565 153.666 158.53C153.957 157.472 154.119 156.387 154.152 155.273C154.208 154.159 154.215 153.197 154.172 152.389C154.142 151.835 154.086 151.212 154.002 150.522C153.941 149.807 153.822 149.096 153.645 148.387C153.49 147.654 153.279 146.959 153.012 146.302C152.744 145.621 152.4 145.026 151.979 144.516C151.58 143.981 151.095 143.567 150.523 143.274C149.952 142.98 149.285 142.854 148.523 142.894C147.761 142.935 147.111 143.132 146.574 143.485C146.037 143.838 145.587 144.302 145.224 144.877C144.883 145.428 144.616 146.056 144.422 146.761C144.226 147.443 144.079 148.157 143.98 148.904C143.903 149.626 143.861 150.346 143.853 151.065C143.867 151.759 143.888 152.383 143.918 152.937Z" fill="black"/>
<path d="M118.124 246.324L107.662 246.883L107.481 243.488L116.409 227.239L120.427 227.024L121.294 243.236L124.758 243.051L124.913 245.961L121.449 246.146L121.738 251.55L118.412 251.728L118.124 246.324ZM117.312 231.151L117.243 231.155L110.416 243.818L117.968 243.414L117.312 231.151ZM127.426 247.702L136.742 237.408C137.071 237.066 137.387 236.702 137.691 236.315C137.993 235.905 138.26 235.486 138.492 235.056C138.724 234.627 138.897 234.178 139.011 233.708C139.148 233.238 139.203 232.749 139.175 232.241C139.143 231.64 138.999 231.104 138.742 230.631C138.508 230.157 138.186 229.769 137.777 229.467C137.389 229.14 136.924 228.899 136.383 228.742C135.865 228.585 135.317 228.521 134.74 228.552C133.539 228.616 132.564 229.004 131.815 229.716C131.065 230.428 130.618 231.378 130.473 232.567L126.854 232.448C126.958 231.354 127.219 230.402 127.639 229.592C128.081 228.758 128.634 228.056 129.299 227.488C129.986 226.919 130.773 226.483 131.66 226.181C132.571 225.877 133.557 225.697 134.619 225.64C135.681 225.584 136.683 225.681 137.622 225.932C138.584 226.158 139.427 226.541 140.15 227.082C140.896 227.598 141.488 228.272 141.926 229.106C142.386 229.915 142.646 230.885 142.707 232.017C142.75 232.825 142.664 233.594 142.448 234.324C142.254 235.029 141.978 235.704 141.618 236.348C141.259 236.993 140.84 237.606 140.362 238.187C139.883 238.769 139.381 239.34 138.855 239.9L131.201 248.126L143.533 247.467L143.688 250.377L127.615 251.236L127.426 247.702ZM160.442 228.012L150.5 228.543L150.724 234.68C150.881 234.602 151.109 234.521 151.405 234.435C151.702 234.35 151.999 234.276 152.297 234.214C152.617 234.151 152.927 234.099 153.226 234.06C153.525 234.021 153.779 233.996 153.987 233.985C155.141 233.923 156.191 234.064 157.136 234.407C158.104 234.749 158.941 235.26 159.649 235.94C160.357 236.62 160.911 237.448 161.311 238.422C161.733 239.395 161.977 240.482 162.041 241.683C162.106 242.907 161.935 244.028 161.526 245.046C161.14 246.062 160.574 246.949 159.827 247.707C159.08 248.465 158.197 249.068 157.179 249.516C156.16 249.941 155.05 250.186 153.849 250.25C152.186 250.339 150.662 249.992 149.277 249.209C147.892 248.426 146.868 247.254 146.205 245.691L149.504 244.368C150.004 245.476 150.636 246.265 151.403 246.733C152.168 247.179 153.104 247.372 154.213 247.313C154.859 247.278 155.465 247.13 156.03 246.868C156.618 246.605 157.109 246.255 157.502 245.817C157.918 245.354 158.236 244.805 158.457 244.168C158.677 243.531 158.767 242.819 158.725 242.034C158.628 240.233 158.002 238.923 156.847 238.105C155.713 237.262 154.269 236.888 152.514 236.982C151.891 237.015 151.1 237.173 150.142 237.456C149.207 237.714 148.334 238.074 147.525 238.534L147.111 225.598L160.275 224.894L160.442 228.012Z" fill="black"/>
<path d="M120.973 331.293L110.512 331.852L110.331 328.457L119.258 312.208L123.277 311.993L124.143 328.205L127.607 328.02L127.763 330.93L124.299 331.115L124.588 336.519L121.262 336.697L120.973 331.293ZM120.162 316.12L120.093 316.124L113.266 328.786L120.818 328.383L120.162 316.12ZM129.394 323.964C129.346 323.063 129.342 322.126 129.382 321.151C129.423 320.176 129.534 319.22 129.716 318.284C129.919 317.324 130.194 316.406 130.541 315.53C130.911 314.654 131.391 313.887 131.981 313.23C132.593 312.549 133.317 312.001 134.151 311.586C135.008 311.146 136.014 310.895 137.168 310.834C138.323 310.772 139.338 310.915 140.214 311.262C141.111 311.584 141.889 312.052 142.547 312.665C143.227 313.254 143.786 313.966 144.224 314.799C144.685 315.631 145.057 316.515 145.338 317.449C145.642 318.359 145.866 319.297 146.01 320.262C146.154 321.227 146.25 322.16 146.298 323.06C146.368 324.354 146.326 325.745 146.174 327.236C146.022 328.726 145.669 330.123 145.113 331.426C144.557 332.73 143.747 333.827 142.683 334.718C141.642 335.607 140.256 336.098 138.524 336.191C136.792 336.283 135.349 335.943 134.196 335.171C133.067 334.398 132.156 333.393 131.465 332.156C130.773 330.919 130.272 329.568 129.962 328.102C129.652 326.637 129.463 325.257 129.394 323.964ZM132.719 323.786C132.763 324.595 132.86 325.55 133.012 326.654C133.186 327.756 133.475 328.818 133.877 329.839C134.277 330.836 134.832 331.675 135.54 332.355C136.271 333.034 137.214 333.343 138.368 333.281C139.523 333.219 140.416 332.812 141.048 332.061C141.702 331.308 142.175 330.414 142.467 329.379C142.758 328.322 142.92 327.236 142.953 326.123C143.01 325.008 143.016 324.046 142.973 323.238C142.943 322.684 142.887 322.062 142.804 321.371C142.742 320.657 142.623 319.945 142.446 319.236C142.291 318.504 142.081 317.809 141.814 317.151C141.546 316.471 141.201 315.875 140.78 315.365C140.381 314.831 139.896 314.417 139.324 314.123C138.753 313.829 138.086 313.703 137.324 313.744C136.562 313.784 135.912 313.981 135.375 314.334C134.838 314.687 134.388 315.151 134.025 315.726C133.684 316.277 133.417 316.905 133.223 317.61C133.028 318.292 132.881 319.007 132.782 319.753C132.704 320.475 132.662 321.195 132.654 321.914C132.668 322.608 132.69 323.232 132.719 323.786ZM148.642 322.935C148.594 322.034 148.59 321.097 148.631 320.122C148.671 319.147 148.782 318.191 148.964 317.255C149.167 316.295 149.443 315.377 149.79 314.501C150.16 313.625 150.64 312.858 151.23 312.201C151.842 311.52 152.565 310.972 153.4 310.557C154.257 310.117 155.262 309.866 156.417 309.805C157.572 309.743 158.587 309.886 159.462 310.233C160.359 310.555 161.137 311.023 161.795 311.636C162.475 312.225 163.034 312.937 163.473 313.77C163.934 314.602 164.305 315.486 164.587 316.42C164.89 317.33 165.114 318.268 165.258 319.233C165.403 320.198 165.499 321.131 165.547 322.031C165.616 323.325 165.575 324.716 165.423 326.207C165.271 327.697 164.917 329.094 164.361 330.397C163.806 331.701 162.996 332.798 161.932 333.689C160.891 334.578 159.504 335.069 157.772 335.162C156.04 335.254 154.598 334.914 153.445 334.142C152.315 333.369 151.404 332.364 150.713 331.127C150.022 329.89 149.521 328.539 149.211 327.073C148.901 325.608 148.711 324.228 148.642 322.935ZM151.968 322.757C152.011 323.566 152.108 324.521 152.26 325.625C152.435 326.727 152.723 327.789 153.125 328.81C153.526 329.807 154.08 330.646 154.788 331.326C155.519 332.005 156.462 332.314 157.617 332.252C158.772 332.19 159.665 331.783 160.296 331.032C160.951 330.279 161.424 329.385 161.716 328.35C162.007 327.293 162.169 326.207 162.202 325.094C162.258 323.979 162.265 323.017 162.221 322.209C162.192 321.655 162.135 321.033 162.052 320.342C161.991 319.628 161.872 318.916 161.695 318.207C161.54 317.475 161.329 316.78 161.062 316.122C160.794 315.442 160.45 314.846 160.029 314.336C159.63 313.802 159.144 313.388 158.573 313.094C158.001 312.8 157.334 312.674 156.572 312.715C155.81 312.755 155.161 312.952 154.624 313.305C154.087 313.658 153.637 314.122 153.274 314.697C152.933 315.248 152.665 315.876 152.471 316.581C152.276 317.263 152.129 317.978 152.03 318.724C151.953 319.446 151.91 320.166 151.902 320.885C151.916 321.579 151.938 322.203 151.968 322.757Z" fill="black"/>
<path d="M122.035 415.772C122.491 416.929 123.057 417.779 123.735 418.322C124.435 418.863 125.432 419.1 126.725 419.03C127.372 418.996 127.967 418.86 128.51 418.622C129.075 418.361 129.567 418.033 129.986 417.64C130.404 417.224 130.726 416.744 130.951 416.199C131.176 415.631 131.27 415.012 131.234 414.343C131.18 413.327 130.917 412.53 130.446 411.953C129.997 411.352 129.43 410.919 128.744 410.654C128.057 410.367 127.307 410.199 126.494 410.149C125.681 410.1 124.881 410.097 124.096 410.139L123.941 407.229C125.211 407.161 126.246 407.025 127.045 406.82C127.844 406.592 128.465 406.304 128.91 405.956C129.354 405.608 129.656 405.186 129.815 404.691C129.974 404.197 130.037 403.649 130.005 403.049C129.935 401.732 129.489 400.76 128.668 400.132C127.847 399.505 126.848 399.222 125.67 399.285C124.769 399.333 123.964 399.643 123.253 400.213C122.564 400.76 122.058 401.47 121.734 402.344L118.278 401.383C118.841 399.778 119.761 398.571 121.037 397.761C122.336 396.928 123.805 396.467 125.445 396.379C126.438 396.326 127.392 396.414 128.308 396.643C129.245 396.848 130.075 397.209 130.797 397.726C131.52 398.243 132.1 398.918 132.538 399.752C132.999 400.561 133.259 401.531 133.319 402.663C133.388 403.956 133.058 405.132 132.327 406.19C131.619 407.247 130.651 407.993 129.424 408.43L129.428 408.499C130.197 408.597 130.892 408.814 131.512 409.152C132.133 409.489 132.665 409.924 133.111 410.456C133.556 410.988 133.901 411.595 134.146 412.276C134.39 412.935 134.532 413.645 134.572 414.407C134.635 415.585 134.46 416.637 134.046 417.562C133.654 418.463 133.094 419.234 132.364 419.875C131.655 420.492 130.813 420.977 129.836 421.331C128.882 421.683 127.862 421.888 126.777 421.946C124.906 422.046 123.232 421.707 121.755 420.929C120.3 420.15 119.247 418.851 118.594 417.033L122.035 415.772ZM148.658 398.682L136.811 399.315L136.656 396.405L152.071 395.581L152.222 398.422L143.613 420.629L139.872 420.829L148.658 398.682ZM170.931 397.699L160.99 398.231L161.214 404.368C161.371 404.29 161.599 404.208 161.895 404.123C162.192 404.038 162.489 403.964 162.787 403.902C163.107 403.838 163.417 403.787 163.716 403.748C164.015 403.709 164.269 403.683 164.477 403.672C165.631 403.611 166.681 403.751 167.626 404.095C168.594 404.437 169.431 404.948 170.139 405.628C170.847 406.308 171.401 407.135 171.801 408.11C172.223 409.083 172.467 410.17 172.531 411.371C172.596 412.595 172.425 413.716 172.016 414.733C171.63 415.75 171.064 416.637 170.317 417.395C169.57 418.153 168.687 418.756 167.669 419.204C166.65 419.629 165.54 419.874 164.339 419.938C162.676 420.027 161.152 419.68 159.767 418.897C158.382 418.114 157.358 416.941 156.695 415.379L159.994 414.056C160.494 415.164 161.126 415.952 161.893 416.421C162.658 416.866 163.594 417.059 164.703 417C165.349 416.966 165.955 416.817 166.52 416.556C167.108 416.293 167.599 415.942 167.992 415.504C168.408 415.042 168.726 414.492 168.947 413.855C169.167 413.218 169.257 412.507 169.215 411.722C169.118 409.92 168.492 408.611 167.337 407.792C166.203 406.95 164.759 406.575 163.004 406.669C162.381 406.702 161.59 406.861 160.632 407.143C159.697 407.402 158.824 407.761 158.015 408.221L157.601 395.285L170.765 394.582L170.931 397.699Z" fill="black"/>
<path d="M124.795 500.757C125.251 501.914 125.817 502.763 126.495 503.306C127.195 503.848 128.192 504.084 129.485 504.015C130.132 503.98 130.727 503.844 131.27 503.607C131.835 503.345 132.327 503.018 132.746 502.625C133.164 502.209 133.486 501.728 133.711 501.183C133.936 500.616 134.03 499.997 133.994 499.327C133.94 498.311 133.677 497.514 133.206 496.937C132.757 496.336 132.19 495.903 131.504 495.639C130.817 495.351 130.067 495.183 129.254 495.134C128.441 495.085 127.641 495.081 126.856 495.123L126.701 492.213C127.971 492.145 129.006 492.009 129.805 491.804C130.604 491.576 131.225 491.288 131.67 490.94C132.114 490.592 132.416 490.171 132.575 489.676C132.734 489.181 132.797 488.633 132.765 488.033C132.695 486.717 132.249 485.745 131.428 485.117C130.607 484.489 129.608 484.207 128.43 484.27C127.529 484.318 126.724 484.627 126.013 485.198C125.324 485.744 124.818 486.454 124.494 487.329L121.038 486.367C121.601 484.762 122.521 483.555 123.797 482.746C125.096 481.912 126.565 481.451 128.205 481.364C129.198 481.31 130.152 481.398 131.068 481.627C132.005 481.832 132.835 482.193 133.557 482.71C134.28 483.227 134.86 483.903 135.298 484.736C135.759 485.545 136.019 486.516 136.079 487.647C136.148 488.941 135.818 490.116 135.087 491.174C134.379 492.231 133.411 492.978 132.184 493.414L132.188 493.483C132.957 493.581 133.652 493.799 134.272 494.136C134.893 494.473 135.425 494.908 135.871 495.44C136.316 495.972 136.661 496.579 136.906 497.261C137.15 497.919 137.292 498.63 137.333 499.392C137.395 500.57 137.22 501.621 136.806 502.546C136.414 503.447 135.854 504.219 135.124 504.86C134.415 505.477 133.573 505.962 132.596 506.315C131.642 506.667 130.622 506.872 129.537 506.93C127.666 507.03 125.992 506.691 124.515 505.913C123.06 505.134 122.007 503.836 121.354 502.018L124.795 500.757ZM154.443 483.713L144.501 484.244L144.725 490.381C144.883 490.303 145.11 490.222 145.407 490.136C145.703 490.051 146 489.977 146.298 489.915C146.619 489.851 146.929 489.8 147.228 489.761C147.527 489.722 147.78 489.697 147.988 489.686C149.143 489.624 150.192 489.765 151.137 490.108C152.105 490.45 152.943 490.961 153.651 491.641C154.359 492.321 154.913 493.148 155.312 494.123C155.735 495.096 155.978 496.183 156.042 497.384C156.108 498.608 155.936 499.729 155.527 500.747C155.142 501.763 154.575 502.65 153.828 503.408C153.081 504.166 152.199 504.769 151.181 505.217C150.161 505.642 149.051 505.887 147.85 505.951C146.187 506.04 144.663 505.693 143.278 504.91C141.893 504.127 140.869 502.955 140.207 501.392L143.506 500.069C144.005 501.177 144.638 501.966 145.404 502.434C146.169 502.88 147.106 503.073 148.214 503.014C148.861 502.979 149.467 502.831 150.032 502.569C150.62 502.306 151.111 501.955 151.504 501.518C151.919 501.055 152.237 500.506 152.458 499.869C152.679 499.231 152.768 498.52 152.726 497.735C152.63 495.934 152.004 494.624 150.849 493.806C149.715 492.963 148.271 492.589 146.516 492.683C145.892 492.716 145.101 492.874 144.144 493.157C143.208 493.415 142.336 493.774 141.527 494.235L141.113 481.299L154.276 480.595L154.443 483.713ZM159.042 492.638C158.994 491.737 158.991 490.8 159.031 489.825C159.072 488.85 159.183 487.895 159.364 486.958C159.568 485.998 159.843 485.08 160.19 484.205C160.56 483.328 161.04 482.561 161.63 481.904C162.242 481.223 162.965 480.675 163.8 480.26C164.657 479.82 165.662 479.57 166.817 479.508C167.972 479.446 168.987 479.589 169.862 479.936C170.76 480.258 171.537 480.726 172.195 481.339C172.875 481.928 173.434 482.64 173.873 483.473C174.334 484.305 174.705 485.189 174.987 486.123C175.29 487.033 175.514 487.971 175.658 488.936C175.803 489.901 175.899 490.834 175.947 491.734C176.016 493.028 175.975 494.42 175.823 495.91C175.671 497.4 175.317 498.797 174.762 500.101C174.206 501.404 173.396 502.501 172.332 503.392C171.291 504.281 169.905 504.772 168.173 504.865C166.44 504.957 164.998 504.618 163.845 503.845C162.715 503.072 161.805 502.067 161.113 500.83C160.422 499.593 159.921 498.242 159.611 496.776C159.301 495.311 159.112 493.931 159.042 492.638ZM162.368 492.46C162.411 493.269 162.509 494.225 162.66 495.328C162.835 496.43 163.123 497.492 163.525 498.513C163.926 499.51 164.48 500.349 165.188 501.029C165.919 501.708 166.862 502.017 168.017 501.955C169.172 501.893 170.065 501.486 170.696 500.735C171.351 499.982 171.824 499.088 172.116 498.053C172.407 496.996 172.569 495.91 172.602 494.797C172.658 493.682 172.665 492.721 172.622 491.912C172.592 491.358 172.536 490.736 172.452 490.045C172.391 489.331 172.272 488.619 172.095 487.911C171.94 487.178 171.729 486.483 171.462 485.825C171.194 485.145 170.85 484.55 170.429 484.039C170.03 483.505 169.545 483.091 168.973 482.797C168.401 482.503 167.735 482.377 166.973 482.418C166.21 482.458 165.561 482.655 165.024 483.008C164.487 483.361 164.037 483.825 163.674 484.4C163.333 484.951 163.065 485.579 162.872 486.285C162.676 486.967 162.529 487.681 162.43 488.427C162.353 489.149 162.311 489.87 162.303 490.588C162.317 491.282 162.338 491.906 162.368 492.46Z" fill="black"/>
<path d="M129.695 585.624C130.15 586.781 130.717 587.631 131.394 588.173C132.095 588.715 133.092 588.951 134.385 588.882C135.032 588.847 135.627 588.711 136.17 588.474C136.735 588.212 137.227 587.885 137.646 587.492C138.064 587.076 138.385 586.595 138.611 586.051C138.835 585.483 138.93 584.864 138.894 584.194C138.84 583.178 138.577 582.382 138.106 581.805C137.657 581.203 137.09 580.77 136.404 580.506C135.717 580.219 134.967 580.05 134.154 580.001C133.34 579.952 132.541 579.948 131.756 579.99L131.6 577.08C132.871 577.013 133.906 576.876 134.705 576.671C135.504 576.443 136.125 576.155 136.57 575.807C137.014 575.459 137.316 575.038 137.475 574.543C137.634 574.048 137.697 573.501 137.665 572.9C137.595 571.584 137.149 570.612 136.328 569.984C135.507 569.356 134.507 569.074 133.33 569.137C132.429 569.185 131.623 569.494 130.913 570.065C130.224 570.611 129.718 571.322 129.394 572.196L125.938 571.234C126.501 569.629 127.421 568.422 128.697 567.613C129.996 566.779 131.465 566.318 133.105 566.231C134.098 566.178 135.052 566.266 135.968 566.495C136.905 566.699 137.735 567.06 138.457 567.577C139.18 568.095 139.76 568.77 140.198 569.603C140.658 570.413 140.919 571.383 140.979 572.515C141.048 573.808 140.718 574.983 139.987 576.042C139.279 577.098 138.311 577.845 137.084 578.281L137.088 578.35C137.857 578.448 138.552 578.666 139.172 579.003C139.792 579.341 140.325 579.775 140.771 580.307C141.216 580.839 141.561 581.446 141.806 582.128C142.049 582.787 142.192 583.497 142.232 584.259C142.295 585.437 142.12 586.488 141.706 587.414C141.314 588.315 140.753 589.086 140.023 589.727C139.315 590.344 138.473 590.829 137.496 591.182C136.542 591.534 135.522 591.739 134.437 591.797C132.566 591.897 130.892 591.558 129.415 590.78C127.96 590.001 126.907 588.703 126.254 586.885L129.695 585.624ZM145.576 587.242L154.892 576.947C155.221 576.605 155.537 576.241 155.841 575.854C156.143 575.444 156.41 575.025 156.642 574.595C156.874 574.166 157.047 573.717 157.161 573.248C157.298 572.777 157.353 572.288 157.325 571.78C157.293 571.179 157.149 570.643 156.892 570.17C156.658 569.696 156.336 569.308 155.926 569.006C155.538 568.679 155.074 568.438 154.533 568.281C154.015 568.124 153.467 568.06 152.89 568.091C151.689 568.155 150.714 568.543 149.965 569.255C149.215 569.967 148.768 570.917 148.623 572.106L145.004 571.987C145.108 570.893 145.369 569.941 145.789 569.131C146.231 568.297 146.784 567.595 147.448 567.027C148.136 566.458 148.923 566.022 149.81 565.72C150.721 565.416 151.707 565.236 152.769 565.18C153.831 565.123 154.832 565.22 155.772 565.471C156.734 565.697 157.577 566.081 158.3 566.621C159.046 567.137 159.638 567.812 160.076 568.645C160.536 569.454 160.796 570.425 160.857 571.556C160.9 572.364 160.814 573.133 160.598 573.863C160.404 574.568 160.128 575.243 159.768 575.887C159.409 576.532 158.99 577.145 158.512 577.726C158.033 578.308 157.531 578.879 157.005 579.439L149.351 587.665L161.683 587.006L161.838 589.916L145.765 590.775L145.576 587.242ZM178.591 567.551L168.65 568.082L168.873 574.219C169.031 574.141 169.259 574.06 169.555 573.975C169.852 573.889 170.149 573.815 170.447 573.753C170.767 573.69 171.077 573.638 171.376 573.599C171.675 573.56 171.929 573.535 172.136 573.524C173.291 573.462 174.341 573.603 175.286 573.946C176.253 574.288 177.091 574.799 177.799 575.479C178.507 576.159 179.061 576.987 179.461 577.961C179.883 578.934 180.127 580.021 180.191 581.222C180.256 582.446 180.084 583.567 179.676 584.585C179.29 585.601 178.724 586.489 177.977 587.246C177.23 588.004 176.347 588.607 175.329 589.055C174.31 589.481 173.199 589.725 171.999 589.789C170.336 589.878 168.812 589.531 167.427 588.748C166.042 587.966 165.018 586.793 164.355 585.23L167.654 583.907C168.154 585.016 168.786 585.804 169.552 586.272C170.317 586.718 171.254 586.911 172.363 586.852C173.009 586.817 173.615 586.669 174.18 586.407C174.768 586.144 175.259 585.794 175.652 585.356C176.068 584.894 176.386 584.344 176.606 583.707C176.827 583.07 176.916 582.359 176.875 581.573C176.778 579.772 176.152 578.462 174.997 577.644C173.863 576.801 172.419 576.427 170.664 576.521C170.04 576.554 169.25 576.712 168.292 576.995C167.357 577.253 166.484 577.613 165.675 578.073L165.261 565.137L178.425 564.433L178.591 567.551Z" fill="black"/>
<path d="M132.535 670.608C132.991 671.765 133.557 672.615 134.235 673.158C134.935 673.699 135.932 673.935 137.225 673.866C137.872 673.832 138.467 673.696 139.01 673.458C139.575 673.196 140.067 672.869 140.486 672.476C140.904 672.06 141.226 671.58 141.451 671.035C141.676 670.467 141.77 669.848 141.734 669.179C141.68 668.163 141.417 667.366 140.946 666.789C140.497 666.188 139.93 665.755 139.244 665.49C138.557 665.203 137.807 665.035 136.994 664.985C136.181 664.936 135.381 664.933 134.596 664.975L134.441 662.065C135.711 661.997 136.746 661.861 137.545 661.656C138.344 661.428 138.965 661.14 139.41 660.792C139.854 660.444 140.156 660.022 140.315 659.527C140.474 659.033 140.537 658.485 140.505 657.885C140.435 656.568 139.989 655.596 139.168 654.968C138.347 654.341 137.348 654.058 136.17 654.121C135.269 654.169 134.464 654.479 133.753 655.049C133.064 655.596 132.558 656.306 132.234 657.18L128.778 656.219C129.341 654.614 130.261 653.407 131.537 652.597C132.836 651.763 134.305 651.303 135.945 651.215C136.938 651.162 137.892 651.25 138.808 651.479C139.745 651.684 140.575 652.045 141.297 652.562C142.02 653.079 142.6 653.754 143.038 654.588C143.499 655.397 143.759 656.367 143.819 657.499C143.888 658.792 143.558 659.968 142.827 661.026C142.119 662.083 141.151 662.829 139.924 663.265L139.928 663.335C140.697 663.433 141.392 663.65 142.012 663.988C142.633 664.325 143.165 664.76 143.611 665.292C144.056 665.824 144.401 666.431 144.646 667.112C144.89 667.771 145.032 668.481 145.072 669.243C145.135 670.421 144.96 671.473 144.546 672.398C144.154 673.299 143.594 674.07 142.864 674.711C142.155 675.328 141.313 675.813 140.336 676.167C139.382 676.519 138.362 676.724 137.277 676.782C135.406 676.882 133.732 676.543 132.255 675.765C130.8 674.986 129.747 673.687 129.094 671.869L132.535 670.608ZM147.534 663.519C147.486 662.618 147.482 661.68 147.523 660.705C147.563 659.731 147.674 658.775 147.856 657.839C148.059 656.879 148.334 655.961 148.681 655.085C149.051 654.208 149.531 653.442 150.121 652.785C150.734 652.104 151.457 651.555 152.292 651.14C153.148 650.701 154.154 650.45 155.308 650.388C156.463 650.327 157.478 650.469 158.354 650.816C159.251 651.139 160.029 651.607 160.687 652.22C161.367 652.809 161.926 653.52 162.364 654.354C162.826 655.186 163.197 656.069 163.479 657.004C163.782 657.914 164.006 658.852 164.15 659.817C164.294 660.782 164.39 661.714 164.439 662.615C164.508 663.908 164.466 665.3 164.314 666.79C164.162 668.281 163.809 669.678 163.253 670.981C162.697 672.285 161.888 673.382 160.823 674.272C159.783 675.162 158.396 675.653 156.664 675.745C154.932 675.838 153.49 675.498 152.337 674.726C151.207 673.953 150.296 672.948 149.605 671.711C148.913 670.474 148.413 669.123 148.103 667.657C147.793 666.191 147.603 664.812 147.534 663.519ZM150.859 663.341C150.903 664.149 151 665.105 151.152 666.209C151.326 667.311 151.615 668.373 152.017 669.393C152.417 670.391 152.972 671.23 153.68 671.91C154.411 672.589 155.354 672.897 156.508 672.835C157.663 672.774 158.556 672.367 159.188 671.615C159.842 670.862 160.316 669.969 160.608 668.934C160.898 667.876 161.06 666.791 161.094 665.677C161.15 664.563 161.156 663.601 161.113 662.793C161.083 662.239 161.027 661.616 160.944 660.926C160.882 660.211 160.763 659.5 160.586 658.791C160.432 658.058 160.221 657.363 159.954 656.706C159.686 656.025 159.341 655.43 158.92 654.92C158.521 654.385 158.036 653.971 157.464 653.678C156.893 653.384 156.226 653.257 155.464 653.298C154.702 653.339 154.052 653.536 153.515 653.889C152.978 654.242 152.529 654.706 152.166 655.281C151.824 655.832 151.557 656.46 151.363 657.165C151.168 657.847 151.021 658.561 150.922 659.308C150.845 660.03 150.802 660.75 150.794 661.468C150.808 662.163 150.83 662.787 150.859 663.341ZM166.782 662.49C166.734 661.589 166.731 660.651 166.771 659.676C166.812 658.702 166.923 657.746 167.104 656.81C167.308 655.85 167.583 654.932 167.93 654.056C168.3 653.179 168.78 652.413 169.37 651.756C169.982 651.075 170.705 650.526 171.54 650.111C172.397 649.672 173.402 649.421 174.557 649.359C175.712 649.298 176.727 649.44 177.602 649.787C178.5 650.11 179.277 650.578 179.935 651.191C180.615 651.78 181.174 652.491 181.613 653.325C182.074 654.157 182.445 655.04 182.727 655.975C183.03 656.885 183.254 657.823 183.398 658.788C183.543 659.753 183.639 660.685 183.687 661.586C183.756 662.879 183.715 664.271 183.563 665.761C183.411 667.252 183.057 668.649 182.502 669.952C181.946 671.256 181.136 672.353 180.072 673.243C179.031 674.133 177.645 674.624 175.913 674.716C174.18 674.809 172.738 674.469 171.585 673.697C170.455 672.924 169.545 671.919 168.853 670.682C168.162 669.445 167.661 668.094 167.351 666.628C167.041 665.162 166.852 663.783 166.782 662.49ZM170.108 662.312C170.151 663.12 170.249 664.076 170.4 665.18C170.575 666.282 170.863 667.344 171.265 668.364C171.666 669.362 172.22 670.201 172.928 670.881C173.659 671.56 174.602 671.868 175.757 671.807C176.912 671.745 177.805 671.338 178.436 670.586C179.091 669.833 179.564 668.94 179.856 667.905C180.147 666.847 180.309 665.762 180.342 664.648C180.398 663.534 180.405 662.572 180.362 661.764C180.332 661.21 180.275 660.587 180.192 659.897C180.131 659.182 180.012 658.471 179.835 657.762C179.68 657.029 179.469 656.334 179.202 655.677C178.934 654.996 178.59 654.401 178.169 653.891C177.77 653.356 177.285 652.942 176.713 652.649C176.141 652.355 175.475 652.229 174.713 652.269C173.95 652.31 173.301 652.507 172.764 652.86C172.227 653.213 171.777 653.677 171.414 654.252C171.073 654.803 170.805 655.431 170.612 656.136C170.416 656.818 170.269 657.532 170.17 658.279C170.093 659.001 170.051 659.721 170.043 660.44C170.057 661.134 170.078 661.758 170.108 662.312Z" fill="black"/>
<path d="M136.538 757.981L145.853 747.687C146.182 747.345 146.499 746.981 146.802 746.594C147.105 746.184 147.372 745.765 147.604 745.335C147.835 744.906 148.008 744.457 148.122 743.987C148.259 743.517 148.314 743.028 148.287 742.52C148.255 741.919 148.11 741.383 147.853 740.91C147.62 740.436 147.298 740.048 146.888 739.746C146.5 739.419 146.035 739.178 145.494 739.021C144.976 738.864 144.429 738.8 143.851 738.831C142.651 738.895 141.675 739.283 140.926 739.995C140.177 740.707 139.73 741.657 139.585 742.846L135.965 742.727C136.069 741.633 136.331 740.681 136.751 739.871C137.192 739.037 137.746 738.335 138.41 737.767C139.097 737.198 139.885 736.762 140.772 736.46C141.682 736.156 142.668 735.976 143.731 735.919C144.793 735.863 145.794 735.96 146.734 736.211C147.695 736.437 148.538 736.82 149.262 737.361C150.007 737.877 150.599 738.551 151.037 739.385C151.498 740.194 151.758 741.164 151.818 742.296C151.862 743.104 151.775 743.873 151.559 744.603C151.366 745.308 151.089 745.983 150.73 746.627C150.37 747.272 149.952 747.885 149.473 748.466C148.995 749.048 148.493 749.619 147.967 750.179L140.312 758.405L152.644 757.746L152.8 760.656L136.727 761.515L136.538 757.981ZM166.528 738.244L154.681 738.878L154.525 735.968L169.94 735.144L170.092 737.984L161.483 760.191L157.742 760.391L166.528 738.244ZM188.801 737.262L178.86 737.793L179.083 743.93C179.241 743.852 179.469 743.771 179.765 743.685C180.062 743.6 180.359 743.526 180.656 743.464C180.977 743.401 181.287 743.349 181.586 743.31C181.885 743.271 182.139 743.246 182.346 743.235C183.501 743.173 184.551 743.314 185.496 743.657C186.463 743.999 187.301 744.51 188.009 745.19C188.717 745.87 189.271 746.698 189.671 747.672C190.093 748.645 190.337 749.732 190.401 750.933C190.466 752.157 190.294 753.278 189.886 754.296C189.5 755.312 188.934 756.199 188.187 756.957C187.44 757.715 186.557 758.318 185.539 758.766C184.52 759.191 183.409 759.436 182.209 759.5C180.546 759.589 179.022 759.242 177.637 758.459C176.252 757.676 175.228 756.504 174.565 754.941L177.864 753.618C178.364 754.726 178.996 755.515 179.762 755.983C180.527 756.429 181.464 756.622 182.573 756.563C183.219 756.528 183.825 756.38 184.39 756.118C184.978 755.855 185.469 755.505 185.862 755.067C186.278 754.604 186.596 754.055 186.816 753.418C187.037 752.781 187.126 752.069 187.084 751.284C186.988 749.483 186.362 748.173 185.207 747.355C184.073 746.512 182.629 746.138 180.874 746.232C180.25 746.265 179.46 746.423 178.502 746.706C177.566 746.964 176.694 747.324 175.885 747.784L175.471 734.848L188.635 734.144L188.801 737.262Z" fill="black"/>
<path d="M139.758 842.942L149.073 832.648C149.402 832.306 149.719 831.942 150.022 831.555C150.325 831.145 150.592 830.725 150.824 830.296C151.055 829.867 151.228 829.418 151.342 828.948C151.479 828.478 151.534 827.989 151.507 827.481C151.475 826.88 151.33 826.344 151.073 825.871C150.84 825.397 150.518 825.009 150.108 824.707C149.72 824.38 149.255 824.138 148.714 823.982C148.196 823.825 147.649 823.761 147.071 823.792C145.871 823.856 144.895 824.244 144.146 824.956C143.397 825.668 142.949 826.618 142.805 827.807L139.185 827.688C139.289 826.594 139.551 825.642 139.971 824.832C140.412 823.997 140.965 823.296 141.63 822.728C142.317 822.159 143.105 821.723 143.992 821.421C144.902 821.117 145.888 820.937 146.95 820.88C148.013 820.824 149.014 820.921 149.954 821.171C150.915 821.398 151.758 821.781 152.482 822.322C153.227 822.838 153.819 823.512 154.257 824.346C154.717 825.155 154.978 826.125 155.038 827.257C155.081 828.065 154.995 828.834 154.779 829.564C154.586 830.269 154.309 830.944 153.95 831.588C153.59 832.233 153.172 832.846 152.693 833.427C152.215 834.008 151.713 834.58 151.187 835.14L143.532 843.366L155.864 842.707L156.02 845.616L139.947 846.476L139.758 842.942ZM172.773 823.252L162.831 823.783L163.055 829.92C163.213 829.842 163.44 829.761 163.737 829.675C164.033 829.59 164.33 829.516 164.628 829.454C164.949 829.391 165.259 829.339 165.558 829.3C165.857 829.261 166.11 829.236 166.318 829.225C167.473 829.163 168.522 829.304 169.467 829.647C170.435 829.989 171.273 830.5 171.981 831.18C172.689 831.86 173.243 832.687 173.642 833.662C174.065 834.635 174.308 835.722 174.372 836.923C174.438 838.147 174.266 839.268 173.857 840.286C173.471 841.302 172.905 842.189 172.158 842.947C171.411 843.705 170.529 844.308 169.511 844.756C168.491 845.181 167.381 845.426 166.18 845.49C164.517 845.579 162.993 845.232 161.608 844.449C160.223 843.666 159.199 842.494 158.537 840.931L161.836 839.608C162.335 840.716 162.968 841.505 163.734 841.973C164.499 842.419 165.436 842.612 166.544 842.553C167.191 842.518 167.796 842.37 168.361 842.108C168.95 841.845 169.44 841.495 169.834 841.057C170.249 840.594 170.567 840.045 170.788 839.408C171.009 838.771 171.098 838.059 171.056 837.274C170.96 835.473 170.334 834.163 169.178 833.345C168.045 832.502 166.6 832.128 164.845 832.222C164.222 832.255 163.431 832.413 162.474 832.696C161.538 832.954 160.666 833.314 159.856 833.774L159.443 820.838L172.606 820.134L172.773 823.252ZM177.372 832.177C177.324 831.277 177.32 830.339 177.361 829.364C177.401 828.389 177.512 827.434 177.694 826.497C177.897 825.537 178.173 824.619 178.519 823.744C178.889 822.867 179.37 822.1 179.96 821.443C180.572 820.762 181.295 820.214 182.13 819.799C182.987 819.359 183.992 819.109 185.147 819.047C186.302 818.985 187.317 819.128 188.192 819.475C189.089 819.797 189.867 820.265 190.525 820.879C191.205 821.467 191.764 822.179 192.202 823.012C192.664 823.844 193.035 824.728 193.317 825.662C193.62 826.572 193.844 827.51 193.988 828.475C194.133 829.44 194.229 830.373 194.277 831.274C194.346 832.567 194.305 833.959 194.153 835.449C194.001 836.939 193.647 838.336 193.091 839.64C192.536 840.943 191.726 842.04 190.662 842.931C189.621 843.82 188.234 844.311 186.502 844.404C184.77 844.496 183.328 844.157 182.175 843.385C181.045 842.611 180.134 841.606 179.443 840.369C178.752 839.132 178.251 837.781 177.941 836.316C177.631 834.85 177.441 833.47 177.372 832.177ZM180.698 831.999C180.741 832.808 180.838 833.764 180.99 834.867C181.165 835.97 181.453 837.031 181.855 838.052C182.256 839.049 182.81 839.888 183.518 840.568C184.249 841.247 185.192 841.556 186.347 841.494C187.501 841.432 188.395 841.026 189.026 840.274C189.681 839.521 190.154 838.627 190.446 837.592C190.737 836.535 190.899 835.449 190.932 834.336C190.988 833.221 190.995 832.26 190.951 831.451C190.922 830.897 190.865 830.275 190.782 829.584C190.721 828.87 190.602 828.158 190.425 827.45C190.27 826.717 190.059 826.022 189.792 825.364C189.524 824.684 189.18 824.089 188.759 823.578C188.36 823.044 187.874 822.63 187.303 822.336C186.731 822.042 186.064 821.916 185.302 821.957C184.54 821.997 183.891 822.194 183.354 822.547C182.817 822.9 182.367 823.364 182.004 823.94C181.663 824.49 181.395 825.118 181.201 825.824C181.006 826.506 180.859 827.22 180.76 827.966C180.683 828.688 180.64 829.409 180.632 830.127C180.646 830.821 180.668 831.445 180.698 831.999Z" fill="black"/>
<path d="M311.229 863.502L306.948 867.9L304.884 865.683L311.406 859.671L314.351 859.514L315.662 884.039L312.336 884.217L311.229 863.502ZM329.049 868.247L329.187 868.239C329.93 867.829 330.821 867.596 331.86 867.541C332.737 867.494 333.635 867.596 334.551 867.848C335.468 868.1 336.302 868.531 337.052 869.139C337.824 869.723 338.468 870.499 338.983 871.468C339.497 872.413 339.789 873.555 339.861 874.895C339.934 876.257 339.767 877.47 339.361 878.534C338.976 879.574 338.421 880.46 337.696 881.194C336.971 881.928 336.11 882.495 335.112 882.895C334.115 883.296 333.039 883.527 331.884 883.589C330.729 883.651 329.634 883.524 328.598 883.209C327.562 882.894 326.645 882.41 325.846 881.758C325.047 881.106 324.39 880.307 323.876 879.362C323.386 878.416 323.108 877.342 323.044 876.141C323.003 875.379 323.024 874.683 323.106 874.053C323.188 873.424 323.319 872.826 323.497 872.261C323.697 871.671 323.933 871.103 324.205 870.555C324.475 869.985 324.779 869.39 325.117 868.77L330.793 858.635L334.708 858.426L329.049 868.247ZM326.364 875.859C326.404 876.598 326.555 877.273 326.82 877.885C327.107 878.495 327.482 879.019 327.946 879.457C328.431 879.871 328.993 880.189 329.63 880.409C330.267 880.63 330.966 880.72 331.728 880.679C332.491 880.639 333.177 880.474 333.786 880.187C334.396 879.9 334.909 879.525 335.324 879.063C335.762 878.576 336.079 878.015 336.277 877.379C336.497 876.742 336.588 876.054 336.548 875.315C336.509 874.576 336.345 873.901 336.058 873.291C335.794 872.68 335.419 872.168 334.934 871.754C334.47 871.315 333.92 870.986 333.283 870.765C332.646 870.544 331.946 870.454 331.184 870.495C330.422 870.536 329.736 870.7 329.126 870.987C328.516 871.274 327.992 871.661 327.555 872.148C327.14 872.61 326.822 873.16 326.601 873.797C326.404 874.433 326.325 875.12 326.364 875.859ZM342.002 870.333C341.954 869.433 341.95 868.495 341.991 867.52C342.032 866.545 342.143 865.59 342.324 864.654C342.528 863.693 342.803 862.775 343.15 861.9C343.52 861.023 344 860.256 344.59 859.6C345.202 858.918 345.925 858.37 346.76 857.955C347.617 857.516 348.622 857.265 349.777 857.203C350.932 857.141 351.947 857.284 352.822 857.631C353.719 857.954 354.497 858.421 355.155 859.035C355.835 859.624 356.394 860.335 356.833 861.168C357.294 862.001 357.665 862.884 357.947 863.819C358.25 864.729 358.474 865.666 358.618 866.631C358.763 867.596 358.859 868.529 358.907 869.43C358.976 870.723 358.935 872.115 358.783 873.605C358.631 875.096 358.277 876.492 357.721 877.796C357.166 879.099 356.356 880.196 355.292 881.087C354.251 881.976 352.865 882.467 351.132 882.56C349.4 882.653 347.958 882.313 346.805 881.541C345.675 880.767 344.765 879.762 344.073 878.526C343.382 877.289 342.881 875.937 342.571 874.472C342.261 873.006 342.072 871.627 342.002 870.333ZM345.328 870.156C345.371 870.964 345.469 871.92 345.62 873.023C345.795 874.126 346.083 875.187 346.485 876.208C346.886 877.206 347.44 878.044 348.148 878.725C348.879 879.403 349.822 879.712 350.977 879.65C352.132 879.589 353.025 879.182 353.656 878.43C354.311 877.677 354.784 876.783 355.076 875.749C355.367 874.691 355.529 873.605 355.562 872.492C355.618 871.377 355.625 870.416 355.582 869.608C355.552 869.053 355.495 868.431 355.412 867.741C355.351 867.026 355.232 866.314 355.055 865.606C354.9 864.873 354.689 864.178 354.422 863.521C354.154 862.84 353.81 862.245 353.389 861.735C352.99 861.2 352.504 860.786 351.933 860.492C351.361 860.199 350.695 860.072 349.933 860.113C349.17 860.154 348.521 860.351 347.984 860.704C347.447 861.056 346.997 861.521 346.634 862.096C346.293 862.647 346.025 863.275 345.832 863.98C345.636 864.662 345.489 865.376 345.39 866.123C345.313 866.845 345.27 867.565 345.263 868.283C345.277 868.977 345.298 869.601 345.328 870.156ZM361.251 869.304C361.203 868.404 361.199 867.466 361.239 866.491C361.28 865.516 361.391 864.561 361.573 863.625C361.776 862.664 362.051 861.746 362.398 860.871C362.768 859.994 363.248 859.227 363.838 858.571C364.45 857.889 365.174 857.341 366.009 856.926C366.865 856.487 367.871 856.236 369.025 856.174C370.18 856.112 371.195 856.255 372.071 856.602C372.968 856.925 373.746 857.393 374.404 858.006C375.084 858.595 375.643 859.306 376.081 860.139C376.542 860.972 376.914 861.855 377.196 862.79C377.499 863.7 377.723 864.637 377.867 865.602C378.011 866.567 378.107 867.5 378.156 868.401C378.225 869.694 378.183 871.086 378.031 872.576C377.879 874.067 377.526 875.463 376.97 876.767C376.414 878.07 375.605 879.167 374.54 880.058C373.5 880.947 372.113 881.438 370.381 881.531C368.649 881.624 367.206 881.284 366.054 880.512C364.924 879.738 364.013 878.733 363.322 877.497C362.63 876.26 362.13 874.908 361.82 873.443C361.51 871.977 361.32 870.598 361.251 869.304ZM364.576 869.127C364.62 869.935 364.717 870.891 364.869 871.994C365.043 873.097 365.332 874.158 365.734 875.179C366.134 876.177 366.689 877.015 367.397 877.696C368.128 878.374 369.071 878.683 370.225 878.621C371.38 878.56 372.273 878.153 372.905 877.401C373.559 876.648 374.032 875.754 374.325 874.72C374.615 873.662 374.777 872.576 374.811 871.463C374.867 870.348 374.873 869.387 374.83 868.579C374.8 868.024 374.744 867.402 374.661 866.712C374.599 865.997 374.48 865.285 374.303 864.577C374.148 863.844 373.938 863.149 373.671 862.492C373.403 861.811 373.058 861.216 372.637 860.706C372.238 860.171 371.753 859.757 371.181 859.463C370.61 859.17 369.943 859.043 369.181 859.084C368.419 859.125 367.769 859.322 367.232 859.675C366.695 860.027 366.245 860.492 365.883 861.067C365.541 861.618 365.274 862.246 365.08 862.951C364.885 863.633 364.738 864.347 364.639 865.094C364.562 865.816 364.519 866.536 364.511 867.254C364.525 867.948 364.547 868.572 364.576 869.127Z" fill="black"/>
<path d="M218.069 889.113C217.446 889.146 216.891 888.956 216.406 888.542C215.943 888.103 215.694 887.572 215.661 886.949C215.628 886.325 215.819 885.782 216.234 885.32C216.671 884.834 217.201 884.574 217.825 884.54C218.448 884.507 218.992 884.71 219.455 885.148C219.941 885.562 220.2 886.081 220.233 886.704C220.267 887.328 220.065 887.883 219.628 888.37C219.212 888.832 218.693 889.08 218.069 889.113ZM227.711 888.598C227.087 888.631 226.533 888.44 226.047 888.026C225.584 887.588 225.335 887.057 225.302 886.433C225.269 885.81 225.46 885.267 225.875 884.805C226.312 884.318 226.843 884.058 227.466 884.025C228.09 883.992 228.633 884.194 229.097 884.633C229.582 885.047 229.841 885.565 229.875 886.189C229.908 886.813 229.706 887.368 229.269 887.854C228.853 888.316 228.334 888.564 227.711 888.598ZM237.352 888.082C236.728 888.115 236.174 887.925 235.688 887.511C235.225 887.073 234.977 886.542 234.943 885.918C234.91 885.295 235.101 884.752 235.516 884.289C235.953 883.803 236.484 883.543 237.107 883.51C237.731 883.476 238.274 883.679 238.738 884.117C239.223 884.531 239.482 885.05 239.516 885.674C239.549 886.297 239.347 886.852 238.91 887.339C238.495 887.801 237.975 888.049 237.352 888.082Z" fill="black"/>
<path d="M520.369 852.315L516.088 856.712L514.024 854.495L520.546 848.484L523.49 848.326L524.802 872.852L521.476 873.03L520.369 852.315ZM543.518 850.174L531.671 850.807L531.515 847.897L546.93 847.073L547.082 849.914L538.473 872.121L534.732 872.321L543.518 850.174ZM551.142 859.146C551.094 858.245 551.09 857.308 551.131 856.333C551.171 855.358 551.282 854.402 551.464 853.466C551.667 852.506 551.943 851.588 552.29 850.712C552.66 849.836 553.14 849.069 553.73 848.412C554.342 847.731 555.065 847.183 555.9 846.768C556.757 846.328 557.762 846.077 558.917 846.016C560.072 845.954 561.087 846.097 561.962 846.443C562.859 846.766 563.637 847.234 564.295 847.847C564.975 848.436 565.534 849.147 565.973 849.981C566.434 850.813 566.805 851.697 567.087 852.631C567.39 853.541 567.614 854.479 567.758 855.444C567.903 856.409 567.999 857.342 568.047 858.242C568.116 859.536 568.075 860.927 567.923 862.418C567.771 863.908 567.417 865.305 566.861 866.608C566.306 867.912 565.496 869.009 564.432 869.9C563.391 870.789 562.004 871.28 560.272 871.373C558.54 871.465 557.098 871.125 555.945 870.353C554.815 869.58 553.904 868.575 553.213 867.338C552.522 866.101 552.021 864.75 551.711 863.284C551.401 861.819 551.211 860.439 551.142 859.146ZM554.468 858.968C554.511 859.776 554.608 860.732 554.76 861.836C554.935 862.938 555.223 864 555.625 865.02C556.026 866.018 556.58 866.857 557.288 867.537C558.019 868.216 558.962 868.524 560.117 868.463C561.272 868.401 562.165 867.994 562.796 867.243C563.451 866.49 563.924 865.596 564.216 864.561C564.507 863.504 564.669 862.418 564.702 861.304C564.758 860.19 564.765 859.228 564.721 858.42C564.692 857.866 564.635 857.244 564.552 856.553C564.491 855.839 564.372 855.127 564.195 854.418C564.04 853.686 563.829 852.99 563.562 852.333C563.294 851.653 562.95 851.057 562.529 850.547C562.13 850.013 561.644 849.599 561.073 849.305C560.501 849.011 559.834 848.885 559.072 848.925C558.31 848.966 557.661 849.163 557.124 849.516C556.587 849.869 556.137 850.333 555.774 850.908C555.433 851.459 555.165 852.087 554.971 852.792C554.776 853.474 554.629 854.189 554.53 854.935C554.453 855.657 554.41 856.377 554.402 857.096C554.416 857.79 554.438 858.414 554.468 858.968ZM570.391 858.117C570.343 857.216 570.339 856.279 570.379 855.304C570.42 854.329 570.531 853.373 570.713 852.437C570.916 851.477 571.191 850.559 571.538 849.683C571.908 848.807 572.388 848.04 572.978 847.383C573.59 846.702 574.314 846.154 575.148 845.739C576.005 845.299 577.011 845.048 578.165 844.987C579.32 844.925 580.335 845.068 581.211 845.414C582.108 845.737 582.886 846.205 583.544 846.818C584.224 847.407 584.783 848.118 585.221 848.952C585.682 849.784 586.054 850.668 586.335 851.602C586.639 852.512 586.863 853.45 587.007 854.415C587.151 855.38 587.247 856.313 587.295 857.213C587.365 858.507 587.323 859.898 587.171 861.389C587.019 862.879 586.666 864.276 586.11 865.579C585.554 866.883 584.744 867.98 583.68 868.871C582.639 869.76 581.253 870.251 579.521 870.344C577.789 870.436 576.346 870.096 575.193 869.324C574.064 868.551 573.153 867.546 572.462 866.309C571.77 865.072 571.269 863.721 570.959 862.255C570.65 860.79 570.46 859.41 570.391 858.117ZM573.716 857.939C573.76 858.747 573.857 859.703 574.009 860.807C574.183 861.909 574.472 862.971 574.874 863.991C575.274 864.989 575.829 865.828 576.537 866.508C577.268 867.187 578.211 867.495 579.365 867.434C580.52 867.372 581.413 866.965 582.045 866.214C582.699 865.461 583.172 864.567 583.464 863.532C583.755 862.475 583.917 861.389 583.95 860.275C584.007 859.161 584.013 858.199 583.97 857.391C583.94 856.837 583.884 856.215 583.801 855.524C583.739 854.81 583.62 854.098 583.443 853.389C583.288 852.657 583.078 851.962 582.811 851.304C582.543 850.624 582.198 850.028 581.777 849.518C581.378 848.984 580.893 848.57 580.321 848.276C579.75 847.982 579.083 847.856 578.321 847.897C577.559 847.937 576.909 848.134 576.372 848.487C575.835 848.84 575.385 849.304 575.022 849.879C574.681 850.43 574.414 851.058 574.22 851.763C574.025 852.445 573.878 853.16 573.779 853.906C573.701 854.628 573.659 855.348 573.651 856.067C573.665 856.761 573.687 857.385 573.716 857.939Z" fill="black"/>
<path d="M727.359 841.236L723.078 845.634L721.014 843.417L727.536 837.406L730.481 837.248L731.792 861.774L728.466 861.952L727.359 841.236ZM748.014 861.323C746.906 861.383 745.846 861.277 744.836 861.007C743.847 860.712 742.978 860.261 742.228 859.653C741.477 859.044 740.869 858.289 740.404 857.388C739.939 856.486 739.676 855.458 739.614 854.303C739.573 853.541 739.651 852.831 739.847 852.172C740.067 851.512 740.371 850.916 740.759 850.386C741.147 849.833 741.608 849.368 742.144 848.992C742.702 848.592 743.31 848.281 743.97 848.061L743.965 847.957C743.497 847.866 743.024 847.683 742.546 847.407C742.068 847.132 741.632 846.773 741.237 846.331C740.866 845.887 740.548 845.349 740.283 844.714C740.016 844.057 739.86 843.301 739.814 842.447C739.765 841.523 739.905 840.682 740.235 839.923C740.587 839.14 741.072 838.465 741.69 837.9C742.331 837.333 743.072 836.888 743.911 836.565C744.773 836.218 745.689 836.018 746.659 835.967C747.629 835.915 748.549 836.016 749.419 836.271C750.312 836.501 751.095 836.864 751.77 837.361C752.468 837.856 753.023 838.475 753.433 839.217C753.865 839.935 754.106 840.756 754.155 841.68C754.201 842.534 754.126 843.303 753.931 843.985C753.735 844.644 753.464 845.214 753.119 845.696C752.797 846.176 752.414 846.579 751.968 846.904C751.522 847.229 751.071 847.461 750.616 847.601L750.621 847.705C751.301 847.854 751.927 848.098 752.501 848.438C753.097 848.754 753.617 849.166 754.061 849.675C754.504 850.161 754.858 850.721 755.124 851.355C755.413 851.988 755.577 852.686 755.618 853.448C755.68 854.603 755.527 855.653 755.161 856.599C754.795 857.545 754.271 858.36 753.59 859.045C752.908 859.73 752.08 860.272 751.106 860.672C750.153 861.047 749.123 861.264 748.014 861.323ZM743.165 842.754C743.191 843.239 743.297 843.708 743.484 844.161C743.693 844.613 743.969 845.015 744.312 845.367C744.654 845.697 745.062 845.964 745.537 846.17C746.034 846.375 746.594 846.461 747.218 846.428C747.864 846.393 748.413 846.26 748.864 846.027C749.337 845.77 749.725 845.46 750.03 845.097C750.334 844.71 750.554 844.281 750.691 843.811C750.828 843.34 750.883 842.851 750.856 842.343C750.795 841.211 750.388 840.306 749.634 839.629C748.901 838.927 747.958 838.607 746.803 838.669C745.741 838.725 744.848 839.132 744.124 839.889C743.423 840.644 743.104 841.599 743.165 842.754ZM747.859 858.414C749.244 858.34 750.342 857.864 751.152 856.987C751.984 856.086 752.364 854.965 752.292 853.626C752.253 852.887 752.091 852.247 751.808 851.706C751.546 851.141 751.186 850.686 750.727 850.34C750.291 849.969 749.779 849.707 749.191 849.553C748.626 849.375 748.02 849.303 747.373 849.338C746.012 849.434 744.916 849.932 744.084 850.834C743.251 851.712 742.869 852.809 742.939 854.126C742.978 854.842 743.139 855.481 743.424 856.045C743.708 856.586 744.068 857.041 744.505 857.412C744.963 857.758 745.475 858.02 746.041 858.198C746.629 858.375 747.235 858.447 747.859 858.414ZM758.133 848.068C758.084 847.167 758.081 846.229 758.121 845.255C758.162 844.28 758.273 843.324 758.454 842.388C758.658 841.428 758.933 840.51 759.28 839.634C759.65 838.758 760.13 837.991 760.72 837.334C761.332 836.653 762.055 836.105 762.89 835.689C763.747 835.25 764.752 834.999 765.907 834.938C767.062 834.876 768.077 835.018 768.952 835.365C769.85 835.688 770.627 836.156 771.285 836.769C771.965 837.358 772.524 838.069 772.963 838.903C773.424 839.735 773.796 840.618 774.077 841.553C774.381 842.463 774.604 843.401 774.749 844.366C774.893 845.331 774.989 846.264 775.037 847.164C775.106 848.457 775.065 849.849 774.913 851.34C774.761 852.83 774.407 854.227 773.852 855.53C773.296 856.834 772.486 857.931 771.422 858.821C770.381 859.711 768.995 860.202 767.263 860.294C765.531 860.387 764.088 860.047 762.935 859.275C761.805 858.502 760.895 857.497 760.203 856.26C759.512 855.023 759.011 853.672 758.701 852.206C758.391 850.741 758.202 849.361 758.133 848.068ZM761.458 847.89C761.501 848.698 761.599 849.654 761.75 850.758C761.925 851.86 762.213 852.922 762.615 853.942C763.016 854.94 763.57 855.779 764.278 856.459C765.009 857.138 765.952 857.446 767.107 857.385C768.262 857.323 769.155 856.916 769.786 856.164C770.441 855.412 770.914 854.518 771.206 853.483C771.497 852.425 771.659 851.34 771.692 850.226C771.748 849.112 771.755 848.15 771.712 847.342C771.682 846.788 771.626 846.165 771.542 845.475C771.481 844.76 771.362 844.049 771.185 843.34C771.03 842.607 770.819 841.912 770.553 841.255C770.285 840.575 769.94 839.979 769.519 839.469C769.12 838.935 768.635 838.52 768.063 838.227C767.492 837.933 766.825 837.807 766.063 837.847C765.301 837.888 764.651 838.085 764.114 838.438C763.577 838.791 763.127 839.255 762.764 839.83C762.423 840.381 762.156 841.009 761.962 841.714C761.767 842.396 761.619 843.111 761.52 843.857C761.443 844.579 761.401 845.299 761.393 846.018C761.407 846.712 761.428 847.336 761.458 847.89ZM777.381 847.039C777.333 846.138 777.329 845.2 777.37 844.226C777.41 843.251 777.521 842.295 777.703 841.359C777.906 840.399 778.181 839.481 778.528 838.605C778.898 837.729 779.378 836.962 779.969 836.305C780.581 835.624 781.304 835.076 782.139 834.66C782.995 834.221 784.001 833.97 785.156 833.909C786.31 833.847 787.325 833.989 788.201 834.336C789.098 834.659 789.876 835.127 790.534 835.74C791.214 836.329 791.773 837.04 792.211 837.874C792.673 838.706 793.044 839.589 793.326 840.524C793.629 841.434 793.853 842.372 793.997 843.337C794.141 844.302 794.237 845.235 794.286 846.135C794.355 847.428 794.313 848.82 794.161 850.311C794.01 851.801 793.656 853.198 793.1 854.501C792.544 855.805 791.735 856.902 790.671 857.792C789.63 858.682 788.243 859.173 786.511 859.265C784.779 859.358 783.337 859.018 782.184 858.246C781.054 857.473 780.143 856.468 779.452 855.231C778.76 853.994 778.26 852.643 777.95 851.177C777.64 849.712 777.45 848.332 777.381 847.039ZM780.707 846.861C780.75 847.669 780.847 848.625 780.999 849.729C781.174 850.831 781.462 851.893 781.864 852.913C782.265 853.911 782.819 854.75 783.527 855.43C784.258 856.109 785.201 856.417 786.356 856.356C787.51 856.294 788.403 855.887 789.035 855.135C789.689 854.383 790.163 853.489 790.455 852.454C790.746 851.396 790.908 850.311 790.941 849.197C790.997 848.083 791.003 847.121 790.96 846.313C790.931 845.759 790.874 845.136 790.791 844.446C790.73 843.731 790.61 843.02 790.434 842.311C790.279 841.578 790.068 840.883 789.801 840.226C789.533 839.546 789.189 838.95 788.768 838.44C788.368 837.906 787.883 837.491 787.312 837.198C786.74 836.904 786.073 836.778 785.311 836.818C784.549 836.859 783.9 837.056 783.363 837.409C782.826 837.762 782.376 838.226 782.013 838.801C781.672 839.352 781.404 839.98 781.21 840.685C781.015 841.367 780.868 842.082 780.769 842.828C780.692 843.55 780.649 844.27 780.641 844.989C780.655 845.683 780.677 846.307 780.707 846.861Z" fill="black"/>
<path d="M1208.77 780.803L220.53 833.694L214.29 720.914C214.29 720.914 331.75 718.783 397.94 738.793C440.1 749.013 554.06 747.194 708.94 700.114C755.24 686.554 761.5 678.023 826.94 681.223C866.84 683.223 898.73 675.354 942.12 641.114C983.71 606.954 1014.41 576.794 1036.35 581.114C1058.21 584.114 1101.67 495.884 1113.04 460.494C1153.14 330.874 1149.69 298.203 1178.81 221.273" fill="#65C556"/>
<path d="M1208.77 780.803L220.53 833.694L214.29 720.914C214.29 720.914 331.75 718.783 397.94 738.793C440.1 749.013 554.06 747.194 708.94 700.114C755.24 686.554 761.5 678.023 826.94 681.223C866.84 683.223 898.73 675.354 942.12 641.114C983.71 606.954 1014.41 576.794 1036.35 581.114C1058.21 584.114 1101.67 495.884 1113.04 460.494C1153.14 330.874 1149.69 298.203 1178.81 221.273" stroke="black" stroke-width="8" stroke-linejoin="round"/>
<path d="M935.789 830.088L931.508 834.486L929.444 832.268L935.966 826.257L938.911 826.1L940.222 850.625L936.896 850.803L935.789 830.088ZM957.924 840.16L957.785 840.168C957.043 840.578 956.152 840.811 955.113 840.866C954.235 840.913 953.338 840.811 952.421 840.559C951.505 840.307 950.66 839.889 949.888 839.305C949.137 838.696 948.505 837.919 947.991 836.974C947.476 836.006 947.183 834.852 947.112 833.513C947.04 832.173 947.196 830.984 947.581 829.944C947.987 828.88 948.553 827.981 949.278 827.248C950.003 826.514 950.864 825.947 951.862 825.546C952.858 825.123 953.934 824.88 955.089 824.818C956.243 824.756 957.338 824.883 958.374 825.198C959.41 825.513 960.328 825.997 961.127 826.649C961.926 827.301 962.571 828.101 963.062 829.047C963.575 829.992 963.864 831.065 963.928 832.266C963.969 833.028 963.948 833.724 963.866 834.354C963.784 834.984 963.643 835.593 963.443 836.183C963.265 836.748 963.04 837.316 962.77 837.886C962.499 838.457 962.195 839.04 961.856 839.638L956.179 849.772L952.265 849.982L957.924 840.16ZM960.608 832.548C960.569 831.809 960.406 831.134 960.118 830.524C959.854 829.913 959.479 829.401 958.994 828.987C958.53 828.548 957.98 828.219 957.343 827.998C956.706 827.777 956.006 827.687 955.244 827.728C954.482 827.769 953.796 827.933 953.186 828.22C952.576 828.507 952.052 828.894 951.615 829.381C951.2 829.843 950.882 830.393 950.661 831.03C950.464 831.666 950.385 832.353 950.424 833.092C950.464 833.831 950.616 834.506 950.88 835.118C951.167 835.728 951.543 836.252 952.006 836.69C952.491 837.104 953.053 837.422 953.69 837.642C954.327 837.863 955.026 837.953 955.789 837.912C956.551 837.871 957.237 837.707 957.847 837.42C958.457 837.133 958.969 836.758 959.384 836.296C959.822 835.809 960.139 835.248 960.337 834.612C960.557 833.975 960.648 833.287 960.608 832.548ZM966.562 836.919C966.514 836.019 966.511 835.081 966.551 834.106C966.592 833.131 966.703 832.176 966.884 831.24C967.088 830.279 967.363 829.361 967.71 828.486C968.08 827.609 968.56 826.842 969.15 826.186C969.762 825.504 970.485 824.956 971.32 824.541C972.177 824.101 973.182 823.851 974.337 823.789C975.492 823.727 976.507 823.87 977.382 824.217C978.28 824.539 979.057 825.007 979.715 825.621C980.395 826.21 980.954 826.921 981.393 827.754C981.854 828.587 982.226 829.47 982.507 830.404C982.81 831.315 983.034 832.252 983.179 833.217C983.323 834.182 983.419 835.115 983.467 836.016C983.536 837.309 983.495 838.701 983.343 840.191C983.191 841.681 982.837 843.078 982.282 844.382C981.726 845.685 980.916 846.782 979.852 847.673C978.811 848.562 977.425 849.053 975.693 849.146C973.961 849.239 972.518 848.899 971.365 848.127C970.235 847.353 969.325 846.348 968.633 845.111C967.942 843.875 967.441 842.523 967.131 841.058C966.821 839.592 966.632 838.213 966.562 836.919ZM969.888 836.742C969.931 837.55 970.029 838.506 970.18 839.609C970.355 840.712 970.643 841.773 971.045 842.794C971.446 843.792 972 844.63 972.708 845.31C973.439 845.989 974.382 846.298 975.537 846.236C976.692 846.174 977.585 845.768 978.216 845.016C978.871 844.263 979.344 843.369 979.636 842.335C979.927 841.277 980.089 840.191 980.122 839.078C980.178 837.963 980.185 837.002 980.142 836.193C980.112 835.639 980.056 835.017 979.972 834.327C979.911 833.612 979.792 832.9 979.615 832.192C979.46 831.459 979.249 830.764 978.982 830.107C978.714 829.426 978.37 828.831 977.949 828.321C977.55 827.786 977.065 827.372 976.493 827.078C975.921 826.785 975.255 826.658 974.493 826.699C973.73 826.74 973.081 826.937 972.544 827.289C972.007 827.642 971.557 828.106 971.194 828.682C970.853 829.233 970.585 829.861 970.392 830.566C970.196 831.248 970.049 831.962 969.95 832.709C969.873 833.431 969.831 834.151 969.823 834.869C969.837 835.563 969.858 836.187 969.888 836.742ZM985.811 835.89C985.763 834.99 985.759 834.052 985.8 833.077C985.84 832.102 985.951 831.147 986.133 830.211C986.336 829.25 986.611 828.332 986.958 827.457C987.328 826.58 987.808 825.813 988.398 825.157C989.011 824.475 989.734 823.927 990.569 823.512C991.425 823.072 992.431 822.822 993.586 822.76C994.74 822.698 995.755 822.841 996.631 823.188C997.528 823.511 998.306 823.978 998.964 824.592C999.644 825.181 1000.2 825.892 1000.64 826.725C1001.1 827.558 1001.47 828.441 1001.76 829.376C1002.06 830.286 1002.28 831.223 1002.43 832.188C1002.57 833.153 1002.67 834.086 1002.72 834.987C1002.78 836.28 1002.74 837.672 1002.59 839.162C1002.44 840.652 1002.09 842.049 1001.53 843.353C1000.97 844.656 1000.16 845.753 999.101 846.644C998.06 847.533 996.673 848.024 994.941 848.117C993.209 848.21 991.767 847.87 990.614 847.098C989.484 846.324 988.573 845.319 987.882 844.082C987.19 842.846 986.69 841.494 986.38 840.029C986.07 838.563 985.88 837.184 985.811 835.89ZM989.136 835.713C989.18 836.521 989.277 837.477 989.429 838.58C989.603 839.683 989.892 840.744 990.294 841.765C990.695 842.763 991.249 843.601 991.957 844.281C992.688 844.96 993.631 845.269 994.785 845.207C995.94 845.145 996.833 844.739 997.465 843.987C998.119 843.234 998.593 842.34 998.885 841.306C999.175 840.248 999.337 839.162 999.371 838.049C999.427 836.934 999.433 835.973 999.39 835.165C999.36 834.61 999.304 833.988 999.221 833.298C999.159 832.583 999.04 831.871 998.864 831.163C998.709 830.43 998.498 829.735 998.231 829.078C997.963 828.397 997.618 827.802 997.197 827.292C996.798 826.757 996.313 826.343 995.742 826.049C995.17 825.756 994.503 825.629 993.741 825.67C992.979 825.711 992.329 825.908 991.792 826.26C991.256 826.613 990.806 827.077 990.443 827.653C990.101 828.204 989.834 828.832 989.64 829.537C989.445 830.219 989.298 830.933 989.199 831.68C989.122 832.402 989.079 833.122 989.071 833.84C989.085 834.534 989.107 835.158 989.136 835.713Z" fill="black"/>
<path d="M1135.83 836.599L1145.14 826.304C1145.47 825.962 1145.79 825.598 1146.09 825.211C1146.39 824.801 1146.66 824.382 1146.89 823.952C1147.13 823.523 1147.3 823.074 1147.41 822.605C1147.55 822.134 1147.6 821.645 1147.58 821.137C1147.54 820.536 1147.4 820 1147.14 819.527C1146.91 819.053 1146.59 818.665 1146.18 818.363C1145.79 818.036 1145.33 817.795 1144.78 817.638C1144.27 817.481 1143.72 817.417 1143.14 817.448C1141.94 817.513 1140.97 817.9 1140.22 818.612C1139.47 819.324 1139.02 820.274 1138.87 821.463L1135.26 821.344C1135.36 820.25 1135.62 819.298 1136.04 818.488C1136.48 817.654 1137.04 816.953 1137.7 816.384C1138.39 815.815 1139.17 815.379 1140.06 815.077C1140.97 814.774 1141.96 814.593 1143.02 814.537C1144.08 814.48 1145.08 814.577 1146.02 814.828C1146.99 815.054 1147.83 815.438 1148.55 815.978C1149.3 816.494 1149.89 817.169 1150.33 818.002C1150.79 818.811 1151.05 819.782 1151.11 820.913C1151.15 821.722 1151.07 822.49 1150.85 823.22C1150.66 823.925 1150.38 824.6 1150.02 825.244C1149.66 825.889 1149.24 826.502 1148.76 827.083C1148.28 827.665 1147.78 828.236 1147.26 828.797L1139.6 837.022L1151.93 836.363L1152.09 839.273L1136.02 840.132L1135.83 836.599ZM1154.19 826.862C1154.15 825.962 1154.14 825.024 1154.18 824.049C1154.22 823.074 1154.33 822.119 1154.52 821.183C1154.72 820.222 1154.99 819.304 1155.34 818.429C1155.71 817.552 1156.19 816.785 1156.78 816.129C1157.39 815.447 1158.12 814.899 1158.95 814.484C1159.81 814.045 1160.81 813.794 1161.97 813.732C1163.12 813.67 1164.14 813.813 1165.01 814.16C1165.91 814.483 1166.69 814.95 1167.35 815.564C1168.03 816.153 1168.59 816.864 1169.02 817.697C1169.49 818.53 1169.86 819.413 1170.14 820.348C1170.44 821.258 1170.67 822.195 1170.81 823.16C1170.95 824.125 1171.05 825.058 1171.1 825.959C1171.17 827.252 1171.13 828.644 1170.97 830.134C1170.82 831.624 1170.47 833.021 1169.91 834.325C1169.36 835.628 1168.55 836.725 1167.48 837.616C1166.44 838.505 1165.06 838.996 1163.32 839.089C1161.59 839.182 1160.15 838.842 1159 838.07C1157.87 837.296 1156.96 836.291 1156.26 835.055C1155.57 833.818 1155.07 832.466 1154.76 831.001C1154.45 829.535 1154.26 828.156 1154.19 826.862ZM1157.52 826.685C1157.56 827.493 1157.66 828.449 1157.81 829.552C1157.99 830.655 1158.27 831.716 1158.68 832.737C1159.08 833.735 1159.63 834.573 1160.34 835.254C1161.07 835.932 1162.01 836.241 1163.17 836.179C1164.32 836.118 1165.22 835.711 1165.85 834.959C1166.5 834.206 1166.98 833.312 1167.27 832.278C1167.56 831.22 1167.72 830.134 1167.75 829.021C1167.81 827.906 1167.82 826.945 1167.77 826.137C1167.74 825.582 1167.69 824.96 1167.6 824.27C1167.54 823.555 1167.42 822.843 1167.25 822.135C1167.09 821.402 1166.88 820.707 1166.61 820.05C1166.35 819.369 1166 818.774 1165.58 818.264C1165.18 817.729 1164.7 817.315 1164.12 817.021C1163.55 816.728 1162.89 816.601 1162.12 816.642C1161.36 816.683 1160.71 816.88 1160.18 817.232C1159.64 817.585 1159.19 818.05 1158.83 818.625C1158.48 819.176 1158.22 819.804 1158.02 820.509C1157.83 821.191 1157.68 821.905 1157.58 822.652C1157.5 823.374 1157.46 824.094 1157.45 824.812C1157.47 825.506 1157.49 826.13 1157.52 826.685ZM1173.44 825.833C1173.39 824.933 1173.39 823.995 1173.43 823.02C1173.47 822.045 1173.58 821.09 1173.76 820.154C1173.97 819.193 1174.24 818.275 1174.59 817.4C1174.96 816.523 1175.44 815.756 1176.03 815.1C1176.64 814.418 1177.37 813.87 1178.2 813.455C1179.06 813.016 1180.06 812.765 1181.22 812.703C1182.37 812.641 1183.39 812.784 1184.26 813.131C1185.16 813.454 1185.94 813.921 1186.6 814.535C1187.28 815.124 1187.83 815.835 1188.27 816.668C1188.73 817.501 1189.11 818.384 1189.39 819.319C1189.69 820.229 1189.91 821.166 1190.06 822.131C1190.2 823.096 1190.3 824.029 1190.35 824.93C1190.42 826.223 1190.37 827.615 1190.22 829.105C1190.07 830.596 1189.72 831.992 1189.16 833.296C1188.61 834.599 1187.8 835.696 1186.73 836.587C1185.69 837.476 1184.3 837.967 1182.57 838.06C1180.84 838.153 1179.4 837.813 1178.24 837.041C1177.12 836.267 1176.2 835.262 1175.51 834.026C1174.82 832.789 1174.32 831.437 1174.01 829.972C1173.7 828.506 1173.51 827.127 1173.44 825.833ZM1176.77 825.656C1176.81 826.464 1176.91 827.42 1177.06 828.523C1177.23 829.626 1177.52 830.687 1177.93 831.708C1178.33 832.706 1178.88 833.544 1179.59 834.225C1180.32 834.903 1181.26 835.212 1182.42 835.15C1183.57 835.089 1184.46 834.682 1185.1 833.93C1185.75 833.177 1186.22 832.283 1186.52 831.249C1186.81 830.191 1186.97 829.105 1187 827.992C1187.06 826.877 1187.06 825.916 1187.02 825.108C1186.99 824.553 1186.94 823.931 1186.85 823.241C1186.79 822.526 1186.67 821.814 1186.49 821.106C1186.34 820.373 1186.13 819.678 1185.86 819.021C1185.59 818.34 1185.25 817.745 1184.83 817.235C1184.43 816.7 1183.94 816.286 1183.37 815.992C1182.8 815.699 1182.13 815.572 1181.37 815.613C1180.61 815.654 1179.96 815.851 1179.42 816.204C1178.89 816.556 1178.44 817.021 1178.07 817.596C1177.73 818.147 1177.47 818.775 1177.27 819.48C1177.08 820.162 1176.93 820.876 1176.83 821.623C1176.75 822.345 1176.71 823.065 1176.7 823.783C1176.72 824.477 1176.74 825.101 1176.77 825.656ZM1192.69 824.804C1192.64 823.904 1192.64 822.966 1192.68 821.991C1192.72 821.016 1192.83 820.061 1193.01 819.125C1193.22 818.164 1193.49 817.246 1193.84 816.371C1194.21 815.494 1194.69 814.727 1195.28 814.071C1195.89 813.389 1196.61 812.841 1197.45 812.426C1198.31 811.987 1199.31 811.736 1200.47 811.674C1201.62 811.612 1202.64 811.755 1203.51 812.102C1204.41 812.425 1205.19 812.893 1205.84 813.506C1206.52 814.095 1207.08 814.806 1207.52 815.639C1207.98 816.472 1208.35 817.355 1208.64 818.29C1208.94 819.2 1209.16 820.137 1209.31 821.102C1209.45 822.067 1209.55 823 1209.6 823.901C1209.66 825.194 1209.62 826.586 1209.47 828.076C1209.32 829.567 1208.97 830.963 1208.41 832.267C1207.85 833.57 1207.04 834.667 1205.98 835.558C1204.94 836.447 1203.55 836.938 1201.82 837.031C1200.09 837.124 1198.65 836.784 1197.49 836.012C1196.36 835.238 1195.45 834.233 1194.76 832.997C1194.07 831.76 1193.57 830.408 1193.26 828.943C1192.95 827.477 1192.76 826.098 1192.69 824.804ZM1196.02 824.627C1196.06 825.435 1196.16 826.391 1196.31 827.494C1196.48 828.597 1196.77 829.658 1197.17 830.679C1197.57 831.677 1198.13 832.515 1198.84 833.196C1199.57 833.874 1200.51 834.183 1201.67 834.121C1202.82 834.06 1203.71 833.653 1204.34 832.901C1205 832.148 1205.47 831.254 1205.76 830.22C1206.06 829.162 1206.22 828.076 1206.25 826.963C1206.31 825.848 1206.31 824.887 1206.27 824.079C1206.24 823.524 1206.18 822.902 1206.1 822.212C1206.04 821.497 1205.92 820.785 1205.74 820.077C1205.59 819.344 1205.38 818.649 1205.11 817.992C1204.84 817.311 1204.5 816.716 1204.08 816.206C1203.68 815.671 1203.19 815.257 1202.62 814.963C1202.05 814.67 1201.38 814.543 1200.62 814.584C1199.86 814.625 1199.21 814.822 1198.67 815.175C1198.14 815.527 1197.69 815.992 1197.32 816.567C1196.98 817.118 1196.71 817.746 1196.52 818.451C1196.32 819.133 1196.18 819.847 1196.08 820.594C1196 821.316 1195.96 822.036 1195.95 822.754C1195.96 823.448 1195.99 824.072 1196.02 824.627Z" fill="black"/>
<path d="M215.48 739.382L1203.72 686.492" stroke="black" stroke-width="3.16" stroke-linejoin="round"/>
<path d="M206.5 571.593L1194.74 518.703" stroke="black" stroke-width="3.16" stroke-linejoin="round"/>
<path d="M202.01 487.687L1190.25 434.797" stroke="black" stroke-width="3.16" stroke-linejoin="round"/>
<path d="M197.52 403.788L1185.76 350.898" stroke="black" stroke-width="3.16" stroke-linejoin="round"/>
<path d="M193.03 319.898L1181.27 267.008" stroke="black" stroke-width="3.16" stroke-linejoin="round"/>
<path d="M188.54 235.999L1176.78 183.109" stroke="black" stroke-width="3.16" stroke-linejoin="round"/>
<path d="M1168.72 782.943L1131.68 90.9531" stroke="black" stroke-width="4.21" stroke-linejoin="round"/>
<path d="M964.39 793.883L927.36 101.883" stroke="black" stroke-width="4.21" stroke-linejoin="round"/>
<path d="M760.07 804.81L723.04 112.82" stroke="black" stroke-width="4.21" stroke-linejoin="round"/>
<path d="M555.75 815.75L518.71 123.75" stroke="black" stroke-width="4.21" stroke-linejoin="round"/>
<path d="M351.42 826.677L314.39 134.688" stroke="black" stroke-width="4.21" stroke-linejoin="round"/>
<path d="M77.4966 655.812C76.8309 656.383 76.333 657.088 76.003 657.927C75.6729 658.766 75.5312 659.621 75.5778 660.493C75.6349 661.561 75.8915 662.521 76.3475 663.371C76.7849 664.205 77.3673 664.914 78.0948 665.5C78.8214 666.068 79.6655 666.496 80.6271 666.784C81.5708 667.073 82.5767 667.189 83.6448 667.132C84.6417 667.078 85.5766 666.868 86.4495 666.5C87.3224 666.132 88.0809 665.627 88.725 664.985C89.3691 664.344 89.8637 663.577 90.2087 662.684C90.5537 661.79 90.6967 660.792 90.6377 659.688C90.5796 658.602 90.3062 657.662 89.8174 656.867C89.3286 656.072 88.6684 655.411 87.8369 654.884L89.3501 652.634C89.5535 652.766 89.8517 653 90.2445 653.336C90.6196 653.673 91.0097 654.125 91.415 654.693C91.8024 655.261 92.152 655.957 92.4637 656.779C92.7923 657.583 92.9856 658.527 93.0437 659.613C93.1236 661.109 92.9111 662.477 92.4062 663.718C91.9003 664.941 91.2074 666.004 90.3274 666.908C89.4465 667.794 88.4393 668.491 87.3061 668.998C86.155 669.506 84.9831 669.791 83.7904 669.855C82.3307 669.933 80.9739 669.765 79.7199 669.35C78.4481 668.936 77.3443 668.325 76.4086 667.518C75.4541 666.695 74.6953 665.691 74.1321 664.507C73.569 663.323 73.2484 662.001 73.1704 660.542C73.1038 659.296 73.2789 658.063 73.6958 656.845C74.1117 655.609 74.7976 654.581 75.7536 653.763L77.4966 655.812ZM80.9368 650.537C80.2776 649.894 79.7729 649.136 79.4227 648.262C79.0547 647.389 78.8469 646.507 78.7993 645.617C78.7498 644.692 78.8232 643.893 79.0194 643.222C79.2146 642.533 79.4967 641.965 79.8654 641.517C80.2342 641.069 80.6715 640.733 81.1773 640.509C81.6643 640.269 82.1837 640.134 82.7356 640.105L89.1974 639.759C89.6424 639.735 90.0514 639.705 90.4243 639.667C90.7971 639.629 91.1517 639.583 91.4881 639.53L91.6023 641.666C90.9643 641.754 90.3249 641.814 89.684 641.849L89.6869 641.902C90.5343 642.392 91.1466 642.993 91.5238 643.705C91.9011 644.417 92.1154 645.253 92.1668 646.215C92.1982 646.802 92.148 647.367 92.0164 647.91C91.8847 648.452 91.6696 648.937 91.3711 649.364C91.0716 649.772 90.6966 650.105 90.2462 650.361C89.7779 650.618 89.2322 650.763 88.6092 650.797C87.7903 650.84 87.0955 650.699 86.5246 650.372C85.9528 650.028 85.4811 649.553 85.1096 648.948C84.7193 648.327 84.4306 647.601 84.2435 646.772C84.0376 645.926 83.9089 645.023 83.8575 644.061L83.7633 642.299L83.2293 642.328C82.9089 642.345 82.5918 642.424 82.278 642.566C81.9643 642.708 81.6894 642.91 81.4535 643.172C81.1998 643.436 81.0118 643.758 80.8893 644.14C80.7491 644.522 80.6928 644.971 80.7204 645.488C80.7451 645.951 80.8115 646.358 80.9196 646.709C81.0267 647.042 81.159 647.348 81.3167 647.625C81.4565 647.903 81.6216 648.153 81.812 648.375C82.0024 648.597 82.1834 648.81 82.355 649.015L80.9368 650.537ZM85.5942 643.487C85.6246 644.056 85.6916 644.642 85.7952 645.243C85.88 645.828 86.0247 646.365 86.2294 646.853C86.4331 647.325 86.7037 647.712 87.0413 648.015C87.3779 648.301 87.7954 648.43 88.2938 648.403C89.0237 648.364 89.536 648.096 89.8307 647.598C90.1245 647.083 90.249 646.407 90.2043 645.57C90.1691 644.911 90.0323 644.356 89.7939 643.905C89.5378 643.454 89.2241 643.096 88.8528 642.83C88.4816 642.565 88.079 642.381 87.6451 642.279C87.1934 642.178 86.7539 642.139 86.3267 642.162L85.5257 642.205L85.5942 643.487ZM78.6507 636.827L78.5223 634.424L80.4715 634.32L80.4686 634.266C80.1219 634.124 79.8078 633.927 79.5265 633.674C79.2274 633.422 78.9714 633.141 78.7585 632.831C78.5446 632.504 78.3738 632.147 78.246 631.761C78.1005 631.376 78.0172 630.988 77.9963 630.596C77.9754 630.204 78.0097 629.845 78.0994 629.519L80.6952 629.488C80.6523 629.686 80.6182 629.885 80.5931 630.082C80.568 630.28 80.5606 630.477 80.5711 630.673C80.6339 631.847 81.0113 632.729 81.7032 633.317C82.3952 633.904 83.4354 634.161 84.8239 634.087L91.179 633.747L91.3074 636.15L78.6507 636.827ZM70.5925 627.347L70.464 624.944L79.8097 624.444L79.8068 624.391C79.1253 623.999 78.5763 623.412 78.1596 622.631C77.7252 621.851 77.4837 621.007 77.4351 620.099C77.3828 619.12 77.5048 618.23 77.8012 617.428C78.0966 616.609 78.5321 615.908 79.1079 615.323C79.6649 614.722 80.3447 614.249 81.1474 613.902C81.9323 613.557 82.7964 613.359 83.7399 613.308C84.6834 613.258 85.5637 613.363 86.381 613.622C87.1982 613.882 87.9246 614.281 88.5603 614.818C89.1951 615.338 89.703 615.989 90.084 616.772C90.4641 617.537 90.6803 618.409 90.7327 619.388C90.7784 620.243 90.6362 621.089 90.3061 621.928C89.9751 622.749 89.4838 623.409 88.8321 623.908L88.8349 623.962L90.6506 623.864L90.7791 626.268L70.5925 627.347ZM88.5054 619.802C88.4712 619.161 88.3334 618.588 88.0922 618.083C87.8332 617.579 87.5073 617.159 87.1144 616.823C86.7037 616.488 86.2262 616.237 85.6817 616.07C85.1194 615.904 84.5178 615.838 83.8769 615.872C83.2361 615.906 82.6539 616.035 82.1303 616.26C81.5889 616.485 81.1409 616.786 80.7861 617.162C80.4135 617.539 80.1342 617.991 79.9481 618.519C79.7443 619.047 79.6595 619.632 79.6938 620.273C79.7281 620.914 79.8747 621.486 80.1337 621.99C80.3749 622.495 80.7009 622.915 81.1115 623.25C81.5044 623.586 81.982 623.837 82.5443 624.003C83.0888 624.171 83.6814 624.237 84.3223 624.203C84.9631 624.168 85.5542 624.039 86.0956 623.813C86.6192 623.589 87.0673 623.288 87.4399 622.911C87.7947 622.535 88.074 622.083 88.2778 621.554C88.4638 621.027 88.5397 620.443 88.5054 619.802ZM83.4739 608.333C84.1148 608.299 84.7059 608.169 85.2473 607.944C85.7708 607.719 86.2189 607.419 86.5915 607.042C86.9463 606.666 87.2256 606.213 87.4294 605.685C87.6154 605.157 87.6913 604.573 87.6571 603.932C87.6228 603.291 87.4851 602.718 87.2439 602.214C86.9848 601.71 86.6589 601.29 86.266 600.954C85.8554 600.619 85.3778 600.367 84.8333 600.2C84.271 600.034 83.6694 599.968 83.0286 600.002C82.3877 600.036 81.8055 600.166 81.282 600.39C80.7406 600.615 80.2925 600.916 79.9377 601.292C79.5651 601.669 79.2858 602.121 79.0998 602.649C78.896 603.178 78.8112 603.762 78.8454 604.403C78.8797 605.044 79.0263 605.616 79.2854 606.12C79.5266 606.625 79.8525 607.045 80.2632 607.38C80.656 607.716 81.1336 607.967 81.6959 608.134C82.2404 608.301 82.8331 608.367 83.4739 608.333ZM83.611 610.896C82.6853 610.946 81.8129 610.823 80.9938 610.528C80.1737 610.214 79.4448 609.771 78.8072 609.198C78.1696 608.626 77.6598 607.939 77.2778 607.138C76.878 606.338 76.6529 605.466 76.6025 604.523C76.5521 603.58 76.683 602.689 76.9952 601.851C77.2897 601.014 77.7233 600.277 78.2962 599.639C78.8691 599.002 79.547 598.492 80.33 598.111C81.112 597.712 81.9659 597.488 82.8915 597.439C83.8172 597.389 84.699 597.521 85.5369 597.833C86.356 598.128 87.0844 598.562 87.722 599.135C88.3418 599.709 88.8516 600.396 89.2514 601.196C89.6334 601.997 89.8496 602.869 89.9 603.812C89.9505 604.756 89.8284 605.646 89.534 606.483C89.2217 607.321 88.7881 608.058 88.233 608.695C87.6601 609.332 86.9827 609.85 86.2006 610.249C85.3999 610.631 84.5366 610.847 83.611 610.896ZM76.4023 594.766L76.2738 592.363L78.223 592.259L78.2202 592.206C77.5275 591.939 76.9565 591.443 76.5071 590.717C76.0399 589.992 75.7802 589.141 75.7278 588.161C75.6955 587.556 75.7625 586.972 75.9288 586.41C76.0763 585.831 76.335 585.326 76.7047 584.896C77.0735 584.448 77.5628 584.082 78.1725 583.8C78.7644 583.518 79.4787 583.355 80.3154 583.31L88.4594 582.875L88.5879 585.278L81.1114 585.678C80.5239 585.709 80.0298 585.816 79.6289 585.998C79.2102 586.181 78.8834 586.413 78.6485 586.693C78.3958 586.974 78.2255 587.296 78.1377 587.658C78.0312 588.003 77.9879 588.362 78.0079 588.736C78.0345 589.234 78.1394 589.693 78.3224 590.111C78.5055 590.53 78.7836 590.89 79.1568 591.192C79.5121 591.494 79.9616 591.72 80.5051 591.869C81.0487 592.019 81.6854 592.074 82.4152 592.035L88.9305 591.687L89.0589 594.09L76.4023 594.766ZM68.9536 572.645L68.601 566.049C68.5296 564.714 68.6186 563.54 68.8679 562.527C69.1163 561.496 69.4791 560.602 69.9563 559.845C70.4148 559.07 70.9605 558.425 71.5935 557.909C72.2255 557.376 72.881 556.948 73.56 556.626C74.239 556.304 74.9223 556.062 75.6099 555.9C76.2975 555.739 76.935 555.642 77.5225 555.611C78.7329 555.546 79.9197 555.706 81.0828 556.09C82.2281 556.475 83.269 557.08 84.2057 557.905C85.1246 558.73 85.8858 559.778 86.4893 561.049C87.0919 562.303 87.4384 563.775 87.5288 565.466L87.8585 571.634L68.9536 572.645ZM85.3183 569.199L85.1456 565.968C85.0875 564.882 84.8904 563.866 84.5542 562.92C84.1992 561.957 83.7085 561.127 83.0821 560.428C82.4556 559.73 81.6948 559.19 80.7997 558.81C79.8868 558.43 78.8429 558.272 77.6681 558.334C77.0628 558.367 76.3649 558.502 75.5743 558.741C74.7659 558.98 74.0116 559.396 73.3112 559.987C72.6099 560.56 72.0357 561.34 71.5887 562.328C71.1238 563.317 70.9323 564.577 71.0142 566.108L71.2197 569.953L85.3183 569.199ZM74.1438 552.519L74.0153 550.116L86.672 549.439L86.8005 551.842L74.1438 552.519ZM69.6344 553.322C69.1538 553.348 68.7353 553.201 68.379 552.881C68.004 552.544 67.8036 552.135 67.7779 551.654C67.7522 551.173 67.9083 550.755 68.2463 550.397C68.5655 550.023 68.9654 549.823 69.446 549.798C69.9267 549.772 70.3545 549.928 70.7296 550.264C71.0859 550.585 71.2769 550.985 71.3026 551.466C71.3283 551.946 71.1815 552.374 70.8623 552.748C70.5244 553.105 70.1151 553.297 69.6344 553.322ZM80.035 544.003C80.6759 543.969 81.267 543.839 81.8083 543.614C82.3319 543.39 82.78 543.089 83.1526 542.712C83.5074 542.336 83.7867 541.884 83.9905 541.355C84.1765 540.828 84.2524 540.243 84.2181 539.602C84.1839 538.962 84.0461 538.389 83.8049 537.884C83.5459 537.38 83.22 536.96 82.8271 536.624C82.4165 536.289 81.9389 536.038 81.3944 535.871C80.8321 535.704 80.2305 535.638 79.5896 535.672C78.9488 535.707 78.3666 535.836 77.843 536.06C77.3017 536.286 76.8536 536.586 76.4988 536.962C76.1262 537.339 75.8469 537.792 75.6609 538.319C75.457 538.848 75.3723 539.433 75.4065 540.073C75.4408 540.714 75.5874 541.287 75.8464 541.791C76.0876 542.295 76.4136 542.715 76.8242 543.05C77.2171 543.386 77.6947 543.638 78.257 543.804C78.8015 543.971 79.3942 544.038 80.035 544.003ZM80.172 546.567C79.2464 546.616 78.374 546.493 77.5548 546.198C76.7347 545.885 76.0059 545.442 75.3683 544.869C74.7307 544.296 74.2209 543.609 73.8389 542.808C73.4391 542.009 73.214 541.137 73.1636 540.193C73.1131 539.25 73.244 538.359 73.5563 537.521C73.8507 536.684 74.2844 535.947 74.8573 535.31C75.4302 534.672 76.1081 534.163 76.8911 533.782C77.6731 533.383 78.527 533.159 79.4526 533.109C80.3783 533.06 81.2601 533.191 82.0979 533.503C82.9171 533.799 83.6455 534.233 84.283 534.806C84.9028 535.38 85.4126 536.066 85.8124 536.866C86.1944 537.667 86.4107 538.539 86.4611 539.483C86.5115 540.426 86.3895 541.316 86.0951 542.153C85.7828 542.991 85.3492 543.728 84.7941 544.365C84.2212 545.003 83.5437 545.521 82.7617 545.92C81.9609 546.302 81.0977 546.517 80.172 546.567ZM78.6789 526.65L73.0176 531.451L72.852 528.354L77.1738 525.044L72.5265 522.266L72.3709 519.355L78.5033 523.366L84.9848 517.878L85.1504 520.975L80.0366 524.998L85.5501 528.452L85.7085 531.416L78.6789 526.65ZM72.2131 516.403L72.0847 514L84.7414 513.324L84.8698 515.727L72.2131 516.403ZM67.7038 517.207C67.2232 517.233 66.8047 517.085 66.4484 516.765C66.0733 516.428 65.873 516.019 65.8473 515.539C65.8216 515.058 65.9777 514.639 66.3156 514.282C66.6348 513.908 67.0347 513.708 67.5154 513.682C67.996 513.657 68.4239 513.812 68.7989 514.149C69.1552 514.469 69.3462 514.87 69.3719 515.35C69.3976 515.831 69.2509 516.258 68.9317 516.632C68.5937 516.99 68.1844 517.181 67.7038 517.207ZM83.8589 496.816L83.9873 499.219L82.1716 499.316L82.1745 499.369C82.8757 499.796 83.4351 500.409 83.8527 501.208C84.2693 501.989 84.5005 502.806 84.5461 503.661C84.5985 504.64 84.477 505.539 84.1816 506.358C83.8852 507.16 83.4496 507.861 82.8748 508.463C82.2991 509.047 81.6188 509.512 80.8339 509.858C80.049 510.203 79.1849 510.401 78.2414 510.452C77.2979 510.502 76.4176 510.397 75.6003 510.137C74.7653 509.879 74.0393 509.489 73.4224 508.969C72.7867 508.431 72.2788 507.78 71.8987 507.015C71.5176 506.232 71.301 505.351 71.2486 504.372C71.2001 503.464 71.3502 502.599 71.699 501.777C72.03 500.956 72.5134 500.314 73.1492 499.852L73.1464 499.798L63.8007 500.298L63.6723 497.895L83.8589 496.816ZM82.2875 503.487C82.2532 502.846 82.1155 502.273 81.8743 501.769C81.6153 501.265 81.2893 500.845 80.8965 500.509C80.4858 500.174 80.0082 499.923 79.4637 499.755C78.9014 499.589 78.2998 499.523 77.659 499.557C77.0182 499.591 76.4359 499.721 75.9124 499.945C75.371 500.17 74.9229 500.471 74.5681 500.847C74.1955 501.224 73.9162 501.676 73.7302 502.204C73.5264 502.733 73.4416 503.317 73.4759 503.958C73.5101 504.599 73.6568 505.171 73.9158 505.675C74.157 506.18 74.4829 506.6 74.8936 506.935C75.2864 507.271 75.764 507.522 76.3263 507.689C76.8708 507.856 77.4635 507.922 78.1044 507.888C78.7452 507.854 79.3363 507.724 79.8777 507.499C80.4012 507.274 80.8493 506.974 81.2219 506.597C81.5767 506.221 81.856 505.768 82.0598 505.24C82.2459 504.712 82.3217 504.128 82.2875 503.487ZM78.12 491.651C78.6719 491.621 79.173 491.479 79.6235 491.222C80.0552 490.949 80.4208 490.609 80.7203 490.2C81.0198 489.791 81.2447 489.324 81.3951 488.798C81.5455 488.272 81.606 487.733 81.5765 487.182C81.5365 486.434 81.3327 485.793 80.965 485.26C80.5794 484.727 80.0895 484.244 79.4951 483.812L80.7865 481.922C82.5846 483.165 83.5479 484.988 83.6764 487.391C83.7297 488.388 83.6091 489.305 83.3146 490.141C83.0192 490.961 82.593 491.671 82.0361 492.272C81.4603 492.856 80.78 493.321 79.9951 493.666C79.1924 494.013 78.3194 494.211 77.3759 494.261C76.4324 494.312 75.5516 494.198 74.7334 493.921C73.8965 493.626 73.1691 493.21 72.5512 492.672C71.9145 492.117 71.4057 491.448 71.0246 490.665C70.6436 489.882 70.4278 489.018 70.3774 488.075C70.3175 486.953 70.4628 485.999 70.8135 485.213C71.1633 484.409 71.6453 483.74 72.2595 483.208C72.8559 482.676 73.5489 482.282 74.3385 482.025C75.1094 481.752 75.9043 481.594 76.7231 481.55L77.5776 481.504L78.12 491.651ZM75.7921 484.17C75.259 484.217 74.7742 484.332 74.3378 484.516C73.9004 484.682 73.5295 484.925 73.2253 485.245C72.9032 485.566 72.6656 485.962 72.5123 486.434C72.3403 486.89 72.2704 487.42 72.3028 488.026C72.3342 488.613 72.4789 489.15 72.737 489.636C72.9763 490.105 73.283 490.499 73.6571 490.818C74.0312 491.138 74.446 491.383 74.9015 491.555C75.3383 491.71 75.7703 491.777 76.1975 491.754L75.7921 484.17ZM63.784 466.925C64.7223 467.446 65.6213 467.898 66.4807 468.28C67.3402 468.663 68.2137 468.973 69.1012 469.211C69.9709 469.45 70.8724 469.617 71.8057 469.709C72.7389 469.802 73.7396 469.82 74.8077 469.763C76.7658 469.659 78.6464 469.272 80.4495 468.605C82.2526 467.937 83.9069 466.992 85.4125 465.769L86.5663 467.314C84.9586 468.631 83.1676 469.691 81.1931 470.493C79.2178 471.277 77.1264 471.728 74.919 471.846C72.8719 471.955 70.8071 471.735 68.7248 471.186C66.6424 470.637 64.6858 469.769 62.855 468.581L63.784 466.925ZM66.5205 450.489C65.8548 451.06 65.3569 451.765 65.0268 452.604C64.6968 453.443 64.5551 454.298 64.6017 455.171C64.6588 456.239 64.9154 457.198 65.3714 458.048C65.8087 458.882 66.3912 459.591 67.1187 460.177C67.8453 460.746 68.6894 461.173 69.6509 461.461C70.5947 461.75 71.6006 461.866 72.6687 461.809C73.6655 461.755 74.6004 461.545 75.4734 461.177C76.3463 460.809 77.1048 460.304 77.7489 459.663C78.393 459.021 78.8876 458.254 79.2325 457.361C79.5775 456.468 79.7205 455.469 79.6615 454.365C79.6035 453.28 79.3301 452.339 78.8413 451.544C78.3525 450.749 77.6923 450.088 76.8608 449.561L78.374 447.311C78.5774 447.443 78.8756 447.677 79.2684 448.013C79.6435 448.35 80.0336 448.803 80.4388 449.37C80.8263 449.938 81.1759 450.634 81.4876 451.456C81.8162 452.26 82.0095 453.205 82.0676 454.29C82.1475 455.786 81.935 457.154 81.4301 458.395C80.9242 459.618 80.2313 460.681 79.3513 461.585C78.4703 462.472 77.4632 463.168 76.3299 463.675C75.1788 464.183 74.007 464.469 72.8143 464.532C71.3546 464.61 69.9977 464.442 68.7437 464.027C67.472 463.613 66.3682 463.002 65.4325 462.196C64.478 461.372 63.7191 460.368 63.156 459.184C62.5929 458 62.2723 456.679 62.1942 455.219C62.1276 453.973 62.3028 452.741 62.7196 451.522C63.1356 450.286 63.8215 449.259 64.7774 448.44L66.5205 450.489ZM81.0554 435.356C81.1325 436.798 80.9541 438.137 80.5204 439.375C80.0689 440.613 79.4214 441.692 78.578 442.612C77.7336 443.514 76.7195 444.246 75.5356 444.809C74.3508 445.355 73.0553 445.665 71.649 445.74C70.2427 445.815 68.9215 445.645 67.6853 445.229C66.4482 444.795 65.3617 444.175 64.426 443.368C63.4893 442.543 62.7394 441.539 62.1762 440.355C61.5953 439.172 61.2663 437.86 61.1892 436.418C61.1121 434.976 61.2993 433.636 61.7509 432.398C62.1846 431.161 62.8236 430.091 63.668 429.189C64.5115 428.27 65.5256 427.537 66.7104 426.992C67.8942 426.428 69.1893 426.109 70.5956 426.034C72.0019 425.959 73.3236 426.138 74.5607 426.572C75.7969 426.988 76.8833 427.608 77.82 428.433C78.7558 429.24 79.5141 430.235 80.095 431.417C80.6582 432.601 80.9783 433.914 81.0554 435.356ZM78.6522 435.485C78.5942 434.399 78.346 433.43 77.9078 432.579C77.4517 431.728 76.8688 431.01 76.159 430.423C75.4493 429.836 74.6314 429.398 73.7055 429.108C72.7617 428.819 71.7736 428.702 70.7412 428.758C69.7087 428.813 68.7476 429.034 67.8578 429.421C66.9502 429.808 66.1748 430.332 65.5317 430.991C64.8885 431.65 64.3945 432.426 64.0495 433.32C63.6867 434.214 63.5343 435.204 63.5924 436.29C63.6504 437.375 63.9075 438.344 64.3635 439.194C64.8018 440.045 65.3758 440.764 66.0855 441.351C66.7953 441.938 67.622 442.376 68.5658 442.665C69.4917 442.954 70.4709 443.072 71.5034 443.016C72.5359 442.961 73.5059 442.74 74.4135 442.352C75.3033 441.965 76.0697 441.442 76.7129 440.783C77.356 440.124 77.859 439.347 78.2218 438.453C78.5668 437.56 78.7103 436.57 78.6522 435.485ZM77.1916 423.19L69.2563 416.009C68.9928 415.756 68.712 415.512 68.4139 415.278C68.0979 415.045 67.7745 414.839 67.4436 414.66C67.1127 414.482 66.7664 414.348 66.4047 414.261C66.042 414.155 65.6648 414.113 65.2732 414.134C64.8104 414.158 64.3968 414.27 64.0325 414.468C63.6672 414.648 63.3681 414.896 63.135 415.212C62.8832 415.511 62.6971 415.869 62.5766 416.286C62.4551 416.685 62.4063 417.108 62.43 417.553C62.4795 418.478 62.7786 419.23 63.3272 419.808C63.8757 420.385 64.6083 420.73 65.5247 420.842L65.4328 423.631C64.5895 423.552 63.8557 423.35 63.2314 423.026C62.5884 422.686 62.0479 422.259 61.6099 421.747C61.171 421.217 60.8351 420.61 60.6021 419.926C60.3683 419.225 60.2294 418.465 60.1857 417.646C60.1419 416.827 60.2167 416.055 60.41 415.331C60.5846 414.59 60.8802 413.94 61.2966 413.382C61.6944 412.808 62.2145 412.351 62.8569 412.013C63.4807 411.659 64.2286 411.458 65.1009 411.412C65.724 411.378 66.3166 411.445 66.8789 411.611C67.4225 411.761 67.9427 411.974 68.4395 412.251C68.9363 412.528 69.4088 412.85 69.8569 413.219C70.3051 413.588 70.7453 413.975 71.1776 414.38L77.5181 420.281L77.0099 410.775L79.2529 410.655L79.9152 423.045L77.1916 423.19ZM59.7556 400.585L59.4002 393.936C59.3355 392.725 59.4513 391.72 59.7477 390.918C60.0262 390.118 60.4117 389.481 60.9041 389.009C61.3778 388.519 61.9304 388.168 62.5617 387.956C63.1752 387.745 63.7757 387.623 64.3631 387.592C64.9506 387.561 65.5695 387.617 66.2198 387.761C66.8524 387.905 67.4392 388.195 67.9801 388.63C68.5024 389.049 68.9535 389.641 69.3336 390.406C69.6959 391.172 69.9094 392.16 69.9741 393.371L70.1925 397.456L78.5235 397.011L78.6605 399.574L59.7556 400.585ZM67.9496 397.576L67.7697 394.212C67.7431 393.713 67.6813 393.226 67.5844 392.749C67.4687 392.255 67.2941 391.827 67.0605 391.465C66.826 391.084 66.5067 390.789 66.1027 390.579C65.6809 390.369 65.1496 390.281 64.5087 390.316C63.8679 390.35 63.3578 390.493 62.9786 390.746C62.5815 390.999 62.2867 391.327 62.094 391.73C61.9003 392.115 61.7812 392.559 61.7367 393.061C61.6734 393.547 61.655 394.039 61.6817 394.537L61.8615 397.901L67.9496 397.576ZM58.9095 384.757L58.554 378.108C58.4893 376.897 58.6052 375.891 58.9015 375.09C59.1801 374.29 59.5656 373.653 60.058 373.181C60.5317 372.691 61.0842 372.34 61.7155 372.128C62.3291 371.917 62.9296 371.795 63.517 371.764C64.1044 371.732 64.7233 371.789 65.3737 371.932C66.0063 372.077 66.593 372.367 67.134 372.802C67.6562 373.221 68.1074 373.812 68.4875 374.578C68.8498 375.344 69.0633 376.332 69.128 377.543L69.3464 381.628L77.6774 381.183L77.8144 383.746L58.9095 384.757ZM67.1034 381.748L66.9236 378.383C66.8969 377.885 66.8352 377.397 66.7383 376.921C66.6226 376.427 66.448 375.999 66.2144 375.636C65.9798 375.256 65.6606 374.961 65.2566 374.75C64.8348 374.541 64.3034 374.453 63.6626 374.487C63.0217 374.522 62.5117 374.665 62.1324 374.917C61.7354 375.171 61.4405 375.499 61.2478 375.902C61.0542 376.287 60.9351 376.731 60.8905 377.233C60.8272 377.719 60.8089 378.21 60.8355 378.709L61.0154 382.073L67.1034 381.748ZM58.0733 369.115L57.8692 365.297L71.8602 358.524L71.8545 358.417L57.224 353.228L57.0199 349.409L75.9248 348.399L76.0618 350.962L60.5214 351.793L60.5242 351.846L76.4059 357.397L76.4972 359.106L61.2979 366.319L61.3007 366.372L76.8412 365.541L76.9783 368.105L58.0733 369.115ZM79.0279 345.334C78.0896 344.813 77.1907 344.361 76.3312 343.979C75.4717 343.596 74.6071 343.285 73.7374 343.046C72.8499 342.808 71.9396 342.642 71.0063 342.55C70.073 342.457 69.0723 342.439 68.0043 342.496C66.0461 342.6 64.1655 342.987 62.3624 343.654C60.5594 344.322 58.905 345.267 57.3994 346.49L56.2457 344.945C57.8533 343.628 59.6449 342.577 61.6202 341.793C63.5947 340.991 65.6856 340.531 67.8929 340.413C69.9401 340.304 72.0048 340.524 74.0872 341.073C76.1695 341.622 78.1261 342.49 79.957 343.678L79.0279 345.334Z" fill="black"/>
<path d="M214.99 655.486L220.99 655.156" stroke="#EE82AA" stroke-width="5" stroke-linejoin="round"/>
<path d="M232.99 654.522L1187.24 603.242" stroke="#EE82AA" stroke-width="5" stroke-linejoin="round" stroke-dasharray="12.02 12.02"/>
<path d="M1193.24 602.922L1199.23 602.602" stroke="#EE82AA" stroke-width="5" stroke-linejoin="round"/>
</g>
<defs>
<clipPath id="clip0_250_95">
<rect width="1341.16" height="969.24" fill="white"/>
</clipPath>
</defs>
</svg>
