<svg xmlns="http://www.w3.org/2000/svg" viewBox="0 0 63.79 89.97"><defs><style>.cls-1{fill:#ffc5ff;stroke:#000;stroke-linecap:round;stroke-linejoin:round;stroke-width:3px;}</style></defs><g id="Layer_2" data-name="Layer 2"><g id="Layer_1-2" data-name="Layer 1"><circle class="cls-1" cx="31.89" cy="31.89" r="30.39"></circle><path class="cls-1" d="M37,85.39v1.4a1.61,1.61,0,0,1-1.53,1.68H28.3a1.61,1.61,0,0,1-1.53-1.68v-1.4a5.92,5.92,0,0,0-.68-2.72h11.6A5.92,5.92,0,0,0,37,85.39Zm10.38-5.46a3.54,3.54,0,0,1-3.31,2.78H19.68a3.54,3.54,0,0,1-3.31-2.8,29,29,0,0,1-.57-7.4v-15H48v15A28.42,28.42,0,0,1,47.39,79.93Z"></path><line class="cls-1" x1="42.71" y1="71.81" x2="20.5" y2="76.16"></line><line class="cls-1" x1="42.71" y1="77.15" x2="36.36" y2="78.4"></line><line class="cls-1" x1="42.56" y1="65.99" x2="20.34" y2="70.35"></line><line class="cls-1" x1="29.35" y1="62.79" x2="20.34" y2="64.55"></line></g></g></svg>