<svg xmlns="http://www.w3.org/2000/svg" viewBox="0 0 53.66 102.45"><defs><style>.cls-1{fill:#ffc5ff;}</style></defs><g id="Layer_2" data-name="Layer 2"><g id="Layer_1-2" data-name="Layer 1"><g id="QxmrTR"><path d="M53.65,51.24q0,20.9,0,41.8a9.06,9.06,0,0,1-4,7.82,8.5,8.5,0,0,1-5,1.58q-17.86,0-35.74,0A8.31,8.31,0,0,1,4.19,101,9,9,0,0,1,0,93.17V9.23A8.89,8.89,0,0,1,3.72,1.79,9,9,0,0,1,9.19,0H30.78C35.37,0,40,0,44.55,0a9.08,9.08,0,0,1,8.92,7.31,11.6,11.6,0,0,1,.18,2.2Q53.66,30.37,53.65,51.24Zm-2,0h0v-42A7.74,7.74,0,0,0,51.61,8a7.14,7.14,0,0,0-7.18-6H9.74a10,10,0,0,0-1.64.08A7.13,7.13,0,0,0,2,9.24c0,4.14,0,8.28,0,12.42,0,1.78-.07,3.57-.07,5.35,0,.84.07,1.68.07,2.51V86.57c0,2.3-.05,4.61,0,6.91a7.11,7.11,0,0,0,7.24,7H44.45a8,8,0,0,0,1.54-.15A7.27,7.27,0,0,0,51.71,93C51.67,79.12,51.69,65.2,51.69,51.28Z"></path><path class="cls-1" d="M51.69,51.28c0,13.92,0,27.84,0,41.76A7.27,7.27,0,0,1,46,100.32a8,8,0,0,1-1.54.15H9.22a7.11,7.11,0,0,1-7.24-7c-.07-2.3,0-4.61,0-6.91v-57c0-.83-.08-1.67-.07-2.51,0-1.78.06-3.57.07-5.35,0-4.14,0-8.28,0-12.42A7.13,7.13,0,0,1,8.1,2.05,10,10,0,0,1,9.74,2H44.43A7.14,7.14,0,0,1,51.61,8a7.74,7.74,0,0,1,.08,1.27v42Zm-.61-.06V18.35c0-.71,0-1.41,0-2.12a3.84,3.84,0,0,0-3.41-3.85,19.62,19.62,0,0,0-2.3,0l-27.27,0H6.66a4.94,4.94,0,0,0-1.21.14,3.82,3.82,0,0,0-2.87,3.88c0,3.18.06,6.36.08,9.54,0,.93-.08,1.86-.08,2.79V85.88A3.91,3.91,0,0,0,6.8,90.1H46.91a3.89,3.89,0,0,0,4.16-4.18Q51.08,68.58,51.08,51.22ZM26.83,8.48h8.7a1,1,0,1,0,0-2H18.22a1.08,1.08,0,0,0-1,.42.92.92,0,0,0-.07,1,1,1,0,0,0,1,.54Zm0,90.13A3.67,3.67,0,1,0,23.16,95,3.66,3.66,0,0,0,26.81,98.61Z"></path><path d="M51.08,51.22q0,17.36,0,34.7a3.89,3.89,0,0,1-4.16,4.18H6.8a3.91,3.91,0,0,1-4.22-4.22V28.7c0-.93.08-1.86.08-2.79,0-3.18-.07-6.36-.08-9.54a3.82,3.82,0,0,1,2.87-3.88,4.94,4.94,0,0,1,1.21-.14H18.09l27.27,0a19.62,19.62,0,0,1,2.3,0,3.84,3.84,0,0,1,3.41,3.85c0,.71,0,1.41,0,2.12Zm-2,0v-35a1.91,1.91,0,0,0-1.9-1.93H6.68a2.69,2.69,0,0,0-.7.07,1.89,1.89,0,0,0-1.43,2q0,5.64,0,11.28V75.46q0,5.22,0,10.44A2,2,0,0,0,6.8,88.14H46.86a2,2,0,0,0,2.25-2.25Z"></path><path d="M26.83,8.48H18.18a1,1,0,0,1-1-.54.92.92,0,0,1,.07-1,1.08,1.08,0,0,1,1-.42h17.3a1,1,0,1,1,0,2h-8.7Z"></path><path d="M26.81,98.61A3.67,3.67,0,1,1,30.5,95,3.65,3.65,0,0,1,26.81,98.61Zm0-2a1.68,1.68,0,0,0,1.68-1.71,1.7,1.7,0,1,0-3.4,0A1.67,1.67,0,0,0,26.85,96.64Z"></path><path class="cls-1" d="M49.11,51.23V85.89a2,2,0,0,1-2.25,2.25H6.8A2,2,0,0,1,4.55,85.9q0-5.22,0-10.44V27.62q0-5.64,0-11.28a1.89,1.89,0,0,1,1.43-2,2.69,2.69,0,0,1,.7-.07H47.21a1.91,1.91,0,0,1,1.9,1.93v35ZM18.29,56.58a5.39,5.39,0,0,0,.86-.55c.67-.64,1.32-1.3,2-2L37,38.19c.52-.52.58-1.09.15-1.53s-1-.39-1.56.15l-.1.1L20.61,51.8l-2.89,2.89a.91.91,0,0,0-.25,1.15A3.75,3.75,0,0,0,18.29,56.58ZM17.1,64.64a6.62,6.62,0,0,0,.72-.46c.5-.46,1-.94,1.47-1.42l3.76-3.69,2.69-2.69q3.81-3.83,7.64-7.64c.86-.87,1.73-1.73,2.58-2.6a1,1,0,1,0-1.36-1.4,2.23,2.23,0,0,0-.27.26q-6.58,6.59-13.16,13.17c-1,1-2,2-3,3.07-.56.57-1.15,1.1-1.7,1.66a.8.8,0,0,0-.14,1A4.45,4.45,0,0,0,17.1,64.64Z"></path><path class="cls-1" d="M26.85,96.64A1.67,1.67,0,0,1,25.13,95a1.7,1.7,0,1,1,3.4,0A1.68,1.68,0,0,1,26.85,96.64Z"></path><path d="M18.29,56.58a3.75,3.75,0,0,1-.82-.74.91.91,0,0,1,.25-1.15l2.89-2.89L35.5,36.91l.1-.1c.55-.54,1.13-.6,1.56-.15s.37,1-.15,1.53L21.12,54.07c-.65.66-1.3,1.32-2,2A5.39,5.39,0,0,1,18.29,56.58Z"></path><path d="M17.1,64.64a4.45,4.45,0,0,1-.78-.7.8.8,0,0,1,.14-1c.55-.56,1.14-1.09,1.7-1.66,1-1,2-2.06,3-3.07Q27.74,51.57,34.33,45a2.23,2.23,0,0,1,.27-.26A1,1,0,1,1,36,46.14c-.85.87-1.72,1.73-2.58,2.6q-3.83,3.81-7.64,7.64l-2.69,2.69-3.76,3.69c-.49.48-1,1-1.47,1.42A6.62,6.62,0,0,1,17.1,64.64Z"></path></g></g></g></svg>