<svg xmlns="http://www.w3.org/2000/svg" viewBox="0 0 77.14 84.17"><defs><style>.cls-1{fill:#ffdb43;}</style></defs><g id="Layer_2" data-name="Layer 2"><g id="Layer_1-2" data-name="Layer 1"><g id="nJHhKK"><path d="M42.09,73.75v3.17a29.15,29.15,0,0,1,4.6,1.47,16.14,16.14,0,0,1,3.5,2.7,1.75,1.75,0,0,1,0,2.66,1.84,1.84,0,0,1-2.65-.35c-3.44-3.6-7.69-3.58-11.06,0a1.86,1.86,0,0,1-2.6.35,1.78,1.78,0,0,1-.09-2.6,10.26,10.26,0,0,1,4-3A1,1,0,0,0,38.57,77c0-1.11,0-2.22,0-3.32-1.71-.29-3.35-.48-5-.85C25.3,70.91,18.52,66.4,12.84,60.2c-1.9-2.07-3.37-4.52-5.13-6.73a7.22,7.22,0,0,0-2.42-2.2c-2.11-.94-2.44-3-.51-4.51l.54-.44L3.55,45.6c-2-.77-2.47-2.6-.9-4a17.37,17.37,0,0,1,3.52-2,3.19,3.19,0,0,1,.63-.22C5.42,37.59,4,35.91,2.69,34.09A13.65,13.65,0,0,1,.1,28a10.1,10.1,0,0,1,.1-3.47,2.19,2.19,0,0,1,3.69-1.18,3.87,3.87,0,0,1,.68.66,26,26,0,0,0,9.72,7.42,46,46,0,0,0,17.23,4.44,40.1,40.1,0,0,0,5.9.09c3.64-.29,6.12-2.42,7.67-5.59A67.55,67.55,0,0,0,48,23.5c1.45-3.91,2.65-7.92,5.41-11.17-2.15-2.29-2.6-4.48-1.29-6.78a5.3,5.3,0,0,1,4.85-3,1.21,1.21,0,0,0,.82-.41,5.31,5.31,0,0,1,8.76.34.94.94,0,0,0,.64.41,4.93,4.93,0,0,1,5,3c.95,2,.55,4-1.06,6a13.47,13.47,0,0,1,1.78,3,13.83,13.83,0,0,0,2.65,4.79c1.48,1.89,1.66,4.3,1.58,6.63,0,1.48-1.64,2-3,1.12a6.36,6.36,0,0,0-3.86-1.18,1.6,1.6,0,0,0-1.08.49,7.28,7.28,0,0,0-1.67,5.6c.4,2.88,1,5.72,1.65,8.56,1,4.57,1.43,9.15.32,13.76a21.38,21.38,0,0,1-8.64,12.49A35.63,35.63,0,0,1,42.7,73.61c-.17,0-.34,0-.51.06C42.17,73.67,42.15,73.7,42.09,73.75ZM73.27,23a4.31,4.31,0,0,0-1.75-2.61,3,3,0,0,1-1.39-2.5,5.1,5.1,0,0,0-1.79-3.59c-3.9-3.52-10.49-2.76-13.28,1.66a34.11,34.11,0,0,0-2.55,5.31c-1.47,3.53-2.64,7.2-4.3,10.63a12.51,12.51,0,0,1-11.36,7.58,51.91,51.91,0,0,1-12.43-1.07C16.91,36.9,10,34.09,4.22,28.89A1.55,1.55,0,0,0,4,28.77L3.77,29a51.52,51.52,0,0,0,2.8,4.56C8.2,35.7,10,37.74,12.73,38.64A1.75,1.75,0,0,1,12.32,42c-.62.1-1.26.07-1.87.18-1.2.22-2.38.49-3.71.77,1.36.85,2.5,1.55,3.62,2.28a1.74,1.74,0,0,1,.86,1.82,1.8,1.8,0,0,1-1.39,1.47c-.45.14-.91.24-1.22.33.89,1.2,1.85,2.33,2.63,3.57A40.84,40.84,0,0,0,21,63,6.26,6.26,0,0,0,22.82,64,27,27,0,0,0,33,65.36a14.1,14.1,0,0,0,12.69-8.87,20.11,20.11,0,0,0,1.67-7.65c0-1.14.53-1.82,1.41-2,1.23-.23,2.1.61,2.08,2a22.29,22.29,0,0,1-1.25,7.23C47.4,62.3,43.38,66.58,36.91,68.27c-1.27.34-2.59.47-4,.73a24.45,24.45,0,0,0,8.22,1.14A31.44,31.44,0,0,0,58.8,64.32a17.7,17.7,0,0,0,7.55-11.63,29.13,29.13,0,0,0-.73-11.64c-.68-2.89-1.6-5.73-1.64-8.74a12.69,12.69,0,0,1,2.34-7.64,4.34,4.34,0,0,1,4.59-1.94C71.66,22.85,72.42,22.93,73.27,23ZM59.56,6.78A21.51,21.51,0,0,0,57,6.14,2,2,0,0,0,54.9,8.28a1.55,1.55,0,0,0,2.25,1.34,13.38,13.38,0,0,1,9.86,0c1,.35,1.6.14,2-.79a1.64,1.64,0,0,0-.77-2.18,4.57,4.57,0,0,0-1.84,0,14.15,14.15,0,0,0-1.69.48c-.36-.85-.65-1.62-1-2.37a1.78,1.78,0,0,0-1.82-1.16A1.91,1.91,0,0,0,60.21,5C60,5.56,59.77,6.18,59.56,6.78Z"></path><path class="cls-1" d="M73.27,23c-.85-.11-1.61-.19-2.36-.31a4.34,4.34,0,0,0-4.59,1.94A12.69,12.69,0,0,0,64,32.31c0,3,1,5.85,1.64,8.74a29.13,29.13,0,0,1,.73,11.64A17.7,17.7,0,0,1,58.8,64.32a31.44,31.44,0,0,1-17.72,5.82A24.45,24.45,0,0,1,32.86,69c1.46-.26,2.78-.39,4-.73,6.47-1.69,10.49-6,12.65-12.14a22.29,22.29,0,0,0,1.25-7.23c0-1.43-.85-2.27-2.08-2-.88.16-1.37.84-1.41,2a20.11,20.11,0,0,1-1.67,7.65A14.1,14.1,0,0,1,33,65.36,27,27,0,0,1,22.82,64,6.26,6.26,0,0,1,21,63a40.84,40.84,0,0,1-9.76-10.5c-.78-1.24-1.74-2.37-2.63-3.57.31-.09.77-.19,1.22-.33a1.8,1.8,0,0,0,1.39-1.47,1.74,1.74,0,0,0-.86-1.82C9.24,44.53,8.1,43.83,6.74,43c1.33-.28,2.51-.55,3.71-.77.61-.11,1.25-.08,1.87-.18a1.75,1.75,0,0,0,.41-3.39C10,37.74,8.2,35.7,6.57,33.52A51.52,51.52,0,0,1,3.77,29L4,28.77a1.55,1.55,0,0,1,.22.12c5.79,5.2,12.69,8,20.2,9.56a51.91,51.91,0,0,0,12.43,1.07,12.51,12.51,0,0,0,11.36-7.58c1.66-3.43,2.83-7.1,4.3-10.63A34.11,34.11,0,0,1,55.06,16c2.79-4.42,9.38-5.18,13.28-1.66a5.1,5.1,0,0,1,1.79,3.59,3,3,0,0,0,1.39,2.5A4.31,4.31,0,0,1,73.27,23Zm-9.33-2.1a2.63,2.63,0,1,0-2.54-2.68A2.61,2.61,0,0,0,63.94,20.94Z"></path><path class="cls-1" d="M59.56,6.78c.21-.6.41-1.22.65-1.82a1.91,1.91,0,0,1,1.68-1.39,1.78,1.78,0,0,1,1.82,1.16c.34.75.63,1.52,1,2.37a14.15,14.15,0,0,1,1.69-.48,4.57,4.57,0,0,1,1.84,0A1.64,1.64,0,0,1,69,8.78c-.39.93-1,1.14-2,.79a13.38,13.38,0,0,0-9.86,0A1.55,1.55,0,0,1,54.9,8.28,2,2,0,0,1,57,6.14,21.51,21.51,0,0,1,59.56,6.78Z"></path><path d="M63.94,20.94a2.63,2.63,0,1,1,2.7-2.52A2.62,2.62,0,0,1,63.94,20.94Z"></path></g></g></g></svg>