<svg xmlns="http://www.w3.org/2000/svg" viewBox="0 0 60.25 75.31"><defs><style>.cls-1{fill:#fff;}</style></defs><g id="Layer_2" data-name="Layer 2"><g id="Layer_1-2" data-name="Layer 1"><g id="O6xzoH"><path d="M15.06,20.08a33.23,33.23,0,0,0,4,0,2.81,2.81,0,0,0,1.59-1.09A6.58,6.58,0,0,1,27,16.26c2.75.24,5.54,0,8.31.1a8.5,8.5,0,0,1,2.61,1,.81.81,0,0,1,.33.33c1.63,2.55,4.07,2.71,6.9,2.24V15.16c0-4.29,0-8.57,0-12.86,0-2.13.16-2.29,2.36-2.3H57.9c2.18,0,2.35.17,2.35,2.31V73.22c0,1.83-.26,2.09-2.1,2.09h-56C.22,75.31,0,75.08,0,73.11V2.2C0,.23.22,0,2.14,0H13c1.84,0,2.1.26,2.1,2.09,0,5.33,0,10.67,0,16Zm30.15,2.58a7.12,7.12,0,0,0-1-.06,7.4,7.4,0,0,1-7.74-3.12,2.26,2.26,0,0,0-1.62-.62c-2.92-.06-5.85,0-8.78-.06a3.14,3.14,0,0,0-3,1.29,5.67,5.67,0,0,1-5.93,2.52,15.25,15.25,0,0,0-2.15,0v3.64H12.5V7.63H2.62v60h55v-60h-10V26.28H45.21Zm-42.63,50H57.67V70.37H2.58Zm0-67.77h9.9V2.6H2.58ZM57.63,5V2.63H47.78V5Z"></path><path class="cls-1" d="M45.21,22.66v3.62h2.43V7.63h10v60h-55v-60H12.5V26.24H15V22.6a15.25,15.25,0,0,1,2.15,0,5.67,5.67,0,0,0,5.93-2.52,3.14,3.14,0,0,1,3-1.29c2.93.1,5.86,0,8.78.06a2.26,2.26,0,0,1,1.62.62,7.4,7.4,0,0,0,7.74,3.12A7.12,7.12,0,0,1,45.21,22.66ZM34.39,57.17,10.83,33.61l-1.34,1L33.12,58.24ZM18.15,34.51,42.06,58.39l1.19-1.17L19.36,33.32Zm8.92.08L50.79,58.33l1.37-1.23L28.26,33.19Z"></path><path class="cls-1" d="M2.58,72.69V70.37H57.67v2.32Z"></path><path class="cls-1" d="M2.58,4.92V2.6h9.9V4.92Z"></path><path class="cls-1" d="M57.63,5H47.78V2.63h9.85Z"></path><path d="M34.39,57.17l-1.27,1.07L9.49,34.6l1.34-1Z"></path><path d="M18.15,34.51l1.21-1.19,23.89,23.9-1.19,1.17Z"></path><path d="M27.07,34.59l1.19-1.4L52.16,57.1l-1.37,1.23Z"></path></g></g></g></svg>