<svg xmlns="http://www.w3.org/2000/svg" viewBox="0 0 58.88 86.44"><defs><style>.cls-1{fill:#fff;}</style></defs><g id="Layer_2" data-name="Layer 2"><g id="Layer_1-2" data-name="Layer 1"><g id="KuU5MV"><path d="M13.79,25.28c.24-1.84.48-3.1.54-4.37,0-.7-.33-1.41-.34-2.12a48.2,48.2,0,0,1,.08-7C14.32,9.92,15.8,9,17.74,9.12c1.74.15,2.7-.19,3.21-2.2.8-3.19,3.72-4.62,6.5-6.58V8.89h4.32a62.36,62.36,0,0,1,2.12-6.8A3.69,3.69,0,0,1,36.39,0c.88,0,2.08,1.1,2.58,2a10.58,10.58,0,0,1,1.43,4.7c0,2.05.73,2.57,2.55,2.36a21.11,21.11,0,0,1,2.4,0V.33c3,2,5.93,3.59,6.74,7.07.34,1.46,1,1.68,2.3,1.68,3.91,0,5.19,1.81,4.12,5.61A3.5,3.5,0,0,0,58.62,16a5.47,5.47,0,0,1,.26,1c-.12,2.6-.29,5.19-.43,7.78a3.35,3.35,0,0,0,0,1c1,4,.17,5.23-4.12,6a54.9,54.9,0,0,0,.47,6.78c1.71,9-3.21,15.69-10.24,19.61a3.34,3.34,0,0,0-1.93,3.47c.06,12,0,10.47,0,22.47,0,.74-.06,1.49-.1,2.31H30.32c0-.76-.11-1.49-.11-2.23,0-12,0-10.47,0-22.46,0-1.71-.74-2.52-2-3.51a50.34,50.34,0,0,1-7.66-7C17.83,48,17.43,44,17.91,39.78c.28-2.48.41-5,.63-7.73-1.9,1.28-2.16,3.1-2.27,4.83-.17,2.63-.11,5.29-.08,7.94a10.49,10.49,0,0,1-3.27,8.27A10.47,10.47,0,0,1,9.57,55,39,39,0,0,1,5.15,56.2C2.72,56.81.79,55.94.2,54c-.69-2.26.43-4.07,3-4.85a14.38,14.38,0,0,1,2-.48C8.3,48.15,9,47.36,9.1,44.12c.11-3.41,0-6.83.33-10.21A11.59,11.59,0,0,1,13.79,25.28ZM40.12,84.06c.05-1,.11-1.67.11-2.35,0-10.39.12-7.26-.07-17.64-.08-4,.6-6.76,4.62-9.11,7.82-4.58,10.06-13.73,6.71-23.28H48.05c-1,3.83-2.43,5.33-5,5.38S39,35.62,37.88,31.73h-3c-1,3.74-2.29,5.19-4.83,5.3S26.26,36,24.73,31.69H21c-.21,3.28-.37,6.46-.61,9.65C20,46.1,22,49.91,25.38,53a41.1,41.1,0,0,0,5.12,3.58c1.51,1,2.44,2.19,2.1,4.15a16.47,16.47,0,0,0,0,2.72c0,10.67,0,7.8,0,18.47,0,1.58.35,2.31,2.09,2.17S38.14,84.06,40.12,84.06ZM3,53.84l4.2-.7a6.73,6.73,0,0,0,5.66-4.37,20.1,20.1,0,0,0,.91-5.3c.19-2.7,0-5.44.27-8.12.53-4.48,2.75-6.27,7.23-6.27q16.32,0,32.63,0c1,0,2.62.4,2.6-1.24s-1.54-1.25-2.63-1.28c-.14,0-.28,0-.42,0H19.3c-3.58,0-5.48,1-6.44,4.41a32,32,0,0,0-1.27,10c.44,8.44-1.16,9.5-7.46,10.62a1.52,1.52,0,0,1-.2.06C2.1,51.81,2.31,52.73,3,53.84ZM36.35,14H53.69a5,5,0,0,0,1.65-.07c.46-.17,1.15-.73,1.1-1a2.2,2.2,0,0,0-1-1.35,3.83,3.83,0,0,0-1.64-.1H19.1a4.47,4.47,0,0,0-1.84.18,1.72,1.72,0,0,0-.78,1.27c0,.32.5.83.88,1A5.06,5.06,0,0,0,19,14Zm.2,2.52H19.22a4.9,4.9,0,0,0-1.85.14,1.72,1.72,0,0,0-.88,1.21c0,.32.44.87.81,1a4.18,4.18,0,0,0,1.63.17H54a3.25,3.25,0,0,0,1.44-.12c.43-.21,1-.72,1-1.11a1.74,1.74,0,0,0-.91-1.21,4,4,0,0,0-1.64-.11Zm-.08,5c-4.46,0-8.91,0-13.37,0-1.74,0-3.49-.09-5.22.06-.51.05-1,.75-1.45,1.16A7.15,7.15,0,0,0,17.76,24a3.11,3.11,0,0,0,1.44.09q17.24,0,34.47,0a4.85,4.85,0,0,0,1.84-.2,1.62,1.62,0,0,0,.92-1.16,1.75,1.75,0,0,0-1-1.15,4.23,4.23,0,0,0-1.64-.11Q45.14,21.49,36.47,21.51Zm2.1-12.38-1.7-6.35-.64,0a16.13,16.13,0,0,0-1.17,2.8c-.21,1-.44,2.34,0,3.11C35.39,9.23,36.93,9,38.57,9.13Zm-6,23.21L32,31.8H27.5c.26,1.69,1,2.93,2.52,2.64C31,34.27,31.71,33.08,32.54,32.34Zm12.76-.6H40.64c.18,1.63.76,2.82,2.37,2.76S45.27,33.36,45.3,31.74Zm3.2-26-.41.1V8.93h2ZM22.76,9l2-.13V5.82l-.45-.09Z"></path><path class="cls-1" d="M40.12,84.06c-2,0-3.73-.12-5.45,0s-2.1-.59-2.09-2.17c.05-10.67,0-7.8,0-18.47a16.47,16.47,0,0,1,0-2.72c.34-2-.59-3.15-2.1-4.15A41.1,41.1,0,0,1,25.38,53c-3.4-3.09-5.34-6.9-5-11.66.24-3.19.4-6.37.61-9.65h3.71C26.26,36,27.46,37.16,30.1,37s3.88-1.56,4.83-5.3h3c1.11,3.89,2.56,5.38,5.18,5.33s4-1.55,5-5.38h3.44c3.35,9.55,1.11,18.7-6.71,23.28-4,2.35-4.7,5.07-4.62,9.11.19,10.38.07,7.25.07,17.64C40.23,82.39,40.17,83.08,40.12,84.06Zm-6.54-31.4a48.33,48.33,0,0,1-4.48-3.44,53,53,0,0,1-3.65-4.31l-2.15.87c2.3,4.09,4.93,7.38,9.51,8.79ZM22.44,43.2l2.34-.86c-.12-1.55-.23-3-.35-4.46H22Z"></path><path class="cls-1" d="M3,53.84c-.64-1.11-.85-2,1-2.17a1.52,1.52,0,0,0,.2-.06c6.3-1.12,7.9-2.18,7.46-10.62a32,32,0,0,1,1.27-10c1-3.45,2.86-4.4,6.44-4.41H53.4c.14,0,.28,0,.42,0,1.09,0,2.6-.24,2.63,1.28s-1.56,1.24-2.6,1.24q-16.31,0-32.63,0c-4.48,0-6.7,1.79-7.23,6.27-.31,2.68-.08,5.42-.27,8.12a20.1,20.1,0,0,1-.91,5.3,6.73,6.73,0,0,1-5.66,4.37Z"></path><path class="cls-1" d="M36.35,14H19a5.06,5.06,0,0,1-1.66-.1c-.38-.14-.9-.65-.88-1a1.72,1.72,0,0,1,.78-1.27,4.47,4.47,0,0,1,1.84-.18H53.77a3.83,3.83,0,0,1,1.64.1,2.2,2.2,0,0,1,1,1.35c.05.27-.64.83-1.1,1a5,5,0,0,1-1.65.07Z"></path><path class="cls-1" d="M36.55,16.51H53.88a4,4,0,0,1,1.64.11,1.74,1.74,0,0,1,.91,1.21c0,.39-.55.9-1,1.11a3.25,3.25,0,0,1-1.44.12H18.93a4.18,4.18,0,0,1-1.63-.17c-.37-.16-.85-.71-.81-1a1.72,1.72,0,0,1,.88-1.21,4.9,4.9,0,0,1,1.85-.14Z"></path><path class="cls-1" d="M36.47,21.51q8.67,0,17.34,0a4.23,4.23,0,0,1,1.64.11,1.75,1.75,0,0,1,1,1.15,1.62,1.62,0,0,1-.92,1.16,4.85,4.85,0,0,1-1.84.2q-17.23,0-34.47,0A3.11,3.11,0,0,1,17.76,24a7.15,7.15,0,0,1-1.33-1.31c.48-.41.94-1.11,1.45-1.16,1.73-.15,3.48-.06,5.22-.06C27.56,21.5,32,21.51,36.47,21.51Z"></path><path class="cls-1" d="M38.57,9.13c-1.64-.14-3.18.1-3.48-.4-.47-.77-.24-2.09,0-3.11a16.13,16.13,0,0,1,1.17-2.8l.64,0Z"></path><path class="cls-1" d="M48.5,5.7l1.64,3.23h-2V5.8Z"></path><path class="cls-1" d="M22.76,9l1.57-3.29.45.09V8.89Z"></path><path d="M33.58,52.66l-.77,1.91c-4.58-1.41-7.21-4.7-9.51-8.79l2.15-.87a53,53,0,0,0,3.65,4.31A48.33,48.33,0,0,0,33.58,52.66Z"></path><path d="M22.44,43.2,22,37.88h2.47c.12,1.49.23,2.91.35,4.46Z"></path></g></g></g></svg>