<svg width="91" height="91" viewBox="0 0 91 91" fill="none" xmlns="http://www.w3.org/2000/svg">
<path d="M88.0013 28.1443L86.9153 25.7214C76.0995 30.5554 63.8081 30.9028 52.7366 26.6873C41.665 22.4719 32.7172 14.0377 27.8553 3.23438L25.4323 4.32135C30.2552 15.1389 30.5973 27.4264 26.3837 38.4955C22.17 49.5646 13.7437 58.5142 2.94824 63.3864L4.03528 65.8094C14.8528 60.9864 27.1402 60.6443 38.2094 64.8579C49.2785 69.0716 58.2282 77.4979 63.1003 88.2934L65.5233 87.2064C60.6878 76.3915 60.3386 64.1004 64.5524 53.0285C68.7662 41.9566 77.199 33.0077 88.0013 28.1443Z" fill="white" stroke="black" stroke-width="5" stroke-linecap="round" stroke-linejoin="round"/>
</svg>
