<svg width="30" height="30" viewBox="0 0 30 30" fill="none" xmlns="http://www.w3.org/2000/svg">
<path d="M14.8251 27.3735C14.8247 27.3735 14.8254 27.3735 14.8251 27.3735C12.6857 27.3734 10.5726 26.8013 8.71617 25.7192C5.91344 24.0851 3.91454 21.4576 3.08788 18.3204C2.26097 15.183 2.70543 11.9114 4.33922 9.1084C5.42845 7.24011 6.9962 5.69519 8.87315 4.64044C10.6919 3.61835 12.756 3.07812 14.8421 3.07812C16.9817 3.07812 19.0939 3.65021 20.9503 4.7326C23.7511 6.37161 25.7463 8.99896 26.5721 12.1327C27.3979 15.2664 26.9565 18.5358 25.3292 21.3386C24.2379 23.2109 22.6703 24.7562 20.7936 25.811C18.9752 26.8332 16.9111 27.3735 14.8251 27.3735Z" fill="white"/>
<path d="M14.8421 5.57812C11.5224 5.57809 8.29143 7.29306 6.49907 10.3673C3.81609 14.9703 5.37309 20.8763 9.97514 23.5593C14.5782 26.2426 20.4842 24.6862 23.1672 20.0833C25.8401 15.4793 24.2861 9.58133 19.6911 6.89233C18.1634 6.00165 16.4917 5.57812 14.8421 5.57812ZM14.8421 0.578125C17.4236 0.578125 19.9711 1.26791 22.2094 2.57285C22.2117 2.57422 22.2142 2.57559 22.2165 2.57697C23.919 3.5733 25.378 4.875 26.5528 6.44595C27.6861 7.9614 28.5059 9.66037 28.9895 11.4956C29.4732 13.3309 29.5971 15.2133 29.3577 17.0904C29.1097 19.0363 28.4816 20.8879 27.4913 22.5938C27.4898 22.5963 27.4883 22.5988 27.4869 22.6013C26.1738 24.8541 24.2828 26.7175 22.0185 27.9903C19.8266 29.2223 17.3389 29.8735 14.8243 29.8735C12.2432 29.8735 9.6956 29.1838 7.4572 27.8791C5.75078 26.8842 4.28874 25.5829 3.11137 24.011C1.97575 22.4949 1.15446 20.7947 0.670333 18.9575C0.186081 17.1203 0.0627895 15.236 0.303756 13.3571C0.553634 11.4089 1.18474 9.55588 2.17937 7.84946C3.4926 5.59686 5.38359 3.73373 7.64836 2.46106C9.84038 1.22922 12.3279 0.578125 14.8421 0.578125Z" fill="black"/>
</svg>
