<svg xmlns="http://www.w3.org/2000/svg" viewBox="0 0 59.9 73.7"><defs><style>.cls-1{fill:#fff;}</style></defs><g id="Layer_2" data-name="Layer 2"><g id="Layer_1-2" data-name="Layer 1"><g id="xPfECy"><path d="M14.81,73.7a2.08,2.08,0,0,1-1-2c0-5.11,0-10.22,0-15.33v-.88a12,12,0,0,1-6.05,1.38A7.68,7.68,0,0,1,.44,46.56a1.51,1.51,0,0,0,0-.94,5.11,5.11,0,0,1,.64-5.17A14.78,14.78,0,0,1,4.46,37a7,7,0,0,0,3.18-6.31,2.62,2.62,0,0,1,0-.28,6.65,6.65,0,0,0-1.28-4.7,9.81,9.81,0,0,1-.94-9.73,1.71,1.71,0,0,0,0-1.14A10.24,10.24,0,0,1,7.69,3.3C10.87,0,14.77-.77,19.12.73a1.69,1.69,0,0,0,1,0,13.56,13.56,0,0,1,11.6,1.37.8.8,0,0,0,1,0A13.75,13.75,0,0,1,53,9.49a1.58,1.58,0,0,0,.71.8,10.71,10.71,0,0,1-2.82,20.26l-.2.05v3.22h2.54c4,0,6.61,2.56,6.61,6.6V54.81c0,4.07-2.57,6.64-6.65,6.64H50.65v.78c0,3.14,0,6.28,0,9.43a2.12,2.12,0,0,1-1,2Zm2.09-46V70.61H47.55V27.72Zm33.75-.25c.3-.07.53-.12.76-.19a7.71,7.71,0,0,0,5.4-7.21A7.57,7.57,0,0,0,52,12.91a2.58,2.58,0,0,1-1.74-2A10.65,10.65,0,0,0,33.67,5.16c-1.24.91-1.59.88-2.87,0-3.16-2.12-6.52-2.81-10.15-1.32a2.48,2.48,0,0,1-2.19,0,7,7,0,0,0-4.83-.52A7.58,7.58,0,0,0,8.56,14.22a2.21,2.21,0,0,1,.06,2.17,7.37,7.37,0,0,0,1.45,9.08,2.11,2.11,0,0,1,.65,1.6c0,1.29,0,2.59,0,3.88a10.09,10.09,0,0,1-4.32,8.42A23.15,23.15,0,0,0,3.77,42a2.28,2.28,0,0,0-.23,3,2.07,2.07,0,0,1,0,2.17,4.5,4.5,0,0,0,2.13,6.13,7.2,7.2,0,0,0,4,.33,2.33,2.33,0,0,0,.28,0c2.79-.46,3.88-1.75,3.89-4.59V26.77c0-1.74.42-2.16,2.16-2.16H49.06a1.55,1.55,0,0,1,1.59,1.6C50.67,26.61,50.65,27,50.65,27.47Zm0,30.84a27,27,0,0,0,3.61-.05,3.53,3.53,0,0,0,1.74-1,3.14,3.14,0,0,0,.78-2.47q0-7.12,0-14.25a8.4,8.4,0,0,0-.07-1,3,3,0,0,0-2.59-2.6c-1.14-.1-2.29,0-3.46,0Z"></path><path class="cls-1" d="M16.9,27.72H47.55V70.61H16.9Zm9.16,19.86V40.82c0-2.32,0-4.65,0-7a1.51,1.51,0,0,0-1.45-1.57A1.54,1.54,0,0,0,23,33.8c0,.14,0,.29,0,.43V61.05a5.42,5.42,0,0,0,0,.57,1.53,1.53,0,1,0,3-.38C26.07,56.69,26.06,52.13,26.06,47.58Zm12.31,0V57c0,1.49,0,3,0,4.46A1.44,1.44,0,0,0,39.91,63a1.51,1.51,0,0,0,1.52-1.49c0-.22,0-.43,0-.65V34.92c0-.43,0-.86,0-1.29a1.54,1.54,0,0,0-1.31-1.34,1.52,1.52,0,0,0-1.62.94,3.2,3.2,0,0,0-.11,1Q38.36,40.91,38.37,47.6Z"></path><path class="cls-1" d="M50.65,27.47c0-.45,0-.86,0-1.26a1.55,1.55,0,0,0-1.59-1.6H16c-1.74,0-2.16.42-2.16,2.16V49c0,2.84-1.1,4.13-3.89,4.59a2.33,2.33,0,0,1-.28,0,7.2,7.2,0,0,1-3.95-.33,4.5,4.5,0,0,1-2.13-6.13,2.07,2.07,0,0,0,0-2.17,2.28,2.28,0,0,1,.23-3,23.15,23.15,0,0,1,2.62-2.62A10.09,10.09,0,0,0,10.71,31c0-1.29,0-2.59,0-3.88a2.11,2.11,0,0,0-.65-1.6,7.37,7.37,0,0,1-1.45-9.08,2.21,2.21,0,0,0-.06-2.17A7.58,7.58,0,0,1,13.63,3.29a7,7,0,0,1,4.83.52,2.48,2.48,0,0,0,2.19,0c3.63-1.49,7-.8,10.15,1.32,1.28.87,1.63.9,2.87,0a10.65,10.65,0,0,1,16.55,5.78,2.58,2.58,0,0,0,1.74,2,7.57,7.57,0,0,1,4.85,7.16,7.71,7.71,0,0,1-5.4,7.21C51.18,27.35,51,27.4,50.65,27.47Z"></path><path d="M26.06,47.58c0,4.55,0,9.11,0,13.66a1.53,1.53,0,1,1-3,.38,5.42,5.42,0,0,1,0-.57V34.23c0-.14,0-.29,0-.43a1.54,1.54,0,0,1,1.59-1.52,1.51,1.51,0,0,1,1.45,1.57c0,2.32,0,4.65,0,7Z"></path><path d="M38.37,47.6q0-6.69,0-13.38a3.2,3.2,0,0,1,.11-1,1.52,1.52,0,0,1,1.62-.94,1.54,1.54,0,0,1,1.31,1.34c0,.43,0,.86,0,1.29v25.9c0,.22,0,.43,0,.65A1.51,1.51,0,0,1,39.91,63a1.44,1.44,0,0,1-1.52-1.48c0-1.49,0-3,0-4.46Z"></path></g></g></g></svg>