<svg xmlns="http://www.w3.org/2000/svg" viewBox="0 0 42.49 93.91"><defs><style>.cls-1{fill:#9ef2ea;}</style></defs><g id="Layer_2" data-name="Layer 2"><g id="Layer_1-2" data-name="Layer 1"><g id="ZPL2BK"><path d="M2.35,72.56c-3.13-3.84-3.13-10,.13-14.24C-.78,55-.89,46.76,2.53,43.65c-3-4-3.33-13.33-.56-17.71C3.57,23.4,5,20.75,6.85,18.38c3.56-4.61,5.63-9.56,4.74-15.5C11.29.9,12.17,0,14.31,0c4.61.1,9.21.09,13.82,0,1.86,0,3,.52,2.68,2.52C29.72,8.88,32.34,14,36,18.79c.42.55.67,1.25,1.14,1.76,5,5.46,5.77,12.06,5,19C42,41,41,42.34,40.25,43.92c2.87,3.94,2.88,10.42-.24,14.28,3.11,4.16,3.15,10.85,0,14.52,3.93,4.54,2,10,1.92,15-.07,3.39-3.79,6-7.53,6.07q-13.06.12-26.14,0c-4.57,0-7.72-3.27-8-8.07a56.14,56.14,0,0,1,0-8.7C.46,75.63,1.54,74.28,2.35,72.56Zm27.56,18.3c.86,0,2.16,0,3.45,0,4-.08,5.81-1.91,5.87-5.91,0-2.2,0-4.4,0-6.6,0-2.51-1.39-3.91-3.89-3.92q-14.1-.06-28.2,0a3.59,3.59,0,0,0-3.84,3.71,60.54,60.54,0,0,0,0,7.5c.2,3.29,2.12,5.06,5.41,5.2,1.48.06,3,0,4,0l1.59-3.09a15.14,15.14,0,0,1,2.21,1.83c1.48,1.76,8,1.84,9.46.09a23.71,23.71,0,0,1,2.16-2ZM3.3,30.69c0,2.92-.41,5.78.18,8.42A5,5,0,0,0,7.26,42q14.09.39,28.18,0c1.27,0,3.35-1.62,3.57-2.78.53-2.74.17-5.66.17-8.57Zm18,26c4.49,0,9,0,13.49,0,3,0,4.38-1.36,4.44-4.29q0-1.5,0-3c-.07-2.77-1.46-4.25-4.18-4.25q-13.78,0-27.58,0c-2.67,0-4.13,1.56-4.22,4.29,0,.9,0,1.8,0,2.7.07,3.12,1.46,4.53,4.56,4.55C12.3,56.75,16.8,56.73,21.3,56.73Zm-.21,14.58c4.7,0,9.4,0,14.09,0,2.63,0,4-1.42,4-4.09,0-1.1,0-2.2,0-3.3-.08-2.67-1.58-4.2-4.29-4.21q-13.65,0-27.28,0c-2.81,0-4.33,1.6-4.42,4.45,0,.8,0,1.6,0,2.4,0,3.38,1.35,4.74,4.66,4.76C12.3,71.34,16.7,71.32,21.09,71.31ZM4.71,27.36H37.87c-3-4.77-5.79-9.16-8.66-13.47A3.08,3.08,0,0,0,27,12.76c-3.89-.11-7.79-.09-11.69,0a2.5,2.5,0,0,0-1.78.78C10.63,18,7.78,22.54,4.71,27.36ZM14.8,9.47H27.69V3.27H14.8Z"></path><path class="cls-1" d="M29.91,90.86l-1.78-3.13a23.71,23.71,0,0,0-2.16,2c-1.49,1.75-8,1.67-9.46-.09a15.14,15.14,0,0,0-2.21-1.83l-1.59,3.09c-1,0-2.52,0-4,0-3.29-.14-5.21-1.91-5.41-5.2a60.54,60.54,0,0,1,0-7.5,3.59,3.59,0,0,1,3.84-3.71q14.1-.07,28.2,0c2.5,0,3.84,1.41,3.89,3.92.05,2.2,0,4.4,0,6.6-.06,4-1.88,5.83-5.87,5.91C32.07,90.88,30.77,90.86,29.91,90.86Z"></path><path class="cls-1" d="M3.3,30.69H39.18c0,2.91.36,5.83-.17,8.57-.22,1.16-2.3,2.75-3.57,2.78q-14.08.36-28.18,0a5,5,0,0,1-3.78-2.92C2.89,36.47,3.3,33.61,3.3,30.69Z"></path><path class="cls-1" d="M21.3,56.73c-4.5,0-9,0-13.5,0-3.1,0-4.49-1.43-4.56-4.55,0-.9,0-1.8,0-2.7.09-2.73,1.55-4.28,4.22-4.29q13.79,0,27.58,0c2.72,0,4.11,1.48,4.18,4.25q0,1.5,0,3c-.06,2.93-1.43,4.27-4.44,4.29C30.29,56.75,25.79,56.73,21.3,56.73Z"></path><path class="cls-1" d="M21.09,71.32c-4.39,0-8.79,0-13.19,0-3.31,0-4.61-1.38-4.66-4.76,0-.8,0-1.6,0-2.4.09-2.85,1.61-4.44,4.42-4.45q13.64,0,27.28,0c2.71,0,4.21,1.54,4.29,4.21,0,1.1,0,2.2,0,3.3,0,2.67-1.42,4.06-4,4.09C30.49,71.35,25.79,71.31,21.09,71.32Z"></path><path class="cls-1" d="M4.71,27.36c3.07-4.82,5.92-9.36,8.86-13.84a2.5,2.5,0,0,1,1.78-.78c3.9-.07,7.8-.09,11.69,0a3.08,3.08,0,0,1,2.17,1.13c2.87,4.31,5.62,8.7,8.66,13.47Z"></path><path class="cls-1" d="M14.8,9.47V3.27H27.69v6.2Z"></path></g></g></g></svg>