<svg width="163" height="151" viewBox="0 0 163 151" fill="none" xmlns="http://www.w3.org/2000/svg">
<g clip-path="url(#clip0_141_21)">
<path d="M116.74 56.8201C113.818 50.5585 109.186 45.2497 103.379 41.5057C97.5712 37.7617 90.8239 35.7348 83.9145 35.6585C77.0051 35.5822 70.2147 37.4596 64.3259 41.0745C58.437 44.6894 53.6893 49.8945 50.6299 56.0901V75.6101L106.81 74.7801L116.74 56.7801" fill="#F9D94A"/>
<path d="M116.74 56.8201C113.818 50.5585 109.186 45.2497 103.379 41.5057C97.5712 37.7617 90.8239 35.7348 83.9145 35.6585C77.0051 35.5822 70.2147 37.4596 64.3259 41.0745C58.437 44.6894 53.6893 49.8945 50.6299 56.0901V75.6101L106.81 74.7801L116.74 56.7801" stroke="black" stroke-width="5" stroke-linejoin="round"/>
<path d="M81.8799 65.8194C87.1075 60.9611 93.6397 57.7347 100.675 56.5362C107.71 55.3377 114.942 56.2192 121.483 59.0725C128.025 61.9258 133.591 66.6268 137.498 72.5985C141.406 78.5703 143.485 85.5529 143.48 92.6894L109.82 113.999L64.6899 97.7494L81.8799 65.8194Z" fill="#F9D94A" stroke="black" stroke-width="5" stroke-linejoin="round"/>
<path d="M47.5701 74.7797L23.5901 9.42969" stroke="black" stroke-width="5" stroke-linejoin="round"/>
<path d="M19.3301 92.6916C19.489 83.0696 23.4228 73.8955 30.2834 67.1473C37.144 60.399 46.3818 56.6172 56.0051 56.6172C65.6283 56.6172 74.8661 60.399 81.7267 67.1473C88.5874 73.8955 92.5212 83.0696 92.6801 92.6916" fill="#F9D94A"/>
<path d="M19.3301 92.6916C19.489 83.0696 23.4228 73.8955 30.2834 67.1473C37.144 60.399 46.3818 56.6172 56.0051 56.6172C65.6283 56.6172 74.8661 60.399 81.7267 67.1473C88.5874 73.8955 92.5212 83.0696 92.6801 92.6916" stroke="black" stroke-width="5" stroke-linejoin="round"/>
<path d="M73.9101 92.6891C73.9101 90.3384 73.4471 88.0108 72.5476 85.839C71.648 83.6673 70.3295 81.694 68.6673 80.0319C67.0052 78.3697 65.0319 77.0512 62.8601 76.1516C60.6884 75.2521 58.3608 74.7891 56.0101 74.7891C53.6594 74.7891 51.3318 75.2521 49.1601 76.1516C46.9883 77.0512 45.0151 78.3697 43.3529 80.0319C41.6907 81.694 40.3722 83.6673 39.4727 85.839C38.5731 88.0108 38.1101 90.3384 38.1101 92.6891" fill="#F9D94A"/>
<path d="M73.9101 92.6891C73.9101 90.3384 73.4471 88.0108 72.5476 85.839C71.648 83.6673 70.3295 81.694 68.6673 80.0319C67.0052 78.3697 65.0319 77.0512 62.8601 76.1516C60.6884 75.2521 58.3608 74.7891 56.0101 74.7891C53.6594 74.7891 51.3318 75.2521 49.1601 76.1516C46.9883 77.0512 45.0151 78.3697 43.3529 80.0319C41.6907 81.694 40.3722 83.6673 39.4727 85.839C38.5731 88.0108 38.1101 90.3384 38.1101 92.6891" stroke="black" stroke-width="5" stroke-linejoin="round"/>
<path d="M130 95.4689C128.755 90.5105 125.917 86.0979 121.921 82.9092C117.925 79.7204 112.992 77.9318 107.881 77.8183C102.77 77.7047 97.763 79.2724 93.6294 82.2805C89.4957 85.2886 86.464 89.5707 85 94.4689" fill="#F9D94A"/>
<path d="M130 95.4689C128.755 90.5105 125.917 86.0979 121.921 82.9092C117.925 79.7204 112.992 77.9318 107.881 77.8183C102.77 77.7047 97.763 79.2724 93.6294 82.2805C89.4957 85.2886 86.464 89.5707 85 94.4689" stroke="black" stroke-width="5" stroke-linejoin="round"/>
<path d="M124.37 148.479H38.32C10.58 128.419 2.5 93.2188 2.5 93.2188H160.2C160.2 93.2188 152.12 128.419 124.37 148.479Z" fill="white" stroke="black" stroke-width="5" stroke-linejoin="round"/>
<path d="M78.26 63.6125L70.25 0.3125" stroke="black" stroke-width="5" stroke-linejoin="round"/>
<path d="M81.4701 105C81.5789 105.26 81.6561 105.532 81.7001 105.81C81.7001 106.81 81.7001 107.81 81.7001 108.87C81.6969 109.073 81.764 109.271 81.8901 109.43C83.5601 111.08 85.2001 112.77 86.9601 114.31C87.9021 114.982 88.9068 115.561 89.9601 116.04C90.2301 116.2 90.5101 116.32 90.7701 116.49C90.8632 116.569 90.9411 116.663 91.0001 116.77C90.8901 116.86 90.7901 116.99 90.6701 117.01C90.0701 117.1 89.4501 117.16 88.8401 117.24L87.8401 117.35V120.91H86.6501V118.81H84.0001V120.9H82.3701V118.81H79.7301V120.9H77.9301V118.82H75.2801V120.94C74.9472 120.964 74.613 120.964 74.2801 120.94C74.1901 120.94 74.0601 120.7 74.0601 120.57C74.0601 119.66 74.0601 118.75 74.0601 117.85C74.0601 117.48 73.9401 117.33 73.5701 117.3C72.8601 117.3 72.1501 117.16 71.4501 117.07C71.2384 117.033 71.0308 116.976 70.8301 116.9V116.75C71.0168 116.589 71.2176 116.445 71.4301 116.32C71.8878 116.05 72.362 115.81 72.8501 115.6C74.031 115.058 75.0969 114.294 75.9901 113.35C77.2701 112.07 78.5601 110.8 79.8301 109.5C80.0145 109.289 80.1204 109.02 80.1301 108.74C80.1301 107.74 80.1301 106.8 80.1301 105.83C80.1659 105.551 80.2399 105.279 80.3501 105.02L81.4701 105Z" fill="#D80027" stroke="black" stroke-width="3" stroke-miterlimit="10"/>
<path d="M79.14 134.52H76.54V131.34H75.63C74.75 131.34 73.88 131.34 73 131.34C72.71 131.34 72.61 131.44 72.61 131.74C72.61 132.5 72.61 133.26 72.61 134.02C72.61 134.18 72.61 134.33 72.61 134.52H70.78V133.2C70.78 132.06 70.78 130.93 70.78 129.8C70.78 129.4 70.65 129.21 70.23 129.18C69.09 129.08 67.94 128.96 66.8 128.8C66.5251 128.714 66.2652 128.586 66.03 128.42C66.1952 128.198 66.3904 127.999 66.61 127.83C67.55 127.32 68.5 126.83 69.46 126.37C70.6271 125.793 71.6258 124.925 72.36 123.85C72.6705 123.372 73.0981 122.981 73.6022 122.715C74.1063 122.449 74.6702 122.317 75.24 122.33C78.98 122.33 82.72 122.33 86.46 122.33C87.0211 122.311 87.577 122.442 88.0696 122.711C88.5622 122.981 88.9734 123.377 89.26 123.86C89.8737 124.822 90.7427 125.594 91.77 126.09C92.88 126.66 93.99 127.2 95.09 127.79C95.3357 127.976 95.5545 128.194 95.74 128.44C95.4788 128.602 95.196 128.727 94.9 128.81C93.78 128.97 92.66 129.09 91.53 129.18C91.1 129.18 90.98 129.39 90.99 129.79C90.99 131.18 90.99 132.58 90.99 133.97V134.52H89.38V132.2C89.38 131.2 89.48 131.36 88.53 131.35C87.58 131.34 86.78 131.35 85.9 131.35C85.57 131.35 85.45 131.44 85.46 131.79C85.46 132.69 85.46 133.6 85.46 134.53H83.06C83.06 133.95 83.06 133.38 83.06 132.8C83.06 132.22 83.18 131.73 82.94 131.46C82.7 131.19 82.09 131.37 81.64 131.36H80.52C80.08 131.36 79.52 131.23 79.27 131.46C79.02 131.69 79.16 132.31 79.15 132.75C79.14 133.19 79.14 133.89 79.14 134.52Z" fill="#D80027" stroke="black" stroke-width="3" stroke-miterlimit="10"/>
</g>
<defs>
<clipPath id="clip0_141_21">
<rect width="162.7" height="150.98" fill="white"/>
</clipPath>
</defs>
</svg>
