<svg width="122" height="113" viewBox="0 0 122 113" fill="none" xmlns="http://www.w3.org/2000/svg">
<g clip-path="url(#clip0_141_2)">
<path d="M50.49 90.1275L66.34 74.2775C68.6176 72.0599 70.2602 69.2731 71.0972 66.2064C71.9342 63.1396 71.9352 59.9048 71.1 56.8375L117.1 14.0275C117.737 13.4103 118.244 12.6714 118.59 11.8545C118.936 11.0377 119.114 10.1596 119.114 9.27254C119.114 8.38545 118.936 7.5074 118.59 6.69056C118.244 5.87372 117.737 5.13475 117.1 4.51754C116.482 3.88161 115.743 3.37608 114.926 3.03088C114.109 2.68568 113.232 2.50781 112.345 2.50781C111.458 2.50781 110.581 2.68568 109.764 3.03088C108.947 3.37608 108.208 3.88161 107.59 4.51754L64.78 50.5175C61.7138 49.6789 58.4788 49.6772 55.4118 50.5126C52.3447 51.3479 49.5574 52.9899 47.34 55.2675L31.46 71.1075" fill="white"/>
<path d="M50.49 90.1275L66.34 74.2775C68.6176 72.0599 70.2602 69.2731 71.0972 66.2064C71.9342 63.1396 71.9352 59.9048 71.1 56.8375L117.1 14.0275C117.737 13.4103 118.244 12.6714 118.59 11.8545C118.936 11.0377 119.114 10.1596 119.114 9.27254C119.114 8.38545 118.936 7.5074 118.59 6.69056C118.244 5.87372 117.737 5.13475 117.1 4.51754C116.482 3.88161 115.743 3.37608 114.926 3.03088C114.109 2.68568 113.232 2.50781 112.345 2.50781C111.458 2.50781 110.581 2.68568 109.764 3.03088C108.947 3.37608 108.208 3.88161 107.59 4.51754L64.78 50.5175C61.7138 49.6789 58.4788 49.6772 55.4118 50.5126C52.3447 51.3479 49.5574 52.9899 47.34 55.2675L31.46 71.1075" stroke="black" stroke-width="5" stroke-linejoin="round"/>
<path d="M37.8 77.4537L53.66 61.5938" stroke="black" stroke-width="5" stroke-linejoin="round"/>
<path d="M44.1399 83.7897L59.9999 67.9297" stroke="black" stroke-width="5" stroke-linejoin="round"/>
<path d="M74.2599 103.401C73.2458 103.403 72.2363 103.265 71.2599 102.991C69.52 102.511 28.3299 90.8308 4.44995 55.9108C2.77245 53.4509 2.14085 50.4254 2.69408 47.4998C3.24731 44.5743 4.94006 41.9883 7.39995 40.3108C9.85983 38.6333 12.8853 38.0017 15.8109 38.5549C18.7365 39.1082 21.3225 40.8009 22.9999 43.2608C42.3099 71.4708 76.9199 81.2608 77.2699 81.3808C79.8726 82.1139 82.1225 83.7631 83.6051 86.0243C85.0877 88.2855 85.703 91.0064 85.3377 93.6855C84.9723 96.3646 83.651 98.8214 81.6171 100.603C79.5832 102.385 76.9738 103.371 74.2699 103.381L74.2599 103.401Z" fill="#EE82AA" stroke="black" stroke-width="5" stroke-linejoin="round"/>
<path d="M4.73999 37.7031L6.88999 40.6931" stroke="black" stroke-width="5" stroke-linejoin="round"/>
<path d="M21.71 49.7891L17.72 53.4091" stroke="black" stroke-width="5" stroke-linejoin="round"/>
<path d="M32.01 61.0469L28.51 64.9469" stroke="black" stroke-width="5" stroke-linejoin="round"/>
<path d="M44.0901 70.6094L41.0801 74.7894" stroke="black" stroke-width="5" stroke-linejoin="round"/>
<path d="M57.1799 78.8516L54.6499 83.3016" stroke="black" stroke-width="5" stroke-linejoin="round"/>
<path d="M69.8099 84.4766L67.6899 89.1466" stroke="black" stroke-width="5" stroke-linejoin="round"/>
<path d="M115.9 73.1406C116.97 72.4106 118.04 71.6606 119.09 70.8906L115.9 73.1406Z" fill="white"/>
<path d="M115.9 73.1406C116.97 72.4106 118.04 71.6606 119.09 70.8906" stroke="black" stroke-width="5" stroke-linejoin="round"/>
<path d="M16 101.148C16 101.148 17.69 101.148 20.71 101.148H16Z" fill="white"/>
<path d="M16 101.148C16 101.148 17.69 101.148 20.71 101.148" stroke="black" stroke-width="5" stroke-linejoin="round"/>
<path d="M32.29 110.119H31.5C28.5269 110.099 25.6835 108.899 23.5953 106.782C21.5071 104.666 20.3451 101.807 20.365 98.8338C20.3849 95.8607 21.585 93.0173 23.7014 90.9291C25.8177 88.8409 28.6769 87.6789 31.65 87.6988H32C35.62 87.6988 76.09 87.3288 102 71.4288C104.532 69.8936 107.569 69.4227 110.447 70.1189C113.325 70.8151 115.811 72.6219 117.362 75.1446C118.912 77.6674 119.402 80.7012 118.723 83.5836C118.045 86.466 116.253 88.9628 113.74 90.5288C83.05 109.389 38.93 110.119 32.29 110.119Z" fill="#EE82AA" stroke="black" stroke-width="5" stroke-linejoin="round"/>
<path d="M100.44 77.9375L102.65 82.8475" stroke="black" stroke-width="5" stroke-linejoin="round"/>
<path d="M86.26 84.0078L87.92 88.9778" stroke="black" stroke-width="5" stroke-linejoin="round"/>
<path d="M71.46 88.0469L72.56 93.0769" stroke="black" stroke-width="5" stroke-linejoin="round"/>
<path d="M56.3701 90.6875L56.9201 95.7775" stroke="black" stroke-width="5" stroke-linejoin="round"/>
<path d="M40.6201 92.1875V97.3375" stroke="black" stroke-width="5" stroke-linejoin="round"/>
</g>
<defs>
<clipPath id="clip0_141_2">
<rect width="121.59" height="112.62" fill="white"/>
</clipPath>
</defs>
</svg>
