<svg xmlns="http://www.w3.org/2000/svg" viewBox="0 0 69.54 73.22"><defs><style>.cls-1{stroke:#000;stroke-miterlimit:10;}</style></defs><g id="Layer_2" data-name="Layer 2"><g id="Layer_1-2" data-name="Layer 1"><g id="i5tHx5"><path class="cls-1" d="M.5,51a41.71,41.71,0,0,1,1.26-9.24A53.11,53.11,0,0,1,8.6,26.09,72.59,72.59,0,0,1,16,16.54a67.87,67.87,0,0,1,8.08-7.73A39.88,39.88,0,0,1,36.17,1.88,24,24,0,0,1,46,.58a22.76,22.76,0,0,1,9.39,2.95A32.27,32.27,0,0,1,63.1,9.62a22.31,22.31,0,0,1,4.5,6.73A18.41,18.41,0,0,1,69,24.74a27.85,27.85,0,0,1-2.66,9.8,66.88,66.88,0,0,1-6.8,11.35c-2.27,3.16-4.63,6.23-7.12,9.21a57.5,57.5,0,0,1-7.25,7.22A52.06,52.06,0,0,1,37,68a38.64,38.64,0,0,1-11.43,4.25A24.43,24.43,0,0,1,15,72.08,17.71,17.71,0,0,1,3.18,62.82a22.39,22.39,0,0,1-2.38-8C.65,53.59.6,52.3.5,51ZM26.17,69.22a2,2,0,0,0-.27-.16,15.3,15.3,0,0,1-3.39-2.29,8.65,8.65,0,0,1-2.57-3.91A1.41,1.41,0,1,1,22.63,62a5,5,0,0,0,1.12,2,12.58,12.58,0,0,0,5.66,3.45,1.81,1.81,0,0,1,.64.38.34.34,0,0,0,.43.08,40.78,40.78,0,0,0,6.44-3.14,50.59,50.59,0,0,0,7.67-5.66,53.43,53.43,0,0,0,5.79-6c2.87-3.47,5.61-7,8.17-10.74.35-.5.68-1,1-1.53L59,40.63a15.17,15.17,0,0,1-5.09-3.29,8.2,8.2,0,0,1-2.15-3.48A1.41,1.41,0,1,1,54.47,33a5.66,5.66,0,0,0,1,1.81,11.06,11.06,0,0,0,3.85,2.85c.59.29,1.2.53,1.81.79.08-.14.15-.23.2-.32.78-1.49,1.62-3,2.34-4.49a24.55,24.55,0,0,0,2.45-8.86A16.16,16.16,0,0,0,64.24,16a22,22,0,0,0-4.44-5.72A27.5,27.5,0,0,0,52.49,5.2,19.53,19.53,0,0,0,41.37,3.53a25.86,25.86,0,0,0-8.07,2.6A46.16,46.16,0,0,0,23,13.44c-.15.13-.13.23-.06.39a7.14,7.14,0,0,0,2.15,2.45,13.1,13.1,0,0,0,4.43,2.26,1.29,1.29,0,0,1,1,1.15,1.35,1.35,0,0,1-.65,1.4,1.54,1.54,0,0,1-1.29.11,12.76,12.76,0,0,1-3.13-1.29A12.42,12.42,0,0,1,20.8,15.8l-.14-.16c-1.21,1.33-2.42,2.61-3.58,3.94A62.82,62.82,0,0,0,9.51,30.05,48.59,48.59,0,0,0,4.08,44,31.06,31.06,0,0,0,3.6,55a18.93,18.93,0,0,0,2.51,7.32A15.38,15.38,0,0,0,18.39,69.8,23.08,23.08,0,0,0,24,69.61C24.71,69.5,25.4,69.36,26.17,69.22Z"></path><path class="cls-1" d="M8.51,40.38a1.33,1.33,0,0,1,1.29.87A7.13,7.13,0,0,0,13,45.09a13.87,13.87,0,0,0,3,1.52c.21.07.42.13.64.18a1.38,1.38,0,0,1,1.06,1,1.33,1.33,0,0,1-.34,1.36,1.29,1.29,0,0,1-1.23.42,9.61,9.61,0,0,1-2.75-1,14.63,14.63,0,0,1-4.47-3.25,8,8,0,0,1-1.76-3A1.41,1.41,0,0,1,8.51,40.38Z"></path><path class="cls-1" d="M54.54,16.69a1.37,1.37,0,0,1-1.63,1.38,8.62,8.62,0,0,1-2.51-.88,14.8,14.8,0,0,1-4.69-3.33,7.9,7.9,0,0,1-1.79-3.13,1.41,1.41,0,1,1,2.7-.8A6.36,6.36,0,0,0,48.93,13a14,14,0,0,0,3.89,2.13,3.05,3.05,0,0,0,.61.17A1.42,1.42,0,0,1,54.54,16.69Z"></path><path class="cls-1" d="M29.16,32a1.32,1.32,0,0,1,1.29.86,6.87,6.87,0,0,0,2.9,3.63,14.71,14.71,0,0,0,3.43,1.78,2.83,2.83,0,0,0,.5.13,1.41,1.41,0,0,1,1.13,1.64,1.36,1.36,0,0,1-1.54,1.14,8.48,8.48,0,0,1-2.5-.84,14.5,14.5,0,0,1-4.88-3.5,8,8,0,0,1-1.68-3A1.39,1.39,0,0,1,29.16,32Z"></path></g></g></g></svg>