<svg xmlns="http://www.w3.org/2000/svg" viewBox="0 0 74.6 75.83"><defs><style>.cls-1{fill:#ffc5ff;}</style></defs><g id="Layer_2" data-name="Layer 2"><g id="Layer_1-2" data-name="Layer 1"><g id="VbzhXG"><path d="M73.73,0c1.1.83,1.15,1.48.17,2.46C72.64,3.72,71.4,5,70.12,6.22a1.75,1.75,0,0,0-.59,1.42c0,9.67,0,19.35,0,29A1.88,1.88,0,0,1,69,38.09Q51.37,56.13,33.8,74.2a4.48,4.48,0,0,1-6.9,0Q14.24,61.56,1.57,48.89a4.46,4.46,0,0,1,0-6.79Q19.72,23.8,37.87,5.53A1.79,1.79,0,0,1,39,5.07q14,0,28,0a1.63,1.63,0,0,0,1.29-.54c1.5-1.52,3-3,4.55-4.52ZM65.08,7.57h-.91c-7.31,0-14.61.08-21.91-.05a6.1,6.1,0,0,0-4.92,2Q20.43,26.78,3.39,43.86C2.32,44.94,2.24,46,3.21,47L28.86,72.61a1.93,1.93,0,0,0,3,0c1-1,1.89-2,2.84-2.92Q50.58,53.36,66.44,37A1.8,1.8,0,0,0,67,35.91Q67,23,67,10.08a3.14,3.14,0,0,0-.06-.48l-5.95,6c1.6,3.58,1,6.57-1.67,8.53a6.31,6.31,0,0,1-9.17-8.26,6.12,6.12,0,0,1,3.18-2.75,6.39,6.39,0,0,1,5.79.59l5.8-5.8A1.47,1.47,0,0,0,65.08,7.57Zm-7.82,8a3.72,3.72,0,0,0-4.78,1.24A3.79,3.79,0,0,0,58,21.93a3.59,3.59,0,0,0,1-4.55l-2.25,2.26c-.69.69-1.46.76-2,.19s-.48-1.27.2-2S56.44,16.4,57.26,15.6Z"></path><path class="cls-1" d="M65.08,7.57a1.47,1.47,0,0,1-.16.29l-5.8,5.8a6.39,6.39,0,0,0-5.79-.59,6.12,6.12,0,0,0-3.18,2.75,6.31,6.31,0,0,0,9.17,8.26c2.7-2,3.27-4.95,1.67-8.53l5.95-6a3.14,3.14,0,0,1,.06.48Q67,23,67,35.91A1.8,1.8,0,0,1,66.44,37Q50.58,53.37,34.69,69.66c-.95,1-1.88,2-2.84,2.92a1.93,1.93,0,0,1-3,0L3.21,47c-1-1-.89-2,.18-3.1q17-17.13,34-34.3a6.1,6.1,0,0,1,4.92-2c7.3.13,14.6.05,21.91.05ZM30.64,60.22a20.27,20.27,0,0,0,.77-2.08c.91-3.66-1.67-6.48-5.39-5.93-.85.13-1.7.26-2.56.31a1.36,1.36,0,0,1-.89-.33c-1.37-1.32-2.7-2.68-4-4a5.47,5.47,0,0,1-.38-.47,3.84,3.84,0,0,1,4.2.71,1.23,1.23,0,0,0,1.89,0A1.16,1.16,0,0,0,24,46.57a10.41,10.41,0,0,0-2.82-1.52,6,6,0,0,0-5,.8c-.38-.36-.71-.72-1.09-1a1.23,1.23,0,0,0-1.62,0c-.48.43-.66,1.29-.16,1.65,1.12.82,1,1.68.37,2.67a.59.59,0,0,0-.06.14c-1.17,3.81,1.38,6.86,5.33,6.34.78-.1,1.57-.15,2.34-.31a1.15,1.15,0,0,1,1.17.38c1.27,1.31,2.57,2.59,3.86,3.88.15.15.28.31.47.53a3.94,3.94,0,0,1-4.16-.65,1.29,1.29,0,0,0-1.9,0A1.27,1.27,0,0,0,21,61.36,6.25,6.25,0,0,0,24.44,63,6.55,6.55,0,0,0,28.73,62c1.45,1.19,2,1.34,2.6.73S31.79,61.65,30.64,60.22Zm5.69-38.66a4.63,4.63,0,0,0-.92-1,1.15,1.15,0,0,0-1.47.3L20.7,34.08a1.26,1.26,0,1,0,1.79,1.77q6.6-6.59,13.18-13.19A5.3,5.3,0,0,0,36.33,21.56Zm3.91,33.71a8.3,8.3,0,0,0,1.2-.85Q47.86,48,54.27,41.61a5.36,5.36,0,0,0,.4-.43,1.25,1.25,0,0,0-1.77-1.75,4.17,4.17,0,0,0-.43.41L39.7,52.61c-.16.15-.4.3-.44.49a2.45,2.45,0,0,0,0,1.31C39.35,54.75,39.83,55,40.24,55.27Zm-8-17a8.89,8.89,0,0,0,1.2-.84q6.42-6.39,12.83-12.81a3,3,0,0,0,.44-.5,1.17,1.17,0,0,0-.14-1.55,1.25,1.25,0,0,0-1.62-.17,5.23,5.23,0,0,0-.49.45Q38,29.25,31.65,35.63c-.17.18-.43.35-.47.56a2.1,2.1,0,0,0,0,1.24C31.31,37.77,31.78,38,32.2,38.28Zm10.66,1.79a7.25,7.25,0,0,0,1.21-.79q4.26-4.22,8.48-8.46a3.06,3.06,0,0,0,.3-.32,1.23,1.23,0,0,0-.07-1.68,1.15,1.15,0,0,0-1.66-.1c-3.07,3-6.12,6.07-9.13,9.16a1.5,1.5,0,0,0-.14,1.29C42,39.51,42.45,39.72,42.86,40.07Zm-9,8.84c.34-.11.58-.11.7-.23a30.25,30.25,0,0,0,2.32-2.35,1,1,0,0,0-.25-1.46,1.12,1.12,0,0,0-1.55-.11A15.16,15.16,0,0,0,33,46.9a1.47,1.47,0,0,0,0,1.28C33.12,48.52,33.6,48.7,33.88,48.91ZM39.35,41a1.21,1.21,0,0,0-1.23,1.28,1.26,1.26,0,0,0,2.51,0A1.21,1.21,0,0,0,39.35,41Zm20-5a1.25,1.25,0,0,0-1.25-1.27A1.27,1.27,0,0,0,56.87,36a1.24,1.24,0,0,0,1.23,1.22A1.22,1.22,0,0,0,59.39,36ZM29.91,40.44a1.26,1.26,0,0,0-2.52-.07,1.28,1.28,0,0,0,1.23,1.31A1.26,1.26,0,0,0,29.91,40.44ZM39.39,16a1.22,1.22,0,0,0-1.27,1.24,1.26,1.26,0,0,0,2.51,0A1.22,1.22,0,0,0,39.39,16Z"></path><path class="cls-1" d="M57.26,15.6c-.82.8-1.59,1.53-2.34,2.27s-.75,1.39-.2,2,1.31.5,2-.19L59,17.38a3.59,3.59,0,0,1-1,4.55,3.79,3.79,0,0,1-5.49-5.09A3.72,3.72,0,0,1,57.26,15.6Z"></path><path d="M30.64,60.22c1.15,1.43,1.29,1.93.69,2.53s-1.15.46-2.6-.73a6.55,6.55,0,0,1-4.29.94A6.25,6.25,0,0,1,21,61.36a1.27,1.27,0,0,1-.23-1.94,1.29,1.29,0,0,1,1.9,0,3.94,3.94,0,0,0,4.16.65c-.19-.22-.32-.38-.47-.53-1.29-1.29-2.59-2.57-3.86-3.88a1.15,1.15,0,0,0-1.17-.38c-.77.16-1.56.21-2.34.31-3.95.52-6.5-2.53-5.33-6.34a.59.59,0,0,1,.06-.14c.58-1,.75-1.85-.37-2.67-.5-.36-.32-1.22.16-1.65a1.23,1.23,0,0,1,1.62,0c.38.31.71.67,1.09,1a6,6,0,0,1,5-.8A10.41,10.41,0,0,1,24,46.57a1.16,1.16,0,0,1,.21,1.81,1.23,1.23,0,0,1-1.89,0,3.84,3.84,0,0,0-4.2-.71,5.47,5.47,0,0,0,.38.47c1.34,1.34,2.67,2.7,4,4a1.36,1.36,0,0,0,.89.33c.86-.05,1.71-.18,2.56-.31,3.72-.55,6.3,2.27,5.39,5.93A20.27,20.27,0,0,1,30.64,60.22Zm-5.21-5.37,3.31,3.32a2.67,2.67,0,0,0,0-2.68C27.83,54.25,26.58,54.69,25.43,54.85Zm-6-1.84L16.2,49.76a2.68,2.68,0,0,0,.12,2.64C17.2,53.58,18.43,53.14,19.46,53Z"></path><path d="M36.33,21.56a5.3,5.3,0,0,1-.66,1.1Q29.1,29.28,22.49,35.85a1.26,1.26,0,1,1-1.79-1.77L33.94,20.84a1.15,1.15,0,0,1,1.47-.3A4.63,4.63,0,0,1,36.33,21.56Z"></path><path d="M40.24,55.27c-.41-.32-.89-.52-1-.86a2.45,2.45,0,0,1,0-1.31c0-.19.28-.34.44-.49L52.47,39.84a4.17,4.17,0,0,1,.43-.41,1.25,1.25,0,0,1,1.77,1.75,5.36,5.36,0,0,1-.4.43Q47.85,48,41.44,54.42A8.3,8.3,0,0,1,40.24,55.27Z"></path><path d="M32.2,38.28c-.42-.32-.89-.51-1-.85a2.1,2.1,0,0,1,0-1.24c0-.21.3-.38.47-.56Q38,29.25,44.42,22.86a5.23,5.23,0,0,1,.49-.45,1.25,1.25,0,0,1,1.62.17,1.17,1.17,0,0,1,.14,1.55,3,3,0,0,1-.44.5Q39.81,31,33.4,37.44A8.89,8.89,0,0,1,32.2,38.28Z"></path><path d="M42.86,40.07c-.41-.35-.88-.56-1-.9A1.5,1.5,0,0,1,42,37.88c3-3.09,6.06-6.13,9.13-9.16a1.15,1.15,0,0,1,1.66.1,1.23,1.23,0,0,1,.07,1.68,3.06,3.06,0,0,1-.3.32q-4.23,4.24-8.48,8.46A7.25,7.25,0,0,1,42.86,40.07Z"></path><path d="M33.88,48.91c-.28-.21-.76-.39-.91-.73a1.47,1.47,0,0,1,0-1.28,15.16,15.16,0,0,1,2.1-2.14,1.12,1.12,0,0,1,1.55.11,1,1,0,0,1,.25,1.46,30.25,30.25,0,0,1-2.32,2.35C34.46,48.8,34.22,48.8,33.88,48.91Z"></path><path d="M39.35,41a1.21,1.21,0,0,1,1.28,1.23,1.26,1.26,0,0,1-2.51,0A1.21,1.21,0,0,1,39.35,41Z"></path><path d="M59.39,36a1.22,1.22,0,0,1-1.29,1.22A1.24,1.24,0,0,1,56.87,36a1.27,1.27,0,0,1,1.27-1.27A1.25,1.25,0,0,1,59.39,36Z"></path><path d="M29.91,40.44a1.26,1.26,0,0,1-1.29,1.24,1.28,1.28,0,0,1-1.23-1.31,1.26,1.26,0,0,1,2.52.07Z"></path><path d="M39.39,16a1.22,1.22,0,0,1,1.24,1.27,1.26,1.26,0,0,1-2.51,0A1.22,1.22,0,0,1,39.39,16Z"></path><path class="cls-1" d="M25.43,54.85c1.15-.16,2.4-.6,3.27.64a2.67,2.67,0,0,1,0,2.68Z"></path><path class="cls-1" d="M19.46,53c-1,.13-2.26.57-3.14-.61a2.68,2.68,0,0,1-.12-2.64Z"></path></g></g></g></svg>