<svg xmlns="http://www.w3.org/2000/svg" viewBox="0 0 85.88 60.6"><defs><style>.cls-1{fill:#fff;}</style></defs><g id="Layer_2" data-name="Layer 2"><g id="Layer_1-2" data-name="Layer 1"><g id="s5SgTT"><path d="M85.87,16.77V20q0,16.69,0,33.4c0,4.64-2.21,7.13-6.27,7.13S73.27,58,73.17,53.41c0-.84-.09-1.67-.14-2.47-2.75-1-3.29.21-3.25,2.55.08,4.67-2.35,7.12-6.62,7-3.43-.11-5.73-2.44-6-6.16-.08-1.1,0-2.21,0-3.25-3.31-.79-3.31-.79-3.38,3.07,0,3.07-1.63,5.4-4.19,6.16-2.71.82-5.79,0-7.13-2.28a15.81,15.81,0,0,1-1.28-4.88c-.22-1.1.37-2.5-1.64-2.54s-1.77,1.36-1.8,2.62c-.07,4.59-1.94,7-5.6,7.25-4.44.27-6.75-2.07-7-7-.06-1.11.66-2.79-1.52-2.9-1.21-.06-2,.22-1.95,1.68,0,.77,0,1.55,0,2.33a5.81,5.81,0,0,1-5.44,5.82c-3.81.3-6.36-1.49-7-5A19.6,19.6,0,0,1,9,52.13Q9,38,9,23.9V20.82c-2.62-1.37-7.19,1.45-7.49-3.13l-.46-.38A2.91,2.91,0,0,1,1,12.9H1c1.18-2.49,1.18-2.49,7.92-3.26C8.92,5,9.29.22,15.65.05a5.21,5.21,0,0,1,5.22,3.19c.75,1.94.79,4.15,1.17,6.44H25c.08-1.22.14-2.47.24-3.72a6.26,6.26,0,0,1,12.51.21c0,1.1,0,2.21,0,3.54L41,9.86c0-5,.44-9.87,7-9.79,3.8,0,4.9,2,6.07,9.66L57,9.86c0-4.92.45-9.62,6.8-9.81A5.17,5.17,0,0,1,69,3.25c.75,1.94.8,4.14,1.2,6.43h3c0-1.09-.06-2.18,0-3.26.24-3.91,3-6.58,6.66-6.41s6,2.81,6,6.71c0,2.14,0,4.28,0,6.66M44.34,30.17c0,7.77,0,15.54,0,23.31,0,2.19.68,3.76,3.08,3.94,2,.14,3.32-1.39,3.33-4q0-23,0-46.09c0-2.77-1.09-4-3.27-4s-3.11,1.2-3.12,4.08Q44.33,18.78,44.34,30.17Zm32.13-.06c0,7.85,0,15.71,0,23.56,0,2.13.74,3.55,3,3.75,2,.17,3.26-1.29,3.39-3.69,0-.17,0-.35,0-.52q0-22.92,0-45.83c0-2.79-1.06-4.06-3.21-4.08s-3.14,1.15-3.15,4Q76.45,18.72,76.47,30.11Zm-57.83.32c0-7.68,0-15.36,0-23,0-2.81-1-4.07-3.2-4.09s-3.15,1.16-3.16,4q0,15.54,0,31.08c0,5.18,0,10.36,0,15.54,0,2.42,1.66,3.93,3.73,3.45s2.64-2,2.63-3.9C18.63,45.8,18.64,38.12,18.64,30.43Zm16,0c0-7.85,0-15.71,0-23.56,0-2.08-.88-3.53-3.18-3.56-2.13,0-3.17,1.14-3.18,3.23q0,23.82,0,47.64c0,2.09,1.17,3.29,3.22,3.21,2.38-.1,3.15-1.74,3.15-3.91C34.68,45.8,34.69,38.11,34.68,30.43Zm25.73-.3c0,7.77,0,15.54.05,23.31a4.53,4.53,0,0,0,1.14,3.17c.73.61,2.58.89,3.21.39a5.24,5.24,0,0,0,1.9-3.55c.13-15.37.1-30.73.08-46.1,0-2.78-1.08-4-3.24-4s-3.13,1.17-3.14,4Q60.4,18.74,60.41,30.13Zm-38.58,10h3.33c0-5.81,0-11.47,0-17.12,0-2.89-.14-3-3.32-2.32ZM37.71,20.62c0,5.86,0,11.46,0,17.06,0,2.86.22,3,3.22,2.23V20.54a16.66,16.66,0,0,0-1.66-.15C38.87,20.4,38.46,20.51,37.71,20.62ZM56.87,40.14V20.38l-3.12.16c0,5.91.1,11.59,0,17.25C53.65,40.16,54.58,40.7,56.87,40.14Zm16.07,0V20.35l-3.12.22c0,5.85.08,11.45,0,17C69.73,39.9,70.38,40.88,72.94,40.09ZM8.72,17V13.33H5V17ZM24.48,47.83l.83-.65a18.11,18.11,0,0,0-1-3.63c-.11-.24-2-.14-2.23.27a3.41,3.41,0,0,0-.25,2.85C22.26,47.34,23.57,47.47,24.48,47.83ZM25,13.4h-3.1V17H25ZM40.52,47.77l.8-.64a21.55,21.55,0,0,0-1-3.6c-.11-.23-1.95-.11-2.07.2A4.66,4.66,0,0,0,38,46.87C38.19,47.43,39.62,47.49,40.52,47.77Zm16.54-.58c-.79-1.21,1.54-3.5-1.54-3.8-1.91-.18-1.74,1.11-1.77,2.36C53.69,48.31,55.39,47.48,57.06,47.19ZM73,43.25c-1.16.25-2.63.18-2.88.71a3.88,3.88,0,0,0,.07,3.15c.28.5,1.76.35,2.81.51ZM41,17V13.39H37.89V17Zm16,0V13.41h-3V17Zm13,0h3V13.34H70Z"></path><path class="cls-1" d="M44.34,30.17q0-11.4,0-22.79c0-2.88.94-4.06,3.12-4.08s3.27,1.25,3.27,4q0,23,0,46.09c0,2.62-1.29,4.15-3.33,4-2.4-.18-3.09-1.75-3.08-3.94C44.36,45.71,44.34,37.94,44.34,30.17Z"></path><path class="cls-1" d="M76.47,30.11q0-11.4,0-22.79c0-2.87,1-4,3.15-4s3.2,1.29,3.21,4.08q0,22.92,0,45.83c0,.17,0,.35,0,.52-.13,2.4-1.42,3.86-3.39,3.69-2.25-.2-3-1.62-3-3.75C76.5,45.82,76.47,38,76.47,30.11Z"></path><path class="cls-1" d="M18.64,30.43c0,7.69,0,15.37,0,23,0,1.94-.61,3.43-2.63,3.9s-3.71-1-3.73-3.45c0-5.18,0-10.36,0-15.54q0-15.54,0-31.08c0-2.86,1-4,3.16-4s3.19,1.28,3.2,4.09C18.66,15.07,18.64,22.75,18.64,30.43Z"></path><path class="cls-1" d="M34.68,30.43c0,7.68,0,15.37,0,23,0,2.17-.77,3.81-3.15,3.91-2.05.08-3.22-1.12-3.22-3.21q0-23.82,0-47.64c0-2.09,1.05-3.25,3.18-3.23,2.3,0,3.18,1.48,3.18,3.56C34.7,14.72,34.68,22.58,34.68,30.43Z"></path><path class="cls-1" d="M60.41,30.13q0-11.39,0-22.79c0-2.87.94-4,3.14-4s3.23,1.27,3.24,4.05c0,15.37,0,30.73-.08,46.1A5.24,5.24,0,0,1,64.81,57c-.63.5-2.48.22-3.21-.39a4.53,4.53,0,0,1-1.14-3.17C60.37,45.67,60.41,37.9,60.41,30.13Z"></path><path class="cls-1" d="M8.72,17H5V13.33h3.7Z"></path><path class="cls-1" d="M24.48,47.83c-.91-.36-2.22-.49-2.61-1.16a3.41,3.41,0,0,1,.25-2.85c.22-.41,2.12-.51,2.23-.27a18.11,18.11,0,0,1,1,3.63Z"></path><path class="cls-1" d="M25,13.4V17h-3.1V13.4Z"></path><path class="cls-1" d="M40.52,47.77c-.9-.28-2.33-.34-2.56-.9a4.66,4.66,0,0,1,.27-3.14c.12-.31,2-.43,2.07-.2a21.55,21.55,0,0,1,1,3.6Z"></path><path class="cls-1" d="M57.06,47.19c-1.67.29-3.37,1.12-3.31-1.44,0-1.25-.14-2.54,1.77-2.36C58.6,43.69,56.27,46,57.06,47.19Z"></path><path class="cls-1" d="M73,43.25v4.37c-1-.16-2.53,0-2.81-.51A3.88,3.88,0,0,1,70.12,44C70.37,43.43,71.84,43.5,73,43.25Z"></path><path class="cls-1" d="M41,17H37.89V13.39H41Z"></path><path class="cls-1" d="M56.94,17h-3V13.41h3Z"></path><path class="cls-1" d="M70,17V13.34h3V17Z"></path></g></g></g></svg>