<svg xmlns="http://www.w3.org/2000/svg" viewBox="0 0 85.74 85.23"><defs><style>.cls-1{fill:#fff;}</style></defs><g id="Layer_2" data-name="Layer 2"><g id="Layer_1-2" data-name="Layer 1"><g id="GpcQGM"><path d="M5.53,44.17c.43-4.7,2.92-7.6,7.41-8.85.27-.08.53-.53.62-.86a9.21,9.21,0,0,1,6.5-6.69,8,8,0,0,1,4.68.09,1.88,1.88,0,0,0,1.15,0,6.18,6.18,0,0,1,6.62,1.46,1.64,1.64,0,0,0,1.47.37,4.79,4.79,0,0,0,3.6-2.33,8.82,8.82,0,0,1,13.84-.62l.59.62c.19-.35.35-.63.5-.92L64.7,2.29q.14-.29.3-.57A2.73,2.73,0,0,1,69.14.51c1.78,1,2.22,2.48,1.22,4.22l-13.79,24-.55,1c.64.43,1.09.53,1.7,0a8.55,8.55,0,0,1,6.9-2.12A1.24,1.24,0,0,0,65.5,27c2.68-4.19,5.32-8.39,8-12.59,1.25-2,2.49-4,3.8-6a2.48,2.48,0,0,1,3.49-.9c1.62.83,2.41,2.23,1.95,3.58a5.64,5.64,0,0,1-.82,1.45L70.15,29.09c-.2.28-.39.56-.5.73.7,1.09,1.34,2.11,2,3.09a1.41,1.41,0,0,0,.75.43,7.29,7.29,0,0,1,5.67,6.09,1.23,1.23,0,0,0,.46.73,8.27,8.27,0,0,1,3,3.6,1,1,0,0,0,.66.45c.55.06,1.11,0,1.67,0a1.77,1.77,0,0,1,1.81,1.67c0,4.89.4,9.81-1.15,14.59A34.73,34.73,0,0,1,74.23,75.84a35.94,35.94,0,0,1-16.74,8.88,24.19,24.19,0,0,1-4.8.48c-6.49,0-13,0-19.47,0a29,29,0,0,1-15.37-4.69A38.41,38.41,0,0,1,2.77,64.46,26.32,26.32,0,0,1,0,52.61c0-2,0-4.1,0-6.15,0-1.55.67-2.22,2.2-2.23H5.28C5.34,44.22,5.4,44.19,5.53,44.17ZM3.73,48c0,1.55,0,3,0,4.46A22.75,22.75,0,0,0,6.17,63a34.61,34.61,0,0,0,15.1,15.2,26.64,26.64,0,0,0,13.64,3.38c5.89-.15,11.79,0,17.69-.06A20.43,20.43,0,0,0,57,81a33.71,33.71,0,0,0,16.24-9.34c4.72-4.7,8-10.19,8.62-17,.19-2.2,0-4.44,0-6.67ZM32,34.16c-.23-.34-.43-.62-.61-.9-1.35-2.09-3-2.55-5.27-1.55a1.85,1.85,0,0,1-1.35,0,5.6,5.6,0,0,0-7.94,5c0,.61,0,1.22,0,1.9-1.83,0-3.58-.09-5.08,1a5.54,5.54,0,0,0-2.36,4.54H42.8c.4-1.26,1-1.82,1.87-1.81a2,2,0,0,1,2,1.78H77.56l.14-.26a8.94,8.94,0,0,0-2-1.29c-1-.31-1.3-.79-1.19-1.84a3.59,3.59,0,0,0-3.76-4c-.5,0-1,0-1.59.08-.45-2.74-1.65-4.9-4.59-5.54s-4.89,1-6.52,3.26c-2.33-1.94-4.81-1.78-7.44-.66-.39-3.53-1.77-6.21-5.53-6.41s-5.49,2.3-6.14,5.83A10.16,10.16,0,0,0,32,34.16Z"></path><path class="cls-1" d="M3.73,48H81.91c0,2.23.16,4.47,0,6.67-.6,6.79-3.9,12.28-8.62,17A33.71,33.71,0,0,1,57,81a20.43,20.43,0,0,1-4.42.49c-5.9.06-11.8-.09-17.69.06a26.64,26.64,0,0,1-13.64-3.38A34.61,34.61,0,0,1,6.17,63a22.75,22.75,0,0,1-2.44-10.5C3.74,51,3.73,49.54,3.73,48Z"></path><path class="cls-1" d="M32,34.16a10.16,10.16,0,0,1,7-.82c.65-3.53,2.33-6,6.14-5.83s5.14,2.88,5.53,6.41c2.63-1.12,5.11-1.28,7.44.66,1.63-2.3,3.57-3.89,6.52-3.26s4.14,2.8,4.59,5.54c.6,0,1.09-.08,1.59-.08a3.59,3.59,0,0,1,3.76,4c-.11,1,.15,1.53,1.19,1.84a8.94,8.94,0,0,1,2,1.29l-.14.26H46.64a2,2,0,0,0-2-1.78c-.92,0-1.47.55-1.87,1.81H9.33a5.54,5.54,0,0,1,2.36-4.54c1.5-1.11,3.25-1,5.08-1,0-.68,0-1.29,0-1.9a5.6,5.6,0,0,1,7.94-5,1.85,1.85,0,0,0,1.35,0c2.27-1,3.92-.54,5.27,1.55C31.52,33.54,31.72,33.82,32,34.16Zm-7.76,4.47a1.86,1.86,0,1,0-1.82-1.94A1.89,1.89,0,0,0,24.19,38.63Zm5.6,0a1.86,1.86,0,1,0,1.88,1.88A1.89,1.89,0,0,0,29.79,38.64Zm27.94,3.72a1.86,1.86,0,1,0-1.82-1.94A1.88,1.88,0,0,0,57.73,42.36Z"></path><path d="M24.19,38.63a1.86,1.86,0,1,1,1.89-1.77A1.88,1.88,0,0,1,24.19,38.63Z"></path><path d="M29.79,38.64A1.86,1.86,0,1,1,28,40.48,1.88,1.88,0,0,1,29.79,38.64Z"></path><path d="M57.73,42.36a1.86,1.86,0,1,1,1.89-1.78A1.89,1.89,0,0,1,57.73,42.36Z"></path></g></g></g></svg>