<svg xmlns="http://www.w3.org/2000/svg" viewBox="0 0 79.19 51.8"><defs><style>.cls-1{fill:#9ef2ea;}</style></defs><g id="Layer_2" data-name="Layer 2"><g id="Layer_1-2" data-name="Layer 1"><g id="sckFaI"><path d="M75.13,0c3.05,1.4,4.11,3.74,4.06,7.1-.15,11.21-.06,22.42-.06,33.62,0,5.38-1.45,6.94-6.74,7.29-.47,3.05-1.29,3.77-4.33,3.78H64.3c-2.86,0-3.7-.79-4-3.76H20c-.72,3.29-1.32,3.76-4.76,3.77h-3c-3.27,0-4.09-.69-4.57-3.88-.77,0-1.56,0-2.35,0A5.26,5.26,0,0,1,.15,43.17,15.77,15.77,0,0,1,.05,41C0,29.66.11,18.32,0,7,0,3.63,1.07,1.26,4.24,0ZM55.42,2.38H6.66c-3.39,0-4.31.93-4.31,4.37v34.4c0,3.56.88,4.45,4.43,4.45H55.42Zm2.5,0V45.6H72.26c3.75,0,4.55-.79,4.56-4.48V17.6c0-4,0-7.9,0-11.86,0-2.1-1.12-3.32-3.08-3.34C68.52,2.35,63.31,2.38,57.92,2.38ZM62.59,48c-.05,1.74,1.22,1.55,2.17,1.39,1.73-.28,3.87.93,5.68-1.39ZM18,48H10.28l-.26.55c.58.29,1.22.91,1.72.82C13.66,49,16,50.5,18,48Z"></path><path class="cls-1" d="M55.42,2.38V45.6H6.78c-3.55,0-4.43-.89-4.43-4.45V6.75c0-3.44.92-4.37,4.31-4.37H55.42ZM29.19,40.77c6.93,0,13.86,0,20.79,0,1.56,0,2.25-.39,2.24-2.1q-.09-15,0-30.08c0-1.44-.46-2-1.94-2q-20.88.06-41.77,0c-1.59,0-2,.57-2,2.08,0,10,.06,19.92,0,29.88,0,1.81.7,2.21,2.36,2.2C15.59,40.72,22.39,40.77,29.19,40.77Z"></path><path class="cls-1" d="M57.92,2.38c5.39,0,10.6,0,15.8,0,2,0,3,1.24,3.08,3.34,0,4,0,7.91,0,11.86V41.12c0,3.69-.81,4.48-4.56,4.48H57.92Zm9.47,12.67A47.19,47.19,0,0,0,72.71,15a2.25,2.25,0,0,0,1.55-1.46,52.18,52.18,0,0,0,.08-5.31c0-1.05-.46-1.56-1.55-1.55-3.62,0-7.23,0-10.84,0-1.23,0-1.62.57-1.6,1.69,0,1.64,0,3.29,0,4.93-.05,1.39.61,1.85,1.92,1.8C64,15,65.68,15.05,67.39,15.05Zm5.87,21.5a5.54,5.54,0,0,0-5.59-5.65,5.64,5.64,0,0,0-5.49,5.6A5.52,5.52,0,0,0,67.71,42,5.43,5.43,0,0,0,73.26,36.55Zm0-13.29a5.43,5.43,0,0,0-5.37-5.63,5.54,5.54,0,1,0-.18,11.08A5.45,5.45,0,0,0,73.25,23.26Z"></path><path class="cls-1" d="M62.59,48h7.85c-1.81,2.32-4,1.11-5.68,1.39C63.81,49.56,62.54,49.75,62.59,48Z"></path><path class="cls-1" d="M18,48c-1.94,2.49-4.3,1-6.22,1.37-.5.09-1.14-.53-1.72-.82l.26-.55Z"></path><path d="M29.19,40.77c-6.8,0-13.6-.05-20.39,0-1.66,0-2.37-.39-2.36-2.2.07-10,0-19.92,0-29.88,0-1.51.46-2.09,2.05-2.08q20.88.08,41.77,0c1.48,0,1.95.53,1.94,2q-.06,15,0,30.08c0,1.71-.68,2.12-2.24,2.1C43.05,40.73,36.12,40.77,29.19,40.77Zm20.54-2.38V9c-.4,0-.66-.08-.92-.08-12.8,0-25.61,0-38.41,0-1.46,0-1.74.57-1.73,1.87,0,8.58,0,17.15,0,25.73,0,.62.07,1.25.11,1.91Z"></path><path d="M67.39,15.05c-1.71,0-3.42-.05-5.13,0-1.31,0-2-.41-1.92-1.8.06-1.64,0-3.29,0-4.93,0-1.12.37-1.7,1.6-1.69,3.61,0,7.22,0,10.84,0,1.09,0,1.55.5,1.55,1.55a52.18,52.18,0,0,1-.08,5.31A2.25,2.25,0,0,1,72.71,15,47.19,47.19,0,0,1,67.39,15.05ZM71.8,12.6V8.91H65c-2.53,0-2.53,0-2.45,2.46,0,.38.08.76.14,1.23Z"></path><path d="M73.26,36.55A5.43,5.43,0,0,1,67.71,42a5.52,5.52,0,0,1-5.53-5.5,5.64,5.64,0,0,1,5.49-5.6A5.54,5.54,0,0,1,73.26,36.55ZM71,36.41a3.19,3.19,0,0,0-3.31-3.15,3.29,3.29,0,0,0-3.15,3.36,3.23,3.23,0,0,0,3.25,3A3.13,3.13,0,0,0,71,36.41Z"></path><path d="M73.25,23.26a5.45,5.45,0,0,1-5.55,5.45,5.54,5.54,0,1,1,.18-11.08A5.43,5.43,0,0,1,73.25,23.26Zm-5.59-3.35a3.37,3.37,0,0,0-3.17,3.38,3.4,3.4,0,0,0,3.23,3.13,3.26,3.26,0,1,0-.06-6.51Z"></path><path class="cls-1" d="M49.73,38.39H8.8c0-.66-.11-1.29-.11-1.91,0-8.58,0-17.15,0-25.73,0-1.3.27-1.87,1.73-1.87,12.8,0,25.61,0,38.41,0,.26,0,.52,0,.92.08Z"></path><path class="cls-1" d="M71.8,12.6H62.71c-.06-.47-.13-.85-.14-1.23-.08-2.45-.08-2.46,2.45-2.46H71.8Z"></path><path class="cls-1" d="M71,36.41a3.13,3.13,0,0,1-3.21,3.24,3.23,3.23,0,0,1-3.25-3,3.29,3.29,0,0,1,3.15-3.36A3.19,3.19,0,0,1,71,36.41Z"></path><path class="cls-1" d="M67.66,19.91a3.26,3.26,0,1,1,.06,6.51,3.4,3.4,0,0,1-3.23-3.13A3.37,3.37,0,0,1,67.66,19.91Z"></path></g></g></g></svg>