<svg xmlns="http://www.w3.org/2000/svg" viewBox="0 0 73.79 74"><defs><style>.cls-1{fill:#9ef2ea;}</style></defs><g id="Layer_2" data-name="Layer 2"><g id="Layer_1-2" data-name="Layer 1"><g id="siEsGH"><path d="M41.92,52.41a28.08,28.08,0,0,1-9.36,3.38,27,27,0,0,1-15.89-2.07A26.86,26.86,0,0,1,1.91,38c-3.5-9.6-2.17-18.66,3.88-26.9a26.35,26.35,0,0,1,12.7-9.36,27.19,27.19,0,0,1,24.39,2.5,26.85,26.85,0,0,1,13,20,27.57,27.57,0,0,1-3.32,17.44.65.65,0,0,0,.12.94q7.86,7.8,15.68,15.63c1.15,1.15,2.33,2.27,3.43,3.46A6.91,6.91,0,0,1,73.4,69a6.82,6.82,0,0,1-5.47,4.85,7,7,0,0,1-6.6-2.07c-3.15-3.13-6.28-6.28-9.43-9.42l-9.76-9.76Zm-13.77-.88a23.42,23.42,0,1,0-23.44-23A23.31,23.31,0,0,0,28.15,51.53ZM52.2,56.08l.18.19,7.28,7.27c1.67,1.67,3.34,3.35,5,5a2.56,2.56,0,0,0,3.28.37,2.6,2.6,0,0,0,.33-4.07c-3.52-3.52-7-7-10.55-10.54-.65-.65-1.27-1.31-2-2Zm.07-6.95-2.73-2.87L46,49.71l2.9,2.92Z"></path><path class="cls-1" d="M28.15,51.53A23.42,23.42,0,1,1,51.5,27.67,23.39,23.39,0,0,1,28.15,51.53ZM46.58,28.08c.22-10.41-9-18.82-18.44-18.4v4.54A14,14,0,0,1,42,28.08Z"></path><path class="cls-1" d="M52.2,56.08l3.57-3.81c.71.73,1.33,1.39,2,2,3.51,3.52,7,7,10.55,10.54A2.6,2.6,0,0,1,68,68.92a2.56,2.56,0,0,1-3.28-.37c-1.69-1.66-3.36-3.34-5-5l-7.28-7.27Z"></path><path class="cls-1" d="M52.27,49.13l-3.34,3.5L46,49.71l3.51-3.45Z"></path><path d="M46.58,28.08H42A14,14,0,0,0,28.14,14.22V9.68C37.54,9.26,46.8,17.67,46.58,28.08Z"></path></g></g></g></svg>