<svg width="18" height="18" viewBox="0 0 18 18" fill="none" xmlns="http://www.w3.org/2000/svg">
<g clip-path="url(#clip0_3238_19)">
<path d="M17.8048 16.8615L13.6324 12.6899C14.8418 11.2381 15.4448 9.37584 15.3161 7.49066C15.1874 5.60549 14.3368 3.8425 12.9414 2.56846C11.5459 1.29442 9.71304 0.607403 7.82396 0.650335C5.93489 0.693267 4.13509 1.46284 2.79896 2.79896C1.46284 4.13509 0.693267 5.93489 0.650335 7.82396C0.607403 9.71304 1.29442 11.5459 2.56846 12.9414C3.8425 14.3368 5.60549 15.1874 7.49066 15.3161C9.37584 15.4448 11.2381 14.8418 12.6899 13.6324L16.8615 17.8048C16.9235 17.8668 16.997 17.9159 17.0779 17.9494C17.1588 17.983 17.2456 18.0002 17.3332 18.0002C17.4208 18.0002 17.5075 17.983 17.5884 17.9494C17.6694 17.9159 17.7429 17.8668 17.8048 17.8048C17.8668 17.7429 17.9159 17.6694 17.9494 17.5884C17.983 17.5075 18.0002 17.4208 18.0002 17.3332C18.0002 17.2456 17.983 17.1588 17.9494 17.0779C17.9159 16.997 17.8668 16.9235 17.8048 16.8615ZM2.00016 8.00004C2.00016 6.81338 2.35205 5.65336 3.01132 4.66669C3.6706 3.68001 4.60765 2.91099 5.70399 2.45688C6.80032 2.00276 8.00669 1.88394 9.17056 2.11545C10.3344 2.34695 11.4035 2.91839 12.2426 3.75749C13.0817 4.59658 13.6531 5.66566 13.8846 6.82952C14.1161 7.99338 13.9973 9.19976 13.5432 10.2961C13.0891 11.3924 12.3201 12.3295 11.3334 12.9888C10.3467 13.648 9.1867 13.9999 8.00004 13.9999C6.40931 13.9982 4.88425 13.3655 3.75943 12.2406C2.63462 11.1158 2.00193 9.59076 2.00016 8.00004Z" fill="white"/>
</g>
<defs>
<clipPath id="clip0_3238_19">
<rect width="18" height="18" fill="white"/>
</clipPath>
</defs>
</svg>
