<svg xmlns="http://www.w3.org/2000/svg" viewBox="0 0 53.73 75.11"><defs><style>.cls-1{fill:#9ef2ea;}</style></defs><g id="Layer_2" data-name="Layer 2"><g id="Layer_1-2" data-name="Layer 1"><path class="cls-1" d="M50.51,12.69c0-5.61-3.91-9.41-9.5-9.47-4.35,0-8.7-.06-13,0a9.18,9.18,0,0,0-8.29,6c-.2.54-.62,1.25.09,1.57s.91-.52,1.13-1c1.65-3.76,4.6-5.43,8.62-5.42,3.29,0,6.59,0,9.88,0,6.66,0,10,3.31,10,10V55.32c0,5,0,10,0,15,0,.49-.15,1.27.53,1.31s.57-.73.62-1.21,0-1.06,0-1.59q0-13.94,0-27.89h0C50.53,31.55,50.58,22.12,50.51,12.69Z"></path><path class="cls-1" d="M8.32,24.64c-.77,1.14-.41,1.45.83,1.44,3.49,0,7,0,10.46,0s7.1,0,10.65,0c1.16,0,1.46-.32.78-1.35A13.11,13.11,0,0,0,19.8,18.45,13.09,13.09,0,0,0,8.32,24.64Z"></path><path class="cls-1" d="M5,29.77H34.19v-.52H5.07Z"></path><path d="M40.77,0Q34.85,0,28.91,0A12.68,12.68,0,0,0,18.48,5.19c-2.08,2.74-2.59,6.14-3.54,9.32-.31,1-.47,1.77-1.57,2.19a15.93,15.93,0,0,0-8.58,8.08,3.38,3.38,0,0,1-1.13,1.58A3.47,3.47,0,0,0,2,30.77c.67,2,2.32,2.27,4.17,2.26q13.44,0,26.89,0A9.2,9.2,0,0,0,34.63,33c2.67-.43,4-3.73,2.09-5.57a25.71,25.71,0,0,1-3.56-4.9,13.51,13.51,0,0,0-5.89-5.12,4.47,4.47,0,0,1-3.09-3.94c-.56-3.61.74-5.74,4.42-5.81,4.16-.08,8.31-.07,12.46,0,3.09,0,5,2,5.1,5.12,0,.79,0,1.58,0,2.37q0,27,0,54a15.3,15.3,0,0,0,.2,3,3.69,3.69,0,0,0,3.63,3A3.86,3.86,0,0,0,53.59,72a13.35,13.35,0,0,0,.12-2.37q0-13.94,0-27.89c0-9.56,0-19.12,0-28.69A12.81,12.81,0,0,0,40.77,0ZM34.19,29.25v.52H5l0-.52ZM31,24.72c.68,1,.38,1.36-.78,1.35-3.55,0-7.1,0-10.65,0s-7,0-10.46,0c-1.24,0-1.6-.3-.83-1.44A13.09,13.09,0,0,1,19.8,18.45,13.11,13.11,0,0,1,31,24.72ZM50.54,41q0,14,0,27.89c0,.53,0,1.06,0,1.59s.11,1.26-.62,1.21-.52-.82-.53-1.31c0-5,0-10,0-15V14.38c0-6.67-3.31-10-10-10-3.29,0-6.59,0-9.88,0-4,0-7,1.66-8.62,5.42-.22.5-.33,1.37-1.13,1s-.29-1-.09-1.57a9.18,9.18,0,0,1,8.29-6c4.35-.09,8.7-.07,13,0,5.59.06,9.46,3.86,9.5,9.47.07,9.43,0,18.86,0,28.28Z"></path><path d="M18.16,48.78a1.48,1.48,0,0,0,1.55,1.47,1.44,1.44,0,0,0,1.39-1.41,15.09,15.09,0,0,0,0-4.5c-.13-.85-.59-1.52-1.55-1.47s-1.35.75-1.44,1.6a18.28,18.28,0,0,0,0,2H18C18.07,47.21,18.05,48,18.16,48.78Z"></path><path d="M19.74,52.08a1.44,1.44,0,0,0-1.56,1.45,16,16,0,0,0,0,4.53,1.47,1.47,0,0,0,2.93,0,19.44,19.44,0,0,0,.16-2.17c-.05-.79-.05-1.58-.16-2.36A1.46,1.46,0,0,0,19.74,52.08Z"></path><path d="M11.79,52A1.29,1.29,0,0,0,10.33,53a41.84,41.84,0,0,0-.49,4.87,1.37,1.37,0,0,0,1.35,1.44,1.38,1.38,0,0,0,1.53-1.24c.19-1,.26-1.94.4-3,0-.47,0-1.06,0-1.65A1.38,1.38,0,0,0,11.79,52Z"></path><path d="M12.7,42.87c-1.15-.15-1.61.69-1.74,1.69q-.24,1.86-.36,3.72a1.59,1.59,0,0,0,1.29,1.91c1.07.18,1.55-.57,1.72-1.48s.18-1.69.26-2.54h0c0-.46.07-.92.11-1.38C14,43.85,13.75,43,12.7,42.87Z"></path><path d="M33.84,50.05c.83-.19,1.12-.83,1.15-1.85-.32-1.33-.64-2.87-1.07-4.39a1.43,1.43,0,0,0-2.79.63c.27,1.55.62,3.1,1,4.62A1.31,1.31,0,0,0,33.84,50.05Z"></path><path d="M35.89,59.13c.82-.21,1.08-.88,1.06-2-.28-1.15-.59-2.63-1-4.09a1.4,1.4,0,0,0-1.8-1.11,1.37,1.37,0,0,0-1,1.67c.27,1.48.59,3,1,4.41A1.42,1.42,0,0,0,35.89,59.13Z"></path><path d="M6.34,42.82A1.4,1.4,0,0,0,4.7,43.91c-.39,1.44-.71,2.91-1,4.39a1.39,1.39,0,0,0,1.15,1.76A1.44,1.44,0,0,0,6.6,48.82c.36-1.39.64-2.8.88-3.88C7.51,43.75,7.3,43,6.34,42.82Z"></path><path d="M26.66,50.18A1.44,1.44,0,0,0,28,48.51c0-1.31-.21-2.61-.35-3.91-.12-1-.55-1.86-1.72-1.72s-1.21,1-1.2,1.95c0,.33,0,.66,0,1.38s.2,1.57.38,2.53S25.71,50.27,26.66,50.18Z"></path><path d="M4.28,51.9a1.39,1.39,0,0,0-1.6,1.16c-.36,1.33-.64,2.69-.87,3.66-.08,1.3,0,2.2,1.07,2.42s1.56-.56,1.78-1.44c.33-1.35.62-2.7.82-4.07A1.37,1.37,0,0,0,4.28,51.9Z"></path><path d="M27.48,59.31c.94-.09,1.28-.81,1.33-1.68a18.16,18.16,0,0,0-.47-4.47A1.34,1.34,0,0,0,27,52a1.43,1.43,0,0,0-1.39,1.4c0,.38,0,.78,0,1.71.07.57.19,1.67.37,2.76C26.08,58.73,26.53,59.39,27.48,59.31Z"></path><path d="M19.51,41.07a1.44,1.44,0,0,0,1.55-1.23,13.33,13.33,0,0,0,.22-1.66c-.05-.62-.05-1.15-.14-1.66C21,35.68,20.62,35,19.67,35s-1.5.77-1.54,1.69a19.36,19.36,0,0,0,.1,3.14A1.33,1.33,0,0,0,19.51,41.07Z"></path><path d="M19.74,61.23c-1.07-.06-1.5.7-1.6,1.62a8.62,8.62,0,0,0,.1,3.32,1.41,1.41,0,0,0,1.42,1.14,1.39,1.39,0,0,0,1.41-1.15,11.74,11.74,0,0,0,.2-1.61c0-.67,0-1.2-.1-1.71C21.05,62,20.7,61.28,19.74,61.23Z"></path><path d="M31.78,41c.94-.18,1.22-.87,1.2-2-.22-.87-.43-2-.78-3a1.39,1.39,0,0,0-2.73.47,10.45,10.45,0,0,0,.66,3.45A1.38,1.38,0,0,0,31.78,41Z"></path><path d="M36.16,61a1.45,1.45,0,0,0-1.06,1.84,26.92,26.92,0,0,0,.74,3,1.35,1.35,0,0,0,1.65,1c.83-.15,1.16-.76,1.2-1.84-.21-.82-.44-1.9-.75-3A1.4,1.4,0,0,0,36.16,61Z"></path><path d="M8.17,35a1.29,1.29,0,0,0-1.61.78,11.21,11.21,0,0,0-.83,3.29c0,1,.21,1.73,1.15,1.9a1.43,1.43,0,0,0,1.71-1.25,24.39,24.39,0,0,0,.64-3.26A1.31,1.31,0,0,0,8.17,35Z"></path><path d="M25.77,41.07a1.37,1.37,0,0,0,1.38-1.39A20.57,20.57,0,0,0,27,37c-.1-1-.34-2.09-1.64-2S23.94,36.19,24,37.72c.08.42.2,1.32.41,2.21A1.35,1.35,0,0,0,25.77,41.07Z"></path><path d="M11,61.14c-1.06-.11-1.5.65-1.63,1.59s-.21,1.82-.24,2.73a1.51,1.51,0,0,0,1.23,1.76c1.07.18,1.52-.59,1.71-1.48a18.17,18.17,0,0,0,.22-1.95h0c0-.26,0-.52,0-.78C12.36,62,12,61.24,11,61.14Z"></path><path d="M27.54,61.16c-1.33.39-1.22,1.51-1.2,2.92.05.36.15,1.06.28,1.77A1.51,1.51,0,0,0,28,67.23a1.24,1.24,0,0,0,1.34-.93,7.13,7.13,0,0,0-.51-4.55A1.07,1.07,0,0,0,27.54,61.16Z"></path><path d="M13.26,35c-1,0-1.43.77-1.55,1.69a7.93,7.93,0,0,0-.08,1c-.05,1.29-.84,3.17,1.16,3.33s1.57-1.93,1.83-3.12V36.74C14.61,35.81,14.34,35,13.26,35Z"></path><path d="M2.42,61c-1-.23-1.6.41-1.82,1.36S.16,64.29,0,65.26A1.35,1.35,0,0,0,1.1,66.89a1.33,1.33,0,0,0,1.69-1c.33-1,.54-2,.7-2.63C3.56,62,3.36,61.21,2.42,61Z"></path></g></g></svg>