<svg xmlns="http://www.w3.org/2000/svg" viewBox="0 0 77.89 70.64"><defs><style>.cls-1{stroke:#000;stroke-miterlimit:10;}.cls-2{fill:#fff;}</style></defs><g id="Layer_2" data-name="Layer 2"><g id="Layer_1-2" data-name="Layer 1"><g id="QJAuhS"><path class="cls-1" d="M48.55,60.55v8.16c0,1-.44,1.43-1.43,1.43q-16.14,0-32.28,0H1.75a1.15,1.15,0,0,1-1.23-1.2q0-7.58,0-15.14c0-3.73,0-7.47,0-11.2,0-4.78,0-9.56.05-14.34a47.82,47.82,0,0,1,2.2-13.48A29.49,29.49,0,0,1,7.09,5.9a14.49,14.49,0,0,1,4.59-4.19A8.85,8.85,0,0,1,16.05.52H51.29c3.28,0,6.56,0,9.85,0a10.34,10.34,0,0,1,7.21,2.72,19.53,19.53,0,0,1,4.24,5.49,36.5,36.5,0,0,1,3.63,10.21,57.4,57.4,0,0,1,1,16.28,51.49,51.49,0,0,1-1.62,9.56,31.9,31.9,0,0,1-4.27,9.68,14.64,14.64,0,0,1-5.54,5.14,9.09,9.09,0,0,1-4.06,1H48.55ZM55.34,3H48.93Q32.48,2.94,16,3a5.82,5.82,0,0,0-1.81.3A9.67,9.67,0,0,0,9.69,6.57a25.13,25.13,0,0,0-4.34,8.25A47.2,47.2,0,0,0,2.94,29.4c0,3.9,0,7.8,0,11.7V67.7H46.15V67c0-5.16,0-10.33,0-15.49,0-4.45,0-8.9,0-13.34,0-3.71,0-7.41.12-11.11A45.7,45.7,0,0,1,49,13.13,26.84,26.84,0,0,1,52.9,5.69C53.65,4.74,54.51,3.87,55.34,3ZM48.47,30.52c.14,1.91.24,3.83.41,5.74a43.12,43.12,0,0,0,2.28,10.48,25.52,25.52,0,0,0,4,7.57,11.1,11.1,0,0,0,3.32,2.94,6.51,6.51,0,0,0,7.25-.47,15.61,15.61,0,0,0,4.69-5.64,36.3,36.3,0,0,0,3.41-9.71,50.31,50.31,0,0,0,1-7.82,53.33,53.33,0,0,0-1-13.81A35.33,35.33,0,0,0,70.17,9.45a15,15,0,0,0-4.42-5.16,6.46,6.46,0,0,0-7.42-.36,12.54,12.54,0,0,0-3.81,3.69,29.88,29.88,0,0,0-4.29,9.71A55.27,55.27,0,0,0,48.47,30.52Zm.09,27.58h6.89C52,55.07,50.1,51.16,48.56,47Z"></path><path class="cls-2" d="M55.34,3c-.83.92-1.69,1.79-2.44,2.74A26.84,26.84,0,0,0,49,13.13a45.7,45.7,0,0,0-2.68,13.93c-.13,3.7-.1,7.4-.12,11.11,0,4.44,0,8.89,0,13.34,0,5.16,0,10.33,0,15.49v.7H2.92V41.1c0-3.9,0-7.8,0-11.7A47.2,47.2,0,0,1,5.35,14.82,25.13,25.13,0,0,1,9.69,6.57,9.67,9.67,0,0,1,14.2,3.26,5.82,5.82,0,0,1,16,3q16.46,0,32.92,0h6.41ZM16.11,24.52H14.38a1.21,1.21,0,1,0,0,2.42h3.53a1.21,1.21,0,1,0,0-2.42Zm-8.37,0H5.94a1.15,1.15,0,0,0-1.22,1.17,1.13,1.13,0,0,0,1.1,1.24q1.89,0,3.78,0a1.16,1.16,0,0,0,1.13-1.23,1.19,1.19,0,0,0-1.22-1.18Zm16.79,0h0c-.59,0-1.18,0-1.76,0a1.75,1.75,0,0,0-.78.25,1.21,1.21,0,0,0,.81,2.16h3.53a1.27,1.27,0,0,0,1.21-1.22,1.18,1.18,0,0,0-1.2-1.21ZM32.94,27h1.77a1.21,1.21,0,1,0,0-2.42H31.23a1.2,1.2,0,0,0-1.3,1.19,1.19,1.19,0,0,0,1.29,1.23Zm8.45-2.43H39.54a1.16,1.16,0,0,0-1.19,1.12,1.14,1.14,0,0,0,1.09,1.29c1.27,0,2.55,0,3.82,0a1.21,1.21,0,0,0-.11-2.41Z"></path><path class="cls-2" d="M48.47,30.52a55.27,55.27,0,0,1,1.76-13.19,29.88,29.88,0,0,1,4.29-9.71,12.54,12.54,0,0,1,3.81-3.69,6.46,6.46,0,0,1,7.42.36,15,15,0,0,1,4.42,5.16A35.33,35.33,0,0,1,73.89,19.8a53.33,53.33,0,0,1,1,13.81,50.31,50.31,0,0,1-1,7.82,36.3,36.3,0,0,1-3.41,9.71,15.61,15.61,0,0,1-4.69,5.64,6.51,6.51,0,0,1-7.25.47,11.1,11.1,0,0,1-3.32-2.94,25.52,25.52,0,0,1-4-7.57,43.12,43.12,0,0,1-2.28-10.48C48.71,34.35,48.61,32.43,48.47,30.52Zm8.18-.25A27.41,27.41,0,0,0,57.23,36a13,13,0,0,0,2.33,5.26,4.44,4.44,0,0,0,3.08,1.87,4.07,4.07,0,0,0,3.52-1.61,11.41,11.41,0,0,0,2.41-5,25.05,25.05,0,0,0,.07-11.71,12.06,12.06,0,0,0-2.5-5.31,3.9,3.9,0,0,0-6-.29,8.92,8.92,0,0,0-2,3.17A21.7,21.7,0,0,0,56.65,30.27Z"></path><path class="cls-2" d="M48.56,58.1V47c1.54,4.13,3.43,8,6.89,11.07Z"></path><path class="cls-1" d="M16.11,24.52h1.76a1.21,1.21,0,1,1,0,2.42H14.36a1.21,1.21,0,1,1,0-2.42Z"></path><path class="cls-1" d="M7.74,24.52H9.51a1.19,1.19,0,0,1,1.22,1.18A1.16,1.16,0,0,1,9.6,26.93q-1.89,0-3.78,0a1.13,1.13,0,0,1-1.1-1.24,1.15,1.15,0,0,1,1.22-1.17Z"></path><path class="cls-1" d="M24.53,24.52h1.81a1.18,1.18,0,0,1,1.2,1.21A1.27,1.27,0,0,1,26.33,27H22.8A1.21,1.21,0,0,1,22,24.78a1.75,1.75,0,0,1,.78-.25c.58,0,1.17,0,1.76,0Z"></path><path class="cls-1" d="M32.94,27H31.22a1.19,1.19,0,0,1-1.29-1.23,1.2,1.2,0,0,1,1.3-1.19h3.45a1.21,1.21,0,1,1,0,2.42H32.94Z"></path><path class="cls-1" d="M41.39,24.52h1.76a1.21,1.21,0,0,1,.11,2.41c-1.27,0-2.55,0-3.82,0a1.14,1.14,0,0,1-1.09-1.29,1.16,1.16,0,0,1,1.19-1.12Z"></path><path class="cls-1" d="M56.65,30.27a21.7,21.7,0,0,1,1.42-7.88,8.92,8.92,0,0,1,2-3.17,3.9,3.9,0,0,1,6,.29,12.06,12.06,0,0,1,2.5,5.31,25.05,25.05,0,0,1-.07,11.71,11.41,11.41,0,0,1-2.41,5,4.07,4.07,0,0,1-3.52,1.61,4.44,4.44,0,0,1-3.08-1.87A13,13,0,0,1,57.23,36,27.41,27.41,0,0,1,56.65,30.27Zm10.21.38a19.83,19.83,0,0,0-1.08-6.92,6.76,6.76,0,0,0-1.83-3,1.35,1.35,0,0,0-1.87-.07,5.52,5.52,0,0,0-1.53,2.08,17,17,0,0,0-1.45,6.35,21.31,21.31,0,0,0,.74,7.28A8.56,8.56,0,0,0,61.67,40c.91,1,1.65,1,2.63,0a7.28,7.28,0,0,0,1.48-2.61A19.63,19.63,0,0,0,66.86,30.65Z"></path><path class="cls-2" d="M66.86,30.65a19.63,19.63,0,0,1-1.08,6.7A7.28,7.28,0,0,1,64.3,40c-1,1-1.72,1-2.63,0a8.56,8.56,0,0,1-1.83-3.6,21.31,21.31,0,0,1-.74-7.28,17,17,0,0,1,1.45-6.35,5.52,5.52,0,0,1,1.53-2.08,1.35,1.35,0,0,1,1.87.07,6.76,6.76,0,0,1,1.83,3A19.83,19.83,0,0,1,66.86,30.65Z"></path></g></g></g></svg>