<svg xmlns="http://www.w3.org/2000/svg" viewBox="0 0 74.27 71.07"><defs><style>.cls-1{fill:#fff;}.cls-2{fill:#ffc5ff;stroke:#000;stroke-miterlimit:10;}</style></defs><g id="Layer_2" data-name="Layer 2"><g id="Layer_1-2" data-name="Layer 1"><g id="T6ClQb"><path class="cls-1" d="M34.56,16.39c-1-.25-1.61-.41-2.26-.6a33.91,33.91,0,0,0-14.72-.95C8.31,16.28,1.81,22.57.37,31.77a31.27,31.27,0,0,0,4.3,21.12C13.42,67.77,31.89,74.6,48.82,69.27c16-5,26.09-19.06,25.42-35.4C73.88,25,68.91,18.14,61,15.69a28.87,28.87,0,0,0-12.53-.83c-2.85.38-5.65,1-8.49,1.58a7.63,7.63,0,0,1,7.07-6.18c1.17-.1,2-.53,1.93-1.79s-1-1.73-2.12-1.54a15.29,15.29,0,0,0-4.38,1.15,25,25,0,0,0-3.81,2.84c.46-4.8,2.79-7.11,7.6-7.44.47,0,1.08.08,1.39-.17.55-.43,1.29-1.11,1.27-1.66A2.18,2.18,0,0,0,47.53.14,10.63,10.63,0,0,0,36.35,6.4c-.51,1.24-.81,2.55-1.25,4a10.37,10.37,0,0,0-7.58-3.57c-1.08,0-1.92.34-2,1.54s.61,1.74,1.74,1.8C31.12,10.35,33.16,12.71,34.56,16.39Z"></path><path d="M34.56,16.39c-1.4-3.68-3.44-6-7.3-6.24-1.13-.06-1.81-.64-1.74-1.8s.92-1.56,2-1.54a10.37,10.37,0,0,1,7.58,3.57c.44-1.43.74-2.74,1.25-4A10.63,10.63,0,0,1,47.53.14a2.18,2.18,0,0,1,1.41,1.51c0,.55-.72,1.23-1.27,1.66-.31.25-.92.14-1.39.17-4.81.33-7.14,2.64-7.6,7.44a25,25,0,0,1,3.81-2.84,15.29,15.29,0,0,1,4.38-1.15c1.1-.19,2.06.25,2.12,1.54s-.76,1.69-1.93,1.79A7.63,7.63,0,0,0,40,16.44c2.84-.54,5.64-1.2,8.49-1.58A28.87,28.87,0,0,1,61,15.69c7.9,2.45,12.87,9.29,13.23,18.18.67,16.34-9.41,30.37-25.42,35.4-16.93,5.33-35.4-1.5-44.15-16.38A31.27,31.27,0,0,1,.37,31.77c1.44-9.2,7.94-15.49,17.21-16.93a33.91,33.91,0,0,1,14.72.95C33,16,33.6,16.14,34.56,16.39ZM37,67.85c2.51-.31,5-.45,7.52-1,16.2-3.35,27.88-17.69,26.25-34.06C70,25.21,65.57,20,58.11,18.44c-6.31-1.3-12.38-.08-18.35,1.9a1.84,1.84,0,0,0-.82,1.28c-.18,1-.67,1.73-1.7,1.75a1.62,1.62,0,0,1-1.75-1.82c0-1-.51-1.33-1.34-1.63A30.14,30.14,0,0,0,19.39,18c-7.12,1.05-12.69,4.32-15,11.53-1.64,5-1.15,10,.34,15C8.8,58.19,21.93,67.58,37,67.85Z"></path><path class="cls-2" d="M37,67.85C21.93,67.58,8.8,58.19,4.68,44.53c-1.49-4.94-2-10-.34-15C6.7,22.36,12.27,19.09,19.39,18a30.14,30.14,0,0,1,14.76,1.88c.83.3,1.36.64,1.34,1.63a1.62,1.62,0,0,0,1.75,1.82c1,0,1.52-.72,1.7-1.75a1.84,1.84,0,0,1,.82-1.28c6-2,12-3.2,18.35-1.9C65.57,20,70,25.21,70.79,32.83,72.42,49.2,60.74,63.54,44.54,66.89,42.07,67.4,39.53,67.54,37,67.85ZM6.63,36c0,.42-.17,1,0,1.24.43.62,1,1.51,1.6,1.52s1.17-.88,1.65-1.47c.18-.23,0-.72.07-1.08C10.43,30.28,13.21,26,18.91,24a29.66,29.66,0,0,1,5.23-1.11c1.16-.18,1.95-.65,1.83-1.88s-.95-1.52-2-1.47C14.59,20,7.16,26,6.63,36Z"></path><path d="M6.63,36c.53-10,8-16,17.29-16.43,1.1-.05,1.95.31,2,1.47s-.67,1.7-1.83,1.88A29.66,29.66,0,0,0,18.91,24c-5.7,2-8.48,6.27-8.93,12.18,0,.36.11.85-.07,1.08-.48.59-1.1,1.48-1.65,1.47s-1.17-.9-1.6-1.52C6.46,36.94,6.63,36.4,6.63,36Z"></path></g></g></g></svg>