<svg width="117" height="141" viewBox="0 0 117 141" fill="none" xmlns="http://www.w3.org/2000/svg">
<g clip-path="url(#clip0_141_208)">
<path d="M37.7498 79.9999V74.6799L47.9998 55.3599C48.4582 54.5825 48.7605 53.7231 48.8898 52.8299C48.9782 51.9327 49.0182 51.0314 49.0098 50.1299C49.0098 49.6499 49.0098 49.1399 49.0098 48.5999C49.0025 48.1106 48.8971 47.6278 48.6998 47.1799C48.501 46.7074 48.1554 46.3114 47.7143 46.0503C47.2731 45.7892 46.7597 45.6769 46.2498 45.7299C45.8712 45.6966 45.4898 45.7477 45.1333 45.8795C44.7767 46.0113 44.4539 46.2206 44.188 46.4923C43.9221 46.7639 43.7197 47.0912 43.5956 47.4504C43.4714 47.8097 43.4284 48.1921 43.4698 48.5699V51.7999H37.7498V48.6799C37.7398 47.5322 37.968 46.395 38.4198 45.3399C38.8466 44.3197 39.4682 43.3924 40.2498 42.6099C41.0124 41.82 41.923 41.1879 42.9298 40.7499C43.9811 40.2829 45.1195 40.0443 46.2698 40.0499C47.5861 40.0143 48.8919 40.2919 50.0798 40.8599C51.1189 41.3823 52.0252 42.1347 52.7298 43.0599C53.4054 44.0202 53.9033 45.0939 54.1998 46.2299C54.5209 47.4606 54.6789 48.7281 54.6698 49.9999C54.6698 50.9999 54.6698 51.7699 54.6198 52.4199C54.5846 53.0438 54.5111 53.665 54.3998 54.2799C54.2775 54.8948 54.0897 55.4949 53.8398 56.0699C53.5798 56.6599 53.2298 57.3799 52.7798 58.2399L44.4298 74.3499H54.6698V79.9999H37.7498Z" fill="black"/>
<path d="M58.4102 80.0016V74.3516H64.0902V80.0016H58.4102Z" fill="black"/>
<path d="M71.0901 79.9963V46.3963L65.4102 50.5763V44.5763L71.0901 40.4062H76.7701V79.9963H71.0901Z" fill="black"/>
<path d="M32.2302 85.8203H29.7202V84.8203H35.7902V85.8203H33.2802V92.6203H32.2302V85.8203Z" fill="black" stroke="black" stroke-width="0.25" stroke-miterlimit="10"/>
<path d="M35.5998 90.001C35.6048 89.6573 35.6761 89.3177 35.8098 89.001C35.9459 88.6743 36.1466 88.3783 36.3998 88.131C36.794 87.7405 37.2953 87.476 37.8401 87.371C38.3849 87.2659 38.9487 87.3251 39.4598 87.541C39.7882 87.6794 40.087 87.8797 40.3398 88.131C40.59 88.3787 40.7874 88.6747 40.9198 89.001C41.0608 89.3158 41.1357 89.6561 41.1398 90.001C41.1443 90.3693 41.0692 90.7343 40.9198 91.071C40.7897 91.3985 40.5921 91.6949 40.3398 91.941C40.0838 92.1883 39.7858 92.3881 39.4598 92.531C38.9544 92.7545 38.3941 92.8234 37.8496 92.7291C37.3051 92.6348 36.8006 92.3815 36.3998 92.001C36.1444 91.7555 35.9434 91.4591 35.8098 91.131C35.6601 90.7736 35.5885 90.3883 35.5998 90.001ZM36.5998 90.001C36.5965 90.2495 36.6371 90.4966 36.7198 90.731C36.7854 90.9514 36.8981 91.155 37.05 91.3276C37.2019 91.5002 37.3895 91.6379 37.5998 91.731C37.828 91.8253 38.0729 91.8729 38.3198 91.871C38.5635 91.8729 38.805 91.8253 39.0298 91.731C39.2343 91.6433 39.4182 91.5138 39.5698 91.351C39.7251 91.1894 39.8414 90.9944 39.9098 90.781C39.9925 90.5466 40.0331 90.2995 40.0298 90.051C40.0323 89.8026 39.9917 89.5556 39.9098 89.321C39.8367 89.1097 39.721 88.9157 39.5698 88.751C39.4155 88.5912 39.2323 88.4623 39.0298 88.371C38.8043 88.2802 38.5628 88.236 38.3198 88.241C38.0735 88.236 37.8287 88.2802 37.5998 88.371C37.3973 88.4623 37.214 88.5912 37.0598 88.751C36.9121 88.9183 36.7968 89.1116 36.7198 89.321C36.6603 89.5425 36.6367 89.7721 36.6498 90.001H36.5998Z" fill="black" stroke="black" stroke-width="0.25" stroke-miterlimit="10"/>
<path d="M42.4499 87.4037H43.4499V88.2137C43.5892 87.924 43.8168 87.6859 44.0999 87.5337C44.4288 87.3577 44.797 87.2682 45.1699 87.2737C45.415 87.2729 45.6584 87.3135 45.8899 87.3937C46.1188 87.464 46.3278 87.5873 46.4999 87.7537C46.6822 87.9262 46.8225 88.1384 46.9099 88.3737C47.0158 88.6582 47.0667 88.9602 47.0599 89.2637V92.6237H46.0599V89.5437C46.0666 89.3325 46.0326 89.122 45.9599 88.9237C45.9097 88.7641 45.8203 88.6197 45.6999 88.5037C45.5921 88.3995 45.4622 88.3209 45.3199 88.2737C45.1783 88.2254 45.0295 88.2017 44.8799 88.2037C44.683 88.2019 44.4871 88.2323 44.2999 88.2937C44.1255 88.3662 43.9686 88.4753 43.8399 88.6137C43.7014 88.771 43.5959 88.9547 43.5299 89.1537C43.4528 89.4098 43.4157 89.6763 43.4199 89.9437V92.6237H42.4199L42.4499 87.4037Z" fill="black" stroke="black" stroke-width="0.25" stroke-miterlimit="10"/>
<path d="M48.6501 87.4032H49.6501V88.2132C49.7865 87.9214 50.0148 87.6825 50.3001 87.5332C50.5737 87.3904 50.8732 87.3045 51.1808 87.2804C51.4884 87.2564 51.7977 87.2947 52.0901 87.3932C52.317 87.4612 52.5233 87.585 52.6901 87.7532C52.8755 87.9251 53.0192 88.1372 53.1101 88.3732C53.216 88.6577 53.2669 88.9597 53.2601 89.2632V92.6232H52.2601V89.5432C52.2668 89.332 52.2328 89.1215 52.1601 88.9232C52.1099 88.7636 52.0205 88.6192 51.9001 88.5032C51.7923 88.399 51.6624 88.3204 51.5201 88.2732C51.3751 88.2249 51.223 88.2012 51.0701 88.2032C50.8765 88.2021 50.684 88.2325 50.5001 88.2932C50.3242 88.363 50.1668 88.4725 50.0401 88.6132C49.8981 88.768 49.7922 88.9524 49.7301 89.1532C49.653 89.4093 49.6159 89.6757 49.6201 89.9432V92.6232H48.6201L48.6501 87.4032Z" fill="black" stroke="black" stroke-width="0.25" stroke-miterlimit="10"/>
<path d="M55.5999 90.3795C55.5998 90.594 55.6477 90.8058 55.7399 90.9995C55.8388 91.1796 55.9711 91.3391 56.1299 91.4695C56.2977 91.6093 56.4914 91.7147 56.6999 91.7795C56.9113 91.8564 57.135 91.8937 57.3599 91.8895C57.6409 91.8948 57.9178 91.8221 58.1599 91.6795C58.4001 91.5258 58.613 91.3331 58.7899 91.1095L59.5299 91.6795C59.2591 92.0302 58.9078 92.3105 58.5057 92.4967C58.1036 92.683 57.6626 92.7697 57.2199 92.7495C56.8396 92.7551 56.462 92.6837 56.1099 92.5395C55.7871 92.4116 55.4967 92.2135 55.2599 91.9595C55.0252 91.7129 54.8447 91.42 54.7299 91.0995C54.5983 90.7479 54.5339 90.3748 54.5399 89.9995C54.5377 89.6301 54.6056 89.2636 54.7399 88.9195C54.8703 88.5969 55.0603 88.3018 55.2999 88.0495C55.544 87.7995 55.8367 87.6021 56.1599 87.4695C56.4988 87.328 56.8628 87.2566 57.2299 87.2595C57.6379 87.2445 58.0432 87.3303 58.4099 87.5095C58.7146 87.6573 58.9814 87.8728 59.1899 88.1395C59.4001 88.3979 59.5535 88.6978 59.6399 89.0195C59.7321 89.3449 59.7792 89.6813 59.7799 90.0195V90.3795H55.5999ZM58.7199 89.5795C58.7144 89.3758 58.6808 89.1739 58.6199 88.9795C58.5596 88.8002 58.4606 88.6363 58.3299 88.4995C58.2023 88.3599 58.0452 88.2506 57.8699 88.1795C57.6602 88.0958 57.4357 88.055 57.2099 88.0595C56.9825 88.0584 56.7574 88.1061 56.5499 88.1995C56.3561 88.2816 56.1822 88.4044 56.0399 88.5595C55.9031 88.7031 55.7915 88.8687 55.7099 89.0495C55.6362 89.2164 55.5987 89.397 55.5999 89.5795H58.7199Z" fill="black" stroke="black" stroke-width="0.25" stroke-miterlimit="10"/>
<path d="M63.7998 88.7126C63.6789 88.5642 63.5293 88.4417 63.3598 88.3526C63.1672 88.2468 62.9495 88.195 62.7298 88.2026C62.5168 88.1976 62.3062 88.2494 62.1198 88.3526C62.0395 88.3914 61.9721 88.4526 61.9259 88.529C61.8798 88.6053 61.8568 88.6935 61.8598 88.7826C61.8568 88.8515 61.8687 88.9201 61.8946 88.984C61.9204 89.0478 61.9598 89.1053 62.0098 89.1526C62.109 89.2531 62.2283 89.3315 62.3598 89.3826C62.5008 89.4456 62.6484 89.4926 62.7998 89.5226L63.1898 89.5926C63.3943 89.641 63.5948 89.7045 63.7898 89.7826C63.9693 89.849 64.1353 89.9473 64.2798 90.0726C64.4159 90.1916 64.525 90.3382 64.5998 90.5026C64.6772 90.6965 64.7146 90.904 64.7098 91.1126C64.7185 91.3787 64.6527 91.6419 64.5198 91.8726C64.3979 92.0748 64.2343 92.2487 64.0398 92.3826C63.8317 92.5158 63.6014 92.6106 63.3598 92.6626C63.111 92.7227 62.8559 92.753 62.5998 92.7526C62.2103 92.7632 61.8225 92.6952 61.4598 92.5526C61.1067 92.4012 60.8047 92.1512 60.5898 91.8326L61.3298 91.2126C61.4958 91.3727 61.6766 91.5167 61.8698 91.6426C62.091 91.772 62.3436 91.8378 62.5998 91.8326C62.7263 91.842 62.8533 91.842 62.9798 91.8326C63.0976 91.8065 63.2117 91.7662 63.3198 91.7126C63.4127 91.6588 63.4942 91.5875 63.5598 91.5026C63.6221 91.4185 63.6571 91.3173 63.6598 91.2126C63.6627 91.0759 63.6125 90.9433 63.5198 90.8426C63.4256 90.748 63.3134 90.6732 63.1898 90.6226C63.0582 90.5647 62.9208 90.5211 62.7798 90.4926L62.3998 90.4026L61.7998 90.2326C61.618 90.167 61.4463 90.0761 61.2898 89.9626C61.1447 89.853 61.0253 89.7131 60.9398 89.5526C60.846 89.3563 60.8014 89.1401 60.8098 88.9226C60.8007 88.6749 60.8595 88.4294 60.9798 88.2126C61.0883 88.0128 61.2425 87.8414 61.4298 87.7126C61.6258 87.5791 61.8419 87.4778 62.0698 87.4126C62.3036 87.3438 62.5462 87.3101 62.7898 87.3126C63.1329 87.3144 63.4725 87.3823 63.7898 87.5126C64.1117 87.6427 64.3821 87.8745 64.5598 88.1726L63.7998 88.7126Z" fill="black" stroke="black" stroke-width="0.25" stroke-miterlimit="10"/>
<path d="M74.6398 86.512C74.4196 86.229 74.1351 86.0027 73.8098 85.8519C73.4952 85.7091 73.1551 85.6309 72.8098 85.622C72.3998 85.6196 71.9941 85.7049 71.6198 85.872C71.2715 86.0313 70.9612 86.2631 70.7098 86.552C70.4486 86.8428 70.248 87.1827 70.1198 87.552C69.9782 87.9499 69.9071 88.3695 69.9098 88.792C69.9095 89.1905 69.9772 89.5861 70.1098 89.962C70.2287 90.331 70.4228 90.6715 70.6798 90.962C70.932 91.245 71.2424 91.4701 71.5898 91.622C71.9728 91.7948 72.3896 91.8802 72.8098 91.872C73.2202 91.8777 73.6257 91.7815 73.9898 91.5919C74.3321 91.4053 74.6265 91.1417 74.8498 90.822L75.7398 91.4919C75.6447 91.6157 75.5411 91.7326 75.4298 91.8419C75.2561 92.0157 75.0613 92.1669 74.8498 92.292C74.5725 92.4582 74.2773 92.5924 73.9698 92.692C73.5878 92.8102 73.1896 92.8676 72.7898 92.862C72.2161 92.8709 71.6482 92.7477 71.1298 92.502C70.6499 92.2821 70.2183 91.9694 69.8598 91.582C69.1708 90.8319 68.7889 89.8504 68.7898 88.832C68.7842 88.2614 68.8859 87.6949 69.0898 87.162C69.2732 86.6698 69.5557 86.2206 69.9198 85.8419C70.2813 85.4686 70.7174 85.1755 71.1998 84.982C71.7248 84.7739 72.285 84.6687 72.8498 84.6719C73.3678 84.6732 73.8806 84.7751 74.3598 84.972C74.8385 85.1593 75.2569 85.474 75.5698 85.8819L74.6398 86.512Z" fill="black" stroke="black" stroke-width="0.25" stroke-miterlimit="10"/>
<path d="M80.3102 92.8223C79.7475 92.8274 79.1896 92.7185 78.6702 92.5023C78.1878 92.3087 77.7517 92.0157 77.3902 91.6423C77.0268 91.2689 76.7412 90.827 76.5502 90.3423C76.3472 89.8266 76.2453 89.2766 76.2502 88.7223C76.2453 88.1713 76.3472 87.6246 76.5502 87.1123C76.7412 86.6276 77.0268 86.1857 77.3902 85.8123C77.754 85.4539 78.1905 85.1776 78.6702 85.0023C79.7364 84.5617 80.9339 84.5617 82.0002 85.0023C82.4831 85.1948 82.9194 85.488 83.2802 85.8623C84.0177 86.6512 84.4256 87.6923 84.4202 88.7723C84.4265 89.3276 84.3211 89.8786 84.1102 90.3923C83.9189 90.8746 83.6372 91.3158 83.2802 91.6923C82.9122 92.0455 82.4769 92.3209 82.0002 92.5023C81.4649 92.7241 80.8895 92.8331 80.3102 92.8223ZM80.3102 91.8223C80.7102 91.8295 81.1072 91.7511 81.4746 91.5924C81.8419 91.4338 82.1711 91.1985 82.4402 90.9023C82.7063 90.6134 82.9105 90.2731 83.0402 89.9023C83.3068 89.1211 83.3068 88.2735 83.0402 87.4923C82.9131 87.1203 82.7086 86.7795 82.4402 86.4923C82.0171 86.0551 81.471 85.7569 80.8745 85.6373C80.278 85.5176 79.6592 85.5821 79.1002 85.8223C78.75 85.9838 78.4342 86.2113 78.1702 86.4923C77.9085 86.7828 77.7079 87.1228 77.5802 87.4923C77.3 88.2712 77.3 89.1234 77.5802 89.9023C77.7087 90.2659 77.9097 90.5996 78.171 90.8832C78.4323 91.1668 78.7484 91.3944 79.1002 91.5523C79.479 91.7307 79.8915 91.8262 80.3102 91.8323V91.8223Z" fill="black" stroke="black" stroke-width="0.25" stroke-miterlimit="10"/>
<path d="M85.3501 91.8027L87.6201 89.5527L87.8601 89.3027L88.0601 89.0327C88.1127 88.9322 88.1595 88.8287 88.2001 88.7227C88.2153 88.6133 88.2153 88.5022 88.2001 88.3927C88.2008 88.2618 88.1735 88.1323 88.1201 88.0127C88.0735 87.904 88.0015 87.8079 87.9101 87.7327C87.8204 87.6519 87.7148 87.5906 87.6001 87.5527C87.4792 87.5049 87.3501 87.4811 87.2201 87.4827C86.9694 87.4701 86.7231 87.5522 86.5301 87.7127C86.3444 87.8831 86.2241 88.113 86.1901 88.3627L85.3601 88.2827C85.3859 88.0528 85.4609 87.8311 85.5801 87.6327C85.6837 87.4528 85.8233 87.2963 85.9901 87.1727C86.1576 87.0474 86.3478 86.9557 86.5501 86.9027C86.7714 86.8407 87.0003 86.8104 87.2301 86.8127C87.4639 86.8093 87.6968 86.8431 87.9201 86.9127C88.1273 86.976 88.3207 87.0777 88.4901 87.2127C88.6539 87.3436 88.7841 87.5115 88.8701 87.7027C88.9711 87.9147 89.0192 88.1481 89.0101 88.3827C89.0145 88.5594 88.9874 88.7355 88.9301 88.9027C88.8731 89.0634 88.7994 89.2175 88.7101 89.3627C88.6181 89.5076 88.5144 89.6447 88.4001 89.7727L88.0301 90.1527L86.2201 92.0027H89.0601V92.6727H85.3501V91.8027Z" fill="black" stroke="black" stroke-width="0.25" stroke-miterlimit="10"/>
<path d="M41.41 96.8281H42.41L45.75 104.618H44.47L43.69 102.688H40L39.23 104.618H38L41.41 96.8281ZM43.31 101.768L41.85 98.1981L40.38 101.768H43.31Z" fill="black" stroke="black" stroke-width="0.25" stroke-miterlimit="10"/>
<path d="M46.6399 99.4038H47.6399V100.214C47.773 99.9199 48.0022 99.68 48.2899 99.5338C48.6146 99.3565 48.9799 99.2669 49.3499 99.2738C49.5949 99.2731 49.8383 99.3136 50.0699 99.3938C50.3007 99.4595 50.5107 99.5835 50.6799 99.7538C50.8622 99.9264 51.0024 100.138 51.0899 100.374C51.1991 100.658 51.2534 100.96 51.2499 101.264V104.624H50.2499V101.544C50.2517 101.333 50.2179 101.123 50.1499 100.924C50.0911 100.766 49.999 100.623 49.8799 100.504C49.7736 100.398 49.6432 100.319 49.4999 100.274C49.3583 100.226 49.2095 100.202 49.0599 100.204C48.8661 100.201 48.6733 100.232 48.4899 100.294C48.3124 100.366 48.1522 100.475 48.0199 100.614C47.8812 100.769 47.7787 100.954 47.7199 101.154C47.6379 101.409 47.6006 101.676 47.6099 101.944V104.624H46.6099L46.6399 99.4038Z" fill="black" stroke="black" stroke-width="0.25" stroke-miterlimit="10"/>
<path d="M52.8298 99.4037H53.8298V100.214C53.9691 99.924 54.1967 99.6859 54.4798 99.5337C54.8087 99.3577 55.1769 99.2682 55.5498 99.2737C55.7948 99.2729 56.0383 99.3135 56.2698 99.3937C56.4987 99.464 56.7077 99.5873 56.8798 99.7537C57.0621 99.9262 57.2024 100.138 57.2898 100.374C57.3956 100.658 57.4465 100.96 57.4398 101.264V104.624H56.4398V101.544C56.4465 101.333 56.4125 101.122 56.3398 100.924C56.2896 100.764 56.2002 100.62 56.0798 100.504C55.972 100.399 55.8421 100.321 55.6998 100.274C55.5582 100.225 55.4094 100.202 55.2598 100.204C55.0629 100.202 54.867 100.232 54.6798 100.294C54.5053 100.366 54.3485 100.475 54.2198 100.614C54.0812 100.771 53.9758 100.955 53.9098 101.154C53.8327 101.41 53.7956 101.676 53.7998 101.944V104.624H52.7998L52.8298 99.4037Z" fill="black" stroke="black" stroke-width="0.25" stroke-miterlimit="10"/>
<path d="M63.6199 104.618H62.6199V103.818C62.483 104.107 62.2545 104.343 61.9699 104.488C61.6451 104.666 61.2798 104.755 60.9099 104.748C60.6615 104.75 60.4146 104.71 60.1799 104.628C59.9554 104.56 59.7499 104.44 59.5799 104.278C59.3996 104.104 59.2597 103.893 59.1699 103.658C59.0614 103.371 59.0072 103.066 59.0099 102.758V99.3984H60.0099V102.478C60.006 102.692 60.0364 102.905 60.0999 103.108C60.1587 103.263 60.2509 103.403 60.3699 103.518C60.4767 103.626 60.6066 103.708 60.7499 103.758C60.8926 103.802 61.0407 103.825 61.1899 103.828C61.3842 103.828 61.577 103.794 61.7599 103.728C61.9394 103.66 62.1003 103.55 62.2299 103.408C62.3685 103.253 62.471 103.068 62.5299 102.868C62.6111 102.617 62.6483 102.353 62.6399 102.088V99.3984H63.6399L63.6199 104.618Z" fill="black" stroke="black" stroke-width="0.25" stroke-miterlimit="10"/>
<path d="M65.2002 99.9978C65.4909 99.7389 65.8311 99.5416 66.2002 99.4178C66.5543 99.2959 66.9257 99.2318 67.3002 99.2278C67.6398 99.2176 67.9785 99.2684 68.3002 99.3778C68.5512 99.4551 68.7829 99.5846 68.9802 99.7578C69.1474 99.9157 69.2801 100.106 69.3702 100.318C69.4511 100.525 69.4919 100.746 69.4902 100.968V103.628C69.4902 103.818 69.4902 103.988 69.4902 104.138C69.4799 104.284 69.4799 104.431 69.4902 104.578H68.6102C68.6102 104.318 68.6102 104.048 68.6102 103.788C68.4208 104.092 68.1508 104.338 67.8302 104.498C67.5154 104.638 67.1746 104.709 66.8302 104.708C66.5964 104.711 66.3635 104.677 66.1402 104.608C65.9281 104.554 65.7302 104.455 65.5602 104.318C65.3951 104.186 65.2618 104.018 65.1702 103.828C65.0668 103.616 65.0154 103.383 65.0202 103.148C65.0113 102.848 65.0913 102.552 65.2502 102.298C65.4074 102.065 65.6206 101.876 65.8702 101.748C66.1526 101.591 66.4608 101.486 66.7802 101.438C67.1467 101.373 67.518 101.34 67.8902 101.338H68.6202V101.118C68.6226 100.984 68.5953 100.85 68.5402 100.728C68.487 100.589 68.4051 100.463 68.3001 100.358C68.195 100.253 68.069 100.171 67.9302 100.118C67.7545 100.051 67.5681 100.017 67.3802 100.018C67.2116 100.015 67.0434 100.035 66.8802 100.078C66.7452 100.109 66.6143 100.156 66.4902 100.218C66.3757 100.267 66.2681 100.331 66.1702 100.408L65.8902 100.618L65.2002 99.9978ZM68.0002 102.108C67.7604 102.093 67.52 102.093 67.2802 102.108C67.0515 102.13 66.8264 102.18 66.6102 102.258C66.4225 102.316 66.2535 102.423 66.1202 102.568C66.0551 102.634 66.0038 102.712 65.9694 102.798C65.9351 102.883 65.9183 102.975 65.9202 103.068C65.9081 103.194 65.9306 103.321 65.9852 103.436C66.0398 103.55 66.1245 103.648 66.2302 103.718C66.4783 103.863 66.7633 103.932 67.0502 103.918C67.2877 103.923 67.5234 103.875 67.7402 103.778C67.9134 103.697 68.0668 103.578 68.1894 103.432C68.3121 103.285 68.4011 103.113 68.4502 102.928C68.5059 102.757 68.533 102.578 68.5302 102.398V102.068L68.0002 102.108Z" fill="black" stroke="black" stroke-width="0.25" stroke-miterlimit="10"/>
<path d="M71 96.2969H72V104.617H71V96.2969Z" fill="black" stroke="black" stroke-width="0.25" stroke-miterlimit="10"/>
<path d="M73.6802 96.2969H74.6802V104.617H73.6802V96.2969Z" fill="black" stroke="black" stroke-width="0.25" stroke-miterlimit="10"/>
<path d="M75.6899 99.3984H76.8299L78.3799 103.468L79.8599 99.3984H80.9199L78.4399 105.738C78.3499 105.968 78.2599 106.178 78.1699 106.358C78.0809 106.534 77.9663 106.696 77.8299 106.838C77.6943 106.975 77.5305 107.081 77.3499 107.148C77.1319 107.226 76.9014 107.264 76.6699 107.258C76.5201 107.268 76.3698 107.268 76.2199 107.258C76.0731 107.237 75.929 107.2 75.7899 107.148L75.9099 106.238C76.0972 106.316 76.2974 106.356 76.4999 106.358C76.6324 106.361 76.7644 106.341 76.8899 106.298C76.9932 106.266 77.0863 106.208 77.1599 106.128C77.2378 106.05 77.302 105.958 77.3499 105.858C77.413 105.746 77.4665 105.629 77.5099 105.508L77.8299 104.678L75.6899 99.3984Z" fill="black" stroke="black" stroke-width="0.25" stroke-miterlimit="10"/>
<path d="M29.5098 14.9978C29.3927 13.697 29.6981 12.3932 30.3809 11.2799C31.0637 10.1665 32.0873 9.30309 33.2998 8.8178C33.9969 8.50731 34.7488 8.33868 35.5117 8.32173C36.2746 8.30478 37.0333 8.43986 37.7434 8.71909C38.4536 8.99832 39.1011 9.41611 39.6481 9.94811C40.1952 10.4801 40.6309 11.1157 40.9298 11.8178C41.6 13.7101 41.5286 15.7861 40.7298 17.6278L38.8098 23.3978L44.8098 20.9578L45.9998 23.8978L34.8498 28.4278L34.0498 26.4778L37.2898 17.1978C37.9998 15.1978 37.9698 14.0378 37.6098 13.1978C37.4937 12.899 37.3199 12.6259 37.0982 12.3943C36.8765 12.1627 36.6114 11.977 36.3179 11.8479C36.0244 11.7188 35.7084 11.6489 35.3879 11.642C35.0673 11.6351 34.7486 11.6914 34.4498 11.8078C33.9061 12.044 33.4582 12.457 33.1786 12.9798C32.8991 13.5026 32.8044 14.1044 32.9098 14.6878L29.5098 14.9978Z" fill="black"/>
<path d="M50.9999 4.17916C55.6899 3.60916 57.9399 7.60916 58.5799 12.8292C59.2199 18.0492 57.9999 22.4792 53.3499 23.0492C48.6999 23.6192 46.4099 19.6192 45.7699 14.4092C45.1299 9.19916 46.3399 4.75916 50.9999 4.17916ZM51.3899 7.32916C49.2599 7.58916 48.8499 10.5092 49.2799 13.9692C49.7099 17.4292 50.8099 20.1692 52.9299 19.9092C55.0499 19.6492 55.4699 16.7192 55.0399 13.2592C54.6099 9.79916 53.5399 7.06916 51.4199 7.32916H51.3899Z" fill="black"/>
<path d="M62.78 17.59C63.0853 18.1955 63.5301 18.7198 64.0778 19.1197C64.6254 19.5196 65.2603 19.7836 65.93 19.89C66.3874 19.9758 66.8575 19.9663 67.311 19.862C67.7646 19.7577 68.1916 19.5608 68.5655 19.2838C68.9395 19.0068 69.2521 18.6555 69.484 18.2521C69.7158 17.8486 69.8619 17.4016 69.913 16.939C69.9641 16.4765 69.9191 16.0084 69.7809 15.5641C69.6427 15.1197 69.4142 14.7087 69.1097 14.3567C68.8053 14.0048 68.4314 13.7195 68.0116 13.5187C67.5918 13.318 67.1351 13.2061 66.67 13.19C65.9065 13.0875 65.1296 13.1628 64.4 13.41L64.69 11.32L68.69 7.73L62.57 6.89L63 3.75L74.1 5.28L73.81 7.37L69.93 11C71.1048 11.5991 72.0648 12.548 72.6774 13.7159C73.29 14.8837 73.525 16.2129 73.35 17.52C72.82 21.39 69.43 23.57 65.63 23.05C64.4847 22.8659 63.3912 22.442 62.421 21.8061C61.4508 21.1703 60.6258 20.3367 60 19.36L62.78 17.59Z" fill="black"/>
<path d="M86.7099 9.22966C91.0599 11.0897 90.9899 15.6897 88.9199 20.5197C86.8499 25.3497 83.5699 28.5697 79.2199 26.7097C74.8699 24.8497 74.9999 20.2497 76.9999 15.4197C78.9999 10.5897 82.3699 7.36966 86.7099 9.22966ZM85.4699 12.1397C83.4699 11.2997 81.6699 13.6197 80.2999 16.8197C78.9299 20.0197 78.4999 22.9497 80.4699 23.8197C82.4399 24.6897 84.2599 22.3497 85.6399 19.1397C87.0199 15.9297 87.4299 12.9997 85.4699 12.1397Z" fill="black"/>
<path d="M16.5999 114.921C16.4944 113.883 16.6188 112.833 16.9645 111.848C17.3101 110.863 17.8685 109.966 18.5999 109.221L24.9999 101.781L27.4799 103.911L20.9999 111.531C20.5927 111.908 20.2727 112.369 20.0623 112.883C19.8519 113.396 19.7562 113.95 19.7819 114.504C19.8076 115.058 19.9541 115.6 20.2112 116.092C20.4682 116.584 20.8295 117.014 21.2699 117.351C22.059 118.067 23.0955 118.447 24.1599 118.411C24.7352 118.359 25.2923 118.182 25.793 117.894C26.2936 117.606 26.7258 117.213 27.0599 116.741L33.6199 109.121L36.0999 111.251L29.6999 118.691C29.0774 119.532 28.2767 120.224 27.3552 120.718C26.4337 121.213 25.4143 121.497 24.3699 121.551C22.5161 121.512 20.7396 120.801 19.3699 119.551C17.917 118.394 16.9329 116.749 16.5999 114.921Z" fill="black"/>
<path d="M35.7801 111.148L37.9101 112.018L42.4901 125.808L46.6601 115.578L49.6601 116.808L43.2701 132.518L41.1401 131.648L36.5601 117.848L32.3901 128.078L29.3901 126.848L35.7801 111.148Z" fill="black"/>
<path d="M57.29 125.93C57.3164 126.694 57.4964 127.446 57.8194 128.14C58.1425 128.833 58.6018 129.455 59.1701 129.967C59.7384 130.479 60.404 130.872 61.1273 131.122C61.8506 131.371 62.6167 131.473 63.38 131.42C64.752 131.365 66.0613 130.83 67.08 129.91L66.89 126.26L62.53 126.5L62.37 123.59L69.99 123.18L70.4 130.7C69.5967 131.792 68.555 132.686 67.3542 133.315C66.1534 133.944 64.825 134.291 63.47 134.33C62.3187 134.41 61.1629 134.261 60.0697 133.891C58.9764 133.521 57.9674 132.938 57.1012 132.176C56.235 131.413 55.5288 130.486 55.0236 129.448C54.5183 128.411 54.2241 127.283 54.1579 126.131C54.0917 124.979 54.2549 123.825 54.638 122.736C55.0212 121.647 55.6166 120.646 56.3898 119.789C57.1629 118.932 58.0985 118.237 59.1423 117.745C60.186 117.252 61.3171 116.972 62.47 116.92C64.7707 116.76 67.0426 117.506 68.8 119L66.8 121.34C66.2352 120.821 65.5731 120.42 64.8522 120.159C64.1313 119.898 63.3658 119.783 62.6 119.82C61.8467 119.863 61.1097 120.056 60.4323 120.388C59.7549 120.72 59.1509 121.185 58.656 121.754C58.161 122.324 57.7852 122.987 57.5506 123.704C57.316 124.421 57.2274 125.178 57.29 125.93Z" fill="black"/>
<path d="M76.0501 119.38C77.1933 119.002 78.4228 118.969 79.5846 119.286C80.7463 119.603 81.7887 120.256 82.5811 121.163C83.3736 122.07 83.8809 123.19 84.0396 124.384C84.1983 125.578 84.0012 126.792 83.4732 127.874C82.9451 128.956 82.1094 129.859 81.0709 130.468C80.0323 131.078 78.837 131.368 77.6346 131.301C76.4321 131.234 75.2761 130.815 74.3112 130.094C73.3463 129.373 72.6154 128.384 72.2101 127.25C71.934 126.482 71.8147 125.666 71.8592 124.851C71.9036 124.036 72.1109 123.238 72.4689 122.505C72.8268 121.771 73.3282 121.117 73.9432 120.58C74.5583 120.043 75.2747 119.635 76.0501 119.38ZM79.1701 128.17C79.5596 128.037 79.9181 127.826 80.2239 127.55C80.5297 127.274 80.7765 126.939 80.9494 126.565C81.1222 126.192 81.2176 125.787 81.2298 125.375C81.2419 124.963 81.1706 124.554 81.0201 124.17C80.806 123.597 80.4272 123.1 79.9313 122.742C79.4355 122.384 78.8447 122.18 78.2334 122.157C77.6221 122.134 77.0176 122.292 76.4961 122.612C75.9745 122.932 75.5592 123.398 75.3024 123.954C75.0456 124.509 74.9588 125.128 75.053 125.732C75.1471 126.337 75.418 126.9 75.8315 127.35C76.245 127.801 76.7827 128.12 77.3767 128.265C77.9708 128.411 78.5948 128.378 79.1701 128.17Z" fill="black"/>
<path d="M98.68 120.442L96.18 122.142L95.65 121.362C95.3456 122.512 94.6352 123.514 93.65 124.182C92.9594 124.655 92.1759 124.976 91.3517 125.122C90.5274 125.269 89.6814 125.238 88.87 125.032C87.4155 124.632 86.1525 123.723 85.31 122.472C84.8446 121.842 84.5093 121.126 84.3235 120.365C84.1378 119.604 84.1055 118.814 84.2283 118.04C84.3512 117.267 84.6268 116.525 85.0392 115.86C85.4515 115.194 85.9923 114.617 86.63 114.162C87.6459 113.426 88.8888 113.072 90.14 113.162L89.61 112.372L92.12 110.672L98.68 120.442ZM91.79 115.902C91.2573 115.715 90.6881 115.657 90.1286 115.732C89.5691 115.807 89.0352 116.012 88.57 116.332C87.8712 116.819 87.3943 117.563 87.2443 118.401C87.0942 119.239 87.2833 120.103 87.77 120.802C88.2567 121.501 89.0011 121.978 89.8393 122.128C90.6776 122.278 91.5412 122.089 92.24 121.602C92.7004 121.292 93.079 120.876 93.3437 120.388C93.6084 119.901 93.7512 119.357 93.76 118.802L91.79 115.902Z" fill="black"/>
<path d="M103.81 115.373L101.58 117.583L89.48 105.353L91.72 103.133L103.81 115.373Z" fill="black"/>
<path d="M13.2501 106.17C4.51783 94.2108 0.877951 79.2794 3.12683 64.643C5.37571 50.0065 13.3302 36.8566 25.2501 28.0703" stroke="black" stroke-width="4.95" stroke-miterlimit="10"/>
<path d="M91.8101 28.1719C103.34 36.7267 111.143 49.3829 113.609 63.5264C116.075 77.6699 113.015 92.2202 105.06 104.172" stroke="black" stroke-width="4.95" stroke-miterlimit="10"/>
</g>
<defs>
<clipPath id="clip0_141_208">
<rect width="116.91" height="140.25" fill="white"/>
</clipPath>
</defs>
</svg>
