<svg width="117" height="139" viewBox="0 0 117 139" fill="none" xmlns="http://www.w3.org/2000/svg">
<g clip-path="url(#clip0_141_172)">
<path d="M49.9098 38.5469L43.4498 55.1869L43.5598 55.2969C43.8206 55.1225 44.1126 55.0002 44.4198 54.9369C44.9395 54.8305 45.4696 54.7835 45.9998 54.7969C47.1811 54.7937 48.3344 55.1563 49.3013 55.8349C50.2682 56.5135 51.0013 57.4749 51.3998 58.5869C51.5786 59.114 51.7092 59.6562 51.7898 60.2069C51.8698 60.8669 51.9198 61.7169 51.9598 62.7369C51.9998 63.7569 52.0198 65.0469 52.0198 66.6069C52.0198 67.9069 52.0198 68.9669 51.9598 69.8069C51.8998 70.6469 51.8698 71.3369 51.7898 71.8969C51.6999 72.4085 51.5626 72.9106 51.3798 73.3969C51.1907 73.8352 50.977 74.2626 50.7398 74.6769C50.0156 75.8779 48.9787 76.8595 47.7398 77.5169C46.4422 78.197 44.9947 78.5408 43.5298 78.5169C42.0763 78.5536 40.6386 78.2088 39.3598 77.5169C38.1505 76.8505 37.1342 75.8824 36.4098 74.7069C36.1353 74.304 35.9009 73.8753 35.7098 73.4269C35.5223 72.9455 35.4012 72.4409 35.3498 71.9269C35.2225 71.2369 35.149 70.5382 35.1298 69.8369C35.1298 68.9969 35.0698 67.9369 35.0698 66.6369C35.0698 65.3369 35.0698 64.3969 35.1298 63.6369C35.1898 62.8769 35.2198 62.1469 35.2898 61.5469C35.3485 61.0223 35.4522 60.5037 35.5998 59.9969C35.7498 59.5269 35.9098 58.9969 36.0998 58.5169L43.5598 38.5869L49.9098 38.5469ZM46.2898 62.6469C46.3042 62.2635 46.2367 61.8815 46.0919 61.5263C45.947 61.1711 45.7281 60.8509 45.4498 60.5869C44.9255 60.0874 44.229 59.8088 43.5048 59.8088C42.7806 59.8088 42.0842 60.0874 41.5598 60.5869C41.2815 60.8509 41.0626 61.1711 40.9178 61.5263C40.773 61.8815 40.7055 62.2635 40.7198 62.6469V69.9969C40.7035 70.3804 40.7701 70.763 40.9151 71.1185C41.06 71.474 41.2799 71.7941 41.5598 72.0569C42.0842 72.5564 42.7806 72.835 43.5048 72.835C44.229 72.835 44.9255 72.5564 45.4498 72.0569C45.7297 71.7941 45.9496 71.474 46.0946 71.1185C46.2396 70.763 46.3061 70.3804 46.2898 69.9969V62.6469Z" fill="black"/>
<path d="M55.5698 78.1878V72.5078H61.2498V78.1878H55.5698Z" fill="black"/>
<path d="M71.6901 55.2492C72.8995 55.3483 74.1141 55.1384 75.2201 54.6392C75.8701 54.2292 76.2201 53.2792 76.2201 51.7992V46.6792C76.2313 46.3122 76.1699 45.9467 76.0394 45.6035C75.909 45.2603 75.7122 44.9462 75.4601 44.6792C75.1989 44.4179 74.8862 44.2136 74.542 44.0794C74.1977 43.9451 73.8293 43.8838 73.4601 43.8992C73.0473 43.8662 72.6331 43.9411 72.2579 44.1164C71.8828 44.2917 71.5596 44.5614 71.3201 44.8992C70.9237 45.4327 70.7003 46.0749 70.6801 46.7392V49.8992H65.0001V46.6192C64.9917 45.5024 65.2088 44.3953 65.6383 43.3643C66.0679 42.3333 66.7011 41.3997 67.5001 40.6192C68.2979 39.8693 69.2221 39.2667 70.2301 38.8392C71.2867 38.3923 72.4229 38.1643 73.5701 38.1692C74.9197 38.119 76.2575 38.437 77.4401 39.0892C78.2948 39.5953 79.0586 40.2409 79.7001 40.9992C80.0625 41.42 80.3965 41.8643 80.7001 42.3292C81.0013 42.8514 81.2269 43.4137 81.3701 43.9992C81.7645 45.7878 81.9325 47.6188 81.8701 49.4492C81.8701 50.8292 81.8701 51.9392 81.7901 52.7892C81.7672 53.5141 81.6253 54.2303 81.3701 54.9092C81.1254 55.4829 80.7565 55.9952 80.2901 56.4092C79.691 56.9118 79.0485 57.3603 78.3701 57.7492C79.0935 58.1922 79.7644 58.7155 80.3701 59.3092C80.819 59.788 81.16 60.3575 81.3701 60.9792C81.6069 61.7445 81.7381 62.5385 81.7601 63.3392C81.7601 64.2592 81.8101 65.4192 81.8101 66.8292C81.8101 68.2392 81.8101 69.1992 81.7301 70.0492C81.6944 70.7607 81.6109 71.469 81.4801 72.1692C81.3907 72.6843 81.2431 73.1875 81.0401 73.6692C80.2946 75.2635 79.1033 76.6076 77.6101 77.5392C76.296 78.2711 74.8022 78.6177 73.3001 78.5392C72.3375 78.5268 71.3814 78.3787 70.4601 78.0992C69.4318 77.786 68.4815 77.2587 67.6714 76.5521C66.8614 75.8455 66.21 74.9755 65.7601 73.9992C65.1775 72.7487 64.8999 71.3779 64.9501 69.9992V66.8292H70.6301V69.8292C70.5994 70.6301 70.8666 71.4139 71.3801 72.0292C71.6439 72.3008 71.9595 72.5166 72.3081 72.6641C72.6568 72.8115 73.0316 72.8874 73.4101 72.8874C73.7887 72.8874 74.1634 72.8115 74.5121 72.6641C74.8608 72.5166 75.1764 72.3008 75.4401 72.0292C75.9679 71.3783 76.2383 70.5563 76.2001 69.7192V63.9992C76.2001 62.4392 75.9001 61.4192 75.3101 60.9392C74.9198 60.6196 74.4425 60.4246 73.9401 60.3792C73.1929 60.2988 72.4416 60.2621 71.6901 60.2692V55.2492Z" fill="black"/>
<path d="M31.1702 84H28.6602V83H34.7302V84H32.2202V90.8H31.2202L31.1702 84Z" fill="black" stroke="black" stroke-width="0.25" stroke-miterlimit="10"/>
<path d="M34.5401 88.1699C34.5371 87.806 34.6086 87.4453 34.7501 87.1099C34.8899 86.7852 35.0901 86.4899 35.3401 86.2399C35.8644 85.7209 36.5724 85.4297 37.3101 85.4297C38.0479 85.4297 38.7559 85.7209 39.2801 86.2399C39.5301 86.4899 39.7304 86.7852 39.8701 87.1099C40.0116 87.4453 40.0831 87.806 40.0801 88.1699C40.0831 88.5371 40.0116 88.9011 39.8701 89.2399C39.7328 89.566 39.5323 89.8617 39.2801 90.1099C38.7559 90.629 38.0479 90.9202 37.3101 90.9202C36.5724 90.9202 35.8644 90.629 35.3401 90.1099C35.088 89.8617 34.8874 89.566 34.7501 89.2399C34.6086 88.9011 34.5372 88.5371 34.5401 88.1699ZM35.5901 88.1699C35.5851 88.4194 35.6293 88.6675 35.7201 88.8999C35.7885 89.1134 35.9048 89.3083 36.0601 89.4699C36.208 89.637 36.3929 89.7671 36.6001 89.8499C36.8249 89.9442 37.0664 89.9918 37.3101 89.9899C37.557 89.9907 37.8016 89.9432 38.0301 89.8499C38.233 89.7646 38.4141 89.6347 38.5601 89.4699C38.7152 89.3064 38.8344 89.1122 38.9101 88.8999C38.9928 88.6656 39.0334 88.4184 39.0301 88.1699C39.0326 87.9215 38.992 87.6745 38.9101 87.4399C38.8297 87.23 38.711 87.0367 38.5601 86.8699C38.4114 86.7082 38.231 86.5789 38.0301 86.4899C37.801 86.3999 37.5563 86.3557 37.3101 86.3599C37.0671 86.3549 36.8256 86.3991 36.6001 86.4899C36.3948 86.5761 36.2105 86.7057 36.0601 86.8699C35.9089 87.0346 35.7932 87.2286 35.7201 87.4399C35.63 87.6726 35.5859 87.9205 35.5901 88.1699Z" fill="black" stroke="black" stroke-width="0.25" stroke-miterlimit="10"/>
<path d="M41.3999 85.5601H42.3999V86.3701C42.533 86.0761 42.7622 85.8363 43.0499 85.6901C43.3746 85.5128 43.7399 85.4232 44.1099 85.4301C44.3549 85.4293 44.5983 85.4699 44.8299 85.5501C45.0607 85.6158 45.2707 85.7398 45.4399 85.9101C45.6222 86.0826 45.7624 86.2947 45.8499 86.5301C45.9591 86.8139 46.0134 87.1159 46.0099 87.4201V90.7801H44.9999V87.7001C45.0017 87.4892 44.9679 87.2796 44.8999 87.0801C44.8411 86.9223 44.749 86.779 44.6299 86.6601C44.5236 86.5538 44.3932 86.4749 44.2499 86.4301C44.1083 86.3818 43.9595 86.3581 43.8099 86.3601C43.6151 86.3556 43.4214 86.3895 43.2399 86.4601C43.061 86.525 42.9 86.6312 42.7699 86.7701C42.6312 86.9257 42.5287 87.1101 42.4699 87.3101C42.3879 87.5651 42.3506 87.8323 42.3599 88.1001V90.7801H41.3599L41.3999 85.5601Z" fill="black" stroke="black" stroke-width="0.25" stroke-miterlimit="10"/>
<path d="M47.5901 85.5599H48.5901V86.3699C48.7294 86.0802 48.9569 85.8422 49.2401 85.6899C49.5689 85.514 49.9371 85.4245 50.3101 85.4299C50.5551 85.4292 50.7985 85.4697 51.0301 85.5499C51.2589 85.6202 51.4679 85.7436 51.6401 85.9099C51.8224 86.0825 51.9626 86.2946 52.0501 86.5299C52.1559 86.8144 52.2068 87.1164 52.2001 87.4199V90.7799H51.2001V87.6999C51.2067 87.4888 51.1728 87.2783 51.1001 87.0799C51.0499 86.9204 50.9605 86.776 50.8401 86.6599C50.7322 86.5557 50.6024 86.4771 50.4601 86.4299C50.3185 86.3816 50.1696 86.358 50.0201 86.3599C49.8221 86.3564 49.6254 86.3903 49.4401 86.4599C49.2641 86.5249 49.1063 86.6312 48.9801 86.7699C48.8415 86.9273 48.7361 87.1109 48.6701 87.3099C48.593 87.566 48.5559 87.8325 48.5601 88.0999V90.7799H47.5601L47.5901 85.5599Z" fill="black" stroke="black" stroke-width="0.25" stroke-miterlimit="10"/>
<path d="M54.54 88.5411C54.5386 88.7569 54.5901 88.9698 54.69 89.1611C54.9095 89.5411 55.2681 89.8208 55.69 89.9411C55.9014 90.018 56.1251 90.0553 56.35 90.0511C56.6312 90.058 56.9085 89.9852 57.15 89.8411C57.3923 89.6901 57.6056 89.4971 57.78 89.2711L58.53 89.8411C58.2592 90.1918 57.9078 90.4721 57.5058 90.6584C57.1037 90.8446 56.6627 90.9313 56.22 90.9111C55.8364 90.9167 55.4556 90.8453 55.1 90.7011C54.7819 90.5713 54.4946 90.376 54.2569 90.1279C54.0191 89.8798 53.8362 89.5845 53.72 89.2611C53.5897 88.9127 53.5252 88.5431 53.53 88.1711C53.5263 87.8006 53.5977 87.4332 53.74 87.0911C53.8629 86.7647 54.0538 86.4681 54.3 86.2211C54.5385 85.9691 54.8284 85.7713 55.15 85.6411C55.4921 85.4988 55.8595 85.4274 56.23 85.4311C56.6346 85.4173 57.0364 85.5032 57.4 85.6811C57.7059 85.8314 57.9755 86.0463 58.19 86.3111C58.3933 86.5726 58.5429 86.8716 58.63 87.1911C58.7222 87.5165 58.7693 87.853 58.77 88.1911V88.5511L54.54 88.5411ZM57.66 87.7411C57.6545 87.5375 57.6209 87.3356 57.56 87.1411C57.501 86.9634 57.4056 86.8 57.28 86.6611C57.1487 86.5213 56.9882 86.4121 56.81 86.3411C56.6035 86.2582 56.3825 86.2174 56.16 86.2211C55.9292 86.2189 55.7007 86.2667 55.49 86.3611C55.2977 86.4458 55.1242 86.5682 54.98 86.7211C54.8432 86.8647 54.7316 87.0304 54.65 87.2111C54.5811 87.3795 54.5438 87.5592 54.54 87.7411H57.66Z" fill="black" stroke="black" stroke-width="0.25" stroke-miterlimit="10"/>
<path d="M62.7398 86.8688C62.6204 86.7228 62.4745 86.6007 62.3098 86.5088C62.113 86.4044 61.8925 86.3527 61.6698 86.3588C61.4569 86.3551 61.2467 86.4068 61.0598 86.5088C60.9813 86.549 60.916 86.6108 60.8717 86.6871C60.8273 86.7633 60.8059 86.8507 60.8098 86.9388C60.8055 87.0069 60.8158 87.0751 60.8399 87.1389C60.864 87.2027 60.9015 87.2606 60.9498 87.3088C61.0518 87.4105 61.1746 87.4889 61.3098 87.5388C61.4474 87.6016 61.5916 87.6485 61.7398 87.6788L62.1398 87.7488C62.3434 87.8001 62.5438 87.8635 62.7398 87.9388C62.9151 88.0075 63.0774 88.1056 63.2198 88.2288C63.3558 88.3477 63.4649 88.4943 63.5398 88.6588C63.6219 88.8512 63.6595 89.0598 63.6498 89.2688C63.6565 89.5334 63.5945 89.7953 63.4698 90.0288C63.3412 90.229 63.1747 90.4023 62.9798 90.5388C62.7754 90.6722 62.5483 90.7671 62.3098 90.8188C62.0574 90.8783 61.7991 90.9085 61.5398 90.9088C61.1502 90.9194 60.7625 90.8514 60.3998 90.7088C60.0489 90.5536 59.7478 90.3044 59.5298 89.9888L60.2798 89.3688C60.4416 89.5335 60.623 89.6779 60.8198 89.7988C61.0372 89.9284 61.2867 89.9942 61.5398 89.9888C61.6663 89.9986 61.7933 89.9986 61.9198 89.9888C62.0375 89.9626 62.1517 89.9223 62.2598 89.8688C62.3526 89.815 62.4341 89.7436 62.4998 89.6588C62.5661 89.5768 62.6014 89.4742 62.5998 89.3688C62.6026 89.232 62.5525 89.0994 62.4598 88.9988C62.3656 88.9042 62.2534 88.8293 62.1298 88.7788C61.9988 88.7191 61.8612 88.6755 61.7198 88.6488L61.3398 88.5588L60.7398 88.3888C60.558 88.3232 60.3863 88.2323 60.2298 88.1188C60.0875 88.0063 59.9686 87.867 59.8798 87.7088C59.7859 87.5125 59.7413 87.2962 59.7498 87.0788C59.7454 86.8315 59.8039 86.5872 59.9198 86.3688C60.0282 86.1689 60.1824 85.9976 60.3698 85.8688C60.5657 85.7352 60.7818 85.634 61.0098 85.5688C61.2438 85.5012 61.4862 85.4676 61.7298 85.4688C62.0729 85.4706 62.4124 85.5385 62.7298 85.6688C63.0516 85.7988 63.322 86.0306 63.4998 86.3288L62.7398 86.8688Z" fill="black" stroke="black" stroke-width="0.25" stroke-miterlimit="10"/>
<path d="M73.59 84.6682C73.3659 84.385 73.0781 84.1589 72.75 84.0082C72.4358 83.8643 72.0955 83.786 71.75 83.7782C71.3368 83.776 70.9279 83.8612 70.55 84.0282C70.2032 84.1901 69.8935 84.4215 69.64 84.7082C69.3823 85.0015 69.1821 85.3408 69.05 85.7082C68.8889 86.1194 68.8041 86.5566 68.8 86.9982C68.7997 87.3967 68.8674 87.7924 69 88.1682C69.1189 88.5373 69.313 88.8778 69.57 89.1682C69.8259 89.4514 70.1397 89.6765 70.49 89.8282C70.8727 90.0021 71.2897 90.0875 71.71 90.0782C72.0995 90.0864 72.4851 89.9996 72.8336 89.8253C73.182 89.6511 73.4828 89.3947 73.71 89.0782L74.6 89.7482C74.5049 89.8719 74.4013 89.9888 74.29 90.0982C74.1163 90.272 73.9215 90.4232 73.71 90.5482C73.4353 90.7126 73.1436 90.8468 72.84 90.9482C72.4546 91.0663 72.0531 91.1237 71.65 91.1182C71.0685 91.0823 70.5035 90.9111 70 90.6182C69.5201 90.3983 69.0885 90.0857 68.73 89.6982C68.0701 88.9517 67.6978 87.9944 67.68 86.9982C67.6735 86.4308 67.7753 85.8674 67.98 85.3382C68.1636 84.8402 68.4459 84.3844 68.81 83.9982C69.1715 83.6248 69.6076 83.3318 70.09 83.1382C70.6151 82.9302 71.1752 82.8249 71.74 82.8282C72.258 82.8295 72.7708 82.9314 73.25 83.1282C73.7316 83.3153 74.1533 83.6299 74.47 84.0382L73.59 84.6682Z" fill="black" stroke="black" stroke-width="0.25" stroke-miterlimit="10"/>
<path d="M79.2501 91.0027C78.6875 91.0067 78.1299 90.8979 77.6101 90.6827C77.1259 90.4927 76.689 90.1992 76.3301 89.8227C75.9701 89.4466 75.685 89.0054 75.4901 88.5227C75.2871 88.0069 75.1853 87.4569 75.1901 86.9027C75.1853 86.3517 75.2872 85.805 75.4901 85.2927C75.685 84.81 75.9701 84.3688 76.3301 83.9927C76.689 83.6162 77.1259 83.3227 77.6101 83.1327C78.6618 82.7058 79.8384 82.7058 80.8901 83.1327C81.373 83.3252 81.8094 83.6184 82.1701 83.9927C82.5335 84.3661 82.819 84.808 83.0101 85.2927C83.213 85.805 83.3149 86.3517 83.3101 86.9027C83.3092 87.4509 83.204 87.9939 83.0001 88.5027C82.809 88.9874 82.5235 89.4293 82.1601 89.8027C81.7994 90.177 81.363 90.4702 80.8801 90.6627C80.3648 90.8834 79.8107 90.999 79.2501 91.0027ZM79.2501 90.0027C79.6666 90.006 80.079 89.9208 80.4601 89.7527C80.8088 89.5937 81.1218 89.3658 81.3801 89.0827C81.6462 88.7938 81.8504 88.4535 81.9801 88.0827C82.2603 87.3038 82.2603 86.4516 81.9801 85.6727C81.8531 85.3007 81.6486 84.9599 81.3801 84.6727C81.1218 84.3896 80.8088 84.1617 80.4601 84.0027C80.0725 83.8319 79.6536 83.7437 79.2301 83.7437C78.8066 83.7437 78.3877 83.8319 78.0001 84.0027C77.6514 84.1617 77.3384 84.3896 77.0801 84.6727C76.8117 84.9599 76.6072 85.3007 76.4801 85.6727C76.1999 86.4516 76.1999 87.3038 76.4801 88.0827C76.6098 88.4535 76.814 88.7938 77.0801 89.0827C77.3384 89.3658 77.6514 89.5937 78.0001 89.7527C78.3935 89.9264 78.8202 90.0118 79.2501 90.0027Z" fill="black" stroke="black" stroke-width="0.25" stroke-miterlimit="10"/>
<path d="M84.29 89.9981L86.57 87.7481L86.8 87.4981C86.8723 87.4124 86.9391 87.3222 87 87.2281C87.0568 87.1297 87.1037 87.0258 87.14 86.9181C87.1552 86.8087 87.1552 86.6976 87.14 86.5881C87.1407 86.4572 87.1134 86.3277 87.06 86.2081C87.0134 86.102 86.9453 86.0067 86.86 85.9281C86.7665 85.8472 86.6577 85.786 86.54 85.7481C86.4191 85.7003 86.2901 85.6765 86.16 85.6781C85.9114 85.6708 85.669 85.7564 85.48 85.9181C85.287 86.0798 85.162 86.3083 85.13 86.5581L84.3 86.4781C84.3305 86.2493 84.4052 86.0285 84.52 85.8281C84.6266 85.6504 84.7657 85.4944 84.93 85.3681C85.0986 85.2447 85.2884 85.1532 85.49 85.0981C85.7114 85.0368 85.9403 85.0065 86.17 85.0081C86.4039 85.0041 86.6369 85.0378 86.86 85.1081C87.0672 85.1714 87.2606 85.2731 87.43 85.4081C87.594 85.5413 87.727 85.7085 87.82 85.8981C87.9162 86.1117 87.964 86.3439 87.96 86.5781C87.961 86.7554 87.9305 86.9315 87.87 87.0981C87.8166 87.2602 87.7427 87.4148 87.65 87.5581C87.5614 87.7053 87.4575 87.8427 87.34 87.9681L86.97 88.3481L85.11 90.1481H88V90.8181H84.29V89.9981Z" fill="black" stroke="black" stroke-width="0.25" stroke-miterlimit="10"/>
<path d="M40.3602 95H41.3602L44.7002 102.79H43.4202L42.6302 100.86H38.9302L38.1602 102.79H36.9302L40.3602 95ZM42.2502 99.94L40.8002 96.36L39.3002 99.93L42.2502 99.94Z" fill="black" stroke="black" stroke-width="0.25" stroke-miterlimit="10"/>
<path d="M45.5798 97.5632H46.5798V98.3732C46.7161 98.0814 46.9445 97.8425 47.2298 97.6932C47.5006 97.5532 47.7967 97.4687 48.1007 97.4446C48.4046 97.4206 48.7103 97.4575 48.9998 97.5532C49.2267 97.6212 49.4329 97.745 49.5998 97.9132C49.7821 98.0857 49.9224 98.2978 50.0098 98.5332C50.1239 98.8156 50.1784 99.1186 50.1698 99.4232V102.783H49.1698V99.7032C49.1765 99.492 49.1425 99.2815 49.0698 99.0832C49.0143 98.9261 48.9256 98.7829 48.8098 98.6632C48.702 98.559 48.5721 98.4804 48.4298 98.4332C48.2846 98.3856 48.1326 98.362 47.9798 98.3632C47.7851 98.3587 47.5914 98.3926 47.4098 98.4632C47.2327 98.5259 47.0744 98.6326 46.9498 98.7732C46.8042 98.9254 46.6979 99.1107 46.6398 99.3132C46.5578 99.5682 46.5206 99.8354 46.5298 100.103V102.783H45.5298L45.5798 97.5632Z" fill="black" stroke="black" stroke-width="0.25" stroke-miterlimit="10"/>
<path d="M51.78 97.5601H52.78V98.3701C52.9131 98.0761 53.1424 97.8363 53.43 97.6901C53.7548 97.5128 54.1201 97.4232 54.49 97.4301C54.735 97.4293 54.9784 97.4699 55.21 97.5501C55.4408 97.6158 55.6509 97.7398 55.82 97.9101C56.0023 98.0826 56.1426 98.2947 56.23 98.5301C56.3392 98.8139 56.3935 99.1159 56.39 99.4201V102.78H55.39V99.7001C55.3919 99.4892 55.358 99.2796 55.29 99.0801C55.2313 98.9223 55.1392 98.779 55.02 98.6601C54.9138 98.5538 54.7834 98.4749 54.64 98.4301C54.4984 98.3818 54.3496 98.3581 54.2 98.3601C54.0053 98.3556 53.8116 98.3895 53.63 98.4601C53.4511 98.525 53.2901 98.6312 53.16 98.7701C53.0213 98.9257 52.9189 99.1101 52.86 99.3101C52.778 99.5651 52.7408 99.8323 52.75 100.1V102.78H51.75L51.78 97.5601Z" fill="black" stroke="black" stroke-width="0.25" stroke-miterlimit="10"/>
<path d="M62.5699 102.783H61.5699V102.003C61.4272 102.287 61.2003 102.521 60.9199 102.673C60.6446 102.815 60.3434 102.902 60.0341 102.926C59.7249 102.95 59.414 102.911 59.1199 102.812C58.8974 102.739 58.693 102.62 58.5199 102.463C58.3397 102.288 58.1997 102.077 58.1099 101.842C58.0051 101.554 57.9543 101.249 57.9599 100.943V97.5625H58.9599V100.643C58.9532 100.857 58.9871 101.071 59.0599 101.272C59.1116 101.428 59.2009 101.569 59.3199 101.683C59.4267 101.79 59.5567 101.872 59.6999 101.923C59.8459 101.967 59.9974 101.99 60.1499 101.993C60.344 101.99 60.5365 101.956 60.7199 101.893C60.8963 101.824 61.054 101.714 61.1799 101.573C61.3185 101.415 61.4239 101.232 61.4899 101.033C61.5664 100.78 61.6035 100.517 61.5999 100.253V97.5625H62.5999L62.5699 102.783Z" fill="black" stroke="black" stroke-width="0.25" stroke-miterlimit="10"/>
<path d="M64.1402 98.201C64.4309 97.942 64.7711 97.7447 65.1402 97.621C65.4945 97.4997 65.8658 97.4356 66.2402 97.431C66.5798 97.4208 66.9185 97.4716 67.2402 97.581C67.4911 97.6582 67.7229 97.7877 67.9202 97.961C68.0938 98.1132 68.2277 98.3054 68.3102 98.521C68.3993 98.7259 68.4436 98.9475 68.4402 99.171V101.831C68.4402 102.021 68.4402 102.191 68.4402 102.341V102.781H67.5602C67.5602 102.521 67.5602 102.251 67.5602 101.991C67.3708 102.295 67.1008 102.541 66.7802 102.701C66.465 102.839 66.1245 102.911 65.7802 102.911C65.5464 102.914 65.3136 102.88 65.0902 102.811C64.8789 102.755 64.6814 102.657 64.5102 102.521C64.2976 102.395 64.1217 102.216 64.0002 102.001C63.9003 101.789 63.8523 101.556 63.8602 101.321C63.8477 101.022 63.9243 100.726 64.0802 100.471C64.2398 100.241 64.4525 100.052 64.7002 99.921C64.9826 99.7642 65.2908 99.6592 65.6102 99.611C65.98 99.5457 66.3547 99.5122 66.7302 99.511H67.4502V99.291C67.4513 99.1577 67.4276 99.0255 67.3802 98.901C67.3265 98.7678 67.2485 98.6457 67.1502 98.541C67.0387 98.4318 66.9059 98.3467 66.7602 98.291C66.5848 98.2235 66.3982 98.1896 66.2102 98.191C66.0416 98.1881 65.8734 98.2083 65.7102 98.251C65.5762 98.2855 65.4456 98.3324 65.3202 98.391C65.2069 98.4423 65.0995 98.5061 65.0002 98.581L64.7302 98.791L64.1402 98.201ZM66.9402 100.271C66.7004 100.256 66.46 100.256 66.2202 100.271C65.9882 100.293 65.7598 100.343 65.5402 100.421C65.3536 100.482 65.1852 100.588 65.0502 100.731C64.9864 100.797 64.9366 100.876 64.904 100.962C64.8713 101.047 64.8564 101.139 64.8602 101.231C64.8492 101.356 64.8711 101.482 64.9237 101.596C64.9763 101.71 65.0579 101.808 65.1602 101.881C65.4083 102.026 65.6933 102.095 65.9802 102.081C66.2177 102.086 66.4534 102.038 66.6702 101.941C66.8511 101.861 67.0092 101.737 67.1302 101.581C67.2514 101.438 67.3401 101.271 67.3902 101.091C67.4387 100.919 67.4622 100.74 67.4602 100.561V100.231L66.9402 100.271Z" fill="black" stroke="black" stroke-width="0.25" stroke-miterlimit="10"/>
<path d="M70 94.4609H71V102.781H70V94.4609Z" fill="black" stroke="black" stroke-width="0.25" stroke-miterlimit="10"/>
<path d="M72.6201 94.4609H73.6201V102.781H72.6201V94.4609Z" fill="black" stroke="black" stroke-width="0.25" stroke-miterlimit="10"/>
<path d="M74.6299 97.5625H75.7799L77.3199 101.632L78.7999 97.5625H79.8599L77.3899 103.903C77.3102 104.115 77.2167 104.322 77.1099 104.522C77.025 104.701 76.9099 104.863 76.7699 105.003C76.6362 105.137 76.4762 105.243 76.2999 105.312C76.0781 105.389 75.8446 105.427 75.6099 105.423C75.4634 105.432 75.3164 105.432 75.1699 105.423C75.0198 105.401 74.8723 105.364 74.7299 105.312L74.8499 104.403C75.0389 104.485 75.2436 104.526 75.4499 104.522C75.5792 104.527 75.7083 104.507 75.8299 104.463C75.9349 104.428 76.0306 104.37 76.1099 104.293C76.1844 104.211 76.2482 104.12 76.2999 104.022C76.3499 103.922 76.3999 103.803 76.4499 103.673L76.7699 102.842L74.6299 97.5625Z" fill="black" stroke="black" stroke-width="0.25" stroke-miterlimit="10"/>
<path d="M26.1502 21.4872C26.4993 22.1685 26.9818 22.7726 27.5691 23.2637C28.1564 23.7547 28.8364 24.1227 29.5687 24.3456C30.3011 24.5686 31.0707 24.642 31.832 24.5616C32.5933 24.4811 33.3306 24.2484 34.0002 23.8772C35.2131 23.2359 36.1695 22.1983 36.7102 20.9372L35.0002 17.7172L31.1602 19.7772L29.7902 17.2172L36.5102 13.6072L40.0702 20.2472C39.8065 21.5767 39.2424 22.8284 38.4208 23.9064C37.5993 24.9845 36.5421 25.8604 35.3302 26.4672C34.324 27.0582 33.2082 27.4388 32.0506 27.5858C30.8929 27.7329 29.7175 27.6433 28.5955 27.3226C27.4735 27.0019 26.4282 26.4567 25.5232 25.7201C24.6181 24.9835 23.872 24.0707 23.3302 23.0372C22.7582 22.0212 22.399 20.8993 22.2746 19.74C22.1502 18.5806 22.2631 17.4081 22.6065 16.2938C22.9499 15.1795 23.5165 14.1468 24.2718 13.2585C25.0272 12.3703 25.9555 11.6451 27.0002 11.1272C29.0144 10.0072 31.3869 9.72007 33.6102 10.3272L32.8102 13.3272C32.0779 13.0996 31.3079 13.0186 30.5443 13.0889C29.7807 13.1593 29.0385 13.3796 28.3602 13.7372C27.7024 14.0972 27.1228 14.5843 26.6549 15.1702C26.187 15.756 25.8402 16.4291 25.6346 17.1501C25.4289 17.8711 25.3686 18.6259 25.4572 19.3704C25.5457 20.115 25.7812 20.8345 26.1502 21.4872Z" fill="black"/>
<path d="M46.62 21.9972L43.62 22.8372L39 6.19719L42 5.36719L46.62 21.9972Z" fill="black"/>
<path d="M53.1801 8.80855C54.3821 8.73422 55.5793 9.01616 56.6218 9.61908C57.6643 10.222 58.5057 11.1191 59.0407 12.198C59.5758 13.2769 59.7806 14.4897 59.6295 15.6844C59.4785 16.8792 58.9783 18.0028 58.1917 18.9147C57.405 19.8265 56.3668 20.486 55.2071 20.8105C54.0473 21.135 52.8176 21.1102 51.672 20.7391C50.5263 20.368 49.5156 19.6671 48.7664 18.7242C48.0172 17.7814 47.5628 16.6384 47.4601 15.4385C47.3892 14.6254 47.4819 13.8063 47.7328 13.0296C47.9836 12.2529 48.3876 11.5343 48.9208 10.9163C49.454 10.2983 50.1056 9.79333 50.8371 9.43133C51.5687 9.06932 52.3654 8.85756 53.1801 8.80855ZM54.0001 18.0985C54.4165 18.0693 54.8224 17.9553 55.1931 17.7634C55.5637 17.5715 55.8911 17.3058 56.1553 16.9826C56.4194 16.6595 56.6147 16.2857 56.729 15.8843C56.8433 15.4829 56.8743 15.0624 56.8201 14.6485C56.786 14.2428 56.6723 13.8477 56.4854 13.4858C56.2986 13.124 56.0423 12.8025 55.7312 12.5397C55.4202 12.2769 55.0604 12.078 54.6724 11.9543C54.2845 11.8305 53.8759 11.7844 53.4701 11.8185C53.0643 11.8527 52.6693 11.9664 52.3074 12.1533C51.9456 12.3401 51.6241 12.5964 51.3613 12.9074C51.0985 13.2185 50.8996 13.5783 50.7758 13.9663C50.6521 14.3542 50.606 14.7628 50.6401 15.1685C50.6573 15.5854 50.7592 15.9944 50.9397 16.3706C51.1201 16.7467 51.3754 17.0821 51.6898 17.3563C52.0043 17.6305 52.3713 17.8378 52.7685 17.9654C53.1658 18.093 53.5848 18.1383 54.0001 18.0985Z" fill="black"/>
<path d="M61.5898 20.3619L64.5898 3.42188L67.6898 3.96187L66.6098 10.1619C67.6509 9.61698 68.8458 9.44074 69.9998 9.66187C70.7663 9.81202 71.4952 10.1131 72.1442 10.5476C72.7932 10.982 73.3493 11.5413 73.7802 12.1927C74.211 12.8441 74.508 13.5747 74.6539 14.3419C74.7998 15.1092 74.7916 15.8978 74.6298 16.6619C74.3769 18.1494 73.6 19.4972 72.4398 20.4619C71.7857 20.9861 71.027 21.3643 70.2146 21.5713C69.4023 21.7783 68.5551 21.8092 67.7298 21.6619C66.5557 21.461 65.4918 20.8475 64.7298 19.9319L64.5698 20.8619L61.5898 20.3619ZM65.3998 16.8419C65.6358 17.3439 65.9903 17.781 66.4328 18.1155C66.8753 18.45 67.3925 18.6718 67.9398 18.7619C68.3496 18.8388 68.7708 18.8312 69.1775 18.7395C69.5843 18.6478 69.968 18.4739 70.3051 18.2286C70.6422 17.9832 70.9256 17.6716 71.138 17.3127C71.3503 16.9539 71.4871 16.5555 71.5398 16.1419C71.6316 15.7394 71.6411 15.3226 71.5675 14.9164C71.494 14.5103 71.3391 14.1232 71.1121 13.7785C70.8851 13.4337 70.5906 13.1385 70.2466 12.9105C69.9025 12.6825 69.5158 12.5265 69.1098 12.4519C68.5548 12.3517 67.9841 12.3837 67.4437 12.5453C66.9034 12.7069 66.4087 12.9935 65.9998 13.3819L65.3998 16.8419Z" fill="black"/>
<path d="M85.0001 27.7824L82.3001 26.4924L82.7001 25.6424C81.5452 25.9598 80.3141 25.8424 79.2401 25.3124C78.4805 24.9585 77.8055 24.4461 77.2604 23.8097C76.7154 23.1732 76.3129 22.4274 76.0801 21.6224C75.6879 20.168 75.8298 18.6212 76.4801 17.2624C76.7866 16.5417 77.2336 15.8893 77.795 15.3431C78.3563 14.797 79.0207 14.3681 79.7496 14.0814C80.4784 13.7947 81.257 13.656 82.04 13.6733C82.823 13.6907 83.5947 13.8637 84.3101 14.1824C85.4442 14.7032 86.363 15.6007 86.9101 16.7224L87.3101 15.8724L90.0501 17.1624L85.0001 27.7824ZM85.4201 19.5424C85.3092 18.9906 85.0706 18.4725 84.7232 18.0296C84.3759 17.5868 83.9296 17.2315 83.4201 16.9924C83.0451 16.82 82.6392 16.7252 82.2266 16.7137C81.8141 16.7023 81.4035 16.7744 81.0195 16.9257C80.6356 17.0771 80.2862 17.3045 79.9924 17.5944C79.6986 17.8842 79.4665 18.2305 79.3101 18.6124C79.1158 18.9805 78.9986 19.3843 78.9657 19.7991C78.9327 20.214 78.9848 20.6312 79.1186 21.0253C79.2525 21.4194 79.4653 21.782 79.7441 22.091C80.0229 22.4 80.3618 22.6489 80.7401 22.8224C81.2403 23.0647 81.7918 23.1822 82.3474 23.1648C82.9029 23.1473 83.446 22.9956 83.9301 22.7224L85.4201 19.5424Z" fill="black"/>
<path d="M89.3098 31.1138L86.7598 29.2537L96.8798 15.3438L99.4298 17.1938L89.3098 31.1138Z" fill="black"/>
<path d="M13 113.102L29.37 104.602L31.15 106.062L26 123.782L23.36 121.612L24.51 117.702L19.25 113.382L15.63 115.272L13 113.102ZM22.06 111.912L25.39 114.652L26.9 109.412L22.06 111.912Z" fill="black"/>
<path d="M34.23 122.381L40.23 117.271L43.18 118.671L33.27 127.001L31.27 126.071L31.39 113.141L34.39 114.541L34.23 122.381Z" fill="black"/>
<path d="M50.6799 130.242C49.9414 130.768 49.0986 131.129 48.2084 131.302C47.3183 131.474 46.4015 131.454 45.5199 131.242C44.7222 131.103 43.9619 130.801 43.2867 130.354C42.6115 129.907 42.0361 129.325 41.5965 128.646C41.157 127.966 40.8629 127.202 40.7326 126.403C40.6024 125.604 40.639 124.786 40.8399 124.002C41.5499 120.802 44.3399 118.502 47.7499 119.252C48.4891 119.438 49.1837 119.769 49.7927 120.228C50.4016 120.686 50.9127 121.261 51.2957 121.92C51.6788 122.579 51.926 123.308 52.0229 124.064C52.1198 124.82 52.0644 125.588 51.8599 126.322C51.7969 126.616 51.7065 126.904 51.5899 127.182L43.6499 125.422C43.5527 126.199 43.7565 126.985 44.2194 127.617C44.6823 128.249 45.3694 128.68 46.1399 128.822C46.6885 128.928 47.2528 128.922 47.7991 128.806C48.3455 128.689 48.8627 128.463 49.3199 128.142L50.6799 130.242ZM49.0199 124.242C49.0773 123.673 48.9236 123.103 48.588 122.64C48.2524 122.178 47.7584 121.854 47.1999 121.732C46.6207 121.596 46.0121 121.668 45.4802 121.934C44.9484 122.201 44.5272 122.646 44.2899 123.192L49.0199 124.242Z" fill="black"/>
<path d="M61.2199 123.477C60.8503 123.385 60.4708 123.337 60.0899 123.337C59.5086 123.344 58.9385 123.497 58.4318 123.782C57.9251 124.067 57.498 124.474 57.1899 124.967L56.9999 132.347L53.8599 132.277L54.1199 120.537L57.1199 120.607V121.787C57.5638 121.327 58.1019 120.968 58.6973 120.735C59.2928 120.502 59.9315 120.4 60.5699 120.437C60.9258 120.45 61.2801 120.49 61.6299 120.557L61.2199 123.477Z" fill="black"/>
<path d="M75.4698 130.251L72.4698 130.811L72.2998 129.881C71.5532 130.824 70.4849 131.457 69.2998 131.661C68.4763 131.818 67.6288 131.799 66.8134 131.604C65.998 131.409 65.2332 131.043 64.5698 130.531C63.395 129.584 62.6 128.246 62.3298 126.761C62.1535 125.998 62.1312 125.207 62.2644 124.434C62.3976 123.662 62.6835 122.925 63.1053 122.264C63.5272 121.604 64.0765 121.035 64.7212 120.589C65.3659 120.144 66.0929 119.832 66.8598 119.671C68.0849 119.422 69.3583 119.61 70.4598 120.201L70.2798 119.271L73.2798 118.711L75.4698 130.251ZM70.9998 123.341C70.5846 122.957 70.0849 122.677 69.5411 122.522C68.9973 122.367 68.4247 122.343 67.8698 122.451C67.0576 122.641 66.3514 123.14 65.9008 123.842C65.4501 124.544 65.2905 125.394 65.4556 126.212C65.6206 127.029 66.0975 127.751 66.7852 128.223C67.4729 128.695 68.3174 128.881 69.1398 128.741C69.6895 128.638 70.2056 128.401 70.6431 128.053C71.0806 127.704 71.4262 127.254 71.6498 126.741L70.9998 123.341Z" fill="black"/>
<path d="M89.8098 123.32C90.5855 124.645 90.9085 126.186 90.7298 127.71C90.5104 128.678 90.0629 129.58 89.4245 130.34C88.7862 131.1 87.9754 131.697 87.0598 132.08C86.109 132.543 85.0732 132.805 84.0168 132.849C82.9605 132.894 81.9062 132.721 80.9198 132.34L81.8198 129.63C82.4513 129.91 83.1358 130.049 83.8263 130.039C84.5169 130.029 85.1969 129.869 85.8198 129.57C86.2335 129.405 86.6052 129.15 86.9079 128.823C87.2106 128.496 87.4367 128.106 87.5698 127.68C87.7666 126.712 87.5725 125.706 87.0298 124.88L86.8698 124.53C86.3642 125.552 85.5244 126.371 84.4898 126.85C83.7316 127.214 82.9053 127.415 82.0646 127.439C81.2239 127.463 80.3876 127.31 79.6098 126.99C78.2385 126.373 77.1347 125.283 76.4998 123.92C76.1365 123.229 75.914 122.473 75.8452 121.695C75.7764 120.918 75.8626 120.134 76.0989 119.39C76.3352 118.646 76.7168 117.956 77.2216 117.36C77.7264 116.765 78.3444 116.275 79.0398 115.92C80.1606 115.363 81.441 115.214 82.6598 115.5L82.2498 114.65L84.9998 113.32L89.8098 123.32ZM83.9998 118.39C83.4951 118.139 82.9388 118.007 82.3748 118.007C81.8107 118.007 81.2544 118.139 80.7498 118.39C80.0416 118.8 79.5159 119.463 79.2792 120.246C79.0425 121.029 79.1126 121.873 79.4754 122.606C79.8381 123.339 80.4663 123.907 81.2323 124.193C81.9983 124.48 82.8447 124.465 83.5998 124.15C84.0993 123.911 84.5343 123.555 84.8683 123.114C85.2023 122.672 85.4257 122.156 85.5198 121.61L83.9998 118.39Z" fill="black"/>
<path d="M100.47 113.498C100.433 114.404 100.203 115.291 99.7939 116.1C99.3851 116.909 98.8075 117.621 98.1002 118.188C97.4976 118.737 96.7872 119.155 96.0143 119.414C95.2414 119.674 94.4229 119.769 93.6111 119.695C92.7992 119.62 92.0116 119.378 91.2987 118.982C90.5858 118.587 89.963 118.047 89.4702 117.398C87.3902 114.878 87.2902 111.258 89.9802 109.038C92.4802 106.968 95.9802 107.618 98.0802 110.138C98.2735 110.368 98.4443 110.615 98.5902 110.878L92.3102 116.058C92.8659 116.611 93.6109 116.932 94.3945 116.956C95.178 116.98 95.9415 116.705 96.5302 116.188C96.9595 115.823 97.311 115.376 97.5636 114.872C97.8162 114.369 97.9646 113.82 98.0002 113.258L100.47 113.498ZM94.7002 111.108C94.2843 110.713 93.7387 110.484 93.166 110.464C92.5932 110.444 92.0328 110.634 91.5902 110.998C91.1319 111.374 90.8186 111.898 90.7037 112.48C90.5888 113.062 90.6794 113.665 90.9602 114.188L94.7002 111.108Z" fill="black"/>
<path d="M13.0801 104.327C5.27296 93.5462 1.56704 80.3338 2.62832 67.065C3.68961 53.7961 9.44852 41.3408 18.8701 31.9375" stroke="black" stroke-width="4.95" stroke-miterlimit="10"/>
<path d="M98 31.9375C107.114 41.0529 112.804 53.0332 114.11 65.8567C115.416 78.6802 112.258 91.5617 105.17 102.327" stroke="black" stroke-width="4.95" stroke-miterlimit="10"/>
</g>
<defs>
<clipPath id="clip0_141_172">
<rect width="116.91" height="138.39" fill="white"/>
</clipPath>
</defs>
</svg>
