<svg xmlns="http://www.w3.org/2000/svg" viewBox="0 0 62.98 78.53"><defs><style>.cls-1{fill:#ffc5ff;}</style></defs><g id="Layer_2" data-name="Layer 2"><g id="Layer_1-2" data-name="Layer 1"><path class="cls-1" d="M3.49,69.23H59.15c1.25,0,1.25,0,1.25-1.23V19.68c0-.87,0-.87-.88-.87H3.37c-.85,0-.86,0-.86.82q0,11.79,0,23.58,0,12.52,0,25.06C2.51,69.23,2.51,69.23,3.49,69.23ZM32.32,23.44A19.75,19.75,0,1,1,12.57,43.16,19.68,19.68,0,0,1,32.32,23.44Z"></path><path class="cls-1" d="M31.07,8.57a.87.87,0,0,0-.87.83,1,1,0,0,0,.89.91,1,1,0,0,0,.84-.9A.87.87,0,0,0,31.07,8.57Z"></path><path class="cls-1" d="M59.05,71.75c-7.13,0-14.26,0-21.39,0h-22c-.83,0-.84,0-.84.86V75c0,1,0,1,1,1H59.35c.16,0,.32,0,.48,0,.43,0,.58-.17.57-.58,0-.75,0-1.51,0-2.26C60.37,71.57,60.67,71.75,59.05,71.75Z"></path><path class="cls-1" d="M3,16.26c3,0,6.06,0,9.09,0v0c3,0,6,0,9,0,.51,0,.72-.14.72-.69,0-4.11,0-8.21,0-12.32,0-.45-.13-.65-.62-.65H3.12c-.46,0-.62.17-.59.61,0,.2,0,.4,0,.6q0,5.78,0,11.53c0,.16,0,.32,0,.48C2.54,16.12,2.67,16.26,3,16.26ZM7.32,5.1H17.61A1.22,1.22,0,0,1,19,6.39c0,.78-.47,1.21-1.35,1.22H7.33c-.88,0-1.43-.49-1.43-1.23A1.34,1.34,0,0,1,7.32,5.1Z"></path><path class="cls-1" d="M32.87,60.39A17.21,17.21,0,1,0,15.12,43.17,17.29,17.29,0,0,0,32.87,60.39Zm-.16-32.95A15.77,15.77,0,1,1,16.55,43.18,15.75,15.75,0,0,1,32.71,27.44Z"></path><path class="cls-1" d="M32.27,56.41A13.21,13.21,0,1,0,19.1,43.25,13.21,13.21,0,0,0,32.27,56.41Zm.36-23.88h0a10.75,10.75,0,0,1,9.57,6.71A10.26,10.26,0,0,1,43,43.11a1.25,1.25,0,1,1-2.49.06,8.24,8.24,0,0,0-3.57-6.67,7.57,7.57,0,0,0-4.39-1.43A1.37,1.37,0,0,1,31,33.8C31.05,33,31.63,32.52,32.63,32.53Z"></path><path class="cls-1" d="M12.23,72.33c0-.45-.18-.6-.62-.59-2.82,0-5.64,0-8.46,0-.48,0-.66.13-.64.62,0,1,0,1.95,0,2.92,0,.51.19.67.68.67,1.4,0,2.8,0,4.2,0s2.8,0,4.2,0c.48,0,.65-.17.64-.64C12.21,74.32,12.21,73.33,12.23,72.33Z"></path><path class="cls-1" d="M59.6,2.59q-17.19,0-34.38,0c-.62,0-.81.19-.8.8,0,4,0,8,0,12,0,.89,0,.91.93.91H48.21l11.76,0c.43,0,.45-.21.45-.53q0-6.16,0-12.32C60.4,2.6,60.39,2.59,59.6,2.59ZM31,12.82a3.3,3.3,0,0,1-3.32-3.44,3.4,3.4,0,1,1,6.79.07A3.33,3.33,0,0,1,31,12.82Zm8.19,0a3.37,3.37,0,0,1-3.33-3.42A3.44,3.44,0,0,1,39.3,6a3.51,3.51,0,0,1,3.42,3.44A3.46,3.46,0,0,1,39.18,12.84Zm8.25,0A3.43,3.43,0,0,1,44,9.34,3.51,3.51,0,0,1,47.52,6,3.45,3.45,0,0,1,50.9,9.49,3.42,3.42,0,0,1,47.43,12.84Z"></path><path class="cls-1" d="M47.46,8.57a.86.86,0,0,0,0,1.72.88.88,0,0,0,.82-.89A.8.8,0,0,0,47.46,8.57Z"></path><path class="cls-1" d="M39.23,8.57a.8.8,0,0,0-.78.89.86.86,0,0,0,.86.84.94.94,0,0,0,.81-.92A.88.88,0,0,0,39.23,8.57Z"></path><path d="M61.14,0H1.82C.4,0,0,.39,0,1.8V76.72c0,1.42.4,1.81,1.81,1.81H61.07c1.55,0,1.91-.36,1.91-1.89Q63,58,63,39.27T63,1.84C63,.39,62.6,0,61.14,0ZM2.52,3.79c0-.2,0-.4,0-.6,0-.44.13-.61.59-.61H21.23c.49,0,.62.2.62.65,0,4.11,0,8.21,0,12.32,0,.55-.21.69-.72.69-3,0-6,0-9,0v0c-3,0-6.06,0-9.09,0-.35,0-.48-.14-.49-.46,0-.16,0-.32,0-.48Q2.51,9.56,2.52,3.79Zm0,15.84c0-.82,0-.82.86-.82H59.52c.88,0,.88,0,.88.87V68c0,1.23,0,1.23-1.25,1.23H3.49c-1,0-1,0-1-1q0-12.54,0-25.06Q2.53,31.42,2.51,19.63ZM11.59,76c-1.4,0-2.8,0-4.2,0s-2.8,0-4.2,0c-.49,0-.7-.16-.68-.67,0-1,0-2,0-2.92,0-.49.16-.62.64-.62,2.82,0,5.64,0,8.46,0,.44,0,.63.14.62.59,0,1,0,2,0,3C12.24,75.79,12.07,76,11.59,76Zm48.24,0c-.16,0-.32,0-.48,0H15.77c-1,0-1,0-1-1V72.6c0-.85,0-.86.84-.86h22c7.13,0,14.26,0,21.39,0,1.62,0,1.32-.18,1.35,1.36,0,.75,0,1.51,0,2.26C60.41,75.78,60.26,76,59.83,76ZM60,16.27l-11.76,0H25.35c-.91,0-.93,0-.93-.91,0-4,0-8,0-11.95,0-.61.18-.8.8-.8q17.19,0,34.38,0c.79,0,.8,0,.8.83q0,6.17,0,12.32C60.42,16.06,60.4,16.27,60,16.27Z"></path><path d="M32,62.94A19.75,19.75,0,1,0,12.57,43.16,19.68,19.68,0,0,0,32,62.94ZM31.83,26A17.21,17.21,0,1,1,15.12,43.17,17.3,17.3,0,0,1,31.83,26Z"></path><path d="M39.3,6a3.44,3.44,0,0,0-3.45,3.45,3.37,3.37,0,0,0,3.33,3.42,3.46,3.46,0,0,0,3.54-3.43A3.51,3.51,0,0,0,39.3,6Zm0,4.33a.86.86,0,0,1-.86-.84.8.8,0,0,1,.78-.89.88.88,0,0,1,.89.81A.94.94,0,0,1,39.31,10.3Z"></path><path d="M47.52,6A3.51,3.51,0,0,0,44,9.34,3.43,3.43,0,1,0,47.52,6Zm0,4.32a.86.86,0,0,1,0-1.72.8.8,0,0,1,.85.83A.88.88,0,0,1,47.49,10.29Z"></path><path d="M31.06,6a3.4,3.4,0,0,0-3.39,3.41A3.3,3.3,0,0,0,31,12.82a3.33,3.33,0,0,0,3.47-3.37A3.42,3.42,0,0,0,31.06,6Zm0,4.34a1,1,0,0,1-.89-.91.87.87,0,0,1,1.73,0A1,1,0,0,1,31.09,10.31Z"></path><path d="M7.33,7.61H17.62C18.5,7.6,19,7.17,19,6.39A1.22,1.22,0,0,0,17.61,5.1H7.32A1.34,1.34,0,0,0,5.9,6.38C5.9,7.12,6.45,7.6,7.33,7.61Z"></path><path d="M32.26,59A15.77,15.77,0,1,0,16.55,43.18,15.83,15.83,0,0,0,32.26,59Zm.08-29A13.21,13.21,0,1,1,19.1,43.25,13.23,13.23,0,0,1,32.34,30Z"></path><path d="M32.52,35.07a7.57,7.57,0,0,1,4.39,1.43,8.24,8.24,0,0,1,3.57,6.67A1.25,1.25,0,1,0,43,43.11a10.26,10.26,0,0,0-.72-3.87,10.75,10.75,0,0,0-9.57-6.71h0c-1,0-1.58.46-1.6,1.27A1.37,1.37,0,0,0,32.52,35.07Z"></path><path d="M32.68,32.53Z"></path></g></g></svg>