<?xml version="1.0" encoding="UTF-8"?>
<!-- Generated by Pixelmator Pro 3.6.8 -->
<svg width="8000" height="1389" viewBox="0 0 8000 1389" xmlns="http://www.w3.org/2000/svg">
    <path id="Path-copy" fill="#a1ede9" stroke="none" d="M 0.119263 442.050781 C 36.666382 446.410156 77.655518 448.25 124.647339 446.6875 C 486.1297 434.679688 479.843933 245.441406 841.326233 233.433594 C 1202.814819 221.425781 1209.100708 410.664063 1570.591431 398.65625 C 1932.099976 386.648438 1925.814087 197.410156 2287.323242 185.402344 C 2648.838135 173.394531 2655.124023 362.632813 3016.63916 350.625 C 3378.142578 338.617188 3371.856689 149.378906 3733.360352 137.371094 C 4094.878906 125.363281 4101.164063 314.601563 4462.682617 302.59375 C 4824.181152 290.585938 4817.89502 101.34375 5179.393066 89.335938 C 5540.896973 77.328125 5547.182617 266.570313 5908.687012 254.558594 C 6270.207031 242.550781 6263.920898 53.3125 6625.441895 41.304688 C 6986.950684 29.296875 6993.236816 218.535156 7354.746094 206.527344 C 7690.995117 195.355469 7708.192383 41.785156 7999 0 C 7998.510254 59.734375 7999 1389 7999 1389 L 0.269897 1388.878906 C 0.269897 1388.878906 0.181422 571.917969 0.119263 442.050781 Z"/>
</svg>
