<svg xmlns="http://www.w3.org/2000/svg" id="Layer_1" data-name="Layer 1" viewBox="0 0 223.73 186.17"><defs><style>.cls-1{fill:#fdd805;}.cls-1,.cls-2,.cls-3,.cls-4,.cls-5,.cls-6{stroke:#000;}.cls-1,.cls-2,.cls-3,.cls-4,.cls-5{stroke-linecap:round;}.cls-1,.cls-3,.cls-6{stroke-linejoin:round;}.cls-1,.cls-2,.cls-3,.cls-5,.cls-6{stroke-width:2.87px;}.cls-2{fill:#fff;}.cls-2,.cls-4,.cls-5{stroke-miterlimit:10;}.cls-3{fill:#7ff2e8;}.cls-4{stroke-width:1.92px;}.cls-6{fill:#ffc0ff;}</style></defs><polygon class="cls-1" points="199.81 184.73 23.51 184.73 23.51 78.57 1.44 78.43 108.99 1.44 222.29 77.77 199.81 78.57 199.81 184.73"></polygon><polygon class="cls-2" points="116.17 131.1 81.13 130.85 82.48 135.53 117.49 135.78 116.17 131.1"></polygon><polygon class="cls-2" points="53.71 106.8 61.83 135.38 82.48 135.53 81.13 130.85 64.87 130.73 58.41 106.83 53.71 106.8"></polygon><polyline class="cls-3" points="86.79 107.03 58.41 106.83 64.87 130.73 93.58 130.94 87.06 107.04 86.76 106.82"></polyline><path class="cls-2" d="M141.24,105.17l-.1-.27A10.29,10.29,0,0,0,136,99l-.07,0a9.44,9.44,0,0,1-2.79-2.11,10.35,10.35,0,0,1-.87-1.08,9.6,9.6,0,0,1-1.07-2.21l-.16-.47-3.32.48a1.72,1.72,0,0,1-2-1.45h0v-.06a1.75,1.75,0,0,1,1.45-2l2.68-.39-2.51-7.43L144.1,79.4l2.53,9.45a12.76,12.76,0,0,1-.64,7.33l-.05.13a13,13,0,0,0-.56,8.25" transform="translate(-4.42 -3.59)"></path><path class="cls-2" d="M111.13,188.32l26-.37L136.49,171H124.68l-1.86,8.52-12.23.46a4.19,4.19,0,0,0-3.92,4.28A4.26,4.26,0,0,0,111.13,188.32Z" transform="translate(-4.42 -3.59)"></path><circle cx="129.45" cy="84.55" r="1.61"></circle><circle class="cls-4" cx="144.07" cy="69.21" r="7.85"></circle><path class="cls-1" d="M163.61,144.72l-31-14.64s-5.83-2.69-10.85.87a11.26,11.26,0,0,0-4.72,8.44l.79,32.4,18.64.07-.92-23.65,12.9,6a11.17,11.17,0,0,0,10.67-1.53A10.88,10.88,0,0,0,163.61,144.72Z" transform="translate(-4.42 -3.59)"></path><path class="cls-5" d="M134.08,121.12l.13-.07,1-.44-5.56-7.93,9.68-7.2s5.08-4.34,10.85-1.78a11,11,0,0,1,6.45,7.59l5.88,26.3.82,3.69.28,1.8v1.66l-27.12-12.92Z" transform="translate(-4.42 -3.59)"></path><path class="cls-2" d="M130.35,112.63l-11.54,11.63-2.27-2.82a5.85,5.85,0,0,0-2.86-2c-1.85-.56-3.83.89-4.45,1.4l-5.56,4.43s-2.26,2.15-.31,4.35a3.24,3.24,0,0,0,3.87,0l2.1-1.73,4.28,5a7.22,7.22,0,0,0,3.72,2c2.43.52,4.7-.94,6.1-2.25l13.58-13Z" transform="translate(-4.42 -3.59)"></path><path class="cls-2" d="M133.1,96.85A6.37,6.37,0,0,0,139,94.13" transform="translate(-4.42 -3.59)"></path><polygon points="127.26 79.42 138.87 77.45 140.55 83.73 127.26 79.42"></polygon><path d="M142.59,82.13l1,3.74-7.91-2.56,6.91-1.18M144,80l-16.31,2.78,18.67,6L144,80Z" transform="translate(-4.42 -3.59)"></path><polygon class="cls-6" points="161.65 152.29 135.92 152.29 135.92 184.73 192.02 184.73 192.02 107.43 161.51 107.43 161.65 152.29"></polygon><polygon class="cls-6" points="109 135.7 30.75 135.7 30.75 184.73 44.73 184.73 45.04 147.72 95.49 148.34 95.49 184.73 109 184.73 109 135.7"></polygon></svg>