<svg xmlns="http://www.w3.org/2000/svg" viewBox="0 0 49.05 68.59"><defs><style>.cls-1{fill:#9ef2ea;}</style></defs><g id="Layer_2" data-name="Layer 2"><g id="Layer_1-2" data-name="Layer 1"><g id="VVDfZD"><path d="M27,63.69H39.15a2.49,2.49,0,0,1,2.53,2.16,2.45,2.45,0,0,1-2,2.71,2.41,2.41,0,0,1-.54,0H9.92a2.45,2.45,0,1,1,0-4.9H22.06V44c-.52-.08-1-.15-1.54-.24a23.09,23.09,0,0,1-10.26-4.6A25.53,25.53,0,0,1,1.15,25.57,27.63,27.63,0,0,1,5,1.74,10.22,10.22,0,0,1,5.64.9,2.3,2.3,0,0,1,7.31,0c.33,0,.66,0,1,0C19.18,0,30.06,0,40.94,0a3.38,3.38,0,0,1,3,1.59,27.48,27.48,0,0,1,4.83,12.47,27.14,27.14,0,0,1-5.08,20,23.77,23.77,0,0,1-15.31,9.69c-.46.09-.94.14-1.41.21ZM43.12,24.5c-1.32-.12-2.59-.22-3.87-.37a38.26,38.26,0,0,1-9.94-2.44c-2.15-.87-4.26-1.85-6.39-2.77a19.39,19.39,0,0,0-9-1.64,42.62,42.62,0,0,0-8.68,1.56c-.23.07-.32.15-.29.4.14,1,.21,2,.41,3a21.06,21.06,0,0,0,7.46,12.66,17.59,17.59,0,0,0,17.54,3.26,19.5,19.5,0,0,0,11.14-9.85A20.78,20.78,0,0,0,43.12,24.5Zm.93-4.91c0-.16,0-.26,0-.36a21.35,21.35,0,0,0-.14-4.52,22.63,22.63,0,0,0-3.47-9.53A.47.47,0,0,0,40,4.92c-.59,0-1.18,0-1.77,0H9.15a.58.58,0,0,0-.57.31,22.32,22.32,0,0,0-3,7c-.11.48-.2,1-.31,1.48l.29-.05a45.83,45.83,0,0,1,7.16-1.24,24.92,24.92,0,0,1,6.34.2A27.42,27.42,0,0,1,26,14.89a69.08,69.08,0,0,0,6.77,2.83,39.36,39.36,0,0,0,9.43,1.77Z"></path><path class="cls-1" d="M43.12,24.5a20.78,20.78,0,0,1-1.57,3.84,19.5,19.5,0,0,1-11.14,9.85,17.59,17.59,0,0,1-17.54-3.26A21.06,21.06,0,0,1,5.41,22.27c-.2-1-.27-2-.41-3,0-.25.06-.33.29-.4A42.62,42.62,0,0,1,14,17.28a19.39,19.39,0,0,1,9,1.64c2.13.92,4.24,1.9,6.39,2.77a38.26,38.26,0,0,0,9.94,2.44C40.53,24.28,41.8,24.38,43.12,24.5Z"></path><path class="cls-1" d="M44.05,19.59l-1.86-.1a39.36,39.36,0,0,1-9.43-1.77A69.08,69.08,0,0,1,26,14.89a27.42,27.42,0,0,0-6.9-2.23,24.92,24.92,0,0,0-6.34-.2A45.83,45.83,0,0,0,5.59,13.7l-.29.05c.11-.51.2-1,.31-1.48a22.32,22.32,0,0,1,3-7,.58.58,0,0,1,.57-.31H38.24c.59,0,1.18,0,1.77,0a.47.47,0,0,1,.46.26,22.63,22.63,0,0,1,3.47,9.53,21.35,21.35,0,0,1,.14,4.52C44.08,19.33,44.06,19.43,44.05,19.59Z"></path></g></g></g></svg>